<svg xmlns="http://www.w3.org/2000/svg" xmlns:xlink="http://www.w3.org/1999/xlink" width="600" height="600">
<path title="宝坻区" fill="#D3D3D3" id="path12" d="M264.61,150.97L267.06,152.05L267.77,151.49L269.01,152.72L270.27,152.54L272.51,154.65L272.37,156.9L273.45,156.67L275.18,157.66L276.79,159.72L277.95,158.69L279.99,159.02L281.65,159.93L281.53,161.39L282.54,163.69L284.29,164.56L285.62,162.71L287.25,162.17L287.98,163.18L288.76,162.43L289.71,163.44L291.63,164.1L294.37,163.67L294.38,164.81L296.71,164.9L296.92,165.96L298.92,165.99L300.84,166.72L300.54,167.83L301.63,167.92L301.56,169.67L303.35,171.92L305.59,171.43L306.99,172.87L306.96,174.83L307.87,175.67L310.91,176.38L312.13,177.23L313.76,177.36L314.51,174.2L317.06,172.62L318.51,172.81L319.24,171.19L320.95,170.32L320.09,172.54L321.12,172.68L323.54,170.68L322.77,169.45L326.37,170.47L328.15,169.16L328.8,171.72L331.87,170.84L332.87,173.22L334.07,173.74L335.32,172.55L336.36,174.12L337.4,172.72L338.92,173.71L339.94,173.56L339.63,175.28L341.61,175.62L342.74,175.55L344.23,176.91L346.05,174.87L347.25,177.36L349.37,176.92L350.99,177.58L351.4,178.58L353.15,179.71L357.1,180.7L355.91,181.81L357.52,184.09L356.42,184.59L355.47,183.61L354.9,186.13L353.85,185.84L353.7,187.38L352.11,187.52L352.26,188.82L354.17,189.24L352.77,190.18L355.06,190.17L356.13,191.14L356.45,193.27L358.89,195.18L362.29,194.96L363.94,196.04L365.63,195.79L367.64,196.74L368.3,198.23L369.85,196.61L371.05,197.21L371.6,198.92L370.23,201.1L371.85,202.26L372.09,203.5L373.91,203.18L372.75,204.81L374.66,206.15L373.8,208.21L375.66,209.2L376.88,208.76L376.66,210.72L375.59,212.08L376.72,214.28L376.06,216.18L376.38,217.34L375.15,219.67L372.75,218.67L372.29,220.2L372.68,221.92L372.12,222.65L370.18,222.02L369.69,222.48L370.41,224.16L369.18,225.57L369.51,228L367,227.68L366.5,230.38L364.91,231.6L363.69,230.26L363.42,231.42L364.21,235.5L365.46,234.58L367.01,231.72L368.28,231.24L368.37,233.37L368.98,234.99L372.15,234.62L373.45,236.75L373.44,237.75L372.07,239.91L373.42,241.44L374.83,241.28L377.79,238.92L378.37,236.44L380.52,236.1L381.67,236.74L383.78,239.27L387.13,240.89L387.87,241.84L387.78,243.63L386.64,244.82L384.79,245.03L382.47,243.46L381.62,245.16L382.69,246.9L384.38,247.68L386.54,247.61L387.84,248.47L387.91,250.9L385.77,249.65L384.06,249.88L382.91,251.17L383,254.68L382.24,255.62L380.37,255.02L379.15,256.22L376.91,256.52L376.7,257.26L374.56,258.2L374.14,256.95L367.55,254.81L367.33,255.65L368.35,260.16L366.59,262.31L361.12,263.76L360.65,268.06L359.79,270.03L360.27,271.6L357.31,272.41L352.81,273.25L352.05,270.88L350.81,271.17L350.68,269.77L349.36,270.11L349.27,268.79L346.17,269.9L346.78,272.72L347.9,273.03L348.65,274.78L346.49,278.01L344.94,279.38L342.2,280.58L337.57,279.86L337.23,280.84L335.82,281L336.18,282.41L333.51,283.43L331.71,281.42L330.09,282.34L330.73,284.1L328.85,285.01L327.95,286.15L326.37,285.99L326.34,287.2L328.51,298.51L329.54,298.16L330.09,301.43L329.54,301.58L330.33,304.93L330.26,306.05L331.21,308.69L332.51,308.24L333.1,309.13L326.99,310.57L326.5,312.15L327.11,313.13L324.74,315.15L323.09,315.63L323.59,316.74L321.46,317.62L320.43,316.61L318.57,316.78L316.94,317.88L315,316.89L314.13,318.24L312.59,317.46L312.64,319.11L313.57,320.19L312.86,322.02L307.75,322.23L307.89,320.82L301.57,320.07L300.73,319.45L300.73,317.32L299.35,316.53L298.8,317.37L295.57,317.56L290.08,316.95L286.59,317.73L285.87,319.65L284.54,319.74L284.07,320.98L281.96,320.81L280.74,318.95L280.83,316.53L280.37,315.22L277.13,314.32L276.16,310.75L277.83,310.21L278.82,308.14L279.97,307.07L278.45,303.4L279.93,302.45L279.85,301.19L281.84,302.73L281.47,305.36L283.14,304.22L282.91,302.88L285.13,305.07L287.26,302.99L286.44,301.94L285.7,296.8L284.45,295.29L283.29,291.96L283.24,290.38L282.38,288.56L283.73,287.85L283.21,286.99L281.95,287.54L281.44,286.37L279.11,283.52L278.34,281.78L277.49,281.44L276.16,278.63L274.52,277.48L274.97,275.97L276.15,275.62L275.79,273.82L274.98,273.33L274.79,271L273.2,269.45L271.47,269.52L270.5,268.15L268.61,268.5L268.17,267.67L266.88,267.8L267.09,265.02L268.65,264.16L268.21,262.41L266.34,259.97L264.04,259.6L263.83,258.4L265.89,258.11L266.91,258.68L269.72,258.2L269.43,256.37L263.74,251.89L261.41,252.02L261.33,253.32L260.41,251.55L258.02,251.02L259.55,249.04L256.53,246.81L252.31,242.77L249.02,240.02L245.97,237.12L241.83,233.78L239.59,231.57L234.42,227.47L235.24,226.66L234.74,224.54L236.46,223.32L235.4,222.4L236.69,221.43L237.49,219.58L241.56,219.52L241.61,217.94L242.94,217.32L242.88,216.38L240.53,215.48L240.58,214.19L239.15,214.21L239,211.7L237.75,210.84L237.95,208.85L239.33,208.9L239.73,206.67L240.82,206.54L240.16,201.74L240.88,200.9L240.32,194.19L240.98,194.14L240.55,192.28L239.23,192.88L239.03,191.47L240.57,190.84L239.78,189.21L238.25,189.7L237.74,188.78L236.19,189.01L236.77,186.7L236.35,184.19L238.19,184.14L238.15,183.23L239.73,183.58L238.57,180L241.62,178.66L244.81,178.65L245.41,177.27L247.02,177.56L247.6,175.84L249.46,175.81L250.59,174.41L246.86,170.17L243.69,167.8L243.17,163.22L240.18,161.68L237.37,162.72L237.28,159.16L238.51,159.06L237.05,155.34L237.81,153.79L238.74,155.22L240.02,154.73L240.01,153.12L246.39,152.19L247.63,152.5L246.84,149.8L248.94,149.26L249.16,149.97L250.99,149.12L251.28,150.4L252.38,150.07L254.47,150.67L254.62,151.89L256.14,150.56L259.19,149.5Z" stroke-miterlimit="10" stroke="#FFFFFF"/>
<path title="北辰区" fill="#D3D3D3" id="path10" d="M180.44,385.85L178.19,384.04L179.18,383.12L178.09,382.93L177.68,380.68L178.35,377.94L182.84,377.57L184.69,378.23L184.62,376.65L185.4,371.13L186.49,370.8L185.66,369.05L186.73,368.09L185.54,363.55L188.17,362.65L188.88,363.08L191.46,359.98L191.65,357.92L193.31,358.66L195.95,358.76L197.3,356.72L197.5,353.94L200.64,353.86L201.29,351.85L200.95,349.01L199.18,349.87L198.96,348.34L199.72,348.17L198.67,345.39L199.19,345.36L198.9,342.97L204.53,341.41L204.02,342.54L207.56,341.75L208.99,345.33L211.9,345.26L215.01,344.63L213.76,344.1L213.44,343L215.27,342.26L214.87,340.81L218.62,338.75L216.1,335.9L223.05,334.12L227.13,334.86L229.11,334.55L231.1,336.57L232.77,336.9L234.42,336.49L234.29,335.82L236.16,335.06L237.42,333.04L236.83,330.45L238.06,330.05L238.27,331.9L239.51,330.97L239.27,328.93L237.96,329.23L238.22,328.09L240.1,327.33L240.29,328.41L241.48,328.38L241.6,329.4L243.44,329.21L244.67,326.79L246.98,326.81L246.63,323.21L247.82,322.61L247.73,321.21L248.79,322.33L250.32,322.3L250.33,320.97L255.17,318.84L258.18,319.82L258.01,319.08L259.51,318.36L262.89,319.66L263.87,321.53L266.37,321.69L266.76,322.82L267.75,322.62L267.93,320.55L269.26,320.24L270.7,321.81L272.34,321.41L274.12,321.86L275.29,325.5L277.61,325.62L277.97,327.38L276.81,328.11L277.38,329.33L280.86,328.49L281.19,329.73L282.9,328.19L285.02,331.31L285.77,330.39L286.96,331.97L286.75,333.87L285.16,335.25L286.59,336.54L288.07,334.99L290.54,337.69L293.34,340.06L291.64,341.06L293.94,343.12L295.14,341.62L299.25,345.7L302.85,344.29L304.01,343.03L305.09,344.81L305.54,347.66L303.71,353.07L301.96,353.73L301.94,356.98L303.58,357.57L304.46,359.71L302.44,359.9L299.4,362.08L299.89,363.18L294.94,362.14L289.39,361.87L285.46,361.3L283.61,361.73L282.99,360.55L276.09,358.29L273.64,356.82L271.65,358.29L271.83,359.11L274.23,358.52L274.94,359.7L275.72,365.73L273.96,367.11L268.79,368.37L265.29,370.07L261.82,372.35L258.12,376.37L255.53,379.22L254.97,379.32L253.38,377L251.92,376.42L248.23,378.82L246.77,376.77L245.87,377.37L241.27,378.75L240.12,379.57L237.86,377.33L234.93,377.76L233.07,377.05L231.04,379.09L230.17,381.37L229.83,383.83L228.17,383.12L222.79,382.3L217.74,383.05L214.51,384.68L214.72,388.08L212.79,388.29L212.59,386.35L211.95,386.11L207.45,388.01L204.86,388.03L203.09,389.18L202.37,383.99L201.37,384.14L201.59,386.43L200.58,386.8L200.79,389.07L201.6,389.68L197.9,391.34L197.54,387.38L196.54,387.71L195.52,384.26L192.58,385.01L192.26,383.99L187.09,385.32L185.61,385.06L185.42,383.02L184.09,381.99L182.89,384.88L181.75,384.37ZM229.96,377.49L232.8,376.31L232.92,374.72L230.42,372.71L228.66,373.61L229.47,375.45L228.76,375.71Z" stroke-miterlimit="10" stroke="#FFFFFF"/>
<path title="滨海新区" fill="#D3D3D3" id="path13" d="M338.28,442.2L337.7,439.01L338.11,436.84L337.85,435.04L336.92,435.95L335.66,434.93L336.53,431.36L336.05,430.99L337.39,427.88L338.32,428.08L339.14,423.97L341.3,424.54L347.17,425L346.7,421.19L348.33,416.7L345.35,416.54L345.48,409.25L340.79,409.15L340.6,406.84L335.68,406.77L331.79,406.36L333.56,395.94L334.82,391.49L335.85,391.01L342.05,394.1L345.28,392.51L345.41,390.16L346.14,388.31L348.98,387.4L349.22,383.27L349.7,381.85L355.99,384.43L362.38,385.83L362.69,382.96L364.57,379.9L363.86,378.41L363.08,378.6L362.97,372.15L365.97,371.28L367.81,370.22L367.82,369.48L370.14,368.61L370.71,369.91L372.58,372.16L376.4,377.88L380.09,377.87L380.06,383.89L380.81,383.31L390.66,383.35L390.9,376.21L389.87,375.84L391.3,371.16L397.34,360.57L392.49,357.69L392.48,355.87L391.41,356.26L390.45,353.74L389.85,353.86L388.38,350.09L387.98,349.96L388.07,344.6L391.17,344.86L391.45,341.89L394.29,342.02L402.21,340.37L403.49,339.01L405.75,337.96L408.63,337.15L410.47,338.25L410.03,338.96L410.09,342.34L409.76,342.96L415.32,346L416.59,345.89L414.51,349.7L419.94,352.66L420.3,352.57L427.22,339.41L426.7,338.52L422.92,336.52L423.13,335.22L424.54,334.43L423.53,332.57L424.91,330.3L425.37,333.44L426.47,333.18L426.68,330.79L425.17,329.57L425.64,328.6L426.4,329L428.07,328.34L427.95,327.36L429.6,326.59L431.21,328.12L434.29,327.43L437.03,327.4L438.25,329L438.01,330.51L440.87,331.43L441.72,332.96L442.97,331.77L449.28,331.94L450.93,332.45L453.09,332.38L454.26,333.22L458.19,332.86L459.89,333.59L459.96,335.14L461.35,338.42L462.73,339.13L463.03,340.24L465.31,339.83L466.15,340.94L466.29,342.61L469.21,342.36L472.06,344.26L473.53,343.26L474.22,341.33L475.22,342.04L476.12,343.81L475.23,346.53L477.11,347.59L476.59,348.69L477.52,351L484.85,353.89L485.15,354.21L485.38,361.44L485.14,362.92L477.59,363.16L476.99,367.37L476.43,366.92L461.3,371.83L460.16,377.87L457.8,383.55L447.17,391.04L432.41,401.19L428.97,406.85L425.52,413.22L423.88,418.37L423.05,424.27L423.51,432.76L425.79,440.54L426.69,446.8L427.19,457.3L427.96,459.19L439.58,462.36L439.9,464.84L438.08,470.63L433.48,472.28L429.09,483.29L429.52,485.91L429.2,489.36L425.78,494.99L422.15,495.12L418.84,494.43L406.96,490.27L404.29,492.06L399.79,497.84L382.59,501.49L373.99,501.81L370.81,504.29L370.9,518.4L373.09,522.1L377.75,524.31L393.47,526.83L395.47,528.03L396.8,530.63L396.66,549.5L396.12,553.33L393.47,556.49L373.71,563.33L371.66,565.43L369.75,569.36L368.88,575.14L353.34,577.99L346.7,579.66L345.8,578.53L343.72,578.24L342.45,580.36L341.44,581.08L342.23,583.23L338.87,584.21L337.52,584.04L338.26,582.17L337.25,582.26L337.42,580.42L335.4,580.86L334.08,579.61L332.37,579.59L331.71,578.22L329.65,579.06L325.15,578.46L325.86,580.45L324.37,581.37L323.13,580.55L312.46,584.02L307.85,587.76L306.34,586.6L303.93,588.67L306.12,589.67L302.59,593.37L295.14,596.8L295.1,590.61L291.24,591.21L292.14,594.77L290.16,596.42L290.08,597.92L288.97,596.74L283.09,596.84L280.5,599.26L278.55,600L277.83,599.64L277.4,596.84L276.27,594.45L273.99,594.38L274.16,597.61L270.54,598.43L266.84,599.6L266.33,597.66L263.5,599.79L261.68,596.06L261.29,596.03L259.75,591.92L260.53,591.91L266.01,590.16L265.72,589.12L259.45,591.11L259.31,589.63L261.36,586.12L264.46,585.06L264.03,583.62L265.24,583.41L265.08,581.57L264.26,579.66L261.69,577.96L259.15,577.77L258.57,576.11L257.36,576.09L258.98,573.57L255.82,573.72L257.08,572.02L257.26,569.91L255.84,569.15L253.6,569.48L252.52,570.61L251.79,573.98L249.86,574.11L250.02,575.24L249.04,576.83L246.06,577.02L245.18,578.7L244.57,578.13L242.59,578.11L240,579.2L239.51,578.46L235.63,578.29L237.08,577.07L237.4,574.83L237.08,573.04L238.88,567.57L238.7,564.22L237.26,563.94L238.23,563.33L238.35,561.52L237.71,560L236.38,559.46L236.37,557.67L234.78,557.86L234.6,555.94L235.28,555.88L234.87,553.79L235.15,552.44L236.57,552.92L237.7,550.19L237.79,547.52L237.46,544.23L238.19,539.16L242.71,538.58L242.64,537.87L238.11,538.53L236.96,540.18L234.36,539.34L234.33,537.96L233.06,537L231.82,537.71L231.78,535.11L231.15,534.98L236.44,531.63L236.7,528.69L238.57,529.09L239.26,529.95L247.25,524.74L253.32,520.43L252.7,519.65L247.67,515.92L250.29,512.68L248.09,511.11L251.03,507.39L255.3,510.43L261.88,502.29L264.38,499.38L265.06,497.89L277.44,502.78L279.81,503.6L283.64,506.18L284.89,505.84L286.12,504.42L284.53,503.91L284.84,503.02L283.77,501.62L287.01,499.23L293.48,494.33L300.27,488.97L305.66,483.89L313.83,493.95L314.68,490.04L316.79,486.64L321.21,482.67L327.33,477.5L331.81,476.7L330.11,464.41L334.05,462.77L334.42,463.56L336.83,461.16L338.9,460.76L342.82,464.31L344.83,464.32L344.2,458.81L344.65,458.67L344.39,455.49L345.98,450.87L346.47,450.78L347.34,448.21L346.75,447.13L344.48,447.3L341.83,443.92L339.42,442.26Z" stroke-miterlimit="10" stroke="#FFFFFF"/>
<path title="东丽区" fill="#D3D3D3" id="path7" d="M267.27,416.25L267.52,414.32L268.73,412.47L270.51,412.45L270.81,413.76L272.49,413.66L272.54,412.98L275.79,413.9L276.32,415.44L276.82,413.97L277.6,414.22L278.18,412.88L278.93,408.81L269.68,406.3L268.06,399.86L268.58,398.82L272.64,397.97L270.81,392.47L274.49,391.32L273.64,389.02L269.96,386.96L265.54,388.37L265.51,385.36L265,384.51L263.1,385.16L262.85,384.17L260.16,384.23L262.63,381.52L258.12,376.37L261.82,372.35L265.29,370.07L268.79,368.37L273.96,367.11L275.72,365.73L274.94,359.7L274.23,358.52L271.83,359.11L271.65,358.29L273.64,356.82L276.09,358.29L282.99,360.55L283.61,361.73L285.46,361.3L289.39,361.87L294.94,362.14L299.89,363.18L299.4,362.08L302.44,359.9L304.46,359.71L306.4,361.02L305.83,364.77L308.38,365.59L310.52,363.87L310.73,362.88L315.08,363.14L316.64,362.68L317.61,361.08L319.11,362.87L321.56,363.7L323.48,363.57L327.63,366.72L327.43,370.03L326.26,371.54L327.28,372.25L329,372.22L331.9,370.82L331.41,373.44L328.55,374.43L331.67,375.55L331.52,374.05L333.83,373.02L333.62,371.28L334.66,372.24L334.65,376.59L335.75,376.96L341.06,380.05L343.86,380.86L344.52,380.56L349.7,381.85L349.22,383.27L348.98,387.4L346.14,388.31L345.41,390.16L345.28,392.51L342.05,394.1L335.85,391.01L334.82,391.49L333.56,395.94L331.79,406.36L335.68,406.77L340.6,406.84L340.79,409.15L345.48,409.25L345.35,416.54L348.33,416.7L346.7,421.19L347.17,425L341.3,424.54L339.14,423.97L338.32,428.08L337.39,427.88L336.05,430.99L336.53,431.36L335.66,434.93L336.92,435.95L337.85,435.04L338.11,436.84L337.7,439.01L338.28,442.2L337.31,442.67L334.12,445.96L333.35,445.55L331.67,441.66L329.67,438.79L328.1,438.51L325.91,439.62L324.17,439.33L322.69,437.78L323.21,434.09L322.23,432.58L321.17,432.76L319.85,434.26L316.91,436.3L313.85,437.11L309.17,437.02L306.97,436.32L303.26,434.11L301.74,432.47L300.44,429.56L299.45,426.31L298.2,425.45L295.8,425.98L292.33,426.17L289.36,425.37L286.57,423.39L284.15,420.29L279.94,417.9L277.7,417.3L274.23,417.08Z" stroke-miterlimit="10" stroke="#FFFFFF"/>
<path title="和平区" fill="#D3D3D3" id="path1" d="M255.12,402.99L252.6,404.34L247.97,408.33L246.26,408.81L243.32,408.44L243.46,401.66L243.83,396.09L246.34,396.17L247.4,396.94L248.7,398.41L251.65,397.34L252.6,397.87L252.84,399.84Z" stroke-miterlimit="10" stroke="#FFFFFF"/>
<path title="河北区" fill="#D3D3D3" id="path5" d="M258.12,376.37L262.63,381.52L260.16,384.23L262.85,384.17L263.1,385.16L265,384.51L265.51,385.36L265.54,388.37L262.28,388.58L262.61,391.7L257.05,391.6L254.69,393.37L253.13,391.04L252.71,392.26L250.73,393.17L249.94,394.82L252.01,396.58L251.65,397.34L248.7,398.41L247.4,396.94L247.46,392.6L245.29,389.74L242.74,387.29L242.46,386.25L243.53,385.06L242.88,380.29L241.63,380.47L240.12,379.57L241.27,378.75L245.87,377.37L246.77,376.77L248.23,378.82L251.92,376.42L253.38,377L254.97,379.32L255.53,379.22Z" stroke-miterlimit="10" stroke="#FFFFFF"/>
<path title="河东区" fill="#D3D3D3" id="path2" d="M265.54,388.37L269.96,386.96L273.64,389.02L274.49,391.32L270.81,392.47L272.64,397.97L268.58,398.82L268.06,399.86L269.68,406.3L278.93,408.81L278.18,412.88L277.6,414.22L276.82,413.97L276.32,415.44L275.79,413.9L272.54,412.98L272.49,413.66L270.81,413.76L270.51,412.45L268.73,412.47L267.52,414.32L267.27,416.25L265.41,415.86L262.24,413.99L261.28,412.92L260.27,409.63L257.28,406.2L255.12,402.99L252.84,399.84L252.6,397.87L251.65,397.34L252.01,396.58L249.94,394.82L250.73,393.17L252.71,392.26L253.13,391.04L254.69,393.37L257.05,391.6L262.61,391.7L262.28,388.58Z" stroke-miterlimit="10" stroke="#FFFFFF"/>
<path title="河西区" fill="#D3D3D3" id="path3" d="M267.36,430.44L263.16,431.3L258.42,432.58L253.82,432.25L253.82,424.54L252.03,423.86L252.84,423.15L250.04,419.09L245.85,420.78L244.46,418.68L243.44,412.89L243.32,408.44L246.26,408.81L247.97,408.33L252.6,404.34L255.12,402.99L257.28,406.2L260.27,409.63L261.28,412.92L262.24,413.99L265.41,415.86L267.27,416.25L274.23,417.08L272.46,419.53L273.14,423.14L271.67,423.57L272.69,426.37L270.95,427.11L270.29,425.48L267.47,426.61L268.77,429.27L267.14,429.82Z" stroke-miterlimit="10" stroke="#FFFFFF"/>
<path title="红桥区" fill="#D3D3D3" id="path6" d="M247.46,392.6L245.98,392.99L241.25,392.78L241.29,394.38L238.02,394.5L233.72,393.63L233.77,392.04L231.71,392.78L229.45,390.75L228.86,388.4L229.83,383.83L230.17,381.37L231.04,379.09L233.07,377.05L234.93,377.76L237.86,377.33L240.12,379.57L241.63,380.47L242.88,380.29L243.53,385.06L242.46,386.25L242.74,387.29L245.29,389.74ZM229.96,377.49L228.76,375.71L229.47,375.45L228.66,373.61L230.42,372.71L232.92,374.72L232.8,376.31Z" stroke-miterlimit="10" stroke="#FFFFFF"/>
<path title="蓟州区" fill="#D3D3D3" id="path16" d="M341.61,175.62L339.63,175.28L339.94,173.56L338.92,173.71L337.4,172.72L336.36,174.12L335.32,172.55L334.07,173.74L332.87,173.22L331.87,170.84L328.8,171.72L328.15,169.16L326.37,170.47L322.77,169.45L323.54,170.68L321.12,172.68L320.09,172.54L320.95,170.32L319.24,171.19L318.51,172.81L317.06,172.62L314.51,174.2L313.76,177.36L312.13,177.23L310.91,176.38L307.87,175.67L306.96,174.83L306.99,172.87L305.59,171.43L303.35,171.92L301.56,169.67L301.63,167.92L300.54,167.83L300.84,166.72L298.92,165.99L296.92,165.96L296.71,164.9L294.38,164.81L294.37,163.67L291.63,164.1L289.71,163.44L288.76,162.43L287.98,163.18L287.25,162.17L285.62,162.71L284.29,164.56L282.54,163.69L281.53,161.39L281.65,159.93L279.99,159.02L277.95,158.69L276.79,159.72L275.18,157.66L273.45,156.67L272.37,156.9L272.51,154.65L270.27,152.54L269.01,152.72L267.77,151.49L267.06,152.05L264.61,150.97L263.24,149.26L264.15,146.39L265.35,146.13L261.94,139.85L259.85,140.07L259.05,141.72L257.4,141.33L256.57,142.8L254.45,141.45L252.58,141.55L252.15,140.4L248.74,139.41L246.9,139.47L245.08,137.94L243.55,138.35L243.8,136.95L242.93,136.35L242.31,137.79L240.36,137.85L239.92,137.04L241.83,135.58L240.93,133.99L240.28,135.59L239.32,135.67L238.83,134.32L237.44,133.55L236.33,134.66L235.91,134.01L237.62,129.79L235.08,127.31L235.48,125.26L237.39,124.36L237.74,122.71L233.89,121.87L233.28,119.3L231.7,119L231.89,118.28L235.29,117.36L234.34,114.19L235.52,113.16L236.7,113.83L237.2,112.44L234.49,109.16L235.61,110.01L237.68,107.91L239.29,107.45L239.8,106.27L239.39,103.5L241.44,103.53L242.41,104.94L243.43,102.63L243.14,98.46L245.73,97.92L246.56,96.84L246.49,95.19L248.47,92.95L247.82,88.96L248.34,86.59L247.13,84.38L247.36,82.67L245.65,81.14L245.79,78.75L245.38,75.43L245.9,73.32L244.45,71.45L244,69.32L244.63,68.04L246.8,68.43L246.89,66.72L249.67,67.19L251.52,66.9L253.86,67.4L255.24,66.59L254.37,65L253.11,64.08L252.54,62.04L251.65,61.03L253.11,60.01L251.99,57.98L252.05,55.9L255.65,56.61L255.64,55.2L256.79,54.6L256.9,53.45L258.81,51.69L259.42,50.49L261.37,49.96L262.43,48.8L264.15,49.95L265.47,49.63L267.23,50.34L268.08,52.12L269.29,52.62L269.91,51.36L269.58,49.88L272.31,47.07L275.5,47.95L275.49,47.09L277.11,45.43L278.37,41.48L280.05,40.42L281.36,40.93L282.65,40.15L284.74,41.92L284.65,42.65L289.69,41.65L290.32,40.43L291.68,40.07L291.83,38.6L290.09,38.68L291.39,37.33L290.41,36.63L292.85,34.34L291.95,31.73L290.25,29.09L290.97,28.37L293.46,28.91L293.77,27.29L295.09,28.61L295.96,27.35L297.32,27.42L298.47,28.8L298.3,27.21L301.74,27.93L301.31,26.96L303.94,24.81L304.9,24.95L305.7,23.43L302.98,21.49L300.42,23.16L299.26,23.31L299.33,20.65L298.56,20.82L298.02,19.34L298.78,17.32L299.08,18.12L301.73,17.74L299.69,16.14L297.71,15.27L297.48,12.3L301.89,11.21L300.87,8.95L302.93,6.38L304.42,7L305.06,8.16L306.76,6.22L307.8,5.77L307.05,3.39L308.01,1.46L310.9,1.76L311.78,2.31L312.93,1.75L314.21,0L317.33,0.19L319.6,1.72L320.38,1.66L323.49,3.51L323.84,4.25L325.75,4.03L326.56,6.33L327.9,7.32L330.69,7.89L332.28,9.22L334.82,9.04L337.47,8.36L338.32,8.59L343.64,7.18L344.81,8.93L345.79,8.34L348.46,8.57L349.89,9.85L350.48,12.07L349.8,13.99L348.52,15.02L348.39,17.08L349.83,17.47L350.8,18.84L350.64,20.77L351.54,21.85L350.89,22.52L351.78,26.61L352.67,26.84L353.88,29.05L355.12,30.29L358.55,29.25L360.94,33.23L361.81,34.05L363.3,34.11L363.26,36.35L364.1,38.06L366.55,37.6L367.05,40.12L368.31,41.53L368.06,43.22L371.92,44.62L371.47,45.26L372.73,50.85L373.94,51.42L371.95,52.81L371.41,55.18L370.48,56.04L371.76,57.8L374.01,57.28L374.83,55.6L375.62,55.96L376.82,54.36L378.58,57.49L378.68,61.06L379.88,59.8L382.32,60.81L383.05,56.76L384.57,56.5L386.61,57.46L387.68,56.83L388.74,59.74L391.54,61.86L393.87,61.63L394.78,62.76L397.7,62.32L399.63,61.11L400.71,61.99L401.49,64.22L400.11,64.21L400.36,65.87L401.42,66.84L404.05,66.8L404.44,68.36L406.33,69.35L405.46,71.9L403.86,73.25L401.45,74.55L398.61,73.44L398.34,78.08L397.48,79.21L397.76,80.41L397.59,83.79L400.78,86.66L401.49,85.73L401.34,83.9L402.1,83L403.93,83.61L404.74,81.97L408.05,81.98L408.51,84.91L409,83.98L410.64,84.81L410.59,85.92L412.04,86.75L410.92,88.36L411.88,91.55L410.52,92.59L409.2,97.04L409.35,99.82L407.9,102.36L405.24,100.99L404.39,101.33L402.89,100.09L400.95,102.78L399.76,102.45L396.9,99.87L394.8,100.66L393.1,100.19L392.07,97.51L390.84,97.53L388.61,95.77L387.36,95.35L384.35,95.44L382.52,96.06L381.61,97.68L380.64,97.54L378.63,99.34L375.49,99.36L373.93,100.29L368.61,100.26L366.93,101.52L363.68,100.82L361.34,99.18L362.49,97.93L362.41,96.59L361.2,96.56L359.05,94.73L358.12,92.59L356.18,92.26L355.28,91.48L354.03,92.45L352.46,92.56L351.61,91.64L350.19,92.11L349.11,93.58L347.88,92.91L348.12,91.91L343.76,90.74L343.01,92.34L341.15,91.3L341.21,93.94L343.55,96.99L343.84,98.62L341.55,100.78L340.82,104.07L340.31,104.05L339.9,107.29L338.36,107.34L337.55,109.38L336.27,108.74L334.99,109.37L333.95,111.36L334.32,114L337.88,115.44L336.93,117.16L336.91,118.64L334.84,118.35L331.86,119.22L332.18,120.4L334.63,120.05L334.39,122.24L334.83,123.56L332.94,122.77L331.98,124.25L332.87,124.51L333.66,128.19L335.51,127.71L336.05,129.09L336.66,136.18L339.05,139.87L340.23,143.08L341.06,142.77L343.13,145.71L343.4,144.48L344.17,145.37L344.05,147.37L342.68,147.99L343.02,149.82L341.09,149.06L342.07,153.77L344.25,153L346.87,157.47L347.69,161.55L349.55,161.83L347.4,163.34L345.84,163.2L345.9,165.57L345.42,167.07L344.19,168.31L343.51,170.04L345.89,171.72L344.67,174.73L343.51,174.47Z" stroke-miterlimit="10" stroke="#FFFFFF"/>
<path title="津南区" fill="#D3D3D3" id="path9" d="M267.36,430.44L267.14,429.82L268.77,429.27L267.47,426.61L270.29,425.48L270.95,427.11L272.69,426.37L271.67,423.57L273.14,423.14L272.46,419.53L274.23,417.08L277.7,417.3L279.94,417.9L284.15,420.29L286.57,423.39L289.36,425.37L292.33,426.17L295.8,425.98L298.2,425.45L299.45,426.31L300.44,429.56L301.74,432.47L303.26,434.11L306.97,436.32L309.17,437.02L313.85,437.11L316.91,436.3L319.85,434.26L321.17,432.76L322.23,432.58L323.21,434.09L322.69,437.78L324.17,439.33L325.91,439.62L328.1,438.51L329.67,438.79L331.67,441.66L333.35,445.55L334.12,445.96L337.31,442.67L338.28,442.2L339.42,442.26L341.83,443.92L344.48,447.3L346.75,447.13L347.34,448.21L346.47,450.78L345.98,450.87L344.39,455.49L344.65,458.67L344.2,458.81L344.83,464.32L342.82,464.31L338.9,460.76L336.83,461.16L334.42,463.56L334.05,462.77L330.11,464.41L331.81,476.7L327.33,477.5L321.21,482.67L316.79,486.64L314.68,490.04L313.83,493.95L305.66,483.89L300.27,488.97L293.48,494.33L287.01,499.23L286.16,496.95L288.45,496.35L287.8,493.1L286.64,493.09L286.52,491.73L287.51,491.7L286.13,490.21L285.58,487.68L284.42,488.02L284.11,485.12L282.92,483.96L278.48,484.35L267.96,472.45L268.78,471.09L265.72,469.14L267.01,464.22L261.4,460.82L261.7,460.47L265.47,461.15L267.8,457.1L268.08,455.74L269.12,454.76L267.7,453.8L269.05,451.86L271.46,453.86L272.12,455.24L272.44,451.09L274.21,448.43L273.5,447.24L274.66,446.37L273.16,445.63L274.95,444.95L273.89,443.31L271.64,444.52L270.17,443.38L269.32,439.09L267.17,437.09L266.04,437.65L264.52,437.01L265.15,436.32L266.8,437.04L266.17,435.19L266.38,432.5Z" stroke-miterlimit="10" stroke="#FFFFFF"/>
<path title="静海区" fill="#D3D3D3" id="path15" d="M265.06,497.89L264.38,499.38L261.88,502.29L255.3,510.43L251.03,507.39L248.09,511.11L250.29,512.68L247.67,515.92L252.7,519.65L253.32,520.43L247.25,524.74L239.26,529.95L238.57,529.09L236.7,528.69L236.44,531.63L231.15,534.98L231.78,535.11L231.82,537.71L233.06,537L234.33,537.96L234.36,539.34L236.96,540.18L238.11,538.53L242.64,537.87L242.71,538.58L238.19,539.16L237.46,544.23L237.79,547.52L237.7,550.19L236.57,552.92L235.15,552.44L234.87,553.79L235.28,555.88L234.6,555.94L234.78,557.86L236.37,557.67L236.38,559.46L237.71,560L238.35,561.52L238.23,563.33L237.26,563.94L238.7,564.22L238.88,567.57L237.08,573.04L237.4,574.83L237.08,577.07L235.63,578.29L235.55,581.22L234.66,582.17L232.12,583.11L231.62,584.93L228.39,584.51L227.58,585.29L227.01,588.09L224.26,588.29L224.36,589.77L221.18,589.06L220.98,587.73L219.76,586.43L220.87,586.05L220.81,584.34L218.18,584.53L217.94,582.26L213.9,581.9L213.5,578.62L211.91,572L210.88,572L210.95,570.81L209.54,570.76L208.48,569.28L209.74,568.76L209.66,565.54L211.29,558.47L212.97,556.28L211.63,556.36L211.67,555.47L209.2,555.02L208.8,554.16L206.54,554.33L206.75,552.12L205.03,553.55L205.09,551.46L205.73,548.95L206.72,547.49L205.91,547.24L198.66,549.37L198.31,553.03L195.16,552.86L192.4,552.22L192.84,551.01L181.02,553.16L179.94,553.15L179.5,554.45L175.47,554.5L174.37,553.91L174.51,556.49L171.89,556.64L172.84,554.09L169.88,554.56L167.95,555.84L165.97,556.41L160.85,556.27L160.38,555.57L160.36,551.9L159.37,548.85L160.26,545.09L159.63,543.86L157.9,543.56L158.89,539.05L158.16,533.45L156.22,533.77L155.88,535.05L143.26,534L138.79,533.17L137.34,533.74L137.34,535.49L135.38,536.09L135.51,535.33L133.97,535.29L132.92,534.53L130.55,534.83L129.58,531.82L128.52,530.3L125.07,530.52L125.27,527.5L126.44,521.43L123.98,521.21L124.11,520.09L122.62,519.93L123.74,515.82L124.93,515.98L125.02,514.99L123.56,514.76L124.45,512.63L122.94,512.02L124.79,508.62L125.06,505.86L125.83,505.93L126.41,503.53L124.38,503.43L124.19,502.25L125,496.46L118.74,496.08L118.53,480.46L114.62,480.47L114.65,468.25L115.16,468.22L115.21,465.73L116.86,465.75L117.44,464.34L118.6,459.58L118.72,456.05L119.35,456.09L120.24,452.97L121.96,452.09L122.08,451.12L123.45,451.04L124.84,447.33L126.22,446.41L126.74,443.09L127.34,443.17L127.81,439.71L127.44,437.59L128.56,436.86L128.64,433.19L126.55,432.18L126.56,430.61L127.89,426.62L129.02,426.53L132.37,427.83L132.86,426.58L133.96,426.94L134.65,425.52L134.71,423.76L136.13,423.45L136.28,422.54L138.97,423.13L138.68,424.51L135.65,424.73L135.19,426.67L136.41,425.79L138.94,425.18L140.47,426.41L144.92,426.4L145.74,427.87L148.33,426.9L151.25,426.95L156.24,426.53L156.21,425.49L159.3,425.09L158.83,423.35L159.87,423.02L158.82,419.73L160.99,418.79L161.99,419.09L166.55,420.87L166.28,422.24L163.43,423.43L164.04,424.95L167.32,422.75L168.41,424.12L169.41,422.8L172.96,423.17L176.53,425.17L178.22,426.7L179.5,424.25L180.42,425.23L184.09,426.46L183.59,427.9L185.72,428.32L186.25,430.66L191.69,431.43L198.67,433.66L204.79,436.86L203.46,438.83L205.42,439.83L204.62,440.63L204,445.23L209.97,445.76L210.19,444L211.58,442.54L215.83,446.43L224.03,450.7L227.82,453.08L231.76,457.1L237.71,466.73L240.26,470.58L243.25,475.79L247.33,481.23L262.31,496.36Z" stroke-miterlimit="10" stroke="#FFFFFF"/>
<path title="南开区" fill="#D3D3D3" id="path4" d="M245.85,420.78L241.18,422.71L239.24,422.14L237.8,422.38L230.52,416.23L227.51,414.59L231.73,412.28L230.91,410.14L230.34,403.99L229.76,403.1L224.34,397L225.37,396.51L227.71,394.03L227.39,392.77L228.88,392.36L229.45,390.75L231.71,392.78L233.77,392.04L233.72,393.63L238.02,394.5L241.29,394.38L241.25,392.78L245.98,392.99L247.46,392.6L247.4,396.94L246.34,396.17L243.83,396.09L243.46,401.66L243.32,408.44L243.44,412.89L244.46,418.68Z" stroke-miterlimit="10" stroke="#FFFFFF"/>
<path title="宁河区" fill="#D3D3D3" id="path14" d="M414.29,312.78L413.76,316.75L414.69,318.55L417.33,319.47L418.58,318.85L421.91,318.78L422.95,320.72L427.38,317.22L425.98,314.96L427.06,314.08L427.79,315.16L427.38,316.42L429.41,315.78L430.03,316.67L427.41,320.42L426.49,323.7L425.45,323.53L424.29,325.8L425.94,327.28L425.64,328.6L425.17,329.57L426.68,330.79L426.47,333.18L425.37,333.44L424.91,330.3L423.53,332.57L424.54,334.43L423.13,335.22L422.92,336.52L426.7,338.52L427.22,339.41L420.3,352.57L419.94,352.66L414.51,349.7L416.59,345.89L415.32,346L409.76,342.96L410.09,342.34L410.03,338.96L410.47,338.25L408.63,337.15L405.75,337.96L403.49,339.01L402.21,340.37L394.29,342.02L391.45,341.89L391.17,344.86L388.07,344.6L387.98,349.96L388.38,350.09L389.85,353.86L390.45,353.74L391.41,356.26L392.48,355.87L392.49,357.69L397.34,360.57L391.3,371.16L389.87,375.84L390.9,376.21L390.66,383.35L380.81,383.31L380.06,383.89L380.09,377.87L376.4,377.88L372.58,372.16L370.71,369.91L370.14,368.61L367.82,369.48L367.81,370.22L365.97,371.28L362.97,372.15L363.08,378.6L363.86,378.41L364.57,379.9L362.69,382.96L362.38,385.83L355.99,384.43L349.7,381.85L344.52,380.56L343.86,380.86L341.06,380.05L335.75,376.96L334.65,376.59L334.66,372.24L333.62,371.28L333.83,373.02L331.52,374.05L331.67,375.55L328.55,374.43L331.41,373.44L331.9,370.82L329,372.22L327.28,372.25L326.26,371.54L327.43,370.03L327.63,366.72L323.48,363.57L321.56,363.7L319.11,362.87L317.61,361.08L316.64,362.68L315.08,363.14L310.73,362.88L310.52,363.87L308.38,365.59L305.83,364.77L306.4,361.02L304.46,359.71L303.58,357.57L301.94,356.98L301.96,353.73L303.71,353.07L305.54,347.66L305.09,344.81L304.01,343.03L302.85,344.29L299.25,345.7L295.14,341.62L293.94,343.12L291.64,341.06L293.34,340.06L290.54,337.69L288.07,334.99L286.59,336.54L285.16,335.25L286.75,333.87L286.96,331.97L285.77,330.39L285.02,331.31L282.9,328.19L283.94,324.57L282.51,321.46L284.07,320.98L284.54,319.74L285.87,319.65L286.59,317.73L290.08,316.95L295.57,317.56L298.8,317.37L299.35,316.53L300.73,317.32L300.73,319.45L301.57,320.07L307.89,320.82L307.75,322.23L312.86,322.02L313.57,320.19L312.64,319.11L312.59,317.46L314.13,318.24L315,316.89L316.94,317.88L318.57,316.78L320.43,316.61L321.46,317.62L323.59,316.74L323.09,315.63L324.74,315.15L327.11,313.13L326.5,312.15L326.99,310.57L333.1,309.13L332.51,308.24L331.21,308.69L330.26,306.05L330.33,304.93L329.54,301.58L330.09,301.43L329.54,298.16L328.51,298.51L326.34,287.2L326.37,285.99L327.95,286.15L328.85,285.01L330.73,284.1L330.09,282.34L331.71,281.42L333.51,283.43L336.18,282.41L335.82,281L337.23,280.84L337.57,279.86L342.2,280.58L344.94,279.38L346.49,278.01L348.65,274.78L347.9,273.03L346.78,272.72L346.17,269.9L349.27,268.79L349.36,270.11L350.68,269.77L350.81,271.17L352.05,270.88L352.81,273.25L357.31,272.41L360.27,271.6L359.79,270.03L360.65,268.06L361.12,263.76L366.59,262.31L368.35,260.16L367.33,255.65L367.55,254.81L374.14,256.95L374.56,258.2L376.7,257.26L376.91,256.52L379.15,256.22L380.37,255.02L382.24,255.62L383,254.68L382.91,251.17L384.06,249.88L385.77,249.65L387.91,250.9L387.5,252.61L387.95,254.49L389.89,257.32L391.95,255.54L394.53,255.19L395.92,253.66L397.79,250.76L395.38,246.44L395.3,244.02L395.84,241.75L398.69,241.62L400.04,241.05L400.59,239.24L398.61,236.31L404.02,232.9L406.13,232.86L409.93,233.55L411.18,232.18L413.37,231.93L417.59,234.15L420.1,235.81L423.59,236.23L425.69,235.7L426.88,236.36L427.45,235.28L428.5,235.38L431.49,233.67L435.81,236.06L438.13,235.56L440.1,236.27L444.21,238.6L448.36,240.3L449.44,241.71L448.65,243.83L446.92,245.55L445.05,248.63L444.83,250.87L443.78,253.05L442.83,253.12L442.83,254.53L441.62,255.55L441.6,257.31L442.99,258.06L442.73,259.77L443.62,260.39L443.51,262.25L442.62,263.72L439.77,264.54L439.34,271.76L438.07,272.56L439.2,273.03L440.08,276.15L439.66,277.7L436.96,278.88L436.41,279.73L434.16,279.58L433.07,283.92L432.05,283.91L432.46,299.26L425.7,300.49L425.99,302.65L429.06,302.18L429.91,304.34L429.36,308.76L430.79,311.02L428.69,312.71L427.15,310.14L426.31,310.75L423.48,311.37L418.58,311.5ZM403.43,303.11L395.71,299.61L385.46,300.65L386.17,307.25L378.21,308.05L377.56,301.48L377.09,299.09L375.63,298.96L373.24,299.9L373.59,300.69L370.1,301.27L369.65,303.28L368,303.87L367.81,301.76L366.87,301.82L366.68,300.32L362.08,300.83L362.13,299.43L361.31,298.74L361.25,297.29L358.6,296.45L358.71,297.54L357.44,298.03L355.66,301.41L351.53,301.85L350.34,301.71L350.43,303.23L349.67,304.31L347.39,304.58L347.55,305.8L345.57,305.96L346.72,308.43L345.35,309.5L342.92,309.97L343.24,311.13L341.54,311.35L340.56,312.52L341.09,316.17L340.24,316.62L338.95,315.12L338.06,315.49L338.71,317L336.61,318.45L338.91,321.92L340.1,321.38L340.8,325.23L349.96,323.61L356.93,321.32L357.54,322.74L360.12,322.08L360.74,323.42L362.77,322.98L362.95,325.22L367.86,323.2L369.72,323L369.74,324.8L368.47,325.96L369.84,327.48L370.91,330.63L372.1,330.85L372.1,333.29L375.65,332.7L377.15,330.14L377.6,318.24L382.13,317.75L383.4,318.19L387.22,320.47L397.71,319.38L408.63,311.47L408.02,305.24Z" stroke-miterlimit="10" stroke="#FFFFFF"/>
<path title="武清区" fill="#D3D3D3" id="path11" d="M282.9,328.19L281.19,329.73L280.86,328.49L277.38,329.33L276.81,328.11L277.97,327.38L277.61,325.62L275.29,325.5L274.12,321.86L272.34,321.41L270.7,321.81L269.26,320.24L267.93,320.55L267.75,322.62L266.76,322.82L266.37,321.69L263.87,321.53L262.89,319.66L259.51,318.36L258.01,319.08L258.18,319.82L255.17,318.84L250.33,320.97L250.32,322.3L248.79,322.33L247.73,321.21L247.82,322.61L246.63,323.21L246.98,326.81L244.67,326.79L243.44,329.21L241.6,329.4L241.48,328.38L240.29,328.41L240.1,327.33L238.22,328.09L237.96,329.23L239.27,328.93L239.51,330.97L238.27,331.9L238.06,330.05L236.83,330.45L237.42,333.04L236.16,335.06L234.29,335.82L234.42,336.49L232.77,336.9L231.1,336.57L229.11,334.55L227.13,334.86L223.05,334.12L216.1,335.9L218.62,338.75L214.87,340.81L215.27,342.26L213.44,343L213.76,344.1L215.01,344.63L211.9,345.26L208.99,345.33L207.56,341.75L204.02,342.54L204.53,341.41L198.9,342.97L199.19,345.36L198.67,345.39L199.72,348.17L198.96,348.34L199.18,349.87L200.95,349.01L201.29,351.85L200.64,353.86L197.5,353.94L197.3,356.72L195.95,358.76L193.31,358.66L191.65,357.92L191.46,359.98L188.88,363.08L188.17,362.65L185.54,363.55L186.73,368.09L185.66,369.05L186.49,370.8L185.4,371.13L184.62,376.65L184.69,378.23L182.84,377.57L178.35,377.94L177.68,380.68L178.09,382.93L179.18,383.12L178.19,384.04L180.44,385.85L179.75,388.25L178.1,387.75L178.4,386.86L174.75,387.85L174.93,389.36L177.58,390.02L177.52,391.31L173.37,391.75L174.79,396.71L173.35,397.1L173.1,398.16L174.18,402.23L172.45,402.12L172.09,400.86L173.55,400.69L172.24,395.56L171.24,395.67L170.87,392.89L169.57,391.27L165.4,389.87L158.87,390.25L157.71,388.89L157.68,383.27L156.97,382.75L157.31,380.25L157,378.92L156.99,373.44L156.33,371.95L155.32,372.03L154.97,368.4L159.31,367.69L160.39,368.12L160.11,363.33L161.42,363.33L161.67,364.89L162.56,364.69L162.86,366.44L163.73,365.31L165.04,365.49L164.45,364.22L164.85,362.94L163.2,362.38L162.93,359.63L162.25,360.3L160.66,359.5L160.43,354.94L161.25,354.4L159.3,349.49L160.58,349.12L160.15,344.6L159.51,341.74L158,341.92L157,341.24L156.82,339.55L158.01,339.35L158.29,337.77L162.74,336.75L162.15,333.81L163.52,333.6L164.16,330.5L163.52,327.3L164.28,327.12L164.21,325.19L162.02,324.3L160.43,324.83L159.5,324.1L159.12,322.11L159.58,320.02L160.51,320.06L160.11,318.77L159.06,318.36L156.19,319.53L156.56,321.16L155.51,321.85L153.16,324.72L152.61,323.21L151.46,324.29L147.71,324.94L146.06,318.22L148.89,317.32L149.27,315.37L147.08,316.2L145.37,315.13L144.69,312.7L146.22,312.9L150.01,312.49L149.83,311.16L150.98,309.87L150.09,306.48L150.59,305.45L149.32,304.39L149.05,302.39L150.45,301.7L150.16,299.65L150.68,298.52L151.84,298.91L153.93,298.45L154.08,297.38L156.33,294.77L157.38,294.43L157.3,292.55L159.12,293.66L160.46,291.12L158.55,290.18L156.9,290.32L154.9,288.02L152.62,288.71L152.64,289.67L150.73,289.32L148.61,290.79L147.13,289.69L147.05,287.19L144.04,285.05L142.56,285.38L141.77,287.21L139.71,285.79L138.64,286.78L137.64,284.29L139.18,285.44L139.2,283.07L138.21,281.7L137.45,281.83L137.05,280.22L135.67,280.04L136.69,277.87L139.49,277.38L139.33,276.61L142.8,275.92L142.66,274.94L145.4,274.2L144.45,269.19L142.75,267.68L144.22,267.4L143.56,264.33L146.75,263.62L146.05,258.29L146.74,258.35L145.74,255.77L144.75,256.29L145.09,257.88L144.02,257.5L141.43,257.76L140.56,257.22L140.26,254.98L139.32,255.07L138.44,251.77L136.32,250.72L136.76,248.23L137.65,248.06L137.43,246.81L139.22,244.35L138.89,243.93L141.71,242.66L142.05,240.89L142.92,240.72L139.81,237.48L139.16,234.55L140.96,233.3L142,233.47L140.74,232.06L141.17,231.36L139.7,231.13L142.42,229.48L141.72,230.93L141.97,232.39L143.55,232.5L143.03,230.95L144.04,230.23L143.12,226.91L145.07,225.82L146.29,226.47L146.58,227.64L149.4,226.53L149.06,224.94L150.24,224.68L146.94,220.81L147.64,220.09L147.08,219.01L149.17,217.72L148.9,216.91L150.87,216.86L150.43,215.7L153.78,213.82L153.38,208.6L156.26,208.7L157.17,207.61L159.72,207.24L162.47,205.83L164.63,206.29L168.87,205.1L168.47,203.6L169.51,203.16L168.67,201.37L170.49,200.91L170.13,198.72L171.65,197.31L171.67,194.82L175.9,194.72L176.56,195.83L177.34,194.81L180.93,194.66L181.43,197.21L180.26,196.08L179.22,198.81L179.1,201.77L181.1,204.84L179.47,205.38L179.53,207.45L182.75,209.06L182.16,211.75L182.82,214.45L184.63,217.1L186.54,215.22L187.63,216.65L187.41,219.51L188.09,219.66L191.6,217.84L195.56,216.77L196.51,215.33L198.66,213.38L203.41,214.58L205.52,215.55L209.94,216.75L215.82,219.11L218.47,220.68L221.92,222.04L222.56,223.63L225.05,223.9L225.13,224.98L229.06,226.54L228.53,224.79L231.52,226.15L232.62,225.13L234.74,224.54L235.24,226.66L234.42,227.47L239.59,231.57L241.83,233.78L245.97,237.12L249.02,240.02L252.31,242.77L256.53,246.81L259.55,249.04L258.02,251.02L260.41,251.55L261.33,253.32L261.41,252.02L263.74,251.89L269.43,256.37L269.72,258.2L266.91,258.68L265.89,258.11L263.83,258.4L264.04,259.6L266.34,259.97L268.21,262.41L268.65,264.16L267.09,265.02L266.88,267.8L268.17,267.67L268.61,268.5L270.5,268.15L271.47,269.52L273.2,269.45L274.79,271L274.98,273.33L275.79,273.82L276.15,275.62L274.97,275.97L274.52,277.48L276.16,278.63L277.49,281.44L278.34,281.78L279.11,283.52L281.44,286.37L281.95,287.54L283.21,286.99L283.73,287.85L282.38,288.56L283.24,290.38L283.29,291.96L284.45,295.29L285.7,296.8L286.44,301.94L287.26,302.99L285.13,305.07L282.91,302.88L283.14,304.22L281.47,305.36L281.84,302.73L279.85,301.19L279.93,302.45L278.45,303.4L279.97,307.07L278.82,308.14L277.83,310.21L276.16,310.75L277.13,314.32L280.37,315.22L280.83,316.53L280.74,318.95L281.96,320.81L284.07,320.98L282.51,321.46L283.94,324.57Z" stroke-miterlimit="10" stroke="#FFFFFF"/>
<path title="西青区" fill="#D3D3D3" id="path8" d="M229.45,390.75L228.88,392.36L227.39,392.77L227.71,394.03L225.37,396.51L224.34,397L229.76,403.1L230.34,403.99L230.91,410.14L231.73,412.28L227.51,414.59L230.52,416.23L237.8,422.38L239.24,422.14L241.18,422.71L245.85,420.78L250.04,419.09L252.84,423.15L252.03,423.86L253.82,424.54L253.82,432.25L258.42,432.58L263.16,431.3L267.36,430.44L266.38,432.5L266.17,435.19L266.8,437.04L265.15,436.32L264.52,437.01L266.04,437.65L267.17,437.09L269.32,439.09L270.17,443.38L271.64,444.52L273.89,443.31L274.95,444.95L273.16,445.63L274.66,446.37L273.5,447.24L274.21,448.43L272.44,451.09L272.12,455.24L271.46,453.86L269.05,451.86L267.7,453.8L269.12,454.76L268.08,455.74L267.8,457.1L265.47,461.15L261.7,460.47L261.4,460.82L267.01,464.22L265.72,469.14L268.78,471.09L267.96,472.45L278.48,484.35L282.92,483.96L284.11,485.12L284.42,488.02L285.58,487.68L286.13,490.21L287.51,491.7L286.52,491.73L286.64,493.09L287.8,493.1L288.45,496.35L286.16,496.95L287.01,499.23L283.77,501.62L284.84,503.02L284.53,503.91L286.12,504.42L284.89,505.84L283.64,506.18L279.81,503.6L277.44,502.78L265.06,497.89L262.31,496.36L247.33,481.23L243.25,475.79L240.26,470.58L237.71,466.73L231.76,457.1L227.82,453.08L224.03,450.7L215.83,446.43L211.58,442.54L210.19,444L209.97,445.76L204,445.23L204.62,440.63L205.42,439.83L203.46,438.83L204.79,436.86L198.67,433.66L191.69,431.43L186.25,430.66L185.72,428.32L183.59,427.9L184.09,426.46L180.42,425.23L179.5,424.25L178.22,426.7L176.53,425.17L172.96,423.17L169.41,422.8L168.41,424.12L167.32,422.75L164.04,424.95L163.43,423.43L166.28,422.24L166.55,420.87L161.99,419.09L162.36,416.9L163.39,417.14L164.49,414.47L165.46,414.66L166.15,412.07L167.56,412.32L168.7,408.05L169.66,408.06L170.08,405.25L172.31,405.89L173.52,402.59L174.18,402.23L173.1,398.16L173.35,397.1L174.79,396.71L173.37,391.75L177.52,391.31L177.58,390.02L174.93,389.36L174.75,387.85L178.4,386.86L178.1,387.75L179.75,388.25L180.44,385.85L181.75,384.37L182.89,384.88L184.09,381.99L185.42,383.02L185.61,385.06L187.09,385.32L192.26,383.99L192.58,385.01L195.52,384.26L196.54,387.71L197.54,387.38L197.9,391.34L201.6,389.68L200.79,389.07L200.58,386.8L201.59,386.43L201.37,384.14L202.37,383.99L203.09,389.18L204.86,388.03L207.45,388.01L211.95,386.11L212.59,386.35L212.79,388.29L214.72,388.08L214.51,384.68L217.74,383.05L222.79,382.3L228.17,383.12L229.83,383.83L228.86,388.4Z" stroke-miterlimit="10" stroke="#FFFFFF"/>
</svg>