<svg xmlns="http://www.w3.org/2000/svg" xmlns:xlink="http://www.w3.org/1999/xlink" width="600" height="600">
<path title="安庆市" fill="#D3D3D3" id="path8" d="M264.89,492.67L265.57,495.41L266.55,497.49L267.36,500.11L267.2,502.07L266.56,503.8L263.87,505.76L261.43,508.77L260.71,512.83L258.95,516.25L256.53,519.79L252.17,524.42L249.8,526.26L247.19,526.63L243.84,524.76L242.02,524.08L239.67,524.12L236.62,524.75L235.22,525.98L234.2,527.48L232.78,531.04L232.77,533.86L232.12,538.31L231.56,541.1L230.9,542.72L229.89,543.64L228.35,544.1L223.93,544.06L222.76,544.25L220.24,546.07L215.48,548.76L212.3,550.11L210.7,551L208.74,552.74L207.72,553.97L204.67,556.21L202.8,556.97L202.05,556.85L199.51,553.09L197.64,551.91L195.63,551.73L193.7,551.92L190.59,552.81L190.28,550.04L190.53,546.34L189.68,543.67L187.58,540.82L185.8,538.15L185.05,537.56L184.65,536.01L185.39,534.69L185.09,531.51L186.12,529.64L186.38,528.61L185.25,526.26L185.18,525.26L185.71,524.17L185.61,521.97L186.06,520.34L185.74,518.55L184.77,517.73L183.62,515.71L183,513.66L182.93,512.42L183.7,511.01L183.74,509.52L181.97,507.62L180.58,507.27L180.08,505.84L178.7,504.75L177.01,504.13L176.44,502.78L176.09,500.1L175.67,499.57L173.49,498.5L171.58,498.32L169.96,498.95L168.27,497.97L168.2,497.33L169.23,496.37L169.45,495.24L167.5,492.74L166.38,490.18L167.93,488.13L168.73,488.02L169.92,486.05L170.84,485.59L171.53,485.89L172.3,485.06L169.85,484.54L169.34,482.95L167.34,481.97L167.26,481.2L167.92,480.06L167.65,478.66L168.78,475.91L169.76,474.98L168.34,473.91L167.79,472.41L166.66,471.89L166.21,469.99L165.47,468.87L165.81,467.87L164.57,466.79L163.71,466.61L162.85,465.22L160.88,464.74L160.5,465.87L160.02,465.67L158.92,463.68L159.61,462.64L159.12,460.65L158.05,459.81L157.88,458.84L155.78,457.69L155.49,456.68L154.54,455.81L155.01,454.82L154.83,453.34L155.88,450.94L156.51,448.37L157.46,447.52L159.18,447.5L160.11,448.48L161.52,447.84L163.15,447.81L163.42,446.6L164.78,445.83L164.89,444.91L163.84,444.64L164.54,443.13L164.33,441.16L162.89,439.71L162.95,438.29L164.34,436.71L164.52,435.69L165.61,435.16L166.46,434.16L169.07,433.06L170.97,432.86L171.33,431.34L174.66,429.41L175.22,428.12L176.88,427.52L178.47,426.06L179.91,425.62L180.85,425.9L181.33,425.14L184.45,425.27L184.25,423.87L183.34,420.96L183.21,418.95L181.98,418.75L182.5,415.62L182.44,414.79L183.93,412.48L186.48,411.05L186.54,410.21L187.63,409.72L189.01,410.58L192.76,409.17L193.59,409.37L195.05,410.97L195.29,413.06L197.18,413.85L199.03,413.41L201.06,411.85L202.8,411.08L203.48,409.08L205.86,407.43L206.87,406.48L207.48,404.53L209.5,403.94L210.66,403.17L210.88,401.9L212.29,400.73L214.17,401.71L215.78,402.08L217.69,402.07L219.29,404.11L219.85,405.88L222.04,406.17L222.98,405.07L224.12,404.92L225.56,403.59L226.06,404.41L226.68,404.29L227.77,402.29L229.6,400.68L230.08,399.83L230.99,400.09L231.35,400.94L230.99,401.65L231.52,403.72L231.28,406.46L231.94,407.84L230.66,409.86L229.62,412.24L229.12,413.99L229.24,415.4L228.87,416.4L228.84,418.02L230.1,418.09L231.72,416.48L232.05,415.24L232.75,414.54L234.75,415.01L235.03,414.28L236.67,412.79L236.91,412.04L237.73,412.02L240.1,413.74L240.77,414.49L241.89,413.71L243.63,414.09L244.13,414.89L246.16,415.51L247.44,413.66L248.78,413.17L250.32,413.51L251.15,412.67L252.73,412.48L253.8,413.02L255.47,411.11L256.41,410.75L257.74,408.96L259.09,408.59L258.98,407.58L259.46,406.31L260.92,405.72L262.25,405.99L264.08,405.32L266.44,403.3L266.77,402.31L268.82,402.11L269.11,399.74L269.8,399.02L270.69,396.15L272.45,392.75L274.07,391.4L274.89,390.13L275.82,390.23L277.37,391.39L278.33,391.86L279.57,393.79L281.15,393.62L281.9,395.34L283.93,398.87L284.83,401.23L286.06,403.61L286.04,405.79L285.58,406.33L286.12,408.89L285.59,410.78L287.4,412.13L289.36,412.21L288.75,413.81L288.19,414.27L288.17,415.95L287.56,417.12L287.9,418.75L287.28,419.56L286.3,419.62L285.02,418.87L283.33,419.25L283.45,421.68L282.24,423.22L282.02,424.7L282.6,428.44L283.58,433.27L284.52,439.83L284.4,443.98L284.01,446.61L285.58,447.89L286.31,449.65L290.01,453.22L291.47,453.95L292.36,453.44L292.68,454.36L293.62,453.98L294.08,455.09L297.59,455.27L295.91,455.71L294.85,456.59L294.3,457.61L294.12,459.32L294.74,461.49L295.24,461.99L295.32,463.11L298.22,466.64L298.64,469.48L297.83,472.38L297.58,474.07L297.11,476.13L296.14,477.9L294.89,479.25L292.83,480.5L290.11,479.49L287.32,477.55L285.04,477.19L276.71,477.31L275.26,477.87L272.93,479.94L271.88,481.37L269.45,483.08L268.02,483.37L265.97,485.03L264.68,483.79L263.84,484.4L263.79,486.23L263.44,487.1L263.98,489.95ZM270.08,458.91L269.55,459.12L267.9,458.54L266.71,459.33L266.57,460.24L267.92,461.82L270.45,462.22L272.02,460.54L271.09,459.02Z" stroke-miterlimit="10" stroke="#FFFFFF"/>
<path title="蚌埠市" fill="#D3D3D3" id="path3" d="M248.67,200.46L249.36,198.31L249.13,196.88L249.82,194.66L250.51,193.5L250.56,191.92L251.83,191.53L251.88,192.19L252.79,191.85L252.72,192.63L254.79,192.91L255.14,192.23L255.92,192.76L256.46,190.73L256.34,189.75L255.11,188.47L253.11,187.61L250.3,186.11L249.93,185.21L249.97,183.52L251.48,181.77L251.47,178.98L250.52,177.1L250.73,175.93L252.12,174.31L252.68,174.71L254.11,172.72L255.41,174.22L256.38,174.3L256.97,168.82L257.47,167.89L257.41,165.58L256.17,163.32L255.43,160.4L254.94,160.36L255.08,157.12L255.61,156.76L256.88,157.32L258.88,159.31L259.73,159.71L261.65,159.18L262.52,157.61L265.01,157.61L266.84,156.76L268.24,157.42L269.75,159.12L271.79,160.08L272.95,159.7L274.49,160.12L275.45,159.98L276.7,157.99L277.55,158.35L283.48,159.32L283.85,156.68L283.15,155.71L280.53,155.08L280.46,153.77L281.49,153.65L282.06,152.42L283.29,152.16L283.59,151.33L282.46,149.99L280.33,149.01L279.2,149.31L280.12,146.89L282.21,145.23L283.42,146.2L284.77,146.2L284.63,146.84L286.38,148.2L287.15,147.46L288.15,144.87L287.27,143.71L286.51,143.4L286.7,141.99L287.76,141.13L289.22,141.47L289.69,139.32L293.85,143.27L294.37,139.84L296.62,137.5L297.65,135.57L297.76,134.22L299.58,134.74L304.2,135.46L305.24,137.17L307.64,137.22L309.59,137.77L312.12,139.47L313.1,143.12L315.28,146L316.19,148.42L320.39,152.04L321.09,152.3L323.32,152.24L325.4,152.98L326.46,154.35L328.82,153.72L330.15,154.62L331.28,154.88L333.19,152.97L334.58,152.33L335.37,152.52L336.44,153.7L338.85,154.34L339.74,156.43L341.01,157L341.25,158.54L342.98,159.55L344.68,159.33L345.61,160.46L349.25,159.61L350.98,160.17L352.44,159.52L352.55,158.01L354.03,157.68L356.14,158.12L356.81,157.07L357.36,154.68L358.5,154.19L360.76,154.03L361.11,152.91L362.19,152.43L362.85,154.09L366.35,154.23L368.34,154.09L368.94,153.62L370.3,153.76L369.61,155.23L369.34,157.99L368.11,160.21L365.12,161.9L365.95,163.11L365.08,165.18L365.4,166.25L366.51,166.37L368.8,166.11L370.35,167.84L370.36,168.49L369.19,169.02L369.93,171.49L371.12,171.61L371.54,172.57L372.66,173.23L373.46,174.23L374.56,174.65L374.67,176.63L375.51,176.26L377.79,176.03L377.55,176.64L375.85,176.79L375.29,177.55L375.94,177.82L378.12,176.64L378.19,178.7L377.27,180.99L378.01,182.88L376.94,183.62L374.14,183.7L372.73,185.15L371.4,185.86L370.82,187.55L371.48,188.61L372.75,188.25L374.54,189.11L374.02,190.54L372.07,192.03L371.34,191.98L369.31,190.88L368.14,192.01L365.93,190.56L364.95,191.25L362.61,193.66L361.24,193.36L359.34,191.92L360.84,190.63L361.07,189.97L360.4,188.57L360.7,188.19L360.02,186.86L359.39,187.39L357.47,188.08L353.8,188.99L351.64,188.64L350.42,187.02L349.05,186.77L348.01,187.52L346.44,191.1L345.54,192.11L343.75,191.5L342.73,191.94L341.79,193.97L341.44,195.78L339.94,198.71L339.23,201.59L337.85,202.53L336.75,202.34L334.88,200.9L332.62,201.2L331.32,199.85L330.04,199.03L329.25,197.84L327.3,195.74L325.63,194.48L325.34,196.04L325.38,199.27L323.81,199.98L323.11,202.78L322.58,204.06L323.8,205.36L323.92,206.61L323.41,207.36L321.77,207.83L320.6,210.33L319.82,211L318.53,210.5L316.06,210.41L315.08,209.91L314.4,211.59L312.54,211.08L309.88,210.93L309.24,210.66L308.18,211.91L305.7,212.3L304.62,212.03L304.01,213.1L301.81,213.27L301.36,214.26L299.93,215.18L298.99,214.63L297.91,215.9L296.67,218.48L294.96,220.8L293.85,221.56L293.19,222.79L291.85,222.65L291.59,222.05L289.76,222.19L289.63,221.04L288.38,220.87L286.36,220.13L282.42,221.71L282.15,222.74L283.04,223.59L281.48,224.76L280.67,224.03L278.73,224.92L278.48,224.32L279.51,223.37L278.12,223L277.5,221.32L277.02,221.29L277.08,220.1L276.06,220.18L274.43,217.68L273.46,217.15L270.46,216.22L267.96,214.27L266.61,214.18L266.83,213.38L264.3,211.33L264.41,210.33L263.53,209.84L262.85,210.18L258.2,206.34L258.83,205.31L258.43,204.82L256.62,204.45L255.37,203.47L254.03,203.19L253.45,201.78L251.84,201.29L251.15,201.88L250.82,201.02Z" stroke-miterlimit="10" stroke="#FFFFFF"/>
<path title="亳州市" fill="#D3D3D3" id="path14" d="M215.6,101.51L216.99,102.99L216.83,103.9L219.66,103.94L219.42,106.56L222.01,107.21L222.36,108.88L223.89,110.16L223.81,111.41L224.35,111.42L225.15,113.35L225.12,114.85L224.51,115.12L224.05,116.49L226.25,119.16L226.41,120.59L229.14,121.1L230.12,123.05L230.82,123.18L230.86,124.12L229.81,124.23L230.52,126.27L228.97,126.79L228.35,128.43L228.63,129.29L228.27,130.86L229.23,131.49L229.66,132.87L229.17,134.63L229.32,136.57L230.47,138.12L232.48,138.31L233.82,137.74L234.93,136.71L236.79,136.5L237.82,136.08L239.07,136.14L239.65,137L241.91,137.34L243.98,136.95L245.22,137.41L247.41,140.12L249.67,140.3L250.71,141.54L252.04,142.3L255.35,143.34L254.57,145.65L254.98,147.6L254.02,150.63L254.33,151.23L253.68,152.1L253.97,153.57L253.84,155.29L255.08,157.12L254.94,160.36L255.43,160.4L256.17,163.32L257.41,165.58L257.47,167.89L256.97,168.82L256.38,174.3L255.41,174.22L254.11,172.72L252.68,174.71L252.12,174.31L250.73,175.93L250.52,177.1L251.47,178.98L251.48,181.77L249.97,183.52L249.93,185.21L250.3,186.11L253.11,187.61L255.11,188.47L256.34,189.75L256.46,190.73L255.92,192.76L255.14,192.23L254.79,192.91L252.72,192.63L252.79,191.85L251.88,192.19L251.83,191.53L250.56,191.92L250.51,193.5L249.82,194.66L249.13,196.88L249.36,198.31L248.67,200.46L245.77,199.51L243.71,199.23L238.25,198.98L220.69,193.98L214.5,191.68L213.95,192.96L213.93,195.81L213.47,196.28L212.83,198.36L212.9,199.07L214.82,201.27L215.61,202.53L215.68,204.76L214.95,204.03L213.39,203.74L211.18,206.28L207.33,207.72L205.81,208.49L204.63,208.48L201.55,206.89L201.24,205.5L200.05,204.93L198.08,205.06L196.71,204.52L196.06,202.16L194.82,201.13L193.78,199.08L193.5,196.91L193.76,196.02L192.56,195.26L189.68,195L185.55,193.8L182.82,193.32L182.59,192.79L183.32,191.8L183.22,190.28L182.52,189.76L182.85,188.29L182.45,187.13L181.59,186.6L179.06,187.4L178.49,187.16L179.27,185.76L177.75,185.3L175.65,184.07L172.49,182.91L169.28,182.08L167.69,181.43L164.62,181.35L165.13,180.33L165.63,178.14L164.54,177.74L162.45,177.77L162.01,176.6L163.02,176.53L163.02,174.51L161.17,174.09L160.52,174.81L160.63,173.45L162.17,171.43L162.54,169.89L161.58,167.54L161.04,165.48L161.27,162.58L161.98,161.88L165.61,163.56L169.43,167.35L170.32,165.77L169.53,164.2L168.73,163.75L168.49,162.67L169.38,159.95L169.27,158.09L170.53,157.72L170.36,156.44L169.76,156L169.91,154.88L169.23,154.23L168.91,152.88L167.69,150.98L167.39,147.76L167.59,145.93L163.48,141.09L162.89,140.1L161.22,140.06L158.89,138.24L157.78,138.05L156.82,136.6L155.57,136.17L155.21,135.5L153.46,134.88L153.28,134.41L150.51,133.14L148.33,133.29L146.68,133.72L146.24,133.39L143.78,129.22L142.66,124.52L141.24,119.82L140.54,119.01L138.98,116.09L139.06,114.35L138.78,112.54L139.51,112.45L138.46,111.14L138.97,109.02L138.46,107.54L137.23,105.68L136.38,105.1L135.92,103.58L135.26,102.84L135.45,101.84L137.1,100.85L137.9,101.44L140.2,102.37L140.87,99.91L141.07,98.15L140.42,97.21L141.3,96.78L141.36,95.33L142.31,94.74L142.06,91.7L140.84,90.67L139.37,91.69L138.08,91.59L136.84,90.57L135.36,91.23L134.63,90.58L133.61,90.75L133.65,89.24L134.49,89.22L134.64,87.46L135.75,87.08L134.93,86.2L135.2,84.73L135.91,84.07L135.84,82.59L136.65,82.05L136.79,79.27L137.69,78.92L137.95,77.84L137.28,77.56L138.11,75.08L139.46,74.69L138.92,73.55L140.28,72.34L140.88,72.71L142.9,72.46L143.61,72.07L143.46,70.82L144,69.22L145.51,69.61L146.74,68.58L148.47,68.52L149.07,69.25L151.96,67.26L155.15,68.97L156.37,68.97L156.26,67.69L157.53,68.8L159.05,68.94L159.67,70.06L161.28,71.73L162.54,72.63L162.56,74.83L163.27,75.78L165.62,75.86L165.67,72.74L166.61,72.4L167.39,72.88L167.77,74.51L168.26,75.07L169.75,74.97L170.42,75.31L173.41,75.33L175.97,77.65L177.02,79.14L177.54,80.52L177.08,82.35L175.84,85.89L176.26,87.76L177.43,87.67L178.72,88.2L178.81,89.56L180.85,90.22L180.87,90.95L181.72,90.82L182.82,92.45L183,93.61L183.81,94.01L183.65,96.49L181.96,96.16L181.91,96.86L183.13,97.05L183.54,97.85L182.87,98.98L184.6,100.23L184.71,101.69L187.1,101.5L187.08,102.46L188.08,104.4L190.25,105.1L191.32,106.7L191.26,107.17L192.54,110.02L194.35,110.13L196.6,108.23L197.33,108.06L199.44,108.56L199.78,107.12L201.31,107.84L203.01,107.67L205.05,105.34L207.32,104.48L208.16,102.88L209.31,103.45L209.5,102.58L211.24,102.01L212.44,102.3L213.54,101.84Z" stroke-miterlimit="10" stroke="#FFFFFF"/>
<path title="池州市" fill="#D3D3D3" id="path15" d="M242.69,565.02L243.98,562.24L245.52,561.52L247.21,559.06L249.03,557.85L249.66,556.05L251.27,554.69L253.05,555.81L253.91,555.52L256.09,553.67L257.87,550.35L260.83,547.46L262.9,544.54L263.8,541.66L263.78,540.77L264.59,538.29L263.4,536.14L261.54,534.84L259.29,536.05L258.37,535.93L258.31,537.38L257.68,536.78L257.76,531.93L255.17,533.04L253.67,530.38L253.3,529.22L252.03,528.67L251.47,527.19L250.41,527.18L249.8,526.26L252.17,524.42L256.53,519.79L258.95,516.25L260.71,512.83L261.43,508.77L263.87,505.76L266.56,503.8L267.2,502.07L267.36,500.11L266.55,497.49L265.57,495.41L264.89,492.67L263.98,489.95L263.44,487.1L263.79,486.23L263.84,484.4L264.68,483.79L265.97,485.03L268.02,483.37L269.45,483.08L271.88,481.37L272.93,479.94L275.26,477.87L276.71,477.31L285.04,477.19L287.32,477.55L290.11,479.49L292.83,480.5L294.89,479.25L296.14,477.9L297.11,476.13L297.58,474.07L297.83,472.38L298.64,469.48L298.22,466.64L295.32,463.11L295.24,461.99L300.62,459.07L304.18,456.8L307.46,455.43L309.73,454.84L312.39,454.75L312.88,455.24L315.1,456.11L317.88,456.55L319.75,456.55L321.2,455.71L321.99,454.56L323.31,451.19L330.05,447.81L336.69,445.57L339.11,445.01L342.13,442.19L341.81,444.07L343.98,443.93L346.07,442.12L346.94,442.6L347.37,443.81L346.65,445.35L347.75,446.33L347.59,447.25L349.88,446.97L350.06,448.59L351.27,448.74L351.93,447.72L353.15,447.45L355.72,445.9L356.11,444.23L358.67,442.04L359.76,441.55L361.61,441.35L362.83,440.73L364.65,438.9L365.49,439.2L366.49,440.95L369.08,438L369.97,439.68L367.76,443.03L367.96,443.5L369.4,443.6L370.73,445.3L373.92,445.85L375.97,447.59L377.88,448.92L380.26,449.82L382.17,452.01L383.07,452.18L383.41,454.04L384.03,454.16L383.17,455.23L381.2,458.35L380.61,459.66L380.74,460.8L378.52,462.77L378.05,464.36L377.35,465.43L375.44,465.75L373.2,468.19L370.69,468.71L369.54,469.78L369.74,472.43L369.15,473.81L368.09,475.29L367.46,475.72L366.28,477.88L365.74,480.4L365.74,481.71L365.03,485.07L365.29,486.36L366.42,487.48L366.45,488.72L365.01,490.34L362.91,491.64L364.02,492.67L365.19,495.21L363.76,495.65L364.4,496.14L364.06,496.88L363.27,496.85L362.05,498L362.55,499.18L361.52,499.74L359.99,499.85L360.19,502.5L357.74,502.86L355.79,503.53L354.04,505.63L354.47,507.47L357.27,508.35L357.56,509.28L356.74,511.22L356.17,511.16L354.66,512.29L353.6,512.24L351.42,514.36L349.51,515.14L346.13,515.44L341.86,516.62L340.27,517.82L340.66,518.56L339.37,519.01L339.66,520.59L338.33,520.48L337.69,519.75L336.75,519.86L336.43,520.85L335.3,521.56L333.77,520.17L333.3,517.96L332.26,518.15L330.82,519.46L329.65,519.72L329.26,520.65L328.44,521.06L329.49,521.28L329.23,522.8L328.41,523.34L327.86,521.3L327.02,521.3L326.58,520.29L325.41,521.53L326.03,523.29L326.88,522.96L326.09,524.1L326.68,526.75L323.72,528.51L321.91,528.76L318.91,528.41L317.43,530.08L316.16,530.34L314.05,529.25L312.37,529.33L311.62,531.42L308.08,531.73L305.61,532.88L304.15,532.76L303.04,533.46L300.11,534.53L299.41,534.3L294.19,535.53L293.89,536.55L294.2,540.75L292.52,541.38L291.42,541.37L288.64,542.56L287.27,543.39L286.62,544.32L287.11,546.69L286.6,548.1L284.92,548.79L283.22,550.86L281.34,551.38L281.56,552.45L283.21,553.91L286.62,555.44L287.36,557.09L287.35,558.09L284.76,560.32L284.72,561.09L286.09,562.93L285.18,564.76L282.55,566.46L281.1,566.81L279.2,568.02L278.31,568.24L275.72,567.7L273.86,567.96L272.75,568.93L271.46,571.05L268.4,571.87L266.36,573.41L262,576.21L259.63,579.87L258.58,580.6L256.68,581.16L254.49,580.97L253.03,580.52L252.93,579.69L253.63,578.21L252.47,577.77L252.01,578.11L251.07,577.35L249.11,578.81L248.13,580.74L247.31,581.14L246.82,578.27L244.16,576.79L243.84,575.95L242.38,574.45L240.57,573.11L240.6,572.19L241.7,570.66L243.01,569.56L243.34,568.17L242.62,567.5L241.03,567.63L240.79,566.7L242.13,566.08ZM245.12,565.25L245.79,566.43L245.55,564.99ZM245.86,566.49L245.71,567.38L246.88,567.14L246.76,566.42ZM302.99,478.1L302.31,479.33L300.79,480.57L299.08,481.32L298.97,481.82L300.09,483.2L299.32,484.46L298.67,484.66L298.62,485.58L300.22,485.62L301.44,486.26L303.2,485.04L302.62,483.29L303.79,482.75L304.69,480.95L305.38,480.9L305.84,479.96L305.64,478.05L305.18,477.48L303.99,477.31Z" stroke-miterlimit="10" stroke="#FFFFFF"/>
<path title="滁州市" fill="#D3D3D3" id="path10" d="M366.32,317.62L364.18,315.96L362.77,315.8L361.31,315.01L360,315.28L358.22,315.03L358.27,313.17L357.98,312.14L356.12,311.2L355.95,309.84L355.12,309.32L354.48,307.53L352.69,306.67L354.82,305.19L354.86,303.07L355.73,302.17L357.84,301.56L359.86,299.62L358.23,298.27L358.06,297.14L357.25,296.22L358.22,295.82L358.11,294.77L356.62,294.84L356.98,292.86L358.67,290.83L357.81,284.61L356.2,282.1L354.84,281.61L353.55,280.61L352.35,281.67L350.81,281.84L349.85,280.44L348.82,279.62L347.51,279.45L345.95,278.7L344.77,278.88L343.12,279.92L342.68,279.08L341.69,278.52L339.37,278.26L339.27,277.11L337.36,277.14L335.35,278.51L335.38,277.59L334.46,278.38L333.63,278.35L332.81,279.65L331.7,279.62L329.97,280.58L327.82,282.27L322.43,283.69L320.9,282.68L319.58,281.41L317.69,280.22L316.36,279.89L315.57,279.23L315.38,277.29L313.74,276.36L312.53,274.52L314.15,270.41L315.2,268.7L317.28,267.68L316.97,265.04L313.45,264.06L312.22,262.57L309.99,263.21L309,262.93L310.74,261.39L311.24,260.16L311.23,257.65L312.33,255.16L313.74,253.35L312.36,252.23L311.09,253.83L309.56,254.8L305.9,256.43L304.08,255.34L302.59,256.19L301.61,256.31L300.06,255.31L297.94,254.31L295.48,253.98L294.46,252.89L294.71,252.47L294.52,250.44L294.67,247.89L293.7,245.84L293.9,244.87L294.69,244.4L295.01,242.82L293.51,240.58L293.2,237.27L291.17,232.12L290.92,230.84L289.85,229.13L289.95,228.29L292.07,227.16L292.6,224.84L294.09,223.53L293.19,222.79L293.85,221.56L294.96,220.8L296.67,218.48L297.91,215.9L298.99,214.63L299.93,215.18L301.36,214.26L301.81,213.27L304.01,213.1L304.62,212.03L305.7,212.3L308.18,211.91L309.24,210.66L309.88,210.93L312.54,211.08L314.4,211.59L315.08,209.91L316.06,210.41L318.53,210.5L319.82,211L320.6,210.33L321.77,207.83L323.41,207.36L323.92,206.61L323.8,205.36L322.58,204.06L323.11,202.78L323.81,199.98L325.38,199.27L325.34,196.04L325.63,194.48L327.3,195.74L329.25,197.84L330.04,199.03L331.32,199.85L332.62,201.2L334.88,200.9L336.75,202.34L337.85,202.53L339.23,201.59L339.94,198.71L341.44,195.78L341.79,193.97L342.73,191.94L343.75,191.5L345.54,192.11L346.44,191.1L348.01,187.52L349.05,186.77L350.42,187.02L351.64,188.64L353.8,188.99L357.47,188.08L359.39,187.39L360.02,186.86L360.7,188.19L360.4,188.57L361.07,189.97L360.84,190.63L359.34,191.92L361.24,193.36L362.61,193.66L364.95,191.25L365.93,190.56L368.14,192.01L369.31,190.88L371.34,191.98L372.07,192.03L374.02,190.54L374.54,189.11L372.75,188.25L371.48,188.61L370.82,187.55L371.4,185.86L372.73,185.15L374.14,183.7L376.94,183.62L378.01,182.88L377.27,180.99L378.19,178.7L378.12,176.64L375.94,177.82L375.29,177.55L375.85,176.79L377.55,176.64L377.79,176.03L379.52,174.96L382.48,173.7L385.39,172.67L386.45,171.33L386.1,169.67L387.26,167.58L388.21,167.06L389.78,167.79L391.45,169.25L392.38,171.2L392.62,174.29L392.22,179.07L391.33,179.33L391.26,180.2L392.34,180.02L392.38,182.12L390.95,181.7L390.6,182.07L392.62,182.6L393,184.22L391.79,184.05L391.52,185.09L393.55,185.31L394.15,186.88L394.53,189.03L394.66,192.43L395.4,194.3L397.03,195.79L400.37,195.85L400.93,196.97L399.36,198.33L394.96,199.76L393.75,200.71L393.52,201.89L394.2,205.8L394.62,206.7L395.22,209.71L396.44,208.81L398.51,208.68L398.98,210.04L400.16,209.96L399.79,211.59L400.64,214.06L399.46,215.26L399.88,216.94L400.69,217.73L402.01,217.78L402.55,219.48L403.29,219.7L404.72,218.38L406.4,218.92L406.88,220.14L406.99,221.98L406.41,222.76L406.59,223.93L407.28,224.6L409.54,224.32L410.73,224.93L411.88,224.7L414.55,221.79L415.4,223.78L417.75,224.32L418.35,223.96L421.32,224.11L423.72,223.39L425.12,223.34L426.75,224.58L428.13,223.92L429.75,223.71L430.66,222.3L432.14,222.18L432.83,221.63L434.25,222.1L434.59,222.63L438.12,223.72L439.39,224.45L441.05,224.26L442.24,223.06L444.13,222.52L444.25,221.74L443.67,220.21L443.17,219.96L442.36,218.35L442.25,216.04L443.22,215.23L442.73,209.13L443.32,208.52L445.28,209.35L447.5,209.7L449.5,208.95L449.58,207.77L448.96,207.19L449.45,206.59L449.77,203.45L449.27,202.86L449.54,201.82L450.2,201.38L451.94,202.45L452.19,201.17L453.1,200.63L452.48,198.73L453.14,198.47L453.14,197.24L454.67,197.42L456.55,196.78L457.67,197.1L457.19,197.8L457.41,199.06L458.59,198.57L460.11,199.21L461.31,199.31L462.06,198.45L463.96,198.49L467.1,197.05L468.57,196.92L469.72,197.33L470.25,198.32L469.99,199.69L470.57,200.73L469.63,200.8L469.17,202.42L469.6,203.17L472.06,202.45L472.13,204.63L473.02,206.64L474.61,207.83L477.8,212.2L478.65,212.64L485.6,212.33L485.98,214.03L486.21,216.56L487.14,220.92L487.85,222.12L487.92,225.02L488.18,225.84L487.9,233.35L489.01,234.87L488.69,236.28L489.04,237.14L490.05,237.45L489,239.13L489.01,240.95L487.96,241.3L486.51,240.73L485.81,238.27L484.82,238.98L484.65,241.59L482.59,242.65L482.65,243.44L483.83,244.46L483.94,245.58L482.76,246.52L482.23,248.62L481.47,249.81L482,250.59L480.72,250.71L479.36,252.03L477,253.64L475.94,255.17L474.84,254.86L474.23,254.05L473.94,251.76L472.11,249.92L471.71,248.05L469.81,247.69L468.44,248.13L467.46,249.3L465.76,249.3L464.61,248.07L464.3,246.68L461.96,244.26L461.57,243.14L459.62,243.31L459.58,244.06L456.91,243.18L457.91,242.81L457.69,240.88L458.94,239.78L458.8,239.15L456.87,239.75L455.37,241.02L453.78,241.21L453.06,241.92L450.98,241.4L451.05,240.6L450.23,239.85L450.75,239.46L450.77,238.05L449.69,238.17L448.53,240.06L446.85,240.27L445.91,239.63L446.02,238.53L444.25,237.81L442.98,238.4L442.63,239.49L441.21,238.69L441.14,237.32L438.5,237.53L438.77,239.58L438.37,239.61L437.63,237.72L437.68,239.58L435.67,238.85L434.07,239.06L432.21,240.68L431.28,239.12L429.19,238.57L428.83,238.11L427.2,238.89L426.07,239.82L425.51,242.36L427.53,244.12L428.92,244.62L429.87,245.49L429.49,247.12L430.41,247.4L430.7,248.32L429.79,249.54L428.28,249.76L428.37,252.17L429.8,252.51L429.85,253.12L431.73,253.45L433.22,253.13L433.63,252.44L436.29,253.17L437.65,252.78L437.98,253.74L437.42,257.79L437.63,258.84L437.31,260.64L436.63,261.9L437.74,263.7L438.57,263.13L438.31,264.87L438.89,266.03L438,266.74L438.68,266.96L438.45,267.78L439.46,268.26L439,269.34L437.5,269.23L437.09,269.8L438.19,270.68L436.61,270.76L434.84,272.03L434.82,273.07L435.53,273.07L435.86,274.3L434.75,276.54L435.54,277.51L436.34,277.79L435.55,279.99L433.29,282.95L431.59,283.81L430.92,283.47L428.86,284.15L427.17,284.25L426.59,283.8L425.31,284.45L424.35,284.14L423.17,284.96L422.47,284.57L421.73,285.35L420.29,284.75L419.97,286.14L419.03,286.54L418.92,288.07L420.06,291.19L419.4,290.76L418.86,291.76L419.26,293.19L418.32,293.15L416.73,293.82L415.8,295.44L413.64,296.43L412.91,297.04L411.13,296.96L410.17,298.28L409.16,298.31L409.02,299.78L408.23,300.3L405.64,301.76L404.71,302.89L403.33,303.37L401.66,304.67L400.51,307.16L400.47,308.58L399.04,309.23L395.81,312.13L394.14,313.31L392.23,315.45L390.71,315.17L389.09,316.15L388.57,317.46L387.53,318.32L385.27,317.43L383.75,317.95L382.67,317.64L381.53,319.31L379.29,320.9L379.1,323.6L378.02,323.93L376.95,323.06L375.31,322.94L369.85,320.4L367.53,318.16Z" stroke-miterlimit="10" stroke="#FFFFFF"/>
<path title="阜阳市" fill="#D3D3D3" id="path11" d="M129.98,253.35L128.83,250.5L128.21,250.17L127.89,248.53L126.98,248.39L126.89,247.34L125.83,247.44L123.24,246.01L123.7,244.78L122.82,244.56L122.48,243.73L120.33,244.01L120.71,242.88L120.59,241.16L119.79,240.95L118.28,241.61L112.6,242.72L112.19,243.32L110.29,243.64L109.52,242.8L109.84,241.9L110.85,241.65L109.65,241.34L110.33,240.2L109.74,239.63L109.3,240.44L108.75,239.43L106.63,240.79L105.42,239.99L106.06,239.22L105.42,238.82L104.19,239.12L103.01,240.67L102.41,240.39L102.98,239.35L101.3,239.59L100.23,239.21L99.37,238L101.06,236.93L100.07,236.01L100.23,234.43L99.6,234.67L99.63,233.4L100.39,233.04L101.05,234.05L100.99,232.54L102,231.47L100.51,232.08L100.62,229.89L99.51,228.75L99.11,229.22L99.83,229.91L98.48,230.6L98.64,229.27L98.04,228.74L98.45,227.41L98.1,226.55L98.61,224.43L98.13,223.75L99.12,218.62L98.54,217.93L98.39,216.74L99.26,216.42L101.04,216.96L100.74,215.54L99.83,215.03L99.15,213.83L99.7,211.96L99.05,210.63L100.38,210.27L99.99,209.02L99.27,208.66L97.83,208.8L96.23,208.11L95.76,206.38L94.52,205.44L94.37,204.05L92.02,203.74L90.27,204.36L89.12,203.39L87.29,203.39L83.66,202.98L83.44,202.11L84.33,201.88L84.21,200.03L83.1,199.88L81.67,199.13L78.73,199L76.91,199.21L76.12,199.8L75.19,199.43L74.59,197.75L73.44,196.97L72.51,195.51L70.51,195.39L69.5,194.11L69.65,193.08L71.26,192.19L70.32,189.87L72.6,190.38L73.52,190.3L74.68,189.3L73.33,188.07L73.28,186.66L72.55,185.34L73,184.3L72.46,182.68L70.84,182.24L70.94,181.05L71.72,178.78L71.39,177.28L72.1,176.47L73.68,176.25L74.31,175.51L74.26,174.46L76.72,174.92L77.52,175.34L77.77,176.8L78.99,177.34L80.04,178.27L79.86,180.36L81.94,180.96L83.04,181.76L84.77,182.24L85.77,181.56L86.34,182.57L87.51,182.22L91.53,182.67L95.6,182.49L97.02,182L97.46,179.76L99.85,178.22L101.08,179.14L102.48,177.66L103.7,177.61L104.6,176.49L106.56,176.92L106.86,176.32L108.86,176.95L109.11,175.68L109.94,175.89L109.81,173.42L109.26,171.7L109.49,168.99L112.35,167.83L111.37,167.01L111.38,166.39L112.87,165.02L112.75,163.13L113.68,162.07L113.75,160.84L113.07,159.34L113.19,157.79L114.35,157.46L115.62,157.79L115.48,156.25L116.09,153.41L114.47,153.06L114.33,150.78L113.53,150.28L113.83,149.33L111.36,149.35L111.08,148.65L112.64,145.8L111.48,143.88L111.31,142.35L111.64,141.19L111.38,140.33L112.05,140.36L112.17,139.32L113.28,140.51L114.23,140.22L114.53,136.84L114.04,136.62L114.76,135.51L114.19,134.06L116.24,131.68L119,133.65L119.16,134.17L119.99,132.46L119.64,131.58L120.89,129.57L121.6,127.81L125.63,126.6L126.66,127.75L129.33,126.93L130.24,128.21L131.91,127.12L134.25,126.8L134.89,127.21L135.43,125.54L138.93,125.33L142.66,124.52L143.78,129.22L146.24,133.39L146.68,133.72L148.33,133.29L150.51,133.14L153.28,134.41L153.46,134.88L155.21,135.5L155.57,136.17L156.82,136.6L157.78,138.05L158.89,138.24L161.22,140.06L162.89,140.1L163.48,141.09L167.59,145.93L167.39,147.76L167.69,150.98L168.91,152.88L169.23,154.23L169.91,154.88L169.76,156L170.36,156.44L170.53,157.72L169.27,158.09L169.38,159.95L168.49,162.67L168.73,163.75L169.53,164.2L170.32,165.77L169.43,167.35L165.61,163.56L161.98,161.88L161.27,162.58L161.04,165.48L161.58,167.54L162.54,169.89L162.17,171.43L160.63,173.45L160.52,174.81L161.17,174.09L163.02,174.51L163.02,176.53L162.01,176.6L162.45,177.77L164.54,177.74L165.63,178.14L165.13,180.33L164.62,181.35L167.69,181.43L169.28,182.08L172.49,182.91L175.65,184.07L177.75,185.3L179.27,185.76L178.49,187.16L179.06,187.4L181.59,186.6L182.45,187.13L182.85,188.29L182.52,189.76L183.22,190.28L183.32,191.8L182.59,192.79L182.82,193.32L185.55,193.8L189.68,195L192.56,195.26L193.76,196.02L193.5,196.91L193.78,199.08L194.82,201.13L196.06,202.16L196.71,204.52L198.08,205.06L200.05,204.93L201.24,205.5L201.55,206.89L204.63,208.48L205.81,208.49L207.33,207.72L211.18,206.28L213.39,203.74L214.95,204.03L215.68,204.76L215.67,205.59L214.9,207.41L215.24,208.71L216.79,209.13L218.32,208.62L220.61,210.27L220.04,212.79L220.96,213.68L220.31,214.22L220.21,215.26L220.92,216.53L220.79,219.77L220.36,221.19L220.58,222.99L221.56,223.35L221.35,225.08L220.47,226.03L220.58,227.01L222.03,228.97L224.63,229.31L224.85,228.87L226.09,228.96L226.5,231.04L228.42,231.63L229.29,235L229.91,235.64L229.54,236.49L229.76,237.93L231.28,238.26L231.18,239.89L235.73,239.54L237.5,240.18L238.35,241.12L238.95,243.56L236.89,244.6L232.32,244.67L228.17,248.68L228.06,251.3L226.84,254.26L225.37,253.72L224.96,255.66L224.41,256.7L223.2,256.82L219.84,255.37L216.67,256.3L215.45,255.75L212.19,253.79L209.7,248.55L208.47,247.32L203.79,247.34L203.05,250.35L201.34,251.57L201.82,253.82L201.17,254.92L200.3,253.66L199.08,254.42L198.12,253.9L197.22,255.75L196.01,254.99L194.58,258.3L193.75,256.65L191.84,256.63L191.23,254.28L189.56,253.05L188.48,250.8L187.32,247.01L186.31,245.25L184.9,244.7L182.99,244.43L181.08,243.43L180.52,241.31L179.64,239.24L177.22,237.93L174.35,237.68L172.9,239.3L171.42,241.49L170.58,241.99L169.33,240.92L167.02,241L166.64,241.98L164.1,245.46L162.61,246.12L162.03,246.9L162.18,249.6L160.47,249.49L158.56,251.41L157.08,253.31L156.33,253.46L156.91,251.37L155.41,249.13L154.95,250.61L154.03,252.02L152.55,252.45L148.61,250.28L147.73,251.18L147.74,251.97L148.61,253.08L148.17,253.47L146.16,253.59L146.71,255.34L146.62,256.63L146.07,257.54L145.34,260.07L144.26,260.2L144.43,258.07L144.06,257.89L143.23,259.19L141.44,260.58L139.26,258.23L137.47,259L135.32,260.86L134.33,260.35L135.83,259.53L135.68,258.73L133.72,258.37L132.77,256.75L131.39,256.39L131.48,255.73L130.65,255.41L130.05,253.56Z" stroke-miterlimit="10" stroke="#FFFFFF"/>
<path title="合肥市" fill="#D3D3D3" id="path1" d="M277.37,391.39L278.62,389.98L278.68,388.41L280.42,387.67L281.09,386.35L281.02,384.02L281.37,382.46L282.12,381.27L281.41,379.61L281.48,378.05L283.37,374.15L285.18,370.79L288.03,366.98L288.68,365.7L290.35,364.88L292.09,364.62L297.2,364.89L298.5,364.17L298.56,363.48L297.68,362.88L296.33,358.73L295.53,359.24L293.43,357.91L292.34,357.9L289.12,358.69L288.27,357.59L287.18,358.02L287.02,358.94L286.26,358.76L285.11,359.26L280.63,357.74L279.57,358.73L278.08,359.4L274.91,358.36L274.45,356.91L273.36,357.17L273.34,359.55L273,359.98L271.87,359.24L271.04,359.29L269.65,360.18L267.91,359.53L264.77,360.61L262.57,360.22L259.3,360.81L257.78,361.65L256.42,360.19L255.55,360.11L255.33,359.36L254.21,358.82L253.91,358.07L251.75,355.72L251.34,354.46L251.68,353.67L251.57,350.35L250.51,348.27L250.37,347.11L250.79,345.74L251.8,344.27L251.34,342.7L251.25,339.81L250.27,337.83L250.97,335.76L250.84,333.99L250.26,333.64L248.24,333.66L248.59,332.59L248.01,331.72L247.14,332.1L246.59,330.65L244.72,328.66L244.5,327.41L245.42,326.07L248.38,324.21L249.15,323.13L247.61,323.09L247.31,321.6L246.59,320.73L246.78,320.13L251.44,317.85L252.1,317.05L253.93,315.76L255.88,315.92L257.96,314.24L258.9,312.85L260.64,311.43L261.22,310.42L262.56,309.86L266.6,309.15L268.19,308.13L267.39,307.08L266.87,305.39L268.48,303.77L270.1,304.38L270.62,305.43L271.47,305.07L272.85,305.34L273.92,306.2L273.91,307.68L276.25,306.81L277.14,306.13L278.19,304.17L278.76,302.23L278.79,301.03L277.2,299.56L276.52,298.44L276.21,296.03L275.24,293.81L274.01,293.5L272.88,292.3L272.16,289.55L272.63,288.45L274.96,288.44L276.08,287.65L276.61,286.65L276.69,285.14L274.67,283.76L274.54,282.67L275.56,281.49L278.81,281.22L280.02,280.14L281.23,276.52L280.76,274.94L279.82,274.47L278.72,275.37L277.96,274.81L277.7,273.26L278.85,270.35L279.79,269.44L279.28,268.59L278.44,268.88L277.91,267.83L278.47,267.18L278.66,263.37L278.33,262.88L275.96,263.14L274.69,262.78L275.13,260.68L276.82,259.63L278.08,259.37L278.92,257.7L278.86,256.76L280.73,254.16L281.09,253.28L280.83,251.72L281.47,250.69L281.94,248.41L281.36,247.84L282.45,246.25L283.39,246.07L284.95,246.55L285.45,247.23L286.59,246.92L287.75,247.4L288.83,246.69L289.51,245.63L290.41,245.81L293.7,245.84L294.67,247.89L294.52,250.44L294.71,252.47L294.46,252.89L295.48,253.98L297.94,254.31L300.06,255.31L301.61,256.31L302.59,256.19L304.08,255.34L305.9,256.43L309.56,254.8L311.09,253.83L312.36,252.23L313.74,253.35L312.33,255.16L311.23,257.65L311.24,260.16L310.74,261.39L309,262.93L309.99,263.21L312.22,262.57L313.45,264.06L316.97,265.04L317.28,267.68L315.2,268.7L314.15,270.41L312.53,274.52L313.74,276.36L315.38,277.29L315.57,279.23L316.36,279.89L317.69,280.22L319.58,281.41L320.9,282.68L322.43,283.69L327.82,282.27L329.97,280.58L331.7,279.62L332.81,279.65L333.63,278.35L334.46,278.38L335.38,277.59L335.35,278.51L337.36,277.14L339.27,277.11L339.37,278.26L341.69,278.52L342.68,279.08L343.12,279.92L344.77,278.88L345.95,278.7L347.51,279.45L348.82,279.62L349.85,280.44L350.81,281.84L352.35,281.67L353.55,280.61L354.84,281.61L356.2,282.1L357.81,284.61L358.67,290.83L356.98,292.86L356.62,294.84L358.11,294.77L358.22,295.82L357.25,296.22L358.06,297.14L358.23,298.27L359.86,299.62L357.84,301.56L355.73,302.17L354.86,303.07L354.82,305.19L352.69,306.67L354.48,307.53L355.12,309.32L355.95,309.84L356.12,311.2L357.98,312.14L358.27,313.17L358.22,315.03L360,315.28L361.31,315.01L362.77,315.8L364.18,315.96L366.32,317.62L365.34,321.88L364.76,323.41L362.65,325.07L362.08,326.01L361.44,328.38L362.6,331.14L361.88,332.28L362.22,333.43L363.7,334.11L362.78,335.37L363.24,337.22L362.57,339.35L362.58,340.64L364.43,343.16L365.31,343.48L365.09,344.35L366.07,344.35L367.85,345.4L367.48,345.72L367.98,347.67L368.4,348.09L368.26,350.13L367.18,350.57L367.37,349.38L365.28,349.4L364.65,350.4L364.9,351.27L364.41,351.95L364.79,353.72L364.17,353.92L364.72,354.67L364.04,356.07L362.65,356.44L362,357.38L362.11,358.49L363.22,358.22L364.01,359.45L365.33,359.2L366.35,359.62L365.13,360.96L366.37,361.56L367.63,364.01L365.71,365.19L364.61,365.11L363.02,363.54L361.32,363.35L360.35,363.67L356.48,365.67L354.63,365.4L353.14,366.12L351.23,365.69L349.55,365.94L348.58,367.67L347.48,367.02L345.89,367.85L343.95,367.45L342.5,368.49L341.67,371.57L341.27,374.32L339.74,376.12L337.71,380.87L336.9,384.13L335.56,386.8L333.87,387.14L332.54,389.22L329.59,389.76L329.9,391.48L329.68,392.35L328.55,394.03L328,396.09L326.51,397.11L325.05,397.73L325.75,398.67L327.93,400.37L328.3,402.41L327.68,403.99L325.59,404.91L325.25,407.05L324.29,407.4L323.79,408.35L324.95,409.64L325.39,411.44L324.95,412.88L323.78,415.06L322.07,415.15L321.16,415.65L321.06,416.34L321.99,417L323.34,420L322.11,420.84L318.67,421.63L317.6,422.34L316.96,424.01L314.19,422.95L311.53,424.35L311.32,425.81L310.18,425.91L309.57,425.01L309.99,424.49L308.73,421.75L307.99,421.27L306.92,421.78L305.66,421.6L304.62,420.4L303.88,420.39L303.07,422.02L301.83,422.37L301.07,422.11L298.14,419.12L296.43,417.87L296.05,416.2L294.76,413.92L292.68,412.52L291.2,410.51L289.36,412.21L287.4,412.13L285.59,410.78L286.12,408.89L285.58,406.33L286.04,405.79L286.06,403.61L284.83,401.23L283.93,398.87L281.9,395.34L281.15,393.62L279.57,393.79L278.33,391.86Z" stroke-miterlimit="10" stroke="#FFFFFF"/>
<path title="淮北市" fill="#D3D3D3" id="path6" d="M215.6,101.51L217,98.9L218.23,99.92L219.36,100.09L219.78,99.18L219.4,97.81L219.82,94.12L221.33,94.07L222.02,92.56L223.36,92.4L224.42,91.41L226.06,92.01L226.39,91.11L227.93,91.26L228.32,90.16L229.45,89.96L229.68,90.9L230.39,89.93L231.53,90.05L231.21,89.26L231.52,87.7L232.37,86.93L233.77,86.92L235.27,87.41L236.7,88.52L238.19,89.22L239.68,88.77L239.28,85.89L239.98,84.41L239.42,82.19L240.42,81L240.2,79.34L238.79,78.9L238.45,78.09L236.25,76.24L235.86,75.31L235.96,73.74L238.15,74.18L240.27,73.73L241.59,74.11L243.19,75.04L244.25,74.35L245.6,75.13L246.3,74.58L248.19,74.34L248.54,74.82L249.65,74.25L250.3,74.71L253.39,74.91L253.36,75.38L254.53,75.84L255.19,76.96L255.64,74.79L255.08,72.45L255.7,68.76L256.03,68.3L255.5,67.24L256.71,66.18L256.51,67.73L257.66,69.35L258.14,68.5L259.34,68.09L259.8,66.6L262.07,67.59L263.5,66.57L264.81,64.76L265.44,64.68L267.34,65.58L267.43,66.82L269.95,67.15L271.64,67.01L270.53,68.73L269.22,70.13L269.43,71.9L269.18,72.61L271.07,72.86L271.5,73.24L271.29,74.64L272.17,75.39L271.73,76.38L272.06,76.98L270.15,80L271.43,80.69L272.67,80.32L273.4,80.69L273.4,81.74L274.19,83.42L273.32,84.98L273.96,86.24L272.89,88L270.65,88.72L270.29,90.19L270.2,93.98L269.54,95.76L269.37,98.51L269.44,100.69L268.66,102.6L268.82,104.61L269.48,105.81L267.9,105.57L267.67,106.6L268.37,110.58L267.3,110.83L267.41,114.29L266.23,114.18L265.18,114.56L262.71,113.86L262.03,113.97L261.63,115.6L261.84,116.93L261.47,118.45L260.68,119.97L261.21,122.34L262.03,124L264.53,126.04L266.04,125.31L268.15,125.08L267.31,128.09L267.27,129.31L266.05,129.88L265.01,133.71L266.47,135.22L265.13,136.45L265.05,137.06L267.36,137.79L267.42,138.79L268.44,139.78L270.26,139.93L271.03,140.98L270.98,142.16L271.47,142.71L270.88,143.78L271.28,144.56L270.8,146.07L271.68,146.92L270.21,148.32L270.11,148.95L268.72,148.61L267.74,150.6L267.3,150.77L266.91,152.18L265.92,152.42L266.61,153.6L266.35,154.27L267.21,154.71L267.42,155.59L266.84,156.76L265.01,157.61L262.52,157.61L261.65,159.18L259.73,159.71L258.88,159.31L256.88,157.32L255.61,156.76L255.08,157.12L253.84,155.29L253.97,153.57L253.68,152.1L254.33,151.23L254.02,150.63L254.98,147.6L254.57,145.65L255.35,143.34L252.04,142.3L250.71,141.54L249.67,140.3L247.41,140.12L245.22,137.41L243.98,136.95L241.91,137.34L239.65,137L239.07,136.14L237.82,136.08L236.79,136.5L234.93,136.71L233.82,137.74L232.48,138.31L230.47,138.12L229.32,136.57L229.17,134.63L229.66,132.87L229.23,131.49L228.27,130.86L228.63,129.29L228.35,128.43L228.97,126.79L230.52,126.27L229.81,124.23L230.86,124.12L230.82,123.18L230.12,123.05L229.14,121.1L226.41,120.59L226.25,119.16L224.05,116.49L224.51,115.12L225.12,114.85L225.15,113.35L224.35,111.42L223.81,111.41L223.89,110.16L222.36,108.88L222.01,107.21L219.42,106.56L219.66,103.94L216.83,103.9L216.99,102.99ZM277.3,56.76L277.32,58.04L276.5,57.35L275.49,58.77L274.72,58.55L274.42,59.61L272.52,60.2L271.49,58.17L271.87,56.48L272.54,56.69L272.33,58.01L273.62,56.57L272.54,56.1L272.34,53.35L273.8,52.13L273.16,52.26L273.73,50.2L275,49.01L275.17,50.57L276.34,51.27L277.16,50.37L277.64,49.14L277.25,47.86L278.32,47.17L279.04,47.91L278.59,49.97L279.18,50.34L278.81,52.19L278.15,52.69L277.22,54.47L276.69,56.65Z" stroke-miterlimit="10" stroke="#FFFFFF"/>
<path title="淮南市" fill="#D3D3D3" id="path4" d="M252.1,317.05L249.91,316.16L247.47,316.43L245.45,317.75L244.04,317.94L243.34,316.56L243.33,311.81L243.48,310.58L243.09,309.64L242.1,309.45L236.77,306.82L234.27,304.79L232.76,304.6L230.41,303.72L230.9,302.14L230.14,299.21L230.66,297.94L229.08,295.76L228.27,293.64L228.8,291.61L228.45,289.61L227.38,288.27L226.78,285.85L227.53,284.74L227.39,283.79L225.98,282.34L227.36,281.42L228.54,279.45L227.99,277.11L228.43,276.01L227.96,273.51L227.74,271.01L226.51,267.57L224.35,265.76L224.05,264.04L224.46,262.57L225.12,261.69L223.96,260.43L224.41,256.7L224.96,255.66L225.37,253.72L226.84,254.26L228.06,251.3L228.17,248.68L232.32,244.67L236.89,244.6L238.95,243.56L238.35,241.12L237.5,240.18L235.73,239.54L231.18,239.89L231.28,238.26L229.76,237.93L229.54,236.49L229.91,235.64L229.29,235L228.42,231.63L226.5,231.04L226.09,228.96L224.85,228.87L224.63,229.31L222.03,228.97L220.58,227.01L220.47,226.03L221.35,225.08L221.56,223.35L220.58,222.99L220.36,221.19L220.79,219.77L220.92,216.53L220.21,215.26L220.31,214.22L220.96,213.68L220.04,212.79L220.61,210.27L218.32,208.62L216.79,209.13L215.24,208.71L214.9,207.41L215.67,205.59L215.68,204.76L215.61,202.53L214.82,201.27L212.9,199.07L212.83,198.36L213.47,196.28L213.93,195.81L213.95,192.96L214.5,191.68L220.69,193.98L238.25,198.98L243.71,199.23L245.77,199.51L248.67,200.46L250.82,201.02L251.15,201.88L251.84,201.29L253.45,201.78L254.03,203.19L255.37,203.47L256.62,204.45L258.43,204.82L258.83,205.31L258.2,206.34L262.85,210.18L263.53,209.84L264.41,210.33L264.3,211.33L266.83,213.38L266.61,214.18L267.96,214.27L270.46,216.22L273.46,217.15L274.43,217.68L276.06,220.18L277.08,220.1L277.02,221.29L277.5,221.32L278.12,223L279.51,223.37L278.48,224.32L278.73,224.92L280.67,224.03L281.48,224.76L283.04,223.59L282.15,222.74L282.42,221.71L286.36,220.13L288.38,220.87L289.63,221.04L289.76,222.19L291.59,222.05L291.85,222.65L293.19,222.79L294.09,223.53L292.6,224.84L292.07,227.16L289.95,228.29L289.85,229.13L290.92,230.84L291.17,232.12L293.2,237.27L293.51,240.58L295.01,242.82L294.69,244.4L293.9,244.87L293.7,245.84L290.41,245.81L289.51,245.63L288.83,246.69L287.75,247.4L286.59,246.92L285.45,247.23L284.95,246.55L283.39,246.07L282.45,246.25L281.36,247.84L281.94,248.41L281.47,250.69L280.83,251.72L281.09,253.28L280.73,254.16L278.86,256.76L278.92,257.7L278.08,259.37L276.82,259.63L275.13,260.68L274.69,262.78L275.96,263.14L278.33,262.88L278.66,263.37L278.47,267.18L277.91,267.83L278.44,268.88L279.28,268.59L279.79,269.44L278.85,270.35L277.7,273.26L277.96,274.81L278.72,275.37L279.82,274.47L280.76,274.94L281.23,276.52L280.02,280.14L278.81,281.22L275.56,281.49L274.54,282.67L274.67,283.76L276.69,285.14L276.61,286.65L276.08,287.65L274.96,288.44L272.63,288.45L272.16,289.55L272.88,292.3L274.01,293.5L275.24,293.81L276.21,296.03L276.52,298.44L277.2,299.56L278.79,301.03L278.76,302.23L278.19,304.17L277.14,306.13L276.25,306.81L273.91,307.68L273.92,306.2L272.85,305.34L271.47,305.07L270.62,305.43L270.1,304.38L268.48,303.77L266.87,305.39L267.39,307.08L268.19,308.13L266.6,309.15L262.56,309.86L261.22,310.42L260.64,311.43L258.9,312.85L257.96,314.24L255.88,315.92L253.93,315.76Z" stroke-miterlimit="10" stroke="#FFFFFF"/>
<path title="黄山市" fill="#D3D3D3" id="path9" d="M455.03,521.32L455.42,522.08L455.66,524.61L455.99,525.43L456.89,525.69L457.78,526.86L457.12,528.05L458.29,529.41L457.85,530.73L457.1,531.31L457.56,532.52L457.27,533.23L457.99,534.73L457.22,537.14L457.52,539.57L456.56,539.48L455.33,538.59L454.55,539.69L453.03,539.21L452.11,539.97L452.71,542.12L452.77,543.92L452.36,544.79L449.11,547.43L448.62,548.21L446.31,550.3L445.16,549.51L444.07,549.91L443.62,551.45L445.07,552.4L444.44,553.06L443.14,552.95L442.55,553.49L442.22,556.26L442.98,557.24L443.43,559.3L443.01,561.79L441.07,563.59L440.5,565.09L438.77,565.4L436.98,567.62L436.17,569.56L433.59,572.42L432.98,572.58L432.26,571.82L430.95,571.22L429.21,572.38L426.49,572.98L424.67,575.76L424.17,575.76L422.75,578.29L419.4,579.95L418.85,582.39L419.14,583.48L418.95,586.19L417.31,587.15L415.3,587.66L414.41,586.87L412.52,587.96L411.12,587.28L409,587.55L408.12,587.21L407.72,588.08L405.68,590.91L404.6,591.25L402.36,588.7L401.02,588.81L400.63,590.65L401.55,593.86L401.56,596.96L399.16,597.26L398.66,596.51L397.7,596.87L396.88,596.38L395.71,596.57L395.02,596L393.51,596.82L392.08,597.21L390.73,599.98L389.65,600L389.18,598.79L388.06,598.95L386.81,598.13L384.14,597.38L383.5,595.85L384.38,595.29L384.33,593.38L383.32,591.47L384.89,589.5L384.81,588.38L383.99,587.39L381.57,585.92L380.98,584.96L378.97,584.61L375.88,583.57L375.13,581L372.34,579.77L371.35,579.68L370.46,580.23L369.5,581.51L367.58,580.58L366.62,581.13L365.05,582.85L363.31,582.3L360.32,583.27L359.03,583.23L357.78,582.35L356.66,582.25L354.52,581.27L353.83,580.38L352.34,580.19L351.14,580.55L348.82,582.02L347.09,581.65L345.44,582.63L342.7,582.92L341.04,582.15L340.31,580.8L340.24,578.66L339.92,577.75L338.96,577.58L338.23,575.93L336.92,575.59L335.02,576.55L333.13,578.18L330.97,578.94L329.78,578.23L328.22,578.34L327.08,577.87L326.8,578.52L325.93,577.41L324.88,573.95L325.57,571.23L324.21,570.19L322.01,570.62L320.12,569.64L317.95,566.57L318.48,563.29L318.27,560.64L317.11,559.55L316.29,559.3L314.25,556.31L313.82,554.68L315.34,551.11L314.75,549.35L313.26,549.52L311.4,550.11L310.61,552.96L308.71,553.44L307.9,552.48L307,549.63L306.48,549.33L305.75,550.08L303.55,550.47L303,550.86L302.53,552.43L301.15,552.17L300.48,551.62L299.14,551.49L298.36,549.83L299.09,548.34L299.57,545.98L298.79,542.81L298.06,542.14L295.24,540.82L294.2,540.75L293.89,536.55L294.19,535.53L299.41,534.3L300.11,534.53L303.04,533.46L304.15,532.76L305.61,532.88L308.08,531.73L311.62,531.42L312.37,529.33L314.05,529.25L316.16,530.34L317.43,530.08L318.91,528.41L321.91,528.76L323.72,528.51L326.68,526.75L326.09,524.1L326.88,522.96L326.03,523.29L325.41,521.53L326.58,520.29L327.02,521.3L327.86,521.3L328.41,523.34L329.23,522.8L329.49,521.28L328.44,521.06L329.26,520.65L329.65,519.72L330.82,519.46L332.26,518.15L333.3,517.96L333.77,520.17L335.3,521.56L336.43,520.85L336.75,519.86L337.69,519.75L338.33,520.48L339.66,520.59L339.37,519.01L340.66,518.56L340.27,517.82L341.86,516.62L346.13,515.44L349.51,515.14L351.42,514.36L353.6,512.24L354.66,512.29L356.17,511.16L356.74,511.22L357.56,509.28L357.27,508.35L354.47,507.47L354.04,505.63L355.79,503.53L357.74,502.86L360.19,502.5L359.99,499.85L361.52,499.74L362.55,499.18L362.05,498L363.27,496.85L364.06,496.88L364.4,496.14L363.76,495.65L365.19,495.21L364.02,492.67L362.91,491.64L365.01,490.34L366.45,488.72L366.42,487.48L365.29,486.36L365.03,485.07L365.74,481.71L365.74,480.4L366.28,477.88L367.46,475.72L368.09,475.29L369.6,476.81L372.61,476.6L374.36,476.84L376.17,476.25L378.25,474.98L379.65,474.72L382.35,475.63L383.62,476.87L382.69,477.44L382.41,478.54L380.98,480.57L381.6,481.97L381.38,484.6L383.07,485.23L383.57,484.57L384.8,484.09L386.24,484.04L386.77,482.64L388.5,482.52L387.29,481.94L389.17,479.53L388.95,480.65L389.99,480.18L391.65,480.39L391.67,481.01L392.76,481.71L393.38,482.76L393.04,483.43L391.81,483.59L392.55,485.2L392.4,486.28L393.98,487.83L395.19,488.47L395.73,490.3L396.68,490.53L397.89,490.09L398.1,490.98L400.02,491.23L399.53,492.56L400.53,493.34L399.97,494.52L400.19,495.77L400.98,496.79L400.73,498.05L399.5,498.86L401.17,499.89L401.98,499.79L400.47,500.84L399.27,500.92L397.23,502.47L396.77,503.59L396.88,505.44L397.28,506.02L398.7,506.61L399.02,508.16L399.1,510.35L401.11,511.05L402.57,513.06L403.8,514.12L404.59,517.65L405.51,519.03L405.33,520.15L406.83,521.51L408.18,521.8L409.17,520.78L410.1,521.52L411.39,521.78L414.5,521.19L416.34,523.44L417.19,524.1L418.81,524.6L420.7,528.31L420.65,529.23L419.16,530.63L419.22,531.99L419.9,533.62L420.24,532.84L421.32,532.78L421.71,533.49L421.35,535.42L421.74,536.3L424.05,538.77L425.59,538.51L426.59,536.7L427.42,536.19L429.58,535.82L430.37,534.84L430.81,532.95L430.42,532.45L431.73,530.81L433.95,529.91L435.69,530.01L437.6,529.42L438.19,528.56L438.48,526.31L441.63,524.8L442.86,522.29L443.97,523.65L445.26,524.07L447.39,523.91L450.4,521.17L453.2,520.31Z" stroke-miterlimit="10" stroke="#FFFFFF"/>
<path title="六安市" fill="#D3D3D3" id="path13" d="M252.1,317.05L251.44,317.85L246.78,320.13L246.59,320.73L247.31,321.6L247.61,323.09L249.15,323.13L248.38,324.21L245.42,326.07L244.5,327.41L244.72,328.66L246.59,330.65L247.14,332.1L248.01,331.72L248.59,332.59L248.24,333.66L250.26,333.64L250.84,333.99L250.97,335.76L250.27,337.83L251.25,339.81L251.34,342.7L251.8,344.27L250.79,345.74L250.37,347.11L250.51,348.27L251.57,350.35L251.68,353.67L251.34,354.46L251.75,355.72L253.91,358.07L254.21,358.82L255.33,359.36L255.55,360.11L256.42,360.19L257.78,361.65L259.3,360.81L262.57,360.22L264.77,360.61L267.91,359.53L269.65,360.18L271.04,359.29L271.87,359.24L273,359.98L273.34,359.55L273.36,357.17L274.45,356.91L274.91,358.36L278.08,359.4L279.57,358.73L280.63,357.74L285.11,359.26L286.26,358.76L287.02,358.94L287.18,358.02L288.27,357.59L289.12,358.69L292.34,357.9L293.43,357.91L295.53,359.24L296.33,358.73L297.68,362.88L298.56,363.48L298.5,364.17L297.2,364.89L292.09,364.62L290.35,364.88L288.68,365.7L288.03,366.98L285.18,370.79L283.37,374.15L281.48,378.05L281.41,379.61L282.12,381.27L281.37,382.46L281.02,384.02L281.09,386.35L280.42,387.67L278.68,388.41L278.62,389.98L277.37,391.39L275.82,390.23L274.89,390.13L274.07,391.4L272.45,392.75L270.69,396.15L269.8,399.02L269.11,399.74L268.82,402.11L266.77,402.31L266.44,403.3L264.08,405.32L262.25,405.99L260.92,405.72L259.46,406.31L258.98,407.58L259.09,408.59L257.74,408.96L256.41,410.75L255.47,411.11L253.8,413.02L252.73,412.48L251.15,412.67L250.32,413.51L248.78,413.17L247.44,413.66L246.16,415.51L244.13,414.89L243.63,414.09L241.89,413.71L240.77,414.49L240.1,413.74L237.73,412.02L236.91,412.04L236.67,412.79L235.03,414.28L234.75,415.01L232.75,414.54L232.05,415.24L231.72,416.48L230.1,418.09L228.84,418.02L228.87,416.4L229.24,415.4L229.12,413.99L229.62,412.24L230.66,409.86L231.94,407.84L231.28,406.46L231.52,403.72L230.99,401.65L231.35,400.94L230.99,400.09L230.08,399.83L229.6,400.68L227.77,402.29L226.68,404.29L226.06,404.41L225.56,403.59L224.12,404.92L222.98,405.07L222.04,406.17L219.85,405.88L219.29,404.11L217.69,402.07L215.78,402.08L214.17,401.71L212.29,400.73L210.88,401.9L210.66,403.17L209.5,403.94L207.48,404.53L206.87,406.48L205.86,407.43L203.48,409.08L202.8,411.08L201.06,411.85L199.03,413.41L197.18,413.85L195.29,413.06L195.05,410.97L193.59,409.37L192.76,409.17L189.01,410.58L187.63,409.72L186.54,410.21L186.48,411.05L183.93,412.48L182.44,414.79L182.5,415.62L181.98,418.75L178.96,419.04L178.49,418.43L178.15,416.47L176.94,416.48L175.94,415.66L173.75,415.09L172.31,415.6L171.57,415.04L171.92,413.54L171.69,412.3L170.33,411.71L168.77,410.15L168.11,410.31L166.62,408.05L166.52,406L165.91,404.36L164.87,403.71L163.69,404.2L162.16,405.82L160.98,406.11L159.45,405.6L157.96,405.94L156.38,407.57L155.27,407.62L154.69,407.04L153.89,404.29L152.42,403.11L151.21,400.65L148.57,397.67L146.38,396.93L144.16,396.55L143.26,396.71L142.33,397.79L141.63,399.53L139.18,400.76L138.5,403.43L137.44,404.1L134.91,402.28L133.08,398.77L132.86,395.49L132.99,394.19L132.06,392.21L130.7,390.61L129.88,390.11L129.24,390.73L128.57,390.33L126.55,390.41L125.9,389.16L125.07,388.56L125.37,384.43L124.27,384.68L123.54,381.26L121.46,380.82L119.92,382.19L119.39,381.61L116.77,380.9L117.78,380.07L117.13,378.43L117.85,377.91L118.78,376.3L116.92,374.5L117.86,373.03L118.08,370.24L118.49,369.45L117.31,367.16L116.68,364.43L117.26,363.47L118.47,362.95L119.16,362.09L121.01,360.87L122.23,358.45L122.53,357.11L122.2,356.62L123.23,354.74L123.35,353.74L128.01,351.07L128.15,349.53L126.92,347.58L127.62,346.89L127.74,345.67L128.7,344.17L130.6,343.04L132.23,341.26L134.32,341.63L135.43,340.07L137.14,339.51L137.56,338.63L138.96,337.49L140.67,336.74L142.36,334.83L144.59,334.25L146.34,332.13L147.51,332.39L148.22,333.29L149.54,333.03L151.38,333.9L151.81,332.45L152.55,331.76L154.59,331.73L155.06,331.11L157.04,332.02L159.65,334L161.17,332.27L161.69,332.7L163.03,331.23L163.8,332.71L164.81,332.39L166.41,332.44L167.92,330.63L168.83,330.59L169.29,328.37L169.11,327.43L168.23,326.38L167.16,325.93L167.42,322.04L167.68,320.58L168.2,320.21L169.51,317.2L169.79,316L169.4,314.23L168.71,313.4L168.94,311.72L170.08,308.59L170.21,307.44L171.11,306.75L170.51,306.07L170.53,304.24L169.73,303.75L170.52,302.79L169.99,301.27L170.53,300.23L171.67,299.42L171.96,298.07L170.98,297.32L170.41,294.92L170.87,294.46L171.74,290.18L171.9,288.08L171.09,286.33L170.28,285.49L170.05,283.68L169.07,280.94L169.26,277.82L169.78,275.73L168.91,274.47L168.64,272.74L167.87,272.5L168.51,271.33L168.28,267.96L167.77,267.51L167.64,264.38L167.75,262.34L166.8,259.66L166.82,258.43L165.83,257.47L166.22,256.78L166.17,254.78L164.38,254.45L165.16,253.21L166.03,252.9L166.25,250.98L165.37,250L165.24,249.2L163.3,249.23L162.59,249.54L162.74,248.65L163.68,247.68L165.23,246.78L165.68,244.71L167.78,243.29L168.83,242.06L170.58,241.99L171.42,241.49L172.9,239.3L174.35,237.68L177.22,237.93L179.64,239.24L180.52,241.31L181.08,243.43L182.99,244.43L184.9,244.7L186.31,245.25L187.32,247.01L188.48,250.8L189.56,253.05L191.23,254.28L191.84,256.63L193.75,256.65L194.58,258.3L196.01,254.99L197.22,255.75L198.12,253.9L199.08,254.42L200.3,253.66L201.17,254.92L201.82,253.82L201.34,251.57L203.05,250.35L203.79,247.34L208.47,247.32L209.7,248.55L212.19,253.79L215.45,255.75L216.67,256.3L219.84,255.37L223.2,256.82L224.41,256.7L223.96,260.43L225.12,261.69L224.46,262.57L224.05,264.04L224.35,265.76L226.51,267.57L227.74,271.01L227.96,273.51L228.43,276.01L227.99,277.11L228.54,279.45L227.36,281.42L225.98,282.34L227.39,283.79L227.53,284.74L226.78,285.85L227.38,288.27L228.45,289.61L228.8,291.61L228.27,293.64L229.08,295.76L230.66,297.94L230.14,299.21L230.9,302.14L230.41,303.72L232.76,304.6L234.27,304.79L236.77,306.82L242.1,309.45L243.09,309.64L243.48,310.58L243.33,311.81L243.34,316.56L244.04,317.94L245.45,317.75L247.47,316.43L249.91,316.16Z" stroke-miterlimit="10" stroke="#FFFFFF"/>
<path title="马鞍山市" fill="#D3D3D3" id="path5" d="M456.46,363.79L455.89,366.22L455.18,368L454.75,370.06L455.1,372.7L453.31,376L452.95,375.84L451.22,377.7L448.39,378.66L446.87,378.71L445.58,379.33L445.21,379.02L445.5,377.49L445.02,376.51L443.97,376.84L443.12,378.24L442.08,381.41L440.73,383.91L440.11,384.02L439.09,385.6L437.93,385.46L436.92,385.99L434.52,385.95L430.71,387.14L428.82,387.04L426.61,387.46L426.36,386.44L424.68,384.34L424.3,382.86L424.93,381.23L423.57,379.05L421.56,377.2L421.76,374.95L420.39,374.44L418.47,374.74L417.84,376L416.48,375.86L415.6,375.18L414.02,375.89L413.88,374.54L413.19,372.23L412.57,371.05L412.05,368.78L412.75,368.18L412.74,366.87L411.64,365.91L411.15,364.07L408.98,362.92L407.4,360.12L404.64,367.77L403.87,369.08L402.53,370.15L401.67,370.16L401.41,369.1L401.62,366.73L402.12,365.46L401.08,364.18L400.96,363.06L400.39,362.92L400.3,364.12L399.22,363.88L396.87,362.65L397.08,362.07L395.16,360.49L394.99,360L392.22,360.92L390.56,360.8L390.14,359.84L388.91,359.49L387.22,360.21L386.18,361.3L384.04,361.88L384.2,363.9L384.99,366.38L385.55,367.41L384.62,367.04L383.33,368.19L383.71,370.93L385.3,370.96L387.54,371.81L386.71,373.59L387.29,374.77L386.95,375.25L370.13,370.78L369.01,371.42L368.52,370.89L368.66,369.68L368.01,368.84L367.92,367.71L369.07,367.58L369.71,366.71L367.4,365.34L367.63,364.01L366.37,361.56L365.13,360.96L366.35,359.62L365.33,359.2L364.01,359.45L363.22,358.22L362.11,358.49L362,357.38L362.65,356.44L364.04,356.07L364.72,354.67L364.17,353.92L364.79,353.72L364.41,351.95L364.9,351.27L364.65,350.4L365.28,349.4L367.37,349.38L367.18,350.57L368.26,350.13L368.4,348.09L367.98,347.67L367.48,345.72L367.85,345.4L366.07,344.35L365.09,344.35L365.31,343.48L364.43,343.16L362.58,340.64L362.57,339.35L363.24,337.22L362.78,335.37L363.7,334.11L362.22,333.43L361.88,332.28L362.6,331.14L361.44,328.38L362.08,326.01L362.65,325.07L364.76,323.41L365.34,321.88L366.32,317.62L367.53,318.16L369.85,320.4L375.31,322.94L376.95,323.06L378.02,323.93L379.1,323.6L379.29,320.9L381.53,319.31L382.67,317.64L383.75,317.95L385.27,317.43L387.53,318.32L388.57,317.46L389.09,316.15L390.71,315.17L392.23,315.45L394.14,313.31L395.81,312.13L399.04,309.23L400.47,308.58L400.51,307.16L401.66,304.67L403.33,303.37L404.71,302.89L405.64,301.76L408.23,300.3L409.13,301.41L408.31,303.15L409.82,304.8L408.67,305.56L408.8,308.13L408.43,308.84L407.42,309.02L407.66,310.67L406.67,311.93L406.72,313.3L406.22,314.9L407.28,315.44L408.32,316.64L409.96,316.73L411.21,318.17L413.55,319.17L414.73,320.08L416.66,320.65L416.16,321.88L416.13,323.12L416.97,323.99L418.43,324.81L419.8,324.97L418,330.24L417.62,332.19L419.65,332.22L420.39,333.63L421.63,334.05L422.62,333.45L423.18,334.09L423.09,335.48L421.48,336.2L422.25,336.29L423.7,337.45L424.18,337.01L424.88,337.73L426.28,335.84L426.63,336.44L428.35,336.05L429.09,334.96L429.92,334.59L430.86,335.4L431.64,334.33L433.05,334.47L433.7,335.55L433.09,336.06L434.06,336.57L434.24,337.67L436.49,337.85L437.23,338.27L437.46,339.26L438.47,340.02L436.83,341.48L436.12,341.51L435.92,342.41L434.33,343.87L433.56,343.39L433.2,344.35L433.65,345.72L433.24,346.78L434.61,347.79L436.16,347.85L437.22,348.34L438.21,347.95L440.33,347.98L440.57,349.34L441.46,348.57L442,348.8L443.06,346.04L442.98,344.69L443.64,343.63L445.3,343.66L445.86,343.07L448.27,344.92L446.73,346.04L447.35,347.17L447.98,349.24L448.63,350.25L449.77,350.28L450.25,349.22L451.64,349.02L454.02,349.74L455.01,351.17L455.21,352.53L454.68,353.39L455.84,353.63L455.46,355.42L456.29,356.46L455.63,357.91L455.5,360.19L456.48,360.24L456.67,361.67Z" stroke-miterlimit="10" stroke="#FFFFFF"/>
<path title="铜陵市" fill="#D3D3D3" id="path7" d="M289.36,412.21L291.2,410.51L292.68,412.52L294.76,413.92L296.05,416.2L296.43,417.87L298.14,419.12L301.07,422.11L301.83,422.37L303.07,422.02L303.88,420.39L304.62,420.4L305.66,421.6L306.92,421.78L307.99,421.27L308.73,421.75L309.99,424.49L309.57,425.01L310.18,425.91L311.32,425.81L311.53,424.35L314.19,422.95L316.96,424.01L317.6,422.34L318.67,421.63L322.11,420.84L323.34,420L324.85,421L326.18,421.29L325.79,423.36L327.36,424.04L328.51,423.3L329.28,423.93L330.69,423.69L331.56,422.85L334.84,423.53L337.19,425.16L337.25,425.98L338.14,427.15L338.79,425.34L338.65,424.15L340.32,423.91L340.62,422.05L341.35,421.64L342,420.1L341.72,419.25L342.7,419.11L343.73,418.23L343.99,419.25L345,419.26L347.02,413.87L348.49,409.53L349.82,407.8L352.35,405.73L354.72,404.67L356.54,404.55L358.39,405.35L359.39,406.6L360.38,410.67L361.11,411.54L363.6,412.67L364.73,412.75L366.97,411.96L368.4,410.87L369.58,411.38L371.54,411.56L373.09,413.08L371.91,415.26L372.31,416.49L373.49,416.95L374.12,418.45L377.84,419.1L379.07,421.08L380.42,422.01L381.15,423.66L383.05,424.01L384.89,423.69L386.36,424.46L386.49,425.72L385.77,428.03L385.93,429.05L386.92,430.86L386.18,431.51L383.97,431.43L380.56,433.3L378.66,435.43L376.48,434.79L374.81,436.45L375.63,436.72L375,438.06L373.32,437.79L372.27,435.91L370.35,436.78L369.08,438L366.49,440.95L365.49,439.2L364.65,438.9L362.83,440.73L361.61,441.35L359.76,441.55L358.67,442.04L356.11,444.23L355.72,445.9L353.15,447.45L351.93,447.72L351.27,448.74L350.06,448.59L349.88,446.97L347.59,447.25L347.75,446.33L346.65,445.35L347.37,443.81L346.94,442.6L346.07,442.12L343.98,443.93L341.81,444.07L342.13,442.19L339.11,445.01L336.69,445.57L330.05,447.81L323.31,451.19L321.99,454.56L321.2,455.71L319.75,456.55L317.88,456.55L315.1,456.11L312.88,455.24L312.39,454.75L309.73,454.84L307.46,455.43L304.18,456.8L300.62,459.07L295.24,461.99L294.74,461.49L294.12,459.32L294.3,457.61L294.85,456.59L295.91,455.71L297.59,455.27L294.08,455.09L293.62,453.98L292.68,454.36L292.36,453.44L291.47,453.95L290.01,453.22L286.31,449.65L285.58,447.89L284.01,446.61L284.4,443.98L284.52,439.83L283.58,433.27L282.6,428.44L282.02,424.7L282.24,423.22L283.45,421.68L283.33,419.25L285.02,418.87L286.3,419.62L287.28,419.56L287.9,418.75L287.56,417.12L288.17,415.95L288.19,414.27L288.75,413.81ZM302.99,478.1L303.99,477.31L305.18,477.48L305.64,478.05L305.84,479.96L305.38,480.9L304.69,480.95L303.79,482.75L302.62,483.29L303.2,485.04L301.44,486.26L300.22,485.62L298.62,485.58L298.67,484.66L299.32,484.46L300.09,483.2L298.97,481.82L299.08,481.32L300.79,480.57L302.31,479.33ZM270.45,462.22L267.92,461.82L266.57,460.24L266.71,459.33L267.9,458.54L269.55,459.12L270.08,458.91L271.09,459.02L272.02,460.54Z" stroke-miterlimit="10" stroke="#FFFFFF"/>
<path title="芜湖市" fill="#D3D3D3" id="path2" d="M434.52,385.95L434.96,387.52L434.83,389.9L434.03,390.89L433.59,392.64L435.17,393.62L435.61,394.98L437.04,396.2L438.21,399.02L439.56,400.39L440.47,400.73L441.94,403.51L440.36,404.1L438.88,405.05L437.75,406.27L437.05,407.75L437.29,409.52L436.45,410.27L436.38,411.2L437.01,411.93L435.15,414.24L433.85,416.23L431.66,418.06L429.68,418.11L429.11,417.22L429.38,415.39L428.64,414.98L427.49,417.44L426.33,418.55L427.2,420.98L427.32,422.43L426.21,423.51L424.27,423.69L420.33,425.9L420.82,427.43L418.93,427.04L420.23,428.43L420.46,430.08L418.35,431.66L418.66,433.53L417.97,434.23L417,433.71L416.65,434.47L417.79,434.96L417.16,436.45L417.94,435.72L419.17,436.19L418.38,437.45L418.46,438.11L417.21,439.15L417.62,440.39L418.91,440.69L419.64,441.76L419.62,442.76L417.87,444.03L417.48,445.12L417.43,446.71L414.67,445.28L415.01,444.04L414.17,442.83L412.74,443.33L411.56,441.4L412.56,441.37L413.23,440.15L412.04,438.3L410.59,437.45L407.39,437.81L405.7,437.78L404.6,440.18L403.69,439.91L401.8,440.48L400.65,442.15L401.24,443.48L400.48,442.82L400.25,443.63L400.73,445.59L399.79,446.04L399.47,447.76L397.74,449.33L397.65,450.09L399.48,451.67L399.72,452.39L401.39,453.62L400.48,454.4L399.35,454.19L397.94,452.76L396.86,452.59L394.47,453.8L393.15,453.15L392.1,453.12L390.85,453.95L387.54,455.13L385.83,457.95L384.21,459.57L380.74,460.8L380.61,459.66L381.2,458.35L383.17,455.23L384.03,454.16L383.41,454.04L383.07,452.18L382.17,452.01L380.26,449.82L377.88,448.92L375.97,447.59L373.92,445.85L370.73,445.3L369.4,443.6L367.96,443.5L367.76,443.03L369.97,439.68L369.08,438L370.35,436.78L372.27,435.91L373.32,437.79L375,438.06L375.63,436.72L374.81,436.45L376.48,434.79L378.66,435.43L380.56,433.3L383.97,431.43L386.18,431.51L386.92,430.86L385.93,429.05L385.77,428.03L386.49,425.72L386.36,424.46L384.89,423.69L383.05,424.01L381.15,423.66L380.42,422.01L379.07,421.08L377.84,419.1L374.12,418.45L373.49,416.95L372.31,416.49L371.91,415.26L373.09,413.08L371.54,411.56L369.58,411.38L368.4,410.87L366.97,411.96L364.73,412.75L363.6,412.67L361.11,411.54L360.38,410.67L359.39,406.6L358.39,405.35L356.54,404.55L354.72,404.67L352.35,405.73L349.82,407.8L348.49,409.53L347.02,413.87L345,419.26L343.99,419.25L343.73,418.23L342.7,419.11L341.72,419.25L342,420.1L341.35,421.64L340.62,422.05L340.32,423.91L338.65,424.15L338.79,425.34L338.14,427.15L337.25,425.98L337.19,425.16L334.84,423.53L331.56,422.85L330.69,423.69L329.28,423.93L328.51,423.3L327.36,424.04L325.79,423.36L326.18,421.29L324.85,421L323.34,420L321.99,417L321.06,416.34L321.16,415.65L322.07,415.15L323.78,415.06L324.95,412.88L325.39,411.44L324.95,409.64L323.79,408.35L324.29,407.4L325.25,407.05L325.59,404.91L327.68,403.99L328.3,402.41L327.93,400.37L325.75,398.67L325.05,397.73L326.51,397.11L328,396.09L328.55,394.03L329.68,392.35L329.9,391.48L329.59,389.76L332.54,389.22L333.87,387.14L335.56,386.8L336.9,384.13L337.71,380.87L339.74,376.12L341.27,374.32L341.67,371.57L342.5,368.49L343.95,367.45L345.89,367.85L347.48,367.02L348.58,367.67L349.55,365.94L351.23,365.69L353.14,366.12L354.63,365.4L356.48,365.67L360.35,363.67L361.32,363.35L363.02,363.54L364.61,365.11L365.71,365.19L367.63,364.01L367.4,365.34L369.71,366.71L369.07,367.58L367.92,367.71L368.01,368.84L368.66,369.68L368.52,370.89L369.01,371.42L370.13,370.78L386.95,375.25L387.29,374.77L386.71,373.59L387.54,371.81L385.3,370.96L383.71,370.93L383.33,368.19L384.62,367.04L385.55,367.41L384.99,366.38L384.2,363.9L384.04,361.88L386.18,361.3L387.22,360.21L388.91,359.49L390.14,359.84L390.56,360.8L392.22,360.92L394.99,360L395.16,360.49L397.08,362.07L396.87,362.65L399.22,363.88L400.3,364.12L400.39,362.92L400.96,363.06L401.08,364.18L402.12,365.46L401.62,366.73L401.41,369.1L401.67,370.16L402.53,370.15L403.87,369.08L404.64,367.77L407.4,360.12L408.98,362.92L411.15,364.07L411.64,365.91L412.74,366.87L412.75,368.18L412.05,368.78L412.57,371.05L413.19,372.23L413.88,374.54L414.02,375.89L415.6,375.18L416.48,375.86L417.84,376L418.47,374.74L420.39,374.44L421.76,374.95L421.56,377.2L423.57,379.05L424.93,381.23L424.3,382.86L424.68,384.34L426.36,386.44L426.61,387.46L428.82,387.04L430.71,387.14Z" stroke-miterlimit="10" stroke="#FFFFFF"/>
<path title="宿州市" fill="#D3D3D3" id="path12" d="M235.96,73.74L235.13,71.55L234.33,70.9L233.32,68.75L233.65,68.58L232.43,67.37L232.35,66.45L231.49,64.82L229.71,64.15L229.89,63.39L228.59,61.89L229.23,61.45L229.36,58.6L230.31,57.42L232.21,56.43L231.68,54.48L230.34,53.39L230.01,50.66L230.44,49.57L230.1,48.24L231.1,47.97L232.42,46.87L233.84,45.08L233.85,44.06L232.55,43.1L227.03,41.58L224.92,42.23L222.62,44.54L221.71,44.78L220.64,42.55L219.17,43.73L219.42,44.66L217.78,44.88L216.8,43.91L215.62,43.96L213.88,44.53L213.52,45.13L212.65,43.94L213.63,41.87L212.82,39.71L212.11,38.84L209.4,37.68L206.68,36.23L205.45,34.26L204.29,34.09L203.71,32.88L202.24,32.2L200.72,32.43L198.17,31.53L197.82,30.59L198.51,29.97L198.39,29.06L197.37,27.61L194.85,25.87L194.43,24.21L193.19,22.48L194.81,19.65L194.79,18.18L195.84,18.06L197.24,16.7L197.23,15.52L195.98,13.53L196.5,11.18L196.57,8.8L197.47,8.55L198.5,8.9L200.09,11.24L201.47,11.64L201.98,10L202.58,9.78L203.25,7.88L204.1,7.78L204.47,5.73L205.19,4.93L206.64,5.06L207.58,5.8L208.95,5.84L209.82,3.52L211.46,3.49L213.51,2.04L213.71,1.27L214.52,1.43L215.56,0.91L219.16,0L219.38,2.43L220.81,3.56L223.67,4.2L223.79,5.52L225.05,7.27L225.14,9.43L226.81,10.97L228.41,11.45L227.87,12.65L228.7,12.94L230.53,12.68L232.7,14.97L234.36,16.25L235.09,16.36L235.45,17.7L234.82,18.44L233.31,17.99L232.52,18.6L233.14,19.02L237.82,19.05L241.61,20.88L247.44,20.92L249.59,21.44L251.09,22.11L252.35,23.18L253.22,24.96L253.22,25.91L255.35,27.95L257.61,30.71L259.59,30.73L261.38,30.37L262.98,29.09L265.46,28.48L266.56,28.63L268.99,29.97L271.28,30.76L270.47,32.73L270.5,33.75L272.33,34.33L272.62,35.02L272.28,36.65L271.27,38.46L271.99,39.89L271.24,43.07L272.73,44.69L274.95,46.2L276.07,46.37L276.25,47.8L277.25,47.86L277.64,49.14L277.16,50.37L276.34,51.27L275.17,50.57L275,49.01L273.73,50.2L273.16,52.26L273.8,52.13L272.34,53.35L272.54,56.1L273.62,56.57L272.33,58.01L272.54,56.69L271.87,56.48L271.49,58.17L272.52,60.2L274.42,59.61L274.72,58.55L275.49,58.77L276.5,57.35L277.32,58.04L277.3,56.76L277.96,56.68L278.8,58.55L279.56,58.12L281.24,59.1L282.95,59.21L284.54,61L286.22,61.26L286.82,62.52L286.85,64.35L288.42,64.81L289.52,64.7L288.89,66.46L289.85,66.39L291.86,67.35L292.89,68.21L294.27,68.22L294.77,67.51L295.98,68.74L299.17,68.54L301.04,67.02L302.08,67.05L302.66,67.94L304.38,68.28L305.15,66.38L307.46,66.83L308.79,65.93L310.79,67.89L310.14,69.15L311.8,69.74L312.97,71.38L313.49,72.72L314.45,73.21L316.37,72.92L318.77,71.87L320.37,70.67L322.65,70.13L323.09,69.04L324.04,69.13L326.23,71.02L327,72.13L326.72,73.7L326.93,74.64L328.07,75.37L329.28,77.95L329.94,78.22L331.14,77.65L332.08,76.58L333.28,76.32L333.89,75.66L334.04,74.23L333.28,72.81L333.87,72.46L335.16,72.88L336.4,74.43L338.7,76.38L339.18,77.78L338.37,79.88L339.3,81.78L339.31,83.82L341,86.1L342.31,89.31L343.45,90.31L345.91,88.83L347.16,88.89L347.63,89.56L347.68,90.86L347.03,92.17L347.08,94.05L346.8,96.38L346.42,96.77L347.03,98.05L346.7,100.51L346.01,103.87L345.25,105.15L344.35,105.41L344.16,106.42L345.05,107.13L345.37,108.53L347.05,109.83L348.44,108.63L349.5,108.56L350.83,107.29L354.1,106.83L355.1,107.21L357.33,107.18L359.36,107.94L360.11,108.54L361.47,108.83L361.07,107.76L361.35,107.02L362.83,106.71L363.29,107.3L364.85,107.76L366.09,107.21L366.56,105.24L367.58,103.8L368.3,105.33L369.31,105.67L370.44,105.35L370.66,105.81L372.79,105.84L372.91,106.67L373.96,106.47L373.72,105.75L375.4,105.36L377.02,104.38L377.32,103.52L381.23,103.66L382.39,103.44L383.53,104.87L385.38,105.78L386.74,105.27L388.9,105.94L388.14,107.01L386.53,107.07L385.81,108.83L387.2,109.43L386.84,112.03L387.25,115.36L382.6,120.28L381.85,120.79L382.37,123.44L381.46,130.92L380.57,130.99L381.42,132.06L381.31,133.95L381.43,137.29L376.94,135.47L375.88,135.32L375.19,137.45L373.75,139.22L373.26,141.25L373.09,143.54L372.61,145.18L373.71,147.09L373.49,148.14L373.81,149.21L371.55,151.55L370.54,152.12L368.23,151.86L368.03,152.48L368.94,153.62L368.34,154.09L366.35,154.23L362.85,154.09L362.19,152.43L361.11,152.91L360.76,154.03L358.5,154.19L357.36,154.68L356.81,157.07L356.14,158.12L354.03,157.68L352.55,158.01L352.44,159.52L350.98,160.17L349.25,159.61L345.61,160.46L344.68,159.33L342.98,159.55L341.25,158.54L341.01,157L339.74,156.43L338.85,154.34L336.44,153.7L335.37,152.52L334.58,152.33L333.19,152.97L331.28,154.88L330.15,154.62L328.82,153.72L326.46,154.35L325.4,152.98L323.32,152.24L321.09,152.3L320.39,152.04L316.19,148.42L315.28,146L313.1,143.12L312.12,139.47L309.59,137.77L307.64,137.22L305.24,137.17L304.2,135.46L299.58,134.74L297.76,134.22L297.65,135.57L296.62,137.5L294.37,139.84L293.85,143.27L289.69,139.32L289.22,141.47L287.76,141.13L286.7,141.99L286.51,143.4L287.27,143.71L288.15,144.87L287.15,147.46L286.38,148.2L284.63,146.84L284.77,146.2L283.42,146.2L282.21,145.23L280.12,146.89L279.2,149.31L280.33,149.01L282.46,149.99L283.59,151.33L283.29,152.16L282.06,152.42L281.49,153.65L280.46,153.77L280.53,155.08L283.15,155.71L283.85,156.68L283.48,159.32L277.55,158.35L276.7,157.99L275.45,159.98L274.49,160.12L272.95,159.7L271.79,160.08L269.75,159.12L268.24,157.42L266.84,156.76L267.42,155.59L267.21,154.71L266.35,154.27L266.61,153.6L265.92,152.42L266.91,152.18L267.3,150.77L267.74,150.6L268.72,148.61L270.11,148.95L270.21,148.32L271.68,146.92L270.8,146.07L271.28,144.56L270.88,143.78L271.47,142.71L270.98,142.16L271.03,140.98L270.26,139.93L268.44,139.78L267.42,138.79L267.36,137.79L265.05,137.06L265.13,136.45L266.47,135.22L265.01,133.71L266.05,129.88L267.27,129.31L267.31,128.09L268.15,125.08L266.04,125.31L264.53,126.04L262.03,124L261.21,122.34L260.68,119.97L261.47,118.45L261.84,116.93L261.63,115.6L262.03,113.97L262.71,113.86L265.18,114.56L266.23,114.18L267.41,114.29L267.3,110.83L268.37,110.58L267.67,106.6L267.9,105.57L269.48,105.81L268.82,104.61L268.66,102.6L269.44,100.69L269.37,98.51L269.54,95.76L270.2,93.98L270.29,90.19L270.65,88.72L272.89,88L273.96,86.24L273.32,84.98L274.19,83.42L273.4,81.74L273.4,80.69L272.67,80.32L271.43,80.69L270.15,80L272.06,76.98L271.73,76.38L272.17,75.39L271.29,74.64L271.5,73.24L271.07,72.86L269.18,72.61L269.43,71.9L269.22,70.13L270.53,68.73L271.64,67.01L269.95,67.15L267.43,66.82L267.34,65.58L265.44,64.68L264.81,64.76L263.5,66.57L262.07,67.59L259.8,66.6L259.34,68.09L258.14,68.5L257.66,69.35L256.51,67.73L256.71,66.18L255.5,67.24L256.03,68.3L255.7,68.76L255.08,72.45L255.64,74.79L255.19,76.96L254.53,75.84L253.36,75.38L253.39,74.91L250.3,74.71L249.65,74.25L248.54,74.82L248.19,74.34L246.3,74.58L245.6,75.13L244.25,74.35L243.19,75.04L241.59,74.11L240.27,73.73L238.15,74.18Z" stroke-miterlimit="10" stroke="#FFFFFF"/>
<path title="宣城市" fill="#D3D3D3" id="path16" d="M455.03,521.32L453.2,520.31L450.4,521.17L447.39,523.91L445.26,524.07L443.97,523.65L442.86,522.29L441.63,524.8L438.48,526.31L438.19,528.56L437.6,529.42L435.69,530.01L433.95,529.91L431.73,530.81L430.42,532.45L430.81,532.95L430.37,534.84L429.58,535.82L427.42,536.19L426.59,536.7L425.59,538.51L424.05,538.77L421.74,536.3L421.35,535.42L421.71,533.49L421.32,532.78L420.24,532.84L419.9,533.62L419.22,531.99L419.16,530.63L420.65,529.23L420.7,528.31L418.81,524.6L417.19,524.1L416.34,523.44L414.5,521.19L411.39,521.78L410.1,521.52L409.17,520.78L408.18,521.8L406.83,521.51L405.33,520.15L405.51,519.03L404.59,517.65L403.8,514.12L402.57,513.06L401.11,511.05L399.1,510.35L399.02,508.16L398.7,506.61L397.28,506.02L396.88,505.44L396.77,503.59L397.23,502.47L399.27,500.92L400.47,500.84L401.98,499.79L401.17,499.89L399.5,498.86L400.73,498.05L400.98,496.79L400.19,495.77L399.97,494.52L400.53,493.34L399.53,492.56L400.02,491.23L398.1,490.98L397.89,490.09L396.68,490.53L395.73,490.3L395.19,488.47L393.98,487.83L392.4,486.28L392.55,485.2L391.81,483.59L393.04,483.43L393.38,482.76L392.76,481.71L391.67,481.01L391.65,480.39L389.99,480.18L388.95,480.65L389.17,479.53L387.29,481.94L388.5,482.52L386.77,482.64L386.24,484.04L384.8,484.09L383.57,484.57L383.07,485.23L381.38,484.6L381.6,481.97L380.98,480.57L382.41,478.54L382.69,477.44L383.62,476.87L382.35,475.63L379.65,474.72L378.25,474.98L376.17,476.25L374.36,476.84L372.61,476.6L369.6,476.81L368.09,475.29L369.15,473.81L369.74,472.43L369.54,469.78L370.69,468.71L373.2,468.19L375.44,465.75L377.35,465.43L378.05,464.36L378.52,462.77L380.74,460.8L384.21,459.57L385.83,457.95L387.54,455.13L390.85,453.95L392.1,453.12L393.15,453.15L394.47,453.8L396.86,452.59L397.94,452.76L399.35,454.19L400.48,454.4L401.39,453.62L399.72,452.39L399.48,451.67L397.65,450.09L397.74,449.33L399.47,447.76L399.79,446.04L400.73,445.59L400.25,443.63L400.48,442.82L401.24,443.48L400.65,442.15L401.8,440.48L403.69,439.91L404.6,440.18L405.7,437.78L407.39,437.81L410.59,437.45L412.04,438.3L413.23,440.15L412.56,441.37L411.56,441.4L412.74,443.33L414.17,442.83L415.01,444.04L414.67,445.28L417.43,446.71L417.48,445.12L417.87,444.03L419.62,442.76L419.64,441.76L418.91,440.69L417.62,440.39L417.21,439.15L418.46,438.11L418.38,437.45L419.17,436.19L417.94,435.72L417.16,436.45L417.79,434.96L416.65,434.47L417,433.71L417.97,434.23L418.66,433.53L418.35,431.66L420.46,430.08L420.23,428.43L418.93,427.04L420.82,427.43L420.33,425.9L424.27,423.69L426.21,423.51L427.32,422.43L427.2,420.98L426.33,418.55L427.49,417.44L428.64,414.98L429.38,415.39L429.11,417.22L429.68,418.11L431.66,418.06L433.85,416.23L435.15,414.24L437.01,411.93L436.38,411.2L436.45,410.27L437.29,409.52L437.05,407.75L437.75,406.27L438.88,405.05L440.36,404.1L441.94,403.51L440.47,400.73L439.56,400.39L438.21,399.02L437.04,396.2L435.61,394.98L435.17,393.62L433.59,392.64L434.03,390.89L434.83,389.9L434.96,387.52L434.52,385.95L436.92,385.99L437.93,385.46L439.09,385.6L440.11,384.02L440.73,383.91L440.58,387.07L439.12,386.16L439.46,386.84L441.26,388.49L444.63,389.01L446.43,391.06L446.56,393.29L447.91,394.46L448.62,394.6L450.21,393.72L450.69,394.35L453.3,393.31L455.1,393.02L457.19,393.5L459.51,392.79L460.45,393.3L463.17,393.52L466.16,393.52L466.4,394.27L468.03,393.98L469.16,393.08L469.92,393.48L471.53,393.45L472.44,394L473.74,393.44L474.85,394.07L475.98,393.24L477.89,393.8L478.06,392.07L479.32,390.81L480.45,390.72L481.32,389.19L482.23,389.07L483.01,387.07L484.76,387.16L485.23,386.42L487.01,387.2L486.78,389.47L487.47,390.36L488.53,389.41L488.85,390.49L490.56,391.08L490.79,391.61L491.91,391.32L491.87,390.78L492.99,390.85L493.53,392.08L496.19,390.65L498.17,390.36L499.94,390.54L500.36,391.13L501.17,389.99L501.59,388.56L501.58,386.36L502.21,386.11L503.29,387.7L503.65,389.69L504.44,389.94L503.04,394.1L502.54,396.42L503.09,398.25L503.64,398.05L504.39,399.01L505.91,397.84L506.95,398.42L505.37,399.11L505.58,400.7L506.46,400.19L507.89,400.85L508.64,399.85L510.16,400.39L511.7,401.76L512.26,402.72L513.74,402.44L514.38,403.16L514.68,402.16L515.54,401.86L517.42,402.76L518.35,402.34L519.41,402.53L520.51,403.69L521.9,404.49L522.97,405.82L523.25,407.52L524.01,408.12L525.73,408.06L527.08,405.8L528.05,405.67L528.09,407.29L530.5,408.52L529.11,409.8L528.61,410.73L529.13,413.14L528.78,415.16L529.04,418.19L528.07,419.79L527.32,420.12L526.47,421.3L524.62,422.74L523.85,424.1L524.02,426.32L523.85,428.38L522.25,429.5L521.53,432.04L521.79,432.6L521.78,434.91L523.21,436.92L523.4,439.58L522,439.61L521.35,440.04L518.45,445.63L516.76,446.35L515.25,445.5L514.15,445.94L514.02,448.21L514.59,449.17L514.11,450.04L514.41,453.69L512.79,456L511.52,457.38L511.07,459.16L509.66,460.44L507.63,460.6L506.4,458.81L505.98,456.58L505.58,455.85L504.41,456.51L503.73,456.4L502,457.91L500.9,458.21L499.98,459.57L498.97,462.03L497.89,463.05L495.88,463.63L494.38,463.45L492.74,463.81L491.9,463.15L490.84,464.39L492.25,465.83L492.29,466.71L493.32,467.45L493.32,468.42L491.46,469.77L490.63,471.42L491.17,473.29L493.05,473.8L493.02,474.67L494.03,475.48L495.56,475.25L498.05,473.16L499.3,472.96L499.5,474.24L500.24,475.86L499.66,477.99L500.06,479.12L500.22,482.78L501.54,483.53L501.85,485.1L501.52,486.92L502.84,486.82L503.4,487.91L503.17,489.19L503.64,489.69L505.8,489.79L506.7,490.76L506.4,491.5L505.06,491.93L504.04,492.95L501.51,493.59L500.86,492.01L499.54,491.08L496.79,491.96L495.71,493.53L494.61,494.43L493.35,494.83L491.62,494.52L490.92,496.07L491.5,496.67L490.56,499.4L489.88,500.25L489.24,499.14L487.6,498.92L487.16,500.1L485.91,500.03L482.87,499.15L482.34,498.58L480.14,498.57L478.45,497.83L476.44,496.4L474.81,497.31L473.8,498.54L472.63,498.34L472.38,497.67L470.49,497.69L468.14,495.85L466.55,495.35L466.56,493.64L465.36,493.81L464.71,493.34L463.84,493.8L463.39,492.46L461.56,493.4L461.55,494.04L459.77,495.46L458.85,495.63L458.01,496.56L456.09,497.43L456.27,499.26L455.92,501.03L457.04,504.22L456.33,504.98L457.36,505.51L458.35,508.29L460.45,508.74L460.93,509.91L460.03,510.4L459.08,511.69L454.59,513.76L453.48,514.04L452.78,515.2L453.82,516.09L454.72,515.72L456.2,516.25L457.73,516.1L457.64,517.14L456.89,518.43L456.8,519.53L455.29,520.02Z" stroke-miterlimit="10" stroke="#FFFFFF"/>
</svg>