<svg xmlns="http://www.w3.org/2000/svg" xmlns:xlink="http://www.w3.org/1999/xlink" width="600" height="600">
<path title="滨州市" fill="#D3D3D3" id="path15" d="M186.47,193.77L186.8,192.54L187.03,190.55L187.66,189.5L189.13,188.27L189.62,187.27L189.85,185.86L189.45,184.08L188.87,183.42L189.44,183.29L189.89,181.36L190.73,180.27L192.1,179.31L191.88,178.37L192.49,177.01L193.49,177.87L193.33,179.68L192.91,180.31L192.87,181.7L193.34,182.55L194.05,182.65L195.56,181.55L196.64,179.74L197.26,180.63L198.28,181L199.45,180.41L200.04,180.6L201.08,181.98L201.95,182.09L202.82,179.92L203.95,179.58L204.18,178.98L206.06,178.78L206.96,177.36L206.71,176.37L207.96,176.11L206.93,175.19L207.28,174.11L207.04,173.13L206.09,173.08L205.37,172.39L205.7,171.66L207.29,171.23L207.23,170.38L208.24,168.1L208.9,167.62L208.72,166.88L210.38,165.92L210.93,164.76L211.67,164.35L211.79,163.75L210.96,162.96L209.85,162.43L209.81,160.86L208.92,160.17L207.28,160.1L206.94,159.43L206.68,157.18L205.9,155.37L208.84,153.98L209.06,152.96L208.52,148.98L207.44,147.86L206.81,147.76L207.18,146.26L208.28,144.89L207.98,143.33L208.62,142.7L209.48,142.56L210.05,142.03L211.67,141.8L212.56,142.19L214.7,141.86L216.31,141.85L217.33,141.17L219.23,141.51L221.11,139.79L221.21,138.39L222.17,136.94L224.11,136.12L224.36,135.45L223.97,133.53L224.33,132.81L226.04,132.64L226.58,131.93L225.67,131.4L226.19,130.15L226.32,128.79L226.93,127.82L227.14,126.79L228.28,126.09L230.09,124.32L231.11,122.32L233.75,119.7L233.58,121.02L233.83,121.83L236.77,124.2L241.5,128.38L243.11,129.28L244.19,128.96L245.11,128.18L250.2,128.54L255.2,130.85L258.16,134.66L260.33,134.92L259.63,136.71L258.98,137.34L260.01,138.02L260.34,138.88L259.56,140.84L258.9,141.17L259.21,143.37L258.97,145.19L258.66,148.75L259.12,150.15L258.46,150.52L258.66,152.72L257.91,153.14L258.06,153.72L258.76,153.61L258.93,154.66L258.82,156.23L259.36,156.31L259.57,157.97L260.16,158.9L259.66,159.97L259.85,161.49L260.58,162.51L260.5,161.2L261.3,162.82L261.31,163.85L262.18,162.99L263.44,162.63L264.6,161.35L265.48,162.18L266.61,161.82L267.53,164.44L267.08,165.01L267.98,164.99L267.89,165.73L268.76,166.1L268.45,166.73L269.18,168.87L268.15,169L267.56,170.57L267.57,171.57L268.51,172.13L268.56,172.9L267.66,173.23L267.33,174.88L265.81,174.99L265.95,176.47L265.71,176.35L264.82,178.6L264.87,179.33L264.03,179.77L263.95,180.58L263.31,181.36L261.51,182.07L260.41,181.71L259.87,181.94L258.83,181.2L257.44,181.4L256.93,180.84L256.53,181.39L255.14,181.78L254.79,183.08L254.26,183.03L254.11,184.37L253.45,184.62L253.65,185.36L253.45,186.78L252.83,187.31L252.98,187.88L251.93,188.27L251.38,189.41L251.66,190.06L252.26,190.06L251.88,191.29L252.43,191.5L254.84,190.8L255.06,191.42L254.85,192.4L253.83,193.14L253.61,193.99L253.15,193.97L252.51,195.08L252.07,195.28L252.27,196.18L251.88,196.19L251.94,197.2L251.4,197.68L251.44,198.45L250.83,198.74L250.25,200.39L251.2,200.81L250.69,201.09L250.41,202.66L252.03,202.48L253.08,202.8L254.14,204.86L254.26,205.68L253.85,206.5L253.95,207.42L252.63,207.15L251.98,207.91L252.45,208.71L253.45,208.63L253.55,209.88L253.92,210.04L257.03,208.15L258.16,207.88L258.24,209.19L258.61,209.54L260.32,209.55L260.36,208.7L261.33,208.46L261.59,209.88L262.47,210.29L263.45,210.02L263.86,210.43L263.51,211.01L265.65,211L265.63,214.61L265.98,215.45L266.46,215.4L266.42,216.32L267.68,216.49L267.68,217.26L268.67,217.26L268.9,217.87L269.65,217.97L269.23,218.53L269.95,218.53L270.23,219.99L269.67,219.98L269.06,221.32L268.31,221.39L268.02,222.4L269.35,224.6L270.25,224.98L270.3,225.86L270.81,226.47L271.13,227.68L270.59,227.94L270.37,229.94L269.53,230.64L269.16,230.48L268.75,231.35L268.09,231.31L267.57,232.08L267.98,232.82L267.38,232.9L268.23,234.93L267.39,234.8L267.43,235.68L266.98,236.82L267.4,237.74L267.33,239.49L266.34,240.22L266.44,241.25L265.25,241.93L265.1,242.73L263.71,243.72L263.62,244.62L262.3,243.98L261.63,244.36L260.74,244.34L260.47,245.94L259.54,245.99L259.26,247.02L258.59,247.75L257.62,248.13L256.51,247.73L256.34,246.74L253.91,246.34L253.94,245.71L253.19,245.71L253.32,244.57L252.24,244.05L252.27,243.22L251.86,242.15L252.27,241.47L252.29,240.4L253.19,240.14L253.14,239.41L253.66,239.12L253.6,238.41L252.03,238.4L252.02,237.22L251.59,235.95L250.49,235.04L250.13,235.61L248.22,235.87L246.47,236.74L246,235.71L245.17,235.27L245.14,234.53L246.03,234.52L246.9,233.59L247.74,233.12L246.63,231.33L246.23,230.23L246.42,229.14L247.34,228.4L247.12,227.7L247.99,226.94L247.6,226.62L247.31,225.18L246.55,224.61L245.33,225.04L245.2,224.01L244.48,223.57L243.38,223.46L243.17,224.58L242.51,224.85L241.26,224.36L240.49,224.58L240.23,223.79L239.7,224L240.24,221.9L241.41,221.15L240.98,220.89L240.97,219.62L238.93,218.72L237.66,219.64L237.79,219.05L237.22,217.88L234.79,219.36L233.21,219.62L232.38,218.6L230.35,217.7L229.42,217.68L227.92,218.31L225.13,220.92L224.48,221.28L223.47,221.28L221.15,220.88L218.39,220.07L217.06,218.88L215.81,218.5L214.66,219.28L213.6,221.06L213.35,222.89L212.45,224.36L211.15,225.28L210.68,228.47L210.25,229.36L209.33,230.21L207.59,230.64L208.06,232.79L209.35,233.09L209.54,233.69L208.85,234.12L209.39,236.13L210.6,236.53L211.93,235.99L212.76,236.04L214.68,236.64L216.91,237.66L219.11,238.08L220.91,238.08L221.91,238.44L223.6,238.35L224.34,238.05L226.51,237.88L230.08,238.34L229.55,241.24L229.66,242.11L231.5,242.36L231.84,243.35L231.53,243.95L231.55,245.26L231.84,246.01L234.58,246.36L234.99,246.99L234.87,248.18L235.1,249.03L236.5,250.15L236.83,250.81L236.77,252.63L237.38,251.28L237.82,252.38L238.78,251.99L238.69,253.14L237.93,253.93L237.15,254.02L237.17,254.93L236.34,255.06L235.52,256.02L235.38,257L233.46,256.81L233.41,257.51L232.19,257.81L231.47,257.31L230.78,257.94L228.98,257.93L228.61,258.32L228.91,260.15L228.16,261.24L228.07,263.48L227.6,263.88L227.66,264.71L228.33,264.77L228.43,265.92L229.55,265.76L230.33,266.97L230.47,268.3L228.99,268.86L229.1,268.19L228.49,267.13L228.06,267.76L227.26,269.85L226.12,271.23L225.95,272.4L225.11,272.82L224.81,273.56L223,273.4L220.84,273.56L220.25,273.31L220.29,272.66L221.92,271.12L221.67,270.32L222.48,268.5L220.72,267.8L218.58,267.98L217.94,267.05L217.2,265.21L214.94,263.11L211.94,261.55L209.81,258.75L209.57,257.66L209.76,256.21L210.15,255.38L210.05,254.68L208.95,252.63L206.29,251.12L206.69,250.19L207.59,250.91L207.77,250.26L208.6,249.84L208.66,248.43L207.44,247.94L207.89,247.4L207.42,246.54L206.49,246.67L205.2,248.7L204.44,247.54L203.27,247.25L201.91,247.63L201.99,248.32L200.56,248.65L199.47,248.61L197.38,249.13L197.23,248.69L196.56,249.38L196.4,248.9L195.46,249.19L194.44,248.71L193.46,245.1L192.56,244.3L190.66,243.55L189.81,242.63L189.66,241.71L190.48,241.18L191.28,240.16L191.49,239.25L191.26,237.58L193.45,238.03L195.42,236.67L196.79,236.11L199.29,235.71L200.63,234.15L200.32,233.42L199.94,230.94L199.94,229.96L199.44,229.68L199.34,228.35L198.83,227.07L197.45,225.57L196.47,223.93L196.27,223.2L196.76,221.78L198.31,221.77L197.95,221.43L198.45,220.38L199.43,220.79L199,220.05L198.89,218.66L198.55,218.69L198.38,217.44L197.43,216.35L196.78,213.95L197.15,211.31L196.68,210.89L197.26,209.89L196.17,208.47L193.71,206.81L193.07,205.92L193.68,204.59L193.79,203.02L192.55,201.59L189.19,201.92L188.15,201.32L189.08,200.54L188.84,200.14L187.28,199.61L187.42,198.87L189.45,198.13L189.84,196.95L189.04,196.15L187.47,195.93L187.31,194.76L186.64,194.38ZM272.67,146.32L272.83,143.71L273.54,143.72L273.59,146.39Z" stroke-miterlimit="10" stroke="#FFFFFF"/>
<path title="德州市" fill="#D3D3D3" id="path13" d="M186.47,193.77L185.52,194.01L183.8,193.74L183.18,194.13L182.5,195.63L180.85,198.12L179.08,198.22L178.15,198.91L176,199.26L175.19,198.44L174.04,198.9L173.21,199.79L173.68,201.17L173.47,202.08L172.48,203.11L168.62,203.07L168.03,202.35L167.1,203.03L166.62,204.59L167.2,205.95L166.32,207.19L165.64,208.67L166.43,210.32L166.2,210.75L164.72,211.94L164.69,212.65L165.2,213.92L165.87,217.36L167.54,218.04L168.66,219.22L168,219.44L168.16,220.49L168.83,221.02L168.94,221.86L168.48,222L168.43,223.27L167.39,224.13L168.57,224.87L168.54,226.03L169.15,225.84L170.06,226.32L170.53,227.22L170.39,228.91L169.55,229.3L169.85,231.13L170.24,231.55L169.3,231.79L169.11,232.95L167.54,233.23L166.04,233.08L164.37,233.81L160.49,235.06L159.54,235.76L159.6,236.88L160.02,237.97L160.28,239.76L161.46,240.59L161.8,241.14L161.38,241.68L158.69,242.81L157.46,244.36L156.2,244.69L157.02,245.44L157.05,246.18L158.04,246.76L157.93,248.17L158.69,248.11L160.64,248.46L160.52,249.74L160.79,250.84L159.81,250.85L160.71,251.66L162.47,252.56L162.9,254.71L162.8,257.21L162.87,259.57L161.75,259.9L161.46,259.36L160.74,259.34L160.83,260.8L160.62,261.38L159.57,261.46L157.53,260.77L157.12,260.45L156.77,261.34L157.19,262.54L156.03,262.49L155.69,263.45L155.48,265.72L155.88,267.5L156.87,267.59L157.1,268.79L156.12,269.33L155.19,270.23L153.73,270.47L152.85,270.85L150.71,272.47L150.48,273.64L149.03,273.96L149.04,275.8L148.77,276.83L147.7,277.66L147.42,279.48L146.1,280.65L143.9,281.74L142.4,281.83L142.47,283.42L141.57,284.42L139.96,284.62L140.09,286.07L139.79,287.02L138.86,287.87L137.55,287.82L137.04,288.95L135.94,290.14L136.07,290.52L137.37,291.2L137.15,292.3L135.46,292.49L134.79,293.36L134.97,293.89L136.29,294.55L136.17,295.9L136.89,297.57L136.81,298.79L136.25,299.28L134.64,299.94L131.22,300.64L131.47,299.85L130.43,299.74L130.72,298.88L129.77,299.18L128.61,298.65L128.68,297.59L128.26,296.95L126.9,296.34L126.32,296.92L124.79,296.76L124.34,295.63L124.61,293.92L123.61,293.08L123.39,292.2L122.41,291.69L121.1,290.26L120.18,289.69L120.05,288.85L120.14,285.76L120.73,284.34L120.97,281.14L120.57,279.55L121.11,278.49L120.96,275.32L120.65,274.15L120.65,272.65L119.84,271.37L119.05,270.71L119.69,269.16L119.98,269.17L120.54,267.3L119.82,264.34L118.29,263.91L119.5,263.35L119.93,262.73L120.81,262.96L120.72,262.13L120.1,261.36L120.84,260.06L120.66,259.19L121.28,258.32L121.08,257.83L122.36,257.43L122.7,256.37L121.59,256.29L121.32,255.9L121.79,255.03L121.47,254.67L121.75,253.63L122.69,253.33L123.75,254.13L124.1,253.52L123.86,252.66L123.14,252.56L123.51,251.88L123.39,251.07L124.79,250.26L125.47,250.33L125.51,249.66L124.52,248.87L123.35,248.97L122.72,247.64L121.71,246.94L120.56,247.56L118.54,247.83L117.85,248.11L117.56,247.3L115.65,246.5L115.56,247.29L114.34,247.28L113.81,246.35L112.89,245.55L112.92,245.1L111.81,245.02L110.07,243.62L109.07,243.84L108.53,242.75L108.74,242.2L107.41,241.55L106.86,242.2L106.61,243.64L107.63,243.66L107.13,244.96L105.8,245.56L105.83,246.29L106.37,246.56L105.72,247.46L105.79,248.13L104.27,248.11L103.67,248.46L102.85,249.59L102.88,251.31L102.21,252.52L100.84,253.11L99.12,255.02L98.45,254.35L97.11,254.95L97.18,255.66L95.98,255.66L95.49,255.13L94.42,255.21L93.52,254.65L90.15,255.61L85.74,255.21L83.67,254.8L81.72,253.59L81,253.46L80.73,252.46L80.28,252.58L79.72,253.99L78.6,253.68L78.97,253.34L78.62,252.59L78.24,252.93L77.02,252.36L76.93,253.1L76.29,252.85L75.94,253.31L75.51,252.85L73.86,252.77L72.99,253.66L73.02,252.97L72.14,252.13L71.63,251.81L71.68,250.39L72.45,250.63L73.62,249.13L74.28,247.59L73.89,246.97L73.34,247.42L73.48,246.23L72.72,245.49L73.83,244.05L75.13,243.65L75.52,242.8L75.46,241.87L76.48,241.54L76.95,240.31L78.79,238.84L78.71,237.85L79.46,237.88L79.71,236.62L80.56,234.57L81.01,232.36L80.55,231.42L80.59,230.15L81.53,229.61L83.07,227.59L82.48,226.58L82.86,224.92L83.65,224.22L83.71,223.32L84.15,223.71L85.26,222.92L86.16,223.31L87.39,221.8L87.52,221.21L86.98,220.79L87.66,220.12L87.21,219.29L87.83,218.99L87.91,218.3L87.34,217.33L87.49,216.45L88.31,215.32L88.53,214.18L87.87,214.35L87.66,213.73L88.54,213.53L87.87,212.46L88.72,212.03L90.43,211.9L89.74,211.17L90.75,211.29L91.57,210.29L92.09,210.63L93.66,210.53L93.99,209.42L95.22,209.51L96.37,209.02L97.81,209.45L98.56,208.92L99.34,209L102.54,207.98L103.79,209.34L104.57,209.75L107.53,210.17L108.84,208.71L109.59,207.44L110.27,207.5L110.46,206.61L111.21,206.34L110.27,205.14L110.61,204.72L109.7,204.32L110.31,203.91L108.72,203.98L108.5,204.35L107.31,204.12L106.99,203.19L108.19,201.85L108.23,201.12L107.19,200.75L106.8,198.81L107.58,198.83L108.05,197.71L109.34,198.55L109.2,198.92L110.72,200.06L110.34,198.91L111.82,198.35L111.45,197.74L111.98,197.14L111.32,196.82L112.32,196.05L111.02,195.85L111.26,195.21L110.87,194.52L111.86,194.61L111.45,193.77L111.86,192.53L111.59,192.17L112.46,191.21L112.49,190.23L112.85,190.71L115.16,189.73L113.99,189.22L115.24,189.11L115.92,190.14L115.82,190.57L117.65,190.54L118.25,191.11L118.35,192.43L117.67,193.65L117.75,194.37L118.8,194.63L119.25,195.33L120.27,195.95L121.18,197.76L122.7,199.45L123.05,199.07L123.66,196.84L124.83,195.22L126.39,194.81L127.68,193.27L128.25,192.89L129.2,191.15L130.63,190.34L131.19,188.99L132.53,187.65L132,187.61L133.81,186.04L135.65,184.9L137.64,182.25L138.41,180.93L138.08,180.03L138.42,179.41L138.83,179.99L139.38,179.87L140.17,178.88L141.02,175.71L141.36,174.95L142.85,174.77L142.81,173.99L143.63,174.33L144.77,173.46L144.33,171.72L144.66,171.3L145.88,172.25L146.26,172.2L146.99,170.94L146.98,168.78L146.4,168.51L147.38,167.92L147.98,167.01L149.45,165.57L149.6,163.93L150.09,163.58L151.4,163.49L151.47,163.91L152.63,164.2L153.83,164.79L156.55,163.89L159.57,163.69L161.93,164.28L163.92,164.15L166.37,164.85L167.77,164.99L168.78,164.32L171.35,163.42L172.82,163.34L177.11,164.29L178.13,164.28L179.78,163.31L181.57,163.89L185.44,164.42L186.32,164.26L187.31,163.61L188.72,163.07L190.03,162.2L191.86,162.07L193.41,162.9L194.72,162.86L196.57,163.92L197.89,163.56L199.02,162.92L201.17,159.37L202.26,157.05L203.14,155.83L204.67,154.29L205.28,152.05L205.54,149.86L206.81,147.76L207.44,147.86L208.52,148.98L209.06,152.96L208.84,153.98L205.9,155.37L206.68,157.18L206.94,159.43L207.28,160.1L208.92,160.17L209.81,160.86L209.85,162.43L210.96,162.96L211.79,163.75L211.67,164.35L210.93,164.76L210.38,165.92L208.72,166.88L208.9,167.62L208.24,168.1L207.23,170.38L207.29,171.23L205.7,171.66L205.37,172.39L206.09,173.08L207.04,173.13L207.28,174.11L206.93,175.19L207.96,176.11L206.71,176.37L206.96,177.36L206.06,178.78L204.18,178.98L203.95,179.58L202.82,179.92L201.95,182.09L201.08,181.98L200.04,180.6L199.45,180.41L198.28,181L197.26,180.63L196.64,179.74L195.56,181.55L194.05,182.65L193.34,182.55L192.87,181.7L192.91,180.31L193.33,179.68L193.49,177.87L192.49,177.01L191.88,178.37L192.1,179.31L190.73,180.27L189.89,181.36L189.44,183.29L188.87,183.42L189.45,184.08L189.85,185.86L189.62,187.27L189.13,188.27L187.66,189.5L187.03,190.55L186.8,192.54Z" stroke-miterlimit="10" stroke="#FFFFFF"/>
<path title="东营市" fill="#D3D3D3" id="path5" d="M260.33,134.92L262.53,135.47L266.81,136.78L269.05,137.17L270.57,137.27L271.39,136.94L272.38,137.18L273.63,138.49L274.47,138.59L275.85,136.85L276.74,136.62L278.4,136.95L280.02,137.85L280.68,138.75L280.97,140.32L281.97,141.78L282.3,142.72L283.66,143.47L284.65,143.04L287.09,141.22L287.57,139.07L287.86,136.39L289.23,135.5L296.88,133.96L300.78,133.69L303.34,133.63L306.55,133.88L308.36,134.41L310.68,135.39L312.45,136.54L314.51,138.22L315.69,139.76L316.55,142.85L317.4,147.5L318.01,149.59L321.11,151.97L326.07,156.42L326.82,158.76L327,161.7L327.99,165.41L329.94,166.26L333.83,164.37L335.93,160.6L337.71,160.26L339.86,161.41L340.77,163.73L341.15,167.59L340.43,172.38L338.97,178.43L337.62,181.51L335.62,182.31L329.32,181.99L326.66,182.7L322.63,183.29L319.5,183.29L316.8,185.3L315.56,187.84L314,191.53L313.08,194.3L313.33,197.14L314.49,201.21L315.62,206.05L315.95,208.18L316.34,208.56L317.93,208.05L318.64,208.75L318.41,209.26L316.57,209.74L316.25,210.31L316.67,212.25L317.76,214.23L318.45,214.76L320.7,215.6L306.8,216.61L304.13,217.09L300.8,217.92L297.03,220.53L295.6,221.63L293.4,222.78L292.77,224.12L292.5,225.72L291.86,226.72L291.01,226.61L290.73,227.65L289.83,228.32L289.87,229.06L290.74,229.42L291.01,228.98L291.34,230.37L292.87,230.88L292.36,233.77L292.47,235.91L292.22,236.84L291.49,236.75L291.38,237.3L289.71,237.92L289.69,238.27L288.1,238.62L286.62,238.1L285.78,238.59L284.33,238.59L284.05,239.72L284.23,240.68L283.12,240.96L283.15,242.38L285.1,242.52L286.39,242.96L286.02,243.82L286.53,244.49L285.08,244.23L284.7,244.71L285.79,245.1L284.55,245.18L283.77,244.6L283.65,246.56L284.22,246.8L284.04,247.91L284.29,249.7L283.83,250.48L282.54,250.63L281.73,250.36L281.54,249.83L279.91,249.92L279.96,249.23L277.9,248.7L277.2,249.81L275.04,250.12L272.32,250.03L272.21,249.4L271.05,249.33L271.13,247.35L270.91,247.06L268.45,247.04L267.84,248.36L266.35,247.97L266.17,247.05L265.42,247.39L264.07,247.51L263.84,245.01L263.62,244.62L263.71,243.72L265.1,242.73L265.25,241.93L266.44,241.25L266.34,240.22L267.33,239.49L267.4,237.74L266.98,236.82L267.43,235.68L267.39,234.8L268.23,234.93L267.38,232.9L267.98,232.82L267.57,232.08L268.09,231.31L268.75,231.35L269.16,230.48L269.53,230.64L270.37,229.94L270.59,227.94L271.13,227.68L270.81,226.47L270.3,225.86L270.25,224.98L269.35,224.6L268.02,222.4L268.31,221.39L269.06,221.32L269.67,219.98L270.23,219.99L269.95,218.53L269.23,218.53L269.65,217.97L268.9,217.87L268.67,217.26L267.68,217.26L267.68,216.49L266.42,216.32L266.46,215.4L265.98,215.45L265.63,214.61L265.65,211L263.51,211.01L263.86,210.43L263.45,210.02L262.47,210.29L261.59,209.88L261.33,208.46L260.36,208.7L260.32,209.55L258.61,209.54L258.24,209.19L258.16,207.88L257.03,208.15L253.92,210.04L253.55,209.88L253.45,208.63L252.45,208.71L251.98,207.91L252.63,207.15L253.95,207.42L253.85,206.5L254.26,205.68L254.14,204.86L253.08,202.8L252.03,202.48L250.41,202.66L250.69,201.09L251.2,200.81L250.25,200.39L250.83,198.74L251.44,198.45L251.4,197.68L251.94,197.2L251.88,196.19L252.27,196.18L252.07,195.28L252.51,195.08L253.15,193.97L253.61,193.99L253.83,193.14L254.85,192.4L255.06,191.42L254.84,190.8L252.43,191.5L251.88,191.29L252.26,190.06L251.66,190.06L251.38,189.41L251.93,188.27L252.98,187.88L252.83,187.31L253.45,186.78L253.65,185.36L253.45,184.62L254.11,184.37L254.26,183.03L254.79,183.08L255.14,181.78L256.53,181.39L256.93,180.84L257.44,181.4L258.83,181.2L259.87,181.94L260.41,181.71L261.51,182.07L263.31,181.36L263.95,180.58L264.03,179.77L264.87,179.33L264.82,178.6L265.71,176.35L265.95,176.47L265.81,174.99L267.33,174.88L267.66,173.23L268.56,172.9L268.51,172.13L267.57,171.57L267.56,170.57L268.15,169L269.18,168.87L268.45,166.73L268.76,166.1L267.89,165.73L267.98,164.99L267.08,165.01L267.53,164.44L266.61,161.82L265.48,162.18L264.6,161.35L263.44,162.63L262.18,162.99L261.31,163.85L261.3,162.82L260.5,161.2L260.58,162.51L259.85,161.49L259.66,159.97L260.16,158.9L259.57,157.97L259.36,156.31L258.82,156.23L258.93,154.66L258.76,153.61L258.06,153.72L257.91,153.14L258.66,152.72L258.46,150.52L259.12,150.15L258.66,148.75L272.67,146.32L273.59,146.39L273.54,143.72L272.83,143.71L258.97,145.19L259.21,143.37L258.9,141.17L259.56,140.84L260.34,138.88L260.01,138.02L258.98,137.34L259.63,136.71ZM272.83,143.71L272.67,146.32L258.66,148.75L258.97,145.19Z" stroke-miterlimit="10" stroke="#FFFFFF"/>
<path title="菏泽市" fill="#D3D3D3" id="path16" d="M80.29,351.62L80.23,354.62L80.38,355.97L80.87,357.14L81.98,357.42L83.02,356.81L84.09,357.46L83.8,357.99L85.57,358.66L87.46,359.58L91.05,362L91.76,362.62L92.87,364.1L95.11,365.48L95.79,366.1L96.54,367.33L97.54,368.45L98.97,369.65L99.4,372L99.93,373.02L98.52,374.9L98.55,376L99.22,377.19L99.22,377.75L98.4,378.73L98.47,379.75L99.09,382.17L99.25,384.46L98.93,386.16L99.5,386.93L99.56,388.27L101.12,388.8L101.94,388.61L101.64,390.92L102.48,390.42L103.29,390.59L103.23,389.12L104.03,388.08L104.03,388.96L104.66,389.38L105.43,389.16L105.07,389.85L105.25,391.92L106.09,391.93L106.13,393.43L105.87,394.44L106.12,395.9L106.73,397.92L106.52,399.14L106.07,399.88L105.05,400.39L104.42,401.1L104.88,404.14L106.1,405.41L106.7,408.28L107.74,408.16L109.92,407.25L110.21,407.41L111.42,409.94L111.32,411.58L110.16,414.73L108.58,414.31L107.53,413.14L107.54,413.91L107.07,414.43L105.91,414.21L106.58,415.6L106.71,416.39L106.02,418.03L105.29,418.96L103.53,422.08L101.44,421.94L100.43,424.06L101.41,424.27L100.37,426.9L100.46,427.37L98.79,427.53L98.42,428.78L98.51,430.11L100.33,432.9L102.69,434.83L102.75,435.76L102.03,436.41L101.51,437.37L102.04,437.71L104.34,438.12L105.03,439.92L105.96,440.54L106.96,440.66L109.95,441.98L111.5,443.46L112.44,443.81L114.47,444.07L115.17,444.71L115.19,445.24L117.36,445.35L118.12,444.96L120.85,446.11L120.59,449.15L120.35,455.05L117.95,455.62L117.5,456.3L117.71,457.92L117.36,458.85L118.37,458.58L119.49,459.3L119.55,459.9L119.01,460.74L118.98,461.49L118.44,461.72L118.46,463.21L117.41,464.71L118.15,465.8L117.99,466.4L116.38,467.54L115.1,467.56L114.41,469.39L113.34,469.36L112.59,468.78L111.45,468.68L110.89,469.3L110.6,470.91L109.93,470.99L109.41,472.48L108.93,472.66L108.54,473.94L107.45,473.63L106.2,471.79L104.84,471.57L104.16,472.22L101.62,473.76L100.87,473.81L99.94,473.21L99.2,472.05L98.67,470.44L97.41,468.96L96,468.73L93.9,469.92L92.57,470.14L91.53,469.31L90.49,468.03L89.83,467.73L89.06,468.08L88.56,468.83L88.5,470.48L87.43,471.1L85.63,471.19L78.95,472.26L78.3,472.67L77.41,472.47L77.47,473.13L76.6,473.34L74.7,472.03L74.21,471.48L71.64,470.63L68.31,470.32L67.79,469.62L66.85,469.6L66.72,472.35L65.74,473.59L64.6,473.47L62.64,472.47L62.32,472.12L60.99,471.82L60.11,472.07L58.85,471.97L57.56,472.2L56.37,472.06L55.89,472.35L54.4,471.96L52.91,471.1L51.09,468.84L50.13,467.1L48.79,466.05L48.55,464.31L47.53,462.61L47.7,460.38L47.54,459.3L46.7,457.94L46.96,457.08L47.87,456.16L46.9,453.16L46.76,451.9L46.16,450.51L45.18,450.29L45.36,449.78L44.77,448.61L43.67,448.07L42.55,448.35L40.86,447.56L40.02,446.73L38.78,446.25L37.83,445.53L36.71,445.56L35.74,446.23L34.6,445.94L33.19,446.82L32.23,446.37L31.92,444.1L32.03,443.25L32.67,442.26L32.89,441.14L31.92,440.65L29.3,440.43L29.14,439.38L29.82,437.73L30.61,437.53L30.38,436.13L29.56,436.34L29.05,437.02L27.03,435.96L25.66,436.37L25.68,435.54L24.87,434.32L23.7,434L23.84,432.51L23.47,432.08L21.8,432.41L19.43,432.44L17.66,433.78L16.59,434.19L15.92,435.09L14.95,434.58L14.35,433.55L11.48,433.36L9.69,433.53L8.78,434.27L7.94,435.38L7.19,434.53L6.74,433.47L5.35,433.04L4.64,432.16L4.95,430.45L3.85,430.21L3.04,432.23L0.59,431.54L2.11,430.31L2.74,429.12L2.41,428.59L1.12,428.57L0,427.68L0.95,425.6L3.19,424.78L4.33,424.02L4.84,423.31L4.89,422.3L4.05,420.78L3.14,419.72L1.7,418.44L1.66,417.69L2.36,416.45L3.22,415.54L4.36,414.93L6.85,414.42L8.29,414.39L8.6,414.03L8.39,409.42L10.28,408.75L10.52,408.22L11.87,408.18L11.89,407.37L10.97,407.04L12.79,404.4L14.09,402.99L14.84,402.92L15.08,400.82L15.66,400.29L16.4,398.24L17.02,397.43L18.12,397.29L19.46,397.6L20.47,395.94L20.18,394.35L20.69,393.79L21.78,394.92L22.46,394.9L22.7,393.57L22.69,395.27L23.35,394.47L23.34,393.61L24.13,393.28L26.47,392.85L28.13,392.94L28.77,393.36L29.68,393.13L31.76,393.13L33.29,391.97L34.45,390.78L34.31,389.99L35.52,389.27L37.07,387.82L39.5,386.83L40.77,386.88L40.93,385.35L40.35,383.21L40.6,382.17L41.13,381.92L40.02,381.57L39.96,380.95L40.93,380.85L41.03,379.85L41.81,380.38L41.91,379.33L42.85,379.52L42.89,378.71L43.35,378.74L43.71,377.84L45.03,376.29L45.36,374.38L47.12,372.56L48.11,370.94L48.8,369.06L50.66,366.32L52.6,364.73L53.56,364.8L54.25,364.07L55.74,364.43L56.47,363.65L58.03,364.41L58.48,363.66L60.81,363.6L62.59,363.17L64.27,362.49L66.43,362.21L66.79,360.87L66.64,358.95L67.26,358.94L67.41,357.38L68.25,357.65L68.46,356.31L69.04,356.44L69.57,354.82L70.96,354.82L70.94,354.31L71.76,354.31L72.49,352.83L75.79,353.76L76.14,352.97L77.66,353.22L77.62,352.55L79.08,352.48L79.5,351.47L80.04,351.08L79.95,352.44Z" stroke-miterlimit="10" stroke="#FFFFFF"/>
<path title="济南市" fill="#D3D3D3" id="path1" d="M131.22,300.64L134.64,299.94L136.25,299.28L136.81,298.79L136.89,297.57L136.17,295.9L136.29,294.55L134.97,293.89L134.79,293.36L135.46,292.49L137.15,292.3L137.37,291.2L136.07,290.52L135.94,290.14L137.04,288.95L137.55,287.82L138.86,287.87L139.79,287.02L140.09,286.07L139.96,284.62L141.57,284.42L142.47,283.42L142.4,281.83L143.9,281.74L146.1,280.65L147.42,279.48L147.7,277.66L148.77,276.83L149.04,275.8L149.03,273.96L150.48,273.64L150.71,272.47L152.85,270.85L153.73,270.47L155.19,270.23L156.12,269.33L157.1,268.79L156.87,267.59L155.88,267.5L155.48,265.72L155.69,263.45L156.03,262.49L157.19,262.54L156.77,261.34L157.12,260.45L157.53,260.77L159.57,261.46L160.62,261.38L160.83,260.8L160.74,259.34L161.46,259.36L161.75,259.9L162.87,259.57L162.8,257.21L162.9,254.71L162.47,252.56L160.71,251.66L159.81,250.85L160.79,250.84L160.52,249.74L160.64,248.46L158.69,248.11L157.93,248.17L158.04,246.76L157.05,246.18L157.02,245.44L156.2,244.69L157.46,244.36L158.69,242.81L161.38,241.68L161.8,241.14L161.46,240.59L160.28,239.76L160.02,237.97L159.6,236.88L159.54,235.76L160.49,235.06L164.37,233.81L166.04,233.08L167.54,233.23L169.11,232.95L169.3,231.79L170.24,231.55L169.85,231.13L169.55,229.3L170.39,228.91L170.53,227.22L170.06,226.32L169.15,225.84L168.54,226.03L168.57,224.87L167.39,224.13L168.43,223.27L168.48,222L168.94,221.86L168.83,221.02L168.16,220.49L168,219.44L168.66,219.22L167.54,218.04L165.87,217.36L165.2,213.92L164.69,212.65L164.72,211.94L166.2,210.75L166.43,210.32L165.64,208.67L166.32,207.19L167.2,205.95L166.62,204.59L167.1,203.03L168.03,202.35L168.62,203.07L172.48,203.11L173.47,202.08L173.68,201.17L173.21,199.79L174.04,198.9L175.19,198.44L176,199.26L178.15,198.91L179.08,198.22L180.85,198.12L182.5,195.63L183.18,194.13L183.8,193.74L185.52,194.01L186.47,193.77L186.64,194.38L187.31,194.76L187.47,195.93L189.04,196.15L189.84,196.95L189.45,198.13L187.42,198.87L187.28,199.61L188.84,200.14L189.08,200.54L188.15,201.32L189.19,201.92L192.55,201.59L193.79,203.02L193.68,204.59L193.07,205.92L193.71,206.81L196.17,208.47L197.26,209.89L196.68,210.89L197.15,211.31L196.78,213.95L197.43,216.35L198.38,217.44L198.55,218.69L198.89,218.66L199,220.05L199.43,220.79L198.45,220.38L197.95,221.43L198.31,221.77L196.76,221.78L196.27,223.2L196.47,223.93L197.45,225.57L198.83,227.07L199.34,228.35L199.44,229.68L199.94,229.96L199.94,230.94L200.32,233.42L200.63,234.15L199.29,235.71L196.79,236.11L195.42,236.67L193.45,238.03L191.26,237.58L191.49,239.25L191.28,240.16L190.48,241.18L189.66,241.71L189.81,242.63L190.66,243.55L192.56,244.3L193.46,245.1L194.44,248.71L195.46,249.19L196.4,248.9L196.56,249.38L197.23,248.69L197.38,249.13L199.47,248.61L200.56,248.65L201.99,248.32L201.91,247.63L203.27,247.25L204.44,247.54L205.2,248.7L206.49,246.67L207.42,246.54L207.89,247.4L207.44,247.94L208.66,248.43L208.6,249.84L207.77,250.26L207.59,250.91L206.69,250.19L206.29,251.12L208.95,252.63L210.05,254.68L210.15,255.38L209.76,256.21L209.57,257.66L209.81,258.75L211.94,261.55L214.94,263.11L217.2,265.21L217.94,267.05L218.58,267.98L220.72,267.8L222.48,268.5L221.67,270.32L221.92,271.12L220.29,272.66L220.25,273.31L220.07,273.94L218.98,274.51L218.52,276.24L218.74,277.56L219.57,277.7L219.82,278.58L219.53,279.25L220.05,279.97L220.02,281.58L219.38,281.48L219.27,282.03L218.17,282.12L218.72,282.63L220.04,282.53L219.4,283.19L220.05,284.61L219.4,284.33L218.59,284.94L218.45,285.52L220.47,286.36L220.69,287.56L221.88,288.26L222.11,289.6L222.74,289.71L223.89,290.81L223.87,291.14L222.81,291.09L221.61,291.56L222.16,292.18L223.12,292.39L223.24,293.5L222.58,294.05L223.87,294.89L223.22,295.9L223.71,296.49L223.12,297.2L224.95,297.59L225.46,298.25L226.22,297.74L226.43,298.44L227.8,298.07L228.21,297.42L229,297.42L228.52,298.92L228.73,299.8L230.67,300.26L230.99,302.48L231.61,302.77L232.54,304.25L232.72,305.57L233.35,304.69L233.72,305.33L233.59,307.2L234.28,306.01L235.25,305.93L236.66,307.03L236.63,307.68L235.57,308.58L235.48,309.25L235.97,309.67L235.8,310.87L236.45,312.45L236.12,313.03L236.57,313.57L237.4,313.36L239.63,313.9L239.81,314.47L239.18,315.79L238.89,317.99L239.23,318.96L238.59,319.93L237.42,319.59L236.25,320.66L235.73,319.99L235.2,320.26L235.29,321.04L234.31,322.97L235,323.01L235.44,323.79L234.59,324.79L235.16,325.93L235,326.67L235.9,328.11L235.69,328.81L236.48,330.29L237.12,330.28L237.63,329.71L238.19,330.67L238.12,331.46L237.6,331.49L237.27,332.4L237.79,333.27L236.8,333.39L236.58,334.24L237.64,335.15L237.87,337.43L237.38,337.52L237.94,339.48L236.94,339.47L236.75,338.73L236.07,338.67L235.82,337.69L235.19,337.26L233.71,337.23L232.34,337.61L231.53,338.45L230.62,338.5L229.66,338.02L228.67,338.39L228.4,337.89L226.57,337.93L226.09,337.72L225.14,338.46L225.04,339.57L223.62,340.03L223.19,339.91L223.18,338.94L222.71,338.02L223.22,337.32L222.05,335.76L220.85,336.36L220.44,335.55L218.98,334.89L218.12,334.23L215.59,334.47L213.61,333.52L211.43,332.04L209.46,332.14L208.37,331.69L207.71,330.88L207.31,329.17L206.34,328.67L204.14,329.91L203.01,330.07L202.54,329.68L201.7,330.71L200.04,330.93L199.67,330.49L200.36,329.7L200.26,328.7L200.92,328.16L199.65,327.79L200.62,325.06L201.35,324.6L201.91,325.03L202.78,324.18L201.84,322.87L200.74,323.14L199.66,321.57L199.16,321.17L200.08,320.04L199.72,320.01L199.69,318.61L198.21,318.3L197.06,319.31L196.06,318.93L195.58,318.17L195.55,316.81L197.4,316.23L197.15,313.94L195.68,314.07L195.92,312.45L195.15,312.28L195.17,311.26L194.55,309.49L195.23,308.45L195.16,307.34L193.26,305.24L192.43,303.56L192.32,302.11L191.91,301.11L191.49,299.05L191.47,297.88L192.06,296.22L192.02,295.46L191.18,295.22L189.01,295.15L189.01,294.67L187.6,294.3L187.66,294.99L186.65,296.65L185.75,296.84L184.67,298.01L184.1,300.04L182.29,300.9L181.56,300.98L180.97,302.45L180.26,303.49L179.45,304.07L179.6,305.18L179.35,305.9L177.96,306.02L176.53,306.6L176.11,307.6L174.19,307.11L173.86,307.25L172.44,306.58L171.58,308.85L171.6,310.24L171.33,311.23L170.79,311.21L169.59,311.98L169.36,312.45L168,313.03L167.78,313.84L165.95,314.18L165.91,315.2L164.76,315.56L163.83,316.27L162.42,314.71L161.91,314.94L160.59,314.51L160.28,313.75L157.43,315.11L156.06,314.3L155.65,312.7L154.72,311.89L154.74,310.76L152.83,311.43L151.16,311.01L149.49,309.85L148.43,309.78L147.66,310.41L145.41,311.47L143.69,312.88L142.98,312.79L141.88,313.23L141.06,313.12L139.03,311.31L137.76,311.26L136.04,311.73L135.35,313.37L134.36,313.85L133.88,315.11L133.36,314.36L132.18,314.59L131.69,315.84L130.47,316.04L129.65,315.14L128.64,315.31L128.19,316.54L126.59,316.94L126.76,317.66L125.63,318.96L126.33,320.62L127.86,321.02L128.49,322.52L129.68,323.32L129.37,324.37L128.48,325.2L128.25,325.87L129.21,325.87L129.87,325.49L129.63,326.43L130.98,326.03L132.16,326.57L132.43,327.71L132.95,327.98L132.79,328.93L131.86,328.98L131.25,329.64L131,331.01L130.16,332.17L128.02,333.06L125.52,333.08L124.07,333.7L123.86,334.7L122.73,335.52L122.85,334.77L122.36,334.22L122.64,333.52L122.22,332.81L120.83,332.76L120.19,332.19L119.96,331.2L119.11,330.61L117.09,331.18L116.52,332.49L115.46,333.5L114.4,334.06L113.3,334.24L112.87,334.8L112.61,336.22L112.11,336.2L110.35,335.03L110.08,334.17L110.03,332.17L110.49,330.34L110.36,328.82L109.58,327.61L108.46,325.1L106.89,322.81L107.57,322.13L109.1,319.99L111,318.27L111.47,316.65L113.06,314.74L113.33,313.7L114.23,312.36L114.89,311.8L118.17,310.55L120.62,309.12L122.43,309.22L123.26,308.87L123.84,307.41L126.54,307.43L127.99,304.32L129.23,302.98L129.88,302.69Z" stroke-miterlimit="10" stroke="#FFFFFF"/>
<path title="济宁市" fill="#D3D3D3" id="path8" d="M120.85,446.11L118.12,444.96L117.36,445.35L115.19,445.24L115.17,444.71L114.47,444.07L112.44,443.81L111.5,443.46L109.95,441.98L106.96,440.66L105.96,440.54L105.03,439.92L104.34,438.12L102.04,437.71L101.51,437.37L102.03,436.41L102.75,435.76L102.69,434.83L100.33,432.9L98.51,430.11L98.42,428.78L98.79,427.53L100.46,427.37L100.37,426.9L101.41,424.27L100.43,424.06L101.44,421.94L103.53,422.08L105.29,418.96L106.02,418.03L106.71,416.39L106.58,415.6L105.91,414.21L107.07,414.43L107.54,413.91L107.53,413.14L108.58,414.31L110.16,414.73L111.32,411.58L111.42,409.94L110.21,407.41L109.92,407.25L107.74,408.16L106.7,408.28L106.1,405.41L104.88,404.14L104.42,401.1L105.05,400.39L106.07,399.88L106.52,399.14L106.73,397.92L106.12,395.9L105.87,394.44L106.13,393.43L106.09,391.93L105.25,391.92L105.07,389.85L105.43,389.16L104.66,389.38L104.03,388.96L104.03,388.08L103.23,389.12L103.29,390.59L102.48,390.42L101.64,390.92L101.94,388.61L101.12,388.8L99.56,388.27L99.5,386.93L98.93,386.16L99.25,384.46L99.09,382.17L98.47,379.75L98.4,378.73L99.22,377.75L99.22,377.19L98.55,376L98.52,374.9L99.93,373.02L99.4,372L98.97,369.65L97.54,368.45L96.54,367.33L95.79,366.1L95.11,365.48L92.87,364.1L91.76,362.62L91.05,362L87.46,359.58L85.57,358.66L83.8,357.99L84.09,357.46L83.02,356.81L81.98,357.42L80.87,357.14L80.38,355.97L80.23,354.62L80.29,351.62L80.3,350.87L80.82,350.42L80.85,348.96L81.29,348.76L80.96,347.68L80.02,347.66L80.23,346.64L82.71,346.01L82.87,345.18L82.6,344.27L83.02,342.88L86.5,342.15L88.59,341.58L90.36,341.67L92.65,342.58L93.42,341.94L93.56,340.84L94.42,341.63L94.68,342.46L94.3,343.24L93.42,344.02L94.2,345.14L95.25,344.77L95.38,345.96L96.31,346.35L95.92,347.2L96.75,348.07L99.3,349.37L100.57,348.94L101.44,349.84L101.96,348.5L102.41,348.1L103.8,348.49L104.16,349.23L105.53,349.76L106.04,349.5L106.32,350.43L106.52,349.21L107.49,349.62L107.25,352.19L107.49,353.1L108.39,354.71L108.72,355.7L110.6,357.59L110.79,357.29L112.82,357.96L112.31,358.32L112.65,360.05L113.22,360.34L114.78,359.07L115.29,358.21L116.74,357.86L117.29,358.29L118.43,358.22L119.01,357.74L120.17,358.41L121.72,357.97L122.29,358.24L122.92,357.23L124.65,356.42L124.65,355.26L125.28,354.52L125.87,354.79L126.72,354.03L128.28,353.82L128.87,353.98L129.27,352.93L129.63,353.46L130.47,353.49L131.49,352.52L132.04,349.4L132.72,348.61L134.98,348.06L135.28,347.02L136.71,345.23L137.45,344.91L140.32,344.76L141.15,346.13L140.81,346.55L140.39,348.7L138.92,349.97L137.16,350.59L136.44,351.74L136.6,352.73L138.9,354.85L141.14,355.83L141.89,356.59L141.94,358.09L140.66,361.51L140.07,361.82L138.09,361.27L136.79,361.97L136.41,362.66L136.22,366.11L136.49,366.78L137.4,366.73L139.02,366.01L140.24,365.7L142.04,364.94L142.82,365.31L143.07,366.34L145.92,366.95L147.67,366.49L148.23,366.94L148.78,368.12L148.89,369.21L150.89,369.19L150.66,368.75L151.13,368.08L151.37,366.7L152.16,366.78L152.27,367.56L153.3,367.51L155.21,369.23L156.53,368.63L156.63,367.57L157.88,367.1L158.85,367.27L159.48,366.68L160.42,366.39L160.46,365.99L161.87,365.8L162.27,365.48L162.08,363.76L161.61,363.12L162.08,362.02L163.75,361.61L165.2,358.46L165.05,357.35L166.42,357.19L167.74,357.96L169.47,357.78L171.08,358.81L172.07,357.5L173.09,357.65L173.54,358.82L175.67,359.17L176.3,360.02L175.45,360.73L175.99,360.97L176.6,360.55L178.13,360.25L179,359.76L180.91,360.24L182.27,359.92L182.95,360.35L185.48,360.62L188.31,358.98L188.99,358.02L189.89,358.49L191.61,358.51L191.79,359.38L192.32,359.52L193.39,360.7L194.51,360.17L195.41,360.98L197.27,360.23L198.46,361.56L199.15,363.1L200.11,363.31L202.07,364.21L202.83,365.29L203.02,366.53L204.53,366.11L206.04,366.6L205.25,367.49L205.93,368.87L209.47,371.93L211.06,373.77L210.44,374.76L210.19,377.18L210.74,377.58L210.56,379.09L210.79,379.66L209.95,380.9L205.87,381.55L204.83,381.2L203.65,381.21L203.41,381.94L204.01,383L204.94,383.41L205.21,384.1L204.74,384.6L203.81,384.75L203.57,385.67L202.3,385.22L201.59,384.62L201.22,384.81L200.86,386.15L200.06,386.86L199.3,388.83L198.26,389.82L200.18,391.33L200.33,392.96L201.22,393.59L201.77,395.2L200.9,396.18L200.95,397.56L199.1,399.04L199.06,400.04L199.66,401.78L200.19,402.27L202.09,403.26L200.89,405.77L199.1,406.24L197.55,407.02L196.55,406.15L196.37,404.47L196.06,404.01L193.02,402.89L192.11,403.19L189.86,402.72L189.14,403.43L189.56,404.4L189.34,405.92L188.93,405.05L187.74,404.66L187.31,405.13L185.62,405.77L186.16,408.2L182.48,407.87L181.27,408.46L180.83,409.49L179.12,409.89L177.3,410.93L175.09,411.04L173.67,411.91L172.76,412.01L170.66,411.31L169.75,411.66L167.89,411.93L166.81,412.53L165.37,414.11L163.4,415.08L162.81,416.01L161.01,416.49L160.05,415.55L159.14,415.88L158.46,415.54L157.98,414.3L156.32,415.02L155.53,416.45L154.6,416.82L152.99,415.36L151.35,416.01L151.69,416.62L151.5,417.66L151.86,418.49L152.46,418.77L152.94,420.99L154.2,422.85L155.3,423.99L157.26,423.77L157.2,424.57L158.13,426.1L156.62,426.67L156.67,427.09L158.16,426.93L158.7,428.12L160.92,429.93L162.03,430.57L162.43,431.5L162.24,433.1L161.37,434.74L162.3,435.53L163.2,437.02L164.21,437.95L164.9,438.16L167.05,437.81L168.62,438.24L169,438.71L168.82,439.42L170.12,439.25L170.35,438.93L171.3,439.39L171.97,438.51L173.56,438.28L174.14,440.1L174.07,441.27L174.89,441.42L175.26,445.14L176.26,446.01L176.38,446.71L177.6,447.83L179.19,448.35L180.49,449.51L179.4,450.99L178.82,451.08L178.04,452.66L179.11,452.95L179.42,452.47L180.24,452.77L181.88,454.61L182.74,456.05L183.68,455.97L184.09,457.48L184.97,458.27L186.32,457.81L186.88,458.81L188.84,458.88L189.3,458.65L190.48,459.94L190.34,460.51L191.19,460.95L190.72,462.35L191.99,462.94L192.79,463.8L192.61,464.55L193.58,464.85L194.12,466.15L194.32,467.43L194.88,466.89L196.3,466.87L196.92,467.33L196.7,468.51L195.94,469.09L196.01,470.57L195.63,470.63L195.51,471.81L193.88,470.91L193.43,471.55L192.52,470.97L191.84,471.15L190.42,472.17L191,473.02L190.12,472.68L188.72,473.28L189.13,472.09L187.1,472.83L186.43,473.49L186.95,473.85L187.63,473.57L188.72,474.2L188.68,474.91L187.38,475.67L186.07,475.69L186.6,476.91L186.19,477.64L186.55,478.39L185.4,478.96L186.02,480.56L185.73,481.24L185.15,480.9L184.87,479.96L184.14,480.7L185.08,481.25L185.14,482.22L184.54,483.23L183.53,482.91L182.59,483.27L182.57,483.72L180.91,484.1L180.86,484.75L178.32,484.74L177.85,483.04L177.6,480.48L176.79,478.35L176.32,476.61L176.38,475.15L177.19,473.25L176.92,472.24L175.84,470.78L175.1,469.06L174.46,466.89L173.6,464.97L172.99,465.1L171.89,465.97L171.25,465.88L170.44,464.16L170.39,462.5L171.17,460.79L171.58,460.58L170.95,459.49L171.05,458.99L170.35,458.04L168.98,456.88L167.36,454.78L165.37,454.87L164.91,454.23L164.06,454.37L163.94,453.67L163.26,453.51L163.1,452.39L162.02,451.51L161.99,450.03L163.55,449.91L164.12,449.62L163.12,446.89L160.29,447.04L160.39,445.49L160.67,445.28L163.94,444.66L163.19,444.01L161.54,443.9L161.54,444.18L159.78,444.4L159.8,442.26L158.03,441.32L156.29,440.59L154.92,439.12L152.18,439.04L151.71,435.7L150.94,435.41L151.02,438.33L151.43,439.16L150.42,439.11L150.75,438.29L150.65,435.22L149.67,434.79L149.67,436.21L149.1,436.01L149.4,437.37L150.27,437.66L150.32,438.16L149.51,438L149.07,440.21L147.81,440.22L145.58,439.47L144.45,439.33L143.37,438.6L142.67,438.72L141.23,438.12L141.06,438.68L139.74,438.65L139.7,439.06L138.35,438.73L137.72,437.97L137.01,438.04L136.36,439.64L132.27,440.89L131.21,440.88L129.46,441.38L127.92,441.18L127.75,441.65L126.24,441.99L124.35,441.69L123.53,442.17L123.55,442.8L122.85,443.32Z" stroke-miterlimit="10" stroke="#FFFFFF"/>
<path title="聊城市" fill="#D3D3D3" id="path14" d="M131.22,300.64L129.88,302.69L129.23,302.98L127.99,304.32L126.54,307.43L123.84,307.41L123.26,308.87L122.43,309.22L120.62,309.12L118.17,310.55L114.89,311.8L114.23,312.36L113.33,313.7L113.06,314.74L111.47,316.65L111,318.27L109.1,319.99L107.57,322.13L106.89,322.81L105.9,323.18L102.59,323.04L102.21,323.27L102.2,325.41L99.13,326.32L98.38,327.67L97.26,328.61L94.08,329.29L91.9,332.35L90.96,333.38L88.94,334.88L86.98,335.24L84.84,336.19L83.58,337.3L81.81,336.69L79.8,337.7L79.05,338.8L78.03,338.68L77.37,338.11L75.83,337.95L74.33,338.49L72.99,339.73L73.51,339.97L72.58,340.85L72.6,341.54L71.81,341.87L69.43,342.26L68.28,341.83L66.82,342.33L65.93,343.35L65.71,344.37L65.05,344.93L63.26,345.82L62.55,346.65L59.88,346.11L58.09,346.5L55.39,348.72L52.74,349.44L52.1,348.62L52.54,347.78L52.14,347.18L51.02,347.75L51.37,348.91L50.82,350.33L48.69,351.56L46.7,354.25L46.62,354.73L45.49,355.56L44.7,357.1L41.92,358.95L41.35,359.79L39.19,358.21L39.24,356.56L39.88,354.28L40.3,352.19L39.43,351.84L39.84,351.14L40.7,351.41L41.41,349.09L41.65,346.63L41.4,345.77L40.65,345.01L40.82,343.41L41.32,341.78L43.09,341.54L43.82,339.93L45.62,338.7L47.4,338.31L47.74,338.04L47.84,334.69L47.29,333.91L48.66,333.19L48.31,332.45L48.67,331.59L49.17,331.66L49.36,330.48L49.75,329.92L50.53,327.32L50.6,326.01L50.26,323L49.9,320.99L50.14,319.44L49.9,318.56L49.94,315.96L49.09,315.59L49.36,314.18L48.89,313.17L47.63,313.39L46.89,313.14L46.29,312.22L45.42,311.6L45.87,310.67L45.6,309.89L45.87,308.82L45.27,308.41L43.72,308.79L41.59,310.07L41.07,309.15L41.88,307.83L41.75,306.9L40.3,304.97L40.22,302.93L39.57,301.66L38.42,301L37.56,300.86L36.33,300.21L37.45,298.31L37.81,298.41L37.83,296.38L36.55,295.26L35.88,295.76L35.68,294.87L36.05,294.3L35.37,294.26L35.28,293.32L34.71,293.27L34.47,292.28L35.75,292.24L36.27,291.2L35.97,290.68L36.16,289.84L35.64,289.34L36.15,288.89L36.57,289.58L37.09,289.44L38.91,287.29L39.13,284.24L39.4,283.62L40.37,283.52L40.45,283.05L39.6,283.03L39.68,282.25L40.38,281.95L39.95,281.41L40.72,279.98L41.55,280.5L42.49,279.47L43.21,278.18L43.09,277.25L44.62,276.59L45.05,275.34L45.69,274.36L47.67,273.62L48.03,272.9L47.97,271.82L48.67,271.46L48.76,270.09L49.86,268.92L50.08,267.53L51.07,267.27L52.22,266.43L53.52,267.05L53.91,266.1L54.52,266.22L54.67,265.13L55.48,265.25L55.72,265.91L56.38,265.92L56.32,265.16L57.21,265.96L58.16,265.42L62.17,263.86L63.16,262.91L64.35,262.44L64.76,262.74L65.72,262.39L66.33,260.84L66.05,259.8L66.98,257.86L66.92,257.27L67.78,255.8L68.91,254.74L69.6,254.41L70,253.52L71.31,253.84L71.87,253.26L72.14,252.13L73.02,252.97L72.99,253.66L73.86,252.77L75.51,252.85L75.94,253.31L76.29,252.85L76.93,253.1L77.02,252.36L78.24,252.93L78.62,252.59L78.97,253.34L78.6,253.68L79.72,253.99L80.28,252.58L80.73,252.46L81,253.46L81.72,253.59L83.67,254.8L85.74,255.21L90.15,255.61L93.52,254.65L94.42,255.21L95.49,255.13L95.98,255.66L97.18,255.66L97.11,254.95L98.45,254.35L99.12,255.02L100.84,253.11L102.21,252.52L102.88,251.31L102.85,249.59L103.67,248.46L104.27,248.11L105.79,248.13L105.72,247.46L106.37,246.56L105.83,246.29L105.8,245.56L107.13,244.96L107.63,243.66L106.61,243.64L106.86,242.2L107.41,241.55L108.74,242.2L108.53,242.75L109.07,243.84L110.07,243.62L111.81,245.02L112.92,245.1L112.89,245.55L113.81,246.35L114.34,247.28L115.56,247.29L115.65,246.5L117.56,247.3L117.85,248.11L118.54,247.83L120.56,247.56L121.71,246.94L122.72,247.64L123.35,248.97L124.52,248.87L125.51,249.66L125.47,250.33L124.79,250.26L123.39,251.07L123.51,251.88L123.14,252.56L123.86,252.66L124.1,253.52L123.75,254.13L122.69,253.33L121.75,253.63L121.47,254.67L121.79,255.03L121.32,255.9L121.59,256.29L122.7,256.37L122.36,257.43L121.08,257.83L121.28,258.32L120.66,259.19L120.84,260.06L120.1,261.36L120.72,262.13L120.81,262.96L119.93,262.73L119.5,263.35L118.29,263.91L119.82,264.34L120.54,267.3L119.98,269.17L119.69,269.16L119.05,270.71L119.84,271.37L120.65,272.65L120.65,274.15L120.96,275.32L121.11,278.49L120.57,279.55L120.97,281.14L120.73,284.34L120.14,285.76L120.05,288.85L120.18,289.69L121.1,290.26L122.41,291.69L123.39,292.2L123.61,293.08L124.61,293.92L124.34,295.63L124.79,296.76L126.32,296.92L126.9,296.34L128.26,296.95L128.68,297.59L128.61,298.65L129.77,299.18L130.72,298.88L130.43,299.74L131.47,299.85ZM51.37,348.91L52.1,348.62L52.74,349.44L51.99,349.59L50.82,350.33Z" stroke-miterlimit="10" stroke="#FFFFFF"/>
<path title="临沂市" fill="#D3D3D3" id="path12" d="M333.11,422.19L330.69,422.53L329.75,423.11L328.16,423.54L327.5,425.41L326.82,425.98L326.81,427.1L326.37,427.38L323.26,427.22L322.33,427.69L320.51,427.72L319.73,427.35L317.66,427.56L317.07,428.01L315.05,428.17L313.5,428.69L312.23,427.76L310.91,428.05L310.35,428.64L308.99,429.3L307.43,429.71L307.22,430.1L307.41,433.11L306.97,435.95L307.08,437.67L304.73,440.72L302.87,444.25L302.66,446.78L300.11,446.74L300.06,447.42L301.1,448.46L300.69,449.27L300.87,450.12L300.46,451.44L299.16,451.98L297.72,451.74L297.03,452.22L297.92,452.74L297.79,454.07L296.94,453.9L296.12,454.36L296.33,456.05L297.18,456.05L297.91,456.85L299.37,456.48L300.07,456.74L301.21,458.22L299.33,459.94L297.86,460.83L296.4,460.79L295.18,461.3L294.13,462.23L293.45,462.26L292.16,460.86L291.11,460.71L289.83,461.46L287.64,460.58L287.37,458.95L285.03,459.1L284.15,459.62L283.17,459.68L282.66,459.19L281.59,459.1L281.4,460.97L280.29,461.45L279.73,462.55L278.47,462.95L277.27,462.63L276.7,464.18L277.12,465.51L277.77,466.06L277.68,467.33L276.91,467.16L276.09,467.86L275.05,467.07L273.88,470.32L274.23,472.88L275.19,476.43L275.08,477.98L274.42,479.73L273.7,480.27L273.31,481.13L272.94,483.66L272.48,484.52L272.45,485.38L271.71,485.44L270.55,486.5L268.52,486.32L268.44,485.83L266.07,485.97L263.77,485.67L263.65,486.8L262.95,486.81L262.76,487.5L260.1,487.41L259.23,488.05L258.42,487.38L258.22,489.85L257.21,490.02L256.09,489.71L255.61,488.82L255.31,489.83L254.63,489.65L255.14,487.13L255.27,485.61L255.19,483.03L252.31,480.99L251.77,480.25L252.46,478.98L254.22,478.27L254.41,476.9L255.72,474.64L254.11,473.97L253.36,474.18L252.37,473.74L252.1,472.88L251.29,473.63L249.31,472.75L247.68,472.28L247.94,471.35L249.49,470.1L250.4,468.16L250.27,467.51L249.32,467.04L248.87,466.12L249.48,465.09L248.07,464.33L247.59,464.53L246.04,464.41L245.78,464.79L243.25,463.91L243.07,465.15L242.28,465.1L242.25,464.31L240.99,463.79L241.05,463.02L238.89,462.24L238.01,462.25L237.1,463.5L234.82,463.01L234.32,465.38L232.64,465.32L232.4,464.86L231.31,465.32L230.24,465.13L230.09,464.66L229.1,465.12L228.9,464.56L228.01,465.23L226.93,465.22L227.95,461.93L228.43,461.7L228.89,459.54L228.4,459.04L228.28,457.61L228.77,456.48L228.81,454.69L226.45,453.89L225.31,452.8L225.27,451.49L224.77,450.89L226.38,450.02L226.76,448.16L226.13,447.69L223.69,446.49L222.91,445.68L222.11,444.14L221.11,443.88L220.04,442.1L219.24,441.13L218.77,439.9L219.21,438.64L219.8,438.51L220,437.32L220.73,436.34L220.37,435.42L220.9,434.38L221.02,431.73L221.77,431.26L222.28,430.37L221.64,429.56L219.22,429.58L219.44,427.63L218.37,426.9L217.1,426.4L215.61,425.29L215.14,423.87L213.04,421.99L211.62,420.04L211.31,419.9L210.61,418.32L210.24,418.28L210.05,417.22L209.03,416.85L207.95,417.5L207.37,417.46L205.82,415.36L205.73,413.85L204.23,414L203.3,413.36L202.22,411.79L201.26,411.27L199.76,410.94L199.87,409.55L199.09,408.42L198.1,408.16L197.55,407.02L199.1,406.24L200.89,405.77L202.09,403.26L200.19,402.27L199.66,401.78L199.06,400.04L199.1,399.04L200.95,397.56L200.9,396.18L201.77,395.2L201.22,393.59L200.33,392.96L200.18,391.33L198.26,389.82L199.3,388.83L200.06,386.86L200.86,386.15L201.22,384.81L201.59,384.62L202.3,385.22L203.57,385.67L203.81,384.75L204.74,384.6L205.21,384.1L204.94,383.41L204.01,383L203.41,381.94L203.65,381.21L204.83,381.2L205.87,381.55L209.95,380.9L210.79,379.66L210.56,379.09L210.74,377.58L210.19,377.18L210.44,374.76L211.06,373.77L211.21,372.03L211.69,369.62L213.25,366.91L213.92,366.4L216.14,366.36L217.3,366.02L219.45,364.83L221.36,366.11L223,366.37L224.13,364.78L225.1,364.08L227.36,364.19L228.23,363.57L229.33,363.39L229.04,361.61L228.65,360.36L228.85,359.16L229.99,358.24L229.6,356.78L228.64,355.86L228.56,355.31L229.69,353.68L230.69,353.2L231.56,351.36L232.82,350.16L234.56,349.97L235.95,350.32L236.94,350.89L238.68,351.29L239.26,350.03L240.11,349.5L240.27,347.95L240.79,347.72L241.62,346.15L241.48,345.29L240.81,344.06L243.28,343.93L243.43,343L244.18,342.43L244.17,341.56L244.89,340.43L246.16,339.81L246.76,338.29L247.45,338.3L247.64,337.49L248.09,338.01L248.77,337.77L248.98,336.87L249.99,336.33L251.76,336.29L251.98,336.93L255.24,337.55L256.69,338.68L257.34,341.15L256.41,341.59L257.41,342.49L257.63,343.3L258.83,344.01L259.64,344.05L259.68,344.85L260.37,345.52L261.22,345.65L261.25,346.12L262.14,345.86L263.06,345.16L263.98,345.01L264.75,343.94L265.55,343.76L266.01,344.16L267.88,343.29L268.49,343.21L269.09,341.88L270.73,341.49L271.09,340.31L273.23,340.01L274.4,341.99L276.58,343.59L277.47,342.82L279.84,342.67L280.06,342.36L279.63,341.38L278.65,340.2L279.12,339.57L278.69,338.6L277.89,337.94L277.38,336.99L277.86,336.2L278.85,336.72L279.93,336.87L280.24,336.35L280.95,336.69L281.39,335.05L281.36,334.12L280.69,333.12L280.93,332.7L280.27,332.1L281.41,331.18L281.91,330.32L281.7,329.31L280.03,329.2L280.43,328.37L280.85,328.82L282.39,328.01L282.84,327.4L283.99,326.84L284.61,326.92L284.53,325.32L285.16,324.44L285.9,324.91L287.74,323.71L288.95,322.49L290.37,323.06L290.64,322.5L291.31,322.53L292.29,323.26L293.01,323.14L293.61,324.24L293.34,324.85L294.96,325.56L295.15,325L295.98,324.62L296.85,325.89L297.64,325.37L297.37,324.87L297.42,323.46L298.05,323.58L298.75,321.93L298.33,321.11L299.91,319.71L301.38,320.58L302.63,320.07L303.15,320.46L305.19,320.04L306.04,320.41L306.17,321.41L305.85,321.78L306.01,322.97L306.62,323.14L307.01,323.89L306.9,325.68L307.32,326.05L306.9,326.93L307.04,328.36L307.48,328.46L307.07,329.62L308.24,330.54L308.61,331.22L309.04,330.82L310.7,330.57L311.64,329.21L311.3,328.65L312.83,328.48L313.35,327.91L314.22,328.67L314.51,329.36L315.39,329.31L315.41,329.87L316.81,330.47L317.7,329.8L318.72,329.86L319.21,329.34L320.59,330.65L321.38,330.43L322.75,331.48L322.49,332.1L321.44,332.89L320.9,333.93L320.73,335.11L321.62,335.59L321.3,336.82L320.37,337.01L319.5,336.67L318.62,335.83L317.59,335.54L316.29,337.51L314.39,338.35L309.77,338.54L308.54,339.87L309.86,341.4L309.54,342.6L308.82,343.16L305.3,343.95L303.53,343.96L302.78,344.8L302.9,346.29L300.58,346.91L300.74,348.83L299.82,348.69L299.13,350.65L299,352.89L298.65,353.27L297.36,353.4L296.55,354.63L296.74,355.99L296.14,357.23L294.91,358.72L295.03,360.5L295.36,361.17L295.12,363.04L295.41,363.71L296.55,364.37L298.17,364.52L299.22,364.84L302.39,364.45L302.79,364.59L302.96,365.58L302.02,367.5L301.82,368.86L299.93,371.61L298.78,372.84L297.88,374.29L297.59,377.23L297.95,378.35L297.52,379.44L296.7,380.08L296.77,380.99L294.61,383.29L294.78,384.69L296.77,386.28L297.48,387.26L296.68,388.87L295.56,389.91L294.73,390.12L294.38,389.77L292.42,389.99L291.99,389.55L291.15,389.82L290.92,390.32L289.47,390.69L289.75,392.4L290.48,392.94L289.98,393.32L288.72,393.13L287.38,393.93L287.74,396.15L289.17,396.49L289.2,398.05L289.71,398.23L291.24,397.75L293.57,398.21L294.63,397.17L295.6,398.1L295.82,398.68L296.68,398.22L297.87,399.06L300.11,398.27L300.68,397.5L301.26,397.98L302.28,398.14L303.74,397.77L305.75,398.01L307,396.99L307.46,396.06L308.1,396.36L307.86,398.34L309.27,399.27L310.43,399.43L311.73,400.09L311.83,400.95L312.38,401.69L313.65,401.16L314.76,401.42L315.62,400.86L316.67,399.65L316.79,398.36L316.48,396.94L317.64,396.32L319.52,396.51L321.05,397.43L321.38,397.94L322.66,398.59L323.4,398.44L323.62,399.25L324.17,399.55L324.29,400.82L324.97,402.1L325.7,401.75L327.83,401.29L328.79,401.36L328.92,402.11L328.4,402.66L328.55,403.29L329.64,404.44L329.51,405.17L330.13,405.57L331.31,405.76L331.91,408.49L331.49,409.04L331.5,410.01L330.93,411.08L330.6,412.76L329.92,413.52L328.23,413.69L327.95,414.68L329,414.9L329.61,415.54L330.19,417.02L330.82,417.47L330.08,418.17L330.14,419.19L330.9,419.57L332.1,419.66L332.61,420.42Z" stroke-miterlimit="10" stroke="#FFFFFF"/>
<path title="青岛市" fill="#D3D3D3" id="path2" d="M458.24,281.42L459.45,282.05L460.88,282.44L461.42,283.62L461.53,284.55L462.99,285.57L463.84,285.22L464.79,285.86L466.75,286.1L467.3,286.41L468.36,287.7L468.41,288.18L466.8,290.22L466.16,291.32L466.48,292.16L466.21,293.05L467.17,294.12L466.86,295.41L466.01,295.89L465.62,296.83L464.94,296.94L464.65,296.32L463.56,296.27L462.63,297.14L463.35,298.14L463.46,299.09L463.97,299.6L464.7,299.5L464.14,300.53L463.43,299.71L462.28,300.9L461.4,302.46L461.72,303.74L459.91,304.6L460.09,304.01L458.61,303.19L458.32,300.91L458.95,300.31L458.91,299.16L457.35,297.99L457.65,297.55L457.7,296.03L456.6,295.19L451.35,295.57L451.15,296L451.52,297.4L451.4,298.22L450.71,298.53L449.64,298.38L448.89,299.32L448.81,300.17L447.7,300.66L446.41,302.41L446.86,304.2L447.57,304.49L448.09,305.21L448.87,305.27L449.08,306.22L449.85,307.28L450.21,308.26L449.74,308.68L447.44,308.19L446.23,308.51L444.03,307.92L443.49,308.83L444.28,310.04L444.23,311.15L443.49,311.99L443.4,312.82L443.77,313.29L445.11,312.67L445.79,312.89L445.76,314.66L446.05,315.49L445.39,316.67L446.01,317.5L446.59,319.96L446.31,321.22L446.62,323.3L447.39,323.63L447.37,324.17L446.71,324.21L447.16,324.82L447.25,326.01L448.07,325.79L448.34,326.51L447.76,327.25L446.5,327.52L444.76,326.94L443.11,328.07L441.69,328.5L440.85,327.94L440.16,328.1L439.83,329.07L439.23,329.58L437.66,329.38L437.78,328.67L437.21,328.41L436.74,329.19L435.22,328.85L435.61,329.95L435.24,330.49L433.63,330.37L431.47,331.04L430.1,330.53L429.17,330.95L427.81,332.29L427.22,333.2L426.86,332.99L425.73,333.98L425.2,333.75L424.37,334.3L423.11,334.29L423.22,333.57L421.78,334.13L421.84,334.93L421.39,335.26L420.85,334.55L419.91,335.06L419.32,334.95L419.7,334.29L419.29,333.98L418.31,334.35L418.33,333.55L417.65,333.54L417.05,334.43L416.14,334.22L416.26,334.88L415.39,334.71L415.69,333.46L416.54,332.45L417.29,330.91L417.4,329.73L417.77,328.99L418.43,328.65L419,326.49L420.01,324.5L420.77,323.53L420.86,322.71L421.72,322.43L420.91,320.31L419.24,319.02L417.96,317.3L416.24,317.94L415.93,318.53L416.31,319.98L417.44,320.69L417.22,321.72L415.79,321.66L414.98,322.29L414.66,321.68L413.63,322.01L413.47,320.49L412.25,320.4L411.5,321.35L410.7,321.16L410.16,319.26L409.39,319.24L407.44,319.97L406.13,321.4L404.31,322.85L404.48,325.65L403.38,326.95L401.9,327.17L402.46,328.43L402.53,329.48L405.2,330.19L405.95,331.38L406.86,331.89L407.45,332.9L408.46,333.11L411.26,333.15L411.98,333.47L411.95,334.65L411.17,334.93L411.49,336.27L410.64,337.04L410.63,337.61L408.76,339.55L409.85,339.3L412.26,337.23L413.17,336.82L413.82,337.83L413.13,338.64L412.55,339.89L412.46,340.78L413.02,340.95L413.83,339.05L414.26,339.72L414.83,339.49L414.51,338.71L415.77,337.49L417.16,337.82L417.7,338.94L416.83,341.79L415.27,342.38L413.53,342.39L412.76,342.96L412.37,344.08L411.36,344.63L410.52,346.19L409.55,346.88L409.18,347.56L409,349.28L407.72,349.71L406.52,349.6L406.73,348.12L407.64,347.06L408.42,345.34L409.66,344.93L409.44,344.09L407.27,345.09L406.41,346.8L405.56,347.67L404.87,347.8L404.43,346.71L404.49,347.65L403.97,348.02L403.18,347.9L403.07,348.97L402.64,349.61L401.41,350.23L400.03,350.37L399.63,349.87L398.42,351.22L396.41,355.59L396.17,357.34L396.79,357.98L397.4,359.57L396.92,360.08L396.49,361.37L396.5,362.22L396.03,362.38L395.18,365.19L394.49,366.03L393.76,365.38L392.22,365.83L392.59,364.49L392.01,363.57L391.21,363.42L391.36,362.68L390.61,361.74L388.87,361.33L387.94,361.82L387.62,363.75L388.36,364.56L389.8,364.47L390.1,364.87L390.07,366.04L389.45,366.75L387.86,367.59L386.87,369.67L386.98,370.95L388.17,371.9L387.96,373.13L386.24,373.54L385.64,373.93L384.35,375.59L383.65,375.8L382.38,374.56L381.85,374.41L380.84,374.91L380.7,372.53L380.3,372.29L379.85,373.01L378.5,374.15L378.62,374.73L377.89,375.18L378.68,375.76L378.49,376.74L377.89,377.19L378.52,378.31L377.4,378.86L376.94,378.03L376.15,378.75L375.6,378.64L374.87,377.68L374.75,374.95L373.13,374.85L372.22,375.16L369.5,377.55L367.97,377.62L367.16,377.67L365.89,376.74L364.39,376.03L363.96,377.37L363.3,377.53L362.67,376.56L361.55,377.9L359.95,377.32L358.56,377.62L358.46,376.06L357.03,375.18L357,374.21L357.51,373.6L357.8,369.67L357.11,368.62L356.78,367.46L357.06,367.21L357.26,365.69L357,365.05L357.59,364.4L357.73,365.1L359.08,364.77L360.26,365.23L360.71,365.91L361.5,366.11L362.4,365.8L363.35,366.38L364.33,365.71L365.13,366.07L365.37,365.2L363.67,362.83L362.64,362.29L362.97,360.36L364.13,360.1L364.62,358.88L363.93,357.97L364.2,356.72L364.97,356.4L365.48,354.73L367.04,353.67L368.14,354.06L369.03,353.92L369.86,352.11L371.16,351.91L372.25,352.93L372.77,352.59L372.54,351.8L373.66,352L373.74,351.05L372.96,348.29L372.47,347.9L372.08,345.97L370.96,346.31L370.99,344.36L370.1,342.55L369.7,340.78L370.03,339.13L369.41,338.01L371.35,336.49L372.17,334.99L371.17,333.95L370.52,334.16L369.01,333.12L368.32,333.23L365.81,332.79L365.7,330.54L367.59,329.67L367.63,328.94L366.58,327.19L367.15,326.88L367.05,326.25L367.88,324.66L368.65,322.42L369.43,322.18L370.22,322.57L372.64,322.64L373.34,322.92L373.42,323.77L374.51,324.23L376.35,323.38L377.14,323.6L377.87,323.01L379.44,323.38L379.46,322.67L380.07,323.04L380.15,322.41L380.86,322.16L380.21,320.44L380.64,319.33L379.93,319.22L379.06,317.25L380.04,316.15L380,314.93L380.68,314.79L381.02,312.91L382.16,311.61L382.58,310.7L383.22,310.69L383.42,310.08L385.44,309.15L385.82,307.71L385.74,306.36L386.41,304.32L386.38,303.22L386.8,302.96L388.35,302.88L388.81,303.31L389.5,302.93L389.2,301.95L388.06,301.17L387.97,299.66L388.63,299.59L388.78,298.89L389.83,297.09L390.15,297.31L391.25,296.76L393.2,296.73L393.39,297.11L394.55,296.36L394.62,295.08L394.17,294.98L393.96,294.17L394.46,293.51L393.97,293.03L394.43,291.16L393.46,291.62L391.73,290.55L391.52,289.91L389.95,290.17L388.81,290.95L388.84,292.38L387.8,292.47L387.59,289.95L387.38,289.59L380.48,288.16L378.3,287.16L377.27,286.87L375.1,285.84L374.46,285.25L372.95,286.1L373.14,284.37L370.94,282.33L369.47,281.93L368.6,281.04L367.15,280.34L365.16,278.9L364.55,277.6L364.28,276.47L363.8,276.2L363,274.07L362.3,273.48L361.72,272.01L360.78,271.87L360.29,271.13L359.23,270.69L358.31,269L357.98,266.92L358.14,265.51L358.63,264.79L358.63,263.63L359.5,262.8L360.5,263.36L360.8,263.08L363.08,258.19L363.23,256.2L363.25,252.17L362.01,249.33L363.11,245.63L363.6,245L363.99,243.3L364.7,242.92L364.75,243.39L365.48,243.08L368,243.84L369.46,244.77L372.14,243.94L372.55,245.25L373.22,245.72L374.12,245.34L374.69,245.49L376.16,244.95L376.31,243.96L378.83,243.31L379.99,244.66L380.7,244.43L382.36,244.43L386.05,244.85L386.22,245.12L387.82,245.2L389.06,244.23L389.83,244.03L390.73,243.32L391.79,243.57L392.14,242.9L393.16,243.46L393.82,243.34L395.48,244.63L396.32,244.77L397.4,242.71L400.67,242.92L401.36,243.26L403,243.06L404.14,242.51L404.46,243.17L405.8,243.35L406.36,242.91L406.29,242.17L406.79,241.35L407.38,241.52L408.05,241L408.34,241.36L409.25,240.97L410.09,239.22L409.91,237.94L410.4,236.33L411.11,236.1L411.22,234.5L411.62,232.63L412.31,233.3L413.71,233.7L414.98,232.14L416.7,232.23L416.45,233.24L417.61,233.86L418.01,234.48L418.85,233.96L419.24,234.69L419.2,235.86L419.92,236.26L420.13,237.28L420.83,236.59L421.17,235.06L421.73,234.66L423.14,234.7L423.89,235.44L424.72,235.56L425.02,234.8L424.58,233.88L425.19,234.09L427.04,233.49L427.1,232.94L428.82,233.66L430.01,232.79L431.11,232.55L431.17,231.81L432.07,230.95L432.16,230.45L432.95,230.43L433.7,230.97L433.77,231.6L434.87,232.37L435.26,233.86L434.4,236.82L434.67,238.88L434.17,239.49L434.81,240.42L435.42,240.69L436.12,240.11L437.02,240.21L438.06,239.09L438.21,240L439.71,240.13L440.29,242.35L439.37,243.41L439.72,244.51L438.77,245.45L437.89,244.45L437.41,244.71L437.26,245.8L436.84,246.21L436.69,247.89L436.22,248.36L436.44,249.21L437.04,249.5L437.34,251.56L438.7,252.97L440.56,253.07L440.97,253.43L440.97,255L438.7,255.83L437.46,256.04L437.71,258.03L438.36,258.02L438.93,258.62L438.29,259.48L438.46,259.94L439.98,260.5L440.17,260.85L439.35,263.15L438.51,263.48L436.46,263.34L436.48,264.07L435.85,265.64L434.74,266.67L435.02,267.22L435.16,268.88L436.23,269.08L436.39,269.65L438.03,269.77L438.12,270.41L438.97,272.34L438.18,273.22L438.46,273.63L440.49,274.08L440.7,274.86L441.63,275.63L441.15,275.83L441.31,276.91L442.43,276.32L443.2,276.58L442.96,277.29L443.84,278.03L443.6,280.06L442.63,280.07L442.54,281.31L441.97,282.79L442.11,285.02L444.1,284.14L444.21,283.77L445.29,283.6L447.06,282.74L446.77,281.95L447.47,281.36L447.46,280.55L448.79,280.26L450.75,281.15L451.21,282L451.81,281.91L452.69,282.53L452.89,283.38L453.39,283.56ZM438.05,330.11L438.28,329.8L438.86,330.66L437.68,330.54ZM468.87,300.22L468.22,299.83L466.87,300.2L465.85,300.09L465.72,299.49L466.89,299.16L467.34,298.5L467.97,298.78ZM469.95,293.14L468.76,293.43L468.86,292.76ZM460.31,349.13L461.18,348.79L460.16,349.62ZM373.53,377.02L373.81,376.65L374.17,377.43L374.03,378.13ZM405.71,361.19L406.72,359.24L407.36,358.97L407.68,361L408.3,361.92L407.93,362.71L406.79,363.39L405.7,363.07L405.46,362.42ZM452.54,316.76L452.72,318.24L452.01,317.45Z" stroke-miterlimit="10" stroke="#FFFFFF"/>
<path title="日照市" fill="#D3D3D3" id="path11" d="M367.97,377.62L368.25,379.4L367.04,382.44L366.23,385.08L365.43,385.88L364.7,389.74L364.24,390.64L363.27,391.23L362.69,392.17L361.71,394.68L361.64,396.63L362.42,397.51L362.26,398.65L361.67,399.23L358.98,400.14L358.68,401.83L359.66,401.81L359.61,402.32L358.59,402.7L358.58,404.91L357.82,404.26L357.21,404.25L356.87,402.92L355.84,402.58L353.87,403.83L351.94,405.96L349.92,408.76L348.92,410.96L347.88,416.98L349.32,416.93L349.35,417.79L347.76,417.83L347.57,419.15L347.88,419.7L349.5,420.57L350.21,421.23L350.52,422.14L350.08,422.43L349.04,422.2L348.3,422.57L347.79,423.97L347.03,424.23L346.08,425.18L346.56,425.96L344.82,425.72L344.3,424.7L340.9,425.36L340.59,423.83L339.45,421.79L337.97,421.61L337.08,421.1L335.96,421.07L334.43,422.53L333.11,422.19L332.61,420.42L332.1,419.66L330.9,419.57L330.14,419.19L330.08,418.17L330.82,417.47L330.19,417.02L329.61,415.54L329,414.9L327.95,414.68L328.23,413.69L329.92,413.52L330.6,412.76L330.93,411.08L331.5,410.01L331.49,409.04L331.91,408.49L331.31,405.76L330.13,405.57L329.51,405.17L329.64,404.44L328.55,403.29L328.4,402.66L328.92,402.11L328.79,401.36L327.83,401.29L325.7,401.75L324.97,402.1L324.29,400.82L324.17,399.55L323.62,399.25L323.4,398.44L322.66,398.59L321.38,397.94L321.05,397.43L319.52,396.51L317.64,396.32L316.48,396.94L316.79,398.36L316.67,399.65L315.62,400.86L314.76,401.42L313.65,401.16L312.38,401.69L311.83,400.95L311.73,400.09L310.43,399.43L309.27,399.27L307.86,398.34L308.1,396.36L307.46,396.06L307,396.99L305.75,398.01L303.74,397.77L302.28,398.14L301.26,397.98L300.68,397.5L300.11,398.27L297.87,399.06L296.68,398.22L295.82,398.68L295.6,398.1L294.63,397.17L293.57,398.21L291.24,397.75L289.71,398.23L289.2,398.05L289.17,396.49L287.74,396.15L287.38,393.93L288.72,393.13L289.98,393.32L290.48,392.94L289.75,392.4L289.47,390.69L290.92,390.32L291.15,389.82L291.99,389.55L292.42,389.99L294.38,389.77L294.73,390.12L295.56,389.91L296.68,388.87L297.48,387.26L296.77,386.28L294.78,384.69L294.61,383.29L296.77,380.99L296.7,380.08L297.52,379.44L297.95,378.35L297.59,377.23L297.88,374.29L298.78,372.84L299.93,371.61L301.82,368.86L302.02,367.5L302.96,365.58L302.79,364.59L302.39,364.45L299.22,364.84L298.17,364.52L296.55,364.37L295.41,363.71L295.12,363.04L295.36,361.17L295.03,360.5L294.91,358.72L296.14,357.23L296.74,355.99L296.55,354.63L297.36,353.4L298.65,353.27L299,352.89L299.13,350.65L299.82,348.69L300.74,348.83L300.58,346.91L302.9,346.29L302.78,344.8L303.53,343.96L305.3,343.95L308.82,343.16L309.54,342.6L309.86,341.4L308.54,339.87L309.77,338.54L314.39,338.35L316.29,337.51L317.59,335.54L318.62,335.83L319.5,336.67L319.01,336.89L318.74,337.89L319.47,338.09L319.56,338.81L318.85,339.53L319.26,341.27L321.62,341L322.26,341.19L322.73,342.53L323.65,342.97L324.42,342.6L326.92,342.65L327.87,342.09L329.31,341.85L329.45,342.36L331.23,341.86L331.54,342.69L331.29,346.08L331.6,346.77L330.56,346.92L329.19,348.02L328.66,348.11L327.97,349.19L329.69,350.17L329.96,349.05L330.51,349.02L332.15,350.46L334.16,350.45L335.93,350.01L339.09,347.58L340.04,347.47L340.32,349.19L341.67,349.7L343.92,349.11L345.07,350.03L345.89,352.24L344.88,353.68L345.96,355.09L346.08,356.39L345.69,360.64L346.22,360.65L347.33,359.9L347.88,359.14L350.16,357.71L351.42,357.53L352.29,357.06L352.97,357.1L354.32,357.93L355.14,358.86L355.4,359.85L354.63,360.56L354.75,362.16L355.97,362.37L357.59,364.4L357,365.05L357.26,365.69L357.06,367.21L356.78,367.46L357.11,368.62L357.8,369.67L357.51,373.6L357,374.21L357.03,375.18L358.46,376.06L358.56,377.62L359.95,377.32L361.55,377.9L362.67,376.56L363.3,377.53L363.96,377.37L364.39,376.03L365.89,376.74L367.16,377.67Z" stroke-miterlimit="10" stroke="#FFFFFF"/>
<path title="泰安市" fill="#D3D3D3" id="path9" d="M236.94,339.47L236.91,340.91L237.66,341.86L237.66,342.87L238.18,343.1L239.51,341.97L241.12,341.84L240.5,343.25L240.81,344.06L241.48,345.29L241.62,346.15L240.79,347.72L240.27,347.95L240.11,349.5L239.26,350.03L238.68,351.29L236.94,350.89L235.95,350.32L234.56,349.97L232.82,350.16L231.56,351.36L230.69,353.2L229.69,353.68L228.56,355.31L228.64,355.86L229.6,356.78L229.99,358.24L228.85,359.16L228.65,360.36L229.04,361.61L229.33,363.39L228.23,363.57L227.36,364.19L225.1,364.08L224.13,364.78L223,366.37L221.36,366.11L219.45,364.83L217.3,366.02L216.14,366.36L213.92,366.4L213.25,366.91L211.69,369.62L211.21,372.03L211.06,373.77L209.47,371.93L205.93,368.87L205.25,367.49L206.04,366.6L204.53,366.11L203.02,366.53L202.83,365.29L202.07,364.21L200.11,363.31L199.15,363.1L198.46,361.56L197.27,360.23L195.41,360.98L194.51,360.17L193.39,360.7L192.32,359.52L191.79,359.38L191.61,358.51L189.89,358.49L188.99,358.02L188.31,358.98L185.48,360.62L182.95,360.35L182.27,359.92L180.91,360.24L179,359.76L178.13,360.25L176.6,360.55L175.99,360.97L175.45,360.73L176.3,360.02L175.67,359.17L173.54,358.82L173.09,357.65L172.07,357.5L171.08,358.81L169.47,357.78L167.74,357.96L166.42,357.19L165.05,357.35L165.2,358.46L163.75,361.61L162.08,362.02L161.61,363.12L162.08,363.76L162.27,365.48L161.87,365.8L160.46,365.99L160.42,366.39L159.48,366.68L158.85,367.27L157.88,367.1L156.63,367.57L156.53,368.63L155.21,369.23L153.3,367.51L152.27,367.56L152.16,366.78L151.37,366.7L151.13,368.08L150.66,368.75L150.89,369.19L148.89,369.21L148.78,368.12L148.23,366.94L147.67,366.49L145.92,366.95L143.07,366.34L142.82,365.31L142.04,364.94L140.24,365.7L139.02,366.01L137.4,366.73L136.49,366.78L136.22,366.11L136.41,362.66L136.79,361.97L138.09,361.27L140.07,361.82L140.66,361.51L141.94,358.09L141.89,356.59L141.14,355.83L138.9,354.85L136.6,352.73L136.44,351.74L137.16,350.59L138.92,349.97L140.39,348.7L140.81,346.55L141.15,346.13L140.32,344.76L137.45,344.91L136.71,345.23L135.28,347.02L134.98,348.06L132.72,348.61L132.04,349.4L131.49,352.52L130.47,353.49L129.63,353.46L129.27,352.93L128.87,353.98L128.28,353.82L126.72,354.03L125.87,354.79L125.28,354.52L124.65,355.26L124.65,356.42L122.92,357.23L122.29,358.24L121.72,357.97L120.17,358.41L119.01,357.74L118.43,358.22L117.29,358.29L116.74,357.86L115.29,358.21L114.78,359.07L113.22,360.34L112.65,360.05L112.31,358.32L112.82,357.96L110.79,357.29L110.6,357.59L108.72,355.7L108.39,354.71L107.49,353.1L107.25,352.19L107.49,349.62L106.52,349.21L106.32,350.43L106.04,349.5L105.53,349.76L104.16,349.23L103.8,348.49L102.41,348.1L101.96,348.5L101.44,349.84L100.57,348.94L99.3,349.37L96.75,348.07L95.92,347.2L96.31,346.35L95.38,345.96L95.25,344.77L94.2,345.14L93.42,344.02L94.3,343.24L94.68,342.46L94.42,341.63L93.56,340.84L93.71,339.23L94.49,336.43L95.31,336.69L95.76,335.14L95.5,333.8L96.34,332.44L96.69,330.74L97.08,330.48L97.26,328.61L98.38,327.67L99.13,326.32L102.2,325.41L102.21,323.27L102.59,323.04L105.9,323.18L106.89,322.81L108.46,325.1L109.58,327.61L110.36,328.82L110.49,330.34L110.03,332.17L110.08,334.17L110.35,335.03L112.11,336.2L112.61,336.22L112.87,334.8L113.3,334.24L114.4,334.06L115.46,333.5L116.52,332.49L117.09,331.18L119.11,330.61L119.96,331.2L120.19,332.19L120.83,332.76L122.22,332.81L122.64,333.52L122.36,334.22L122.85,334.77L122.73,335.52L123.86,334.7L124.07,333.7L125.52,333.08L128.02,333.06L130.16,332.17L131,331.01L131.25,329.64L131.86,328.98L132.79,328.93L132.95,327.98L132.43,327.71L132.16,326.57L130.98,326.03L129.63,326.43L129.87,325.49L129.21,325.87L128.25,325.87L128.48,325.2L129.37,324.37L129.68,323.32L128.49,322.52L127.86,321.02L126.33,320.62L125.63,318.96L126.76,317.66L126.59,316.94L128.19,316.54L128.64,315.31L129.65,315.14L130.47,316.04L131.69,315.84L132.18,314.59L133.36,314.36L133.88,315.11L134.36,313.85L135.35,313.37L136.04,311.73L137.76,311.26L139.03,311.31L141.06,313.12L141.88,313.23L142.98,312.79L143.69,312.88L145.41,311.47L147.66,310.41L148.43,309.78L149.49,309.85L151.16,311.01L152.83,311.43L154.74,310.76L154.72,311.89L155.65,312.7L156.06,314.3L157.43,315.11L160.28,313.75L160.59,314.51L161.91,314.94L162.42,314.71L163.83,316.27L164.76,315.56L165.91,315.2L165.95,314.18L167.78,313.84L168,313.03L169.36,312.45L169.59,311.98L170.79,311.21L171.33,311.23L171.6,310.24L171.58,308.85L172.44,306.58L173.86,307.25L174.19,307.11L176.11,307.6L176.53,306.6L177.96,306.02L179.35,305.9L179.6,305.18L179.45,304.07L180.26,303.49L180.97,302.45L181.56,300.98L182.29,300.9L184.1,300.04L184.67,298.01L185.75,296.84L186.65,296.65L187.66,294.99L187.6,294.3L189.01,294.67L189.01,295.15L191.18,295.22L192.02,295.46L192.06,296.22L191.47,297.88L191.49,299.05L191.91,301.11L192.32,302.11L192.43,303.56L193.26,305.24L195.16,307.34L195.23,308.45L194.55,309.49L195.17,311.26L195.15,312.28L195.92,312.45L195.68,314.07L197.15,313.94L197.4,316.23L195.55,316.81L195.58,318.17L196.06,318.93L197.06,319.31L198.21,318.3L199.69,318.61L199.72,320.01L200.08,320.04L199.16,321.17L199.66,321.57L200.74,323.14L201.84,322.87L202.78,324.18L201.91,325.03L201.35,324.6L200.62,325.06L199.65,327.79L200.92,328.16L200.26,328.7L200.36,329.7L199.67,330.49L200.04,330.93L201.7,330.71L202.54,329.68L203.01,330.07L204.14,329.91L206.34,328.67L207.31,329.17L207.71,330.88L208.37,331.69L209.46,332.14L211.43,332.04L213.61,333.52L215.59,334.47L218.12,334.23L218.98,334.89L220.44,335.55L220.85,336.36L222.05,335.76L223.22,337.32L222.71,338.02L223.18,338.94L223.19,339.91L223.62,340.03L225.04,339.57L225.14,338.46L226.09,337.72L226.57,337.93L228.4,337.89L228.67,338.39L229.66,338.02L230.62,338.5L231.53,338.45L232.34,337.61L233.71,337.23L235.19,337.26L235.82,337.69L236.07,338.67L236.75,338.73Z" stroke-miterlimit="10" stroke="#FFFFFF"/>
<path title="威海市" fill="#D3D3D3" id="path10" d="M539.84,199.47L543.03,197.88L544.02,198.01L545.38,197.47L545.57,196.3L546.62,195.93L546.92,193.93L548.37,194.07L549.05,193.86L549.69,192.73L550.92,193.34L551.33,193.02L551.28,191.93L550.67,190.92L550.89,190.31L552.36,191.71L553.77,192.07L554.97,191.82L554.69,190.74L555.17,190.44L555.76,191.48L557.04,191.42L556.56,192.07L557.06,192.65L558.63,192.95L558.66,193.61L558,195.08L557.34,195.15L556.82,195.74L555.97,195.71L555.64,196.95L556.97,197.52L557.31,197.98L556.92,198.62L557.54,200.78L558.2,201.68L558.32,202.82L559.57,203.47L559.73,202.48L560.39,201.08L561.75,201.14L562.37,200.41L563.33,200.67L563.47,199.84L563.91,200.21L564.81,199.97L565.39,200.68L566.65,201.03L567.35,201.94L566.91,202.38L566.9,203.22L567.32,204.03L569.2,204.26L569.35,204.87L571.22,205.08L575.05,204.55L575.5,205.02L577.28,205.06L578.82,204.52L580.92,204.13L582.16,203.24L582.81,203.41L582.64,204.52L583.24,205.16L584.62,205.44L587.68,205.8L589.7,205.49L590.89,204.44L591.7,204.16L593.23,204.1L594.53,203.78L594.97,204.56L595.51,203.74L596.2,204.14L595.74,204.4L596.26,205.08L596.97,205.19L596.48,203.73L597.65,203.72L597.93,204.32L599.12,205.03L599.33,206.07L600,206.84L598.64,207.98L598.39,208.73L597.33,208.91L596.91,208.02L595.43,207.58L594.38,207.82L593.24,209.37L592.07,209.63L590.81,211.44L590.71,212.56L592.07,212.26L592,213.05L590.76,214.13L589.22,216.37L589.76,217.27L589.03,218.02L589.46,218.75L588.71,219.73L590.04,219.96L590.63,219.72L590.49,220.98L591.23,221.54L591.23,222.81L591.51,223.52L593.02,224.35L593.39,225.24L593.03,226.41L591.68,226.23L590.96,227.36L589.61,227.14L589.18,227.83L590.23,229.03L590.17,230L589.76,230.55L588.14,230.58L586.15,230.02L583.72,230.46L583.08,231.1L582.43,232.35L582.17,233.4L581.93,235.91L582.16,237.79L582.09,238.81L580.54,240.26L580.67,240.86L582.68,241.36L583.5,241.36L585.44,240.78L587.3,239.78L589.35,239.44L590.08,240.53L589.94,241.07L587.86,242.41L587.01,244.18L587.04,245.55L587.93,246.63L587.98,247.6L587.09,248.78L587.14,251.9L586.83,252.84L586.04,253.99L584.85,255.05L583.38,255.45L582.44,254.93L582.5,253.77L583.04,252.97L582.31,252.79L578.6,252.77L578.2,253.29L579.55,254.3L580.15,255.69L580.9,256.1L580.34,257.06L579.48,256.69L577.23,257.98L576.26,257.86L575.44,257.34L574.78,257.42L574.98,257.92L574.36,259.42L572.26,260.28L571.66,260.92L571.1,260.05L570.43,260.74L568.27,260.11L566.75,260.19L565.66,259.67L564.65,259.84L564.29,260.26L562.36,258.98L560.51,259.55L558.89,259.59L558.68,258.65L559.4,258.28L559.94,257.34L558.96,254.65L558.09,254.84L557.46,255.74L554.7,254.88L554.54,254.53L555.27,252.37L556.35,250.49L556,249.92L555.31,249.81L554.15,250.36L553.7,250.17L553.16,251L553.27,252.04L552.69,252.79L551.21,252.76L549.56,253.66L549.67,254.54L549.12,254.97L548.84,256.79L548.48,256.46L548.45,254.53L547.53,253.29L547.32,250.14L546.67,248.43L545.21,249.02L544.32,248.57L543.91,249.65L542.94,250.51L540.11,251.05L537.83,252.07L535.8,252.63L535.19,253.25L532.65,254.31L531.64,254.9L529.69,255.62L527.96,256.52L527.52,257.35L527.66,258.8L527.19,259.66L525.72,260.3L524.81,261.13L524.22,260.85L523.34,261.51L520.59,261.95L518.39,263.08L517.38,263.88L517.42,265.21L517.83,266.77L519.29,270.46L519.13,270.85L516.8,269.58L515.68,269.49L515.19,268.79L515.31,267.1L514.16,267.76L512.98,266.83L511.9,267.01L513.29,268.79L513.27,269.6L512.6,270.38L510.81,269.83L510.05,270.17L510.06,269.68L511.12,269.13L511.22,268.71L510.08,268.06L509.18,268.43L508.97,267.32L508.2,267.33L508.07,266.41L506.27,266.13L506.18,265.48L507.34,264.35L509.76,263.09L511.12,263L511.73,262L512.94,261.01L512.57,260.73L510.61,261.4L509.91,261.84L509.36,262.84L508.15,263.26L507.95,263.83L506.12,265.1L505.97,266.39L504.77,265.06L503.84,264.57L501.34,264.31L500.72,264.56L499.71,264.16L499.78,263.26L498.25,260.74L498,259.77L497.11,259.71L496.77,258.65L496.78,257.54L497.28,256.82L498.91,256.28L497.35,254.37L497.48,253.79L497.05,252.09L496.04,252.17L493.41,253.74L493.06,253.64L492.74,252.39L491.1,252.37L490.31,251.51L489.63,251.65L488.82,250.51L488.51,249.03L487.39,248.72L486.83,247.37L486.57,245.89L485.52,246.01L484.09,244.95L483.49,245.14L483.12,244.26L483.4,243.09L484.41,242.77L484.44,242.03L483.96,241.77L483.91,240.7L484.26,239.66L484.17,237.77L485.15,237.1L488.1,235.85L488.35,234.85L489.5,233.39L491.5,231.67L492.92,231.1L493.49,231.19L493.79,231.97L494.47,232.46L495.55,232.53L496.09,231.67L496.84,231.26L497.26,232.32L496.33,232.53L497.73,234.06L498.26,233.58L498.71,233.95L499.37,235.26L502.1,235.03L503.19,233.09L503.64,232.88L504.99,233.11L507.58,234.68L511.26,234.63L513.32,234.14L513.72,234.46L514.4,233.51L514.49,232.38L514.11,232.02L514.52,230.88L515.26,231.19L516.14,232.64L517.15,232.06L517.41,231.48L518.17,231.33L518.25,232.06L519.35,233.01L520.29,233.12L520.47,234.09L521.15,233.04L521.58,232.91L521.47,232.12L521.98,231.91L521.56,231.11L522.36,231.17L522.77,232.63L525.4,232.66L525.68,231.65L526.44,231.69L527.97,228.34L527.45,227.67L526.91,228.19L526.56,227.82L527.43,227.59L527.36,226.31L528.06,225.91L527.5,223.85L526.96,224.42L527.04,223.61L526.5,223.35L526.47,221.6L527.16,221.02L528.51,220.97L528.77,219.8L529.25,219.04L529.84,217.12L529.7,216.07L530.03,215.66L531.57,215.98L532.11,215.64L533,214.27L534.93,213.23L535.37,212.51L535.76,209.44L536.68,208.21L538.04,207.3L538.65,206.37L539.44,204.48L539.99,202.47L540.59,201.44ZM559.56,196.93L558.68,196.72L559.66,195.4L559.91,195.92L560.79,195.9L561.02,196.71L562.04,197.1ZM565.19,267.83L565.9,267.97L565.39,268.49ZM506.45,269.99L507.03,269.3L507.6,269.59ZM516.8,271.8L516.98,270.39L517.59,270.66ZM582.25,201.96L582.35,201.2L582.89,201.7Z" stroke-miterlimit="10" stroke="#FFFFFF"/>
<path title="潍坊市" fill="#D3D3D3" id="path7" d="M280.27,332.1L279.43,332.79L278.19,332.19L278.31,330.45L278.04,329.91L278.49,329.37L278.11,327.98L279.11,327.2L278.75,326.76L276.83,325.93L276.43,326.69L275.65,325.9L275.19,326.69L274.27,326.68L273.05,327.19L272.24,326.77L272.47,325.83L272.25,323.83L271.14,322.73L270.13,320.05L270.71,319.65L271.05,316.66L270.54,316.08L269.67,315.78L268.33,314.35L265.63,315.69L265,315.43L265.62,314.09L265.51,313.05L265.81,311.96L265.24,311.32L265.65,310.5L265.17,310.24L264.79,308.9L263.8,308.45L264.49,307.32L262.19,307.16L261.58,306.59L261.64,305.99L261.14,304.96L259.9,303.68L259.57,302.46L260.8,301.29L260.71,300.42L258.96,300.72L258.73,300.14L259.05,298.58L259.37,298.38L258.94,296.63L259.42,296.14L259.13,295.08L258.1,294.06L257.85,292.97L258.27,292.29L257.68,291.71L257.92,290.8L257.7,289.57L258.52,289.02L257.98,288.32L256.26,287.68L255.66,286.25L255.43,286.3L255.41,284.72L255.13,284.19L255.39,283.18L256.08,282.66L256.93,281.44L258,280.58L257.38,279.03L256.85,278.88L258.09,277.95L258.49,276.5L259.17,276.86L258.91,276.1L258.08,276.11L258.13,274.9L259.01,273.67L260.3,273.99L259.78,273.36L258.97,273.33L259.74,271.9L258.99,271.41L259.48,270.6L261,270.09L261.75,270.86L262.73,271.23L263.29,270.89L262.66,270.1L262.32,268.93L262.92,268.08L264.34,268L264.31,265.74L265.05,265.88L265.86,265.55L266.12,266.38L268.29,266.63L271.2,264.46L273.58,263.98L273.94,263.37L275.01,262.71L275.17,260.95L274.77,259.98L275.88,260.07L276.16,258.16L276.75,258.47L276.67,259.2L278.23,258.63L278.15,257.91L277.02,257.8L277.92,256.32L278.37,256.1L278.38,254.06L277.77,253.63L278.29,252.79L278.89,252.79L279.42,251.78L279.09,251.12L279.24,250.15L277.2,249.81L277.9,248.7L279.96,249.23L279.91,249.92L281.54,249.83L281.73,250.36L282.54,250.63L283.83,250.48L284.29,249.7L284.04,247.91L284.22,246.8L283.65,246.56L283.77,244.6L284.55,245.18L285.79,245.1L284.7,244.71L285.08,244.23L286.53,244.49L286.02,243.82L286.39,242.96L285.1,242.52L283.15,242.38L283.12,240.96L284.23,240.68L284.05,239.72L284.33,238.59L285.78,238.59L286.62,238.1L288.1,238.62L289.69,238.27L289.71,237.92L291.38,237.3L291.49,236.75L292.22,236.84L292.47,235.91L292.36,233.77L292.87,230.88L291.34,230.37L291.01,228.98L290.74,229.42L289.87,229.06L289.83,228.32L290.73,227.65L291.01,226.61L291.86,226.72L292.5,225.72L292.77,224.12L293.4,222.78L295.6,221.63L297.03,220.53L300.8,217.92L304.13,217.09L306.8,216.61L320.7,215.6L321.11,216.12L321.62,218.23L321.78,220.32L322.75,221.58L324.08,221.81L324.6,220.07L325.9,219.81L327.41,220.33L327.87,219.53L327.96,217.73L328.23,217.15L329.65,217.15L330.57,218.07L330.32,218.47L329.64,217.82L328.5,217.98L328.42,219.6L327.42,222.16L328.07,222.59L333.18,217.92L333.83,218.57L332.18,219.89L332.25,220.4L333.04,220.44L333.2,221.15L332.42,223.49L332.25,225.79L333.27,226.11L333.17,224.61L333.39,223.36L334.54,223.18L335.35,223.49L336.24,224.48L337.53,224.81L339.11,224.38L340.18,225.09L340.34,225.82L339.81,227.7L339.83,228.92L340.24,229.5L340.41,231.04L341.09,231.6L342.01,233.15L342.71,233.6L343.67,233.45L344.36,232.92L345.45,232.62L350,232.68L351.52,232.16L354.87,231.82L354.89,231.06L354.06,230.01L354.27,229.78L355.14,230.95L355.14,231.92L355.89,232.41L357.13,232.21L361.47,232.47L360.87,235.09L361.44,236.29L360.18,237.79L360.47,239.05L363.71,240.78L364.25,241.38L363.99,243.3L363.6,245L363.11,245.63L362.01,249.33L363.25,252.17L363.23,256.2L363.08,258.19L360.8,263.08L360.5,263.36L359.5,262.8L358.63,263.63L358.63,264.79L358.14,265.51L357.98,266.92L358.31,269L359.23,270.69L360.29,271.13L360.78,271.87L361.72,272.01L362.3,273.48L363,274.07L363.8,276.2L364.28,276.47L364.55,277.6L365.16,278.9L367.15,280.34L368.6,281.04L369.47,281.93L370.94,282.33L373.14,284.37L372.95,286.1L374.46,285.25L375.1,285.84L377.27,286.87L378.3,287.16L380.48,288.16L387.38,289.59L387.59,289.95L387.8,292.47L388.84,292.38L388.81,290.95L389.95,290.17L391.52,289.91L391.73,290.55L393.46,291.62L394.43,291.16L393.97,293.03L394.46,293.51L393.96,294.17L394.17,294.98L394.62,295.08L394.55,296.36L393.39,297.11L393.2,296.73L391.25,296.76L390.15,297.31L389.83,297.09L388.78,298.89L388.63,299.59L387.97,299.66L388.06,301.17L389.2,301.95L389.5,302.93L388.81,303.31L388.35,302.88L386.8,302.96L386.38,303.22L386.41,304.32L385.74,306.36L385.82,307.71L385.44,309.15L383.42,310.08L383.22,310.69L382.58,310.7L382.16,311.61L381.02,312.91L380.68,314.79L380,314.93L380.04,316.15L379.06,317.25L379.93,319.22L380.64,319.33L380.21,320.44L380.86,322.16L380.15,322.41L380.07,323.04L379.46,322.67L379.44,323.38L377.87,323.01L377.14,323.6L376.35,323.38L374.51,324.23L373.42,323.77L373.34,322.92L372.64,322.64L370.22,322.57L369.43,322.18L368.65,322.42L367.88,324.66L367.05,326.25L367.15,326.88L366.58,327.19L367.63,328.94L367.59,329.67L365.7,330.54L365.81,332.79L368.32,333.23L369.01,333.12L370.52,334.16L371.17,333.95L372.17,334.99L371.35,336.49L369.41,338.01L370.03,339.13L369.7,340.78L370.1,342.55L370.99,344.36L370.96,346.31L372.08,345.97L372.47,347.9L372.96,348.29L373.74,351.05L373.66,352L372.54,351.8L372.77,352.59L372.25,352.93L371.16,351.91L369.86,352.11L369.03,353.92L368.14,354.06L367.04,353.67L365.48,354.73L364.97,356.4L364.2,356.72L363.93,357.97L364.62,358.88L364.13,360.1L362.97,360.36L362.64,362.29L363.67,362.83L365.37,365.2L365.13,366.07L364.33,365.71L363.35,366.38L362.4,365.8L361.5,366.11L360.71,365.91L360.26,365.23L359.08,364.77L357.73,365.1L357.59,364.4L355.97,362.37L354.75,362.16L354.63,360.56L355.4,359.85L355.14,358.86L354.32,357.93L352.97,357.1L352.29,357.06L351.42,357.53L350.16,357.71L347.88,359.14L347.33,359.9L346.22,360.65L345.69,360.64L346.08,356.39L345.96,355.09L344.88,353.68L345.89,352.24L345.07,350.03L343.92,349.11L341.67,349.7L340.32,349.19L340.04,347.47L339.09,347.58L335.93,350.01L334.16,350.45L332.15,350.46L330.51,349.02L329.96,349.05L329.69,350.17L327.97,349.19L328.66,348.11L329.19,348.02L330.56,346.92L331.6,346.77L331.29,346.08L331.54,342.69L331.23,341.86L329.45,342.36L329.31,341.85L327.87,342.09L326.92,342.65L324.42,342.6L323.65,342.97L322.73,342.53L322.26,341.19L321.62,341L319.26,341.27L318.85,339.53L319.56,338.81L319.47,338.09L318.74,337.89L319.01,336.89L319.5,336.67L320.37,337.01L321.3,336.82L321.62,335.59L320.73,335.11L320.9,333.93L321.44,332.89L322.49,332.1L322.75,331.48L321.38,330.43L320.59,330.65L319.21,329.34L318.72,329.86L317.7,329.8L316.81,330.47L315.41,329.87L315.39,329.31L314.51,329.36L314.22,328.67L313.35,327.91L312.83,328.48L311.3,328.65L311.64,329.21L310.7,330.57L309.04,330.82L308.61,331.22L308.24,330.54L307.07,329.62L307.48,328.46L307.04,328.36L306.9,326.93L307.32,326.05L306.9,325.68L307.01,323.89L306.62,323.14L306.01,322.97L305.85,321.78L306.17,321.41L306.04,320.41L305.19,320.04L303.15,320.46L302.63,320.07L301.38,320.58L299.91,319.71L298.33,321.11L298.75,321.93L298.05,323.58L297.42,323.46L297.37,324.87L297.64,325.37L296.85,325.89L295.98,324.62L295.15,325L294.96,325.56L293.34,324.85L293.61,324.24L293.01,323.14L292.29,323.26L291.31,322.53L290.64,322.5L290.37,323.06L288.95,322.49L287.74,323.71L285.9,324.91L285.16,324.44L284.53,325.32L284.61,326.92L283.99,326.84L282.84,327.4L282.39,328.01L280.85,328.82L280.43,328.37L280.03,329.2L281.7,329.31L281.91,330.32L281.41,331.18Z" stroke-miterlimit="10" stroke="#FFFFFF"/>
<path title="烟台市" fill="#D3D3D3" id="path6" d="M361.47,232.47L365.49,231.09L369.22,229.57L369.81,229.75L369.87,230.91L372.74,230.95L373.91,231.88L374.96,230.58L376.25,229.34L376.97,227.93L377.73,227L379.05,225.91L380.13,223.65L380.74,223.11L383.39,222.33L384.31,221.71L384.98,220.58L382.93,220.44L383.08,219.6L385.45,219.47L385.73,218.36L384.7,217.84L385.18,216.63L385.19,215.8L384.79,214.98L384.13,214.77L383.72,214.01L382.48,213.52L382.1,212.46L381.35,211.91L381.7,210.16L381.47,209.23L381.79,208.69L388.11,207.74L388.89,207.1L389.84,204.55L392.61,204.01L394.61,202.36L398.58,201.77L400.2,200.22L401.91,199.72L404.62,198.63L408.43,195.65L408.8,194.53L410.54,193.75L411.58,192.28L412.4,191.47L409.46,188.4L410.18,186.95L409.61,185.7L409.99,185.28L412.54,185.02L413.83,184.54L414.34,183.78L414.43,182.43L414.11,181.7L412.24,181.77L411.34,181.35L410.39,180.4L410.07,179L410.91,178.33L419.6,178.36L421.63,177.9L423.01,176.97L426.91,173.73L427.68,172.46L429.51,172.18L430.3,172.43L433.04,172.85L433.78,172.22L437.71,171.87L438.88,171.22L440.88,168.98L441.84,168.45L443.57,168.77L449.37,164.88L450.12,164.92L450.96,164.5L451.59,165.22L452.8,165.11L454.23,165.44L455.34,165.98L456.94,166.02L459.38,164.93L461.3,164.93L462.07,165.83L463.17,165.79L463.68,166.19L464.75,165.95L465.55,166.81L465.66,168.24L465.16,168.74L465.33,169.49L466.05,170.33L467.77,171.72L469.3,172.04L470.85,173.7L471.12,174.73L472.5,175.93L473.82,176.2L474.54,176.07L474.82,175.29L475.36,176L476.95,175.53L480.25,175.5L480.91,175.83L481.75,177.05L481.79,177.81L480.73,179.74L480.47,181.43L481.53,181.8L481.92,182.86L481.03,184.53L480.99,185.4L482.53,187.25L483.49,187.86L486.03,188.93L488.72,189.12L492.8,188.94L496.59,187.68L497.1,187.23L496.85,185.73L495.79,184.65L496.17,183.93L497.13,184.03L498.11,184.55L498.97,184.64L500.87,186.4L502.82,187.23L503.03,187.67L502.08,188.19L500.86,188.15L499.24,187.59L498.95,188.14L499.71,188.28L500.1,191.36L500.97,192.33L502.79,192.94L504.57,194.73L504.33,196.64L504.62,197.48L506.04,199.29L508.76,200.55L510.06,200.49L510.45,201.56L512.58,202.6L513.06,202.5L513.4,200.69L514.2,200.02L515.15,199.77L516.66,198.62L517.76,197.55L519.31,197.56L519.8,198.12L520.22,199.44L526.46,200.01L528.37,200.1L533.37,199.63L537.07,199.76L539.84,199.47L540.59,201.44L539.99,202.47L539.44,204.48L538.65,206.37L538.04,207.3L536.68,208.21L535.76,209.44L535.37,212.51L534.93,213.23L533,214.27L532.11,215.64L531.57,215.98L530.03,215.66L529.7,216.07L529.84,217.12L529.25,219.04L528.77,219.8L528.51,220.97L527.16,221.02L526.47,221.6L526.5,223.35L527.04,223.61L526.96,224.42L527.5,223.85L528.06,225.91L527.36,226.31L527.43,227.59L526.56,227.82L526.91,228.19L527.45,227.67L527.97,228.34L526.44,231.69L525.68,231.65L525.4,232.66L522.77,232.63L522.36,231.17L521.56,231.11L521.98,231.91L521.47,232.12L521.58,232.91L521.15,233.04L520.47,234.09L520.29,233.12L519.35,233.01L518.25,232.06L518.17,231.33L517.41,231.48L517.15,232.06L516.14,232.64L515.26,231.19L514.52,230.88L514.11,232.02L514.49,232.38L514.4,233.51L513.72,234.46L513.32,234.14L511.26,234.63L507.58,234.68L504.99,233.11L503.64,232.88L503.19,233.09L502.1,235.03L499.37,235.26L498.71,233.95L498.26,233.58L497.73,234.06L496.33,232.53L497.26,232.32L496.84,231.26L496.09,231.67L495.55,232.53L494.47,232.46L493.79,231.97L493.49,231.19L492.92,231.1L491.5,231.67L489.5,233.39L488.35,234.85L488.1,235.85L485.15,237.1L484.17,237.77L484.26,239.66L483.91,240.7L483.96,241.77L484.44,242.03L484.41,242.77L483.4,243.09L483.12,244.26L483.49,245.14L484.09,244.95L485.52,246.01L486.57,245.89L486.83,247.37L487.39,248.72L488.51,249.03L488.82,250.51L489.63,251.65L490.31,251.51L491.1,252.37L492.74,252.39L493.06,253.64L493.41,253.74L496.04,252.17L497.05,252.09L497.48,253.79L497.35,254.37L498.91,256.28L497.28,256.82L496.78,257.54L496.77,258.65L497.11,259.71L498,259.77L498.25,260.74L499.78,263.26L499.71,264.16L500.72,264.56L501.34,264.31L503.84,264.57L504.77,265.06L505.97,266.39L504.63,267.19L504.15,268.14L500.98,268.55L499.57,269.51L499.29,270.38L500.35,270.6L500.81,271.71L500.44,272.69L499.59,273.2L498.1,273.13L497.4,272.02L496.81,271.87L493.81,272.91L492.33,272.89L491.32,273.12L490.51,273.8L488.77,275.82L487.81,276.11L486.42,275.83L484.44,277.53L483.07,277.39L481.89,277.72L480.73,278.76L478.29,280.5L475.55,281.86L473.85,283.27L473.07,284.51L471.83,285.11L470.85,284.97L466.26,284.84L464.21,283.54L463.89,282.87L464,281.27L462.47,280.36L461.65,280.48L460.66,280.01L458.01,280.82L458.24,281.42L453.39,283.56L452.89,283.38L452.69,282.53L451.81,281.91L451.21,282L450.75,281.15L448.79,280.26L447.46,280.55L447.47,281.36L446.77,281.95L447.06,282.74L445.29,283.6L444.21,283.77L444.1,284.14L442.11,285.02L441.97,282.79L442.54,281.31L442.63,280.07L443.6,280.06L443.84,278.03L442.96,277.29L443.2,276.58L442.43,276.32L441.31,276.91L441.15,275.83L441.63,275.63L440.7,274.86L440.49,274.08L438.46,273.63L438.18,273.22L438.97,272.34L438.12,270.41L438.03,269.77L436.39,269.65L436.23,269.08L435.16,268.88L435.02,267.22L434.74,266.67L435.85,265.64L436.48,264.07L436.46,263.34L438.51,263.48L439.35,263.15L440.17,260.85L439.98,260.5L438.46,259.94L438.29,259.48L438.93,258.62L438.36,258.02L437.71,258.03L437.46,256.04L438.7,255.83L440.97,255L440.97,253.43L440.56,253.07L438.7,252.97L437.34,251.56L437.04,249.5L436.44,249.21L436.22,248.36L436.69,247.89L436.84,246.21L437.26,245.8L437.41,244.71L437.89,244.45L438.77,245.45L439.72,244.51L439.37,243.41L440.29,242.35L439.71,240.13L438.21,240L438.06,239.09L437.02,240.21L436.12,240.11L435.42,240.69L434.81,240.42L434.17,239.49L434.67,238.88L434.4,236.82L435.26,233.86L434.87,232.37L433.77,231.6L433.7,230.97L432.95,230.43L432.16,230.45L432.07,230.95L431.17,231.81L431.11,232.55L430.01,232.79L428.82,233.66L427.1,232.94L427.04,233.49L425.19,234.09L424.58,233.88L425.02,234.8L424.72,235.56L423.89,235.44L423.14,234.7L421.73,234.66L421.17,235.06L420.83,236.59L420.13,237.28L419.92,236.26L419.2,235.86L419.24,234.69L418.85,233.96L418.01,234.48L417.61,233.86L416.45,233.24L416.7,232.23L414.98,232.14L413.71,233.7L412.31,233.3L411.62,232.63L411.22,234.5L411.11,236.1L410.4,236.33L409.91,237.94L410.09,239.22L409.25,240.97L408.34,241.36L408.05,241L407.38,241.52L406.79,241.35L406.29,242.17L406.36,242.91L405.8,243.35L404.46,243.17L404.14,242.51L403,243.06L401.36,243.26L400.67,242.92L397.4,242.71L396.32,244.77L395.48,244.63L393.82,243.34L393.16,243.46L392.14,242.9L391.79,243.57L390.73,243.32L389.83,244.03L389.06,244.23L387.82,245.2L386.22,245.12L386.05,244.85L382.36,244.43L380.7,244.43L379.99,244.66L378.83,243.31L376.31,243.96L376.16,244.95L374.69,245.49L374.12,245.34L373.22,245.72L372.55,245.25L372.14,243.94L369.46,244.77L368,243.84L365.48,243.08L364.75,243.39L364.7,242.92L363.99,243.3L364.25,241.38L363.71,240.78L360.47,239.05L360.18,237.79L361.44,236.29L360.87,235.09ZM508.28,191.86L508.16,191.44L509.16,190.65L509.64,190.9ZM449.1,153.96L449.7,153.17L450.36,153.52L451.24,155.64L451.8,156.27L451.32,157.35L451.77,158.85L451.44,159.39L450.87,158.97L449.95,157.64L448.94,157.57L448.48,156.83L449.25,156.46L448.74,156.18L449.06,155.47L448.47,155.47L448.51,154.1ZM446.26,150.4L445.74,149.68L446.62,149.32L448.05,150.07L448.71,150.06L449.17,151.34L449.62,151.63L449.31,152.56L447.33,152.04L446.55,151.35ZM443.26,150.77L443.69,151.21L443.34,152.32L442.59,152.24ZM428.03,171.1L427.38,170.89L426.74,169.39L428.08,169.22L428.85,169.44ZM445.53,155.75L444.82,155.67L445.27,154.9L445.2,154.18L446.29,153.96L445.91,155.47ZM450.69,134.34L449.74,133.23L449.73,131.98L450.07,129.63L450.45,129.27L450.91,129.99L451.42,131.79L452.74,132.19L453.47,133.53L452.26,133.73L451.43,133.46ZM463.46,115.49L462.53,115.04L461.67,113.73L462.03,112.89L463.17,112.75L463.09,113.6L463.63,113.76L463.11,114.56ZM457.57,116.41L457.69,114.44L458.75,115.68ZM462.28,111.94L461.92,111.48L463.23,109.98L464.46,111.02L464.46,111.89L463.71,111.6ZM441.25,154.07L439.61,153.02L439.11,151.68L439.39,150.92L440.31,150.34L441.7,150.88L441.59,153.47ZM454.6,121.4L454.21,120.99L455.08,118.7L455.69,118.11L457.11,117.91L458.22,118.86L457.71,119.8L456.25,120.06L455.61,120.95ZM465.36,146.92L464.52,146.25L464.41,145.44L465.67,145.72L465.91,146.5ZM380.08,215.15L379.88,214.44L380.42,214.57ZM499.16,314.08L499.37,313.56L499.77,314.29ZM442.72,136.1L442.11,135.41L442.35,134.55L442.83,134.41L443.32,135.18ZM460.37,146.24L460.26,147.09L459.96,146.19ZM442.69,143.54L442.37,142.94L442.64,142.12L443.19,142.18L443.25,143.15Z" stroke-miterlimit="10" stroke="#FFFFFF"/>
<path title="枣庄市" fill="#D3D3D3" id="path4" d="M195.51,471.81L195.63,470.63L196.01,470.57L195.94,469.09L196.7,468.51L196.92,467.33L196.3,466.87L194.88,466.89L194.32,467.43L194.12,466.15L193.58,464.85L192.61,464.55L192.79,463.8L191.99,462.94L190.72,462.35L191.19,460.95L190.34,460.51L190.48,459.94L189.3,458.65L188.84,458.88L186.88,458.81L186.32,457.81L184.97,458.27L184.09,457.48L183.68,455.97L182.74,456.05L181.88,454.61L180.24,452.77L179.42,452.47L179.11,452.95L178.04,452.66L178.82,451.08L179.4,450.99L180.49,449.51L179.19,448.35L177.6,447.83L176.38,446.71L176.26,446.01L175.26,445.14L174.89,441.42L174.07,441.27L174.14,440.1L173.56,438.28L171.97,438.51L171.3,439.39L170.35,438.93L170.12,439.25L168.82,439.42L169,438.71L168.62,438.24L167.05,437.81L164.9,438.16L164.21,437.95L163.2,437.02L162.3,435.53L161.37,434.74L162.24,433.1L162.43,431.5L162.03,430.57L160.92,429.93L158.7,428.12L158.16,426.93L156.67,427.09L156.62,426.67L158.13,426.1L157.2,424.57L157.26,423.77L155.3,423.99L154.2,422.85L152.94,420.99L152.46,418.77L151.86,418.49L151.5,417.66L151.69,416.62L151.35,416.01L152.99,415.36L154.6,416.82L155.53,416.45L156.32,415.02L157.98,414.3L158.46,415.54L159.14,415.88L160.05,415.55L161.01,416.49L162.81,416.01L163.4,415.08L165.37,414.11L166.81,412.53L167.89,411.93L169.75,411.66L170.66,411.31L172.76,412.01L173.67,411.91L175.09,411.04L177.3,410.93L179.12,409.89L180.83,409.49L181.27,408.46L182.48,407.87L186.16,408.2L185.62,405.77L187.31,405.13L187.74,404.66L188.93,405.05L189.34,405.92L189.56,404.4L189.14,403.43L189.86,402.72L192.11,403.19L193.02,402.89L196.06,404.01L196.37,404.47L196.55,406.15L197.55,407.02L198.1,408.16L199.09,408.42L199.87,409.55L199.76,410.94L201.26,411.27L202.22,411.79L203.3,413.36L204.23,414L205.73,413.85L205.82,415.36L207.37,417.46L207.95,417.5L209.03,416.85L210.05,417.22L210.24,418.28L210.61,418.32L211.31,419.9L211.62,420.04L213.04,421.99L215.14,423.87L215.61,425.29L217.1,426.4L218.37,426.9L219.44,427.63L219.22,429.58L221.64,429.56L222.28,430.37L221.77,431.26L221.02,431.73L220.9,434.38L220.37,435.42L220.73,436.34L220,437.32L219.8,438.51L219.21,438.64L218.77,439.9L219.24,441.13L220.04,442.1L221.11,443.88L222.11,444.14L222.91,445.68L223.69,446.49L226.13,447.69L226.76,448.16L226.38,450.02L224.77,450.89L225.27,451.49L225.31,452.8L226.45,453.89L228.81,454.69L228.77,456.48L228.28,457.61L228.4,459.04L228.89,459.54L228.43,461.7L227.95,461.93L226.93,465.22L226,464.71L226.18,466.01L226,467.13L226.37,467.48L225.83,470.87L226.07,473.21L225.99,474.25L226.42,475.48L226.61,476.99L225.76,476.97L224.51,476.04L222.58,475.64L218.94,474.55L217.71,474.35L217.52,475.99L216.86,477.26L215.78,478.62L214.86,479.37L214.48,479.01L213.51,479.78L212.02,479.6L211.53,480.85L210.7,482.17L208.99,482.12L208.35,481.3L207.32,481.01L206.6,481.74L204.68,481.25L203.18,481.24L202.73,481.82L202.67,480.37L202.33,480.01L201.07,480.14L200,478.14L199,477.2L199.09,476.87L198.13,476.39L197.95,475.31L196.38,474.39L196.28,472.31Z" stroke-miterlimit="10" stroke="#FFFFFF"/>
<path title="淄博市" fill="#D3D3D3" id="path3" d="M240.81,344.06L240.5,343.25L241.12,341.84L239.51,341.97L238.18,343.1L237.66,342.87L237.66,341.86L236.91,340.91L236.94,339.47L237.94,339.48L237.38,337.52L237.87,337.43L237.64,335.15L236.58,334.24L236.8,333.39L237.79,333.27L237.27,332.4L237.6,331.49L238.12,331.46L238.19,330.67L237.63,329.71L237.12,330.28L236.48,330.29L235.69,328.81L235.9,328.11L235,326.67L235.16,325.93L234.59,324.79L235.44,323.79L235,323.01L234.31,322.97L235.29,321.04L235.2,320.26L235.73,319.99L236.25,320.66L237.42,319.59L238.59,319.93L239.23,318.96L238.89,317.99L239.18,315.79L239.81,314.47L239.63,313.9L237.4,313.36L236.57,313.57L236.12,313.03L236.45,312.45L235.8,310.87L235.97,309.67L235.48,309.25L235.57,308.58L236.63,307.68L236.66,307.03L235.25,305.93L234.28,306.01L233.59,307.2L233.72,305.33L233.35,304.69L232.72,305.57L232.54,304.25L231.61,302.77L230.99,302.48L230.67,300.26L228.73,299.8L228.52,298.92L229,297.42L228.21,297.42L227.8,298.07L226.43,298.44L226.22,297.74L225.46,298.25L224.95,297.59L223.12,297.2L223.71,296.49L223.22,295.9L223.87,294.89L222.58,294.05L223.24,293.5L223.12,292.39L222.16,292.18L221.61,291.56L222.81,291.09L223.87,291.14L223.89,290.81L222.74,289.71L222.11,289.6L221.88,288.26L220.69,287.56L220.47,286.36L218.45,285.52L218.59,284.94L219.4,284.33L220.05,284.61L219.4,283.19L220.04,282.53L218.72,282.63L218.17,282.12L219.27,282.03L219.38,281.48L220.02,281.58L220.05,279.97L219.53,279.25L219.82,278.58L219.57,277.7L218.74,277.56L218.52,276.24L218.98,274.51L220.07,273.94L220.25,273.31L220.84,273.56L223,273.4L224.81,273.56L225.11,272.82L225.95,272.4L226.12,271.23L227.26,269.85L228.06,267.76L228.49,267.13L229.1,268.19L228.99,268.86L230.47,268.3L230.33,266.97L229.55,265.76L228.43,265.92L228.33,264.77L227.66,264.71L227.6,263.88L228.07,263.48L228.16,261.24L228.91,260.15L228.61,258.32L228.98,257.93L230.78,257.94L231.47,257.31L232.19,257.81L233.41,257.51L233.46,256.81L235.38,257L235.52,256.02L236.34,255.06L237.17,254.93L237.15,254.02L237.93,253.93L238.69,253.14L238.78,251.99L237.82,252.38L237.38,251.28L236.77,252.63L236.83,250.81L236.5,250.15L235.1,249.03L234.87,248.18L234.99,246.99L234.58,246.36L231.84,246.01L231.55,245.26L231.53,243.95L231.84,243.35L231.5,242.36L229.66,242.11L229.55,241.24L230.08,238.34L226.51,237.88L224.34,238.05L223.6,238.35L221.91,238.44L220.91,238.08L219.11,238.08L216.91,237.66L214.68,236.64L212.76,236.04L211.93,235.99L210.6,236.53L209.39,236.13L208.85,234.12L209.54,233.69L209.35,233.09L208.06,232.79L207.59,230.64L209.33,230.21L210.25,229.36L210.68,228.47L211.15,225.28L212.45,224.36L213.35,222.89L213.6,221.06L214.66,219.28L215.81,218.5L217.06,218.88L218.39,220.07L221.15,220.88L223.47,221.28L224.48,221.28L225.13,220.92L227.92,218.31L229.42,217.68L230.35,217.7L232.38,218.6L233.21,219.62L234.79,219.36L237.22,217.88L237.79,219.05L237.66,219.64L238.93,218.72L240.97,219.62L240.98,220.89L241.41,221.15L240.24,221.9L239.7,224L240.23,223.79L240.49,224.58L241.26,224.36L242.51,224.85L243.17,224.58L243.38,223.46L244.48,223.57L245.2,224.01L245.33,225.04L246.55,224.61L247.31,225.18L247.6,226.62L247.99,226.94L247.12,227.7L247.34,228.4L246.42,229.14L246.23,230.23L246.63,231.33L247.74,233.12L246.9,233.59L246.03,234.52L245.14,234.53L245.17,235.27L246,235.71L246.47,236.74L248.22,235.87L250.13,235.61L250.49,235.04L251.59,235.95L252.02,237.22L252.03,238.4L253.6,238.41L253.66,239.12L253.14,239.41L253.19,240.14L252.29,240.4L252.27,241.47L251.86,242.15L252.27,243.22L252.24,244.05L253.32,244.57L253.19,245.71L253.94,245.71L253.91,246.34L256.34,246.74L256.51,247.73L257.62,248.13L258.59,247.75L259.26,247.02L259.54,245.99L260.47,245.94L260.74,244.34L261.63,244.36L262.3,243.98L263.62,244.62L263.84,245.01L264.07,247.51L265.42,247.39L266.17,247.05L266.35,247.97L267.84,248.36L268.45,247.04L270.91,247.06L271.13,247.35L271.05,249.33L272.21,249.4L272.32,250.03L275.04,250.12L277.2,249.81L279.24,250.15L279.09,251.12L279.42,251.78L278.89,252.79L278.29,252.79L277.77,253.63L278.38,254.06L278.37,256.1L277.92,256.32L277.02,257.8L278.15,257.91L278.23,258.63L276.67,259.2L276.75,258.47L276.16,258.16L275.88,260.07L274.77,259.98L275.17,260.95L275.01,262.71L273.94,263.37L273.58,263.98L271.2,264.46L268.29,266.63L266.12,266.38L265.86,265.55L265.05,265.88L264.31,265.74L264.34,268L262.92,268.08L262.32,268.93L262.66,270.1L263.29,270.89L262.73,271.23L261.75,270.86L261,270.09L259.48,270.6L258.99,271.41L259.74,271.9L258.97,273.33L259.78,273.36L260.3,273.99L259.01,273.67L258.13,274.9L258.08,276.11L258.91,276.1L259.17,276.86L258.49,276.5L258.09,277.95L256.85,278.88L257.38,279.03L258,280.58L256.93,281.44L256.08,282.66L255.39,283.18L255.13,284.19L255.41,284.72L255.43,286.3L255.66,286.25L256.26,287.68L257.98,288.32L258.52,289.02L257.7,289.57L257.92,290.8L257.68,291.71L258.27,292.29L257.85,292.97L258.1,294.06L259.13,295.08L259.42,296.14L258.94,296.63L259.37,298.38L259.05,298.58L258.73,300.14L258.96,300.72L260.71,300.42L260.8,301.29L259.57,302.46L259.9,303.68L261.14,304.96L261.64,305.99L261.58,306.59L262.19,307.16L264.49,307.32L263.8,308.45L264.79,308.9L265.17,310.24L265.65,310.5L265.24,311.32L265.81,311.96L265.51,313.05L265.62,314.09L265,315.43L265.63,315.69L268.33,314.35L269.67,315.78L270.54,316.08L271.05,316.66L270.71,319.65L270.13,320.05L271.14,322.73L272.25,323.83L272.47,325.83L272.24,326.77L273.05,327.19L274.27,326.68L275.19,326.69L275.65,325.9L276.43,326.69L276.83,325.93L278.75,326.76L279.11,327.2L278.11,327.98L278.49,329.37L278.04,329.91L278.31,330.45L278.19,332.19L279.43,332.79L280.27,332.1L280.93,332.7L280.69,333.12L281.36,334.12L281.39,335.05L280.95,336.69L280.24,336.35L279.93,336.87L278.85,336.72L277.86,336.2L277.38,336.99L277.89,337.94L278.69,338.6L279.12,339.57L278.65,340.2L279.63,341.38L280.06,342.36L279.84,342.67L277.47,342.82L276.58,343.59L274.4,341.99L273.23,340.01L271.09,340.31L270.73,341.49L269.09,341.88L268.49,343.21L267.88,343.29L266.01,344.16L265.55,343.76L264.75,343.94L263.98,345.01L263.06,345.16L262.14,345.86L261.25,346.12L261.22,345.65L260.37,345.52L259.68,344.85L259.64,344.05L258.83,344.01L257.63,343.3L257.41,342.49L256.41,341.59L257.34,341.15L256.69,338.68L255.24,337.55L251.98,336.93L251.76,336.29L249.99,336.33L248.98,336.87L248.77,337.77L248.09,338.01L247.64,337.49L247.45,338.3L246.76,338.29L246.16,339.81L244.89,340.43L244.17,341.56L244.18,342.43L243.43,343L243.28,343.93Z" stroke-miterlimit="10" stroke="#FFFFFF"/>
</svg>
