<svg xmlns="http://www.w3.org/2000/svg" xmlns:xlink="http://www.w3.org/1999/xlink" width="800" height="1000">
<path title="安阳市" fill="#D3D3D3" id="path5" d="M387.16,118.64L387.28,117.52L386.22,116.89L384.86,114.58L385.55,112.57L386.95,111.65L387.84,110.43L390.63,108.86L392.59,107.97L393.55,107.06L393.22,105.72L394.65,105.76L394.89,104.67L394.4,103.89L395.12,102.8L399.02,103.58L399.58,102.16L400.44,102.31L402.21,101.92L403.62,100.48L405.91,99.6L406.2,98.32L408.73,97.46L410.21,97.89L411.37,97.56L411.8,95.56L412.8,94.01L414.49,93.38L414.71,92.82L416.53,92.4L417.36,91.14L418.86,87.73L419.05,85.92L418.86,84.71L415.85,82.94L414.84,81.88L413.53,81.89L411.59,82.51L410.02,81.4L407.9,81.1L405.74,79.45L405.53,77.79L404.19,77.44L403.23,75.68L401.6,76.17L401.22,75.25L399.93,77.08L395.78,76.08L392.8,76.3L392.1,77.17L390.24,77.02L389.71,78.14L389.01,78.35L386.14,77.96L385.03,78.42L381.97,78.17L380.6,78.51L378.5,80.15L375.29,81.06L374.3,82.37L372.98,85.02L371.53,84.24L371.57,83.41L372.3,83.41L371.11,81.16L370.38,81.21L370.25,79.63L369.79,79.32L369.05,75.57L369.54,73.82L370.37,72.96L370.49,71.94L371.12,71.36L373.38,70.72L373.97,69.54L373.01,68.65L373.62,65.75L374.86,65.23L375.38,65.73L376.08,65.03L375.19,64.12L376.68,62.42L375.5,61.81L373.89,63.05L373.89,60.05L371.16,60.16L368.51,59L367.98,57.12L366.74,58.18L366.03,58.01L365.47,59.04L364.52,58.87L363.86,58.17L363.39,56.75L364.18,55.29L363.86,53.15L364.28,52.2L363.9,50.7L362.34,51.27L360.13,53.12L358.79,53.66L357.8,54.83L357.05,57.41L357.49,58.99L356.2,59.08L355.19,59.86L354.15,59.85L353.43,61.08L351.44,60.12L350.09,60.17L349.93,62.68L350.88,63.41L351.04,64.43L352.21,64.97L354.97,66.85L354.32,68.11L354.35,70.88L353.89,71.79L352.59,72.13L350.87,73.4L349.08,73.5L348.51,74.22L348.61,75.11L349.62,76.94L350.61,77.51L350.59,78.23L349.33,79.9L349.58,80.74L350.72,80.01L352.09,80.69L353.78,79.78L354.64,80.04L353.99,82.79L353.53,83.29L353.6,85.21L352.46,86.37L351.28,86.5L350.32,87.8L348.86,89.11L347.42,89.24L347.02,89.83L346.8,91.59L345.77,92.07L344.28,93.38L343.01,93.16L342.32,92.05L340.66,91.69L340.26,93.8L339.84,94.29L337.8,94.81L336.34,93.99L334.63,94.42L333.75,94.23L332.27,94.76L329.2,94.87L328.7,95.33L326.72,95.15L325.96,93.96L327.55,92.7L328.1,90.56L328.26,88.22L328.87,87.16L328.12,87.36L325.87,85.17L326.06,84.73L324.26,84.23L324.08,82.42L323.51,81.78L323.93,81.14L322.65,78.15L321.6,78.19L321.12,77.67L319.69,78.27L319.13,77.27L319.43,76.44L318.62,76.01L314.85,76.02L314.58,74.06L313.23,73.94L312.59,72.17L313.67,67.63L314.22,66.6L314.18,64.93L313.59,60.72L312.54,59.69L312.63,58.21L313.69,57.54L316.54,58.52L317.27,58.45L318.17,56.86L316.73,55.1L318.11,54.7L318.1,53.69L315.72,53.37L314.79,52.76L314.88,51.79L315.57,51.06L317.21,50.24L316.88,48.96L317.04,47.61L316.61,45.76L315.63,44.58L316.07,43.68L314.32,42.08L315.56,41.54L316.04,42.05L317.91,42.19L319.88,41.15L319.1,41.02L318.81,39.95L319.22,39.45L318.14,38.77L316.79,39.06L316.59,37.97L314.75,37.47L313.95,36.52L315.18,35.9L315.92,36.12L318.36,35.38L317.26,33.77L317.75,33.01L319.08,33.16L318.42,31.55L316.85,31.31L315.91,31.82L316.4,30.57L318.11,29.83L318.93,28.76L318.62,27.05L319.43,25.96L320.11,25.83L319.43,21.44L320.79,20.83L322.04,18.48L321.3,16.5L321.56,13.9L321.72,14.65L322.69,14.59L322.59,13.78L323.83,13.6L324.61,14.77L326.06,14.33L325.95,15.51L327.8,15.78L328.22,16.87L329.84,17.72L331.36,17.34L333.25,17.89L332.81,15.86L333.22,15.47L335.88,15.03L337.75,17.03L338.71,19.66L340.66,19.1L340.93,17.13L342.99,17.19L343.4,16.11L342.3,15.95L342.1,14.92L342.72,14.52L343.77,15.18L344.18,16.7L345.07,17.94L345.48,19.31L346.59,19.68L346.38,18.23L347.37,17.7L346.64,17.02L346.65,16.17L345.26,16.18L345.08,14.47L345.83,14.59L347.99,16.37L348.63,15.13L349.53,14.91L350.12,15.4L350.29,16.68L349.66,17.79L349.95,18.26L351.49,18.34L352.49,17.86L353.05,19.28L351.76,20.18L351.25,21.72L352.74,23.14L352.96,24.19L355.33,24.94L356.02,24.03L356.48,24.34L358.76,24.64L359.72,23.58L362.71,25.53L362.91,25.01L364.03,25.77L363.29,28.1L364.46,28.11L364.84,27.51L366.55,27.83L367.27,24.63L368.52,24.85L369.65,27L370.17,27.16L371.64,25.67L373.31,26.76L375.7,27.8L376.75,27.71L377.02,27.13L378.5,27.54L378.59,26.62L380.11,26.64L380.26,27.86L380.93,28.19L381.15,29.65L382.24,30.22L384.61,30.74L386.14,30.33L387.01,32.54L388.31,32.93L390.33,32.96L391.65,33.51L393,35.86L393.34,35.14L393.88,35.78L395.41,35.89L395.35,36.5L398.01,36.6L397.9,37.73L399.04,37.75L400.41,39.05L401.37,38.87L402.08,39.94L403.16,40.22L402.75,42.53L404.86,42.52L405.45,41.7L406.27,42.27L407.32,42.19L407.96,40.84L409.68,40.3L413.11,40.51L413.23,39.59L415.07,39.68L415.93,40.32L417.24,38.46L418.87,39.54L418.87,40.48L419.95,40.93L420.08,42.03L421.39,41.74L421.45,41.13L422.63,41.5L423.76,41.4L425.9,42.25L426.51,41.46L427.47,41.3L428.98,41.77L429.09,39.81L430.03,39.54L432.28,39.88L432.41,40.32L434.22,40.27L433.71,42.69L434.3,44.15L435.14,44.68L435.56,46.29L434.44,50.71L435.02,51.15L437.08,52.35L439.61,52.96L441.04,53.8L440.99,54.56L440.11,55.41L440.12,56.96L440.7,56.45L441.25,57.81L440.98,58.86L441.46,61L440.69,62.76L439.93,65.89L440.46,68.07L439.79,69.78L439.71,70.82L438.67,73.02L438.09,73.62L436.43,74.07L436.18,75.1L436.28,77.1L437.37,77.43L437.68,78.09L437.19,80.43L435.07,82.74L433.84,84.43L432.44,84.62L431.87,85.87L432.04,87.57L433.78,89.5L434.51,91.36L434.04,92.04L434.79,93.57L434.87,96.29L434.09,96.77L433.6,98.07L432.08,98.4L430.7,100.5L430.59,101.09L431.42,102.01L431.58,103.91L433.85,105.54L438.08,106.11L438.95,107.24L439.56,111.22L439.66,113.51L439.17,115.06L438.12,115.4L436.91,116.62L436.79,117.82L437.55,118.18L439.78,117.87L439.49,120.69L438.94,121.93L439.12,122.57L440.81,123.33L441.22,125.65L439.48,127.42L437.92,129.57L432.85,128.41L431.06,128.8L428.93,128.76L424.41,132.68L424.34,133.53L421.96,133.99L419.83,133.73L419.16,134.19L417.51,133.8L415.73,133.92L413.71,134.64L414.12,135.63L413.8,138.23L412.88,139.59L412.04,140.06L410.44,140.01L408.51,139.36L407.02,139.22L405.13,139.88L404.11,140.65L400.81,141.82L399.59,143.48L398.83,145.7L397.46,146.54L395.27,147.4L394.38,148.35L393.72,149.93L391.57,148.75L390.1,149.02L389.4,150.01L388.37,149.68L388.33,148.13L386.8,147.41L385.31,147.77L384.8,148.39L384.59,147.56L386.05,146.43L384.98,145.82L384.5,143.92L384.91,143.17L386.05,142.56L384.93,139.83L386.12,139.9L386.91,138.7L386.56,137.44L385.69,137.06L385.74,135.95L387.57,136.12L388.11,134.01L386.39,132.23L386.62,130.82L387.6,129.65L386.79,125.78L386.07,125.22L385.82,124.25L386.49,123.13L388.12,121.53L388.06,119.26Z" stroke-miterlimit="10" stroke="#FFFFFF"></path>
<path title="鹤壁市" fill="#D3D3D3" id="path6" d="M346.8,91.59L347.02,89.83L347.42,89.24L348.86,89.11L350.32,87.8L351.28,86.5L352.46,86.37L353.6,85.21L353.53,83.29L353.99,82.79L354.64,80.04L353.78,79.78L352.09,80.69L350.72,80.01L349.58,80.74L349.33,79.9L350.59,78.23L350.61,77.51L349.62,76.94L348.61,75.11L348.51,74.22L349.08,73.5L350.87,73.4L352.59,72.13L353.89,71.79L354.35,70.88L354.32,68.11L354.97,66.85L352.21,64.97L351.04,64.43L350.88,63.41L349.93,62.68L350.09,60.17L351.44,60.12L353.43,61.08L354.15,59.85L355.19,59.86L356.2,59.08L357.49,58.99L357.05,57.41L357.8,54.83L358.79,53.66L360.13,53.12L362.34,51.27L363.9,50.7L364.28,52.2L363.86,53.15L364.18,55.29L363.39,56.75L363.86,58.17L364.52,58.87L365.47,59.04L366.03,58.01L366.74,58.18L367.98,57.12L368.51,59L371.16,60.16L373.89,60.05L373.89,63.05L375.5,61.81L376.68,62.42L375.19,64.12L376.08,65.03L375.38,65.73L374.86,65.23L373.62,65.75L373.01,68.65L373.97,69.54L373.38,70.72L371.12,71.36L370.49,71.94L370.37,72.96L369.54,73.82L369.05,75.57L369.79,79.32L370.25,79.63L370.38,81.21L371.11,81.16L372.3,83.41L371.57,83.41L371.53,84.24L372.98,85.02L374.3,82.37L375.29,81.06L378.5,80.15L380.6,78.51L381.97,78.17L385.03,78.42L386.14,77.96L389.01,78.35L389.71,78.14L390.24,77.02L392.1,77.17L392.8,76.3L395.78,76.08L399.93,77.08L401.22,75.25L401.6,76.17L403.23,75.68L404.19,77.44L405.53,77.79L405.74,79.45L407.9,81.1L410.02,81.4L411.59,82.51L413.53,81.89L414.84,81.88L415.85,82.94L418.86,84.71L419.05,85.92L418.86,87.73L417.36,91.14L416.53,92.4L414.71,92.82L414.49,93.38L412.8,94.01L411.8,95.56L411.37,97.56L410.21,97.89L408.73,97.46L406.2,98.32L405.91,99.6L403.62,100.48L402.21,101.92L400.44,102.31L399.58,102.16L399.02,103.58L395.12,102.8L394.4,103.89L394.89,104.67L394.65,105.76L393.22,105.72L393.55,107.06L392.59,107.97L390.63,108.86L387.84,110.43L386.95,111.65L385.55,112.57L384.86,114.58L386.22,116.89L387.28,117.52L387.16,118.64L386.26,119.23L384.86,118.17L383.87,118.5L383.62,119.54L382.48,120.1L381.56,119.27L379.97,120.05L379.56,121.4L378.09,122.11L376.98,121.83L375.61,120.45L373.46,119.67L373.18,118.41L373.49,116.77L374.24,116.53L374.84,115.4L373.54,115.47L371.97,115.04L368.63,113.68L367.75,113.56L366.47,112.71L365.49,113.06L363.54,112.81L360.46,111.12L358.64,109.62L357.19,109.26L354.82,107.73L354.13,106.28L352.54,104.53L352.93,102.56L352.76,100.76L353.32,99.46L352.81,97.16L351.97,95.01L350.98,94.32L349.74,94.06L349.07,92.67Z" stroke-miterlimit="10" stroke="#FFFFFF"></path>
<path title="济源市" fill="#D3D3D3" id="path18" d="M228.7,150.19L229.55,152.69L229.08,155.6L229.5,161.53L228.35,162.5L228.25,164.11L227.31,166.5L226.61,167.03L226.54,168.97L225.76,169.94L223.08,171.32L221.7,172.57L220.88,174.78L219.97,175.48L218.69,175.34L217.9,176.48L215.99,176.6L214.99,176.35L213.25,177.4L211.67,177.31L210.69,178.84L210.18,179.88L208.98,181.17L206.75,181.94L205.95,180.97L204.58,180.72L203.8,183.13L205.19,183.24L205.62,182.26L206.71,182.27L207.65,183.8L207.36,186.39L206.1,186.5L204.63,185.8L203.76,186.16L203.1,185.33L200.52,183.84L197.73,183.22L193.69,183.5L193.12,182.81L190.76,182L188.31,180.84L187.04,180.85L185.12,180.37L183.29,178.65L181.89,179.43L181.02,180.75L180.04,180.92L178.04,179.08L176.62,178.1L174.3,177.17L172.6,173.74L170.84,172.23L168.4,171.55L166.72,170.62L165.32,170.54L160.45,170.78L159.74,170.08L160.11,168.72L161.51,168.87L162.32,167.52L162.38,164.87L161.8,163.65L161.77,162.55L162.81,158.14L162.14,157.62L162.72,156.13L161.35,153.38L160.36,151.89L160.41,150.67L162.02,149.97L164.14,148.18L163.99,145.76L162.88,143.08L161.65,142.36L162.01,141.37L163.63,141.69L165.36,141.45L167.43,142.17L166.98,142.51L167.84,143.08L169.21,142.38L172.95,143.25L174.63,144.12L177.12,144.48L177.46,145.21L177.06,146.01L179.55,146.64L181.32,145.89L183.38,145.8L184.49,144.54L185.44,144.64L183.92,148.66L185.65,148.25L186.99,148.47L191.44,148.35L192.34,147.89L193.67,146.17L194.69,145.81L196.84,146.26L200.06,147.62L201.46,147.17L202.42,147.82L203.12,147.21L205.38,148.54L207.55,147.97L209.73,149.21L210.57,149.33L211.25,148.24L213.88,148.04L215.45,148.36L217.18,147.7L216.89,146.11L215.32,145.5L215.38,144.39L216.79,143.05L217.37,145.11L217.93,143.63L218.54,143.79L218.88,145.54L220.58,146.7L221.52,146.76L221.67,147.52L222.73,148.52L223.88,148.72L223.47,150.52L224.38,152.22L225.11,149.95L226.54,149.49L227.43,150.11Z" stroke-miterlimit="10" stroke="#FFFFFF"></path>
<path title="焦作市" fill="#D3D3D3" id="path8" d="M235.31,195.05L233.99,193.46L231.55,192.91L230.16,193.12L228.25,193.96L225.28,193.93L222.86,192.56L220.89,191.1L219.04,190.35L217.28,190.99L217.1,187.68L217.65,186.16L217.27,186.01L217.3,183.36L215.37,183.3L212.24,182.58L211.66,181.78L211.55,180.53L210.93,179.99L210.69,178.84L211.67,177.31L213.25,177.4L214.99,176.35L215.99,176.6L217.9,176.48L218.69,175.34L219.97,175.48L220.88,174.78L221.7,172.57L223.08,171.32L225.76,169.94L226.54,168.97L226.61,167.03L227.31,166.5L228.25,164.11L228.35,162.5L229.5,161.53L229.08,155.6L229.55,152.69L228.7,150.19L229.59,150.23L231.27,148.03L231.22,146.67L232.55,146.19L234.83,143.92L237.97,144.48L238.16,145.17L239.21,145.58L240.79,145.54L241.64,145.02L242.93,145.36L245.08,144.06L245.75,142.31L245.69,140.85L246.85,140.66L248.42,139.83L250.15,140.51L250.74,140.19L250.98,138.75L250.48,137.08L250.39,134.57L251.22,133.71L250.92,132.51L251.62,131.72L253.72,132.47L255.57,131.98L257.57,132.91L258.19,132.76L259.81,134.28L260.97,134.65L262.05,134.25L263.86,135.25L264.95,134.78L264.83,133.49L265.99,133.04L265.98,130.82L266.49,130.92L266.54,129.56L268.02,128.88L268.7,127.58L267.72,127.3L267.45,126.33L268.55,125.63L269.46,126.27L269.78,125.5L269.39,124.43L270.01,123.33L269.92,121.58L271.68,121.79L273.73,121.09L275.14,121.66L275.97,122.61L276.79,122.56L277.1,123.28L278.35,123.21L280.83,124.17L280.15,122.82L280.36,121.45L281.02,120.21L281.85,121.25L282.69,121.08L282.52,120.12L281.31,119.58L279.9,119.45L279.98,118.95L281.58,117.81L282.88,119.21L285,119.32L285.91,118.03L287.16,117.95L288.34,116.2L289.07,117.28L289.19,118.87L290.33,120.13L292.58,121.6L294.5,123.53L295.56,125.77L295.9,127.7L297.79,130.84L297.22,131.55L296.24,131.56L296.62,132.8L296.3,133.21L297.58,134.38L297.4,135.84L298.06,137.12L298.19,139.71L300.62,139.73L301.28,140.33L301.7,143.27L303.19,145.66L303.34,147.39L302.17,148.35L301.53,149.36L301.49,151.53L302.62,154.84L302.82,156.33L303.55,157.16L305.7,158L305.65,159.14L308.44,158.73L309.05,159.96L309.7,162.45L310.98,166.04L313.36,169.59L313.36,171.78L311.88,172.07L312.31,173.07L313.26,173.51L312.31,174.29L310.71,174.93L309.75,176.07L308.58,178.46L308.27,181.74L306.62,179.78L304.5,178.08L303.61,177.75L300.92,177.98L299.09,178.69L297.32,179L294.68,178.65L292.76,178.13L292.54,175.94L290.69,175.24L287.62,176.35L286.38,177.48L284.55,179.78L283.56,180.44L281.86,180.75L279.44,179.54L276.64,179.43L275.06,180.29L274.62,181.06L274.39,182.73L273.51,184.68L270.64,185.63L268.91,186.39L265.13,187.45L265.9,190.77L263.18,191.01L262.06,192.09L257.53,192.92L255.57,192.41L254.18,190.9L252.21,189.84L251.11,189.9L250.75,190.74L249.51,191.73L246.35,193.67L245.89,193.61L243.6,191.77L242.47,191.21L240.77,191.12L240.26,191.51L239.69,193.47L239.05,193.85L237.81,196.04L236.4,195.88Z" stroke-miterlimit="10" stroke="#FFFFFF"></path>
<path title="开封市" fill="#D3D3D3" id="path2" d="M336.25,251.99L336.51,249.61L335.73,248.72L336.23,247.05L335.59,244.27L335.56,242.31L336.84,239.32L337.98,237.37L338.8,237.59L339.13,238.45L340.5,238.61L341.28,237.31L342.31,237.55L342.28,239.59L344.18,239.09L346.26,239.51L347.81,239.1L349.08,238.39L349.25,236.82L348.95,235.87L347.97,235.53L348.09,234.37L349.34,233.4L350.53,231.61L353.14,233.17L353.89,234.22L355.13,234.28L356.18,232.97L356.14,231.86L356.75,228L357.41,225.37L358.48,223.95L359.56,223.35L359.38,222.24L359.91,221.53L360.24,219.83L359.15,219.58L359.37,218.5L361.06,218.8L361.03,219.99L361.93,219.82L361.64,218.37L362.21,217.48L361.53,213.92L362.49,212.88L362.21,210.46L362.26,208.39L360.65,206.68L360.39,204.86L362.29,202L363.62,200.97L362.61,199.46L359.98,197.03L358.87,195.15L359.94,194.31L362.68,193.93L364.86,194.31L366.24,193.48L367.32,190.21L368.22,184.87L368.23,183.44L368.8,184.13L370.46,185.06L374.31,184.7L379.63,184.83L380.62,184.72L382.21,183.45L383.72,181.37L385.4,181.06L387.04,182.08L389.41,183.98L396.15,186.21L398.76,185.75L400.33,185.02L403.14,184.21L407.66,185.05L410.17,185.81L412.01,184.61L413.53,186.31L414.83,186.58L416.28,187.38L417.19,187L419.79,186.65L421.09,185.5L421.49,183.71L420.46,182.42L417.94,179.99L417.91,178.6L419.35,176.86L420.24,176.62L423.53,173.24L425.01,172.39L425.85,172.59L426.08,172.84L429.15,173.71L430.17,171.17L431.55,171.47L431.16,173.62L432.05,174.72L433.79,175.26L434.37,176.6L435.31,177.66L436.35,176.27L437.89,175.21L443.35,175.36L444.1,176.66L444.95,177.3L446.16,176.16L447.5,175.66L449.73,173.98L452.7,173.93L454.79,173.51L455.26,174.06L455.09,175.93L456.55,176.34L457.57,177.87L457.54,178.91L459.27,178.39L461.81,179.73L462.44,178.88L463.48,178.61L463.76,180.36L462.77,180.62L461.91,182.68L462.13,184L465.4,184.29L466.63,184.89L466.34,186.3L465.54,187.54L465.4,188.61L465.8,191.45L467,192.02L468.07,193.65L467.05,195.91L465.72,195.72L466.79,196.7L466.26,197.5L461.93,196.63L461.5,197.83L459.65,197.25L459.32,198.39L458.21,199.25L457.31,199.4L455.93,198.06L453.98,198.6L452.51,200.5L446.28,200.31L445.47,200.48L442.67,201.85L441.46,201.4L440.71,201.82L439.42,201.8L436.55,203.43L435.22,203.27L432.5,201.6L430.89,200.16L429.92,200.13L429.87,200.86L426.89,201.06L426.26,201.43L426.2,202.47L426.9,203.45L429.15,204.21L429.1,204.92L427.37,207.14L428.79,207.63L429.03,209.79L429.95,210.28L432.22,209.1L433.76,209.14L436.06,210.43L436.53,210.99L436.45,212.12L435.58,212.53L433.59,212.73L432.7,213.38L432.41,214.41L433.19,215.24L432.88,216.81L433.15,218.89L432.75,220.19L433.5,222.09L433.74,223.52L433.66,226.56L434.47,226.44L434.74,227.21L434.09,228.05L435.01,228.43L434.35,229.97L434.72,230.73L433.95,232.63L435.17,232.28L434.81,233.82L434.21,233.97L433.42,235.82L432.7,236.58L431.73,236.55L431.2,237.8L430.4,237.39L429.75,236.37L429.11,237.64L428.88,239.41L429.68,239.74L428.49,240.3L428.7,242.38L428.13,242.49L428.42,243.69L430.59,244.05L430.65,244.73L431.93,245.52L431.03,247.03L429.38,247.45L428.79,251.18L429.44,251.82L430.25,254.55L431.38,255.06L433.22,256.98L432.7,259.14L429.96,258.53L427.83,257.42L426.63,257.28L426.49,258.87L424.71,259.93L422.37,259.68L421.7,260.32L420.12,260.45L419.56,262.31L418.98,262.86L416.86,263.82L416.24,263.5L415.28,261.97L414.17,261.6L411.98,261.62L410.86,260.94L408.93,260.93L407.66,259.59L405.51,259.69L404.62,258.54L403.45,258.23L400.28,258.89L399.76,258.42L399.8,256.93L397.61,257.25L397.23,254.47L396.72,253.64L395.82,254.07L394.29,253.82L393.54,252.3L392.91,251.77L391.26,251.71L391.23,252.89L390.38,252.88L389.02,251.96L389.14,250.99L387.98,251.29L388.78,251.7L388.63,253.59L387.68,254.15L388.26,254.93L389.4,255.11L390.65,255.88L389.22,258.57L388.67,258.99L387.03,259.2L385.89,261.19L383.98,261.67L381.18,261.29L380.02,260.76L378.55,258.97L375.91,258.92L374.64,257.9L373.38,258.09L372.7,260.16L371.97,260.75L370.69,262.07L367.24,261.98L366.54,262.74L366.1,264.69L362.49,265.17L362,266.5L359.52,266.94L358.9,266.25L357.63,265.93L357.53,264.55L356.92,263.93L357.5,263.41L356.59,261.9L355,261.02L354.47,262.16L353.72,260.94L352.79,261.57L352.03,261.3L351.1,262.37L348.26,261.89L347.48,260.67L347.21,259.41L346.28,259.68L346.5,258.27L345.02,258.01L344.55,257.11L343.82,257.14L343.79,256.01L341.21,255.35L340.91,254.63L339.19,255L338.09,255.82L337.27,254.8L337.57,253.36L337.12,252.45Z" stroke-miterlimit="10" stroke="#FFFFFF"></path>
<path title="洛阳市" fill="#D3D3D3" id="path3" d="M85.88,313.13L85.96,310.13L83.93,307.88L83.14,306.24L81.65,305.28L81.94,304.4L80.44,303.18L80.66,302.24L81.31,303.1L83.38,301.87L83.4,301.07L82.63,299.77L82.95,298.43L83.9,297.46L85.75,297.84L87.41,297.19L88.68,298.21L89.94,298.03L90.19,296.52L91.99,294.03L93.83,292.84L94.96,291.56L94.74,290.2L94.88,288.03L93.66,285.41L93.64,283.32L94.8,280.05L96.03,279.13L95.23,277.25L93.89,277.22L92.94,276.46L90.9,276.36L90.23,275.36L90.13,273.63L89.33,273.06L87.9,273.82L87.42,272.69L86.56,272.9L85.16,272.14L84.73,271.01L83.38,269.21L81.49,268.9L80.79,267.03L77.78,265.63L76.17,264.07L76.89,263.39L78.26,263.25L78.92,260.94L78.41,260.23L78.36,257.65L79.28,254.98L78.7,253.23L77.14,251.17L76.9,250.02L76.25,249.33L74.48,249.07L74.21,248.64L74.48,246.75L75.12,244.97L75.96,244.26L77.36,244.22L79.03,243.72L79.25,241.57L79.87,241.47L81.37,240.19L81.35,239.31L82.01,236.94L82.71,236.73L84.35,237.42L86.95,238.14L86.89,235.47L88.6,233.74L89.62,233.35L90.26,235.06L91.98,235.35L93.86,235.2L95.22,234.35L96.36,235.16L97.74,235.18L98.67,234.15L100.91,233.13L104.09,231.39L104.65,230.62L107.24,229.12L107.69,228.15L108.98,226.85L111.09,226.48L112.39,227.05L112.97,226.87L114.62,225.27L115.79,224.61L116.76,225.58L117.71,224.51L119.01,224.86L120.06,225.62L124.92,227.37L126.21,228.22L127.08,227.94L126.01,226.56L125.11,223.71L126.54,223.75L127.43,223.3L128.05,222.24L131.6,220.46L133.39,220.79L133.9,219.43L135.26,219.52L137.04,217.47L138.4,216.56L139.36,216.5L139.58,215.13L140.25,214.79L143.42,215.03L145.8,218.3L147.4,218.2L149.61,220.46L150.83,218.12L150.98,217.06L151.98,215.91L153.29,215.5L153.67,214.61L154.5,214.23L153.81,212.68L154.97,210.52L154.77,209.47L155.75,209.61L156.17,206.91L157.82,206.08L157.74,205.29L155.99,204.62L156.45,203.67L156.19,203.01L157.45,203.02L158.24,201.63L158.06,200.78L159.37,199.87L159.45,199.26L159.27,198.15L157.95,197.62L157.62,196.85L158.37,195.97L157.77,195.2L155.06,192.89L154.76,191.92L155.51,191.04L154.62,190.59L152.39,191.34L151.53,191.21L151.61,189.92L148.99,187.53L146.74,187.3L145.26,186.33L145.33,184.27L145.91,183.29L147.45,182.22L148.93,181.7L150.1,180.11L151.71,180.1L154.67,178.61L154.8,177.46L152.69,176.85L152.36,175.63L153.27,175.2L154.59,175.18L154.31,174.35L155.63,173.44L153.26,172.37L150.69,170.46L150.63,169.76L152.45,168.36L152.46,166.69L153.86,165.84L156.97,166.41L158.42,166.1L158.67,166.93L159.76,167.77L160.11,168.72L159.74,170.08L160.45,170.78L165.32,170.54L166.72,170.62L168.4,171.55L170.84,172.23L172.6,173.74L174.3,177.17L176.62,178.1L178.04,179.08L180.04,180.92L181.02,180.75L181.89,179.43L183.29,178.65L185.12,180.37L187.04,180.85L188.31,180.84L190.76,182L193.12,182.81L193.69,183.5L197.73,183.22L200.52,183.84L203.1,185.33L203.76,186.16L204.63,185.8L206.1,186.5L207.36,186.39L207.65,183.8L206.71,182.27L205.62,182.26L205.19,183.24L203.8,183.13L204.58,180.72L205.95,180.97L206.75,181.94L208.98,181.17L210.18,179.88L210.69,178.84L210.93,179.99L211.55,180.53L211.66,181.78L212.24,182.58L215.37,183.3L217.3,183.36L217.27,186.01L217.65,186.16L217.1,187.68L217.28,190.99L219.04,190.35L220.89,191.1L222.86,192.56L225.28,193.93L228.25,193.96L230.16,193.12L231.55,192.91L233.99,193.46L235.31,195.05L234.06,195.95L233.65,197.85L233.72,199.03L234.36,199.81L236.25,199.27L237.13,199.6L239.87,199.65L241.1,199.29L242.24,199.54L243.14,200.64L243.06,202.23L242.47,202.72L243.2,204.55L246.02,206.13L245.28,207.54L243.81,207.62L242.41,209.65L241.66,209.48L240.32,208.31L239.18,207.96L237.44,208.93L235.59,209.57L235.5,210.83L236.13,212.63L235.67,213.92L237.21,215.81L236.7,217.17L235.1,217.16L235.07,217.57L236.55,217.81L237.06,219.34L236.47,220.89L237.13,221.78L238.64,221.62L238.83,222.79L240.12,224.23L240.24,225.12L241.36,226.62L243.28,226.84L245.07,226.57L247.24,226.56L248.71,227.29L250.33,227.55L249.56,228.46L246.83,228.43L245.09,229.06L244.69,230.94L244.85,232.11L244.17,234.15L244.44,234.78L242.75,235.75L241.88,234.87L238.66,235.12L238.05,234.57L236.34,234.71L233.28,234.47L232.52,233.56L230.29,232.06L229.6,232.68L227.02,233.1L227.4,235.74L227.17,239.71L226.67,241.03L226,241.68L226.6,243.15L226.38,244.44L225.47,244.93L225.25,245.93L226.06,246.25L225.85,248.13L226.31,249.32L228.59,248.56L228.9,249.81L230.48,249.99L228.6,251.65L227.11,251.3L226.09,251.68L223.27,251.14L222.06,252.11L220.24,252.32L219.1,252.82L219.32,251.27L218.42,250.45L215.89,250.82L214.33,251.97L214.97,252.62L213.36,253.12L211.08,255.39L210.74,256.95L209.22,257.96L209.61,259.38L211.31,260.47L211.52,261.31L209.79,263.85L212.06,267.78L212.62,268.33L213.21,270.94L214.75,271.56L215.57,273.29L215.18,274.93L214.42,276.62L213.88,279.55L213.75,281.51L211.46,282.6L210.99,284.81L207.78,286.66L207.31,287.69L208.8,287.87L210.74,289.43L208.59,289.97L208.56,292.1L207.82,293.45L207.73,295.83L207.03,296.91L203.89,298.28L204.34,299.78L205.52,300.54L207.57,301.02L208.04,302.17L207.35,303.54L205.31,305.99L202.72,305.89L201.67,306.39L200.5,307.5L199.96,308.57L197.77,311.5L196.83,312.01L195.49,312.08L191.9,308.36L191.11,308.15L189.92,308.79L187.25,309.49L185.15,311.5L183.67,311.76L182.53,312.57L182.86,313.71L181.2,314.84L181.12,315.51L181.86,316.23L181.53,319.23L180.05,320.94L180.18,322.05L179.28,322.48L178.35,322.28L176.88,322.63L174.04,324.38L173.49,323.86L173.35,322.44L172.48,321.74L171.52,321.93L170.74,322.67L169.92,325.19L168.88,326.88L167.9,327.8L166.39,328.66L163.46,329.6L163.2,330.17L163.68,331.83L164.42,332.37L165.19,334.86L164.74,335.34L162.67,334.84L162.03,335.09L160.07,333.13L158.76,333.12L157.82,334.13L157.57,335.39L158.18,336.34L158.7,335.69L159.1,336.49L158.34,337.1L155.84,337.42L149.73,339.01L148.42,338.89L146.78,336.99L145.38,336.14L143.42,335.79L141.46,336.17L140.44,335.84L139.96,334.98L139.95,331.78L139.17,329.63L135.23,328.12L130.51,325.6L129.59,325.51L126.35,326.81L124.46,324.74L122.55,321.88L120.1,320.79L117.43,321.06L115.16,320.22L112.65,320.4L110.99,319.32L110.23,319.59L108.27,321.29L107.23,321.2L105.82,319.87L102.42,318.76L99.06,316.41L98.21,316.06L94.24,316.8L93.08,316.4L91.77,317.01L91.06,316.88L90.03,315.63L88.53,315.09L86.84,314.86ZM159.14,199.73L158.42,199.89L158.16,198.95L159.28,199.3Z" stroke-miterlimit="10" stroke="#FFFFFF"></path>
<path title="漯河市" fill="#D3D3D3" id="path11" d="M317.45,357.69L316.95,356.34L314.69,355.8L313.95,356.47L313.34,356.08L311.01,357.32L308.72,357.18L307.98,358.03L306.61,357.71L304,357.84L303.28,356.4L302.03,356.37L301.16,357.75L300.09,356.9L297.95,356.16L296.51,356.05L296.29,354.3L296.96,353.58L296.8,351.33L297.99,349L297.44,346.65L297.86,347.12L299.78,347.11L300.52,346.57L301.9,346.56L302.54,347.44L303.07,347.31L302.7,345.42L303.08,345.27L303.83,341.57L304.96,341.01L305.51,339.06L304.66,339.06L304.47,337.21L306.81,336.54L307.06,336.01L309.47,334.19L311.08,333.41L311.71,332.37L310.85,331.34L308.71,329.75L307.84,329.43L307.17,326.33L307.51,324.45L306.8,323.51L307.64,322.97L309.85,323.18L308.71,324.45L308.86,325.66L310.21,324.72L311.82,325.51L312.64,324.75L312.59,323.93L313.32,324.7L315.8,324.34L317.06,324.94L318.75,325.24L319.21,324.96L319.55,323.33L320.13,323.01L320.85,324.73L322.55,323.97L322.73,322.69L324.2,322.22L324.5,320.59L323.37,319.67L322.11,319.42L321.84,318.23L322.64,316.58L323.61,316.04L323.62,313.74L324.41,311.87L324.22,309.55L321.53,308.67L321.38,307.59L320.7,307.18L321,306.28L321.99,305.96L322.26,304.88L324.32,304.9L325.6,303.84L324.82,303.15L326.01,303.01L326.48,303.46L327.89,303.13L328.76,303.46L329.24,302.91L329.22,303.64L330.64,304.05L333.16,304.34L333.97,303.06L333.84,300.44L334.9,300.17L333.58,296.7L333.81,295.69L334.8,296.05L336.28,295.64L336.5,296.28L337.69,296.33L337.77,295.7L339.2,296L339.75,294.67L342.6,292.81L345.03,291.9L347.09,291.87L349.28,291.24L350.78,291.38L352.32,292.22L352.82,293.76L352.66,295.2L353.37,295.61L354.5,295.22L355.51,297.29L357.09,297.28L357.08,298.31L358.1,298.05L359.19,299.49L359.43,302.95L358.29,304.48L358.16,305.43L359.82,306.6L361.11,307.94L362.41,310.9L361.97,311.69L361.05,311.55L360.04,312.02L359.94,313.74L360.53,314.7L360.73,316.67L359.89,316.42L356.53,316.77L357.02,317.71L357.37,319.75L356.27,321.01L355.91,322.35L356.5,326.16L358.23,326L358.46,327.49L358.28,329.8L359.14,329.64L361.47,329.91L361.74,328.56L362.66,327.68L363.36,328.27L364.95,327.42L364.98,326.23L365.92,325.27L367.62,325.23L370.94,323.74L371.1,325.01L371.97,326.46L372.06,328.6L372.38,329.42L372.45,331.66L373.64,333.2L373.86,335.19L372.54,335.93L372.5,336.47L373.76,339.11L374.16,340.42L375.35,340.98L374.78,344.61L374,345.54L374.21,347.1L373.87,348.36L374.33,350.28L372.62,351.53L370.8,351.75L369.19,352.68L367.35,352.43L365.81,353.12L365.36,355.54L363.52,353.89L364.39,352.44L363.55,351.83L362.44,352.09L361.52,351.67L361.63,350.78L359.73,350.31L359.65,347.7L358.23,348.44L357.05,348.1L357.11,347.21L358.45,346.86L358.27,345.96L356.63,346.78L354.39,345.1L352.49,344.4L352.16,343.82L350.86,343.75L350.4,344.4L348.6,344.62L348.47,345.87L347.28,345.92L347.06,347.03L345.4,349.17L344.43,349.13L344.12,349.72L342.83,350.12L341.96,351.07L340.86,351.04L338.99,349.6L334.35,349.5L333.46,349.66L332.64,350.93L330.58,351.63L328.66,353.29L328.06,354.59L325.35,354.49L324.94,354.9L320.58,354.83L319.82,355.11L319.56,356.63L317.9,356.49Z" stroke-miterlimit="10" stroke="#FFFFFF"></path>
<path title="南阳市" fill="#D3D3D3" id="path13" d="M61.96,340.21L63.4,341.35L66.58,340.78L67.69,339.55L69.51,339.84L70.82,338.68L71.93,338.12L72.76,335.85L73.79,334.27L73.85,332.55L74.73,331.89L75.51,330.49L74.97,328.98L74.39,328.67L73.71,326.65L74.49,326.67L75.47,325.98L77.27,326.28L78.3,325.74L78.77,323.76L79.63,322.71L79.82,320.54L79.55,319.02L79.71,317.61L80.9,314.83L82.22,313.04L83.41,312.61L83.93,313.11L85.88,313.13L86.84,314.86L88.53,315.09L90.03,315.63L91.06,316.88L91.77,317.01L93.08,316.4L94.24,316.8L98.21,316.06L99.06,316.41L102.42,318.76L105.82,319.87L107.23,321.2L108.27,321.29L110.23,319.59L110.99,319.32L112.65,320.4L115.16,320.22L117.43,321.06L120.1,320.79L122.55,321.88L124.46,324.74L126.35,326.81L129.59,325.51L130.51,325.6L135.23,328.12L139.17,329.63L139.95,331.78L139.96,334.98L140.44,335.84L141.46,336.17L143.42,335.79L145.38,336.14L146.78,336.99L148.42,338.89L149.73,339.01L155.84,337.42L158.34,337.1L159.1,336.49L158.7,335.69L158.18,336.34L157.57,335.39L157.82,334.13L158.76,333.12L160.07,333.13L162.03,335.09L162.67,334.84L164.74,335.34L165.19,334.86L164.42,332.37L163.68,331.83L163.2,330.17L163.46,329.6L166.39,328.66L167.9,327.8L168.88,326.88L169.92,325.19L170.74,322.67L171.52,321.93L172.48,321.74L173.35,322.44L173.49,323.86L174.04,324.38L176.88,322.63L178.35,322.28L179.28,322.48L180.18,322.05L181.09,323.01L182.93,322.81L185.64,324.26L186.2,325.97L188.15,327.86L190.1,327.68L190.84,328.68L192.18,328.03L193.84,328.02L195.32,327.05L196.53,326.94L199.68,330.5L200.44,331.12L201.91,331.38L203.44,331.23L204.42,333.15L206.45,335.25L206.27,336.21L206.95,337.08L208.72,336.42L209.52,337.05L211.34,335.43L212.52,333.76L213.61,333.62L214.66,334.38L214.72,335.48L215.32,336L216.92,336.29L218.04,335.36L219.38,335.08L219.77,335.96L221.63,336.64L222.14,337.16L223.72,337.38L225.6,337.21L227.29,338.11L227.98,339L228.9,338.93L230.17,340.18L231.15,339.39L233.84,337.95L234.64,338.58L237.06,338.2L237.73,337.48L237.94,335.28L239.36,334.37L241.1,334.74L241.63,333.84L243.92,335.05L246.32,334.82L247.03,336.73L248.32,337.56L249.2,337.45L250.5,338.46L250.91,339.38L251.53,339.2L253.97,340.14L254.43,341.77L255.29,341.76L255.25,342.58L256.3,343.45L255.97,345.13L256.39,346.19L256.48,348.04L256.88,348.77L255.72,350.15L255.4,351.22L255.73,353.25L256.15,354.06L258.93,353.03L262.31,353.3L263.78,354.03L264.07,355.41L265.31,355.6L266.68,354.73L268.58,354.49L270.2,355.17L270.69,356.23L272.42,358.7L273.82,359.89L273.78,361.43L274.82,361.57L275.16,362.53L276.4,362.44L277.6,363.27L278.22,364.25L279.45,364.09L280.66,364.4L281.57,365.3L283.79,364.05L286.5,365.14L289.98,365.9L290.65,367.36L290.03,368.31L290.31,369.68L288.83,370.1L288.49,370.9L289.96,374.44L290.22,377.38L289.11,378.44L288.43,380.7L288.46,381.78L287.84,383.19L287.1,383.35L288.59,384.89L288.27,386.39L288.56,387.6L288.03,388.75L288.88,389.56L288.67,391.26L285.87,393.75L283.63,394.39L282.84,395.16L281.66,395.57L280.54,395.05L277.68,395.01L276.34,394.68L275.68,395.32L274.4,395.41L272.71,396.82L271.45,396.11L269.92,396.53L269.51,397.69L267.58,398.6L267.19,399.75L265.34,402.28L263.94,402.97L263.27,404.04L262.86,405.72L262.17,407.21L261.12,410.27L262.26,410.76L262.81,411.79L265.16,412.06L265.7,410.96L266.66,411.43L267.23,412.42L269.12,413.19L270.77,413.23L271.64,413.68L270.98,416.81L271.4,417.25L270.46,418.73L269.63,419.35L268.68,420.94L267.81,421.55L267.6,422.57L268.55,423.22L269.63,424.63L268.81,426.14L269.37,426.74L269.46,428.22L268.7,429.7L270.86,432.54L271,433.83L270.29,434.45L270.06,436.23L271.6,436.28L272.18,437.89L273.85,438.07L274.79,439.21L274.33,440.21L276.58,440.76L277.48,442.54L276.44,443.45L275.89,441.99L275,441.65L274.32,440.6L272.83,440L271.85,440.62L271.03,442.73L269.71,443.65L269.55,444.3L270.13,445.56L271.13,445.91L271.04,447.92L270.5,448.87L270.93,451.25L270.73,451.88L271.39,452.97L272.9,452.91L275.05,451.96L275.62,450.3L278.55,450.02L278.72,450.47L280.71,451.07L281.4,451.88L281.91,450.93L282.47,451L282.92,452.11L284.49,453.2L285.33,452.55L286.56,453.02L287.28,452.26L288.25,450.32L290.01,448.07L292.08,448.97L293.56,450.79L294.47,451.3L295.53,451.21L295.56,452.32L296.87,451.99L298.79,453.22L300.7,452.79L300.77,451.9L301.81,450.3L303.52,450.79L305.73,449.26L306.31,446.76L307.45,445.76L307.96,443.86L308.67,443.93L308.46,442.65L310.87,441.94L310.64,439.19L309.96,438.64L310.42,436.95L311.25,437.54L313.12,437.88L313.71,437.3L315.55,439.1L318.21,438.73L320.25,440.08L321.34,441.67L324.4,443.6L325.42,443.3L326.3,443.61L327.34,444.8L326.69,446.01L328.01,447.2L328.99,449.13L329.48,449.47L328.61,449.83L327.12,451.11L326.39,453.4L325.16,454.17L324.59,455.46L325.65,456.66L325.07,456.99L324.23,459.89L324.69,462.02L324.46,464.2L323.66,464.79L322.5,464.8L322.16,466.16L321.47,465.34L321.51,466.61L320.98,468.12L319.57,469.79L320.34,470.24L319.31,471.02L318.77,469.9L317.69,470.4L317.02,469.9L315.89,470.2L315.23,469.67L315.01,471.04L313.91,470.67L313.15,471.9L312.51,473.78L311.37,474.51L311.41,476.3L310.15,476.85L309.43,476.12L308.43,476.11L308.38,476.87L309.56,477.77L308.04,477.89L307.04,477.24L307.41,478.62L305.71,478.94L304.37,480.18L304.89,480.75L305.35,482.65L304.33,483.19L304.03,481.67L304.26,480.24L303.49,480.45L302.23,480.05L300.6,481.58L299.51,482.05L297.61,483.59L296.72,483.58L292.7,486.8L291.9,486.92L290.9,485.96L289.75,485.82L289.38,484.82L287.72,483.66L286.62,484.07L284.95,483.63L283.47,481.66L282.16,481.33L282.1,480.43L283.59,479.42L282.81,478.22L280.29,477.39L279.97,475.87L277.85,473.91L276.55,473.25L274.33,471.4L273.4,469.31L271.99,468.57L269.5,469.71L268.27,469.79L266.97,470.98L267.02,472.1L266.63,474.36L266.12,474.87L263.12,474.92L262.09,472.36L259.32,472.82L257.4,471.66L256.59,470.16L254.2,469.41L252.99,470.25L251.85,470.29L250.71,472.24L251.02,474.64L250.65,475.31L248.92,475.44L248.01,473.85L246.85,473.51L243.38,473.23L242.48,473.47L241.19,474.81L240.08,474.5L240.21,473.03L239.43,472.43L238.5,472.66L236.11,474.26L233.1,475.32L230.46,476.89L229.65,478.49L228.33,478.64L226.5,477.64L226.38,476L225,476.5L224.47,477.54L221.8,476.96L220.51,475.79L217.97,475.75L216.54,474.45L214.78,473.65L213.31,473.82L212.59,474.3L211.46,474.16L211.52,473.55L209.98,472.31L208.41,471.75L208.36,472.69L207.07,474.77L206.16,474.1L204.72,474.36L203.68,475.02L201.92,474.36L201.49,475.38L200.3,475.77L198.9,477.2L199.36,478.64L196.23,477.04L195.91,476.34L193.69,475.44L193.4,476.29L191.52,475.81L190.74,476.07L189.89,477.78L188.7,478L187.86,479.17L187.7,481.03L184.97,479.54L183.9,478.33L181.39,476.83L180.76,476.73L180.4,475.79L178.43,474.73L178.25,473.84L176.04,472.98L172.88,473.86L173.46,473.08L172.82,472.37L172.85,471.52L172.11,470.91L170.73,470.87L170.38,471.83L171.82,472.26L170.77,473.97L172.09,473.85L171.36,474.77L169.5,473.25L168.82,471.83L168.26,472.33L166.74,471.65L165.33,470.05L164.45,469.96L164.15,469.28L164.6,468.2L163.57,468.02L162.69,467.14L163.06,465.41L162.5,463.8L160.97,463.85L160.03,464.27L159.5,465.13L157.77,466.5L157.07,466.42L156.5,465.47L155.48,465.69L155.72,464.57L154.24,464.15L153.23,461.46L152.24,459.49L151.5,458.96L149.94,459.16L148.32,460.01L145.9,460.52L144.02,460.17L143.31,459.34L142.88,457.64L140.01,457.34L139.9,456.58L138.19,456.73L135.89,454.4L134.15,453.5L132.3,452.1L131.63,450.78L130.57,450.24L129.08,448.82L127.03,448.89L125.21,447.87L122.67,448.86L122.13,447.6L122.13,445.63L121.48,445.59L119.99,446.44L118.59,448.4L116.11,450.3L114.34,449.44L111.59,446.36L111.07,444.21L111.23,443.43L109.94,441.18L106.78,438.84L105.64,437.4L106.09,436.22L105.33,435.7L103.08,435.65L101.59,434.53L102.17,434.26L103.14,435.2L103.4,434.07L104.6,435.18L105.74,433.86L105.82,432.15L106.38,431.61L105.67,430.2L104.99,430.11L105.17,430.95L103.76,431.27L103.67,432.01L102.75,432.54L101.35,432.45L100.46,431.75L100.14,430.37L99.56,429.66L99.7,428.88L98.79,427.51L97.74,424.48L97.26,423.62L95.22,422.69L92.61,422.22L91.18,421.13L89.01,420.15L88.66,419.51L88.74,416.39L87.73,415.04L86.73,415.71L85.32,417.35L84.5,416.84L84.85,413.92L84.17,412.06L84.43,410.52L85.15,409.2L86.55,408.29L87.11,407.37L86.71,405.56L85.69,403.44L83.95,401.9L83.94,399.94L82.15,399.32L79.07,399.77L78.16,399.17L75.6,399.65L75.15,399.35L75.39,398.12L77.01,396.89L79.4,396.02L79.22,394.3L77.89,392.66L78.13,391.03L76.51,390.03L74.96,390.08L74.29,388.88L73.6,388.49L73.24,386.58L71.18,385.45L70.4,384.03L69.48,383.44L67.99,383.6L66.91,384.36L65.35,386.17L64.56,385.84L66.52,383.27L65.91,381.32L64.1,380.33L63.9,379.74L62.6,378.66L62.18,377.62L60.75,376.96L59.58,375.08L60.72,375.15L59.37,373.4L60.18,372.72L60.81,371.02L60.86,369.83L61.77,369.57L60.96,368.46L61.04,367.26L63.49,366.52L63.87,365.49L63.2,363.73L63.6,362.51L63.5,361.39L62.67,360.28L62.06,358.7L62.1,357.73L60.69,354.46L63,352.76L63.61,350.62L63.61,347.92L62.86,344.75L61.35,343.35L61.36,341.64ZM64.24,383.9L62.52,384.35L64.06,382.69L64.61,383.13ZM226.42,477.07L225.37,476.6L226.12,476.35Z" stroke-miterlimit="10" stroke="#FFFFFF"></path>
<path title="平顶山市" fill="#D3D3D3" id="path4" d="M307.64,322.97L306.8,323.51L307.51,324.45L307.17,326.33L307.84,329.43L308.71,329.75L310.85,331.34L311.71,332.37L311.08,333.41L309.47,334.19L307.06,336.01L306.81,336.54L304.47,337.21L304.66,339.06L305.51,339.06L304.96,341.01L303.83,341.57L303.08,345.27L302.7,345.42L303.07,347.31L302.54,347.44L301.9,346.56L300.52,346.57L299.78,347.11L297.86,347.12L297.44,346.65L297.99,349L296.8,351.33L296.96,353.58L296.29,354.3L296.51,356.05L297.95,356.16L300.09,356.9L301.16,357.75L302.03,356.37L303.28,356.4L304,357.84L306.61,357.71L307.98,358.03L308.72,357.18L311.01,357.32L313.34,356.08L313.95,356.47L314.69,355.8L316.95,356.34L317.45,357.69L316.36,361.05L314.27,361.86L312.76,363.69L313.04,364.39L312.87,367.12L311.64,368.6L310.81,370.96L310.28,374.35L309.68,377.09L310.34,380.09L311.65,382.94L313.28,382.93L313.65,383.4L312.37,385.86L311.5,387.05L310.65,387.41L309.04,385.6L308.41,386.22L306.53,386.31L305.32,385.83L304.28,388.22L303.43,387.88L302.57,386.78L301.52,386.56L300.89,385.67L299.48,386.39L295.7,386.36L294.64,385.89L293.05,386.32L291.2,386.34L289.74,387.1L288.88,389.56L288.03,388.75L288.56,387.6L288.27,386.39L288.59,384.89L287.1,383.35L287.84,383.19L288.46,381.78L288.43,380.7L289.11,378.44L290.22,377.38L289.96,374.44L288.49,370.9L288.83,370.1L290.31,369.68L290.03,368.31L290.65,367.36L289.98,365.9L286.5,365.14L283.79,364.05L281.57,365.3L280.66,364.4L279.45,364.09L278.22,364.25L277.6,363.27L276.4,362.44L275.16,362.53L274.82,361.57L273.78,361.43L273.82,359.89L272.42,358.7L270.69,356.23L270.2,355.17L268.58,354.49L266.68,354.73L265.31,355.6L264.07,355.41L263.78,354.03L262.31,353.3L258.93,353.03L256.15,354.06L255.73,353.25L255.4,351.22L255.72,350.15L256.88,348.77L256.48,348.04L256.39,346.19L255.97,345.13L256.3,343.45L255.25,342.58L255.29,341.76L254.43,341.77L253.97,340.14L251.53,339.2L250.91,339.38L250.5,338.46L249.2,337.45L248.32,337.56L247.03,336.73L246.32,334.82L243.92,335.05L241.63,333.84L241.1,334.74L239.36,334.37L237.94,335.28L237.73,337.48L237.06,338.2L234.64,338.58L233.84,337.95L231.15,339.39L230.17,340.18L228.9,338.93L227.98,339L227.29,338.11L225.6,337.21L223.72,337.38L222.14,337.16L221.63,336.64L219.77,335.96L219.38,335.08L218.04,335.36L216.92,336.29L215.32,336L214.72,335.48L214.66,334.38L213.61,333.62L212.52,333.76L211.34,335.43L209.52,337.05L208.72,336.42L206.95,337.08L206.27,336.21L206.45,335.25L204.42,333.15L203.44,331.23L201.91,331.38L200.44,331.12L199.68,330.5L196.53,326.94L195.32,327.05L193.84,328.02L192.18,328.03L190.84,328.68L190.1,327.68L188.15,327.86L186.2,325.97L185.64,324.26L182.93,322.81L181.09,323.01L180.18,322.05L180.05,320.94L181.53,319.23L181.86,316.23L181.12,315.51L181.2,314.84L182.86,313.71L182.53,312.57L183.67,311.76L185.15,311.5L187.25,309.49L189.92,308.79L191.11,308.15L191.9,308.36L195.49,312.08L196.83,312.01L197.77,311.5L199.96,308.57L200.5,307.5L201.67,306.39L202.72,305.89L205.31,305.99L207.35,303.54L208.04,302.17L207.57,301.02L205.52,300.54L204.34,299.78L203.89,298.28L207.03,296.91L207.73,295.83L207.82,293.45L208.56,292.1L208.59,289.97L210.74,289.43L208.8,287.87L207.31,287.69L207.78,286.66L210.99,284.81L211.46,282.6L213.75,281.51L213.88,279.55L214.42,276.62L215.18,274.93L215.57,273.29L214.75,271.56L213.21,270.94L212.62,268.33L212.06,267.78L209.79,263.85L211.52,261.31L211.31,260.47L209.61,259.38L209.22,257.96L210.74,256.95L211.08,255.39L213.36,253.12L214.97,252.62L214.33,251.97L215.89,250.82L218.42,250.45L219.32,251.27L219.1,252.82L220.24,252.32L222.06,252.11L223.27,251.14L226.09,251.68L227.11,251.3L228.6,251.65L230.48,249.99L231.47,250.2L231.66,251.6L233.88,250.57L235.02,251.33L235.88,251.31L237.92,253.31L236.73,253.85L236.64,255.45L238.1,254.94L239.73,255.42L240.77,255.03L243.44,255.92L245.71,255.71L247.41,254.95L248.05,255.44L251.12,255.6L253.05,255.15L253.78,256.3L254.43,256.43L255.33,257.47L257.46,257.39L258.99,257.9L259.65,259.07L259.17,259.5L258.48,261.29L258.18,264.01L258.98,264.95L260.78,265.45L261.7,266.11L261.91,266.95L261.51,268.14L261.62,269.41L263.05,271.71L264.17,272.99L263.85,274.26L264.25,275.48L265.76,276.19L266.13,277.32L266.81,277.9L268.76,278.12L271.88,277.4L273,277.98L273.46,279.12L274.21,279.19L274.79,278.5L274.69,277.28L275.84,276.61L276.34,276.84L277.01,278.43L278.4,278.25L278.8,279.78L280.45,280.26L283.45,282.49L282.38,283.46L283.7,286.65L284.7,286.43L284.8,285.25L285.62,284.81L286.95,285.19L288.65,285.19L289.54,286.17L290.16,289.47L291.23,291.26L291.15,295.29L290.97,296.3L288.62,298.08L288.19,299.89L286.65,302.36L286.2,303.57L286.86,305.56L288.48,307.79L288.59,308.76L288.14,310.98L288.62,312.55L289.31,313L287.31,314.41L292.41,317.1L293.27,316.73L294.54,317.5L294.81,319.73L298.48,318.95L299.87,318.36L301.2,318.45L303.71,317.68L304.19,318.44L306.46,318.25L306.79,320.07L307.86,321.13L307.19,322.49Z" stroke-miterlimit="10" stroke="#FFFFFF"></path>
<path title="濮阳市" fill="#D3D3D3" id="path9" d="M444.22,134.65L440.38,132.9L439.54,132.66L438.84,130.87L437.92,129.57L439.48,127.42L441.22,125.65L440.81,123.33L439.12,122.57L438.94,121.93L439.49,120.69L439.78,117.87L437.55,118.18L436.79,117.82L436.91,116.62L438.12,115.4L439.17,115.06L439.66,113.51L439.56,111.22L438.95,107.24L438.08,106.11L433.85,105.54L431.58,103.91L431.42,102.01L430.59,101.09L430.7,100.5L432.08,98.4L433.6,98.07L434.09,96.77L434.87,96.29L434.79,93.57L434.04,92.04L434.51,91.36L433.78,89.5L432.04,87.57L431.87,85.87L432.44,84.62L433.84,84.43L435.07,82.74L437.19,80.43L437.68,78.09L437.37,77.43L436.28,77.1L436.18,75.1L436.43,74.07L438.09,73.62L438.67,73.02L439.71,70.82L439.79,69.78L440.46,68.07L439.93,65.89L440.69,62.76L441.46,61L440.98,58.86L441.25,57.81L440.7,56.45L440.12,56.96L440.11,55.41L440.99,54.56L441.04,53.8L439.61,52.96L437.08,52.35L435.02,51.15L436.1,50.94L436.22,50.37L438.24,48.85L439.58,48.54L441.55,49.07L442.42,48.62L446.23,44.26L446.95,43.61L446.86,41.41L447.28,39.46L447.19,37.72L448.56,35.81L449.2,35.67L452.06,36.58L452.55,36.52L453.11,33.3L454.49,32.06L456.2,32.09L457.52,33.01L457.53,33.86L458.85,34.3L460.63,33.76L461.82,31.73L461.93,32.75L462.92,32.82L465.67,34.27L467.41,36.59L467.77,38.1L469.22,40.58L471.3,41.49L470.95,44.52L471.95,46.15L473.41,46.61L474.36,46.16L475.14,46.51L476.89,45.6L477.8,44.73L478.62,41.68L480.03,41.6L480.74,40.3L481.17,38.48L481.47,40.38L482.99,40.28L483.72,39.24L485.46,39.13L485.62,36.81L486.83,36.63L487.4,38.81L488.7,39.26L488.77,42L487.06,47.45L486.43,47.36L485.99,48.44L486.41,49.37L484.7,50.27L485.39,51.26L485.28,55.35L484.84,55.8L482.61,56.29L480.35,57.83L479.42,59.86L477.21,60.14L476.58,62.2L476.35,64.21L477.31,65.16L477.62,66.24L477.32,69.34L476.62,72.14L475.35,71.91L474.83,72.78L475.92,73.23L475.39,75.84L474.6,78.72L474.53,80.78L477.25,82.76L477.96,81.71L481.46,79.38L482.44,77.46L483.86,76.42L483.96,75.8L486.46,72.43L490.6,69.96L494.87,68.87L498.26,66.07L500.5,65.59L503.85,66.27L504.75,65.23L507.83,63.4L508.11,62.13L509.22,60.85L511.05,60.22L512.78,60.75L515.48,60.27L516.47,59.85L516.46,58.98L517.62,57.88L516.97,57.58L518.65,56.02L520.54,55.34L522.46,55.55L523.3,56.26L524.58,56.41L525.78,54.88L528.04,53.76L529.74,54.46L530.61,54.31L531.85,53.14L534.54,51.94L536.99,51.49L539.53,49.61L540.71,48.32L543.44,44.47L547.44,43.62L547.21,45.97L546.34,47.3L546.28,48.43L545.22,50.13L545.55,51.82L544.99,53.77L543.96,53.44L542.98,56.95L542.61,60.35L541.64,61.16L538.77,60.02L536.55,59.9L533.93,60.62L529.56,61.53L529.03,63.28L529.38,64.42L529.17,65.47L526.05,66.25L525.79,67.53L526.97,67.56L527.38,68.92L526.83,69.17L526.79,71L526.14,71.57L526.05,73.43L525.7,73.54L525.81,71.83L525.13,72.33L524.91,73.87L522.79,73.67L522.83,74.52L520.92,74.2L520.49,75.19L516.35,74.03L515.43,75.88L514.39,75.88L514.42,76.53L512.67,76.53L512.01,78.56L511.28,78.39L511.01,80.08L509.96,79.74L509.77,81.7L508.99,81.71L509.18,84.11L508.73,85.8L506.02,86.15L501.67,87.55L498.75,87.63L498.19,88.56L496.23,87.61L495.31,88.59L493.44,88.14L492.57,89.06L491.37,88.97L488.93,90.96L486.59,94.4L485.73,96.76L484.49,98.79L482.28,101.07L481.86,103.47L480.2,105.43L479.75,106.55L479.18,106.51L479.13,107.54L477.94,107.29L477.82,108.61L476.84,107.94L476.72,109.2L475.49,109.33L475.57,110.11L476.96,110.55L476.29,110.86L475.99,112.17L476.72,114.85L476.51,116.77L474.92,116.71L471.87,117.96L469.92,119.78L468.41,120.68L468.58,121.67L467.14,123.16L465.22,124.62L462.59,124.62L461.45,124.9L460.65,124.38L458.57,124.27L455.63,124.81L454.64,125.21L454.65,126.3L453.81,127.31L453.86,125.41L453.53,126.85L452.67,126.86L451.31,125.45L450.66,126.15L451.03,128.15L449.77,130.23L448.08,129.84L446.7,130.02L445.92,131.04L444.99,133.6ZM490.74,68.74L490.01,69.21L489.35,68.65L489.38,67.64L490.79,66.93L491.3,67.69Z" stroke-miterlimit="10" stroke="#FFFFFF"></path>
<path title="三门峡市" fill="#D3D3D3" id="path12" d="M153.86,165.84L152.46,166.69L152.45,168.36L150.63,169.76L150.69,170.46L153.26,172.37L155.63,173.44L154.31,174.35L154.59,175.18L153.27,175.2L152.36,175.63L152.69,176.85L154.8,177.46L154.67,178.61L151.71,180.1L150.1,180.11L148.93,181.7L147.45,182.22L145.91,183.29L145.33,184.27L145.26,186.33L146.74,187.3L148.99,187.53L151.61,189.92L151.53,191.21L152.39,191.34L154.62,190.59L155.51,191.04L154.76,191.92L155.06,192.89L157.77,195.2L158.37,195.97L157.62,196.85L157.95,197.62L159.27,198.15L159.45,199.26L159.28,199.3L158.16,198.95L158.42,199.89L159.14,199.73L159.37,199.87L158.06,200.78L158.24,201.63L157.45,203.02L156.19,203.01L156.45,203.67L155.99,204.62L157.74,205.29L157.82,206.08L156.17,206.91L155.75,209.61L154.77,209.47L154.97,210.52L153.81,212.68L154.5,214.23L153.67,214.61L153.29,215.5L151.98,215.91L150.98,217.06L150.83,218.12L149.61,220.46L147.4,218.2L145.8,218.3L143.42,215.03L140.25,214.79L139.58,215.13L139.36,216.5L138.4,216.56L137.04,217.47L135.26,219.52L133.9,219.43L133.39,220.79L131.6,220.46L128.05,222.24L127.43,223.3L126.54,223.75L125.11,223.71L126.01,226.56L127.08,227.94L126.21,228.22L124.92,227.37L120.06,225.62L119.01,224.86L117.71,224.51L116.76,225.58L115.79,224.61L114.62,225.27L112.97,226.87L112.39,227.05L111.09,226.48L108.98,226.85L107.69,228.15L107.24,229.12L104.65,230.62L104.09,231.39L100.91,233.13L98.67,234.15L97.74,235.18L96.36,235.16L95.22,234.35L93.86,235.2L91.98,235.35L90.26,235.06L89.62,233.35L88.6,233.74L86.89,235.47L86.95,238.14L84.35,237.42L82.71,236.73L82.01,236.94L81.35,239.31L81.37,240.19L79.87,241.47L79.25,241.57L79.03,243.72L77.36,244.22L75.96,244.26L75.12,244.97L74.48,246.75L74.21,248.64L74.48,249.07L76.25,249.33L76.9,250.02L77.14,251.17L78.7,253.23L79.28,254.98L78.36,257.65L78.41,260.23L78.92,260.94L78.26,263.25L76.89,263.39L76.17,264.07L77.78,265.63L80.79,267.03L81.49,268.9L83.38,269.21L84.73,271.01L85.16,272.14L86.56,272.9L87.42,272.69L87.9,273.82L89.33,273.06L90.13,273.63L90.23,275.36L90.9,276.36L92.94,276.46L93.89,277.22L95.23,277.25L96.03,279.13L94.8,280.05L93.64,283.32L93.66,285.41L94.88,288.03L94.74,290.2L94.96,291.56L93.83,292.84L91.99,294.03L90.19,296.52L89.94,298.03L88.68,298.21L87.41,297.19L85.75,297.84L83.9,297.46L82.95,298.43L82.63,299.77L83.4,301.07L83.38,301.87L81.31,303.1L80.66,302.24L80.44,303.18L81.94,304.4L81.65,305.28L83.14,306.24L83.93,307.88L85.96,310.13L85.88,313.13L83.93,313.11L83.41,312.61L82.22,313.04L80.9,314.83L79.71,317.61L79.55,319.02L79.82,320.54L79.63,322.71L78.77,323.76L78.3,325.74L77.27,326.28L75.47,325.98L74.49,326.67L73.71,326.65L74.39,328.67L74.97,328.98L75.51,330.49L74.73,331.89L73.85,332.55L73.79,334.27L72.76,335.85L71.93,338.12L70.82,338.68L69.51,339.84L67.69,339.55L66.58,340.78L63.4,341.35L61.96,340.21L61.36,338.14L59.06,336.17L57.82,334.64L56.37,334.66L55.36,333.4L51.92,332.41L51.44,331.91L49.44,331.72L47.43,329.07L45.92,328.45L45.09,326.78L44.35,326.05L44.14,325.05L45,322.76L43.53,319.95L43.44,318.15L42.65,317.66L41.84,315.57L40.42,314.78L40.23,313.21L38.64,313.33L37.51,312.82L36.33,312.9L34.87,311.88L34.56,310.59L33.59,308.9L30.95,308.31L29.33,306.77L27.57,307.48L25.49,307.51L24.01,306.73L24.08,305.02L22.91,304.58L21.63,302.68L22.1,301.21L23.98,300.35L25.31,300.38L25.33,298.44L27.67,297.05L29.48,296.76L30.06,295.92L29.62,293.64L27.79,293.26L27.58,290.66L26.56,289.2L26.14,287.9L25.53,287.59L25.85,286.84L24.71,285.67L24,286.98L21.57,287.01L21.87,285.33L21.75,282.68L22.38,282.32L22.07,278.07L24.19,276.68L24.58,275.49L25.57,274.45L25.16,273.96L26.58,272.4L26.85,271.24L26.11,270.22L24.92,269.34L21.68,269.19L21.81,267.86L18.76,267.5L18.21,265.26L15.61,264.47L14.06,264.71L12.33,263L7.56,261.73L7.83,260.51L6.88,258.32L6.3,257.96L6.76,256.31L8.47,256.18L10.05,254.51L10.81,252.54L13.13,252.87L13.62,251.23L13.57,249.97L12.3,248.81L10.8,244.42L11.01,242.58L10.2,242.51L9.32,243.36L6.73,242.55L4.67,241.14L4.69,240.28L4.05,239.77L3.96,238.19L3.32,237.4L3.14,236.14L1.84,234.56L1.69,233.64L0.8,232.86L0,230.03L0.15,229.01L1.17,226.94L4.2,225.4L3.71,224.8L1.49,224.77L0.64,224.34L1.78,220.43L4.51,221.74L6.14,221.83L7.37,220.74L10.03,219.86L11.01,219.28L12.21,219.24L16.47,222.41L17.83,222.4L22.32,220.13L23.9,219.65L27.95,219.56L33,220.03L33.6,219.58L35.51,216.64L36.31,215.94L37.08,214.43L38.23,214.29L41.15,214.72L42.71,216.19L43.46,217.87L44.25,218.65L45.22,218.46L47,216.4L47.8,215.89L49.91,215.38L50.84,214.51L51.82,212.51L53.13,207.32L52.97,206.2L53.35,205.38L54.85,205.35L56.46,206.51L57.57,208.15L58.75,208.14L62.77,205.15L64.38,204.15L67.34,202.91L72.29,202.33L72.87,201.73L73.38,199.61L75.17,196.42L76.34,195.59L77.04,195.75L77.96,196.82L80.98,197.17L82.32,198.51L83.89,198.03L84.77,195.65L85.35,195.01L86.57,195.2L87.92,196.19L89.07,196.39L90.21,195.52L91.78,194.99L93.47,193.65L94.43,193.87L94.9,194.6L98.72,195.56L100.63,194.09L102.12,193.88L102.92,192.85L103.99,193.03L105.33,194.16L106.81,194.26L108.95,193.8L109.53,192.73L110.17,192.62L111.35,191.46L112.9,191.09L113.9,191.22L114.52,192.03L115.45,192.25L116.62,191.15L117.23,190.1L117.46,187.8L118.8,186.55L119.92,186.26L120.3,183.76L122.54,181.26L124.13,181.14L126.03,179.74L125.46,177.35L124.49,176.24L124.88,175.4L126.55,175.36L127.5,174.14L128.9,173.6L131.53,173.53L132.47,172.11L134.32,172.23L135.64,170.52L136.7,170.92L138.23,169.73L138.47,168.37L138.28,166.77L139.07,166.05L143.19,165.31L143.47,165.08L145.48,165.87L146.86,164.72L148.54,165.74L149.56,164.46L151.83,164.45L152.88,164.78ZM159.45,199.26L159.37,199.87L159.14,199.73L159.28,199.3Z" stroke-miterlimit="10" stroke="#FFFFFF"></path>
<path title="商丘市" fill="#D3D3D3" id="path14" d="M504.92,282.86L503.81,280.09L502.44,279.7L501.69,280.2L497.3,279.83L494.44,280.04L494.81,281.21L495.03,284.3L494.83,285.43L493.67,287.27L493.15,287.61L491.54,287.55L490.55,288L489.25,287.75L486.7,289.08L486.34,291.26L484.5,291.38L480.98,290.54L478.38,289L477.09,287.9L475.87,287.68L474.57,288.97L473.19,289.22L472.41,290.27L470.47,290.22L470.2,289.32L470.76,287.68L470.08,287.53L467.23,288.01L466.7,288.75L466.85,290.34L466.64,291.79L465.56,292.63L464.55,292.75L462.01,291.05L461.22,291.22L462.1,292.71L460.65,294.59L459.41,295.44L456.74,295.5L456.15,294.57L454.43,294.02L453.54,294.25L452.73,295.71L452.8,297.1L450.71,297.42L449.25,297.18L447.38,296.45L447.34,295.52L448.11,294.7L448.84,292.82L448.52,292.15L449.26,290.85L450.51,289.41L449.71,288.11L449.65,287.15L450.53,286.91L452.87,287.16L454.15,286.82L455.9,283.95L455.93,283.35L454.85,282.39L453.71,282.14L454.08,280.77L453.85,278.42L454.61,277.66L453.98,275.9L454.66,274.38L454.77,272.87L455.3,272.01L455.27,270.1L453.9,267.89L454.62,265.65L452.8,265.71L451.5,264.51L450.45,264.13L447.58,263.89L446.49,261.39L443.81,260.57L442.44,260.95L441.3,260.57L440.75,259.47L438.97,259.59L436.93,258.17L436.25,257.26L434.2,257.29L433.22,256.98L431.38,255.06L430.25,254.55L429.44,251.82L428.79,251.18L429.38,247.45L431.03,247.03L431.93,245.52L430.65,244.73L430.59,244.05L428.42,243.69L428.13,242.49L428.7,242.38L428.49,240.3L429.68,239.74L428.88,239.41L429.11,237.64L429.75,236.37L430.4,237.39L431.2,237.8L431.73,236.55L432.7,236.58L433.42,235.82L434.21,233.97L434.81,233.82L435.17,232.28L433.95,232.63L434.72,230.73L434.35,229.97L435.01,228.43L434.09,228.05L434.74,227.21L434.47,226.44L433.66,226.56L433.74,223.52L433.5,222.09L432.75,220.19L433.15,218.89L432.88,216.81L433.19,215.24L432.41,214.41L432.7,213.38L433.59,212.73L435.58,212.53L436.45,212.12L436.53,210.99L436.06,210.43L433.76,209.14L432.22,209.1L429.95,210.28L429.03,209.79L428.79,207.63L427.37,207.14L429.1,204.92L429.15,204.21L426.9,203.45L426.2,202.47L426.26,201.43L426.89,201.06L429.87,200.86L429.92,200.13L430.89,200.16L432.5,201.6L435.22,203.27L436.55,203.43L439.42,201.8L440.71,201.82L441.46,201.4L442.67,201.85L445.47,200.48L446.28,200.31L452.51,200.5L453.98,198.6L455.93,198.06L457.31,199.4L458.21,199.25L459.32,198.39L459.65,197.25L461.5,197.83L461.93,196.63L466.26,197.5L466.79,196.7L465.72,195.72L467.05,195.91L468.07,193.65L467,192.02L468.08,191.06L470.2,191.29L471.42,190.45L472.83,190.4L474.01,191.3L475.58,191.92L476.62,192.95L478.75,193.94L480.16,193.59L481.55,194.27L482.27,195.74L482.05,196.38L483.29,196.66L484.17,199.02L484.22,199.98L485.43,203.76L484.29,204.91L483.96,205.98L485.01,207.7L485.22,209.06L485,211.85L486.27,213.98L486.59,216.17L488.27,217.49L489.47,219.68L491.76,222.5L493.62,223.58L495.49,224.07L496.11,223.71L498.4,223.85L500.8,223.72L501.9,223.42L503.58,223.79L503.97,224.23L506.43,225.48L507.86,225.63L509.09,224.08L509.26,220.62L510.44,220.64L511.68,221.74L515.27,221.91L518.5,222.99L521.5,225.32L522.59,225.06L522.52,224.22L523.63,224.48L524.45,223.97L532.83,222.62L535.1,222.5L536.44,221.73L536.51,219.65L537.14,218.71L538.11,218.29L538.94,218.65L540.24,220.26L541.55,221.3L543.22,221.02L545.85,219.52L547.63,219.82L549.21,221.68L549.87,223.7L550.8,225.16L551.98,225.91L552.91,225.85L556.1,223.91L556.76,223.28L556.69,225.63L556.18,227.94L557.41,229.9L557.42,231.07L556.04,232.41L555,232.53L555.03,233.98L553.42,236.77L554.65,238.47L555.06,240.11L557.55,241.83L558.56,243.25L558.67,244.15L557.99,244.77L558.34,245.69L560.85,246.58L562.35,246.36L563.8,247.02L564.36,248.21L565.52,248.39L566.73,250.33L569.41,251.76L572.08,252.91L572.78,253.76L573.58,255.89L572.62,257.94L573.47,259.11L573.83,258.51L575.54,257.95L576.7,257.9L577.67,258.86L579.29,258.64L579.05,257.73L580.49,256.56L581.16,256.75L580.76,257.46L581.55,258.76L582.45,258.52L584.72,256.24L586.79,255.6L592,257L593.52,258.05L593.51,259.06L592.11,260.82L590.81,261.9L589.82,262.17L590.16,263.49L589.73,264.56L590.07,267.35L591.35,268.29L591.91,270.25L590.04,271.23L589.1,272.38L588.96,275.2L588.33,275.63L589.62,277.12L589.44,277.86L591.19,278.52L592.04,280.13L592.4,281.6L594,284.51L594.87,285.33L595.59,287.1L595.24,288.42L595.91,288.96L595.89,289.79L598.06,291.61L598.4,292.41L599.78,292.84L600,294.48L599.02,295.65L599.57,297.84L598.87,299.3L599.27,302.14L597.8,302.58L596.33,301.89L594.92,300.8L593.45,300.32L592.05,300.33L591.23,301.08L590.91,302.62L591.23,303.4L590.11,303.28L589.41,304.24L589.18,303.31L588.06,303.52L587.69,304.6L586.17,304.46L585.84,305.33L584.22,304.75L583.18,305.72L581.86,305.88L581.18,307.37L579.69,307.42L579.33,311.37L579.65,312.41L579.23,313.3L578.2,313.21L576.91,312.13L575.52,314.7L573.5,315.03L572.41,315.48L571.23,315.2L569.51,315.76L569.32,316.62L568.19,316.05L567.36,317.63L565.12,318.49L563.11,320.79L561.44,320.94L559.92,320.24L559.59,321.66L557.52,321.16L556.78,321.32L554.57,323.2L552.79,323.09L550.53,318.24L548.39,317.56L547.4,315.65L547.42,314.7L545.06,314.88L544.96,313.45L543.25,312.21L543.91,311.1L543.5,310.31L542.3,310.12L542.35,309.43L544.02,309.75L544.18,307.31L543.38,306.91L543.61,305.76L541.26,303.57L539.25,302.91L539.16,301.57L537.89,301.05L536.73,301.14L536.31,299.3L537.54,295.8L537.99,294L537.48,292.64L536.44,291.17L534.87,289.53L533.92,288.89L530.97,288.87L530.31,288.53L528.84,288.63L528.36,288.08L527.98,286.47L527.21,286L526.21,286.46L526.24,289.41L523.92,289.33L523.23,288.39L523.2,286.22L521.96,285.34L520.37,283.69L519.76,282.58L518.26,282.45L517,281.36L517.12,282.61L515.92,282.62L512.76,280.93L509.92,282.89L509.18,282.13L507.62,282.23L506.4,283.25Z" stroke-miterlimit="10" stroke="#FFFFFF"></path>
<path title="新乡市" fill="#D3D3D3" id="path7" d="M437.92,129.57L438.84,130.87L439.54,132.66L440.38,132.9L444.22,134.65L443.96,136.9L442.87,137.11L440.69,139.64L439.1,142.09L440.26,142.5L440.24,143.52L438.54,143.56L438.25,144.23L435.87,145.07L436.13,150.86L435.73,151.31L433.93,151.34L430.8,151.98L429.38,152.76L428.29,153.9L427.41,155.46L427.47,156.4L429.28,158.01L430.41,159.34L431.46,161.24L431.4,162.52L430.77,163.4L429.33,164.36L426.53,165.38L425.33,167.99L426.74,169.11L428.35,169.14L428.52,170.63L427.18,171.91L425.85,172.59L425.01,172.39L423.53,173.24L420.24,176.62L419.35,176.86L417.91,178.6L417.94,179.99L420.46,182.42L421.49,183.71L421.09,185.5L419.79,186.65L417.19,187L416.28,187.38L414.83,186.58L413.53,186.31L412.01,184.61L410.17,185.81L407.66,185.05L403.14,184.21L400.33,185.02L398.76,185.75L396.15,186.21L389.41,183.98L387.04,182.08L385.4,181.06L383.72,181.37L382.21,183.45L380.62,184.72L379.63,184.83L374.31,184.7L370.46,185.06L368.8,184.13L368.23,183.44L367.07,182.57L366.33,181.06L363.67,181.95L362.5,181.76L358.67,179.07L356.9,179.29L354.86,180.48L352.07,180.48L349.9,178.76L348.93,178.84L345.78,182.37L344.67,184.45L342.75,185.88L338.15,185.51L334.8,187.33L330.59,188.26L328.15,187.99L326.81,186.77L325.92,185.08L324.87,183.93L323.24,183.45L321,183.64L320.17,184.1L317.12,184.92L315.77,184.46L315.23,183.51L313.83,182.31L312.01,182.25L308.27,181.74L308.58,178.46L309.75,176.07L310.71,174.93L312.31,174.29L313.26,173.51L312.31,173.07L311.88,172.07L313.36,171.78L313.36,169.59L310.98,166.04L309.7,162.45L309.05,159.96L308.44,158.73L305.65,159.14L305.7,158L303.55,157.16L302.82,156.33L302.62,154.84L301.49,151.53L301.53,149.36L302.17,148.35L303.34,147.39L303.19,145.66L301.7,143.27L301.28,140.33L300.62,139.73L298.19,139.71L298.06,137.12L297.4,135.84L297.58,134.38L296.3,133.21L296.62,132.8L296.24,131.56L297.22,131.55L297.79,130.84L295.9,127.7L295.56,125.77L294.5,123.53L292.58,121.6L290.33,120.13L289.19,118.87L289.07,117.28L288.34,116.2L289.16,114.81L290.08,114.8L291.53,113.72L293.81,114.69L295.91,113.79L298.09,113.19L298.72,113.69L300.11,113.69L300.31,112.87L299.35,111.82L300.11,109.92L300.13,107.88L302.3,105.33L302.63,104.59L303.53,104.27L303.98,101.92L304.89,101.57L304.57,99.35L304.01,98.19L304.06,97.14L305.22,96.8L305.73,98.62L306.45,98.4L306.98,99.96L308.26,100.19L311.4,100.13L311.41,97.74L310.84,96L311.26,95.48L310.45,94.15L308.37,93.16L309.21,91.4L308.18,88.87L307.77,86.98L308.64,85.21L308.94,83.33L308.35,81.61L307.42,81.95L307.45,81.08L309.5,80.39L307.71,79.68L307.97,78.82L307.39,78.25L307.62,77.37L309.6,77.61L311.29,76.69L312.96,77.75L313.82,77.27L314.85,76.02L318.62,76.01L319.43,76.44L319.13,77.27L319.69,78.27L321.12,77.67L321.6,78.19L322.65,78.15L323.93,81.14L323.51,81.78L324.08,82.42L324.26,84.23L326.06,84.73L325.87,85.17L328.12,87.36L328.87,87.16L328.26,88.22L328.1,90.56L327.55,92.7L325.96,93.96L326.72,95.15L328.7,95.33L329.2,94.87L332.27,94.76L333.75,94.23L334.63,94.42L336.34,93.99L337.8,94.81L339.84,94.29L340.26,93.8L340.66,91.69L342.32,92.05L343.01,93.16L344.28,93.38L345.77,92.07L346.8,91.59L349.07,92.67L349.74,94.06L350.98,94.32L351.97,95.01L352.81,97.16L353.32,99.46L352.76,100.76L352.93,102.56L352.54,104.53L354.13,106.28L354.82,107.73L357.19,109.26L358.64,109.62L360.46,111.12L363.54,112.81L365.49,113.06L366.47,112.71L367.75,113.56L368.63,113.68L371.97,115.04L373.54,115.47L374.84,115.4L374.24,116.53L373.49,116.77L373.18,118.41L373.46,119.67L375.61,120.45L376.98,121.83L378.09,122.11L379.56,121.4L379.97,120.05L381.56,119.27L382.48,120.1L383.62,119.54L383.87,118.5L384.86,118.17L386.26,119.23L387.16,118.64L388.06,119.26L388.12,121.53L386.49,123.13L385.82,124.25L386.07,125.22L386.79,125.78L387.6,129.65L386.62,130.82L386.39,132.23L388.11,134.01L387.57,136.12L385.74,135.95L385.69,137.06L386.56,137.44L386.91,138.7L386.12,139.9L384.93,139.83L386.05,142.56L384.91,143.17L384.5,143.92L384.98,145.82L386.05,146.43L384.59,147.56L384.8,148.39L385.31,147.77L386.8,147.41L388.33,148.13L388.37,149.68L389.4,150.01L390.1,149.02L391.57,148.75L393.72,149.93L394.38,148.35L395.27,147.4L397.46,146.54L398.83,145.7L399.59,143.48L400.81,141.82L404.11,140.65L405.13,139.88L407.02,139.22L408.51,139.36L410.44,140.01L412.04,140.06L412.88,139.59L413.8,138.23L414.12,135.63L413.71,134.64L415.73,133.92L417.51,133.8L419.16,134.19L419.83,133.73L421.96,133.99L424.34,133.53L424.41,132.68L428.93,128.76L431.06,128.8L432.85,128.41Z" stroke-miterlimit="10" stroke="#FFFFFF"></path>
<path title="信阳市" fill="#D3D3D3" id="path15" d="M323.24,486.56L324.13,486.1L325.24,486.19L325.07,485.28L325.15,483.33L325.61,482.78L324.77,481.28L323.7,480.29L323.7,478.73L324.14,477.58L325.31,476.86L325.13,475.63L324.32,475.67L323.47,476.61L322.74,475.64L323.64,473.95L323.5,473.31L322.45,472.96L321.93,470.96L320.34,470.24L319.57,469.79L320.98,468.12L321.51,466.61L321.47,465.34L322.16,466.16L322.5,464.8L323.66,464.79L324.46,464.2L324.69,462.02L324.23,459.89L325.07,456.99L325.65,456.66L324.59,455.46L325.16,454.17L326.39,453.4L327.12,451.11L328.61,449.83L329.48,449.47L330.03,449.36L330.04,447.4L330.65,447.03L332.26,447.05L332.91,447.6L334.32,446.87L335.04,446.99L336.37,448.77L337,449.01L338.77,448.69L339.52,448.97L339.78,450.25L340.77,452.03L341.49,452.26L341.27,454.55L342.78,457.88L342.83,459.27L343.58,460.27L345.48,460.48L347.88,460L348.6,459.07L352.32,458.25L352.55,456.47L353.59,456.94L353.54,457.82L354.14,458.94L353.99,460.21L354.47,461.61L355.51,463L354.67,463.19L354.88,465.99L355.34,466.45L356.5,466.35L357.92,466.79L360.22,465.18L362.2,465.6L362.92,465.19L362.77,464.28L363.18,462.35L365.52,461.72L366.01,462.43L366.1,464.41L367.13,464.42L367.22,465.59L366.4,466.14L366.69,467.07L368.28,466.99L368.82,466.07L370.41,465.57L370.94,466.47L370.79,468.05L371.42,469.42L372.84,471.14L373.7,470.05L374.7,470.05L373.98,471.35L374.55,475.59L375.21,476.15L377.24,475.21L379.88,476.14L380.42,478.11L380.5,480.88L382.3,481.97L382.46,483.62L383.11,484.38L385.06,484.23L387.4,485.83L388.14,484.68L388.99,484.78L390.34,485.58L391.86,484.14L393.31,485.15L394,484.99L394.13,483.48L394.72,483.31L396.97,483.63L398.22,485.05L399.71,484.72L400.95,482.76L402.75,482.53L402.12,481.63L403.74,481.07L405.18,479.3L405.44,477.83L406.64,477.55L406.34,476.32L406.68,475.51L408.67,474.91L408.97,473.59L407.72,472.21L404.76,470.12L402.18,469.28L401.57,468.15L402.71,467.03L403.05,465.96L401.7,464.64L402.01,462.43L401.51,461.43L401.67,459.97L402.74,459.33L405.07,459.45L405.92,459.76L409.22,457.73L410.72,457.81L411.73,459.19L414.14,458.92L414.16,456.91L415.2,455.93L416.29,456.19L416.77,458.7L417.4,458.97L418.95,458.17L421.02,459.9L422.51,459.95L422.88,458.42L422.24,458.19L421.69,456.86L422.14,455.72L424.34,454.22L424.46,453.07L423.75,451.44L422.67,451.36L422.44,448.75L422.93,448.02L424.08,448.49L424.81,448.3L425.63,446.98L428.89,447.38L429.49,446.83L431.59,447.73L432.24,447.59L433.21,445.63L433.16,444.02L434.09,443.52L434.88,444.03L436.24,443.98L438.55,442.77L441.19,442.85L445.44,444.06L447.34,445.02L448.79,446.27L451.22,445.37L451.92,445.74L452.07,447.32L453.21,448.73L454.47,448.71L455.96,449.65L455.64,451.03L456.47,451.81L457.08,450.7L459.3,448.96L460.89,449.22L461.76,450.49L462.81,450.87L464.47,450.63L464.24,451.99L465.8,450.3L466.88,450.11L467.5,450.51L466.87,451.26L468.06,452.05L470.16,450.71L470.7,451.71L471.13,450.91L471.72,451.47L470.98,452.24L472.23,452.9L471.22,453.14L470.86,453.79L471.59,454.8L473.48,454.68L473.14,453.8L474.01,453.96L479.55,452.86L479.96,453.38L481.04,452.2L481.83,452.42L481.95,454.12L481.68,455.44L482.45,454.89L483.75,454.97L484.04,455.77L484.9,455.99L484.44,457.2L487,458.6L488.15,458.63L488.14,459.54L488.84,459.49L488.84,460.44L490.03,461.73L490.54,462.8L491.75,466.47L492.57,466.78L492.48,467.44L493.84,467.78L494.78,469.39L496.72,469.74L496.86,470.53L495.38,471.34L496.36,471.85L498.48,470.01L500.24,469.26L502.39,471.57L504.16,470.21L505.32,468.93L505.18,471.2L506.19,471.12L506.91,468.7L507.5,467.67L507.6,466.48L507.05,464.68L509.23,464.48L509.42,463.95L508.61,463.07L508.59,462.29L509.46,461.41L511.19,462.51L513.35,463.55L515.09,462.92L516.17,460.28L517.52,462.08L517.69,463.13L517.1,464.45L517.81,464.4L519.28,462.53L521.16,460.63L522.84,460.75L522.7,458.08L523.27,457.3L524.74,456.65L527.24,453.23L527.62,452.26L529.56,452.11L531.22,453.28L529.4,453.3L528.37,454.52L526.12,456.08L525.85,457.96L524.32,458.85L523.41,459.8L523.25,460.68L523.95,460.38L525.87,460.35L525.99,461.13L526.86,462.1L526.64,464L525.9,464.21L525.01,465.53L526.78,465.85L526.84,467.8L526.45,468.53L527.41,469.45L527.4,470.67L528.34,473.23L528.22,475.17L528.35,478.4L528.86,478.85L529.09,482.17L528.45,483.32L529.21,483.56L529.48,485.27L530.47,487.03L529.83,488.57L529.64,491.64L530.61,494.35L530.65,495.69L531.64,496.96L532.39,498.54L532.04,500.19L532.16,501.64L530.96,505.43L531.52,507.8L532.49,508.54L532.2,509.87L530.85,510.8L530.55,511.69L531.07,513.19L530.29,514.15L531.08,514.63L531.39,517.9L530.77,517.77L530.64,518.91L529.51,522L529.29,523.66L529.96,524.48L530.35,526.22L529.44,529.09L528.27,530.74L528.01,532.17L527.76,536.02L528.81,536.45L529.68,537.5L529.86,538.42L529.4,540.61L528.5,540.65L527.02,542.43L524.45,542.7L523.68,541.24L522.46,542.72L521.84,542.27L520.35,543.98L519.69,542.83L518.29,542.72L517.67,541.95L515.83,541.12L515.33,541.74L513.35,541.76L512.61,542.44L512.82,543.87L511.2,543.59L510.38,543.02L509.07,543.27L508.37,542.38L507.11,542.18L505.5,544.22L503.36,544.73L501.63,546.67L499.95,547.42L498.57,548.54L498.15,549.41L496.46,549.96L495.37,551.5L493.31,551.13L491.71,552.89L489.83,554L488.95,555.32L488.77,556.68L488.09,557.09L489.38,559.53L488.99,561.05L487.92,561.42L484.55,563.44L484.44,564.42L483.42,566.28L483.74,566.76L483.45,568.09L482.25,570.47L480.57,571.57L479.74,572.52L478.55,573.04L478.02,573.83L478.6,576.67L479.76,578.93L479.36,579.71L479.15,582.46L478.22,583.91L476.46,584.56L474.62,584.17L473.79,585.54L472.48,586.4L471.3,586.33L470.62,585.11L469.41,584.57L467.41,585.96L466.46,585.47L467.4,583.19L466.67,582.13L464.8,581.52L463.61,581.56L462.65,579.47L463.28,577.52L463.27,575.43L462.83,574.48L463.51,572.6L463.39,571.66L464.57,569.09L465.05,567.08L462.85,567.15L462.34,566.18L460.98,566.2L460.97,565.58L459.78,564.67L459.44,562.31L458.25,561.66L455.43,561.9L454.53,562.28L454.71,564.52L452.76,565.82L452.4,567.13L453.11,567.69L452.68,568.89L453.39,570.13L452.31,571.07L451.43,571.23L451.75,572.43L448.9,572.19L447.24,571.41L446.24,571.46L445.47,570.27L444.78,570.28L443.53,572.82L442.74,573.37L443.61,574.69L442.77,575.02L442.41,576.55L441.18,575.86L440.29,573.83L439.14,573.89L436.84,575.93L436.51,576.75L435.44,575.55L432.69,576.24L431.76,576.79L430.82,576.66L430.68,575.8L428.33,576.04L427.46,577.62L426.34,577.97L425.8,576.73L424.74,575.74L422.49,575.55L421.87,575.09L421.88,573.95L421.08,573.27L421.02,571.98L421.48,571.05L420.73,571.07L419.4,570.32L418.46,570.68L417.72,570.33L416.18,571.06L415.6,570.24L413.63,570.48L413.94,568.21L411.91,568.44L411.1,568.1L409.85,566.33L409.48,565.23L408.65,565.01L408.4,564.17L406.01,563.82L405.56,564.59L404,564.83L403.21,566.59L402.03,566.71L401.79,567.32L400.7,566.55L399.54,561.08L399.48,559.36L399.93,558.23L399.62,557.42L400.52,555.89L401.63,555.44L401.96,552.19L403.1,551.8L403.59,550.93L402.42,550.06L402.48,548.2L402.9,547.4L402.66,546.2L403.23,544.91L402.75,543.71L401.82,543.95L400.12,543.28L399.6,543.63L399.68,545.01L399.2,545.79L397.8,546.16L396.91,543.47L395.8,543.47L395.29,544.64L395.7,546.41L393.81,546.97L392.2,546.38L391.19,547.24L390.19,546.75L389.78,547.83L388.29,547.05L387.16,547.25L386.89,546.25L385.32,545.71L384.38,546.37L382.84,546L380.6,544.76L377.85,544.79L377.13,545.14L375.11,545.1L374.61,544.01L372.4,541.04L372.18,540.17L370.89,538.57L369.64,536.01L369.74,535.05L368.29,536.11L367.11,534.95L365.78,534.12L364.38,533.68L363.11,534.02L362.71,535.14L361.5,535.35L359.97,534.95L359.31,535.78L359.38,536.8L358.55,539.11L356.64,539.37L355.75,540.33L355.45,541.75L354.08,541.45L353.26,541.78L352.82,542.86L351.77,542.74L350.84,543.25L348.69,543.09L346.11,545.34L345.17,544.94L344.55,543.89L344.54,542.93L343.88,541.36L342.66,540.44L342.7,538.23L342.12,536.78L343.02,535.23L342.88,533.43L340.84,531.96L340.64,530.66L339.07,531.11L338.27,532.06L337.3,534.21L335.06,535.19L334.51,534.69L333.72,535.14L331.79,533.61L331.75,532.04L331.08,530.88L331.47,529.32L331.52,527.29L331.2,526.42L329.66,525.91L328.59,524.98L328.8,523.03L329.65,521L327.96,520.19L326.98,520.2L325.82,519.48L325.11,519.59L324.23,518.8L324.19,517.18L325.23,515.37L326.12,515.15L327.27,513.23L326.32,511.79L324.65,511.12L323.09,509.43L322.85,508.64L321.28,507.92L321.27,506.09L320.7,503.29L322.09,503.6L322.37,504.55L323.36,504.19L324.88,501.71L324.64,499.08L326.51,495.92L326,493.86L324.73,494.29L323.59,492.93L323.18,490.84L322.42,489.93L322.32,488.26L323.32,487.96ZM325.07,485.28L324.14,484.39L323.72,484.8L324.13,486.1L323.24,486.56L322.75,485.33L323.19,484.39L325.15,483.33Z" stroke-miterlimit="10" stroke="#FFFFFF"></path>
<path title="许昌市" fill="#D3D3D3" id="path10" d="M371.97,260.75L373.19,261.85L373.23,263.52L374.46,264.63L374.62,265.93L373.53,267.79L373.44,269.66L374.6,273.99L374.38,275.86L373.3,277.39L373.26,277.97L372.18,278.74L372.98,282.5L373.04,283.58L374.08,284.41L374.61,287.14L375.35,288.92L376.92,289.6L376.97,291.89L376.47,292.28L376.79,294.38L375.79,295.18L376.34,302.47L377.36,303.52L376.88,304.56L377.31,305.21L376.95,306.64L375.9,306.75L375.92,307.92L376.82,307.86L377.33,308.95L378.03,308.98L378.19,310.65L377.04,312.75L376.75,314.9L374.88,316L371.01,315.14L370.32,313.82L367.93,313.55L367.36,312.98L366.15,313.06L365.37,312.54L364.3,312.84L364.19,312.02L362.58,312.78L361.97,311.69L362.41,310.9L361.11,307.94L359.82,306.6L358.16,305.43L358.29,304.48L359.43,302.95L359.19,299.49L358.1,298.05L357.08,298.31L357.09,297.28L355.51,297.29L354.5,295.22L353.37,295.61L352.66,295.2L352.82,293.76L352.32,292.22L350.78,291.38L349.28,291.24L347.09,291.87L345.03,291.9L342.6,292.81L339.75,294.67L339.2,296L337.77,295.7L337.69,296.33L336.5,296.28L336.28,295.64L334.8,296.05L333.81,295.69L333.58,296.7L334.9,300.17L333.84,300.44L333.97,303.06L333.16,304.34L330.64,304.05L330.43,302.4L330.02,302.35L329.82,302.81L329.38,302.84L329.24,302.91L328.76,303.46L327.89,303.13L326.48,303.46L326.01,303.01L324.82,303.15L325.6,303.84L324.32,304.9L322.26,304.88L321.99,305.96L321,306.28L320.7,307.18L321.38,307.59L321.53,308.67L324.22,309.55L324.41,311.87L323.62,313.74L323.61,316.04L322.64,316.58L321.84,318.23L322.11,319.42L323.37,319.67L324.5,320.59L324.2,322.22L322.73,322.69L322.55,323.97L320.85,324.73L320.13,323.01L319.55,323.33L319.21,324.96L318.75,325.24L317.06,324.94L315.8,324.34L313.32,324.7L312.59,323.93L312.64,324.75L311.82,325.51L310.21,324.72L308.86,325.66L308.71,324.45L309.85,323.18L307.64,322.97L307.19,322.49L307.86,321.13L306.79,320.07L306.46,318.25L304.19,318.44L303.71,317.68L301.2,318.45L299.87,318.36L298.48,318.95L294.81,319.73L294.54,317.5L293.27,316.73L292.41,317.1L287.31,314.41L289.31,313L288.62,312.55L288.14,310.98L288.59,308.76L288.48,307.79L286.86,305.56L286.2,303.57L286.65,302.36L288.19,299.89L288.62,298.08L290.97,296.3L291.15,295.29L291.23,291.26L290.16,289.47L289.54,286.17L288.65,285.19L286.95,285.19L285.62,284.81L284.8,285.25L284.7,286.43L283.7,286.65L282.38,283.46L283.45,282.49L280.45,280.26L278.8,279.78L278.4,278.25L277.01,278.43L276.34,276.84L275.84,276.61L274.69,277.28L274.79,278.5L274.21,279.19L273.46,279.12L273,277.98L271.88,277.4L268.76,278.12L266.81,277.9L266.13,277.32L265.76,276.19L264.25,275.48L263.85,274.26L264.17,272.99L263.05,271.71L261.62,269.41L261.51,268.14L261.91,266.95L261.7,266.11L260.78,265.45L258.98,264.95L258.18,264.01L258.48,261.29L259.17,259.5L259.65,259.07L261.11,259.55L262.22,259.41L265.39,258.33L266.29,259.08L268.51,257.31L269.38,256.32L269.32,255.7L270.53,253.78L271.85,253.81L273.1,252.3L273.21,251.18L274.26,250.68L277.35,250.83L278.15,250.25L278.17,249.25L281.8,249.15L281.74,246.66L282.36,245.56L281.93,244.66L282.82,243.06L285.06,243.09L285.55,244.05L287.12,244.81L286.8,245.97L288.98,246.42L290.1,246.24L291.36,246.54L290.59,248.82L291.3,249.49L292.72,249.38L295.61,251.22L296.76,251.64L297.85,250.24L299.36,250.74L300.52,250.26L301.22,251.06L301.09,251.89L302.31,253.13L304.89,253.86L305.85,253.07L307.09,252.9L309.1,253.66L309.88,253.67L311.39,254.8L312.31,256.35L313.22,256.52L314.61,258.08L315.69,258.04L316.63,257.21L318.88,257.88L318.59,256.42L319.83,256.24L319.84,255.03L321.16,254.53L322.08,253.13L323.98,253.6L325.93,253.51L327.45,251.95L327.26,251.52L328.46,250.9L331.19,252.49L332.74,252.57L332.89,252.05L335.78,251.76L336.25,251.99L337.12,252.45L337.57,253.36L337.27,254.8L338.09,255.82L339.19,255L340.91,254.63L341.21,255.35L343.79,256.01L343.82,257.14L344.55,257.11L345.02,258.01L346.5,258.27L346.28,259.68L347.21,259.41L347.48,260.67L348.26,261.89L351.1,262.37L352.03,261.3L352.79,261.57L353.72,260.94L354.47,262.16L355,261.02L356.59,261.9L357.5,263.41L356.92,263.93L357.53,264.55L357.63,265.93L358.9,266.25L359.52,266.94L362,266.5L362.49,265.17L366.1,264.69L366.54,262.74L367.24,261.98L370.69,262.07ZM329.38,302.84L329.82,302.81L330.02,302.35L330.43,302.4L330.64,304.05L329.22,303.64L329.24,302.91Z" stroke-miterlimit="10" stroke="#FFFFFF"></path>
<path title="郑州市" fill="#D3D3D3" id="path1" d="M368.23,183.44L368.22,184.87L367.32,190.21L366.24,193.48L364.86,194.31L362.68,193.93L359.94,194.31L358.87,195.15L359.98,197.03L362.61,199.46L363.62,200.97L362.29,202L360.39,204.86L360.65,206.68L362.26,208.39L362.21,210.46L362.49,212.88L361.53,213.92L362.21,217.48L361.64,218.37L361.93,219.82L361.03,219.99L361.06,218.8L359.37,218.5L359.15,219.58L360.24,219.83L359.91,221.53L359.38,222.24L359.56,223.35L358.48,223.95L357.41,225.37L356.75,228L356.14,231.86L356.18,232.97L355.13,234.28L353.89,234.22L353.14,233.17L350.53,231.61L349.34,233.4L348.09,234.37L347.97,235.53L348.95,235.87L349.25,236.82L349.08,238.39L347.81,239.1L346.26,239.51L344.18,239.09L342.28,239.59L342.31,237.55L341.28,237.31L340.5,238.61L339.13,238.45L338.8,237.59L337.98,237.37L336.84,239.32L335.56,242.31L335.59,244.27L336.23,247.05L335.73,248.72L336.51,249.61L336.25,251.99L335.78,251.76L332.89,252.05L332.74,252.57L331.19,252.49L328.46,250.9L327.26,251.52L327.45,251.95L325.93,253.51L323.98,253.6L322.08,253.13L321.16,254.53L319.84,255.03L319.83,256.24L318.59,256.42L318.88,257.88L316.63,257.21L315.69,258.04L314.61,258.08L313.22,256.52L312.31,256.35L311.39,254.8L309.88,253.67L309.1,253.66L307.09,252.9L305.85,253.07L304.89,253.86L302.31,253.13L301.09,251.89L301.22,251.06L300.52,250.26L299.36,250.74L297.85,250.24L296.76,251.64L295.61,251.22L292.72,249.38L291.3,249.49L290.59,248.82L291.36,246.54L290.1,246.24L288.98,246.42L286.8,245.97L287.12,244.81L285.55,244.05L285.06,243.09L282.82,243.06L281.93,244.66L282.36,245.56L281.74,246.66L281.8,249.15L278.17,249.25L278.15,250.25L277.35,250.83L274.26,250.68L273.21,251.18L273.1,252.3L271.85,253.81L270.53,253.78L269.32,255.7L269.38,256.32L268.51,257.31L266.29,259.08L265.39,258.33L262.22,259.41L261.11,259.55L259.65,259.07L258.99,257.9L257.46,257.39L255.33,257.47L254.43,256.43L253.78,256.3L253.05,255.15L251.12,255.6L248.05,255.44L247.41,254.95L245.71,255.71L243.44,255.92L240.77,255.03L239.73,255.42L238.1,254.94L236.64,255.45L236.73,253.85L237.92,253.31L235.88,251.31L235.02,251.33L233.88,250.57L231.66,251.6L231.47,250.2L230.48,249.99L228.9,249.81L228.59,248.56L226.31,249.32L225.85,248.13L226.06,246.25L225.25,245.93L225.47,244.93L226.38,244.44L226.6,243.15L226,241.68L226.67,241.03L227.17,239.71L227.4,235.74L227.02,233.1L229.6,232.68L230.29,232.06L232.52,233.56L233.28,234.47L236.34,234.71L238.05,234.57L238.66,235.12L241.88,234.87L242.75,235.75L244.44,234.78L244.17,234.15L244.85,232.11L244.69,230.94L245.09,229.06L246.83,228.43L249.56,228.46L250.33,227.55L248.71,227.29L247.24,226.56L245.07,226.57L243.28,226.84L241.36,226.62L240.24,225.12L240.12,224.23L238.83,222.79L238.64,221.62L237.13,221.78L236.47,220.89L237.06,219.34L236.55,217.81L235.07,217.57L235.1,217.16L236.7,217.17L237.21,215.81L235.67,213.92L236.13,212.63L235.5,210.83L235.59,209.57L237.44,208.93L239.18,207.96L240.32,208.31L241.66,209.48L242.41,209.65L243.81,207.62L245.28,207.54L246.02,206.13L243.2,204.55L242.47,202.72L243.06,202.23L243.14,200.64L242.24,199.54L241.1,199.29L239.87,199.65L237.13,199.6L236.25,199.27L234.36,199.81L233.72,199.03L233.65,197.85L234.06,195.95L235.31,195.05L236.4,195.88L237.81,196.04L239.05,193.85L239.69,193.47L240.26,191.51L240.77,191.12L242.47,191.21L243.6,191.77L245.89,193.61L246.35,193.67L249.51,191.73L250.75,190.74L251.11,189.9L252.21,189.84L254.18,190.9L255.57,192.41L257.53,192.92L262.06,192.09L263.18,191.01L265.9,190.77L265.13,187.45L268.91,186.39L270.64,185.63L273.51,184.68L274.39,182.73L274.62,181.06L275.06,180.29L276.64,179.43L279.44,179.54L281.86,180.75L283.56,180.44L284.55,179.78L286.38,177.48L287.62,176.35L290.69,175.24L292.54,175.94L292.76,178.13L294.68,178.65L297.32,179L299.09,178.69L300.92,177.98L303.61,177.75L304.5,178.08L306.62,179.78L308.27,181.74L312.01,182.25L313.83,182.31L315.23,183.51L315.77,184.46L317.12,184.92L320.17,184.1L321,183.64L323.24,183.45L324.87,183.93L325.92,185.08L326.81,186.77L328.15,187.99L330.59,188.26L334.8,187.33L338.15,185.51L342.75,185.88L344.67,184.45L345.78,182.37L348.93,178.84L349.9,178.76L352.07,180.48L354.86,180.48L356.9,179.29L358.67,179.07L362.5,181.76L363.67,181.95L366.33,181.06L367.07,182.57Z" stroke-miterlimit="10" stroke="#FFFFFF"></path>
<path title="周口市" fill="#D3D3D3" id="path16" d="M432.77,394.32L432.77,395L428.97,395.6L428.7,397.87L428.27,398.17L426.73,397.41L425.21,397.29L423.54,397.55L423.03,396.37L420.78,396.26L420.7,394.25L420.24,393.83L419.85,392.18L418.03,392.03L416.97,390.43L415.95,389.87L415.63,387.78L414.51,387.3L414.34,385.9L412.18,384.76L413.73,381.73L413.86,380.47L415.63,378.91L416.89,374.37L416.71,371.2L416.09,369.86L414.51,369.74L412.55,370.2L412.44,368.32L410.67,368.46L411.07,367.77L410.38,367.37L409.61,365.2L408.76,364.71L406.67,365.23L405.94,364.92L404.92,363.39L403.4,362.82L403.05,361.45L402.08,361.27L402.26,359.71L401.75,359.02L401.78,357.79L400.89,355.91L400.04,355.47L398.47,355.53L397.08,356.4L393.79,356.56L393.96,354.59L392.98,353.64L391.45,354.29L391.04,352.35L389.79,351.19L386.09,351.61L385.62,352.05L383.63,352.34L382.37,353.25L381.73,352.39L380.51,352.56L380.3,351.44L376.55,349.28L374.33,350.28L373.87,348.36L374.21,347.1L374,345.54L374.78,344.61L375.35,340.98L374.16,340.42L373.76,339.11L372.5,336.47L372.54,335.93L373.86,335.19L373.64,333.2L372.45,331.66L372.38,329.42L372.06,328.6L371.97,326.46L371.1,325.01L370.94,323.74L367.62,325.23L365.92,325.27L364.98,326.23L364.95,327.42L363.36,328.27L362.66,327.68L361.74,328.56L361.47,329.91L359.14,329.64L358.28,329.8L358.46,327.49L358.23,326L356.5,326.16L355.91,322.35L356.27,321.01L357.37,319.75L357.02,317.71L356.53,316.77L359.89,316.42L360.73,316.67L360.53,314.7L359.94,313.74L360.04,312.02L361.05,311.55L361.97,311.69L362.58,312.78L364.19,312.02L364.3,312.84L365.37,312.54L366.15,313.06L367.36,312.98L367.93,313.55L370.32,313.82L371.01,315.14L374.88,316L376.75,314.9L377.04,312.75L378.19,310.65L378.03,308.98L377.33,308.95L376.82,307.86L375.92,307.92L375.9,306.75L376.95,306.64L377.31,305.21L376.88,304.56L377.36,303.52L376.34,302.47L375.79,295.18L376.79,294.38L376.47,292.28L376.97,291.89L376.92,289.6L375.35,288.92L374.61,287.14L374.08,284.41L373.04,283.58L372.98,282.5L372.18,278.74L373.26,277.97L373.3,277.39L374.38,275.86L374.6,273.99L373.44,269.66L373.53,267.79L374.62,265.93L374.46,264.63L373.23,263.52L373.19,261.85L371.97,260.75L372.7,260.16L373.38,258.09L374.64,257.9L375.91,258.92L378.55,258.97L380.02,260.76L381.18,261.29L383.98,261.67L385.89,261.19L387.03,259.2L388.67,258.99L389.22,258.57L390.65,255.88L389.4,255.11L388.26,254.93L387.68,254.15L388.63,253.59L388.78,251.7L387.98,251.29L389.14,250.99L389.02,251.96L390.38,252.88L391.23,252.89L391.26,251.71L392.91,251.77L393.54,252.3L394.29,253.82L395.82,254.07L396.72,253.64L397.23,254.47L397.61,257.25L399.8,256.93L399.76,258.42L400.28,258.89L403.45,258.23L404.62,258.54L405.51,259.69L407.66,259.59L408.93,260.93L410.86,260.94L411.98,261.62L414.17,261.6L415.28,261.97L416.24,263.5L416.86,263.82L418.98,262.86L419.56,262.31L420.12,260.45L421.7,260.32L422.37,259.68L424.71,259.93L426.49,258.87L426.63,257.28L427.83,257.42L429.96,258.53L432.7,259.14L433.22,256.98L434.2,257.29L436.25,257.26L436.93,258.17L438.97,259.59L440.75,259.47L441.3,260.57L442.44,260.95L443.81,260.57L446.49,261.39L447.58,263.89L450.45,264.13L451.5,264.51L452.8,265.71L454.62,265.65L453.9,267.89L455.27,270.1L455.3,272.01L454.77,272.87L454.66,274.38L453.98,275.9L454.61,277.66L453.85,278.42L454.08,280.77L453.71,282.14L454.85,282.39L455.93,283.35L455.9,283.95L454.15,286.82L452.87,287.16L450.53,286.91L449.65,287.15L449.71,288.11L450.51,289.41L449.26,290.85L448.52,292.15L448.84,292.82L448.11,294.7L447.34,295.52L447.38,296.45L449.25,297.18L450.71,297.42L452.8,297.1L452.73,295.71L453.54,294.25L454.43,294.02L456.15,294.57L456.74,295.5L459.41,295.44L460.65,294.59L462.1,292.71L461.22,291.22L462.01,291.05L464.55,292.75L465.56,292.63L466.64,291.79L466.85,290.34L466.7,288.75L467.23,288.01L470.08,287.53L470.76,287.68L470.2,289.32L470.47,290.22L472.41,290.27L473.19,289.22L474.57,288.97L475.87,287.68L477.09,287.9L478.38,289L480.98,290.54L484.5,291.38L486.34,291.26L486.7,289.08L489.25,287.75L490.55,288L491.54,287.55L493.15,287.61L493.67,287.27L494.83,285.43L495.03,284.3L494.81,281.21L494.44,280.04L497.3,279.83L501.69,280.2L502.44,279.7L503.81,280.09L504.92,282.86L504.39,284.45L504.57,285.61L503.83,286.06L501.85,286.31L501.24,285.94L499.9,287.04L500.44,288.25L499.11,288.64L498.29,291.08L498.96,291.36L498.7,292.42L497.81,292.77L497.67,295.51L496.87,296.04L496.95,297.5L496.24,298.15L495.97,299.6L496.81,300.12L495.48,301.23L495.55,302.59L494.71,302.6L494.67,304.09L495.8,304.02L496.39,304.57L497.86,303.92L499.01,304.91L500.35,305.02L501.8,304.02L503.01,305.03L503.25,308.03L502.32,308.6L502.25,310.05L501.39,310.46L502.03,311.39L501.83,313.13L501.16,315.55L498.91,314.63L498.12,314.05L496.49,315.03L496.29,316.01L496.95,316.74L497.41,318.24L498.24,318.81L499.36,320.45L499.96,322.29L499.45,324.2L500.49,325.49L499.77,325.58L500.05,327.38L499.96,329.08L501.46,331.89L502.2,332.76L503.6,337.4L499.92,338.19L496.57,338.4L495.93,340.05L495.3,339.64L493,339.96L491.35,341.04L490.33,339.72L488.83,340.43L487.59,340.5L486.81,339.45L482.82,340.64L482.13,342.38L480.9,344.35L481.24,345.23L480.42,346.91L480.26,346.4L477.54,344.46L475.52,346.83L476.08,348.24L475.37,349.33L475.85,349.54L475.56,352.89L474.62,353.17L473.53,351.99L473.47,352.97L472.75,352.98L473.01,353.83L472.68,354.98L472.84,356.49L474,358.38L472.45,361.19L472.73,361.89L475.16,361.86L474.87,362.8L475.66,363.29L475.8,365.54L477.39,365.88L476.8,368.68L476.93,370.21L475.67,369.87L474.53,370.21L474.42,371.73L475.09,373.26L475.02,374.42L474.03,375.63L474.22,377.34L472.75,378.68L472.74,379.3L473.71,380.1L470.88,381.25L470.65,383.92L471.21,385.62L471.33,388.05L470.51,387.85L470.27,389.1L468.29,388.48L467.99,389.06L466.07,388.65L465.18,389.75L463.97,389.8L462.59,391.25L461.38,390.35L459.02,391.87L458.59,394.07L457.19,394.57L453.17,394.73L449.02,394.36L448.05,394.64L447.49,393.65L446.51,394.31L444.8,393.84L443.72,393.06L441.67,392.46L441.84,390.41L440.8,389.48L439.6,388.96L439.34,387.43L436.32,386.72L435.58,388.41L434.01,388.62L433.31,389.43L433.63,390.9L432.77,393.51Z" stroke-miterlimit="10" stroke="#FFFFFF"></path>
<path title="驻马店市" fill="#D3D3D3" id="path17" d="M329.48,449.47L328.99,449.13L328.01,447.2L326.69,446.01L327.34,444.8L326.3,443.61L325.42,443.3L324.4,443.6L321.34,441.67L320.25,440.08L318.21,438.73L315.55,439.1L313.71,437.3L313.12,437.88L311.25,437.54L310.42,436.95L309.96,438.64L310.64,439.19L310.87,441.94L308.46,442.65L308.67,443.93L307.96,443.86L307.45,445.76L306.31,446.76L305.73,449.26L303.52,450.79L301.81,450.3L300.77,451.9L300.7,452.79L298.79,453.22L296.87,451.99L295.56,452.32L295.53,451.21L294.47,451.3L293.56,450.79L292.08,448.97L290.01,448.07L288.25,450.32L287.28,452.26L286.56,453.02L285.33,452.55L284.49,453.2L282.92,452.11L282.47,451L281.91,450.93L281.4,451.88L280.71,451.07L278.72,450.47L278.55,450.02L275.62,450.3L275.05,451.96L272.9,452.91L271.39,452.97L270.73,451.88L270.93,451.25L270.5,448.87L271.04,447.92L271.13,445.91L270.13,445.56L269.55,444.3L269.71,443.65L271.03,442.73L271.85,440.62L272.83,440L274.32,440.6L275,441.65L275.89,441.99L276.44,443.45L277.48,442.54L276.58,440.76L274.33,440.21L274.79,439.21L273.85,438.07L272.18,437.89L271.6,436.28L270.06,436.23L270.29,434.45L271,433.83L270.86,432.54L268.7,429.7L269.46,428.22L269.37,426.74L268.81,426.14L269.63,424.63L268.55,423.22L267.6,422.57L267.81,421.55L268.68,420.94L269.63,419.35L270.46,418.73L271.4,417.25L270.98,416.81L271.64,413.68L270.77,413.23L269.12,413.19L267.23,412.42L266.66,411.43L265.7,410.96L265.16,412.06L262.81,411.79L262.26,410.76L261.12,410.27L262.17,407.21L262.86,405.72L263.27,404.04L263.94,402.97L265.34,402.28L267.19,399.75L267.58,398.6L269.51,397.69L269.92,396.53L271.45,396.11L272.71,396.82L274.4,395.41L275.68,395.32L276.34,394.68L277.68,395.01L280.54,395.05L281.66,395.57L282.84,395.16L283.63,394.39L285.87,393.75L288.67,391.26L288.88,389.56L289.74,387.1L291.2,386.34L293.05,386.32L294.64,385.89L295.7,386.36L299.48,386.39L300.89,385.67L301.52,386.56L302.57,386.78L303.43,387.88L304.28,388.22L305.32,385.83L306.53,386.31L308.41,386.22L309.04,385.6L310.65,387.41L311.5,387.05L312.37,385.86L313.65,383.4L313.28,382.93L311.65,382.94L310.34,380.09L309.68,377.09L310.28,374.35L310.81,370.96L311.64,368.6L312.87,367.12L313.04,364.39L312.76,363.69L314.27,361.86L316.36,361.05L317.45,357.69L317.9,356.49L319.56,356.63L319.82,355.11L320.58,354.83L324.94,354.9L325.35,354.49L328.06,354.59L328.66,353.29L330.58,351.63L332.64,350.93L333.46,349.66L334.35,349.5L338.99,349.6L340.86,351.04L341.96,351.07L342.83,350.12L344.12,349.72L344.43,349.13L345.4,349.17L347.06,347.03L347.28,345.92L348.47,345.87L348.6,344.62L350.4,344.4L350.86,343.75L352.16,343.82L352.49,344.4L354.39,345.1L356.63,346.78L358.27,345.96L358.45,346.86L357.11,347.21L357.05,348.1L358.23,348.44L359.65,347.7L359.73,350.31L361.63,350.78L361.52,351.67L362.44,352.09L363.55,351.83L364.39,352.44L363.52,353.89L365.36,355.54L365.81,353.12L367.35,352.43L369.19,352.68L370.8,351.75L372.62,351.53L374.33,350.28L376.55,349.28L380.3,351.44L380.51,352.56L381.73,352.39L382.37,353.25L383.63,352.34L385.62,352.05L386.09,351.61L389.79,351.19L391.04,352.35L391.45,354.29L392.98,353.64L393.96,354.59L393.79,356.56L397.08,356.4L398.47,355.53L400.04,355.47L400.89,355.91L401.78,357.79L401.75,359.02L402.26,359.71L402.08,361.27L403.05,361.45L403.4,362.82L404.92,363.39L405.94,364.92L406.67,365.23L408.76,364.71L409.61,365.2L410.38,367.37L411.07,367.77L410.67,368.46L412.44,368.32L412.55,370.2L414.51,369.74L416.09,369.86L416.71,371.2L416.89,374.37L415.63,378.91L413.86,380.47L413.73,381.73L412.18,384.76L414.34,385.9L414.51,387.3L415.63,387.78L415.95,389.87L416.97,390.43L418.03,392.03L419.85,392.18L420.24,393.83L420.7,394.25L420.78,396.26L423.03,396.37L423.54,397.55L425.21,397.29L426.73,397.41L428.27,398.17L428.7,397.87L428.97,395.6L432.77,395L432.77,394.32L434.37,394.75L434.9,396.34L434.47,397.37L435.18,398.67L435.23,400.07L436.56,401.27L435.35,402.27L434.5,402.34L432.26,401.84L433.18,404.13L431.39,405.27L431.7,406.6L432.44,407.28L434.57,407.44L435.34,408.84L436.47,409.61L437.19,411.56L438.76,411.05L440.55,410.84L443.46,410.98L444.86,411.71L445.95,411.86L446.08,413.69L445.19,413.91L445.41,414.76L448.99,415.17L450.8,415.17L452.34,416.19L453.65,415.51L455.98,415.82L456.17,417.32L457.35,418.12L457.82,419.82L459.38,420.51L460.81,420.37L461.52,420.72L461.9,421.95L460.59,422.3L461.23,423.62L460.69,425.47L461.36,426.65L462.26,427.16L462.83,428.35L462.31,428.56L460.8,428.02L459.94,428.33L460.09,429.51L460.66,430.19L459.68,435.25L460.16,435.92L459.66,438.02L460,438.86L459.6,440.18L460.18,440.7L460.03,442L461.36,441.33L460.64,440.64L461.05,440.18L462.14,441.31L462.03,443.46L463.51,442.86L462.5,443.92L462.56,445.41L461.91,444.41L461.17,444.77L461.13,446.03L461.85,445.89L461.6,447.34L462.52,448.1L462.04,448.81L460.89,449.22L459.3,448.96L457.08,450.7L456.47,451.81L455.64,451.03L455.96,449.65L454.47,448.71L453.21,448.73L452.07,447.32L451.92,445.74L451.22,445.37L448.79,446.27L447.34,445.02L445.44,444.06L441.19,442.85L438.55,442.77L436.24,443.98L434.88,444.03L434.09,443.52L433.16,444.02L433.21,445.63L432.24,447.59L431.59,447.73L429.49,446.83L428.89,447.38L425.63,446.98L424.81,448.3L424.08,448.49L422.93,448.02L422.44,448.75L422.67,451.36L423.75,451.44L424.46,453.07L424.34,454.22L422.14,455.72L421.69,456.86L422.24,458.19L422.88,458.42L422.51,459.95L421.02,459.9L418.95,458.17L417.4,458.97L416.77,458.7L416.29,456.19L415.2,455.93L414.16,456.91L414.14,458.92L411.73,459.19L410.72,457.81L409.22,457.73L405.92,459.76L405.07,459.45L402.74,459.33L401.67,459.97L401.51,461.43L402.01,462.43L401.7,464.64L403.05,465.96L402.71,467.03L401.57,468.15L402.18,469.28L404.76,470.12L407.72,472.21L408.97,473.59L408.67,474.91L406.68,475.51L406.34,476.32L406.64,477.55L405.44,477.83L405.18,479.3L403.74,481.07L402.12,481.63L402.75,482.53L400.95,482.76L399.71,484.72L398.22,485.05L396.97,483.63L394.72,483.31L394.13,483.48L394,484.99L393.31,485.15L391.86,484.14L390.34,485.58L388.99,484.78L388.14,484.68L387.4,485.83L385.06,484.23L383.11,484.38L382.46,483.62L382.3,481.97L380.5,480.88L380.42,478.11L379.88,476.14L377.24,475.21L375.21,476.15L374.55,475.59L373.98,471.35L374.7,470.05L373.7,470.05L372.84,471.14L371.42,469.42L370.79,468.05L370.94,466.47L370.41,465.57L368.82,466.07L368.28,466.99L366.69,467.07L366.4,466.14L367.22,465.59L367.13,464.42L366.1,464.41L366.01,462.43L365.52,461.72L363.18,462.35L362.77,464.28L362.92,465.19L362.2,465.6L360.22,465.18L357.92,466.79L356.5,466.35L355.34,466.45L354.88,465.99L354.67,463.19L355.51,463L354.47,461.61L353.99,460.21L354.14,458.94L353.54,457.82L353.59,456.94L352.55,456.47L352.32,458.25L348.6,459.07L347.88,460L345.48,460.48L343.58,460.27L342.83,459.27L342.78,457.88L341.27,454.55L341.49,452.26L340.77,452.03L339.78,450.25L339.52,448.97L338.77,448.69L337,449.01L336.37,448.77L335.04,446.99L334.32,446.87L332.91,447.6L332.26,447.05L330.65,447.03L330.04,447.4L330.03,449.36Z" stroke-miterlimit="10" stroke="#FFFFFF"></path>
</svg>