<svg xmlns="http://www.w3.org/2000/svg" xmlns:xlink="http://www.w3.org/1999/xlink" width="600" height="600">
<path title="宝山区" fill="#D3D3D3" id="path9" d="M245.72,302.7L243.25,305.42L241.65,305.09L241.44,303.46L239.44,302.85L239.59,301.44L237.23,301.5L237.68,299.59L236.85,299.91L234.94,298.99L236.81,294.9L235.06,294.96L234.23,294.44L234.71,293.56L234,292.75L232.11,292.37L232.66,290.67L229.93,290.37L228.37,290.78L227.03,291.65L226.99,293.29L224.72,292.71L224.12,293.46L222.11,292.84L221.91,293.45L219.39,292.34L219.39,291.99L217.16,291.27L217.89,290.67L219.28,286.62L217.9,286.63L215.54,288.09L214.75,287.16L213.01,288.37L213.34,289.21L212.15,289.83L212.13,289.17L209.59,289.28L209.63,291.15L208.63,291.39L207.7,290.55L207.43,289.48L206.71,289.94L205.47,287.28L207.35,286.32L208.76,282.93L209.35,282.22L210.68,279.38L212.5,279.62L212.53,278.2L213.14,277.31L211.59,277.55L211.27,276.3L212.42,275.92L211.74,275.4L210.19,272.45L209.92,271.3L210.42,269.91L211.89,269.78L211.06,266.97L210.23,267.28L208.74,265.54L208.14,265.66L207.68,264.52L205.99,264.39L205.88,262.27L206.9,262.47L208.23,261.22L207.96,259.9L209.81,259.01L209.34,257.65L208.73,257.41L208.16,255.81L207.06,254.41L207.48,252.84L206.34,252.25L206.63,251.58L205.51,250.72L204.37,249.21L205.47,248.65L205.14,247.3L203.46,247.34L201.94,243.61L200.81,243.3L202.06,241.18L201.98,239.91L201.26,239.05L199.54,239.13L198.38,238.66L198.76,236.47L199.51,236L198.2,234.22L204.26,231.84L205.1,232.66L206.26,232.45L205.98,231.25L206.67,230.98L205.94,229.33L207.72,228.27L207.67,225.29L207.12,223.2L207.76,223.03L207.74,221.65L206.48,217.7L205.44,217.93L204.17,217.21L203.25,213.72L203.8,213.33L202.4,210.22L200.54,210.29L200.05,209.28L200.86,209.08L199.68,207.66L199.46,204.57L200.66,204.34L200.88,203.17L199.76,203.46L198.17,201.45L200.12,200.16L198.9,197.06L197.78,197.37L196.44,194L195.76,193.33L196.46,192.78L195.99,191.4L194.87,190.99L194.06,189.75L192.43,189.26L192.03,187.75L193.17,186.32L194.58,185.9L194.43,184.95L196.5,184.65L197.18,186.16L198.64,186.99L199.2,184.72L200.7,184.67L201.44,185.92L200.64,186.12L200.59,187.77L202.22,187.8L201.97,186.48L203.72,185.49L204.71,185.49L207.41,183.46L210.7,181.57L216.8,183.48L218.73,184.21L224.75,187.07L237.22,194.05L237.59,194.97L236.6,196.92L236.75,198.07L239.05,199.52L242.91,202.35L249.58,208.47L254.61,212.38L262.18,218.62L269.74,224.14L275.28,228.88L280.3,234.31L280.83,232.96L278.3,231.82L278.75,231.11L282.36,232.83L285.12,234.67L284.84,235.18L281.77,233.68L280.89,234.86L286.83,240.45L283.04,244.93L280.86,248.32L279.38,251.01L279.22,253.19L279.38,255.43L281.34,259.29L284.12,261.92L288.65,264.53L287.54,266.49L286.41,265.92L285.29,267.55L280.12,265.06L274.98,272.8L276.7,273.9L277.28,275.3L276.11,276.29L276.33,282.24L271.49,282.19L271.47,280.66L268.81,280.63L266.15,280.08L264.16,279.96L264.09,277.81L262.9,277.27L259.37,277.47L258.33,278.35L255.41,279.42L254.91,278.06L250.65,278.14L250.52,277.53L249.29,277.53L248.81,278.64L249.73,281.83L248.68,282.14L248.47,283.24L248.8,285.03L248.3,286.17L246.22,286.39L246.44,288.73L245.03,289.37L243.48,289.54L242.89,291.88L243.33,292.47L245.1,292.5L244.68,295.89L245.37,297.9L245.42,302.07Z" stroke-miterlimit="10" stroke="#FFFFFF"/>
<path title="崇明区" fill="#D3D3D3" id="path16" d="M481.28,128.79L486.88,172.75L489.29,181.65L490.08,191.09L488.36,199.3L484.12,205.66L477.9,209.4L463.77,216.57L456.81,220.42L449.57,222.72L445.03,223.39L441.41,223.45L437.51,223.11L431.01,222.76L425.68,221.83L420.9,220.78L414.46,218.66L390.58,208.6L376.21,201.7L356.06,192.12L350.82,190.53L337.13,187.77L331.62,186.73L328.14,185.78L324.34,184.15L298.16,171.99L265.39,150.22L249.56,142.22L241.24,141.85L236.41,142.39L232.95,144.68L223,160.89L211.59,151.6L187.4,129.17L140.6,76.58L125.81,59.88L124.41,59.18L114.32,57.28L127.48,43.07L141.31,26.38L149.37,18.95L160.07,12.95L167.25,9.74L171.55,7.56L177.32,4.33L184.07,1.85L188.28,0.87L192.88,0L196.5,0.11L198.86,0.62L201.94,2.11L221.74,14.84L224.78,17.22L228.49,19.76L232.92,25.93L234.53,27.85L237.24,31.7L239.82,33.47L241.89,37.85L239.57,38.89L243.86,46.94L245.94,49.63L248.38,52.15L254.34,54.65L256.21,55.98L258.71,57.15L262.37,58.26L267.8,58.76L272.49,60.14L277.12,60.22L283.32,65.03L284.15,65.45L289.17,66.79L289.88,67.73L294.63,69.16L294.92,70.27L298.94,73.46L299.75,73.25L305.59,78.62L311.38,81.74L317.26,83.77L317.68,84.33L320.43,85.47L320.96,83.51L321.75,83.54L325.61,84.88L332.28,88.16L334.83,88.97L338.84,88.32L369.95,100.21L413.87,111.19L443.77,119.06ZM397.19,282.88L393.8,282.14L390.93,280.32L389.43,277.8L385.32,269.04L382.54,266.1L380.87,264.69L375.37,260.52L357.7,249.58L338.15,237.28L321.18,226.87L316.45,224.01L308.69,219.73L302.78,213.34L299.06,209.19L296.27,206.51L293.76,204.35L290.38,202.11L284.95,199.02L282.08,196.38L281.64,194.98L281.74,192.75L283.5,190.96L284.99,190.49L286.79,190.65L299.12,192.78L304.45,194.47L306.58,195.91L308.92,202.97L310.22,205.8L313.3,209.59L314.39,210.39L320.49,212.4L323.28,213.04L329.89,215.68L352.2,223.91L358.39,224.85L362.2,225.79L366.97,227.94L373.56,231.63L375.96,232.64L379.46,233.41L381.48,234.22L386.42,237.66L389.48,240.25L393.13,242.48L395.16,244.37L397.92,247.8L401.05,252.07L402.33,254.37L402.98,256.25L403.25,260.38L404.53,265.12L404.73,270.24L404.47,272.97L405.72,282.81L404.83,284.31L402.41,283.81L400.03,282.45ZM595.59,228.26L597.02,227.14L597.78,228.13L596.25,228.88ZM407,259.42L406.49,255.9L405.25,253.07L403.16,249.09L403.61,247.63L404.85,247.33L407.72,247.26L413.72,247.58L416.84,248.58L418.41,249.66L419.84,250.12L425.77,250.59L428.9,252.2L431.31,253.2L436.39,254.89L454.68,262.7L471.24,269.31L492.58,273.33L509.51,276.06L525.33,276.2L541.9,277.35L544.16,280.26L544.47,284.38L536.98,306.97L533.8,310.22L529.3,309.28L522.76,304.62L498.96,296.88L481.54,298.02L462.9,296.44L449.4,292.42L444.62,291.99L434.5,290.53L432.28,290.53L430.52,291.6L428.9,291.82L423.62,290.28L420.64,288.17L419.97,287.14L415.93,284.3L411.89,279.86L409.09,275.88L407.85,273.73L407.59,271.9L407.4,266.54ZM332.16,215.25L327.8,214.42L326.51,213.8L318.07,208.44L314.69,205.67L311.1,201.45L310.34,200.3L310.21,198.58L310.78,198L314.96,197.91L318.56,198.53L321.49,199.26L324.24,200.46L326.42,202.02L331.35,206.61L334.11,209.31L335.58,211.24L336.12,212.8L335.14,214.78L334.07,215.2Z" stroke-miterlimit="10" stroke="#FFFFFF"/>
<path title="奉贤区" fill="#D3D3D3" id="path15" d="M307.92,438.98L310.61,438.42L313.26,438.41L313.85,437.75L318.29,437.81L318.68,437.13L322.31,437.59L326.88,437.53L328.16,440.31L329.38,441.81L340.57,441.48L343.93,441.53L347.61,441.8L350.35,442.35L351.99,443.24L352.51,442.25L356.38,443.25L358.3,443.08L360.4,443.48L363.18,444.44L365.77,445.66L368.89,447.68L377.08,454.25L377.95,455.91L379.65,457.82L379.2,458.79L380.54,459.78L382.14,459.84L383.91,462.19L384.5,461.61L385.68,461.78L388.8,463.56L389.55,464.33L389.51,465.83L391.05,467.25L389.83,468.06L389.74,468.92L390.94,468.87L390.76,469.7L391.86,469.86L392.53,468.96L393.29,470.49L394.69,471.16L394.84,472.35L396.74,472.61L396.67,474.76L398.15,479.33L397.78,482.21L397.23,483.05L396.96,486.2L397.24,488.37L397.17,490.8L395.97,494.88L396.25,497.58L394.74,497.79L394.46,500.23L394.08,500.37L392.6,506.43L393.11,512.84L403.57,529.59L397.31,529.41L375,529.16L355.35,528.82L341.31,529.92L321.14,535.46L300.37,543.29L285.1,550.27L268.64,559.76L262.77,549.73L257.05,538.84L254.91,535.22L254.36,535.57L252.74,534.59L250.76,528.97L246.03,528.68L243.69,528.13L243.16,530.01L241.38,530.12L241.55,528.05L240.97,527.15L240.19,527.27L236.95,526.49L235.32,524.33L235.19,522.98L236.46,523.1L236.7,521.14L234.78,520.95L233.78,521.39L233.61,524.04L231.49,524.12L231.35,523.08L229.58,523.1L229.58,521.64L227.94,521.09L226.01,517.99L225.93,516.43L228.66,516.46L228.44,514.02L227.93,512.18L228.21,509.94L227.82,508.45L228.05,506.33L227.16,506.19L227.13,504.41L227.56,503.55L227.53,500.84L226.97,499.78L227.28,498.61L225.28,498.09L222.8,496.24L222.12,496.13L220.86,494.76L219.17,494.61L218.27,491.61L217.97,489.21L217.09,487.8L216.34,483.8L214.26,481.5L215.66,479.94L216.07,478.25L215.78,477.42L214.41,476.22L214.43,474.02L213.98,472.81L215.91,472.1L215.5,471.37L216.63,471.31L217.48,470.58L218.9,470.75L218.8,468.57L218.25,466.11L219.42,465.55L220.11,464.52L218.83,463.68L218.73,462.29L219.1,460.08L218.99,458.37L218.19,455.36L218.38,452.93L217.75,450.02L217.21,449.22L224.29,446.73L232.44,444.03L238.9,443.04L240.55,442.62L245.17,440.9L248.36,438.57L249.31,437.27L250.68,436.13L252.38,435.26L255.59,434.43L260.58,434.46L262.99,433.78L265.5,432.18L267.61,431.49L271.68,431.12L273.09,430.68L274.68,431.78L274.29,433.14L275.99,439.01L277.25,439.05L277.23,438.44L279.04,436.8L281.11,435.78L282.2,435.88L285.02,434.34L286.67,435.93L287.2,437.06L286.34,436.88L286.44,438.48L287.54,438.25L289.99,440.19L291.43,440.75L292.52,440.23L293.92,440.81L294.11,441.58L296.28,441.05L297.5,441.63L298.96,444L300.35,443.72L300.57,441.64L301.82,441.47L301.69,440.58L304.08,440.33Z" stroke-miterlimit="10" stroke="#FFFFFF"/>
<path title="虹口区" fill="#D3D3D3" id="path6" d="M271.49,282.19L271.59,286.25L273.52,291.7L275.01,291.06L278.01,290.26L278.9,293.18L276.94,294.88L276.04,296.52L276.26,299.82L277.7,300.08L280.52,302.74L280.44,304.66L281.37,306.72L283.98,309.89L285.29,312.12L284.59,312.25L284.8,314.58L280.68,314.82L277.74,315.57L275.52,316.96L272.51,315.97L271.73,316.02L270.45,317.1L269.69,314.08L268.99,313.15L269.88,312.71L269.01,311.36L269.42,310.43L269.38,308.76L266.65,306.31L264.72,304.14L262.58,300.83L261.81,300.33L261.23,298.56L261.37,295.67L260.64,293.12L261.65,291.63L262.54,289L262.11,284.98L263.89,284.83L264.16,279.96L266.15,280.08L268.81,280.63L271.47,280.66Z" stroke-miterlimit="10" stroke="#FFFFFF"/>
<path title="黄浦区" fill="#D3D3D3" id="path1" d="M259.61,327.99L259.21,326.13L263.8,326.15L263.88,325.26L263.23,320.61L261.87,317.37L264.7,318.46L266.96,317.36L268.71,317.92L270.45,317.1L271.73,316.02L272.51,315.97L275.52,316.96L274.95,317.98L274.95,320L275.91,321.58L278.6,324.07L280.62,326.52L281.76,328.86L281.98,330.84L281.32,333.02L278.3,338.23L276.91,340.31L275.44,341.68L273.77,342.38L267.45,344.17L267,343.17L265.05,342.47L264.72,339.9L263.79,336.57L263.36,335.9L261.57,336.51L261.27,333L260.9,331.35Z" stroke-miterlimit="10" stroke="#FFFFFF"/>
<path title="嘉定区" fill="#D3D3D3" id="path10" d="M129.41,299.7L130.16,298.8L130.18,297.64L131.84,297.23L132.65,296.02L131.8,294.18L130.55,294.31L129.82,292.98L128.36,292.04L128.97,290.97L127.35,288.56L128.14,288.49L126.48,285.02L125.14,283.13L123.08,285.18L123.37,286.5L120.86,286.96L119.22,286.69L118.87,284.22L119.14,283.83L118.37,282.04L118.66,280.84L117.99,279.51L118.07,278.31L119.94,276.34L119.9,275.24L120.66,275.17L120.35,271.97L119.73,271.9L119.29,270.6L119.59,267.18L119.43,265.83L116.65,266.56L114.09,266.21L113.81,264.37L115.04,264.15L113.78,262.08L111.46,262.66L111.17,262.15L109.96,262.6L110,260.9L109.54,260.53L109.93,257.68L109.28,255.63L109.37,254.6L110.2,254.64L110.37,255.55L111.9,255.33L112.03,254.46L115.05,253.56L114.57,252.61L112.92,252.32L112.28,250.66L114.19,249.96L116.36,248.64L116.79,249.52L119.78,248.04L120,248.47L122.84,247.3L122.46,246.48L123.98,245.6L124.14,246.09L127.14,245.16L127.38,244.41L126.57,242.91L125.17,241.69L127.58,240.6L126.8,239.18L128.98,238.75L127.63,238.15L128.02,236.73L129.48,235.99L129.14,234.91L131.19,233.88L131.6,232.76L129.74,232.03L130.18,230.89L129.31,230.97L127.34,229.87L127.49,228.24L126.18,227.95L126.2,227.26L128.3,226.9L130.07,224.92L132.68,224.9L132.95,223.81L133.94,224.17L133.18,223L133.25,221.67L131.44,221.65L128.88,220.97L126.88,219.67L126.34,218.26L126.67,215.79L132.49,212.9L133.4,213.31L134.68,212.65L135.4,213.58L136.3,212.73L138.51,213.09L141.01,212.01L143.25,210.55L143,208.99L143.25,207.31L147.11,203.79L150.47,203.02L150.69,201.52L151.96,200.19L155.39,198.11L155.67,198.91L155.07,199.71L157.39,200.07L158.11,199.65L160.09,199.67L160.45,198.84L162.23,198.96L162.44,197.11L161.51,196.6L163.36,193.71L164.4,193.6L164.11,191.3L165.18,191.67L166.74,190.79L166.85,192.19L167.99,194L168.25,197.08L169.86,196.73L168.85,197.73L169.39,199.15L170.51,198.87L171.17,197.87L172.09,197.77L172.2,196.12L173.06,195.85L172.7,198.86L175.55,198.25L175.67,197.28L177.14,196.1L178.11,195.99L178.07,194.55L178.73,193.92L180.09,195.49L181.88,194.97L181.97,194.33L183.63,193.32L183.37,192.45L185.08,192.75L185.79,192.31L187.52,193.14L188.04,191.8L189.27,192.75L191.47,191.89L191.45,190.78L192.28,190.37L192.43,189.26L194.06,189.75L194.87,190.99L195.99,191.4L196.46,192.78L195.76,193.33L196.44,194L197.78,197.37L198.9,197.06L200.12,200.16L198.17,201.45L199.76,203.46L200.88,203.17L200.66,204.34L199.46,204.57L199.68,207.66L200.86,209.08L200.05,209.28L200.54,210.29L202.4,210.22L203.8,213.33L203.25,213.72L204.17,217.21L205.44,217.93L206.48,217.7L207.74,221.65L207.76,223.03L207.12,223.2L207.67,225.29L207.72,228.27L205.94,229.33L206.67,230.98L205.98,231.25L206.26,232.45L205.1,232.66L204.26,231.84L198.2,234.22L199.51,236L198.76,236.47L198.38,238.66L199.54,239.13L201.26,239.05L201.98,239.91L202.06,241.18L200.81,243.3L201.94,243.61L203.46,247.34L205.14,247.3L205.47,248.65L204.37,249.21L205.51,250.72L206.63,251.58L206.34,252.25L207.48,252.84L207.06,254.41L208.16,255.81L208.73,257.41L209.34,257.65L209.81,259.01L207.96,259.9L208.23,261.22L206.9,262.47L205.88,262.27L205.99,264.39L207.68,264.52L208.14,265.66L208.74,265.54L210.23,267.28L211.06,266.97L211.89,269.78L210.42,269.91L209.92,271.3L210.19,272.45L211.74,275.4L212.42,275.92L211.27,276.3L211.59,277.55L213.14,277.31L212.53,278.2L212.5,279.62L210.68,279.38L209.35,282.22L208.76,282.93L207.35,286.32L205.47,287.28L206.71,289.94L207.43,289.48L207.7,290.55L205.87,291.51L206.12,292.55L203.37,293.55L203.76,295.42L204.48,295.72L206.09,294.98L207.06,298.17L207.51,298L207.58,300.3L208.72,300.53L208.46,301.61L210.71,302.31L211.22,301.07L216.62,302.32L217.3,303.64L218.31,302.61L220.95,303.22L220.76,304.71L218.72,304.26L217.7,304.54L217.3,306.24L218.53,308.07L220.34,308.37L220.29,309.21L224.01,309.52L224.26,308.3L225.26,308.31L226.71,309.16L225.14,314.2L224.48,315.82L223.38,315.22L223.05,316.19L221.36,314.37L220.64,314.89L219.1,318.02L218.05,318.75L217.8,317.82L216.08,317.99L216.07,319.17L215.27,319.51L214.7,318.9L212.94,318.38L213.54,317.15L213.02,316.13L212.32,316.47L212.12,317.55L211.17,316.29L211.59,318.12L209.57,318.09L208.49,319.3L207.03,320.13L206.58,322.07L203.25,323.29L201.85,323.27L198.65,324.48L193.35,322.77L190.74,322.55L188.91,321.69L187.15,318.97L186.62,316.43L185.1,315.47L184.1,313.97L185.31,312.14L183.65,312.11L181.48,311.29L179.76,311.92L176.83,309.8L176.64,308.47L175.02,308.88L172.53,308.23L172.44,308.7L169.26,308.82L169.18,308.15L167.33,308.36L165.37,307L164.3,306.69L161.69,306.69L161.73,307.18L159.31,307.78L159.45,308.53L157.89,309.35L158.34,309.9L155.3,310.88L154.64,308.13L153.41,307.63L153.43,309.04L152.86,309.3L151.96,308.01L150.45,309.48L150.57,310.14L149.16,310.43L147.55,311.36L147.63,312.44L146.39,312.33L146.24,311.24L144.25,310.67L143.42,311.89L142.34,311.93L141.32,310.84L140.38,311.34L140.15,310.12L139.28,310.75L138.2,309.62L136.98,310.59L135.92,309.95L136.54,308.49L135.54,308.23L135.37,306.07L133.21,303.45L132.55,304.23L131.17,302.76L130.18,304.96L128.57,304.22L129.49,302Z" stroke-miterlimit="10" stroke="#FFFFFF"/>
<path title="金山区" fill="#D3D3D3" id="path12" d="M62.15,462.98L64.44,462.62L64.69,464.63L66.82,464.32L67.91,462.77L70.14,464.05L69.27,464.73L68.3,464.54L68.53,466.33L69.48,466.05L70.11,467.99L71.14,468.52L70.81,467.46L71.89,467.55L75.57,466.16L76.36,465.9L76.24,467.19L77.2,468.24L77.05,470.09L75.85,474.35L75.69,476.82L74.64,479.74L74.22,482.3L74.39,483.58L78.4,485.03L78.29,486.74L80.17,487.03L80.83,485.85L81.06,487.75L81.68,488.4L82.91,487.16L86.27,486.42L87.77,486.43L92.66,485.85L93.1,487.04L94.61,486.51L94.58,485.64L98.18,485.13L98.6,485.98L99.42,485.46L102.82,486.4L103.97,485.7L103.93,486.83L105.16,486.5L105.87,484.8L104.76,482.94L103.74,483.26L101.72,482.12L101.69,480.47L102.69,480.02L106.56,474.89L108.26,476.74L108.59,478.05L111.09,477.24L112.64,477.28L115.58,478.14L114.68,482.12L114.02,482.76L112.18,486.3L111.04,487.59L111.14,488.49L112.15,489.39L114.17,487.36L115.91,487.55L116.48,486.68L119.31,486.81L119.97,488.24L121.13,487.2L124.06,487.44L123.95,485.62L123.39,484.41L123.56,482.94L122.42,481.44L123.12,478.31L124.92,479.06L124.45,480.32L127.74,481.8L129.05,483.01L130.66,483.12L130.5,481.8L130.7,478.64L131.32,477.97L134.07,478.15L135.05,479.63L136.92,480.77L138.37,480.56L143.43,480.41L143.99,479.82L147.01,479.46L152.45,478.17L153.95,477.48L157,474.28L159.08,472.75L160.94,474.73L164,473.84L164.12,475.13L165.58,475.69L166.64,475.55L167.62,478.16L168.33,477.96L168.72,479.58L167.94,479.19L169.2,483.16L172.88,483.33L173.17,484.12L174.48,484.5L175.84,484.06L176.01,484.69L177.9,484.98L177.57,487.25L178.8,487.26L179.39,488.02L180.49,487.9L181.21,490.06L183.11,489.54L183.34,490.87L184.38,490.7L184.49,489.81L185.75,489.78L185.98,490.39L187.1,490.07L187.23,488.12L187.84,488.09L188.21,486.77L187.81,483.21L187.23,483.15L187.28,479.67L189.9,478.86L189.84,480.64L190.47,480.63L191.41,483.24L192.82,483.88L193.54,483.47L193.66,482.06L194.85,482.05L194.98,483L197.99,482.75L198.32,483.54L200.68,482.57L201.28,483.62L203.17,483.63L203.9,483.04L205.38,484.35L206.91,484.24L207.75,484.74L209.27,483.83L210.83,483.55L212.44,481.54L213.74,482.41L214.26,481.5L216.34,483.8L217.09,487.8L217.97,489.21L218.27,491.61L219.17,494.61L220.86,494.76L222.12,496.13L222.8,496.24L225.28,498.09L227.28,498.61L226.97,499.78L227.53,500.84L227.56,503.55L227.13,504.41L227.16,506.19L228.05,506.33L227.82,508.45L228.21,509.94L227.93,512.18L228.44,514.02L228.66,516.46L225.93,516.43L226.01,517.99L227.94,521.09L229.58,521.64L229.58,523.1L231.35,523.08L231.49,524.12L233.61,524.04L233.78,521.39L234.78,520.95L236.7,521.14L236.46,523.1L235.19,522.98L235.32,524.33L236.95,526.49L240.19,527.27L240.97,527.15L241.55,528.05L241.38,530.12L243.16,530.01L243.69,528.13L246.03,528.68L250.76,528.97L252.74,534.59L254.36,535.57L254.91,535.22L257.05,538.84L262.77,549.73L268.64,559.76L246.19,572.75L237.9,578.83L218.58,598.04L215.34,599.3L212.04,600L203.51,599.83L188.23,598.64L181.2,599.1L179.9,589.39L179.39,588.8L179.5,587.06L178.64,586.78L178.37,584.8L177.79,584.71L177.44,583.12L178.55,581.79L177.95,580.35L179.36,579.43L179.26,577.64L180.08,576.26L179.36,574.96L179.83,574.42L179.11,572.53L179.83,571.76L178.43,570.44L177.86,571.15L175.5,568.8L173.38,565.94L168.4,563.33L167.69,562.66L165.2,561.61L163.06,560.03L162.37,556.08L161.7,553.97L160.76,552.55L160.45,550.42L159.78,549.48L159.25,549.98L156.93,545.5L155.11,545.02L151.6,545.03L149.27,546.33L148.87,547.6L149.36,551.15L147.92,551.29L145.73,548.54L145.36,547.43L144.74,548.48L143.38,548.45L143.14,549.64L142.13,550.45L140.65,550.78L138.38,551.95L136.8,550.63L136.71,549.43L135.93,549.99L133.56,550.33L132.41,551.35L132.38,549.68L130.3,549.37L128.96,548.48L125.29,548.23L123.79,549.5L122.97,548.76L121.83,549.3L120.02,549.31L118.18,548.63L116.42,548.5L113.77,544.94L114.98,543.71L117.21,543.89L117.78,543.49L117.55,541.47L118.47,532.9L119.34,530.23L120.26,528.38L122.42,525.52L122.42,523.04L121.91,524.1L121.07,523.78L120.49,522.23L121.22,521.53L119.93,520.04L119.23,520.6L118.25,520.22L115.23,519.88L113.99,520.39L114.89,519.18L115.07,516.4L116.48,514.42L115.45,512.98L114.98,513.5L112.71,512.32L112.03,511.04L111.06,512.35L108.44,513.39L107.36,512.93L105.4,510.6L105.41,509.51L98.03,513.68L92.26,513.67L89.48,515.46L89.97,516.36L89.35,516.65L90.13,519.15L87.69,520.24L83.58,522.49L84.5,525.44L82.87,525.08L82.2,523.95L80.67,524.42L81.44,525.34L80.81,525.84L80.34,527.59L79.7,527.89L80.3,528.73L82.3,528.02L82.82,530.26L79.8,531.07L79.25,528.8L76.43,523.76L69.93,521.06L69.72,520.13L68.22,520.73L66.53,522.65L65.03,524.88L63.79,523.32L61.24,527.28L59.66,526.67L60.45,525.19L58.91,523.69L60.33,522.25L58.9,521.88L59.27,520.68L60.5,518.85L61.7,518.76L62.6,516.01L63.51,516.38L63.98,515.24L65.26,515L66.32,512.83L66.98,512.77L67.9,511.49L69.28,512.21L69.99,511.26L68.26,510.05L70.15,507.8L70.52,506.64L69.54,505.88L71.17,503.39L69.9,502.56L71.17,501.4L72.32,502.14L72.04,501.08L72.93,500.5L71.87,499.75L72.75,498.69L71.52,497.73L71.04,496.73L68.31,496.98L67.11,496.61L67.2,494.03L65.7,493.7L60.91,493.26L60.52,491.14L59.47,490.2L60.41,488.24L60.47,487.02L61.72,486.24L62.97,486.41L63,485.13L64.66,485.68L65.49,484.63L65.51,483.46L63.12,483.35L63.39,481.14L63.57,470.78L63.91,469.26L62.48,467.56L61.7,465.96L62.19,465.82ZM246.32,596.72L247.15,596.93L246.38,597.65ZM244.52,592.09L246.3,592.19L247.28,593.27L245.76,594.13L243.24,592.9L243.24,592.01ZM237.8,585.35L238.88,585.59L237.74,586.3Z" stroke-miterlimit="10" stroke="#FFFFFF"/>
<path title="静安区" fill="#D3D3D3" id="path4" d="M259.61,327.99L257.25,329.37L255.02,330.18L251.8,330.85L250.39,327.75L250.07,325.55L249.59,325.14L247.34,326.54L246.77,325.97L246.69,323.43L246.85,322.5L248.18,320.52L249.96,320.45L254.51,317.39L256.31,316.41L255.6,315.45L256.49,314.19L256.94,312.06L256.03,311.59L256.76,309.91L253.3,304.48L250.79,303.32L248.78,302.06L247.68,300.57L245.72,302.7L245.42,302.07L245.37,297.9L244.68,295.89L245.1,292.5L243.33,292.47L242.89,291.88L243.48,289.54L245.03,289.37L246.44,288.73L246.22,286.39L248.3,286.17L248.8,285.03L248.47,283.24L248.68,282.14L249.73,281.83L248.81,278.64L249.29,277.53L250.52,277.53L250.65,278.14L254.91,278.06L255.41,279.42L258.33,278.35L259.37,277.47L262.9,277.27L264.09,277.81L264.16,279.96L263.89,284.83L262.11,284.98L262.54,289L261.65,291.63L260.64,293.12L261.37,295.67L261.23,298.56L261.81,300.33L262.58,300.83L264.72,304.14L266.65,306.31L269.38,308.76L269.42,310.43L269.01,311.36L269.88,312.71L268.99,313.15L269.69,314.08L270.45,317.1L268.71,317.92L266.96,317.36L264.7,318.46L261.87,317.37L263.23,320.61L263.88,325.26L263.8,326.15L259.21,326.13Z" stroke-miterlimit="10" stroke="#FFFFFF"/>
<path title="闵行区" fill="#D3D3D3" id="path8" d="M217.21,449.22L214.02,450.15L210.8,449.85L206.8,447.8L204.72,447.49L203.79,447.82L203.12,446.5L203.59,443.17L203.53,440.91L203.84,440.21L205.06,439.7L208.44,435.06L209.12,433.02L211.02,431.19L210.39,430.75L209.15,431.23L206.23,431.49L206.51,430.33L206.58,424.7L206.33,422.82L206.63,422.2L206.49,417.81L207.1,415.34L207.2,407.94L209.82,406.78L210.67,408.59L214.95,407.52L216.99,406.14L216.6,404.78L219.37,403.98L219.66,403.22L218.67,401.86L219.62,401.31L220.11,399.21L221.54,398.6L222.32,398.97L222.91,398.22L221.32,393.67L218.95,388.27L217.37,388.69L217.08,387.76L214.06,388.53L212.85,384.83L214.2,384.29L214.43,384.91L216.49,382.89L216.06,381.89L215.1,382.4L213.76,380.37L214.79,379.35L213.31,379.28L212.09,377.32L212.43,377.16L211.29,375.26L211.77,375.05L210.92,373.42L211.2,372.98L210.1,370.82L207.81,368.66L208.69,368.06L207.8,366.36L207.26,366.21L206.5,363.75L205.47,363.25L205.57,362.11L204.39,359.8L203.72,359.7L202.28,356.66L200.02,353L199.79,351.31L199.05,349.7L196.68,346L195.73,343.92L192.31,339.59L191,337.4L189.85,336.56L188.82,336.84L188.69,337.79L186.64,339.94L185.22,340.91L182.38,341.32L179.94,338.95L177.81,336.47L176.98,336.44L176.24,335.25L176.93,334.73L176.58,333.64L174.67,331.71L175.45,330.55L174.79,329.01L173.84,327.98L174.16,326.7L173.47,324.92L174.07,324.65L173.71,322.73L172.43,321.51L171.84,319.59L171.11,318.97L170.51,319.8L169.75,317.61L166.96,317.96L166.33,317.53L167.08,314.38L168.89,313.65L169.49,311.41L172.44,308.7L172.53,308.23L175.02,308.88L176.64,308.47L176.83,309.8L179.76,311.92L181.48,311.29L183.65,312.11L185.31,312.14L184.1,313.97L185.1,315.47L186.62,316.43L187.15,318.97L188.91,321.69L190.74,322.55L193.35,322.77L198.65,324.48L201.85,323.27L203.25,323.29L206.58,322.07L207.03,320.13L208.49,319.3L210.7,320.92L211.5,322.88L211.49,324.14L209.87,324.93L209.62,325.95L211.61,326.32L210.52,326.55L210.25,329.19L208.93,329.78L209.2,331.95L208.56,332L208.53,334.77L208.74,339.78L208.06,340.2L208.36,341.8L205.69,343.3L208.49,348.06L209.8,348.4L214.09,346.37L214.9,347.3L216.46,346.73L217.05,345.11L217.87,345.47L220.32,345.33L226.34,343.08L231.23,342.15L240.28,342.55L240.71,344.7L241.43,344.43L241.39,346.42L239.81,347.1L234.94,348.71L234.19,348.17L234.07,349.01L232.52,349.18L232.94,350.82L231.77,351.58L232.35,353.38L231.26,353.78L232.57,358.33L236.03,357.02L236.86,359.34L235.7,359.37L233.13,360.21L233.58,361.79L235.52,361.25L235.32,360.53L237.02,359.79L239.74,367.27L240.81,369.5L242.78,372.31L244.12,374.58L250.51,373.62L251.4,377.28L251.54,378.6L250.21,381.38L251.18,382.1L252.7,381.87L254.51,380.67L254.91,381.01L256.66,380.45L256.38,381.74L257.33,383.86L255.3,384.44L254.72,385.28L257.12,386.23L257.44,387.54L258.64,387.78L261.83,387.18L261.99,383.86L262.83,382.1L265.01,382.68L266.59,381.69L266.66,380.97L268.02,382.73L269.75,382.8L268.07,379.49L269.71,379.14L269.99,378.11L271.61,377.18L271.73,375.89L273.57,376.01L274.66,378.79L277.11,377.4L278.41,380.82L280,380.4L279.39,378.99L280.09,378.15L282.59,377.55L283.62,379.14L283.95,380.51L286.91,380L287.53,380.53L288.57,379.78L291.19,378.94L291.55,379.55L292.87,379.16L293.96,381.16L294.67,380.34L295.83,380.07L296.68,382.42L298.16,383.33L299.34,382.34L298.82,381.44L300.15,381.2L300.58,381.81L301.41,380.71L302.02,381.61L303.38,382.2L302.52,383.25L304.03,385.04L303.92,385.52L305,387.23L304.32,387.53L304.86,388.68L306.36,389.87L306.55,391.34L305.3,392.21L304.23,392.22L304.11,391.37L303.05,392.18L299.84,393.09L299.81,394.08L298.53,394.71L299.4,396.74L300.68,398.01L301.9,397.63L302.17,396.81L304.11,396.33L304.97,396.92L307.62,397.35L308.42,398.13L308.86,397.5L309.98,398.13L306.71,400.06L304.56,400.6L304.58,401.01L302.38,401.48L303.02,402.08L301.55,402.32L300.35,403.41L302.05,404.48L299.92,405.34L299.62,406.26L298.53,406.34L297.95,407.34L298.46,409.71L296.29,410.31L296.27,411.15L295.21,411.9L295.86,413.63L295.5,414.96L297.39,414.64L298.21,413.89L298.96,414.21L299.38,413.46L300.31,413.51L301.18,412.75L301.78,414.35L302.17,414.17L303.36,415.76L304.34,416.34L303.21,417.47L303.22,423.02L302.69,423.39L302.75,425.9L301.62,426.71L300.35,426.53L300.12,427.7L300.93,428.85L301.94,428.79L301.93,428.03L302.88,428.03L303.55,426.09L305.28,427.56L307.32,425.96L307.03,425.52L308.72,424.82L309.76,427.68L309.72,428.84L308.16,429.95L307.64,431.93L305.95,432.2L306.94,433.13L307.6,432.86L308.35,435.34L307.83,435.87L308.03,437.01L306.85,437.72L307.92,438.98L304.08,440.33L301.69,440.58L301.82,441.47L300.57,441.64L300.35,443.72L298.96,444L297.5,441.63L296.28,441.05L294.11,441.58L293.92,440.81L292.52,440.23L291.43,440.75L289.99,440.19L287.54,438.25L286.44,438.48L286.34,436.88L287.2,437.06L286.67,435.93L285.02,434.34L282.2,435.88L281.11,435.78L279.04,436.8L277.23,438.44L277.25,439.05L275.99,439.01L274.29,433.14L274.68,431.78L273.09,430.68L271.68,431.12L267.61,431.49L265.5,432.18L262.99,433.78L260.58,434.46L255.59,434.43L252.38,435.26L250.68,436.13L249.31,437.27L248.36,438.57L245.17,440.9L240.55,442.62L238.9,443.04L232.44,444.03L224.29,446.73Z" stroke-miterlimit="10" stroke="#FFFFFF"/>
<path title="浦东新区" fill="#D3D3D3" id="path11" d="M307.92,438.98L306.85,437.72L308.03,437.01L307.83,435.87L308.35,435.34L307.6,432.86L306.94,433.13L305.95,432.2L307.64,431.93L308.16,429.95L309.72,428.84L309.76,427.68L308.72,424.82L307.03,425.52L307.32,425.96L305.28,427.56L303.55,426.09L302.88,428.03L301.93,428.03L301.94,428.79L300.93,428.85L300.12,427.7L300.35,426.53L301.62,426.71L302.75,425.9L302.69,423.39L303.22,423.02L303.21,417.47L304.34,416.34L303.36,415.76L302.17,414.17L301.78,414.35L301.18,412.75L300.31,413.51L299.38,413.46L298.96,414.21L298.21,413.89L297.39,414.64L295.5,414.96L295.86,413.63L295.21,411.9L296.27,411.15L296.29,410.31L298.46,409.71L297.95,407.34L298.53,406.34L299.62,406.26L299.92,405.34L302.05,404.48L300.35,403.41L301.55,402.32L303.02,402.08L302.38,401.48L304.58,401.01L304.56,400.6L306.71,400.06L309.98,398.13L308.86,397.5L308.42,398.13L307.62,397.35L304.97,396.92L304.11,396.33L302.17,396.81L301.9,397.63L300.68,398.01L299.4,396.74L298.53,394.71L299.81,394.08L299.84,393.09L303.05,392.18L304.11,391.37L304.23,392.22L305.3,392.21L306.55,391.34L306.36,389.87L304.86,388.68L304.32,387.53L305,387.23L303.92,385.52L304.03,385.04L302.52,383.25L303.38,382.2L302.02,381.61L301.41,380.71L300.58,381.81L300.15,381.2L298.82,381.44L299.34,382.34L298.16,383.33L296.68,382.42L295.83,380.07L294.67,380.34L293.96,381.16L292.87,379.16L291.55,379.55L291.19,378.94L288.57,379.78L287.53,380.53L286.91,380L283.95,380.51L283.62,379.14L282.59,377.55L280.09,378.15L279.39,378.99L280,380.4L278.41,380.82L277.11,377.4L274.66,378.79L273.57,376.01L271.73,375.89L271.61,377.18L269.99,378.11L269.71,379.14L268.07,379.49L269.75,382.8L268.02,382.73L266.66,380.97L266.59,381.69L265.01,382.68L262.83,382.1L264.58,378.78L264.74,375.72L264.34,374.21L261.64,370.91L259.51,367.02L259.51,364.91L260.77,363L263.06,360.57L264.18,359.09L264.61,356.98L264.1,354.58L262.7,350.42L262.7,349.11L263.28,347.57L264.34,346.05L267.45,344.17L273.77,342.38L275.44,341.68L276.91,340.31L278.3,338.23L281.32,333.02L281.98,330.84L281.76,328.86L280.62,326.52L278.6,324.07L275.91,321.58L274.95,320L274.95,317.98L275.52,316.96L277.74,315.57L280.68,314.82L284.8,314.58L289.54,314.43L293.32,313.25L295.53,312.14L303.04,305.93L304.95,303.63L307.08,300.18L307.52,298.24L307.35,295.39L305.77,290.94L304.52,288.12L304.19,286.32L304.24,277.39L303.65,274.05L302.83,272.32L301.63,270.97L298.9,269.05L288.65,264.53L284.12,261.92L281.34,259.29L279.38,255.43L279.22,253.19L279.38,251.01L280.86,248.32L283.04,244.93L286.83,240.45L294.02,243.61L303.36,246.06L317.88,249.67L321.87,251.56L325.09,253.8L358.89,276.73L368.73,283.28L373.05,286.23L375.87,288.85L382.14,296.41L410.45,339.65L429.1,360.46L442.24,372.83L444.57,377.3L469.12,405.22L475.93,414.52L482.3,430.11L488.03,453.93L490.3,470.4L491.27,488.12L490.62,500.63L489.32,506.54L485.65,512.71L479.38,518.51L472.52,525.13L472.35,527.32L472.84,529.45L478.94,543.38L467.79,549.42L459.62,534.71L455.63,531.57L450.99,530.94L403.57,529.59L393.11,512.84L392.6,506.43L394.08,500.37L394.46,500.23L394.74,497.79L396.25,497.58L395.97,494.88L397.17,490.8L397.24,488.37L396.96,486.2L397.23,483.05L397.78,482.21L398.15,479.33L396.67,474.76L396.74,472.61L394.84,472.35L394.69,471.16L393.29,470.49L392.53,468.96L391.86,469.86L390.76,469.7L390.94,468.87L389.74,468.92L389.83,468.06L391.05,467.25L389.51,465.83L389.55,464.33L388.8,463.56L385.68,461.78L384.5,461.61L383.91,462.19L382.14,459.84L380.54,459.78L379.2,458.79L379.65,457.82L377.95,455.91L377.08,454.25L368.89,447.68L365.77,445.66L363.18,444.44L360.4,443.48L358.3,443.08L356.38,443.25L352.51,442.25L351.99,443.24L350.35,442.35L347.61,441.8L343.93,441.53L340.57,441.48L329.38,441.81L328.16,440.31L326.88,437.53L322.31,437.59L318.68,437.13L318.29,437.81L313.85,437.75L313.26,438.41L310.61,438.42ZM467.6,330.36L469.04,325.9L470.94,323.67L473.61,322.87L478.72,322.93L483.63,324.03L487.48,325.82L495.58,327.59L496.64,329.39L497.32,333.09L497.06,342.09L496.45,344.11L491.72,355.59L490.09,357.73L481.58,358.71L479.4,359.36L477.22,359.36L474.63,358.49L471.62,354.53L469.65,349.92L468.29,344.67L467.34,338.87L467,334.26ZM441.64,317.64L444.76,316.77L447.95,317.01L455.7,319.79L459.17,321.14L460.53,323.21L460.87,326.07L459.98,335.38L458.69,339.68L457.13,340.95L455.01,341.19L452.84,340.47L449.78,337.37L444.48,330.59L442.72,327.83L441.6,325.27L440.89,319.91Z" stroke-miterlimit="10" stroke="#FFFFFF"/>
<path title="普陀区" fill="#D3D3D3" id="path5" d="M215.27,319.51L216.07,319.17L216.08,317.99L217.8,317.82L218.05,318.75L219.1,318.02L220.64,314.89L221.36,314.37L223.05,316.19L223.38,315.22L224.48,315.82L225.14,314.2L226.71,309.16L225.26,308.31L224.26,308.3L224.01,309.52L220.29,309.21L220.34,308.37L218.53,308.07L217.3,306.24L217.7,304.54L218.72,304.26L220.76,304.71L220.95,303.22L218.31,302.61L217.3,303.64L216.62,302.32L211.22,301.07L210.71,302.31L208.46,301.61L208.72,300.53L207.58,300.3L207.51,298L207.06,298.17L206.09,294.98L204.48,295.72L203.76,295.42L203.37,293.55L206.12,292.55L205.87,291.51L207.7,290.55L208.63,291.39L209.63,291.15L209.59,289.28L212.13,289.17L212.15,289.83L213.34,289.21L213.01,288.37L214.75,287.16L215.54,288.09L217.9,286.63L219.28,286.62L217.89,290.67L217.16,291.27L219.39,291.99L219.39,292.34L221.91,293.45L222.11,292.84L224.12,293.46L224.72,292.71L226.99,293.29L227.03,291.65L228.37,290.78L229.93,290.37L232.66,290.67L232.11,292.37L234,292.75L234.71,293.56L234.23,294.44L235.06,294.96L236.81,294.9L234.94,298.99L236.85,299.91L237.68,299.59L237.23,301.5L239.59,301.44L239.44,302.85L241.44,303.46L241.65,305.09L243.25,305.42L245.72,302.7L247.68,300.57L248.78,302.06L250.79,303.32L253.3,304.48L256.76,309.91L256.03,311.59L256.94,312.06L256.49,314.19L255.6,315.45L256.31,316.41L254.51,317.39L249.96,320.45L248.18,320.52L246.85,322.5L246.69,323.43L244.89,324.02L243.44,325.49L241.59,323.79L241.26,324.05L241.74,325.84L240.96,326.4L238.63,326.9L236.53,327.79L235.1,327.68L234.78,328.73L230.04,328.77L225.01,327.74L223.42,328.04L222.65,326.83L220.63,326.05L220.36,325.08L218.67,325.1L217.37,323.16Z" stroke-miterlimit="10" stroke="#FFFFFF"/>
<path title="青浦区" fill="#D3D3D3" id="path14" d="M129.41,299.7L129.49,302L128.57,304.22L130.18,304.96L131.17,302.76L132.55,304.23L133.21,303.45L135.37,306.07L135.54,308.23L136.54,308.49L135.92,309.95L136.98,310.59L138.2,309.62L139.28,310.75L140.15,310.12L140.38,311.34L141.32,310.84L142.34,311.93L143.42,311.89L144.25,310.67L146.24,311.24L146.39,312.33L147.63,312.44L147.55,311.36L149.16,310.43L150.57,310.14L150.45,309.48L151.96,308.01L152.86,309.3L153.43,309.04L153.41,307.63L154.64,308.13L155.3,310.88L158.34,309.9L157.89,309.35L159.45,308.53L159.31,307.78L161.73,307.18L161.69,306.69L164.3,306.69L165.37,307L167.33,308.36L169.18,308.15L169.26,308.82L172.44,308.7L169.49,311.41L168.89,313.65L167.08,314.38L166.33,317.53L166.96,317.96L169.75,317.61L170.51,319.8L171.11,318.97L171.84,319.59L172.43,321.51L173.71,322.73L174.07,324.65L173.47,324.92L174.16,326.7L173.84,327.98L174.79,329.01L175.45,330.55L174.67,331.71L176.58,333.64L176.93,334.73L176.24,335.25L176.98,336.44L177.81,336.47L179.94,338.95L182.38,341.32L185.22,340.91L186.64,339.94L188.69,337.79L188.82,336.84L189.85,336.56L191,337.4L192.31,339.59L195.73,343.92L196.68,346L199.05,349.7L199.79,351.31L200.02,353L202.28,356.66L201.7,356.93L201.03,358.89L199.8,359.35L199.01,358.04L192.68,360.39L190.11,361.17L186.55,361.98L185.83,361.41L184.84,362.06L185.13,362.72L183.62,362.87L182.54,362L182.95,364.01L181.96,365.21L182.22,366.05L183.19,365.28L184.26,367.13L185.28,366.83L186.7,368.16L183.92,371.52L177.39,369.95L177.31,370.75L176.48,370.43L175.19,372.01L175.62,374.56L174.06,374.61L174.09,371.97L172.26,371.82L169.36,371.06L168.71,372.77L166.08,373.17L168.64,373.5L168.3,375.45L166.3,375.03L165,375.3L164.57,378.67L163.74,379.49L159.55,380.58L158.35,380.61L158.54,378.18L159.33,374.93L160.69,371.07L161.22,368.6L158.03,368.95L152.78,370.3L151.87,368.99L149.38,369.23L149.92,367.67L149.08,368.35L146.96,369.05L141.5,366.4L141.37,372.26L140.6,372.21L140.81,374.43L141.45,374.67L141.44,376L142.31,376L142.3,378.8L140.16,379.58L139.13,378.65L138.23,379.22L138.61,380.53L137.66,381.11L138.3,383.88L136.59,383.63L136.62,384.24L134.86,384L135.01,386.01L134.32,386.02L134.45,387.44L131.91,387.89L129.69,387.23L129.67,388.71L130.72,388.68L130.69,391.58L130.12,391.58L130.02,392.92L129.29,393.09L129.04,392.14L128.3,392.33L127.58,390.51L126.04,391.18L125.45,389.43L124.34,389.71L124.21,388.82L121.71,389.12L120.66,388.62L120.07,387.13L119.54,387.89L118.25,386.5L117.32,386.47L115.37,384.28L113.99,383.72L113.3,382.67L112.55,383.25L111.78,382.19L110.14,384.57L107.91,386.84L108.04,387.89L106.66,388.94L105.52,388.49L106.33,389.86L106.19,391.08L105.36,391.39L106.75,393.81L106.14,395.19L106.69,397.69L107.64,398.05L109.5,397.1L111.79,399.35L113.73,400.35L114.27,400.19L115.62,403.07L115.92,404.57L117.63,404.84L117.7,408.26L118.28,408.29L117.48,409.47L115.26,409.53L114.1,408.96L114.19,410.13L110.09,409.85L109.99,409.19L107.17,409.52L106.88,411.34L105.68,409.85L104.09,410L103.4,408.94L104.05,407.21L103.36,405.89L101.34,405.83L100.37,406.74L100.62,407.58L99.72,408.77L98.24,409.71L98.85,411.06L100.34,413.05L100.89,411.69L102.08,412.19L102.22,414.09L104.77,415.76L103.44,417.8L104.62,417.92L105.43,418.73L106.51,421.46L106.36,422.56L105.1,422.43L104.85,424.94L102.61,425.19L101.9,424.21L100.19,425.41L103.4,428.06L107.27,432.28L108.19,434.16L108.15,440.61L106.45,440.69L106.06,447.16L106.26,447.65L106.04,451.61L104.49,451.02L104.58,453.94L105.32,455.33L103.63,455.81L101.27,456.06L101.33,457.07L98.35,457L98.14,458.05L97.2,458.13L97.44,459L96.38,459.35L96.32,460.23L94.53,460.59L91.55,460.56L89.4,459.88L89.04,458.55L87.93,457.19L88.12,455.47L86.37,455.92L85.41,453.46L83.86,453.63L83.56,453.02L82.02,453.43L83.24,456.42L81.81,457.92L82.2,459.38L80.86,459.89L79.09,459.59L78.4,461.65L77.78,464.58L75.51,465.22L75.57,466.16L71.89,467.55L70.81,467.46L71.14,468.52L70.11,467.99L69.48,466.05L68.53,466.33L68.3,464.54L69.27,464.73L70.14,464.05L67.91,462.77L66.82,464.32L64.69,464.63L64.44,462.62L62.15,462.98L61.57,462.95L61.33,460.73L60.36,460.62L59.99,459.03L61.31,458.79L60.39,456.72L60.86,456.13L59.89,453.96L60.62,452.09L62.43,451.92L63.77,451.18L63.8,449.64L64.57,449.34L63.91,447.92L63.27,448.1L62.33,443.54L61.24,442.19L61.34,440.52L59.49,440.88L59.2,439.82L60.15,439.6L60.17,436.44L59.72,434.42L60.1,434.08L59.27,432.91L59.06,430.96L56.64,430.94L56.27,430.11L50.79,430.08L47.8,429.86L48.5,428.28L48.26,427.77L46.63,427.33L45.69,423.87L43.08,423.03L42.6,423.62L41.76,423.18L41.6,425.63L42.64,426.15L42.13,429.34L36.27,429.6L36.03,430.47L37.89,433.14L37.03,433.65L35.19,433.14L34.16,432.27L32.28,432.12L31.92,432.95L28.47,431.76L25.44,432.88L24.98,431.84L25.03,429.69L21.3,429.41L20.96,427.95L21.29,425.41L21.57,419.34L20.61,418.36L19.45,415.37L19.52,414.05L18.77,413L18.39,411.21L18.42,408.83L18.97,406.62L20.23,402.9L20.55,398.98L22.7,398.9L22.75,397.91L21.44,396.11L21.63,395.33L20.42,394.69L19.3,394.83L18.76,392.81L17.37,391.06L17.65,389.89L16.96,389.57L16.87,391.01L15.35,391.12L11.33,390.28L11.71,388.97L10.44,389.22L10.71,388.19L9.23,387.99L8.96,388.71L7.79,388.68L7.69,389.55L6.05,389.34L5.3,388.01L3.48,388.01L2.22,386.74L2.69,383.89L3.68,383.49L4.54,381.9L6.14,380.78L8.12,378.29L8.3,376.25L8.87,374.57L10.62,372.4L12.7,370.78L20.38,370.11L23.03,371.04L27.97,370.05L33.72,367.44L43.27,369.02L56.66,372.29L59.81,371.55L66.67,371.43L71.48,371.09L73.33,368.99L73.1,367.91L74.55,367.76L75,366.26L75.71,366.2L75.88,367.52L77.73,367.04L79.03,367.98L79.09,369.45L80.11,369.69L81.47,368.69L82.74,365.37L81.35,364.67L81.32,363.23L82.94,362.34L83.01,361.12L84.6,360.83L85.09,362.78L87.47,362.81L88.13,361.74L90.36,361.57L91.03,362.72L91.86,362.66L91.71,363.84L93.17,363.78L92.59,361.99L94.42,361.38L95.19,359.6L96.55,358.91L96.13,357.86L96.45,356.82L95.13,357.27L94.88,356.5L96.7,355.86L95.88,352.97L94.56,353.32L94.63,351.77L95.86,351.4L95.35,350.01L94.14,348.38L94.07,347.39L95.94,346.69L95.68,345.92L93.32,346.67L93.01,345.67L94.26,345.14L93.69,343.74L93.8,342.46L94.64,342.35L94.48,341.52L93.59,341.3L93.37,340.45L92.17,340.62L92.09,339.51L93.2,339.84L92.6,337.6L91.66,332.16L90.38,325.75L90.46,324.6L91.28,324.44L91.25,322.68L92.33,322.62L92.42,321.61L91.22,321.59L90.37,320.73L89.79,319.16L90.93,318.85L90.78,316.95L91.12,314.99L89.96,315.44L88.26,314.69L89.68,314.82L90.09,309.08L90.65,304.08L92.98,303.99L94.71,303.46L98,302.95L98.75,302.26L99.77,300.17L98.41,299.4L99.84,294.21L100.96,292.68L100.78,292.15L102.17,292.05L103.43,293.91L104.42,294.51L105.88,299.9L108.72,301.2L108.03,300.36L109.25,299.67L111.15,297.15L112.81,295.38L114.65,295.45L115.11,294.94L117.11,295.81L116.81,296.46L118.05,297.42L119.69,297.97L119.96,297.34L122.68,298.65L122.5,299.23L124.02,299.65L124.76,299.19L124.81,300.29L127.98,300.31Z" stroke-miterlimit="10" stroke="#FFFFFF"/>
<path title="松江区" fill="#D3D3D3" id="path13" d="M202.28,356.66L203.72,359.7L204.39,359.8L205.57,362.11L205.47,363.25L206.5,363.75L207.26,366.21L207.8,366.36L208.69,368.06L207.81,368.66L210.1,370.82L211.2,372.98L210.92,373.42L211.77,375.05L211.29,375.26L212.43,377.16L212.09,377.32L213.31,379.28L214.79,379.35L213.76,380.37L215.1,382.4L216.06,381.89L216.49,382.89L214.43,384.91L214.2,384.29L212.85,384.83L214.06,388.53L217.08,387.76L217.37,388.69L218.95,388.27L221.32,393.67L222.91,398.22L222.32,398.97L221.54,398.6L220.11,399.21L219.62,401.31L218.67,401.86L219.66,403.22L219.37,403.98L216.6,404.78L216.99,406.14L214.95,407.52L210.67,408.59L209.82,406.78L207.2,407.94L207.1,415.34L206.49,417.81L206.63,422.2L206.33,422.82L206.58,424.7L206.51,430.33L206.23,431.49L209.15,431.23L210.39,430.75L211.02,431.19L209.12,433.02L208.44,435.06L205.06,439.7L203.84,440.21L203.53,440.91L203.59,443.17L203.12,446.5L203.79,447.82L204.72,447.49L206.8,447.8L210.8,449.85L214.02,450.15L217.21,449.22L217.75,450.02L218.38,452.93L218.19,455.36L218.99,458.37L219.1,460.08L218.73,462.29L218.83,463.68L220.11,464.52L219.42,465.55L218.25,466.11L218.8,468.57L218.9,470.75L217.48,470.58L216.63,471.31L215.5,471.37L215.91,472.1L213.98,472.81L214.43,474.02L214.41,476.22L215.78,477.42L216.07,478.25L215.66,479.94L214.26,481.5L213.74,482.41L212.44,481.54L210.83,483.55L209.27,483.83L207.75,484.74L206.91,484.24L205.38,484.35L203.9,483.04L203.17,483.63L201.28,483.62L200.68,482.57L198.32,483.54L197.99,482.75L194.98,483L194.85,482.05L193.66,482.06L193.54,483.47L192.82,483.88L191.41,483.24L190.47,480.63L189.84,480.64L189.9,478.86L187.28,479.67L187.23,483.15L187.81,483.21L188.21,486.77L187.84,488.09L187.23,488.12L187.1,490.07L185.98,490.39L185.75,489.78L184.49,489.81L184.38,490.7L183.34,490.87L183.11,489.54L181.21,490.06L180.49,487.9L179.39,488.02L178.8,487.26L177.57,487.25L177.9,484.98L176.01,484.69L175.84,484.06L174.48,484.5L173.17,484.12L172.88,483.33L169.2,483.16L167.94,479.19L168.72,479.58L168.33,477.96L167.62,478.16L166.64,475.55L165.58,475.69L164.12,475.13L164,473.84L160.94,474.73L159.08,472.75L157,474.28L153.95,477.48L152.45,478.17L147.01,479.46L143.99,479.82L143.43,480.41L138.37,480.56L136.92,480.77L135.05,479.63L134.07,478.15L131.32,477.97L130.7,478.64L130.5,481.8L130.66,483.12L129.05,483.01L127.74,481.8L124.45,480.32L124.92,479.06L123.12,478.31L122.42,481.44L123.56,482.94L123.39,484.41L123.95,485.62L124.06,487.44L121.13,487.2L119.97,488.24L119.31,486.81L116.48,486.68L115.91,487.55L114.17,487.36L112.15,489.39L111.14,488.49L111.04,487.59L112.18,486.3L114.02,482.76L114.68,482.12L115.58,478.14L112.64,477.28L111.09,477.24L108.59,478.05L108.26,476.74L106.56,474.89L102.69,480.02L101.69,480.47L101.72,482.12L103.74,483.26L104.76,482.94L105.87,484.8L105.16,486.5L103.93,486.83L103.97,485.7L102.82,486.4L99.42,485.46L98.6,485.98L98.18,485.13L94.58,485.64L94.61,486.51L93.1,487.04L92.66,485.85L87.77,486.43L86.27,486.42L82.91,487.16L81.68,488.4L81.06,487.75L80.83,485.85L80.17,487.03L78.29,486.74L78.4,485.03L74.39,483.58L74.22,482.3L74.64,479.74L75.69,476.82L75.85,474.35L77.05,470.09L77.2,468.24L76.24,467.19L76.36,465.9L75.57,466.16L75.51,465.22L77.78,464.58L78.4,461.65L79.09,459.59L80.86,459.89L82.2,459.38L81.81,457.92L83.24,456.42L82.02,453.43L83.56,453.02L83.86,453.63L85.41,453.46L86.37,455.92L88.12,455.47L87.93,457.19L89.04,458.55L89.4,459.88L91.55,460.56L94.53,460.59L96.32,460.23L96.38,459.35L97.44,459L97.2,458.13L98.14,458.05L98.35,457L101.33,457.07L101.27,456.06L103.63,455.81L105.32,455.33L104.58,453.94L104.49,451.02L106.04,451.61L106.26,447.65L106.06,447.16L106.45,440.69L108.15,440.61L108.19,434.16L107.27,432.28L103.4,428.06L100.19,425.41L101.9,424.21L102.61,425.19L104.85,424.94L105.1,422.43L106.36,422.56L106.51,421.46L105.43,418.73L104.62,417.92L103.44,417.8L104.77,415.76L102.22,414.09L102.08,412.19L100.89,411.69L100.34,413.05L98.85,411.06L98.24,409.71L99.72,408.77L100.62,407.58L100.37,406.74L101.34,405.83L103.36,405.89L104.05,407.21L103.4,408.94L104.09,410L105.68,409.85L106.88,411.34L107.17,409.52L109.99,409.19L110.09,409.85L114.19,410.13L114.1,408.96L115.26,409.53L117.48,409.47L118.28,408.29L117.7,408.26L117.63,404.84L115.92,404.57L115.62,403.07L114.27,400.19L113.73,400.35L111.79,399.35L109.5,397.1L107.64,398.05L106.69,397.69L106.14,395.19L106.75,393.81L105.36,391.39L106.19,391.08L106.33,389.86L105.52,388.49L106.66,388.94L108.04,387.89L107.91,386.84L110.14,384.57L111.78,382.19L112.55,383.25L113.3,382.67L113.99,383.72L115.37,384.28L117.32,386.47L118.25,386.5L119.54,387.89L120.07,387.13L120.66,388.62L121.71,389.12L124.21,388.82L124.34,389.71L125.45,389.43L126.04,391.18L127.58,390.51L128.3,392.33L129.04,392.14L129.29,393.09L130.02,392.92L130.12,391.58L130.69,391.58L130.72,388.68L129.67,388.71L129.69,387.23L131.91,387.89L134.45,387.44L134.32,386.02L135.01,386.01L134.86,384L136.62,384.24L136.59,383.63L138.3,383.88L137.66,381.11L138.61,380.53L138.23,379.22L139.13,378.65L140.16,379.58L142.3,378.8L142.31,376L141.44,376L141.45,374.67L140.81,374.43L140.6,372.21L141.37,372.26L141.5,366.4L146.96,369.05L149.08,368.35L149.92,367.67L149.38,369.23L151.87,368.99L152.78,370.3L158.03,368.95L161.22,368.6L160.69,371.07L159.33,374.93L158.54,378.18L158.35,380.61L159.55,380.58L163.74,379.49L164.57,378.67L165,375.3L166.3,375.03L168.3,375.45L168.64,373.5L166.08,373.17L168.71,372.77L169.36,371.06L172.26,371.82L174.09,371.97L174.06,374.61L175.62,374.56L175.19,372.01L176.48,370.43L177.31,370.75L177.39,369.95L183.92,371.52L186.7,368.16L185.28,366.83L184.26,367.13L183.19,365.28L182.22,366.05L181.96,365.21L182.95,364.01L182.54,362L183.62,362.87L185.13,362.72L184.84,362.06L185.83,361.41L186.55,361.98L190.11,361.17L192.68,360.39L199.01,358.04L199.8,359.35L201.03,358.89L201.7,356.93Z" stroke-miterlimit="10" stroke="#FFFFFF"/>
<path title="徐汇区" fill="#D3D3D3" id="path2" d="M259.61,327.99L260.9,331.35L261.27,333L261.57,336.51L263.36,335.9L263.79,336.57L264.72,339.9L265.05,342.47L267,343.17L267.45,344.17L264.34,346.05L263.28,347.57L262.7,349.11L262.7,350.42L264.1,354.58L264.61,356.98L264.18,359.09L263.06,360.57L260.77,363L259.51,364.91L259.51,367.02L261.64,370.91L264.34,374.21L264.74,375.72L264.58,378.78L262.83,382.1L261.99,383.86L261.83,387.18L258.64,387.78L257.44,387.54L257.12,386.23L254.72,385.28L255.3,384.44L257.33,383.86L256.38,381.74L256.66,380.45L254.91,381.01L254.51,380.67L252.7,381.87L251.18,382.1L250.21,381.38L251.54,378.6L251.4,377.28L250.51,373.62L244.12,374.58L242.78,372.31L240.81,369.5L239.74,367.27L237.02,359.79L235.32,360.53L235.52,361.25L233.58,361.79L233.13,360.21L235.7,359.37L236.86,359.34L236.03,357.02L232.57,358.33L231.26,353.78L232.35,353.38L231.77,351.58L232.94,350.82L232.52,349.18L234.07,349.01L234.19,348.17L234.94,348.71L239.81,347.1L241.39,346.42L241.43,344.43L240.71,344.7L240.28,342.55L243.35,342.71L244.33,341.96L244.17,340.43L245.09,339.45L249.05,337.46L251.15,336.11L249.99,332.52L250.95,332.33L251.8,330.85L255.02,330.18L257.25,329.37Z" stroke-miterlimit="10" stroke="#FFFFFF"/>
<path title="杨浦区" fill="#D3D3D3" id="path7" d="M284.8,314.58L284.59,312.25L285.29,312.12L283.98,309.89L281.37,306.72L280.44,304.66L280.52,302.74L277.7,300.08L276.26,299.82L276.04,296.52L276.94,294.88L278.9,293.18L278.01,290.26L275.01,291.06L273.52,291.7L271.59,286.25L271.49,282.19L276.33,282.24L276.11,276.29L277.28,275.3L276.7,273.9L274.98,272.8L280.12,265.06L285.29,267.55L286.41,265.92L287.54,266.49L288.65,264.53L298.9,269.05L301.63,270.97L302.83,272.32L303.65,274.05L304.24,277.39L304.19,286.32L304.52,288.12L305.77,290.94L307.35,295.39L307.52,298.24L307.08,300.18L304.95,303.63L303.04,305.93L295.53,312.14L293.32,313.25L289.54,314.43Z" stroke-miterlimit="10" stroke="#FFFFFF"/>
<path title="长宁区" fill="#D3D3D3" id="path3" d="M251.8,330.85L250.95,332.33L249.99,332.52L251.15,336.11L249.05,337.46L245.09,339.45L244.17,340.43L244.33,341.96L243.35,342.71L240.28,342.55L231.23,342.15L226.34,343.08L220.32,345.33L217.87,345.47L217.05,345.11L216.46,346.73L214.9,347.3L214.09,346.37L209.8,348.4L208.49,348.06L205.69,343.3L208.36,341.8L208.06,340.2L208.74,339.78L208.53,334.77L208.56,332L209.2,331.95L208.93,329.78L210.25,329.19L210.52,326.55L211.61,326.32L209.62,325.95L209.87,324.93L211.49,324.14L211.5,322.88L210.7,320.92L208.49,319.3L209.57,318.09L211.59,318.12L211.17,316.29L212.12,317.55L212.32,316.47L213.02,316.13L213.54,317.15L212.94,318.38L214.7,318.9L215.27,319.51L217.37,323.16L218.67,325.1L220.36,325.08L220.63,326.05L222.65,326.83L223.42,328.04L225.01,327.74L230.04,328.77L234.78,328.73L235.1,327.68L236.53,327.79L238.63,326.9L240.96,326.4L241.74,325.84L241.26,324.05L241.59,323.79L243.44,325.49L244.89,324.02L246.69,323.43L246.77,325.97L247.34,326.54L249.59,325.14L250.07,325.55L250.39,327.75Z" stroke-miterlimit="10" stroke="#FFFFFF"/>
</svg>