<svg xmlns="http://www.w3.org/2000/svg" xmlns:xlink="http://www.w3.org/1999/xlink" width="600" height="600">
<path title="东营区" fill="#D3D3D3" id="path1" d="M169.57,440.97L169.56,438.41L168.17,438.41L168.07,435.23L164.39,435.19L164.43,434.06L166.53,433.92L166.5,432.36L163.7,432.57L162.71,431.83L162.88,429.51L161.62,429.48L161.51,428.73L157.28,428.93L156.43,428.69L156.46,426.54L158.41,426.61L158.41,425.9L156.44,425.85L156.42,424.79L151.67,425.13L150.3,424.82L149.97,423.9L150.29,421.14L150.14,419.17L147.69,419.44L146.87,419.18L146.63,418.27L146.85,415.52L145.92,415.14L145.94,408.21L145.7,404.9L145.73,401.15L145.97,399.08L145.98,396.63L135.05,396.68L135.11,396.25L136.82,393.69L135.89,393.35L134.72,391.61L130.29,392.15L129.71,392.97L128.17,391.94L128.17,392.55L127.03,392.13L127.1,391.16L125.2,390.88L124.39,384.93L123.86,383.61L121.11,383.35L121.02,384.69L118.91,384.82L119.61,387.87L118.72,389.16L117.16,389.4L114.44,389.19L114.23,388.25L109.91,389.12L110.12,387.84L108.03,387.35L108.22,383.53L107.62,380.63L110.87,380.61L112.44,380.16L115.26,378.51L117.09,376.83L117.4,376.06L115.67,367.37L115.49,365.08L115.77,363.44L117.12,359.77L120.46,348.02L121.45,346.54L123.67,347.01L124.08,345.46L125.23,346.08L126.58,348.38L128,348.23L129.03,349.52L129.13,351.98L132.24,352.91L131.47,354.06L132.33,354.71L133.93,354.78L136.4,356.16L138.09,356.13L137.98,357.28L139.14,357.54L139.15,358.59L140.5,359.12L141.54,361.25L143.87,363.93L144.56,364.2L150.23,364.38L151.96,365.38L154.07,365.7L154.95,364.29L158.84,364.07L158.9,363.18L165.16,363.09L165.53,362.66L165.49,360.84L166.04,359.78L171.14,359.78L171.17,358.79L172.58,358.74L174,354.87L175.3,354.89L176.01,355.44L176.02,358.35L179.03,358.5L179.47,359.1L180.92,359.31L180.99,359.98L182.09,360.1L182.35,357.8L184.78,358.22L184.89,359.98L189.03,360.11L188.51,363.01L190,362.9L190.09,362.25L192.04,362.82L192.39,363.89L194.45,364.37L195.24,361.29L193.97,360.89L193.74,360.05L194.61,357.18L194.64,356.43L193.2,355.88L192.8,355.2L191.15,354.98L192.14,352.98L191.67,350.65L192.43,350.63L192.32,349.55L193.5,348.53L194.13,346.52L194.08,345.09L196.18,344.14L196.51,343.1L196.39,341.7L197.25,341.18L197.36,338.57L197.99,338.13L197.82,335.8L197.43,335.39L197.63,333.57L193.98,333.62L192.4,333.09L191.82,331.22L191.88,329.24L192.77,328.98L193.24,327.98L196.47,326.16L196.14,324.57L198.21,323.48L197.76,322.76L199.91,322.05L200.37,321.21L203.84,321.41L204.04,322.91L205.68,322.58L205.93,318.54L209.33,318.23L209.33,317.84L207.4,317.85L208.23,317.22L208.78,315.42L208.46,313.94L209.38,312.76L208.9,311.93L210.01,310.83L212.58,309.9L213.88,308.68L214.06,306.55L215.03,306.51L215.97,307.5L217.49,306.03L218.32,306.9L219.81,306.64L220.67,307.64L222.1,308.41L223.12,308.41L226.59,310.99L228.15,309.38L229.56,309.32L228.75,311.32L229.73,311.57L229.76,312.18L231.82,312.21L231.91,313.15L233.76,312.71L233.81,313.35L235.15,314.25L235.15,316.04L233.7,315.27L232.17,315.64L232.9,317.72L233.49,318.16L242.49,318.06L255.21,318.14L260.49,318.02L266.73,318.06L278.11,317.96L278.13,320.55L279.96,321.16L281.94,322.46L282,324.77L284.62,324.55L286.15,326.21L285.84,326.73L284.35,326.39L284.27,327.87L285.86,328.28L288.44,325.56L290.72,327.47L296.36,320.49L297.58,321.11L299.99,320.56L301.61,321.72L302.29,323.72L303.52,325.02L308.21,326.91L310.59,329.01L313.42,330.74L315.64,326.44L318.42,326.56L322.38,327.42L325.98,327.5L327.36,328.45L328.38,328.73L330.32,329.85L330.82,331.76L338.27,332.06L342.27,333.38L353.85,336.23L355.01,336.81L361.03,338.76L362.58,338.55L362.55,336.79L363.66,336.63L363,332.42L363.93,332.19L365.55,331.16L368.84,329.97L372.42,330.17L375.69,328.55L377.89,328.17L380.7,328.72L381.98,328.73L383.93,329.43L384.94,328.3L386.85,328.21L387.66,329.01L390.37,329.47L391.35,329.31L393.08,336.24L396.41,346.43L399.48,358.78L402.19,371.24L403.36,379.39L403.83,382.16L404.53,383.51L405.87,384.11L413.99,381.5L415.71,381.66L416.93,383.02L417.66,385.08L417.44,386.66L416.49,387.69L407.05,390.16L405.91,391.07L405.42,393.06L398.58,394.49L393.23,396.07L388.1,397.8L384.1,397.61L382.4,397.04L377.06,394.25L376.02,393.38L375.04,394.36L374.67,397.97L373.82,400.02L372.69,401.18L369.27,402.84L368.19,403.91L366.43,407.61L365.58,408.29L364.76,408.22L362.48,406.9L359.1,407.25L356.52,406.9L354.29,406.08L343.25,406.56L339.73,407.88L335.94,407.85L331.61,408.56L326.03,407.73L324.37,407.75L317.17,408.74L314.85,408.75L313.74,409.28L311.63,410.93L306.89,411.55L304.36,407.62L302.59,404.22L296.26,404.13L296.26,403.71L294.28,403.7L294.11,404.57L289.92,404.45L289.9,405.1L286.7,405.06L288.51,407.88L287.11,407.94L287.54,406.56L286.66,407.13L285.06,407.13L285.03,408.01L286.79,407.91L287.85,409.88L282.9,409.95L281.55,407.48L280.76,408.06L280.06,407.07L272.33,411.91L271.68,414.14L271.24,416.58L270.7,416.81L257.9,416.84L257.77,415.29L255.17,414.83L255.09,419.55L251.03,419.61L251.08,415.51L250.51,415.52L250.52,419.62L248.85,419.65L248.91,412.92L243.91,411.52L243.95,414.74L242.07,414.67L242.13,419.88L239.35,422.81L239.11,422.85L239.22,416.65L237.84,416.27L237.48,422.67L239.27,422.99L239.16,426L237.74,425.75L237.54,430.86L235.44,427.42L235.49,426.04L234.9,426.65L232.77,424.77L227.18,424.93L227.26,420.54L221.98,419.63L221.92,424.5L209.79,421.72L209.24,422.78L206.32,422.97L205.67,422.43L206.41,420.6L203.39,420.8L201.29,420.59L199.33,426.65L195.85,426.7L195.38,426.89L197.18,421.41L193.42,422.4L191.1,422.55L190.24,424.97L188.77,424.41L188.19,425.81L187.3,425.64L187.84,423.06L185.04,424.96L184.05,427.37L182.71,427.35L182.68,425.93L181.16,427.59L181.03,429.74L181.73,430.05L181.69,430.91L179.85,431.21L179.62,433.66L177.75,433.68L178.09,435.62L177.36,436.17L175.61,436.01L175.67,439.75L175.31,440.91L174.7,441.08L172.41,440.79Z" stroke-miterlimit="10" stroke="#FFFFFF"/>
<path title="广饶县" fill="#D3D3D3" id="path5" d="M169.57,440.97L172.41,440.79L174.7,441.08L175.31,440.91L175.67,439.75L175.61,436.01L177.36,436.17L178.09,435.62L177.75,433.68L179.62,433.66L179.85,431.21L181.69,430.91L181.73,430.05L181.03,429.74L181.16,427.59L182.68,425.93L182.71,427.35L184.05,427.37L185.04,424.96L187.84,423.06L187.3,425.64L188.19,425.81L188.77,424.41L190.24,424.97L191.1,422.55L193.42,422.4L197.18,421.41L195.38,426.89L195.85,426.7L199.33,426.65L201.29,420.59L203.39,420.8L206.41,420.6L205.67,422.43L206.32,422.97L209.24,422.78L209.79,421.72L221.92,424.5L221.98,419.63L227.26,420.54L227.18,424.93L232.77,424.77L234.9,426.65L235.49,426.04L235.44,427.42L237.54,430.86L237.74,425.75L239.16,426L239.27,422.99L237.48,422.67L237.84,416.27L239.22,416.65L239.11,422.85L239.35,422.81L242.13,419.88L242.07,414.67L243.95,414.74L243.91,411.52L248.91,412.92L248.85,419.65L250.52,419.62L250.51,415.52L251.08,415.51L251.03,419.61L255.09,419.55L255.17,414.83L257.77,415.29L257.9,416.84L270.7,416.81L271.24,416.58L271.68,414.14L272.33,411.91L280.06,407.07L280.76,408.06L281.55,407.48L282.9,409.95L287.85,409.88L286.79,407.91L285.03,408.01L285.06,407.13L286.66,407.13L287.54,406.56L287.11,407.94L288.51,407.88L286.7,405.06L289.9,405.1L289.92,404.45L294.11,404.57L294.28,403.7L296.26,403.71L296.26,404.13L302.59,404.22L304.36,407.62L306.89,411.55L311.63,410.93L313.74,409.28L314.85,408.75L317.17,408.74L324.37,407.75L326.03,407.73L331.61,408.56L335.94,407.85L339.73,407.88L343.25,406.56L354.29,406.08L356.52,406.9L359.1,407.25L362.48,406.9L364.76,408.22L365.58,408.29L366.43,407.61L368.19,403.91L369.27,402.84L372.69,401.18L373.82,400.02L374.67,397.97L375.04,394.36L376.02,393.38L377.06,394.25L382.4,397.04L384.1,397.61L388.1,397.8L393.23,396.07L398.58,394.49L405.42,393.06L406.08,397.86L407.57,403.01L410.14,408.95L413.12,413.18L416.67,415.89L424.65,418.38L428.19,420.18L356.94,425.37L343.28,427.86L337.46,429.31L329.68,431.55L329.69,432.05L328.07,431.85L326.17,432.1L323.55,433.74L321.76,435.13L318.99,436.91L306.87,445.49L304.23,447.02L301.37,448.97L299.58,451.11L297.4,452.24L292.88,454.19L290.28,455.63L288.26,456.98L285.97,457.2L287.25,459.42L287.1,461.42L286.07,462.03L285.03,463.89L285.15,466.55L284.76,468.89L285.41,469.79L284.14,469.73L282.9,471.05L283.64,472.05L283,472.96L282.33,472.98L282.18,474.03L281.56,473.85L281.21,474.75L280.55,474.72L280.37,477.21L278.13,476.12L278.1,477.42L276.68,476.38L276.05,476.62L274.56,481.98L273.95,481.88L273.61,483.54L272.29,483.57L271.92,485.42L269.95,485.39L270.39,488.01L270.15,489.21L271.13,489.37L270.96,490.12L274.64,491.06L275,489.65L276.01,488.78L276.85,490.07L276.52,491.48L277.47,491.85L277.37,493.18L276.55,497.15L276.99,497.79L277.73,495.89L279.4,497L282.75,498.74L283.21,497.61L285.56,498.52L284.88,500.6L283.77,508.93L285.64,509.6L284.49,511.8L284.35,512.76L282.97,513.37L282.92,514.21L283.53,519.43L281.73,519.16L281.57,520.99L281.77,523.92L283.49,524.3L282.81,525.66L283.61,525.77L282.7,526.88L282.23,529.07L278.46,528.62L277.92,531.42L275.66,531.37L275.81,532.85L272.74,533.59L273.2,534.79L269.37,534.61L269.27,536.41L262.87,537.88L262.74,538.42L261.01,538.8L261.1,538.22L258.51,537.76L257.42,538.06L257.5,537.29L256.39,537.22L255.89,535.98L253.51,535.57L249.35,536.43L249.22,538.08L245.45,537.61L245.32,538.23L244.23,538.06L244.29,537.46L241.78,538.08L241.26,541.23L240.4,541.19L240.32,543.87L240.9,543.88L240.78,545.11L241.49,545.2L241.19,546.62L241.84,546.79L241.29,548.77L241.44,550.07L240.58,549.11L238.4,548.78L238.26,550.13L235.59,550.18L235.7,552.24L236.21,552.35L235.26,556.72L235.75,557.5L239.82,557.38L245.73,558.19L245.91,559.18L247.77,559.18L247.8,560.08L250.58,560.06L252.34,560.48L252.2,561.26L251.25,561.08L251.51,563.21L250.44,564.86L251.6,565.07L251.36,566.54L253.22,567.23L253.04,568.31L248.76,567.8L248.74,567.16L245.62,566.96L245.61,565.97L244.22,565.85L244.21,567.77L243.69,567.94L243.69,569.44L245.46,569.96L246.54,570.67L246.9,569.47L248.82,569.76L249.52,570.68L249.24,571.4L247.77,571L247.51,572.78L247.12,571.92L244.2,571.6L242.88,571.81L241.31,570.85L241.2,569.47L240.32,568.68L238.93,568.85L238.54,570.64L238.04,574.88L238.58,575.42L238.27,578.89L240.66,578.95L241.2,580.16L240.28,585.85L239.64,586.8L240.66,587.63L240.63,590.29L241.41,590.58L242.13,592.16L241.57,593.81L241.56,595.03L240.14,594.86L238.89,596.35L239.28,597.1L239.18,599.02L237.08,598.81L236.8,599.66L235.59,599.54L235.26,600L232.6,599.8L229.89,598.64L228.45,598.37L227.46,595.65L226.25,595.66L226.21,596.34L223.72,596.36L222.84,596.81L220.95,596.76L219.14,596.14L219.36,592.6L216.92,592.41L216.61,591.46L215.39,591.01L213.86,590.93L212.71,590.11L208.81,589.89L207.97,590.41L207.27,592.97L206.3,594.36L205.37,594.55L204.72,597.61L203.27,597.54L203.47,594.98L194.18,597.14L192.26,595.93L190.44,596.27L187.91,596.36L187.19,597.4L181.67,597.32L180.21,596.69L179.7,595.45L179.65,593.44L178.3,593.57L176.14,594.55L175.18,594.29L173.63,592.75L174.7,591.52L173.78,590.42L174.58,586.96L174.04,586.8L173.88,584.91L174.11,582.97L172.92,582.83L172.98,581.47L171.8,581.24L168.05,581.21L167.59,581.41L163.86,581.26L160.37,581.36L159.93,582.59L159.81,584.68L157.47,586.71L157.25,588.13L153.34,587.48L149.6,586.15L149.63,584.91L148.68,585.01L148.7,581.4L147,581.38L147.02,582.21L144.86,582.49L144.86,583.16L142.12,583.61L137.89,583.76L137.24,577.92L136.74,570.98L135.64,568.98L136.1,564.36L137.82,564.58L138.05,563.08L139.03,562.61L139.29,561.03L140.46,559.87L142.48,560L143.19,559.26L143.34,556.97L143.95,555.2L146.19,555.13L147.43,554.68L149.2,553.06L150.07,551.68L150.41,549.65L149.43,548.04L149.56,546.39L151.85,544.53L154.63,542.67L154.61,541.33L154.07,540.94L153.88,539.62L155.01,533.71L154.25,533.2L153.54,531.13L152.71,530.98L152.83,528.99L153.43,527.74L154.27,527.02L154.4,525.6L156.49,525.4L156.54,523.17L155.12,523.15L155.21,521.64L154.36,520.88L154.34,519.28L153.25,519.3L153.27,518.71L154.9,518.66L156.18,519.68L156.59,518.11L157.94,519.25L159.23,519.31L159.46,518.32L159.02,516.08L157.48,515.24L158.11,512.78L156.61,510.96L155.62,512.12L154.89,508.87L155.6,508.57L157.94,508.49L158.11,506.99L156.45,507.42L156.1,506.52L155.98,504.14L157.09,503.43L157.93,503.41L158.55,500.71L161.89,500.95L162.12,499.13L163.98,496.48L165.94,497.3L166.47" stroke-miterlimit="10" stroke="#FFFFFF"/>
<path title="河口区" fill="#D3D3D3" id="path2" d="M243.43,48.22L246.34,53.98L246.34,55.31L244.34,56.78L243,59.72L241.93,60.79L240.59,64.14L240.59,64.94L241.93,66.28L240.33,66.95L240.19,68.42L240.99,69.89L239.92,69.89L239.52,70.55L239.52,73.37L255.97,91.56L255.97,93.83L256.37,96.1L257.04,96.37L271.75,95.69L272.8,96.14L277.19,95.9L277.5,95.16L284.01,95.62L287.01,82.6L287.04,67.39L286.6,64.54L286.46,46.69L286.21,19.83L287.52,18.5L286.2,10.65L285.09,5.78L297.27,3.25L306.09,1.67L326.07,0.34L339.22,0L355.66,1.3L364.92,3.97L376.84,9.04L385.94,14.93L396.48,23.51L402.56,31.43L406.92,47.29L410.16,64.35L411.3,71.08L413.39,79.9L414.43,81.82L430.3,94.01L438.94,101.66L415.97,101.98L415.43,102.13L408.96,101.92L406.42,103.06L400.24,110.22L385.43,129.32L384.08,131.35L377.69,139.51L377.72,139.93L370.71,145.16L366.3,146.61L356.33,149.73L355.24,150.69L331.19,172.96L330.87,173.18L308.57,184.66L304.71,186.79L296.18,193L292.77,189.84L286.32,184.6L287.64,180.41L287.5,179.47L288.66,176.05L289.32,175.24L289.78,173.3L287.44,172.54L282.69,170.65L281.77,170.13L282.33,169.06L281.57,166.68L280.66,166.26L279.83,164.7L276.4,163.65L272.16,163.24L271.59,164.76L271.5,167L271.89,168.64L272.8,169.69L271.68,171.27L270.58,171.52L269.85,171.15L268.48,168.55L266.71,167.77L265.86,167.8L264.88,166.74L263.66,163.36L262.34,163.4L259.57,172.18L259.34,175.38L254.15,175.22L254.21,178.2L256.38,177.93L256.25,181.17L253.58,181.24L253.63,178.17L249.27,180.12L249.47,179.48L246.33,180.43L246.75,178.6L245.2,178.71L244.47,179.61L242.21,179.13L242.25,176.83L239.92,176.46L238.84,177.09L236.52,177.29L235.55,177.84L235.53,178.5L234.15,178.79L233.24,180.36L230.47,181.8L226.46,180.84L226.89,182.62L221.75,183.54L219.52,174.33L221.42,175.05L221.89,174.05L222.21,171.16L222.45,166.2L222.78,166.11L221.13,160.66L220.06,157.61L219.12,157.02L214.79,156.93L214.88,154.68L208.22,155.31L206.24,157.22L206.07,156.48L203.97,156.11L202.79,157.05L197.61,163.39L196.23,163.33L197.38,161.92L194.19,160.41L193.83,161.01L191.99,160.84L189.71,162.75L189.85,163.53L192.63,164.62L192.94,165.19L192.28,166.51L186.41,173.86L185.64,174.58L184.05,176.92L184.1,178.02L181.9,178.55L181.83,177.91L180.08,178.6L173.55,178.71L173.08,178.33L173.03,176.78L172.39,176.97L163.72,177.12L162.98,175.48L162,175.39L162.05,174.13L160.05,174.12L160.07,172.23L161.68,172.08L161.68,170.7L160.39,169.68L160.41,168.66L161.45,168.25L161.95,166.45L160.91,166.2L159.69,164.85L157.51,164.58L157.46,162.91L157.95,160.76L156.56,160.81L156.57,159.88L154.87,160.05L155.1,160.82L153.21,160.66L153.5,158.49L155.24,158.4L155.66,157.96L152.48,150.05L153.02,149.77L150.95,144.53L150.05,144.43L147.48,145.04L146.67,144.63L145.17,146.38L143.19,144.58L142.46,144.6L141.14,143.31L140.65,142.09L138.37,143.08L138.73,143.8L137.91,144.51L138.23,145.36L136.71,145.92L136.93,146.64L134.2,147.28L134.67,148.66L128.22,150.54L128.36,151.3L126.25,152.71L126.17,153.34L124.31,154.8L123.75,154.93L123.49,153.61L123.71,149.65L123.31,148.25L122.22,145.89L120.85,145.96L120.61,143.17L122.3,143.88L122.52,142.3L120.91,141.07L119.61,141.32L119.83,142.85L120.03,148.04L119.02,148.87L118.22,144.33L117.51,143.15L116.28,142.83L115.81,138.88L115.69,136.59L115.29,135.04L117.07,134.7L117.24,133.6L116.52,132.15L117.58,131.85L116.87,130.24L117.84,129.53L116.02,123.59L115.26,122.59L115.64,124.24L114.84,124.75L114.3,120.89L113.14,119.4L114.43,118.94L113.79,116.28L113.23,115.96L111.03,115.83L111.19,111.72L111.54,107.8L110.68,102.42L107.07,103.01L105.96,100.88L106.3,100.03L109.21,99.62L109.08,98.77L110.18,97.87L109.66,91.52L109.16,86.61L112.56,84.69L112.44,83.96L110.96,82.69L111.38,79.6L110.03,78.76L110.15,77.51L181.97,65.03L186.72,65.38L186.47,51.72L182.84,51.66L111.8,59.27L112.8,52.05L113,49.94L112.68,47.08L112.62,43.33L112.22,41.47L111.2,39.17L111.41,38.64L113.92,37.79L114.82,36.97L115.96,32.9L116.39,30.52L116.87,29.5L118.5,28.31L118.84,27.68L118.17,24.74L117.11,22.53L115.54,21.62L112.71,21.3L111.58,20.19L111.83,19.01L113.9,17.29L115.17,15.77L118.73,6.6L130.01,9.46L141.68,13.1L151.97,16.13L163.43,18.17L171.26,18.67L175.43,16.99L180.55,18.19L183.19,20.11L186.91,24.9L191.22,25.42L194.46,22.16L196.81,17.96L198.33,16.52L202.86,15.32L211.35,17.04L219.65,21.64L223.04,26.23L224.55,34.3L229.69,41.8L231.34,46.58L234.93,49L238.33,50.45ZM182.84,51.66L182.01,62.14L181.97,65.03L110.15,77.51L110.88,70.07L111.32,62.66L111.8,59.27Z" stroke-miterlimit="10" stroke="#FFFFFF"/>
<path title="垦利区" fill="#D3D3D3" id="path3" d="M438.94,101.66L448.14,109.83L455.72,116.85L458.09,121.89L459.6,128.85L459.79,137.01L460.49,143.9L462.64,149.11L462.86,151.12L462.6,153L465.57,162.93L475.59,167.25L495.5,157.58L506.27,138.24L515.41,136.51L526.45,142.38L531.09,154.3L533.06,174.06L529.38,198.64L521.88,229.67L514.93,245.43L504.7,249.57L472.39,247.93L458.76,251.55L438.1,254.56L422.08,254.56L408.24,264.9L403.67,274.12L401.87,277.89L393.89,296.79L391.04,304.56L389.14,311.02L389.14,315.8L389.71,321.41L390.42,325.55L391.35,329.31L390.37,329.47L387.66,329.01L386.85,328.21L384.94,328.3L383.93,329.43L381.98,328.73L380.7,328.72L377.89,328.17L375.69,328.55L372.42,330.17L368.84,329.97L365.55,331.16L363.93,332.19L363,332.42L363.66,336.63L362.55,336.79L362.58,338.55L361.03,338.76L355.01,336.81L353.85,336.23L342.27,333.38L338.27,332.06L330.82,331.76L330.32,329.85L328.38,328.73L327.36,328.45L325.98,327.5L322.38,327.42L318.42,326.56L315.64,326.44L313.42,330.74L310.59,329.01L308.21,326.91L303.52,325.02L302.29,323.72L301.61,321.72L299.99,320.56L297.58,321.11L296.36,320.49L290.72,327.47L288.44,325.56L285.86,328.28L284.27,327.87L284.35,326.39L285.84,326.73L286.15,326.21L284.62,324.55L282,324.77L281.94,322.46L279.96,321.16L278.13,320.55L278.11,317.96L266.73,318.06L260.49,318.02L255.21,318.14L242.49,318.06L233.49,318.16L232.9,317.72L232.17,315.64L233.7,315.27L235.15,316.04L235.15,314.25L233.81,313.35L233.76,312.71L231.91,313.15L231.82,312.21L229.76,312.18L229.73,311.57L228.75,311.32L229.56,309.32L228.15,309.38L226.59,310.99L223.12,308.41L222.1,308.41L220.67,307.64L219.81,306.64L218.32,306.9L217.49,306.03L215.97,307.5L215.03,306.51L214.06,306.55L213.88,308.68L212.58,309.9L210.01,310.83L208.9,311.93L209.38,312.76L208.46,313.94L208.78,315.42L208.23,317.22L207.4,317.85L209.33,317.84L209.33,318.23L205.93,318.54L205.68,322.58L204.04,322.91L203.84,321.41L200.37,321.21L199.91,322.05L197.76,322.76L198.21,323.48L196.14,324.57L196.47,326.16L193.24,327.98L192.77,328.98L191.88,329.24L191.82,331.22L192.4,333.09L193.98,333.62L197.63,333.57L197.43,335.39L197.82,335.8L197.99,338.13L197.36,338.57L197.25,341.18L196.39,341.7L196.51,343.1L196.18,344.14L194.08,345.09L194.13,346.52L193.5,348.53L192.32,349.55L192.43,350.63L191.67,350.65L192.14,352.98L191.15,354.98L192.8,355.2L193.2,355.88L194.64,356.43L194.61,357.18L193.74,360.05L193.97,360.89L195.24,361.29L194.45,364.37L192.39,363.89L192.04,362.82L190.09,362.25L190,362.9L188.51,363.01L189.03,360.11L184.89,359.98L184.78,358.22L182.35,357.8L182.09,360.1L180.99,359.98L180.92,359.31L179.47,359.1L179.03,358.5L176.02,358.35L176.01,355.44L175.3,354.89L174,354.87L172.58,358.74L171.17,358.79L171.14,359.78L166.04,359.78L165.49,360.84L165.53,362.66L165.16,363.09L158.9,363.18L158.84,364.07L154.95,364.29L154.07,365.7L151.96,365.38L150.23,364.38L144.56,364.2L143.87,363.93L141.54,361.25L140.5,359.12L139.15,358.59L139.14,357.54L137.98,357.28L138.09,356.13L136.4,356.16L133.93,354.78L132.33,354.71L131.47,354.06L132.24,352.91L129.13,351.98L129.03,349.52L128,348.23L126.58,348.38L125.23,346.08L124.08,345.46L123.67,347.01L121.45,346.54L121.94,345.3L124.55,341.19L128.45,333.01L130.24,329.94L131.51,328.39L138.88,324.08L140.11,323.07L143.41,320.99L144.28,319.67L144.48,316.85L145.59,307.52L146.17,304.39L148.36,299.84L150.34,293.13L152.35,285.2L153.98,279.08L155.42,276.9L157.06,276.25L169.54,274.12L173.33,272.47L176.22,271.44L183.5,269.3L190.9,267.69L194.99,267.36L198.35,267.47L200.94,267.85L206.29,269.17L214.3,271.84L217.42,272.68L220.68,273.36L227.03,274.45L228.85,274.47L229.92,273.94L235.37,270.23L241.47,265.41L250.05,258.96L253.21,257.02L259.86,253.53L266.49,249.91L268.98,247.57L271.92,243.72L276.64,236.2L279.28,231.25L281.99,225.21L285.85,217.44L288.42,212.64L289.65,211.53L295.23,209.59L297.25,208.63L299.68,207.11L300.3,203.98L300.31,200.86L299.06,200.98L298.83,199.67L296.88,199.11L295.84,199.84L291.63,196.32L296.18,193L304.71,186.79L308.57,184.66L330.87,173.18L331.19,172.96L355.24,150.69L356.33,149.73L366.3,146.61L370.71,145.16L377.72,139.93L377.69,139.51L384.08,131.35L385.43,129.32L400.24,110.22L406.42,103.06L408.96,101.92L415.43,102.13L415.97,101.98Z" stroke-miterlimit="10" stroke="#FFFFFF"/>
<path title="利津县" fill="#D3D3D3" id="path4" d="M163.72,177.12L172.39,176.97L173.03,176.78L173.08,178.33L173.55,178.71L180.08,178.6L181.83,177.91L181.9,178.55L184.1,178.02L184.05,176.92L185.64,174.58L186.41,173.86L192.28,166.51L192.94,165.19L192.63,164.62L189.85,163.53L189.71,162.75L191.99,160.84L193.83,161.01L194.19,160.41L197.38,161.92L196.23,163.33L197.61,163.39L202.79,157.05L203.97,156.11L206.07,156.48L206.24,157.22L208.22,155.31L214.88,154.68L214.79,156.93L219.12,157.02L220.06,157.61L221.13,160.66L222.78,166.11L222.45,166.2L222.21,171.16L221.89,174.05L221.42,175.05L219.52,174.33L221.75,183.54L226.89,182.62L226.46,180.84L230.47,181.8L233.24,180.36L234.15,178.79L235.53,178.5L235.55,177.84L236.52,177.29L238.84,177.09L239.92,176.46L242.25,176.83L242.21,179.13L244.47,179.61L245.2,178.71L246.75,178.6L246.33,180.43L249.47,179.48L249.27,180.12L253.63,178.17L253.58,181.24L256.25,181.17L256.38,177.93L254.21,178.2L254.15,175.22L259.34,175.38L259.57,172.18L262.34,163.4L263.66,163.36L264.88,166.74L265.86,167.8L266.71,167.77L268.48,168.55L269.85,171.15L270.58,171.52L271.68,171.27L272.8,169.69L271.89,168.64L271.5,167L271.59,164.76L272.16,163.24L276.4,163.65L279.83,164.7L280.66,166.26L281.57,166.68L282.33,169.06L281.77,170.13L282.69,170.65L287.44,172.54L289.78,173.3L289.32,175.24L288.66,176.05L287.5,179.47L287.64,180.41L286.32,184.6L292.77,189.84L296.18,193L291.63,196.32L295.84,199.84L296.88,199.11L298.83,199.67L299.06,200.98L300.31,200.86L300.3,203.98L299.68,207.11L297.25,208.63L295.23,209.59L289.65,211.53L288.42,212.64L285.85,217.44L281.99,225.21L279.28,231.25L276.64,236.2L271.92,243.72L268.98,247.57L266.49,249.91L259.86,253.53L253.21,257.02L250.05,258.96L241.47,265.41L235.37,270.23L229.92,273.94L228.85,274.47L227.03,274.45L220.68,273.36L217.42,272.68L214.3,271.84L206.29,269.17L200.94,267.85L198.35,267.47L194.99,267.36L190.9,267.69L183.5,269.3L176.22,271.44L173.33,272.47L169.54,274.12L157.06,276.25L155.42,276.9L153.98,279.08L152.35,285.2L150.34,293.13L148.36,299.84L146.17,304.39L145.59,307.52L144.48,316.85L144.28,319.67L143.41,320.99L140.11,323.07L138.88,324.08L131.51,328.39L130.24,329.94L128.45,333.01L124.55,341.19L121.94,345.3L121.45,346.54L120.46,348.02L117.12,359.77L115.77,363.44L115.49,365.08L115.67,367.37L117.4,376.06L117.09,376.83L115.26,378.51L112.44,380.16L110.87,380.61L107.62,380.63L104.72,380.76L101.83,381.99L88.7,390.03L85.85,391.71L84.82,390.65L83.98,390.85L83.55,389.15L84.31,388.8L84.14,386.56L83.48,384.45L82.82,384.02L81.11,384.11L78.32,384.9L75.99,382.14L75.92,380.81L76.47,379.56L77.9,377.74L79.24,376.89L83.56,377.09L86.01,378.3L86.22,376.98L85.58,376.2L85.99,375.02L85.54,373.56L86.72,371.52L87.64,369.35L86.85,367.47L87,365.15L87.51,364.67L89.06,364.55L88.8,363.32L85.9,363.81L84.79,360.8L86.35,358.56L85.32,358.02L83.96,358.34L82.99,356.19L81.55,354.55L80.58,354.54L78.24,353.06L76.18,352.92L75,353.52L73.88,353.48L72.77,354.27L70.63,354.24L70.5,353.59L69.35,353.61L69.23,354.18L67.89,353.88L68.94,351.5L67.67,350.54L69.32,345.81L71.03,346.71L71.92,344.43L68.47,343.03L67.05,342.2L66.94,340.41L67.19,339L68.54,338.93L69.46,337.83L69.43,335.48L70.05,333.76L71.82,333.8L71.9,332.79L73.19,332.31L72.95,328.32L74.54,327.69L75.05,326.08L75.74,325.89L75.21,323.69L76.09,323.45L75.44,320.68L77.43,320.66L77.17,317.4L76.31,317.53L76.43,316.05L77.5,316.05L77.91,315.18L78.67,315.01L80.85,311.91L80.67,310.67L81.96,309.31L83.47,309.69L84.3,309.41L85.3,307.7L85.39,305.07L87.27,304.17L87.31,302.76L88.41,302.61L88.44,303.43L89.17,302.88L89.3,301.73L90.64,301.29L89.5,300.31L89.42,299.13L89.98,297.95L91.48,298.03L90.93,296.55L91.74,296.24L90.61,293.08L89.3,293.35L88.99,294.01L87.23,294.02L87.05,295.07L85.9,294.91L85.68,293.09L83.93,293.15L83.21,295.48L80.25,295.49L79.45,296.49L78.23,296.65L77.45,295.2L76.01,295.77L75.4,295.58L75.13,292.14L75.84,292.04L75.66,290.68L77.27,290.31L77.36,289.26L74.29,289.28L73.52,288.62L73.61,286.13L72.86,285.94L72.99,284.67L73.67,282.67L74.85,280.72L75.67,280.08L78.67,279.77L80.75,278.76L81.07,278.09L80.29,275.2L81.02,273.97L81.55,274.65L82.7,272.76L83.49,272.48L84.24,270.57L84.45,269.19L84.47,265.16L83.81,264.57L83.85,263.32L85.07,263.22L85.42,264.91L86.03,264.85L85.77,263.31L83.69,262.64L83.51,261.4L85.47,261.37L86.83,260.09L87.55,256.9L88.3,256.66L87.65,253.23L89.74,253.2L90.34,253.51L91.31,251.75L92.15,246.84L93.18,247.11L93.55,245.85L94.92,244.86L96.16,245.53L99.26,244.81L100.67,242.59L101.3,242.02L101.65,242.87L103.94,244.89L104.99,244.56L104.67,243.22L104.98,242.7L106.51,242.39L107.18,243.87L107.3,245.15L109.59,245.02L109.55,244.21L111.07,243.85L111.14,244.98L112.65,246.31L114.42,245.45L115.62,247.27L116.39,247.66L119.14,246.47L121.04,248.19L124.79,248.32L127.13,247.5L128.65,246.07L130.41,246.2L131.9,245.37L133.99,244.66L135.28,240.97L135.85,241.75L137.32,240.7L137.79,238.89L137.19,238.53L137.68,236.54L138.83,236.7L139.74,234.82L142.01,234.3L141.75,230.55L142.71,231L143.59,230.02L143.77,229.04L143.33,226.06L143.86,223.8L144.96,224.01L145.48,222.92L145.9,220L146.29,219.01L147.57,219.62L147.33,217.88L147.34,214.41L146.79,214.04L146.82,212L147.66,211.63L149.31,212.25L150.16,211.47L154.6,211.45L154.7,205.91L155.91,205.99L156.32,203L158.02,203.38L160.91,201.29L160.92,198.62L160.67,197.35L157.81,196.7L155.85,194.49L155.93,191.07L157.31,190.86L158.08,189.7L155.79,189.33L155.87,188.88L159.07,180.84L160.46,180.27L162.15,180.62L162.94,182.05L163.09,180.7L164.12,180.63ZM285.09,5.78L286.2,10.65L287.52,18.5L286.21,19.83L286.46,46.69L286.6,64.54L287.04,67.39L287.01,82.6L284.01,95.62L277.5,95.16L277.19,95.9L272.8,96.14L271.75,95.69L257.04,96.37L256.37,96.1L255.97,93.83L255.97,91.56L239.52,73.37L239.52,70.55L239.92,69.89L240.99,69.89L240.19,68.42L240.33,66.95L241.93,66.28L240.59,64.94L240.59,64.14L241.93,60.79L243,59.72L244.34,56.78L246.34,55.31L246.34,53.98L243.43,48.22L248.68,44.11L255.91,38.93L258.37,27.87L259.14,19.69L259.89,14.15L262.36,11.74L266.9,9.57Z" stroke-miterlimit="10" stroke="#FFFFFF"/>
</svg>