<svg xmlns="http://www.w3.org/2000/svg" xmlns:xlink="http://www.w3.org/1999/xlink" width="600" height="600">
<path title="费县" fill="#D3D3D3" id="path8" d="M112.25,355.38L114.31,354.79L117.23,353.39L119.32,352.77L125.33,346.92L129.02,341.52L130.35,337.02L130.74,334.84L132.89,327.26L134.91,327L135,325.26L136.23,325.25L134.73,321.62L135.85,314.12L136.55,312.63L136.07,308.07L138.21,308.9L140.22,309.18L146.07,311.14L148.31,310.9L155.48,308.39L156.57,307.61L159.29,306.82L161.28,304.82L164.5,303.63L166.44,302.09L168.27,300.07L172.51,299.81L176.62,298.98L180.88,299.95L182.58,299.31L183.99,296.15L185.87,294.32L186.32,291.94L183.94,287.66L182.7,282.58L184.22,275.73L187.51,272.88L190.1,269.59L191.53,265.62L191.77,264.19L193.78,257.65L193.23,252.51L194.39,249.58L199.61,244.57L200.6,243.29L201.23,239.89L202.37,237.08L202.41,234.59L202,232.21L202.41,229.4L204.09,227.23L202.1,224.36L200.78,221.66L201.12,217.74L202.67,217.65L209.5,220.77L212.02,221.2L214.66,221.23L219.23,222.18L221.1,224.08L221.32,225.06L220.66,227.28L222.04,228.96L222.58,232.69L224.67,234.01L225.85,238.24L228.42,242.01L230.87,241.8L235.18,240.4L237.95,240.63L241.28,241.45L243.98,242.56L250.53,244.2L253.22,246.39L254.61,248.59L254.92,251.12L255.9,252.95L255.4,255.52L253.72,258.54L253.33,261.25L254.21,262.85L257.09,265.15L259.13,265.71L260.42,268.26L262.89,268.84L265.8,267.72L267.6,268.3L268.7,267.83L270.93,264.07L272.5,263.04L274.37,262.63L275.12,263.17L276.23,265.91L280.2,267.66L281.56,270L283.24,271.64L280.4,270.45L279.29,270.6L278.33,272.23L280.03,274.02L281.45,274.8L282.05,276.36L281.64,278.98L280.16,280.91L279.11,283.62L277.32,283.65L277.16,282.81L275.03,281.78L275.71,280.45L274.42,281.07L274.36,283.96L273.19,284.83L274.26,286.21L273.7,287.05L275.39,287.1L276.09,288L274.98,288.22L273.04,291.96L273.52,293.56L271.98,294.32L270.79,292.44L269.69,291.85L268.41,293.47L267.45,293.29L267.02,289.87L265.74,288.95L263.12,289.14L262.79,290.24L260.54,290.79L259.39,290.47L257.33,293.55L256.79,291.53L254.87,290.97L253.95,291.87L252.39,291.56L252.09,293.91L253.09,294.64L252.97,295.79L255.56,298.96L255.73,300.43L254.69,302.69L254.78,304.58L253.81,307.56L254.23,308.21L252.67,310.69L253.72,312.77L251.86,313.57L251.22,314.61L251.29,318.33L247.61,321.2L247.83,322.31L250.98,325.14L253.95,325.79L256.74,328.2L261.35,328.91L264.39,329.76L266.58,330.81L264.5,331.91L263.08,333.39L261.89,336.04L260.82,337.11L259.1,337.42L257.8,341.64L256.29,345.11L254.1,345.21L253.31,348.68L250.63,352.06L249.68,357.87L248.7,360.95L247.5,363.29L246.77,367.04L245.58,367.12L242.24,368.6L239.85,367.02L238.02,366.51L234.8,368.15L227.5,369.01L224.58,370.76L222.44,372.65L217.83,373.31L217.2,375.12L215.6,374.99L214.17,373.55L210.22,374.6L204.53,379.52L196.18,382.92L193.07,383.64L190.33,382.67L186.49,382.92L184.09,383.49L180.73,382.81L177.22,381.38L173.3,381.08L170.39,381.24L169.13,382.38L168.87,385.74L167.92,387.63L166.71,387.35L165.26,385.76L164.52,383.66L163.22,383.6L160.88,384.38L155.76,384.01L153.79,385.26L154,387.08L152.34,389.82L150.8,390.5L148.32,389.85L147.42,387.82L146.07,386.99L142.27,386.73L139.72,387.47L137.56,387.09L137.27,385.28L138.35,380.18L134.56,377.61L130.08,375.86L124.85,371.96L123.18,366.96L120.36,364.62L115.76,360.32L112.68,356.4Z" stroke-miterlimit="10" stroke="#FFFFFF"/>
<path title="河东区" fill="#D3D3D3" id="path3" d="M381.23,364.94L380.27,367.19L378.16,370.12L377.21,370.59L376.98,372.54L377.4,374.5L374.76,377.16L370.71,377.21L369.43,378.65L367.11,380.35L367.07,382.85L363.8,386.55L361.6,387.66L359.52,390.07L359.21,391.9L360.37,394.37L364.77,396.98L364.87,399.78L364.24,402L365.22,405.59L364.81,407.84L363.1,413.32L363.12,416.82L361.29,418.71L361.86,421.95L363.6,426L363.51,429.86L362.77,434.46L363.6,436.02L367,440.52L366.91,443.37L363.88,446.49L362.7,452.87L359.37,452.84L358.27,450.17L358.18,447.96L359.1,443.09L358.36,441.17L356.71,440.43L352.11,439.97L349.91,438.87L348.53,436.57L345.27,434.26L342.78,431.9L337.68,428.52L337.08,426.54L336.92,423.54L334.22,419.51L331.98,418.55L329.59,413.79L327.75,409.2L327.65,408.14L326.06,405.2L325.63,403.65L323.97,401.28L320.55,394.42L318.61,387.14L315.21,375.56L315.38,373.79L316.81,371.74L317.64,368.95L318.89,366.33L319.86,363.33L320.66,355.08L322.27,351.71L325.74,347.27L327.23,343.91L328.78,342.69L329.33,341.2L330.82,339.12L335.26,335.87L337.03,332.39L338.61,328.65L343.16,316.55L345.31,315.11L346.18,313.17L346.52,309.89L345.41,308.04L345.71,305.61L345.32,303.44L343.66,303.14L339.04,298.48L337.78,296.69L337.81,295.57L338.99,293.35L342.44,290.95L343.64,290.83L343.96,286.13L346.16,283.32L346.51,281.3L345.59,276.69L346.25,275.02L346.91,271.6L350.19,270.4L350.71,268.45L351.65,267.16L354.16,265.47L356.91,265.56L367.18,269.18L369.52,269.59L370.72,269.18L370.95,270.74L372.7,272.85L375.59,273.59L375.02,275.35L373.56,277.33L373.46,280.18L372.31,282.34L370.41,283.56L370.1,285.76L371.03,287.93L369.99,291.01L373.86,295.24L373.22,297.48L370.34,299.78L368.68,302.96L368.65,304.91L369.38,306.29L372.7,307.15L374.01,308.7L375.11,313.83L379.68,319.2L383.61,318.87L385.82,319.5L387.79,318.44L390.21,318.76L393.47,319.67L392.65,322.65L392.47,327.8L393.38,331.56L395.61,335.12L396.72,337.75L396.49,338.72L393.44,341.51L391.82,342.39L390.23,344.9L389.83,346.26L389.89,350.52L388,354.68L387.39,358.07L386.48,360.25L383.37,364.04Z" stroke-miterlimit="10" stroke="#FFFFFF"/>
<path title="莒南县" fill="#D3D3D3" id="path10" d="M447.56,390.26L444.7,389.74L442.76,390.32L440.95,392.4L439.75,392.99L438.12,392.44L435.09,390.53L432.7,390.72L428.43,393.08L427.54,393.22L423.82,391.61L416.74,390.94L412.57,389.41L408.27,385.32L398.95,378.12L397.44,376.61L396.28,374.65L392.92,371.61L387.81,369.01L386.38,366.08L384.37,366.33L381.23,364.94L383.37,364.04L386.48,360.25L387.39,358.07L388,354.68L389.89,350.52L389.83,346.26L390.23,344.9L391.82,342.39L393.44,341.51L396.49,338.72L396.72,337.75L395.61,335.12L393.38,331.56L392.47,327.8L392.65,322.65L393.47,319.67L390.21,318.76L387.79,318.44L385.82,319.5L383.61,318.87L379.68,319.2L375.11,313.83L374.01,308.7L372.7,307.15L369.38,306.29L368.65,304.91L368.68,302.96L370.34,299.78L373.22,297.48L373.86,295.24L369.99,291.01L371.03,287.93L370.1,285.76L370.41,283.56L372.31,282.34L373.46,280.18L373.56,277.33L375.02,275.35L375.59,273.59L377.82,269.94L378.94,269.29L383.43,270.01L384.01,270.64L384.05,275.67L385.89,276.61L389.55,275.12L391.3,274.93L396.72,275.79L398.14,276.76L399.5,276.54L402.07,272.98L403.24,272.88L404.9,275.23L406.64,276.16L407.42,278.22L410.47,276.6L413.46,278.88L415.04,279.48L416.99,278.29L420.35,277.15L422.53,276.75L423.64,275.78L423.78,274.14L424.53,274.05L426.59,275.76L430.18,276.29L433.19,275.3L435.33,275.02L437.15,275.38L439.86,275.22L441.89,275.85L446.82,272.26L448.44,268.98L450.08,268.56L450.69,270.03L450.68,273.67L449.86,277.02L451.51,278.56L454.81,280.28L458.9,280.86L463.49,283.19L463.83,286.21L465.76,288.81L467.07,288.84L468.75,287.35L470.25,286.95L474.16,287.87L477.16,285.89L479.2,283.05L480.87,281.64L481.61,279.16L481.3,277.09L479.79,273.29L480.21,272.09L484.29,269.88L488.08,269.75L490.89,270.56L492.83,271.95L496.31,273.8L497.47,275.61L501.99,277.89L504.6,277.38L505.4,278.37L505.37,280.2L507.28,281.27L507.73,285.76L509.07,287.55L509.48,289.99L510.12,290.26L512.67,289.02L520.18,287.4L523.59,287.63L524.05,290.29L522.2,292.24L522.72,294.47L524.07,295.58L526.58,298.51L527.01,299.52L526.13,301.07L528.3,302.49L531.87,302.43L532.45,303.14L533.95,310.65L534.57,312.78L533.57,313.32L533.09,314.7L533.14,318.14L532.02,321.09L531.11,321.91L530.68,325.47L529.94,327.81L527.56,330.5L521.6,331.08L520.87,331.53L520.62,334.59L521.83,335.95L524.31,335.36L526.49,337.61L527.72,341.52L528.52,342.82L530.73,344.39L528.67,345.57L528.12,346.87L528.34,350.46L531.02,351.81L533.89,351.66L535.24,352.11L537.02,354.81L537.3,357.77L538.78,361.03L535.17,361.35L534.08,361.89L530.26,362.25L526.95,364.27L521.34,365.8L519.03,372.38L516.63,374.37L516.6,378.33L515.06,379.32L512.6,378.96L504.08,378.77L502.54,379.89L500.82,380.42L494.38,380.51L491.66,379.2L487.53,379.79L484.35,379.95L482.27,381.54L480.41,381.27L475.18,382.1L469.71,383.95L467.45,383.12L466.08,381.2L464.71,380.69L460.59,381.68L458.63,383.78L453.8,386.09L450.1,387.29L448.33,387.54Z" stroke-miterlimit="10" stroke="#FFFFFF"/>
<path title="兰陵县" fill="#D3D3D3" id="path7" d="M148.32,389.85L150.8,390.5L152.34,389.82L154,387.08L153.79,385.26L155.76,384.01L160.88,384.38L163.22,383.6L164.52,383.66L165.26,385.76L166.71,387.35L167.92,387.63L168.87,385.74L169.13,382.38L170.39,381.24L173.3,381.08L177.22,381.38L180.73,382.81L184.09,383.49L186.49,382.92L190.33,382.67L193.07,383.64L196.18,382.92L204.53,379.52L210.22,374.6L214.17,373.55L215.6,374.99L217.2,375.12L217.83,373.31L222.44,372.65L224.58,370.76L227.5,369.01L234.8,368.15L238.02,366.51L239.85,367.02L242.24,368.6L245.58,367.12L246.77,367.04L249.03,374.01L250.35,374.31L250.59,376.48L252.46,378.31L252.87,381.33L252.3,384.14L251.35,386.53L253.27,387.05L253.52,389.1L251.86,390.13L250.04,398.18L250.84,400.16L247.74,403.44L245.64,404.17L245.05,409.83L246.39,411.5L245.27,414.13L245.65,416.36L243.94,416.66L243.94,418.29L243.25,423.08L245.55,422.57L246.05,421.35L248.37,420.59L252.23,422.06L253,421.31L253,423.59L251.92,425.7L252.2,427.37L253.14,427.48L256.04,425.49L257.43,425.63L258.35,424.52L259.39,425.7L259.47,426.92L262.64,425.54L264.63,423.26L266.65,424.7L270.38,425.16L270.89,426.45L272.99,426.47L273.44,428.3L276.08,430.71L276.27,431.53L275.72,444.69L275.72,446.76L274.16,446.03L274.32,445.26L272.78,444.19L271.25,447.23L270.13,446.96L269.72,448.2L268.7,448.01L268.27,450.29L269.07,450.42L269.74,455.16L269.43,456.71L267.46,457.76L266.28,457.48L265.21,459.66L267.66,459.42L267.22,463.35L266.59,464.25L266.52,467.01L268.09,468.02L267.7,471.65L269.91,472.35L272.78,472.61L271.93,473.32L273.79,474.81L273.47,476.08L275.95,476.42L277.26,474.11L277.83,474.2L279.73,472.1L281.96,472.13L284.44,469.91L286.09,469.27L287.83,466.04L287.78,461.69L291.68,459.51L293.37,463.8L292.93,467.21L293.94,466.77L294.96,468.77L294.92,470.46L297.27,477.91L297.5,481.76L295.82,482.33L293.66,481.71L288.91,482.24L287.14,481.11L285.83,481.71L283.24,483.85L282.79,485.53L282.81,488.44L281.62,494.38L280.4,495.45L274.98,498.28L271.12,503.61L271.23,505.4L267.79,504.97L266.7,505.7L264.38,509.04L259.29,510.38L257,511.81L255.86,511.62L253.3,510.01L252,512.17L249.29,514.04L247.97,516.56L248.32,517.28L248.21,520.28L247.43,521.35L246.94,520.71L243.6,519.05L243.9,517.22L242,515.78L244.17,512.17L243.44,510.95L239.17,509.5L237.54,511.3L237.5,510.22L232.06,509.79L231.12,511.12L228.78,509.8L226.6,509.22L224.19,509.45L224.28,508.21L222.22,508.03L221.56,512.39L218.79,512.23L218.66,509.44L215.91,509.1L214.23,507.61L214.44,504.7L213.26,504.13L210.56,503.86L206.86,502.13L203.75,502.16L201.77,505.32L200.54,506.59L196.56,506.14L194.34,505.04L192.52,504.86L190.75,513.19L184.84,513L183.93,512.65L184,511.36L181.06,511.88L180.13,512.99L176.37,512.33L175.86,510.64L173,512.26L171.71,511.85L171.66,510.3L170.22,510.55L169.93,511.58L168.53,512.67L166.27,513.04L164.7,512.64L166.8,505.54L168.29,501.07L170.02,500.23L171.64,492.61L169.91,490.87L170.29,488.09L169.48,485.81L169.9,484.17L171.19,481.83L171.66,480.03L171.32,478.83L171.85,476.4L171.34,475.53L167.18,474.36L163.03,472.71L159.02,468.87L158.78,466.59L159.33,465.67L158.88,464.25L156.86,463.62L157.1,462.17L162.78,459.09L163.29,458.12L164.13,452.55L163.7,451.16L161.89,450.86L153.29,446.64L150.55,443.78L148.97,439.97L147.73,438.39L144.05,437.19L140.44,431.17L140.13,429.82L137.57,427.59L137.71,425.46L135.97,423.42L135.92,421.19L137.52,418.98L139.59,418.52L140.67,416.61L140.32,414.33L141.96,412.34L142.9,410.44L141.6,407.63L143.49,403.97L143.71,400.55L143.52,396.92L143.88,394.67L146.56,392.97L148.04,391.34Z" stroke-miterlimit="10" stroke="#FFFFFF"/>
<path title="兰山区" fill="#D3D3D3" id="path1" d="M318.61,387.14L315.39,387.47L314.69,388.53L311.53,388.85L311.5,390.82L310.17,391L309.55,388.77L305.93,387.23L303.68,387.06L303.54,385.93L300.83,385.55L300,386.34L299.81,383.91L298.02,383.63L298.1,382.56L296.65,382.19L296,382.89L291.97,381.52L290.81,381.84L290.57,383.69L289.46,384.72L287.86,384.82L286.37,385.8L283.49,384.86L281.24,381.35L278.93,381.05L277.28,382.05L274.03,383L272.32,382.38L269.53,380.22L266.4,381.27L261.03,384.36L257.96,385.79L253.27,387.05L251.35,386.53L252.3,384.14L252.87,381.33L252.46,378.31L250.59,376.48L250.35,374.31L249.03,374.01L246.77,367.04L247.5,363.29L248.7,360.95L249.68,357.87L250.63,352.06L253.31,348.68L254.1,345.21L256.29,345.11L257.8,341.64L259.1,337.42L260.82,337.11L261.89,336.04L263.08,333.39L264.5,331.91L266.58,330.81L264.39,329.76L261.35,328.91L256.74,328.2L253.95,325.79L250.98,325.14L247.83,322.31L247.61,321.2L251.29,318.33L251.22,314.61L251.86,313.57L253.72,312.77L252.67,310.69L254.23,308.21L253.81,307.56L254.78,304.58L254.69,302.69L255.73,300.43L255.56,298.96L252.97,295.79L253.09,294.64L252.09,293.91L252.39,291.56L253.95,291.87L254.87,290.97L256.79,291.53L257.33,293.55L259.39,290.47L260.54,290.79L262.79,290.24L263.12,289.14L265.74,288.95L267.02,289.87L267.45,293.29L268.41,293.47L269.69,291.85L270.79,292.44L271.98,294.32L273.52,293.56L273.04,291.96L274.98,288.22L276.09,288L275.39,287.1L273.7,287.05L274.26,286.21L273.19,284.83L274.36,283.96L274.42,281.07L275.71,280.45L275.03,281.78L277.16,282.81L277.32,283.65L279.11,283.62L280.16,280.91L281.64,278.98L282.05,276.36L281.45,274.8L280.03,274.02L278.33,272.23L279.29,270.6L280.4,270.45L283.24,271.64L284.04,272.14L288,272.5L290.02,272.14L293.63,274.62L293.68,275.94L296.35,279.76L298.33,280.73L299.31,282.42L299.98,286.05L300.09,288.94L301.52,289.28L306.11,289.17L309.98,288.58L311.69,285.25L313.08,285.46L317.04,284.12L321.48,287.36L324.25,288.24L325.8,287.8L326.93,289.17L328.19,289.57L329.21,291.1L331.08,291.79L332.97,291.09L337.81,295.57L337.78,296.69L339.04,298.48L343.66,303.14L345.32,303.44L345.71,305.61L345.41,308.04L346.52,309.89L346.18,313.17L345.31,315.11L343.16,316.55L338.61,328.65L337.03,332.39L335.26,335.87L330.82,339.12L329.33,341.2L328.78,342.69L327.23,343.91L325.74,347.27L322.27,351.71L320.66,355.08L319.86,363.33L318.89,366.33L317.64,368.95L316.81,371.74L315.38,373.79L315.21,375.56Z" stroke-miterlimit="10" stroke="#FFFFFF"/>
<path title="临沭县" fill="#D3D3D3" id="path12" d="M447.56,390.26L448.28,399.5L448.01,401.75L447.15,404.39L446.7,409.5L447.11,415.58L445.06,417.94L438.8,426.32L435.73,431.84L434.74,434.47L432.76,437.22L432.03,439.65L431.79,443.16L432.08,445.46L431.51,447.69L430.12,448.59L427.83,447.68L425.82,448.11L422.55,447.53L421.87,448.79L422.34,449.91L426.01,453.6L426.13,454.29L424.59,456.45L425.23,459.43L424.73,461.93L423.76,464.1L421.83,464.49L419.21,465.98L414.13,465.14L411.68,466.85L414.83,468.69L415.15,470.16L414.39,473.37L413.04,472.73L411.35,472.75L408.48,474.36L408.24,476.47L408.94,477.39L408.49,479.6L409.23,480.32L412.2,480.35L413.34,482.19L414.81,483.12L418.09,482.87L419.92,481.84L422.42,482.75L425.27,485.82L426.4,487.97L422.11,491.73L421.8,493.45L419.79,494.03L416.05,496.68L414.61,497.17L409.45,497.03L405.16,498.81L401.47,502.12L399.08,502.2L398.03,501.45L394.52,497.28L393.16,496.49L390.83,496.75L388.88,498.56L386.32,499.37L383.26,498.04L379.29,496.98L378.62,496.29L377.66,490.53L372.83,490.58L369.39,491.07L366.3,492.92L362.87,493.13L361.06,491.41L357.29,491.05L356.75,491.31L353.75,490.15L351.23,486.47L351.08,480.53L348.92,476.42L348.06,471.5L348.64,467.78L348.54,466.34L347.11,464.06L342.66,461.64L339.87,461.34L339.14,462.15L334.76,461.62L334.47,461.25L335.48,457.34L334.53,456.57L334.92,453.52L332.78,452.87L334.38,451.29L338.33,448.86L341.01,449.43L342.99,448.33L343.21,445.02L345.16,439.5L346.96,437.31L346.75,435.9L345.27,434.26L348.53,436.57L349.91,438.87L352.11,439.97L356.71,440.43L358.36,441.17L359.1,443.09L358.18,447.96L358.27,450.17L359.37,452.84L362.7,452.87L363.88,446.49L366.91,443.37L367,440.52L363.6,436.02L362.77,434.46L363.51,429.86L363.6,426L361.86,421.95L361.29,418.71L363.12,416.82L363.1,413.32L364.81,407.84L365.22,405.59L364.24,402L364.87,399.78L364.77,396.98L360.37,394.37L359.21,391.9L359.52,390.07L361.6,387.66L363.8,386.55L367.07,382.85L367.11,380.35L369.43,378.65L370.71,377.21L374.76,377.16L377.4,374.5L376.98,372.54L377.21,370.59L378.16,370.12L380.27,367.19L381.23,364.94L384.37,366.33L386.38,366.08L387.81,369.01L392.92,371.61L396.28,374.65L397.44,376.61L398.95,378.12L408.27,385.32L412.57,389.41L416.74,390.94L423.82,391.61L427.54,393.22L428.43,393.08L432.7,390.72L435.09,390.53L438.12,392.44L439.75,392.99L440.95,392.4L442.76,390.32L444.7,389.74Z" stroke-miterlimit="10" stroke="#FFFFFF"/>
<path title="罗庄区" fill="#D3D3D3" id="path2" d="M331.98,418.55L331.72,420.93L329.05,423.12L326.7,423.74L324.46,425.66L323.07,428.39L319.89,430.97L320.83,433.32L320.56,434.27L317.9,435.56L316.89,436.74L314.58,435.98L312.29,436.34L313.68,439.01L311.64,440.59L313.97,441.79L314.64,441.1L317,442.92L315.49,445.24L312.44,448.19L311.33,451.97L310.14,454.04L306.64,456.47L304.74,461.39L301.59,466.18L297.42,465.95L294.96,468.77L293.94,466.77L292.93,467.21L293.37,463.8L291.68,459.51L287.78,461.69L287.83,466.04L286.09,469.27L284.44,469.91L281.96,472.13L279.73,472.1L277.83,474.2L277.26,474.11L275.95,476.42L273.47,476.08L273.79,474.81L271.93,473.32L272.78,472.61L269.91,472.35L267.7,471.65L268.09,468.02L266.52,467.01L266.59,464.25L267.22,463.35L267.66,459.42L265.21,459.66L266.28,457.48L267.46,457.76L269.43,456.71L269.74,455.16L269.07,450.42L268.27,450.29L268.7,448.01L269.72,448.2L270.13,446.96L271.25,447.23L272.78,444.19L274.32,445.26L274.16,446.03L275.72,446.76L275.72,444.69L276.27,431.53L276.08,430.71L273.44,428.3L272.99,426.47L270.89,426.45L270.38,425.16L266.65,424.7L264.63,423.26L262.64,425.54L259.47,426.92L259.39,425.7L258.35,424.52L257.43,425.63L256.04,425.49L253.14,427.48L252.2,427.37L251.92,425.7L253,423.59L253,421.31L252.23,422.06L248.37,420.59L246.05,421.35L245.55,422.57L243.25,423.08L243.94,418.29L243.94,416.66L245.65,416.36L245.27,414.13L246.39,411.5L245.05,409.83L245.64,404.17L247.74,403.44L250.84,400.16L250.04,398.18L251.86,390.13L253.52,389.1L253.27,387.05L257.96,385.79L261.03,384.36L266.4,381.27L269.53,380.22L272.32,382.38L274.03,383L277.28,382.05L278.93,381.05L281.24,381.35L283.49,384.86L286.37,385.8L287.86,384.82L289.46,384.72L290.57,383.69L290.81,381.84L291.97,381.52L296,382.89L296.65,382.19L298.1,382.56L298.02,383.63L299.81,383.91L300,386.34L300.83,385.55L303.54,385.93L303.68,387.06L305.93,387.23L309.55,388.77L310.17,391L311.5,390.82L311.53,388.85L314.69,388.53L315.39,387.47L318.61,387.14L320.55,394.42L323.97,401.28L325.63,403.65L326.06,405.2L327.65,408.14L327.75,409.2L329.59,413.79Z" stroke-miterlimit="10" stroke="#FFFFFF"/>
<path title="蒙阴县" fill="#D3D3D3" id="path11" d="M280.33,87.15L279.41,88.38L279.21,90.35L277.98,94.42L277.72,96.53L279.4,101.41L279.57,105.13L280.97,107.95L281.18,109.61L279.14,110.27L277.03,110.02L273.33,111.1L269.06,109.91L268.52,110.58L269.18,112.56L271.55,115.09L273.08,119.43L275.19,124.69L275.82,128.86L278.57,131.63L279.87,135.13L279.31,135.61L279.92,137.38L283.1,141.49L283.46,142.51L280.05,144.58L276.87,145.21L275.34,146.83L274.64,146.64L274.88,144.88L273.89,144.17L268.58,146.08L265.49,150.24L261.2,152.58L258.27,155.48L257.55,158.88L256.09,160.55L255.74,162.78L256.12,164.58L257.59,166.2L259.68,170.83L259.51,173.02L257.11,175.61L253.83,180.28L254.72,181.21L256.78,181.74L257.36,182.59L254.59,184.75L252.12,191.97L252.99,195.11L255.5,195.96L258.41,197.88L259.89,199.96L263.12,200.94L263.6,202.86L265.68,204.16L268.38,206.58L272.59,208.72L273.04,211.13L275.07,213.44L277.07,214.86L275.72,216.71L272.63,218.13L271.75,219.43L269.44,221.57L268.35,223.51L267.86,226.18L268.22,228.27L267.56,230.25L266.01,230.61L263.43,229.97L259.52,228.03L257.82,227.7L255.94,228.31L256.63,230.1L257.07,233.99L258.68,236.82L258.97,240.47L260.06,245.04L260.1,247.74L257.78,251.1L255.9,252.95L254.92,251.12L254.61,248.59L253.22,246.39L250.53,244.2L243.98,242.56L241.28,241.45L237.95,240.63L235.18,240.4L230.87,241.8L228.42,242.01L225.85,238.24L224.67,234.01L222.58,232.69L222.04,228.96L220.66,227.28L221.32,225.06L221.1,224.08L219.23,222.18L214.66,221.23L212.02,221.2L209.5,220.77L202.67,217.65L201.12,217.74L200.18,216.81L195.66,216.41L194.48,216.79L193.2,216.26L190.73,214.32L189.69,214.13L186.34,212.45L183.85,209.44L179.89,207.31L176.71,201.24L173.37,197.77L168.7,195.6L166.7,193.89L165.3,189.28L163.83,186.81L161.91,186.38L158.91,186.46L156.74,183.71L153.62,181.36L153.29,177.36L152.65,174.93L152.72,171.79L150.39,170.22L149.94,168.72L149.84,164.31L150.87,164.37L152.53,162.69L154.86,158.77L156.31,157.27L158.26,156.31L161.04,156.1L163.97,156.66L166.22,156.69L169.32,154.53L171.87,154.93L173.15,153.88L173.17,152.22L172.52,148.96L170.77,143.19L170.8,140.24L171.49,138.96L173.67,138L175.5,135.75L175.15,132.72L174.12,130.59L170.76,127.37L170.48,125.4L174.44,119.68L177.98,117.98L179.06,114.96L181.05,111.5L185.47,107.28L187.62,106.42L189.75,106.83L191.6,106.61L195.69,107.52L199.98,109.85L201.59,110.07L205.22,111.57L205.99,111.42L208.15,106.8L211.16,104.95L211.11,101.89L211.7,99.49L213.55,98.67L215.77,95.49L216.48,93.15L215.99,90.11L213.6,85.76L218.95,85.37L221.8,85.69L222.32,85.33L222.84,82.04L225.26,80.53L225.45,76.98L227.99,72.98L229.38,71.82L232.47,70.79L232.87,68.34L234.57,65.44L237,65.47L237.62,64.23L236.6,64.33L237.68,62.62L239.27,64.45L240.56,64.18L240.88,62.85L241.66,63.62L242.42,60.45L243.94,60.32L245.96,58.52L248.28,58.2L252.21,58.4L252.97,60.64L255.98,61.64L256.89,61.36L261.39,61.92L262.47,61.15L261.96,62.57L264.44,62.84L267.78,65.16L268.74,67.27L269.58,66.83L270.88,70.33L270.6,71.55L271.99,74.5L271.87,75.53L269.62,75.73L268.56,77.06L269.82,79.3L272.11,80.24L272.87,83.11L275.05,83.88L277.09,85.59L279.96,85.75Z" stroke-miterlimit="10" stroke="#FFFFFF"/>
<path title="平邑县" fill="#D3D3D3" id="path9" d="M201.12,217.74L200.78,221.66L202.1,224.36L204.09,227.23L202.41,229.4L202,232.21L202.41,234.59L202.37,237.08L201.23,239.89L200.6,243.29L199.61,244.57L194.39,249.58L193.23,252.51L193.78,257.65L191.77,264.19L191.53,265.62L190.1,269.59L187.51,272.88L184.22,275.73L182.7,282.58L183.94,287.66L186.32,291.94L185.87,294.32L183.99,296.15L182.58,299.31L180.88,299.95L176.62,298.98L172.51,299.81L168.27,300.07L166.44,302.09L164.5,303.63L161.28,304.82L159.29,306.82L156.57,307.61L155.48,308.39L148.31,310.9L146.07,311.14L140.22,309.18L138.21,308.9L136.07,308.07L136.55,312.63L135.85,314.12L134.73,321.62L136.23,325.25L135,325.26L134.91,327L132.89,327.26L130.74,334.84L130.35,337.02L129.02,341.52L125.33,346.92L119.32,352.77L117.23,353.39L114.31,354.79L112.25,355.38L110.77,353.46L109.7,352.97L107.22,347.4L105.92,347.25L105.26,343.54L104.59,342.74L101.67,342.21L100.32,342.62L97.84,344.52L95.8,344.38L93.06,341.27L91.75,338.44L90.6,337.52L90.16,335.26L90.02,331.65L87.06,332.57L84.75,332.19L81.45,329.91L80.18,328.41L79.53,326.66L77.65,324.39L74.77,322.75L72.07,322.64L69.02,321.42L68.6,320.23L69.57,318.3L69.4,316.52L67.31,314.33L66.63,312.54L63.16,311.61L61.3,309.66L61.22,307.6L63.7,307.05L67.19,304.61L71.32,303.05L72.97,303.18L74.22,299.89L77.19,294.36L75.94,293.27L70.5,290.85L68.64,289.13L67.64,284.86L66.52,283.01L66.69,279.49L68.02,277.39L70.28,277.01L73.16,274.26L73.94,271.9L73.03,269.41L73.63,267.8L76.08,265.93L75.62,263.83L74.11,260.28L71.01,258.06L69.98,254.95L70.47,252.32L69.42,251.14L67.52,250.21L63.71,246.99L63.77,245.85L64.89,244.69L67.35,243.5L68.84,240.75L69.05,238.58L70.07,236.58L72.85,234.08L73.14,231.53L74.13,229.36L75.46,228.66L77.96,230.8L81.32,232.43L82.41,232.36L83.29,229.14L86.52,228.6L88.2,226.84L87.23,224.41L83.97,222.97L83.6,221.03L82.15,220.6L81.84,219.24L82.7,216.66L83.58,216.33L86.87,216.62L90.51,217.86L95.35,217.33L95.48,216.55L97.86,216.99L104.91,215.58L106.74,214.2L107.86,211.2L107.03,209.2L107,207.13L107.68,203.88L105.74,202.47L105.74,198.72L106.64,193.95L108.33,191.95L108.78,190.46L109.34,184.3L111.04,175.84L112.19,173.43L116.53,166.27L118.87,164.47L123.25,163.89L126.72,164.35L130.8,163.16L135.65,160.4L137.01,159.03L138.37,158.97L141.22,160.65L145.12,163.47L148.43,163.79L149.84,164.31L149.94,168.72L150.39,170.22L152.72,171.79L152.65,174.93L153.29,177.36L153.62,181.36L156.74,183.71L158.91,186.46L161.91,186.38L163.83,186.81L165.3,189.28L166.7,193.89L168.7,195.6L173.37,197.77L176.71,201.24L179.89,207.31L183.85,209.44L186.34,212.45L189.69,214.13L190.73,214.32L193.2,216.26L194.48,216.79L195.66,216.41L200.18,216.81Z" stroke-miterlimit="10" stroke="#FFFFFF"/>
<path title="郯城县" fill="#D3D3D3" id="path5" d="M294.96,468.77L297.42,465.95L301.59,466.18L304.74,461.39L306.64,456.47L310.14,454.04L311.33,451.97L312.44,448.19L315.49,445.24L317,442.92L314.64,441.1L313.97,441.79L311.64,440.59L313.68,439.01L312.29,436.34L314.58,435.98L316.89,436.74L317.9,435.56L320.56,434.27L320.83,433.32L319.89,430.97L323.07,428.39L324.46,425.66L326.7,423.74L329.05,423.12L331.72,420.93L331.98,418.55L334.22,419.51L336.92,423.54L337.08,426.54L337.68,428.52L342.78,431.9L345.27,434.26L346.75,435.9L346.96,437.31L345.16,439.5L343.21,445.02L342.99,448.33L341.01,449.43L338.33,448.86L334.38,451.29L332.78,452.87L334.92,453.52L334.53,456.57L335.48,457.34L334.47,461.25L334.76,461.62L339.14,462.15L339.87,461.34L342.66,461.64L347.11,464.06L348.54,466.34L348.64,467.78L348.06,471.5L348.92,476.42L351.08,480.53L351.23,486.47L353.75,490.15L356.75,491.31L357.1,493.03L356.61,497.66L354.89,498L352.72,499.36L350.75,503.23L349.32,504.4L346.32,504.62L342.09,503.51L340.51,505.77L340.05,508.97L341.55,513.66L343.82,515.59L344.24,517.64L343.53,520.07L340.8,519.47L339.82,521.15L338.31,521.92L335.39,520.35L334.25,519.14L332.47,521.33L332.44,523.54L330.15,529.99L331.26,540.31L332.53,545.1L333.6,547.96L334.72,552.15L334.35,557.59L332.8,562.19L332.04,563.74L329.49,565.64L328.11,568.67L327.47,571.87L326.8,577.6L325.2,580.63L325.97,581.13L325.09,583.64L322.47,583.87L319.01,586.04L318.4,587.62L315.63,587.77L311.24,586.99L310.97,585.24L309.68,585.83L307.05,585.43L302.6,585.73L302.36,583.54L300.93,584L300.75,585.19L295.9,584.48L294.5,584.68L294.1,588.67L291.61,588.71L290.95,591.14L281.57,590.8L281.14,591.99L279.72,591.98L278.51,593.08L275.65,590.73L274.58,598.28L274.96,599.42L271.4,600L271,598.85L267.44,598.93L266.93,595.82L265.77,595.78L264.68,599.33L262.31,598.7L261.89,596.56L262.67,595.47L263.76,591.99L264.1,589.83L263.53,588.29L264.57,584.48L264.68,579.02L264.28,575.37L263.14,574.18L258.38,571.54L256.14,569.63L256.47,569.01L254.15,568.2L254.51,566.71L252.25,565.58L254.59,561.21L257.81,559.32L260.85,558.6L262.02,556.16L261.21,555.29L261.55,553.79L265.22,547.99L266.12,545.83L262.84,544.93L263.03,544.01L260.47,543.47L258.49,544.22L255.87,543.65L254.36,542.64L254.78,540.77L253.41,539.64L252.04,540.52L250.74,542.19L247.87,540.78L243.58,539.16L237.83,537.52L238.74,534.23L241.16,532.79L242.44,531.37L243.46,529.36L244.22,529.82L247.4,523.01L247.43,521.35L248.21,520.28L248.32,517.28L247.97,516.56L249.29,514.04L252,512.17L253.3,510.01L255.86,511.62L257,511.81L259.29,510.38L264.38,509.04L266.7,505.7L267.79,504.97L271.23,505.4L271.12,503.61L274.98,498.28L280.4,495.45L281.62,494.38L282.81,488.44L282.79,485.53L283.24,483.85L285.83,481.71L287.14,481.11L288.91,482.24L293.66,481.71L295.82,482.33L297.5,481.76L297.27,477.91L294.92,470.46Z" stroke-miterlimit="10" stroke="#FFFFFF"/>
<path title="沂南县" fill="#D3D3D3" id="path4" d="M275.34,146.83L275.92,148.9L277.68,147.93L278.09,150.84L279.59,150.55L280.44,152.9L279.9,156.27L281.21,157.75L283.06,157.92L284.29,158.71L285.29,158L287.17,158.28L285.58,156.95L286.6,156.57L288.55,154.36L290.29,151.75L291.81,151.5L294.24,152.31L296.96,151.84L302.25,152.33L306.08,151.83L307.34,152.8L308.5,158.04L308.54,159.77L307.24,162.64L307.34,163.75L309.89,167.41L311.39,168.1L314.2,166.7L319.14,168.65L323.95,169.09L327.11,169.13L329.81,170.31L334.27,173.32L337.51,177.24L339.01,177.26L341.44,174.46L345.05,176.65L347.71,177.13L346.89,178.47L347.82,180.55L350.6,182.13L353.72,181.33L355.31,181.8L355.34,184.05L357.64,186.12L359.28,186.6L361.55,185.73L363.84,187.22L363.89,187.75L366.84,186L368.55,186.01L368.36,187.64L369.97,188.19L372.08,186.29L372.21,182.41L372.73,180.85L375.29,180.7L376.13,181.99L377.83,180.99L378.97,181.71L379.42,183.9L380.45,183.45L382.04,184.1L384.52,179.55L385.24,179.54L386.78,177.57L388.35,178.3L389.1,179.44L391.51,180.58L395.08,183.65L396.72,184.43L396.83,186.15L399.17,186.38L399.69,183.26L402.33,182.77L403.29,183.99L403.35,185.85L402.61,188.1L400.51,192.45L400.22,197.2L401.73,198.63L404.11,198.15L407.57,200.11L408.5,200.31L410.42,198.87L414.07,199.42L413.66,202.65L414.94,206.58L414.7,208L413.4,210.45L410.5,212.67L410.79,215.89L409.5,217.75L403.94,222.88L403.15,223.98L403.73,225.59L403.76,228.93L405.62,230.87L409.35,233.82L410.77,234.52L411.86,236.48L413.27,237.97L410.47,243.66L406.97,246.26L406.52,247.3L404.28,248.05L402.35,246.83L399.21,246.93L398.25,247.57L395.79,247.74L393.91,246.03L390.95,246.99L390.16,248.74L388.15,249.36L386.1,249.15L385.04,250.04L385.72,251.93L386.02,256.09L387.82,256.65L388.61,257.99L386.85,259.33L383.68,258.54L382.4,258.66L377.68,261.48L378.26,264.16L378.94,269.29L377.82,269.94L375.59,273.59L372.7,272.85L370.95,270.74L370.72,269.18L369.52,269.59L367.18,269.18L356.91,265.56L354.16,265.47L351.65,267.16L350.71,268.45L350.19,270.4L346.91,271.6L346.25,275.02L345.59,276.69L346.51,281.3L346.16,283.32L343.96,286.13L343.64,290.83L342.44,290.95L338.99,293.35L337.81,295.57L332.97,291.09L331.08,291.79L329.21,291.1L328.19,289.57L326.93,289.17L325.8,287.8L324.25,288.24L321.48,287.36L317.04,284.12L313.08,285.46L311.69,285.25L309.98,288.58L306.11,289.17L301.52,289.28L300.09,288.94L299.98,286.05L299.31,282.42L298.33,280.73L296.35,279.76L293.68,275.94L293.63,274.62L290.02,272.14L288,272.5L284.04,272.14L283.24,271.64L281.56,270L280.2,267.66L276.23,265.91L275.12,263.17L274.37,262.63L272.5,263.04L270.93,264.07L268.7,267.83L267.6,268.3L265.8,267.72L262.89,268.84L260.42,268.26L259.13,265.71L257.09,265.15L254.21,262.85L253.33,261.25L253.72,258.54L255.4,255.52L255.9,252.95L257.78,251.1L260.1,247.74L260.06,245.04L258.97,240.47L258.68,236.82L257.07,233.99L256.63,230.1L255.94,228.31L257.82,227.7L259.52,228.03L263.43,229.97L266.01,230.61L267.56,230.25L268.22,228.27L267.86,226.18L268.35,223.51L269.44,221.57L271.75,219.43L272.63,218.13L275.72,216.71L277.07,214.86L275.07,213.44L273.04,211.13L272.59,208.72L268.38,206.58L265.68,204.16L263.6,202.86L263.12,200.94L259.89,199.96L258.41,197.88L255.5,195.96L252.99,195.11L252.12,191.97L254.59,184.75L257.36,182.59L256.78,181.74L254.72,181.21L253.83,180.28L257.11,175.61L259.51,173.02L259.68,170.83L257.59,166.2L256.12,164.58L255.74,162.78L256.09,160.55L257.55,158.88L258.27,155.48L261.2,152.58L265.49,150.24L268.58,146.08L273.89,144.17L274.88,144.88L274.64,146.64Z" stroke-miterlimit="10" stroke="#FFFFFF"/>
<path title="沂水县" fill="#D3D3D3" id="path6" d="M414.07,199.42L410.42,198.87L408.5,200.31L407.57,200.11L404.11,198.15L401.73,198.63L400.22,197.2L400.51,192.45L402.61,188.1L403.35,185.85L403.29,183.99L402.33,182.77L399.69,183.26L399.17,186.38L396.83,186.15L396.72,184.43L395.08,183.65L391.51,180.58L389.1,179.44L388.35,178.3L386.78,177.57L385.24,179.54L384.52,179.55L382.04,184.1L380.45,183.45L379.42,183.9L378.97,181.71L377.83,180.99L376.13,181.99L375.29,180.7L372.73,180.85L372.21,182.41L372.08,186.29L369.97,188.19L368.36,187.64L368.55,186.01L366.84,186L363.89,187.75L363.84,187.22L361.55,185.73L359.28,186.6L357.64,186.12L355.34,184.05L355.31,181.8L353.72,181.33L350.6,182.13L347.82,180.55L346.89,178.47L347.71,177.13L345.05,176.65L341.44,174.46L339.01,177.26L337.51,177.24L334.27,173.32L329.81,170.31L327.11,169.13L323.95,169.09L319.14,168.65L314.2,166.7L311.39,168.1L309.89,167.41L307.34,163.75L307.24,162.64L308.54,159.77L308.5,158.04L307.34,152.8L306.08,151.83L302.25,152.33L296.96,151.84L294.24,152.31L291.81,151.5L290.29,151.75L288.55,154.36L286.6,156.57L285.58,156.95L287.17,158.28L285.29,158L284.29,158.71L283.06,157.92L281.21,157.75L279.9,156.27L280.44,152.9L279.59,150.55L278.09,150.84L277.68,147.93L275.92,148.9L275.34,146.83L276.87,145.21L280.05,144.58L283.46,142.51L283.1,141.49L279.92,137.38L279.31,135.61L279.87,135.13L278.57,131.63L275.82,128.86L275.19,124.69L273.08,119.43L271.55,115.09L269.18,112.56L268.52,110.58L269.06,109.91L273.33,111.1L277.03,110.02L279.14,110.27L281.18,109.61L280.97,107.95L279.57,105.13L279.4,101.41L277.72,96.53L277.98,94.42L279.21,90.35L279.41,88.38L280.33,87.15L280.1,88.56L281.1,90.11L282.52,90.91L285.43,91.36L285.64,93.03L289.12,91.87L289.84,90.86L292.01,89.65L294.21,89.74L295.25,89.13L297.95,85.36L300.77,84.73L302.14,86.21L304.21,84.94L308.98,83.05L311.13,82.79L312.23,81.46L312.8,78.92L314.42,77.44L315.77,77.57L317.53,76.67L318.89,76.78L320.29,72.58L327.96,71.62L329.91,75.07L331.11,76.36L331.97,78.49L333.97,80.5L336.67,81.39L339.29,83.96L341.53,83.32L342.77,81.41L345.48,80.89L351.12,80.87L351.88,79.88L350.36,76.34L347.67,73.93L346.98,71.58L348.57,69.98L346.87,68.82L347.07,66.54L344.27,64.23L344.23,62.71L342.46,60.86L343.58,59.76L344.13,58.07L345.89,58.42L347.64,59.93L350.39,59.97L351.43,60.44L352.53,58.61L355.04,59.83L356.59,54.04L355.43,52.9L356.47,50.75L355.53,48.44L354.13,47.25L354.97,45.77L353.79,45.23L353.76,43.87L352.64,43.65L353.53,42.64L356.67,40.4L356.76,38.88L358,38.51L358.42,37.39L357.06,34.73L357.68,33.81L354.92,32.98L351.82,33.43L350.2,31.69L351.04,31.37L352.62,32.2L353.2,30.52L354.68,32.08L357.45,31.04L359.03,29.38L360.13,29.22L360.41,27.57L361.7,27.07L362.95,28.6L363.47,26.66L365.76,25.1L367.93,25.39L368.38,23.5L367.48,21.16L367.66,19.75L369.85,16.65L372.46,18.31L374.64,17.16L376.33,15.4L378.98,14.08L380.51,11.73L381.44,11.96L383.21,9.77L384.56,11.08L387.06,12.08L388.22,11.81L389.16,9.82L391.53,9.93L393.22,11.5L394.97,12.49L397.51,12.08L398.48,13.51L398.93,15.46L399.62,15.94L398.68,18.1L402.27,19.18L402.35,20.8L404.4,20.61L405.07,18.64L406.4,17.64L408,17.29L409.77,18.86L409.53,21.26L411.05,21.76L411.65,20.83L413.84,19.93L412.9,18.15L413.43,16.39L413.04,13.21L414.21,12.74L415.26,13.63L416.15,13.02L416.11,11.69L417.22,10.06L417.76,7.81L416.99,6.34L416.04,6.14L416.25,4.94L418.85,3.07L420.03,1.24L421.84,0L423.83,0.81L425.24,2.28L427.02,3.04L431.41,1.25L433.27,2.62L436.61,1.84L438.71,1.82L440.43,1.16L442.7,1.55L443.43,2.45L443.89,5.98L442.77,7.27L443.33,11.45L445.45,12.1L446.86,14.69L446.87,17.53L446.29,18.04L446.44,21.03L447.96,22.33L447.43,23.23L447.52,25.2L446.45,25.43L446.96,30.47L448.5,30.82L447.44,32.98L447.82,34.14L447.03,34.92L448.48,36.65L449.72,36.8L451.15,38.16L452.49,40.53L453.99,39.14L455.83,39.35L456.68,38.41L459.82,38.24L461.94,34.35L460.39,34.54L460.46,33.18L463.18,33.46L461.95,31.48L463.78,30.5L465.33,31.46L467.34,30.91L469.19,28.87L472.23,31.54L473.27,33.98L476.35,33.81L476.43,35.78L478.55,36.01L479.53,37.1L481.81,37.81L481.74,36.65L484.53,35.52L485.42,36.19L488.09,35.74L489.82,33.93L491.08,34.25L491.86,36.29L493.71,36.76L494.7,38.52L497.45,37.77L499.81,39.74L501.17,39.6L501.53,41.26L502.3,41.44L502.31,43.72L501.39,43.63L497.67,46.41L496.65,49.7L495.78,50.09L495.17,54.26L496.55,55.68L498.32,55.94L497.61,57.33L497.21,60.25L494.17,60.25L493.91,60.93L490.84,59.77L490.49,58.5L487.74,56.78L485.58,57.14L484.11,55.76L481.18,61.09L479.53,62.71L475.51,64.78L472.83,65.68L468.66,66L456.55,66.35L453.87,68.51L452.21,71.01L453.93,73.15L455.12,73.85L456.88,76.39L456.92,78.21L455.75,80.62L453.21,82.59L450.17,83.54L440.8,85.38L434.56,85.42L432.58,86.67L431.94,88.4L431.9,90.76L432.38,93.64L428.97,94.79L425.35,94.87L424.2,95.84L424.14,99.33L425,101.84L424.76,102.6L421.53,102.08L421.51,102.76L419.63,106.83L419.07,109.01L419.39,111.75L418.63,116.88L417.4,118.23L412.86,118.68L410.32,121.68L409.99,123.03L410.66,127.81L408.55,132.18L404.24,137.41L403.83,138.69L404.65,143.7L405.82,146.06L405.79,148.26L404.96,152.64L405.97,154.99L407.9,156.54L410,157.33L413.61,157.91L415.72,157.87L419.39,159L424.67,158.49L430.54,157.61L432.55,158.94L432.41,162.34L431.47,164.59L429.26,168.37L428.49,171.51L428.54,173.16L426.98,176.08L422.83,181.14L421.9,182.86L417.84,187.17L415.51,190.45L414.7,192.27Z" stroke-miterlimit="10" stroke="#FFFFFF"/>
</svg>