<svg xmlns="http://www.w3.org/2000/svg" xmlns:xlink="http://www.w3.org/1999/xlink" width="600" height="600">
<path title="环翠区" fill="#D3D3D3" id="path1" d="M268.24,198.05L269.44,191.83L270.2,182.27L272.22,178.83L274.95,175.99L278.4,173.6L281.95,171.32L285.08,166.54L287.47,161.43L289.1,156.81L289.75,152.31L291.9,146.5L293.08,145.23L293.66,143.77L295.1,143.5L295.03,141.2L293.3,140.13L293.26,137.11L291.13,131.11L293.88,129.66L303.19,125.26L307.54,122.95L308.66,122.94L310.02,123.54L312.64,123.59L315.21,123.01L319.62,120.84L319.97,120.28L319.52,118.37L320.51,117.12L320.58,114.81L321.47,114.57L322.27,115.33L323.85,115.02L324.94,114.3L325.94,112.95L326.84,110.92L326.92,108.65L326.02,106.81L326.67,103.91L327.54,102.67L329.96,102.66L331.03,103.41L334.95,103.4L337.42,102.79L339.51,101.53L340.01,100.61L339.71,98.7L341.75,96.5L343.34,97.24L344.73,96.65L345.52,97.46L346.34,99.11L348.07,99.64L349.59,98.94L350.14,97.97L350.18,96.34L349.89,92.38L348.88,90.12L346.75,87.2L346.56,84.53L347.92,84.05L353.62,89.4L355.45,91.25L357.07,91.8L362.71,93.12L363.73,92.75L365.05,91.49L366.6,92.28L368.81,91.85L368.9,90.68L367.69,87.35L367.38,85.33L368.18,84.54L369.87,84.76L370.99,86.09L372.88,90.11L374.92,89.57L379.48,89.77L379.97,90.45L379.65,91.35L378.57,91.64L377.02,93.09L377.11,93.94L378.92,94.53L379.59,96.1L380.61,95.76L381.5,96.74L383.06,96.6L384.59,97.45L385.59,96.76L386.65,96.6L387.65,97.63L387.21,99.52L387.74,100.26L387.56,101.46L385.09,104.95L385.51,106.17L385.39,107.58L384.4,108.53L383.14,108.34L381.2,108.67L381,110.6L379.47,110.79L378.58,111.81L377.15,112.04L375.62,111.5L373.98,111.82L371.68,113.18L371.1,113.98L372.91,113.76L372.96,116.16L372.09,116.17L372.29,118.19L373.52,119.78L375.52,119.47L379.11,121.1L380.28,122.14L380.83,123.47L380.44,124.95L378.87,126.75L379.3,129.4L382,137.81L384.16,140.45L385.42,142.43L385.72,143.74L385.69,146.66L386.01,148.3L388.55,150.62L390.17,151.39L392.45,151.64L393.27,151L393.77,149.72L393.31,147.99L393.27,146.52L395.73,143.86L396.4,142.49L395.91,140.36L396.65,139.38L398.79,140.1L401.93,140.04L403.66,139.66L405.32,137.03L406.83,135.91L408.4,136.18L410.21,137.97L411.02,138.03L411.72,137.29L411.7,134.02L412.49,133L413.43,133.4L414.76,134.9L419.33,133.66L420.63,134.19L422.34,137.29L424.53,138.51L427.01,138.32L428.77,139.11L430.75,141.26L432.41,143.77L432.73,144.94L432.18,145.54L430.16,146.05L429.85,147.32L430.1,150.37L430.82,152.93L432.23,154.52L433.46,155.01L437.25,155.8L441.89,155.68L442.74,156.48L442.64,158.82L450.13,159.74L452.25,159.92L455.46,159.26L461.93,158.91L468.06,157.12L470.57,156.92L471.89,157.18L474.23,159.59L475.73,160.01L478.06,160.28L478.55,164.33L480.07,167.86L480.85,170.05L480.71,172.45L479.02,173.09L478.55,173.85L477.19,174.16L477.1,175.2L474.9,174.93L474.77,176L473.51,176.56L473.76,178.07L472.11,178.78L471.22,179.68L470.62,179.52L470.07,181.13L470.13,183.34L468.11,183.81L468.08,184.98L468.74,187.75L468.55,188.96L467.76,189.56L466.62,189.41L466.05,188.55L464.9,188.33L463.59,190.24L462.8,190.14L460.31,188.69L459.54,189.07L460.34,191.09L458.73,192.56L458.2,194.53L458.58,196.01L458.15,196.33L459.03,198.19L463.85,202.39L465.36,203.34L465.16,206.35L466.47,206.78L465.68,208.18L465.4,209.92L466.39,209.95L467.01,210.62L466.91,214.77L466.48,216.45L464.98,217.11L463.08,217.01L462.91,215.82L461.61,214.38L459.83,213.41L459.05,214.64L458.88,216.04L457.56,214.87L455.73,216.84L455.45,218.71L455.04,218.86L454.51,221.2L453.9,220.9L452.88,223.8L449.2,222.83L446.37,222.5L446.17,223.33L447.04,223.9L446.07,224.17L445.2,225.72L445.22,226.8L444.35,227.95L444.28,229.84L443.91,230.47L443.87,233.64L441.76,233.93L440.29,232.68L439.89,231.5L438.16,232.18L436.63,231.73L436.53,230.02L435.12,229.71L434.67,230.1L431.92,230.33L431.34,229.08L430.6,229.42L428.74,229.29L427.48,229.43L426.62,228.93L426.63,227.41L425.87,227.05L423.8,227.09L422.77,224.31L416.18,223.05L413.21,223.24L409.73,223.74L400.88,224.6L399.93,224.38L398.62,223.32L397.47,222.91L396.4,223.24L394.95,222.5L394.04,222.92L392.51,222.32L391.54,224.06L388.63,227.37L387.41,227.82L387.02,228.65L387.88,230.25L388.71,230.52L387.28,233.2L386.94,234.63L382.38,237.37L381.48,238.69L380.2,239.08L378.4,239.1L376.69,239.58L375.64,238.89L374.7,235.54L372.38,234.75L370.88,234.93L368.59,236.6L366.27,234.63L365.68,233.53L364.81,233.79L362.84,233.49L362.27,231.86L357.76,233.94L352.27,236.65L350.09,236.72L349.8,235.5L348.63,236.52L347,237.09L346.55,236.52L345.81,238.33L345.29,238.5L343.97,237.14L343.07,239.58L340.69,240.52L340.73,241.16L337.92,241.96L337.55,240.85L336.81,241.19L335.88,240.34L334.61,240.31L334.04,238.57L333.41,238.8L332.97,237.86L332.3,237.93L332.24,237.02L331.37,236.99L330.02,237.76L329.93,239.27L328.08,239.4L326.14,240.88L326.1,241.84L327.41,241.88L328.21,243.65L327.34,244.49L327.94,246.93L326.44,247.86L325.46,247.31L323.64,246.94L323.19,245.84L321.85,245.27L321.39,247.68L320.88,246.94L320.44,248.22L319.44,246.74L318.84,249.84L317.68,252.1L317.21,253.77L317.7,254.71L315.54,255.43L314.93,254.95L311.54,256.65L306.72,256.34L305.88,255.24L304.4,252.07L301.12,252.15L300.56,252.45L298.09,252.64L297.29,253.19L297.2,255.17L294.83,255.68L294.78,242.57L294.49,241.2L292.81,241.54L291.41,239.13L289.93,237.62L287.58,237.42L284.93,233.83L285,231.77L285.69,230.04L289.62,230.42L289.24,227.41L290.54,227.09L291.37,226L291.38,224.92L290.88,222.54L293.14,221.45L292.1,219.23L291.04,218.47L290.78,217.32L291.89,215.54L292.02,213.27L291.71,212.46L290.24,212.09L290.21,211.26L289.4,210.35L289.47,209.56L290.68,209.16L290.74,207.69L289.67,206.28L290.04,205.52L288.96,204.28L288.9,205.31L288.03,204.83L288.39,202.17L289.97,202.03L290.07,203.47L290.87,203.14L291.24,201.56L290.24,202L289.4,201.06L291.57,200.86L291.61,200.39L293.48,198.62L292.52,197.61L292.38,194.33L291.95,193.39L290.74,193.37L289.43,193.9L284.65,194.03L283.85,195.23L282.08,195.15L282.39,196.33L282.02,198.11L280.02,197.31L278.49,197.47L276.99,198.67L274.82,197.71L271.23,196.79L270.11,197.64ZM392.4,118.08L389.84,117.17L389.49,118.07L389.07,117.11L387.85,116.99L387.45,115.61L386.68,115.18L387.4,114.43L388.18,115.22L390.39,114.15L391.13,113.02L391.53,111.13L392.21,110.21L392.93,110.21L393.78,111.25L393.63,112.25L394.21,112.88L394.89,112.53L396.53,113.06L397.49,113.01L398.02,112.37L398.7,112.79L398.22,115.01L399.89,116.91L401.06,116.77L402.32,117.18L403.5,118.36L404.12,118.17L405.12,118.95L402.04,118.9L401.25,119.14L397.49,118.65L394.74,118.75ZM353.72,80.92L354.78,81.31L354.35,82.21L355.5,83.68L354.38,83.87L352.85,82.52L353.13,81.92L352.33,81.39ZM325.14,103.52L326.39,104.08L324.72,104.61L324.45,103.54ZM320.34,103.98L318.88,102.42L319.17,101.66L320.25,102.31L321.34,102.26L322.47,102.86L322.15,103.62ZM406.7,120.53L405.42,119.44L406.83,119.85Z" stroke-miterlimit="10" stroke="#FFFFFF"/>
<path title="荣成市" fill="#D3D3D3" id="path3" d="M478.06,160.28L483.34,159.79L491.26,157.01L496.83,155.76L502.05,155.01L504.48,153.83L508.39,150.47L509.88,149.94L510.95,149.99L511.73,151.34L510.78,155.06L510.88,157.04L512.94,159.66L513.98,160.29L521.05,161.75L529.83,162.6L534.1,163.33L536.74,163.6L543.47,162.76L547.13,162.01L548.99,160.21L553.24,156.62L555.57,155.47L557.37,155.16L565.21,154.88L567.11,155.22L567.6,154.51L570.94,153.04L571.94,153.23L573.45,155.57L573.24,157.41L574.16,157.25L574.65,155.86L574.91,153.95L575.62,153.17L576.93,153.03L578.18,154.73L580.49,155.09L580.34,155.84L578.72,155.95L578.13,156.41L578.43,158.06L579.02,158.8L580.77,159.91L582.98,160.44L584.44,160.46L584.86,159.48L583.55,158.03L583.55,156.32L581.93,154.62L581.73,153.45L582.51,152.64L585.65,152.72L587.03,152.2L587.93,152.92L589.37,155.99L591.31,156.97L593.69,157.46L594.46,157.96L595.51,159.66L595.87,162.43L596.55,164.98L599.34,165.87L599.98,166.82L600,168.91L599.2,170.71L597.56,172.24L593.8,174.22L593.01,174.81L592.38,176.15L591.72,178.63L590.78,179.84L589.1,180.41L586.99,180.1L586.29,179.58L584.13,174.98L582.42,174.63L579.57,174.77L578.36,174.35L576.53,172.76L574.62,172.71L571.14,173.93L569.53,175.37L567.25,179.11L565.32,181.94L564.25,182.61L560.82,182.8L559.32,183.25L557.85,184.59L555.71,187.02L554.22,189.17L552.8,192.54L551.98,197.05L552.02,197.84L552.8,198.33L554.66,197.95L556.53,197.24L559.3,196.74L560.41,197.39L560.39,198.58L559.53,200.2L555.03,203.83L552.55,206.35L550.79,208.97L548.08,211.9L547.12,213.6L544.86,215.22L544.63,217.85L545.22,219.22L546.2,219.63L547.36,221.15L547.43,222.47L544.77,224.77L543.67,226.35L543.78,227.9L544.31,228.88L545.3,228.88L545.87,230.09L543.8,231.51L543.11,233.83L542.02,235.12L542.19,235.97L543.46,236.51L545.14,235.8L548.86,236.29L550.28,235.23L551.88,235.05L552.19,236.44L551.16,241.52L553.8,243.94L554.98,244.39L555.28,246.4L554.91,247.8L554.99,250.89L555.92,254.1L556.42,254.57L560.85,255.91L562.74,257.16L564.17,258.82L566.07,263.37L566.08,267.77L565.53,268.58L564.21,269.4L563.2,269.53L560.56,269.18L559.35,268.51L557.28,268.47L556.45,269.18L554.74,273.4L553.6,274.25L548.96,273.08L546.65,273.16L545.08,274.55L544.47,275.53L544.43,276.7L545.36,278.14L547,279.48L549.85,282.84L550.21,283.83L550.1,285.67L549.5,287.82L547.44,290.67L545.43,291.15L539.12,290.8L533.86,289.36L530.69,288.09L528.91,287.91L522.33,289.04L519.67,289.26L516.43,290.19L515.12,291.03L513.12,293.44L511.38,296.39L509.79,299.88L508.47,305.29L507.58,313.71L507.22,318.14L507.9,324.27L508.43,327.81L508.47,330.94L508.04,333.05L506.72,334.96L501.7,338.17L500.67,339.19L500.07,340.49L500.07,342.19L500.78,343.58L502.93,344.58L507.42,344.79L511.1,346.12L513.51,346.3L515.29,346.13L521.12,344.72L525.28,343.17L528.38,341.35L534.82,338.02L538.94,336.77L542.93,336.25L545.32,336.29L547.39,337.64L548.63,339.7L549.06,341.89L548.81,343.72L548.35,344.66L545.25,346.94L539.98,349.83L537.66,351.53L535.1,355.41L533.32,360.64L533.16,364.13L533.45,367.67L534.97,371.3L538.03,373.18L538.7,376.08L538.25,378.17L535.79,379.91L533.71,384.21L533.98,398.03L533.98,400.22L533.59,402.35L532.38,405.09L530.18,408.57L528.33,410.98L525.92,413.47L522.22,416.44L520.16,417.42L514.68,418.47L511.7,418.19L509.85,415.82L509.74,413.63L510.13,409.84L512.55,407.92L513.12,407.17L512.94,405.74L511.62,405.11L509.2,404.84L500.59,404.98L493.34,404.61L490.13,404.74L488.49,405.58L488.06,407.37L494.98,412.57L496.45,415.74L497.22,418.42L498.06,419.71L498.06,422.01L498.82,422.11L500.42,420.39L501.72,420.97L501.94,421.78L499.89,425.55L499.05,426.75L497.98,426.75L494.65,424.84L490.01,427.22L487.34,429.42L484.86,429.96L483.09,431.44L482.87,433.86L482.24,433.95L482.16,431.53L480.8,430.78L478.1,430.86L476.51,429.58L473.91,428.17L470.54,428.57L469.72,429.58L470.05,430.22L471.36,430.22L471.56,431.17L470.09,432L469.69,432.71L470.27,435.43L469.7,437.17L468.37,438.85L465.8,440.3L462.99,441.47L460.2,441.61L457.58,443.27L457.13,444.75L457.29,446.16L456.65,446.59L453.93,446.3L452.07,444.07L452.31,442.57L451.63,442.08L449.5,442.37L448.63,443.32L448.18,445.6L447.07,445.87L445.26,444.39L441.72,443.64L439.9,443.64L438.89,444.14L437.23,443.64L437.07,442.36L436.36,442.19L434.7,442.9L431.9,443.18L429.28,442.81L428.18,442.13L425.1,440.91L424.52,440.1L423.7,440.15L421.24,441.15L418.55,440.98L417.93,441.49L417.31,443.13L416.69,443.17L414.11,441.1L411.43,439.69L410.67,438.72L406.79,436.59L404.81,436.39L403.53,436.68L401.04,437.72L397.29,439.55L393.71,439.75L391.38,440.31L388.93,439.74L387.39,437.2L387.9,434.87L391.55,432.99L392.53,431.38L392.24,429.66L394.33,428.16L394.26,426.73L393.72,425.39L391.98,423.33L390.81,419.94L390.48,416.29L389.31,414.35L386.75,413.98L384.87,415.32L383.13,418.94L381.65,419.94L367.48,415.54L366.61,413.78L370.12,403.82L370.41,402.65L375.94,393.01L384.92,378.53L385.56,376.93L386.1,373.39L386.47,369.39L386.47,364.59L386.74,363.1L387.74,361.62L388.93,360.7L395.48,358.77L399.03,357.3L399.94,356.5L400.49,355.01L401.22,351.36L401.67,350.44L404.86,348.62L405.9,347.82L407.57,344.9L408.15,344.38L414.27,342.81L414.55,341.67L416.65,338.94L417.17,335.59L416.43,334.84L414.95,334.91L413.87,332.3L412.96,331L412.72,329.91L413.66,326.25L417.67,324.33L418.64,323.15L419.4,320.35L421.08,318.08L421.36,316.62L421.43,312.96L419.46,308.39L419.44,307.63L420.92,302.99L421.56,301.84L422.14,297.93L423.76,295.86L427.67,292.59L438.62,287.87L442.22,284.61L443.75,279.74L443.18,275.83L441.81,271.39L440.49,268.52L438.2,267.03L435.67,265.09L432.21,261.62L428.42,258.93L427.81,257.38L427.72,254.35L427.93,250.31L427,245.34L423.85,238.79L423.66,236.82L424.15,235.59L426.68,234.88L428.75,235.17L429.79,234.59L430.41,233.02L429.82,231.09L428.89,230.37L428.74,229.29L430.6,229.42L431.34,229.08L431.92,230.33L434.67,230.1L435.12,229.71L436.53,230.02L436.63,231.73L438.16,232.18L439.89,231.5L440.29,232.68L441.76,233.93L443.87,233.64L443.91,230.47L444.28,229.84L444.35,227.95L445.22,226.8L445.2,225.72L446.07,224.17L447.04,223.9L446.17,223.33L446.37,222.5L449.2,222.83L452.88,223.8L453.9,220.9L454.51,221.2L455.04,218.86L455.45,218.71L455.73,216.84L457.56,214.87L458.88,216.04L459.05,214.64L459.83,213.41L461.61,214.38L462.91,215.82L463.08,217.01L464.98,217.11L466.48,216.45L466.91,214.77L467.01,210.62L466.39,209.95L465.4,209.92L465.68,208.18L466.47,206.78L465.16,206.35L465.36,203.34L463.85,202.39L459.03,198.19L458.15,196.33L458.58,196.01L458.2,194.53L458.73,192.56L460.34,191.09L459.54,189.07L460.31,188.69L462.8,190.14L463.59,190.24L464.9,188.33L466.05,188.55L466.62,189.41L467.76,189.56L468.55,188.96L468.74,187.75L468.08,184.98L468.11,183.81L470.13,183.34L470.07,181.13L470.62,179.52L471.22,179.68L472.11,178.78L473.76,178.07L473.51,176.56L474.77,176L474.9,174.93L477.1,175.2L477.19,174.16L478.55,173.85L479.02,173.09L480.71,172.45L480.85,170.05L480.07,167.86L478.55,164.33ZM421.28,482.04L422.43,481.84L423.2,482.69L424.94,482.73L425.17,483.55L424.51,483.73L425.3,485.02L425.87,485.14L425.32,486.06L424.67,485.18L423.59,484.99L422.63,485.7L422.45,484.43L422.88,484.28L421.09,482.83L420.11,482.47L419.1,481.04L419.98,481.1ZM509.16,338.35L510.01,338.42L509.07,339.02ZM583.91,144.79L582.87,144.2L581.52,144.09L582.15,143.24L583.1,142.99L584.16,144.41ZM471.27,435.21L472.18,435.65L471.55,436.07ZM473.93,436.16L473,435.13L473.11,434.32L474.65,434.9ZM508.87,143.88L508.27,141.84L509.37,140L512.14,141.14L512.15,142.53L510.74,143.82ZM434.89,445.67L433.12,445.27L433.6,444.47L435.45,444.77L435.78,445.27ZM548.47,380.94L547.9,379.83L548.78,377.27L549.67,376.92L550.15,377.62L550.07,379.33L549.27,380.64Z" stroke-miterlimit="10" stroke="#FFFFFF"/>
<path title="乳山市" fill="#D3D3D3" id="path4" d="M218.53,299.89L219.59,300.18L220.76,301.6L223.55,302.25L223.82,306.8L221.95,308.62L219.98,309.58L219.84,310.89L217.08,313.38L217.05,315.92L217.26,317.4L216.69,319.36L217.44,320.05L217.43,321.54L215.9,322.65L214.56,324.6L214.7,326.67L215.27,326.6L219.14,324.21L219.87,323.6L217.91,322.05L219.66,322.05L219.96,322.97L220.85,323.62L221.67,322.89L222.72,322.7L224.27,323.14L226.07,324.86L227.24,323.76L227.61,324.43L226.89,325.82L227.97,327.1L226.49,330.41L225.35,331.89L226.22,333.69L226.8,334.01L227.4,338.21L229.85,337.87L229.79,336.56L230.63,337.14L230.5,338.41L231.53,337.83L232.12,340.38L232.84,340.61L235.25,340.3L236.24,342.21L234.01,343.79L233.66,344.86L234.89,346.34L236,347.05L233.81,353.61L231.16,355.4L226.35,358.24L226.23,361.54L228.51,361.74L231.31,363.59L235.32,363.62L239.24,364.15L240.65,364.56L243.08,366.42L243.68,367.67L244.86,371.19L246.29,372.08L247.78,373.59L249.2,373.56L251.53,372.9L252.72,373.6L253.87,375.79L255.82,377.49L256.76,377.42L258.45,376.17L260.04,375.45L262.05,375.47L264.28,376.79L265.48,379.03L266.18,381.17L266.91,384.74L266.76,385.72L264.87,386.95L263.69,389.16L263.7,390.06L264.5,391.93L266.89,394.98L267.45,397.94L267.29,407.17L261.07,409.89L254.25,412.63L249.07,415.66L239.05,419.37L230.18,423.96L227.93,428.25L227.37,430.48L227.46,432.09L228.36,433.49L228.64,435.66L228.09,437.72L226.26,440.09L221.56,441.81L218.67,443.35L217.67,445.35L215.84,446.33L215.09,447.31L214.03,447.63L212.03,446.2L211,446.19L208.12,448.57L206.45,449.57L201.03,450.61L194.47,451.21L192.37,451.83L188.31,453.78L181.06,457.61L177.22,460.07L175.88,461.74L175.57,463.73L176.3,465.24L175.95,467.68L176.08,468.6L177.37,471.08L177.53,473.8L178.19,476.57L178.87,477.9L180.2,479.07L180.67,480.31L180.63,482.38L184.45,491.69L185.41,494.39L185.65,496.11L184.85,497.5L183.46,497.67L182.15,496.98L180.85,495.09L179.67,494.39L177.82,494.18L172.9,490.99L170.91,490.37L167.15,490.57L166.01,489.76L164.65,486.92L164.94,485.39L164.97,480.19L165.27,478.25L164.88,477.2L164.23,476.97L163.47,477.77L161.96,480.67L160.58,481.81L159.32,481.67L156.46,479.21L153.27,476.87L152.43,476.66L147.72,477.83L147.85,478.63L150.21,480.45L150.62,481.66L152.66,483.04L152.52,484.33L153.33,485.74L154.88,486.95L155.01,489.7L154.75,491.11L153.78,492.96L152.46,494.43L151.31,495.09L149.34,495L147.68,494L143.11,492.52L141.82,492.28L140.11,493.83L138.24,494.01L138.12,492.09L139.04,490.78L141.92,489.81L143.73,488.7L144.27,487.61L144.24,486.52L139.91,483.39L138.41,483.18L136.03,485.41L134.39,485.51L133.75,485.08L133.33,483.52L133.39,480.46L132.69,479.39L130.47,479.73L128.73,479.45L127.48,478.29L127.36,477.21L128.44,475.28L128.06,474.73L123.89,474.68L121.12,474.28L118.85,473.31L118.24,471.67L118.4,469.97L120.13,467.29L124.33,464.14L126.66,463.06L129.51,462.04L133.08,459.98L136.78,457.68L139.75,456.9L142.29,457.3L143.73,457.25L144.72,456.68L145.45,455.55L145.94,453.46L146.85,452.1L153.07,447.03L153.27,445.47L151.14,445.58L141.11,449.03L138.99,450.09L137.55,451.28L135.56,455.12L134.7,456.42L133.44,457.38L131.97,457.83L129.56,458.07L128.48,458.56L127.45,461.48L124.62,462.89L118.08,467.98L116.86,469.98L116.92,471.23L117.71,473.95L117.27,474.64L115,473.07L112.45,469.33L111.1,467.79L106.34,465.27L99.97,464.53L96.88,464.64L93.51,463.97L91.95,464.9L90.31,465.22L87.99,464.75L86.13,464.09L85.15,463.19L85.1,461.06L85.51,458.55L84.66,456.98L82.78,455.01L80.38,449.07L78.06,446.51L77.65,445.63L77.18,441.39L76.41,440.64L71.84,440.32L71.01,439.42L70.21,436.35L70.09,434.91L71.41,431.46L70.15,429.22L71.22,427.25L72.67,425.51L77.74,423.38L80.38,423.93L81.07,422.73L78.55,419.08L77.2,418.39L76.63,417.46L76.11,415.08L74.68,413.74L73.04,412.95L72.78,411.69L73.72,409.93L73.38,407.96L71.52,401.2L69.06,400.7L66.32,401.64L57.13,407.24L54.86,408.37L52.81,409.68L51.02,409.16L49.91,406.36L49.38,402.75L48.74,402.48L46.38,402.82L43.8,402.61L40.98,402.64L39.46,402.03L38.65,400.37L36.9,398.25L35.49,398.6L35.09,399.16L33.4,398.95L31.76,396.47L29.26,393.1L28.42,390.82L28.41,387.09L27.68,385.49L26.43,384.98L21.93,383.91L21.43,381.45L19.05,377.01L19.02,373.53L18.58,370.65L17.68,369.39L16.32,369.36L14.64,370.18L12.29,370.02L7.63,366.11L5.02,364.56L3.61,364.69L1.88,365.54L1.06,365.14L0.26,363.72L0,361.06L1.45,355.01L2.54,354.15L6.64,353.36L7.11,351.14L6.79,349.56L5.26,348.37L4.28,348.26L4.52,345.17L4.07,342.76L5.83,337.42L5.39,327.68L10.44,324.3L19.29,320.12L20.82,319.66L23.04,319.51L25.58,317.86L26.83,312.72L32.76,305.21L36.75,301.68L40.54,298.6L43.02,296.37L45.09,295.04L50.3,293.47L53.23,293.9L54.55,296L54.78,297.95L56.41,297.78L56.47,298.48L57.82,299.29L58.59,299.18L58.27,300.46L59.5,300.34L59.95,299.1L60.94,300L62.84,299.87L63.8,300.8L64.18,300.05L65.68,298.79L66.59,296.41L67.6,295.57L69.61,295.23L70.44,294.31L72.22,297.3L72.59,299.7L70.51,301.34L69.31,300.25L67.73,299.72L69.05,300.98L67.84,300.82L69.01,302.24L68.86,303.19L71.48,305.37L73.06,307.45L74.97,308.68L76.15,308.12L77.72,306.22L80.04,308.07L81.48,310.73L82.4,313.3L83.41,314.85L85.06,315.55L86.82,315.01L89.16,313.81L90.6,311.7L91.69,312.14L92.25,314.36L93.26,314.04L93.8,313.23L95.22,313.21L97.45,313.63L98.19,312.84L98.59,310.96L99.26,309.41L103.01,303.7L105.32,302.6L112.28,303.79L116.51,306.67L122.55,309.92L125.55,311.84L134.22,312.19L138.73,311.75L144.44,311.58L147.77,311.03L151.73,309.54L155.01,309.07L155.08,309.41L157.1,310.71L157.7,310.13L158.28,307.44L160.53,305.83L160.41,304.36L160.9,301.92L161.43,301.35L161,300.06L159.77,299.2L159.06,298.21L159.87,296.57L160.69,295.91L161.16,294.49L161.16,292.36L162.7,292.2L162.69,292.97L165.18,292.37L165.89,291.4L166,292.7L164.98,293.91L166.28,295.61L167.22,298.6L167.73,298.96L169.52,301.37L171.54,299.46L172.27,300.14L173.09,299.93L173.05,298.53L174.7,298.39L176.54,296.14L176.03,295.44L178.29,295.18L179.91,294.68L180.32,296.62L180.31,298.41L181.63,299.21L182.07,298.17L182.98,298.83L182.28,300.67L182.69,301.18L184.03,301.25L183.86,302.25L184.7,301.53L186.34,302.8L185.96,303.3L186.95,303.91L188.6,304.23L189.49,303.78L190.78,303.83L191.14,304.38L191.31,307.39L190.67,308.36L191.76,308.81L192.95,307.79L193.7,305.89L195.21,303.42L195.99,302.79L197.43,302.75L197.05,301.09L196.86,298.71L197.5,297.99L199.48,297.62L198.83,296L197.8,295.43L197.32,293.5L196.9,295.15L196.42,294.49L198.35,291.77L199.63,291.86L201.45,293.83L201.72,295.89L203.29,298.5L203.51,301.33L207.16,301.76L211.21,302.05L214.78,301.81L215.78,301.39L217.04,301.49ZM119.77,493.11L122.21,490.42L122.4,488.62L122.76,489.55L124.51,489.94L125.69,491.05L125.15,491.76L124.38,491.31L123.71,492.09L122.52,492.21L121.72,493.85L121.73,495.3L119.32,494.88L118.78,493.46ZM205.53,458.35L205.45,457.68L206.28,457.1L206.38,453.91L207.09,456.09L207.93,456.61ZM172.9,502.38L171.99,502.09L171.93,501.17L173.53,498.62L173.66,495.54L175.2,493.65L175.76,493.83L176.22,496L177.01,497.34L176.2,498.02L174.79,500.99ZM165.43,494.65L164.25,493.34L165.07,493.15L165.84,493.93ZM157.8,488.16L156.36,487.26L156.84,486.45L157.88,486.45L158.52,487.36ZM161.5,487.06L160.61,486.66L160.29,485.85L161.5,485.35L162.46,486.36ZM189.57,519.08L189.33,517.08L190.13,516.38L190.3,518.08Z" stroke-miterlimit="10" stroke="#FFFFFF"/>
<path title="文登区" fill="#D3D3D3" id="path2" d="M428.74,229.29L428.89,230.37L429.82,231.09L430.41,233.02L429.79,234.59L428.75,235.17L426.68,234.88L424.15,235.59L423.66,236.82L423.85,238.79L427,245.34L427.93,250.31L427.72,254.35L427.81,257.38L428.42,258.93L432.21,261.62L435.67,265.09L438.2,267.03L440.49,268.52L441.81,271.39L443.18,275.83L443.75,279.74L442.22,284.61L438.62,287.87L427.67,292.59L423.76,295.86L422.14,297.93L421.56,301.84L420.92,302.99L419.44,307.63L419.46,308.39L421.43,312.96L421.36,316.62L421.08,318.08L419.4,320.35L418.64,323.15L417.67,324.33L413.66,326.25L412.72,329.91L412.96,331L413.87,332.3L414.95,334.91L416.43,334.84L417.17,335.59L416.65,338.94L414.55,341.67L414.27,342.81L408.15,344.38L407.57,344.9L405.9,347.82L404.86,348.62L401.67,350.44L401.22,351.36L400.49,355.01L399.94,356.5L399.03,357.3L395.48,358.77L388.93,360.7L387.74,361.62L386.74,363.1L386.47,364.59L386.47,369.39L386.1,373.39L385.56,376.93L384.92,378.53L375.94,393.01L375.37,390.87L374.12,390.06L370.59,389.49L369.48,390.11L367.83,391.65L364.64,392.35L363.4,391.35L362.32,391.36L361.11,392.74L359.54,395.65L359.4,398.75L360.12,400.98L358.52,404.09L357.15,404.8L353.63,404.65L349.51,404.68L347.54,405.33L343.88,407.1L341.07,409.25L340.79,411.36L341.64,413.79L340.96,414.73L338.83,416L338.66,416.51L337.94,422.82L337.38,425.33L336.32,425.95L335.52,423.65L335.48,415.09L335.33,413.73L333.7,412.44L331.32,409.77L330.68,407.36L330.1,399.91L330.01,393.53L329.54,391.19L327.82,388.7L327.42,387.7L326.62,383.48L326.22,382.41L324.21,381.41L322.32,384.27L318.7,385.48L315.56,383.1L314.19,383.17L313.09,386.39L312.07,388.68L310.46,390.55L308.8,391.98L307.08,393.08L304.91,393.77L299.42,394.94L292.53,395.89L280.86,401.1L279.33,401.43L276.6,401.54L274.29,402.32L270.42,404.01L267.29,407.17L267.45,397.94L266.89,394.98L264.5,391.93L263.7,390.06L263.69,389.16L264.87,386.95L266.76,385.72L266.91,384.74L266.18,381.17L265.48,379.03L264.28,376.79L262.05,375.47L260.04,375.45L258.45,376.17L256.76,377.42L255.82,377.49L253.87,375.79L252.72,373.6L251.53,372.9L249.2,373.56L247.78,373.59L246.29,372.08L244.86,371.19L243.68,367.67L243.08,366.42L240.65,364.56L239.24,364.15L235.32,363.62L231.31,363.59L228.51,361.74L226.23,361.54L226.35,358.24L231.16,355.4L233.81,353.61L236,347.05L234.89,346.34L233.66,344.86L234.01,343.79L236.24,342.21L235.25,340.3L232.84,340.61L232.12,340.38L231.53,337.83L230.5,338.41L230.63,337.14L229.79,336.56L229.85,337.87L227.4,338.21L226.8,334.01L226.22,333.69L225.35,331.89L226.49,330.41L227.97,327.1L226.89,325.82L227.61,324.43L227.24,323.76L226.07,324.86L224.27,323.14L222.72,322.7L221.67,322.89L220.85,323.62L219.96,322.97L219.66,322.05L217.91,322.05L219.87,323.6L219.14,324.21L215.27,326.6L214.7,326.67L214.56,324.6L215.9,322.65L217.43,321.54L217.44,320.05L216.69,319.36L217.26,317.4L217.05,315.92L217.08,313.38L219.84,310.89L219.98,309.58L221.95,308.62L223.82,306.8L223.55,302.25L220.76,301.6L219.59,300.18L218.53,299.89L219.05,299.07L218.54,298.36L218.48,296.31L220.78,296.21L222.35,296.52L224.23,294.92L223.1,293.02L224.12,290.9L224.76,290.39L224.65,288.82L225.83,287.82L225.55,287L224.44,286.94L224.88,285.88L226.08,285.52L226.49,283.38L227.79,284.8L228.44,284.03L229.4,281.77L228.48,280.19L230.24,279.28L228.83,277.77L229.32,275.99L228.87,275.35L227.58,275.86L226.68,277.16L225.95,277.11L225.89,278.19L224.81,278.53L223.67,277.86L223.02,276.6L222.86,273.53L223.73,273.4L224.4,276.01L225.56,275.01L227.45,275.44L227.24,272.19L226.69,270.72L227.09,268.89L228.53,269.66L229.81,269.04L229.24,268L228.85,268.62L228.27,267.81L229.11,267.03L230.7,266.85L230.85,265.78L230.36,263.07L229.16,261.73L227.43,263.11L227.4,261.49L229.01,259.09L228.8,256.52L227.81,256.25L227.39,257.67L226.6,257.16L225.59,258.91L225.06,259.18L224.73,257.64L225.21,257.49L225.47,255.03L224.6,253.75L222.7,253.69L221.91,252.69L222.3,251.73L221.94,246.91L222.54,244.71L223.63,243.39L226.1,241.72L232.52,241.62L232.99,241.44L233.56,237.59L234.33,235.43L236.66,233.93L236.82,231.55L238.3,229L237.92,227.7L239.84,221.72L239.84,220L239.12,216.3L240.79,214.24L242.94,215.13L248.74,215.86L251.47,214.12L253.37,209.99L256.06,207.09L259.45,204.95L265.95,201.72L268.24,198.05L270.11,197.64L271.23,196.79L274.82,197.71L276.99,198.67L278.49,197.47L280.02,197.31L282.02,198.11L282.39,196.33L282.08,195.15L283.85,195.23L284.65,194.03L289.43,193.9L290.74,193.37L291.95,193.39L292.38,194.33L292.52,197.61L293.48,198.62L291.61,200.39L291.57,200.86L289.4,201.06L290.24,202L291.24,201.56L290.87,203.14L290.07,203.47L289.97,202.03L288.39,202.17L288.03,204.83L288.9,205.31L288.96,204.28L290.04,205.52L289.67,206.28L290.74,207.69L290.68,209.16L289.47,209.56L289.4,210.35L290.21,211.26L290.24,212.09L291.71,212.46L292.02,213.27L291.89,215.54L290.78,217.32L291.04,218.47L292.1,219.23L293.14,221.45L290.88,222.54L291.38,224.92L291.37,226L290.54,227.09L289.24,227.41L289.62,230.42L285.69,230.04L285,231.77L284.93,233.83L287.58,237.42L289.93,237.62L291.41,239.13L292.81,241.54L294.49,241.2L294.78,242.57L294.83,255.68L297.2,255.17L297.29,253.19L298.09,252.64L300.56,252.45L301.12,252.15L304.4,252.07L305.88,255.24L306.72,256.34L311.54,256.65L314.93,254.95L315.54,255.43L317.7,254.71L317.21,253.77L317.68,252.1L318.84,249.84L319.44,246.74L320.44,248.22L320.88,246.94L321.39,247.68L321.85,245.27L323.19,245.84L323.64,246.94L325.46,247.31L326.44,247.86L327.94,246.93L327.34,244.49L328.21,243.65L327.41,241.88L326.1,241.84L326.14,240.88L328.08,239.4L329.93,239.27L330.02,237.76L331.37,236.99L332.24,237.02L332.3,237.93L332.97,237.86L333.41,238.8L334.04,238.57L334.61,240.31L335.88,240.34L336.81,241.19L337.55,240.85L337.92,241.96L340.73,241.16L340.69,240.52L343.07,239.58L343.97,237.14L345.29,238.5L345.81,238.33L346.55,236.52L347,237.09L348.63,236.52L349.8,235.5L350.09,236.72L352.27,236.65L357.76,233.94L362.27,231.86L362.84,233.49L364.81,233.79L365.68,233.53L366.27,234.63L368.59,236.6L370.88,234.93L372.38,234.75L374.7,235.54L375.64,238.89L376.69,239.58L378.4,239.1L380.2,239.08L381.48,238.69L382.38,237.37L386.94,234.63L387.28,233.2L388.71,230.52L387.88,230.25L387.02,228.65L387.41,227.82L388.63,227.37L391.54,224.06L392.51,222.32L394.04,222.92L394.95,222.5L396.4,223.24L397.47,222.91L398.62,223.32L399.93,224.38L400.88,224.6L409.73,223.74L413.21,223.24L416.18,223.05L422.77,224.31L423.8,227.09L425.87,227.05L426.63,227.41L426.62,228.93L427.48,229.43ZM334.59,431.5L332.9,430.5L332.42,428.39L334.19,428.28L335.07,429.78Z" stroke-miterlimit="10" stroke="#FFFFFF"/>
</svg>