<svg xmlns="http://www.w3.org/2000/svg" xmlns:xlink="http://www.w3.org/1999/xlink" width="600" height="600">
<path title="德城区" fill="#D3D3D3" id="path1" d="M212.98,262.18L212.42,264.49L208.63,266.74L208.07,269.13L208.88,271.13L209.93,270.91L209.84,272.83L207.86,273.93L206.02,273.6L204.57,276.21L204.33,280.28L201.06,279.51L200.41,280.53L197.27,279.33L194.09,280.18L192.51,278.53L189.85,278.36L189.13,278.83L188.06,276.4L188.01,274.78L185.61,273.81L184.52,271.37L183.07,270.88L183.14,269.53L181.9,270.72L181.97,266.05L181.2,266.07L181.29,260.6L179.85,260.65L178.64,259.54L178.76,258.51L181.37,257.82L181.25,255.66L182.24,253.4L179.29,249.44L178.12,248.73L170.11,245.77L166.53,244.69L171.07,239.19L171.32,237.78L173.95,236.74L174.05,234.21L176.69,234.47L177.58,233.55L177.45,230.97L181.09,229.39L180.67,228.36L178.83,227.96L177.76,225.58L176.68,225.21L178.06,223.54L176.77,222.87L175.37,223.35L174.48,221.97L176.85,220.36L175.43,219.2L173.9,220.44L173.5,219.76L172.09,220.84L170.6,220.65L169.74,222.1L165.08,221.19L163.61,219.79L163.82,217.53L165.85,216.46L165.88,214.89L166.99,213.24L167.89,213.58L168.53,212.3L168.69,209.4L164.59,207.98L164.15,206.37L164.49,204.55L163.85,202.39L162.9,202.27L162.97,200.44L166.14,200.44L167.09,197.1L168,196.04L168.82,198.16L169.86,197.14L173.07,199.35L172.51,200.79L175.61,203.19L176.48,204.5L178.49,205.26L178.95,203.13L176.98,200.75L179.72,199.32L182.46,198.88L182.23,197.37L180.71,197.16L182.83,195.62L183.08,193.45L181.8,193.8L180.87,192.84L182.62,190.47L184.78,189.51L184.47,188.71L182.27,189.26L179.63,188.65L180.6,186.22L178.48,184.9L179.06,183.52L182.94,183.88L181.35,180.57L182.31,179.89L182.92,175.69L181.89,174.29L182.39,173.11L184.07,172.81L183.36,170.41L185.29,170.51L185.01,167.95L185.41,166.66L186.83,168.58L189.21,167.84L191.68,165.94L193.44,166.67L195.89,164.71L195.33,164.04L191.49,163.32L191.37,162.67L193.66,161.98L196.22,162.27L196.58,163.95L198.9,166.32L198.48,168L201.26,168.51L201.33,169.88L202.24,168L203.47,168.39L204.54,166.38L206.14,166.93L205.68,167.91L209.25,169.04L209.16,170.4L208.02,169.98L208.42,175.32L209.17,176.23L207.85,177.06L205.75,180.11L206.63,180.75L206.06,182.91L208.87,184.71L210.34,183.98L211.94,186.69L215.96,189.13L217.16,190.68L219.52,196.21L223.43,201.06L225.49,202.84L227.13,200.77L229.26,192.62L232.06,187.68L235.31,185.68L239,184.98L241.1,183.73L242.91,180.93L245.06,178.59L247.27,177.11L249.4,172.96L251.49,175.68L253.36,176.31L259.26,177.49L263.63,177.28L267.67,175.69L269.71,181.41L271.38,182.8L275.01,183.36L274.64,184.27L275.81,185.07L275.54,187.87L274.08,187.08L271.87,188.34L269.74,188.28L268.31,187.42L266.08,189.03L266.56,191.32L269.34,192.81L268.61,195.27L268.52,197.73L267.63,200.15L265.52,199.47L263.43,200.8L262.19,200.93L261.44,202.92L260.29,202.71L260.07,204.77L261.34,205.33L260.76,213.22L258.75,213.57L257.74,214.41L255.94,214.15L256.36,213.22L252.75,212.17L249.35,212.86L248.7,211.02L246.94,212.8L245.68,212.5L246.67,207.21L244.98,204.42L244.48,204.97L241.85,204.52L241.47,206.53L240.72,206.42L239.8,209.13L241.15,209.43L240.57,214.13L239.55,219.11L238.39,217.73L237.4,222.02L236.2,223.06L238.09,223.58L238.38,224.76L241.83,225.16L242.63,226.24L241.57,231.28L239.17,230.81L238.19,231.2L238.07,233.7L235.62,233.86L234.84,234.99L230.84,234.34L230.19,236.13L228.01,236.29L228.69,237.57L231.36,237.65L233.41,238.87L232.98,240.12L226.85,246.25L225.84,248.94L224.02,250.59L220.23,251.01L218.21,251.8L215.23,254.65L213.69,257.55Z" stroke-miterlimit="10" stroke="#FFFFFF"/>
<path title="乐陵市" fill="#D3D3D3" id="path10" d="M403.55,216.44L405.92,213.01L404.31,211.54L400.28,210.21L400.4,208.05L401.73,205.66L402.89,202.55L400.52,200.22L399.6,198.24L399.42,192.9L398.28,188.23L394.76,184.9L391.16,184.87L391.2,184.21L388.91,184.23L385,182.94L383.41,183.85L383.67,182.83L379.02,183.57L378.62,183.21L378.24,179.5L377.16,176.73L372.79,175.39L371,173.99L369.74,172.08L368.57,169.23L369.12,166.74L370.81,166.22L373.77,165.67L378.72,163.05L382.12,160.33L383.09,158.44L385.19,156.31L391.43,154.13L394.3,152.35L394.6,149.68L394.38,146.75L394.95,142.96L398.02,139.63L399.04,134.89L398.82,132.13L395.94,127.7L393.84,123.8L393.45,120.86L394.63,116.73L394.76,114.06L393.07,111.62L391.24,105.82L388.65,99.58L386.88,96.53L385.73,92.2L382.19,85.94L380.68,82.39L380.14,77.63L380.28,73.91L380.92,71.12L381.48,71.13L382.24,66.36L381.09,68.76L378.64,70.63L377.24,68.52L378.29,64.64L379.43,64.84L387.27,64.34L396.88,67.05L402.34,67.62L405.09,67L404.76,66.34L406.34,65L409.08,63.7L409.37,64.22L411.98,62.6L416.4,61.43L422.21,61.15L439.02,64.9L443.06,64.81L444.7,64.13L446.71,61.86L449.51,61.04L454.28,62.81L462.39,64.15L466.53,64.51L471.71,65.39L475.17,64.76L479.07,62.18L484.59,60.07L489.29,56.78L492.58,60.84L496.94,63.07L497.85,65.76L496.51,67.82L491.41,72.98L488.7,76.75L486.79,82.74L486.65,84.09L488.25,86.08L486.87,86.19L487.8,88.26L487.16,90.77L489.03,91.84L487.94,92.56L487.49,95.97L488.51,96.41L488.31,100.98L488.69,102.99L487.68,103.41L491.25,109.68L491.15,111.95L490.51,112.1L489.9,116.61L491.04,115.8L492.63,116.34L495.04,115.67L497.11,114.01L499.09,114.76L498.22,114.75L497.66,117.12L498.29,117.49L497,120.13L497.98,121.82L497.87,123.84L496.73,124.89L492.46,127.59L490.71,129.38L489.2,131.86L487.44,139.43L485.18,139.96L485.58,141.48L487.45,142.54L489,149.55L488.96,151.96L488.14,155.05L486.18,158.99L480.42,163.83L477.95,167.92L477.92,169.74L477.05,175.75L475.77,180.56L472.04,181.53L467.42,181.02L465.28,180.46L462.85,181.97L460.18,187.87L456.59,192.71L453.68,197.65L446.74,198.04L443.1,200.73L439.84,201.71L434.69,202.14L433.44,199.62L431.48,198.9L426.99,200.73L423.71,204.21L425.55,209.62L424.76,213.2L423.12,215.34L420.86,217.23L419.73,217.37L405.68,217.08Z" stroke-miterlimit="10" stroke="#FFFFFF"/>
<path title="临邑县" fill="#D3D3D3" id="path5" d="M378.62,183.21L379.02,183.57L383.67,182.83L383.41,183.85L385,182.94L388.91,184.23L391.2,184.21L391.16,184.87L394.76,184.9L398.28,188.23L399.42,192.9L399.6,198.24L400.52,200.22L402.89,202.55L401.73,205.66L400.4,208.05L400.28,210.21L404.31,211.54L405.92,213.01L403.55,216.44L403.39,214.27L401.46,216.1L399.75,216.93L398.35,221.28L398.9,223.2L397.86,223.02L398.37,225.63L400.12,228.37L399.04,230.83L396.69,233.22L394.02,239.04L396.3,242.5L397.11,245.52L396.23,247.23L394.31,248.84L391.89,250.11L390.4,251.9L390.28,254.65L391.1,257.41L392.27,259.65L394.61,270.33L394.91,273.16L401.49,275.8L403.19,277.2L405.87,280.45L405.5,281.23L403.27,281.31L404,282.77L403.89,285.42L405.26,285.4L405.64,287.55L406.55,287.52L406.97,290.82L405.17,291.36L404.69,293.67L405.36,293.88L404.96,296.34L403.61,296.77L400.89,299.72L402.53,301.34L403.93,301.44L404,302.76L405.51,302.62L405.39,307.17L407.77,306.42L411.36,308.31L411.93,311.17L413.19,311.86L412.77,313.73L412.73,317.72L412.31,318.85L409.85,319.01L409.34,320L410.33,323.06L410.55,327.18L411.66,327.23L412.08,328.85L408.37,329.79L407.42,331.02L407.61,334.33L406.33,336.55L405.61,334.83L401.49,335.43L397.56,334.79L395.59,334.85L389.06,337.7L385.91,338.16L383.35,339.7L380.26,340.35L373.81,342.6L370.1,345.38L370.3,349.75L371.95,354.05L372.08,356.88L372.97,361.08L375.16,363.26L377.62,364.33L378.95,366.49L377.29,368.6L371.99,370.56L366.75,373.04L365.66,373.95L361.92,379.13L356.8,378L354.52,376.76L352.56,376.48L347.11,377.17L343.51,379.69L341.34,383L339.88,384.17L336.31,384.32L337.21,380.85L333.17,380.18L332.17,379.59L330.3,376.37L328.61,375.63L326.74,375.91L324.12,370.53L322.34,369.66L316.28,369.25L316.71,366.81L317.86,364.77L318.77,360.84L318.29,359.01L315.9,357.7L315.22,359.18L313.49,359.33L314.29,357.77L314.05,356.22L311.97,353.72L309.65,351.99L306.17,347.64L304.71,347.35L305.98,345.69L309.35,345.48L309.41,340.96L308.97,340.57L310.28,338.57L310.35,333.68L311.07,327.32L312.25,321.98L314.51,315.06L313.91,312.45L311.62,312.38L312.59,310.78L312.11,307.26L310.42,304.75L310.26,302.17L312.85,300.84L317.1,296.69L319.29,293.37L321.47,290.74L323.03,289.83L329.19,288.7L333.56,284.29L340.36,269.65L341.8,264.56L341.99,261.12L343.63,257.65L343.62,254.82L345.76,252.93L350.04,250.96L355.36,247.22L358.15,244.19L358.88,240.45L362.79,229.2L363.92,225.48L365.89,206.86L366.15,202.89L365.8,197.38L364.9,195.51L365.04,193.47L362.68,192.1L362.98,189.08L365.67,186.8L368.46,186.1L368.45,185.01L371.67,184.14L370.51,185.35L370.89,187.84L372,189.04L373.21,186.12Z" stroke-miterlimit="10" stroke="#FFFFFF"/>
<path title="陵城区" fill="#D3D3D3" id="path2" d="M310.26,302.17L307.12,301.38L302.69,298.68L298.51,298.13L295.34,297.17L293.48,295.09L291.8,291.47L289.01,287.25L286.1,287.65L281.12,289.58L277.78,288.48L277.56,286.17L275.58,284.7L273.81,284.65L272.99,286.8L271.96,285.15L269.62,284.15L263.73,280.87L259.86,280.44L258.78,279.73L258.61,277.56L255.7,276.43L253.06,277L247.6,277.54L238.74,276.75L230.22,276.31L222.02,275.38L219.47,273.73L215.9,270.61L216.27,265.53L215.74,263.32L214.68,263.24L213.4,264.5L212.98,262.18L213.69,257.55L215.23,254.65L218.21,251.8L220.23,251.01L224.02,250.59L225.84,248.94L226.85,246.25L232.98,240.12L233.41,238.87L231.36,237.65L228.69,237.57L228.01,236.29L230.19,236.13L230.84,234.34L234.84,234.99L235.62,233.86L238.07,233.7L238.19,231.2L239.17,230.81L241.57,231.28L242.63,226.24L241.83,225.16L238.38,224.76L238.09,223.58L236.2,223.06L237.4,222.02L238.39,217.73L239.55,219.11L240.57,214.13L241.15,209.43L239.8,209.13L240.72,206.42L241.47,206.53L241.85,204.52L244.48,204.97L244.98,204.42L246.67,207.21L245.68,212.5L246.94,212.8L248.7,211.02L249.35,212.86L252.75,212.17L256.36,213.22L255.94,214.15L257.74,214.41L258.75,213.57L260.76,213.22L261.34,205.33L260.07,204.77L260.29,202.71L261.44,202.92L262.19,200.93L263.43,200.8L265.52,199.47L267.63,200.15L268.52,197.73L268.61,195.27L269.34,192.81L266.56,191.32L266.08,189.03L268.31,187.42L269.74,188.28L271.87,188.34L274.08,187.08L275.54,187.87L275.81,185.07L274.64,184.27L275.01,183.36L275.8,182.01L278.86,180.63L282.19,174.72L286.33,172.94L291.25,171.43L294.9,168.01L298.28,165.88L300.99,162.8L304.1,161.53L306.6,161.38L310.38,162.1L312.95,163.16L317.05,165.53L319.94,168.15L320.92,172.63L322.44,174.81L325.52,175.45L329.33,173.25L331.29,173.62L334.99,173.16L338.34,171.65L340.52,169.53L342.34,167.05L343.41,164.65L343.35,162.33L341.94,158.26L341.97,156.01L343.19,154.39L346.28,153.58L353.18,151.09L359.98,149.37L362.3,149.32L363.74,150.81L363.79,154.08L367.31,160.51L370.81,166.22L369.12,166.74L368.57,169.23L369.74,172.08L371,173.99L372.79,175.39L377.16,176.73L378.24,179.5L378.62,183.21L373.21,186.12L372,189.04L370.89,187.84L370.51,185.35L371.67,184.14L368.45,185.01L368.46,186.1L365.67,186.8L362.98,189.08L362.68,192.1L365.04,193.47L364.9,195.51L365.8,197.38L366.15,202.89L365.89,206.86L363.92,225.48L362.79,229.2L358.88,240.45L358.15,244.19L355.36,247.22L350.04,250.96L345.76,252.93L343.62,254.82L343.63,257.65L341.99,261.12L341.8,264.56L340.36,269.65L333.56,284.29L329.19,288.7L323.03,289.83L321.47,290.74L319.29,293.37L317.1,296.69L312.85,300.84Z" stroke-miterlimit="10" stroke="#FFFFFF"/>
<path title="宁津县" fill="#D3D3D3" id="path3" d="M370.81,166.22L367.31,160.51L363.79,154.08L363.74,150.81L362.3,149.32L359.98,149.37L353.18,151.09L346.28,153.58L343.19,154.39L341.97,156.01L341.94,158.26L343.35,162.33L343.41,164.65L342.34,167.05L340.52,169.53L338.34,171.65L334.99,173.16L331.29,173.62L329.33,173.25L325.52,175.45L322.44,174.81L320.92,172.63L319.94,168.15L317.05,165.53L312.95,163.16L310.38,162.1L306.6,161.38L304.1,161.53L300.99,162.8L298.28,165.88L294.9,168.01L291.25,171.43L286.33,172.94L282.19,174.72L278.86,180.63L275.8,182.01L275.01,183.36L271.38,182.8L269.71,181.41L267.67,175.69L263.63,177.28L259.26,177.49L253.36,176.31L251.49,175.68L249.4,172.96L251.82,169.53L256.62,167.1L257.95,165.24L258.48,162.14L261.46,159.84L264.08,156.53L262.01,156.4L263.28,154.89L265.71,153.39L269.09,150.23L274.49,147.4L276.3,145.77L284.14,135.36L287.14,130.19L286.49,129.79L287.53,127.96L286.4,127.98L285.83,126.65L287.19,124.21L289.05,125.1L288.81,126.51L290.37,125.26L290.96,126.01L292.87,124.24L294.04,122.15L296.24,114.64L297.39,109.7L298.75,106.7L301.74,106.26L301.84,107.05L304.59,106L304.11,104.77L305.25,104.2L304.42,102.94L306.64,102.52L306.75,104.22L307.63,104.29L312.09,100.86L311.15,99.12L310.4,94.06L311.69,92.4L313.6,93.09L314.61,94.33L314.13,95.36L315.65,95.11L316.44,96.1L317.96,95.94L319.86,93.4L320.82,90.96L321.19,84.48L320.38,84.32L320.79,82.48L318.49,81.44L318.89,79.72L322.36,79.14L324.71,75.55L330.48,69.91L330.28,68.65L331.6,65.9L330.87,65.71L331.07,63.45L332.59,63.28L332.99,62.11L336.07,61.44L338.11,61.75L338.4,63.37L340.48,63.05L340.52,64.18L342.96,64.51L344.85,65.99L347.64,66.82L350.25,66.16L358.35,63.32L359.6,63.1L370.19,62.51L377.19,64.39L377.15,64.69L377.45,64.76L377.53,64.47L378.29,64.64L377.24,68.52L378.64,70.63L381.09,68.76L382.24,66.36L381.48,71.13L380.92,71.12L380.28,73.91L380.14,77.63L380.68,82.39L382.19,85.94L385.73,92.2L386.88,96.53L388.65,99.58L391.24,105.82L393.07,111.62L394.76,114.06L394.63,116.73L393.45,120.86L393.84,123.8L395.94,127.7L398.82,132.13L399.04,134.89L398.02,139.63L394.95,142.96L394.38,146.75L394.6,149.68L394.3,152.35L391.43,154.13L385.19,156.31L383.09,158.44L382.12,160.33L378.72,163.05L373.77,165.67ZM377.53,64.47L377.45,64.76L377.15,64.69L377.19,64.39Z" stroke-miterlimit="10" stroke="#FFFFFF"/>
<path title="平原县" fill="#D3D3D3" id="path7" d="M230.08,397.7L228.04,397.19L228.36,395.91L226.66,395.47L225.46,393.44L225.57,392.01L224.06,391.65L221.61,389.22L219.78,389.17L217.06,391.67L209.15,392.72L209.02,393.53L206.44,393.85L206.51,392.76L204.9,392.53L205.31,390.65L203.63,390.51L203.65,389.51L199.48,388.68L199.8,387.56L197.83,387.52L197.47,390.62L195.42,391.61L192.68,390.58L190.58,386.93L186.97,383.79L187.1,382.01L183.75,380.75L182.73,381.72L178.12,377.79L176.6,377.43L175.9,376.22L172.62,375.99L172.01,377.05L170.45,374.65L169.88,372.8L170.7,370.63L166.77,369.66L165.48,368.11L170.9,359.67L172.56,357.56L172.94,357.9L174.98,355.79L177.39,354.43L176.23,354.15L176.02,350.48L173.45,347.57L169.54,345.26L161.24,337.11L161.21,335.33L159.98,334.76L159.97,332.51L158.16,332.26L156.97,330.69L155.98,327.96L155.95,326.36L153.27,325.5L151.4,326.37L151.02,325.27L152.17,324.99L154.95,320.42L156.17,319.96L159.26,315.85L165.48,313.7L165.79,311.09L164.93,307.55L166.9,302.7L170.29,299.68L176.32,293.18L180.4,289.15L180.64,282.42L178.05,282.28L178.07,279.35L177.51,279.15L177.68,275.28L178.56,275.21L179.09,272.74L181.1,272.25L181.9,270.72L183.14,269.53L183.07,270.88L184.52,271.37L185.61,273.81L188.01,274.78L188.06,276.4L189.13,278.83L189.85,278.36L192.51,278.53L194.09,280.18L197.27,279.33L200.41,280.53L201.06,279.51L204.33,280.28L204.57,276.21L206.02,273.6L207.86,273.93L209.84,272.83L209.93,270.91L208.88,271.13L208.07,269.13L208.63,266.74L212.42,264.49L212.98,262.18L213.4,264.5L214.68,263.24L215.74,263.32L216.27,265.53L215.9,270.61L219.47,273.73L222.02,275.38L230.22,276.31L238.74,276.75L247.6,277.54L253.06,277L255.7,276.43L258.61,277.56L258.78,279.73L259.86,280.44L263.73,280.87L269.62,284.15L271.96,285.15L272.99,286.8L273.81,284.65L275.58,284.7L277.56,286.17L277.78,288.48L281.12,289.58L286.1,287.65L289.01,287.25L291.8,291.47L293.48,295.09L295.34,297.17L298.51,298.13L302.69,298.68L307.12,301.38L310.26,302.17L310.42,304.75L299.24,317.44L294.65,322.29L291.82,323.12L285.93,323.01L282.87,328.16L280.94,330.05L279.89,330.16L280.83,331.76L281.09,333.86L279.66,337.11L280.4,337.48L278.11,341.87L274.05,347.48L271.9,349.08L268.44,353.15L267.45,352.44L262.18,359.86L259.5,361.83L257.47,363.9L255.71,363.38L255.02,361.09L253.64,359.9L253.77,361.47L252.94,363.28L253.98,363.99L253.74,365.49L251.62,367.98L252.15,369.18L250.68,370.08L245.84,369.77L246.39,370.62L242.59,372.11L241.53,370.85L240.51,371.69L241.19,372.96L238.88,378.93L235.69,380.34L233.5,379.8L233.78,380.79L232.84,386.09L232.22,386.6L232.07,389.11L232.94,389.45L232.71,393.07L232.11,392.89Z" stroke-miterlimit="10" stroke="#FFFFFF"/>
<path title="齐河县" fill="#D3D3D3" id="path6" d="M217.44,490.16L221.51,491.47L231.83,494.3L236.38,496.05L247.16,501.37L250.28,502.09L256.19,502.85L261.2,501.11L261.72,499.33L260.73,497.02L258.3,494.18L256.9,490.58L257.85,488.12L260.93,484.58L262.92,479.4L263.65,474.72L264.97,469.36L267.03,467.09L269.24,465.83L272.86,468.76L274.39,469.55L276.77,469.31L280.11,466.27L285.29,459.15L287.8,455.33L288.5,453.37L287.85,450.64L283.72,446.59L282.81,443.77L284.04,439.77L290.93,432.14L294.79,430.46L296.56,432.6L299.91,437.84L303.96,441.46L308.88,444.23L310.86,442.12L311.41,438.77L312.76,436.53L312.99,435.03L312.14,433.05L312.25,431.57L314.32,430.74L314.41,429.21L312.11,428.76L310.74,423.98L312.71,419.24L313.62,415.11L314.84,413.3L317.19,411.39L317.42,409.78L315.41,410.22L316.17,407.68L317.02,407.94L317.55,406.35L319.37,405.99L317.72,400.75L316.13,398L313.27,394.29L313.69,391.65L310.23,388.66L310.02,385.05L308.84,383.46L309.69,383.12L307.66,379.76L308.83,378.96L308.61,377.34L309.48,376.09L312.38,373.58L313.27,371.36L316.28,369.25L322.34,369.66L324.12,370.53L326.74,375.91L328.61,375.63L330.3,376.37L332.17,379.59L333.17,380.18L337.21,380.85L336.31,384.32L339.88,384.17L341.34,383L343.51,379.69L347.11,377.17L352.56,376.48L354.52,376.76L356.8,378L361.92,379.13L359.59,380.54L356.98,380.41L356.99,381.68L358.33,381.62L360.18,383.33L360.3,386.27L362.05,388.57L362.15,387.46L364.17,388.54L363.7,390.68L363.77,394.07L366.73,393.85L367.32,394.83L369.94,394.5L374.37,395.23L373.92,400.23L373.06,400.32L372.51,402.17L375.15,402.32L374.99,404.56L371.16,404.57L374.69,407.77L379.53,409.79L381.55,411.3L382.44,414.69L383.25,419.73L383.25,424.67L382.86,429.56L383.44,434.78L383.17,438.82L378.76,440.12L377.59,437.99L374.77,437.91L375.14,443.64L374.5,443.66L374.32,445.89L370.12,446.96L370.21,446.24L362.19,443.54L360.58,442.27L359.19,445.76L359.5,447.44L360.95,447.86L360.83,450.47L358.72,450.98L356.32,450.25L354.95,454.02L354.15,462.96L355.13,468.48L355.7,469.94L359.61,470.28L360.43,471.26L360.47,475L356.67,477.12L353.02,480.65L347.28,481.58L343.81,483.07L337.68,487.18L335.43,489.43L334.76,491.15L334.52,494.01L332.48,494.75L330.62,494.1L328.82,495.27L328.63,498.48L328.86,502.52L327.82,506.55L326.78,507.77L323.6,509.8L322.87,511.48L322.51,516.94L321.48,518.76L317.32,521.54L312.75,523.46L308.71,525.82L304.36,525.42L302.78,526.18L303.1,532.4L302.37,534.26L300.91,535.73L298.99,536.44L293.23,537.14L292.53,538.68L293.71,542.81L292.54,546.56L288.89,549.87L283.79,549.68L281.76,554.11L279.4,557.02L277.44,558.77L277.97,560.27L283.07,562.95L283.46,565.28L282.21,567.26L277.68,567.33L275.58,568.01L273.72,569.79L272.95,571.43L273.67,573.5L277.85,574.83L278.84,576.08L278.26,579.64L278.36,581.39L281.19,587.94L281.54,590.88L280.87,592.74L278.64,594.66L276.6,595.75L272.34,597.27L267.4,598.54L258.91,600L259.91,596.87L258.94,596.02L256.83,597.57L255.83,596.48L256.97,593.08L255.94,592.45L253.23,594.28L252.13,594.2L250.61,592.86L248.68,592.19L248.25,590.81L248.97,588.03L246.88,586.85L247.3,585.51L243.28,584.54L241.97,583.12L239.67,585.38L233.67,584.79L232.25,582.74L231.92,580.36L233.04,576.97L232.98,573.63L231.3,574.24L231.67,572.65L229.82,571.58L229.05,570.35L229.24,568.37L228.18,566.88L224.51,566.29L224.34,564.86L219.2,559.28L215.59,557.03L215.11,553.72L215.45,541.6L215.93,539.47L217.76,536.05L218.38,531.62L218.69,523.45L217.48,521.99L217.12,517.23L219.26,513.07L219.62,510.94L219.09,507.83L218.67,500.63L217.42,496.02Z" stroke-miterlimit="10" stroke="#FFFFFF"/>
<path title="庆云县" fill="#D3D3D3" id="path4" d="M499.09,114.76L497.11,114.01L495.04,115.67L492.63,116.34L491.04,115.8L489.9,116.61L490.51,112.1L491.15,111.95L491.25,109.68L487.68,103.41L488.69,102.99L488.31,100.98L488.51,96.41L487.49,95.97L487.94,92.56L489.03,91.84L487.16,90.77L487.8,88.26L486.87,86.19L488.25,86.08L486.65,84.09L486.79,82.74L488.7,76.75L491.41,72.98L496.51,67.82L497.85,65.76L496.94,63.07L492.58,60.84L489.29,56.78L495.25,56.03L496.9,56.18L502.99,59.39L508.14,59.25L513.76,62.92L515.4,63.41L520.56,61.99L525.03,59.5L533.45,45.56L537.73,36.46L541.18,31.68L546.24,27.25L547.16,25.64L549.57,16.85L550.41,9.52L551.69,5.66L555.59,0L558.06,0.37L559.84,1.71L562.29,4.79L563.21,10.61L563.26,12.87L564.41,20.42L563.56,24.4L556.87,27.46L554.88,28.02L552,29.87L552.65,32.04L555.06,36.94L555.67,40.94L555.62,43.7L556.1,45.79L557.42,48.41L563.87,48.73L565.58,49.54L567.38,51.4L567.79,53.82L567.12,56.06L567.52,57.56L569.45,59.18L571.88,59.65L573.44,60.79L573.85,62.23L575.12,62.77L574.67,65.12L571.77,66.71L570.72,67.9L570.21,70.49L566.75,73.36L565.07,73.3L563.1,75.03L563.79,77.97L562.84,80.4L562.4,79.19L561.21,79.82L559.47,82.9L558.51,85.59L558.64,87.19L557.23,88.76L557.46,92.09L555.04,92.02L553.92,93.41L551.24,93.81L549.82,95.13L549.96,96.67L552.65,97.47L552.75,99.38L556.49,99.56L556.19,100.9L557.33,101.39L557.41,103.42L555.99,105.84L556.06,107.66L558.24,109.08L558.2,110.58L560.09,111.27L559.14,113.07L557.66,111.07L555.21,112.28L555.77,113.82L554.61,114.7L556.19,116.18L554.6,119.57L552.93,119.85L552.66,121.74L547.6,121.75L545.27,122.52L544.37,124.88L542.36,125.01L539.94,126.21L538.39,129.52L536.51,134.73L533.1,134.29L529.02,128.86L526.72,128.13L522.13,130.46L518.11,129.01L515.68,125.52L513.75,127.56L512.74,130.9L511.42,132.61L507.32,135.82L505.5,136.92L502.75,136.54L502.22,134.54L500.87,133.18L501.48,130.71L500.66,130.37L501.05,127.75L502.68,125.25L503.32,122.05L503.3,118.17L501.43,117.19Z" stroke-miterlimit="10" stroke="#FFFFFF"/>
<path title="武城县" fill="#D3D3D3" id="path9" d="M166.53,244.69L170.11,245.77L178.12,248.73L179.29,249.44L182.24,253.4L181.25,255.66L181.37,257.82L178.76,258.51L178.64,259.54L179.85,260.65L181.29,260.6L181.2,266.07L181.97,266.05L181.9,270.72L181.1,272.25L179.09,272.74L178.56,275.21L177.68,275.28L177.51,279.15L178.07,279.35L178.05,282.28L180.64,282.42L180.4,289.15L176.32,293.18L170.29,299.68L166.9,302.7L164.93,307.55L165.79,311.09L165.48,313.7L159.26,315.85L156.17,319.96L154.95,320.42L152.17,324.99L151.02,325.27L150.29,326.12L148.46,326.12L147.88,324.51L148.04,321.84L145.8,321.23L143.79,319.54L137.75,318.3L134.16,318.54L129.9,319.2L121.98,322.3L119.73,322L119.44,323.12L115.52,322.71L112.7,327.6L111.13,328.01L109.88,334.26L108.38,334.2L106.67,336.34L106.37,338.81L104.96,341.59L102.88,342.89L99.53,343.32L95.69,342.64L93.63,340.85L91.76,337.76L90.4,334.34L88.6,335.1L82.78,339.56L81.31,341.88L80.7,346.93L79.23,352.07L79.31,355.07L78.79,358.23L77.5,360.89L75.11,362L72.89,361.91L69.4,360.11L64.12,356.07L59.53,355.89L55.78,353.69L56.74,351.54L56.75,348.75L55.78,347.28L57.67,346.06L59.2,342.92L61.09,343.12L61.17,341.15L60.09,340.7L60.72,338.47L62.7,338.28L61.11,337.04L61.95,333.57L61.86,332.03L59.95,327.53L60.25,323.33L62.78,320.6L63.91,321.23L64.28,319.73L65.95,318.78L69.75,314.27L69.93,313.32L68.12,313.1L69.3,311.88L67.66,309.34L68.6,305.19L67.34,304.69L67.88,302.29L68.95,301.64L69.15,302.82L72.23,300.05L72.47,296.55L74.2,298.07L78.55,294.99L80.45,296.43L82.09,296.5L83.32,293.82L83.4,291.81L84.37,292.85L86.91,290.58L87.4,288.27L85.36,286.36L87.26,284.8L88.13,282.59L86.18,280.74L86.68,279.66L88.63,279.53L88.94,276.84L86.71,273.03L86.8,271.73L88.16,270.15L87.32,269.56L90.51,265.14L90.54,263.5L91.44,261.84L90.58,260.53L88.88,261.37L87.93,260.4L87.97,258.9L89.7,258.91L91.41,258.13L91.03,256.96L88.86,254.97L89.63,253.41L90.79,253.5L92.51,252.2L94.91,252.38L98.86,251.72L99.37,250.87L96.15,248.85L100.09,249.31L102.32,248.17L103.35,245.43L105.35,246.75L107.98,246.13L108.09,244.09L109.43,246.34L111.53,246.34L112.55,244.06L111.33,242.52L112.79,242L117.47,242.43L120.06,240.5L121.37,240.27L127.81,242.1L130.78,240.03L133.8,240.35L138.6,239.07L146.39,236.34L151.27,241.68L154.34,243.28L156.75,243.01L159.71,244.17L162.79,244.06Z" stroke-miterlimit="10" stroke="#FFFFFF"/>
<path title="夏津县" fill="#D3D3D3" id="path8" d="M55.78,353.69L59.53,355.89L64.12,356.07L69.4,360.11L72.89,361.91L75.11,362L77.5,360.89L78.79,358.23L79.31,355.07L79.23,352.07L80.7,346.93L81.31,341.88L82.78,339.56L88.6,335.1L90.4,334.34L91.76,337.76L93.63,340.85L95.69,342.64L99.53,343.32L102.88,342.89L104.96,341.59L106.37,338.81L106.67,336.34L108.38,334.2L109.88,334.26L111.13,328.01L112.7,327.6L115.52,322.71L119.44,323.12L119.73,322L121.98,322.3L129.9,319.2L134.16,318.54L137.75,318.3L143.79,319.54L145.8,321.23L148.04,321.84L147.88,324.51L148.46,326.12L150.29,326.12L151.02,325.27L151.4,326.37L153.27,325.5L155.95,326.36L155.98,327.96L156.97,330.69L158.16,332.26L159.97,332.51L159.98,334.76L161.21,335.33L161.24,337.11L169.54,345.26L173.45,347.57L176.02,350.48L176.23,354.15L177.39,354.43L174.98,355.79L172.94,357.9L172.56,357.56L170.9,359.67L165.48,368.11L164.11,369L163.31,370.67L163.25,373.9L162.33,376.29L166.35,376.36L165.89,379.66L164.4,381.47L159.17,383.85L158.54,384.99L159.28,386.69L161.4,387.76L158.84,391.29L159.76,391.84L159.13,393.91L155.73,393.72L155.49,392.88L154.18,394.41L153.14,393.83L152.4,395.26L150.81,395.22L147.58,399.66L147.79,405.32L146.74,409.53L145.05,411.14L140.91,412.63L139.69,413.44L137.68,416.42L132.94,420.95L131.79,418.66L130.01,418.23L128.08,419.69L125.06,420.69L125.33,423.46L120.63,423.48L118.7,421.38L114.5,421.71L111.55,420.81L110.98,419.51L106.68,420.65L106.19,421.97L104.88,422.27L104.36,419.68L103.06,419.09L103.14,421.87L97.72,423.29L91.36,422.42L83.31,422.12L80.44,421.72L79.64,420.05L76.71,419.8L78.02,421.08L72.32,420.08L69.77,418.88L64.67,415.35L61.81,414.84L60.77,412.98L60.76,410.91L59.02,411.39L58.09,415.68L56.79,416.91L55.24,416.06L52.41,415.67L51.67,414.04L53.85,414.35L53.69,412.9L52.5,411.41L51.24,411.36L51.01,412.74L48.33,412.19L47.93,410.52L46.23,410.54L45.88,413.4L43.34,412.43L41.99,414.26L40.42,414.04L40.29,412.46L36.73,412.48L33.83,412.1L31.99,413.19L32.12,415.69L30.37,415.59L30.51,412.91L28.46,412.39L28.31,409.98L25.65,409.91L24.96,407.76L26.05,406.63L24.88,403.96L25.26,402.8L26.93,402.45L28.28,403.72L29.27,401.51L31.27,400.27L32.87,397.84L35.46,391.81L33.94,389.37L32.76,391.34L31.77,391.1L31.66,387.87L33.02,387.54L32.33,386.45L29.8,385.26L29.31,383.35L31.31,381.22L33.77,377.87L35.92,377.98L39.27,375.87L39.29,372.98L40.55,371.87L40.05,369.52L43.9,368.34L45.39,363.85L53.17,357.47L53.56,355.59L52.85,353.58Z" stroke-miterlimit="10" stroke="#FFFFFF"/>
<path title="禹城市" fill="#D3D3D3" id="path11" d="M217.44,490.16L216.62,488.09L214.6,486.2L214.24,485.13L211.61,484.62L211.17,482.53L211.83,480.29L212.74,479.85L213.67,476.42L214.82,476.5L216.55,472.49L217,469.16L216.01,464.63L215.01,462.06L215.33,460.28L214.25,459.62L214.19,457.53L210.8,457.01L210.91,456.05L208.17,455.83L209.64,454.53L209.68,453.37L211,454.08L212.92,453.64L214.63,451.21L216.8,450.8L216.56,452.08L218.05,452.11L217.71,448.86L216,448.87L215.08,447.36L215.27,445.83L216.99,444.53L218.17,440.72L217.27,439.37L217.46,437.32L218.48,435.67L219.37,435.57L219.89,433.89L219.12,431.97L221.57,430.64L224.17,430.43L225.49,426.23L221.14,425.96L220.07,424.4L220.31,422.96L221.28,423.1L220.99,421.62L221.92,420.99L220.67,419.59L221.75,415.5L222.92,414.72L225.46,414.32L227.67,415.07L227.07,416.81L229.62,417.47L229.83,416.37L231.83,415.85L230.97,415.07L229.96,411.58L227.22,411.3L228.66,408.62L228.89,403.48L229.98,403.18L230.13,404.45L232.73,403.7L233.68,402.28L236.35,402.54L236.53,399.91L233.29,398.14L232.63,396.81L230.08,397.7L232.11,392.89L232.71,393.07L232.94,389.45L232.07,389.11L232.22,386.6L232.84,386.09L233.78,380.79L233.5,379.8L235.69,380.34L238.88,378.93L241.19,372.96L240.51,371.69L241.53,370.85L242.59,372.11L246.39,370.62L245.84,369.77L250.68,370.08L252.15,369.18L251.62,367.98L253.74,365.49L253.98,363.99L252.94,363.28L253.77,361.47L253.64,359.9L255.02,361.09L255.71,363.38L257.47,363.9L259.5,361.83L262.18,359.86L267.45,352.44L268.44,353.15L271.9,349.08L274.05,347.48L278.11,341.87L280.4,337.48L279.66,337.11L281.09,333.86L280.83,331.76L279.89,330.16L280.94,330.05L282.87,328.16L285.93,323.01L291.82,323.12L294.65,322.29L299.24,317.44L310.42,304.75L312.11,307.26L312.59,310.78L311.62,312.38L313.91,312.45L314.51,315.06L312.25,321.98L311.07,327.32L310.35,333.68L310.28,338.57L308.97,340.57L309.41,340.96L309.35,345.48L305.98,345.69L304.71,347.35L306.17,347.64L309.65,351.99L311.97,353.72L314.05,356.22L314.29,357.77L313.49,359.33L315.22,359.18L315.9,357.7L318.29,359.01L318.77,360.84L317.86,364.77L316.71,366.81L316.28,369.25L313.27,371.36L312.38,373.58L309.48,376.09L308.61,377.34L308.83,378.96L307.66,379.76L309.69,383.12L308.84,383.46L310.02,385.05L310.23,388.66L313.69,391.65L313.27,394.29L316.13,398L317.72,400.75L319.37,405.99L317.55,406.35L317.02,407.94L316.17,407.68L315.41,410.22L317.42,409.78L317.19,411.39L314.84,413.3L313.62,415.11L312.71,419.24L310.74,423.98L312.11,428.76L314.41,429.21L314.32,430.74L312.25,431.57L312.14,433.05L312.99,435.03L312.76,436.53L311.41,438.77L310.86,442.12L308.88,444.23L303.96,441.46L299.91,437.84L296.56,432.6L294.79,430.46L290.93,432.14L284.04,439.77L282.81,443.77L283.72,446.59L287.85,450.64L288.5,453.37L287.8,455.33L285.29,459.15L280.11,466.27L276.77,469.31L274.39,469.55L272.86,468.76L269.24,465.83L267.03,467.09L264.97,469.36L263.65,474.72L262.92,479.4L260.93,484.58L257.85,488.12L256.9,490.58L258.3,494.18L260.73,497.02L261.72,499.33L261.2,501.11L256.19,502.85L250.28,502.09L247.16,501.37L236.38,496.05L231.83,494.3L221.51,491.47Z" stroke-miterlimit="10" stroke="#FFFFFF"/>
</svg>