<svg xmlns="http://www.w3.org/2000/svg" xmlns:xlink="http://www.w3.org/1999/xlink" width="600" height="600">
<path title="东港区" fill="#D3D3D3" id="path1" d="M249.22,346.28L249.62,345.17L250.81,345.29L253.31,346.37L255.01,339.9L254.26,335.96L254.78,331.08L254.39,329.4L254.2,322.88L251.51,319.01L252.01,316.29L254.09,313.5L257.7,311.12L263.38,309.22L264.42,307.02L264.53,304.75L265.29,303.21L266.3,302.41L269.26,301.89L271.89,300.11L273.31,299.69L276.25,296.7L280.14,294.81L281.53,292.85L283.54,290.79L285.13,291.06L285.78,290.35L288.01,291.69L289.79,294.42L296.38,297.41L300.43,299.49L301.54,300.38L303.09,300.69L307.48,299.94L311.2,297.75L312.35,294.52L317.39,292.67L318.53,290.36L318.33,289.15L316.16,287.58L315.99,285.59L317.18,283.44L318.73,282.94L319.27,283.95L320.69,283.98L322.59,281.74L325.54,280.47L326.15,278.22L327.59,277.98L329.05,280.17L329.16,282.03L328.65,284.46L326.54,285.39L326.04,286.69L328.86,290.43L329.82,289.89L331.1,283.66L331.13,282L330.58,280.46L332.16,279.53L338.8,281.62L344.53,284.46L347.35,284.67L350.86,285.75L353.24,287.08L353.91,288.66L355.47,294.81L356.69,297.12L360.18,299.32L362.81,301.95L363.62,303.81L365.94,307.42L367.83,311.59L369.9,314.19L373.41,314.98L375.76,313.14L377.61,309.54L379.21,309.67L382.81,306.5L385.1,305.41L386.23,305.72L389.11,303.93L389.84,302.52L391.3,301.28L393.5,298.19L393.95,296.78L395.73,293.4L396.78,290.86L399.6,285.51L401.64,283.27L403.08,282.31L405.07,281.93L406.74,283.23L406.95,286.37L406.32,289.35L406.51,293.33L408.29,295.93L411.38,297.42L413.92,297.76L417.49,296.7L419.93,294.9L421.51,294.36L423.82,292.43L425.54,291.46L432.89,286.08L435.32,285.29L439.14,285.38L440.53,286.12L446.86,287.56L449.2,290.18L451.53,293.37L454.73,295.3L456.28,295.34L458.16,293.4L463.85,285.72L464.31,284.31L466.09,281.22L466.13,278.13L467.36,276.34L469.55,274.8L471.85,273.78L474.31,273.49L478.48,274.19L480.19,273.16L481.77,270.06L483.04,269.26L486.69,270.99L495.35,271.76L497.69,273.55L499,276.19L500.17,276.97L502.83,277.43L503.81,279.25L504.8,279.49L508.32,278.12L510,278.1L513.05,277.24L514.79,277.51L516.37,279.03L518.65,278.58L520.22,280.78L523.11,281.58L523.67,281.12L522.53,277.49L524.11,276.84L526.27,276.95L528.29,274.39L531.11,272.17L533.83,273.13L535.27,278.64L536.37,278.76L539.65,277.54L540.61,276.29L542.09,272.49L542.16,269.35L542.54,268.67L544.55,268.37L546.82,271.38L548.1,271.57L551.26,271.3L552.47,273.38L555,276.07L556.37,276.39L560.91,279.57L564.73,279.64L566.31,279.25L568.13,284.04L568.52,287.54L568.12,291.04L566.75,295.52L560.12,311.25L554.76,328.72L552.73,331.8L549.43,334.04L547.84,343.13L544.54,359.67L543.6,362.56L541.54,365.63L535.07,369.53L533.66,371.34L531.2,375.81L528.38,382.89L524.74,392.42L523.56,398.99L523.62,402.17L524.27,405.39L528.27,409.58L529.44,411.24L529.79,413.4L529.32,416.22L528.38,418.81L526.92,420.87L524.45,422.67L516.35,425.76L509.06,427.62L506.62,428.66L504.17,434.78L504.61,439.88L511.14,439.74L512.24,440.85L512.12,442.07L510.81,443.18L506.09,443.37L504.28,444.32L504.04,445.64L503.95,460.29L502.89,461.55L502.06,461.49L501.24,460.13L501.16,458.15L500.3,456.79L498.91,455.97L496.42,456.29L494.86,455.94L493.75,453.21L492.63,447.11L489.25,444.88L485.77,444.87L481.27,446.79L477.56,449.13L472.72,453.13L459.9,467.3L446.53,485.88L442.77,492.8L439.83,500.51L436.75,517.89L428.62,516.58L411.48,516.51L408.38,516.2L408.05,511.82L406.72,505.64L405.23,503.83L396.53,499.68L394.69,499.36L390.79,500.43L388.79,500.06L385.21,494.94L385.27,492.21L386.57,489.2L385.94,486.28L383.95,484.88L384.22,483.93L385.73,482.99L389.13,480.12L389.55,478.15L389.04,475.16L390.24,469.28L389.41,466.12L389.84,463.85L393.35,459.83L396.41,457.68L401.59,458.57L408.04,460.86L417.15,461.12L420.37,460.47L421.1,454.85L420.66,452.16L421.45,450.69L430.55,446.48L431.61,441.8L431.64,430.3L430.28,413.26L430.66,411.24L426.29,411.62L426.35,412.64L424.67,413.09L423.33,412.74L422.28,410.81L420.67,410.69L418.42,411.48L418.57,412.83L417.54,412.11L418.18,411.44L415.64,412.11L414.67,413.95L412.71,414.59L410.75,414.63L409.24,415.34L407.82,417.3L408.43,418.2L406.69,417.95L405.4,418.38L404.16,419.72L402.12,419.2L400.47,419.72L400.25,419.09L398.12,418.82L388.39,421.04L386.09,422.69L385.54,423.71L385.01,422.92L383.62,422.92L381.87,423.71L381.68,422.69L378.63,422.83L377.21,427.29L376.07,428.09L376.18,431.14L375.26,431.84L375.49,433.89L374.53,434.45L372.52,434.54L370.19,435.17L369.04,434.51L368.56,435.1L366.87,433.89L365.79,433.89L366.25,432.61L367.26,432.44L368.02,431.14L365.35,431.1L365.15,430.55L361.3,430.2L358.57,431.56L358.78,433.07L357.45,433.88L357.49,435.06L356.1,435.81L354.94,437.66L354.92,438.81L353.52,439.2L353.02,436.47L349.77,436.92L349.58,433.98L349.12,432.33L347.77,432.53L346.1,433.59L348.06,433.43L348.4,436.86L346.72,437.1L346.08,435.18L345.3,437.12L343.83,434.49L342.96,434.56L342.79,433.41L341.14,433.89L339.57,433.41L338.53,432.29L336.88,432.89L336.84,431.88L334.8,431.55L335.09,430.47L332.97,429.3L331.16,426.3L333.08,424.36L333.93,424.38L333.79,421.8L332.89,421.26L331.87,415.51L332.56,414.38L332.8,412.37L334.9,409.17L335.81,407.22L334.94,407.22L334.53,405.41L333.2,405.44L329.95,404.29L328.53,402.96L329.79,400.56L328.01,397.82L327.76,396.15L323.75,394.01L323.85,386.15L321.64,383.83L322.19,382.17L322.67,378.9L324.53,376.78L324.47,375.42L322.55,373.32L320.89,373.11L316.02,374.52L309.96,373.25L307.74,372.49L304.55,369.45L302.88,369.17L300.21,369.7L298.69,368.9L297.56,366.51L295.95,365.84L291.18,367.85L289.27,369.41L286.67,370.99L285.58,371.17L283.36,370.07L283.93,366.92L283.04,363.39L280.37,359.33L276.46,357.12L273.9,356.98L272.9,359.36L270.06,358.11L266.67,355.56L264.92,356.16L261.44,363.19L259.19,362.34L255.58,360.05L254.24,357.51L252.15,356.5L250.46,352.53L250.93,350.52L250.35,347.85Z" stroke-miterlimit="10" stroke="#FFFFFF"/>
<path title="莒县" fill="#D3D3D3" id="path4" d="M272.19,49.31L269.62,51.11L264.64,51.39L263.11,52.29L261.68,50.57L260.55,50.65L259.44,52.58L259.43,53.94L260.85,58.3L260.81,64.83L259.64,68.98L255.91,72.2L255.72,73.06L259.28,77.7L264.26,81.96L264.65,83.71L262.94,87.53L261.98,87.91L261.1,86.46L259.88,86.66L259.69,88.92L258.36,89.89L256.1,89.59L254.98,90.9L253.38,88.77L252.13,88.06L250.02,85.8L247.23,85.79L247.03,87.72L247.56,92.1L247.59,97.01L248.99,101.11L250.54,103.47L251.93,109.36L250.77,112.91L248.09,115.75L246.74,116.1L241.61,116.39L240.46,117.05L238.11,119.71L236.65,120.72L233.17,121.32L227.85,118.78L224.32,118.83L220.9,120.19L218.08,119.15L215.73,115.54L214.33,114.38L212.48,114.06L210.76,114.89L205.84,118.95L201.16,125.29L199.51,129.97L199.03,132.52L196.38,137.05L195.02,141.58L194.66,145.43L195.16,149.01L195.1,151.85L195.81,156.39L197.04,158.58L199.04,161.05L201.44,161.95L203.69,163.7L208.06,165.34L209.48,165.51L210.91,164.82L214.68,161.46L219.84,159.4L223.7,159.75L225.38,160.4L229.66,163.76L231.99,166.57L234.23,170.08L237.07,171.69L240.18,172.63L244.4,173.24L249.28,173.64L254.13,174.38L254.97,174.72L256.09,176.78L255.44,180.5L256.93,182.25L261.18,186.44L263.31,189.15L268.91,197.61L269.07,200.84L270.14,203.38L271.26,204.76L274.22,206.82L276.37,209.33L276.79,210.7L277.74,211.46L280.47,211.56L281.62,213.04L281.07,214.55L282.07,215.68L287.12,217.09L288.35,218.2L288.72,219.64L288.52,223.63L287.98,224.87L283.49,228.72L283.19,229.51L285.34,232.16L288.74,234.09L287.32,237.11L282.45,240L281.37,241.68L280.64,245.32L279.92,247.32L276.5,252.13L276.22,252.97L277.06,255.99L277.96,257.4L277.85,258.49L274.25,258.91L271.84,258.87L268.54,257.99L266.38,258.37L263.39,260.3L260.52,264.35L258.46,268.02L257.69,271.13L257.5,273.12L258.08,279.54L259.95,284.97L266.3,302.41L265.29,303.21L264.53,304.75L264.42,307.02L263.38,309.22L257.7,311.12L254.09,313.5L252.01,316.29L251.51,319.01L254.2,322.88L254.39,329.4L254.78,331.08L254.26,335.96L255.01,339.9L253.31,346.37L250.81,345.29L249.62,345.17L249.22,346.28L246.1,347.45L245.3,347.07L244.48,348.24L243.85,347.91L243.09,352.46L242,353.43L240.92,353.39L240.12,354.43L236.94,354.26L234.85,354.83L234.79,353.73L233.74,354.74L232.23,354.7L231.31,353.61L231.23,352.07L229.39,352.65L228.91,351.03L225.24,350L224.59,350.74L226.14,351.17L225.8,352.84L224.12,354.06L223.02,353.66L223.01,355.22L222.14,356.9L222.79,357.92L224.6,357.92L224.09,359.94L225.11,360.29L223.64,360.97L221.59,362.72L222.13,364.13L221.62,365.1L220.68,364.98L217.53,369.41L218,371.33L216.2,372.95L216.43,375.31L216.11,376.52L214.48,376.69L213.74,378.15L212.13,378.57L212.76,382.7L211.57,385.93L210.47,385.62L209.4,386.35L208.68,385.35L208.62,386.82L207.49,387.19L207.65,388.73L205.04,387.09L202.29,389.15L198.04,390.9L198.83,392.14L197.57,395.1L195.7,394.35L194.86,393.02L194.68,390.57L192.95,389.7L191.61,386.24L190.63,386.57L190.66,384.6L187.63,387.06L187.85,388.19L185.9,389.99L184.53,392.07L184.69,393.04L180.89,394.14L178.98,393.71L179.16,394.79L175.99,394.97L174.26,397.04L173.95,398.4L173.22,397.73L171.58,399.74L170.74,399.55L170.25,400.83L167.84,400.81L165.92,400.31L164.76,401.6L162.18,407.11L160.69,408.7L156.37,411.67L154.47,413.99L152.43,414.55L148.6,413.35L145.55,413.73L143.51,413.66L140.07,412.97L136.04,413.51L132.11,415.08L130.37,415.37L123.6,414.36L122.62,413.9L119.73,411.15L118.31,411.33L118.05,414.41L117.61,415.32L115.96,416.24L111.85,416.99L108.03,418.82L105.52,419.13L101.85,421.39L101.09,421.5L98.89,420.24L94.94,416.99L93.24,415.97L92.06,417.19L88.54,418.89L87.5,419.01L87.41,417.47L86.03,415.13L82.74,413.38L80.62,410.92L79.63,408.95L78.1,408.65L74.3,412.76L72.58,415.85L70.02,416.27L67.35,414.43L63.14,414.12L57.14,412.82L53.84,413.17L48.84,414.96L46.94,415.99L44.19,415.29L43.47,414.2L43.61,407.21L43.4,404.73L42.31,403.56L39.51,403.38L33.86,402.18L33.31,397.13L32.58,392.53L31.64,390.59L31.48,387.48L34.47,385.54L38.24,383.82L40.37,382.17L42.78,381.95L44.67,382.62L48.76,383.44L50.44,383.07L52.07,380.91L52,379.76L50.6,378.39L47.2,377.34L46.87,376.22L46.96,371.47L46.62,369.49L45.13,368L45.34,365.94L47.36,364.25L51.2,364.65L53.82,364.13L54.98,363.49L56.47,360.2L58.88,358.77L62.06,358.39L63.89,359.54L65.6,361.59L68.62,361.67L70.24,361.29L72.04,360.08L75.36,359.63L77.96,359.88L79.7,361.79L81.59,362.19L85.79,360.77L86.65,358.82L93.23,353.91L95.07,350.69L98.52,343.2L95.86,340.4L93.82,336.69L91.13,335.39L88.45,332.81L84.12,329.82L80.61,326.16L81.01,324.07L80.55,319.88L79.45,316.85L80.95,314.79L82.66,313.47L85.86,310.43L87.87,307.92L91.41,305.1L93.13,303.15L93.85,301.62L92.88,297.8L93.3,295.56L94.72,295.12L95.68,293.72L98.76,291.35L101.2,286.74L101.65,284.08L100.74,280.57L99.25,276.67L99.13,272.92L100.01,270.6L101.2,257.11L102.73,253.69L107.12,247.53L110,244.72L110.73,243.46L114.77,239.4L116.53,236.16L120.58,231.39L124.34,226.62L126.27,221.95L127.28,221.13L127.18,218.02L127.74,214.8L128.63,212.1L129.72,210.91L130.62,208.36L132.8,204.99L133.84,201.88L134.56,200.75L135.05,197.62L134.83,194.34L133.73,192.75L131.05,191.85L128.22,191.79L126.8,192.33L119.98,193.48L110.04,194.44L106.09,193.52L103.13,192.33L99.16,192.41L92.36,191.31L88.41,189.82L87.3,188.52L86.16,188.22L84.77,186.91L83.25,184.33L82.86,182.47L84.42,174.22L84.49,170.09L82.29,165.64L81.37,161.35L80.74,156.21L81.5,153.79L83.54,151.11L85.42,149.29L89.63,143.93L92.42,138.98L93.61,135.72L93.12,131.43L92.46,128.85L92.34,126.71L92.96,124.15L94.25,123.18L95.29,120.91L97.75,118.52L99.6,117.98L106.28,117.66L107.86,116.83L108.6,115.13L109.85,108.45L110.05,105.46L109.43,100.3L109.6,98.74L110.5,96.19L111.65,94.39L112.42,91.79L114.04,88.54L114.07,87.25L115.76,87.71L120.15,88.22L120.61,86.8L119.64,84.79L118.99,82.06L118.77,78.05L119.1,75.49L120.12,74.08L121.27,73.68L128.08,73.52L133.07,72.33L134.51,71.36L134.56,68.36L133.61,65.92L133.68,61.49L134.88,58.23L138.61,55.87L141.6,55.5L143.43,55.97L150.37,55.79L154.99,54.79L168.02,52.34L173.74,50.54L178.52,46.82L179.69,45.13L180.73,42.29L180.66,38.86L179.28,36.41L177.34,34.08L175.09,32.75L172.86,30.42L171.86,28.73L174.98,24.01L176.81,22.93L180.03,19.94L184.45,19.67L193.85,19.42L202.83,19.29L210.7,18.69L215.75,16.99L219.82,15.13L223.31,13.09L226.42,10.04L231.23,0.79L231.94,0L234.71,2.6L237.27,2.44L238.78,1.93L243.96,5.17L244.18,7.38L241.34,8.96L239.26,13.64L239.54,15.58L240.5,16.13L243.52,16.25L244.42,16.94L245.03,21.7L240.33,26.48L240.49,27.93L241.78,31.38L242.68,37.17L243.07,38L245.21,38.62L246.51,38.54L252.66,37.21L258.68,36.22L261.73,36.73L262.96,37.52L264.19,39.73L264.84,41.94L265.09,45.25L266.04,46.39L269.87,47.93Z" stroke-miterlimit="10" stroke="#FFFFFF"/>
<path title="岚山区" fill="#D3D3D3" id="path2" d="M167.84,400.81L170.25,400.83L170.74,399.55L171.58,399.74L173.22,397.73L173.95,398.4L174.26,397.04L175.99,394.97L179.16,394.79L178.98,393.71L180.89,394.14L184.69,393.04L184.53,392.07L185.9,389.99L187.85,388.19L187.63,387.06L190.66,384.6L190.63,386.57L191.61,386.24L192.95,389.7L194.68,390.57L194.86,393.02L195.7,394.35L197.57,395.1L198.83,392.14L198.04,390.9L202.29,389.15L205.04,387.09L207.65,388.73L207.49,387.19L208.62,386.82L208.68,385.35L209.4,386.35L210.47,385.62L211.57,385.93L212.76,382.7L212.13,378.57L213.74,378.15L214.48,376.69L216.11,376.52L216.43,375.31L216.2,372.95L218,371.33L217.53,369.41L220.68,364.98L221.62,365.1L222.13,364.13L221.59,362.72L223.64,360.97L225.11,360.29L224.09,359.94L224.6,357.92L222.79,357.92L222.14,356.9L223.01,355.22L223.02,353.66L224.12,354.06L225.8,352.84L226.14,351.17L224.59,350.74L225.24,350L228.91,351.03L229.39,352.65L231.23,352.07L231.31,353.61L232.23,354.7L233.74,354.74L234.79,353.73L234.85,354.83L236.94,354.26L240.12,354.43L240.92,353.39L242,353.43L243.09,352.46L243.85,347.91L244.48,348.24L245.3,347.07L246.1,347.45L249.22,346.28L250.35,347.85L250.93,350.52L250.46,352.53L252.15,356.5L254.24,357.51L255.58,360.05L259.19,362.34L261.44,363.19L264.92,356.16L266.67,355.56L270.06,358.11L272.9,359.36L273.9,356.98L276.46,357.12L280.37,359.33L283.04,363.39L283.93,366.92L283.36,370.07L285.58,371.17L286.67,370.99L289.27,369.41L291.18,367.85L295.95,365.84L297.56,366.51L298.69,368.9L300.21,369.7L302.88,369.17L304.55,369.45L307.74,372.49L309.96,373.25L316.02,374.52L320.89,373.11L322.55,373.32L324.47,375.42L324.53,376.78L322.67,378.9L322.19,382.17L321.64,383.83L323.85,386.15L323.75,394.01L327.76,396.15L328.01,397.82L329.79,400.56L328.53,402.96L329.95,404.29L333.2,405.44L334.53,405.41L334.94,407.22L335.81,407.22L334.9,409.17L332.8,412.37L332.56,414.38L331.87,415.51L332.89,421.26L333.79,421.8L333.93,424.38L333.08,424.36L331.16,426.3L332.97,429.3L335.09,430.47L334.8,431.55L336.84,431.88L336.88,432.89L338.53,432.29L339.57,433.41L341.14,433.89L342.79,433.41L342.96,434.56L343.83,434.49L345.3,437.12L346.08,435.18L346.72,437.1L348.4,436.86L348.06,433.43L346.1,433.59L347.77,432.53L349.12,432.33L349.58,433.98L349.77,436.92L353.02,436.47L353.52,439.2L354.92,438.81L354.94,437.66L356.1,435.81L357.49,435.06L357.45,433.88L358.78,433.07L358.57,431.56L361.3,430.2L365.15,430.55L365.35,431.1L368.02,431.14L367.26,432.44L366.25,432.61L365.79,433.89L366.87,433.89L368.56,435.1L369.04,434.51L370.19,435.17L372.52,434.54L374.53,434.45L375.49,433.89L375.26,431.84L376.18,431.14L376.07,428.09L377.21,427.29L378.63,422.83L381.68,422.69L381.87,423.71L383.62,422.92L385.01,422.92L385.54,423.71L386.09,422.69L388.39,421.04L398.12,418.82L400.25,419.09L400.47,419.72L402.12,419.2L404.16,419.72L405.4,418.38L406.69,417.95L408.43,418.2L407.82,417.3L409.24,415.34L410.75,414.63L412.71,414.59L414.67,413.95L415.64,412.11L418.18,411.44L417.54,412.11L418.57,412.83L418.42,411.48L420.67,410.69L422.28,410.81L423.33,412.74L424.67,413.09L426.35,412.64L426.29,411.62L430.66,411.24L430.28,413.26L431.64,430.3L431.61,441.8L430.55,446.48L421.45,450.69L420.66,452.16L421.1,454.85L420.37,460.47L417.15,461.12L408.04,460.86L401.59,458.57L396.41,457.68L393.35,459.83L389.84,463.85L389.41,466.12L390.24,469.28L389.04,475.16L389.55,478.15L389.13,480.12L385.73,482.99L384.22,483.93L383.95,484.88L385.94,486.28L386.57,489.2L385.27,492.21L385.21,494.94L388.79,500.06L390.79,500.43L394.69,499.36L396.53,499.68L405.23,503.83L406.72,505.64L408.05,511.82L408.38,516.2L411.48,516.51L428.62,516.58L436.75,517.89L433.83,534.44L432.96,540.45L442.52,540.1L442.69,545.83L432.14,546.04L430.88,554.82L431.76,557.14L432.98,558.46L441.19,563.07L443.68,564.25L448.38,568.63L450.49,574.67L449.94,576.16L447.55,576.62L440.62,575.06L438.1,575.61L435.77,577.48L433.42,585.07L432.37,586.81L427.35,588.51L425.85,590.81L421.05,594.82L422.67,596.99L424.24,600L412.69,598.43L412.38,595.22L410.97,593.98L409.18,591.62L405.77,591.77L386.66,596.06L384.62,585.91L383.5,583.29L381.37,581.7L380.64,579.56L380.45,577.55L379.45,575.38L376.99,572.35L370.9,572.2L369.75,571.59L367.22,571.1L365.4,569.63L359.98,567.74L358.38,566.58L357.96,567.43L353.83,567.56L352.88,568.18L352.1,570.23L351.09,571.6L348.19,572.34L346.91,573.02L346.52,574.87L345.29,576.37L343.73,577.25L340.22,577.25L338.49,576.7L334.92,574.99L332.14,568.83L331.61,563.26L329.99,560.24L328.24,558.19L325.7,557.33L322.44,557.7L320.29,557.63L317.79,557.04L315.26,555.08L314.62,552.35L314.84,548.32L315.87,545.86L319.75,543.65L318.79,543.31L316.46,540.96L315.58,540.68L314.08,538.24L313.27,534.87L311.77,530.86L310.51,529.77L309.26,527.59L307.67,526.64L305.42,526.77L302.99,527.74L300.71,525.17L300.71,522.58L301.18,519.43L302.55,518.57L307.51,518L311.61,517.91L313.78,517.47L315.4,516.38L318.27,512.42L319.67,508L320.36,503.76L320.47,501.3L322.17,499.76L324.29,494.19L324.2,487.72L325.1,485.12L326.99,484.1L327.27,482.12L325.82,480.09L324.96,476.97L324.37,471.98L322.98,465.95L321.89,464.61L319.47,464.5L315.18,464.73L313.4,464.08L311.09,462.05L312.74,459.13L311.93,457.23L309.4,454.67L307.2,451.7L304.66,449.61L303.74,447.95L303.69,445.41L307.17,441.75L307.34,438.48L306.31,436.73L299.88,436.29L292.33,438L285.73,439.35L280.94,441.68L279.73,441.17L279.21,439.73L278.95,436.58L276.85,434.21L276.43,433.22L276.27,427.4L275.6,424.76L271.99,422.74L271.71,421.89L272.05,419.28L271.66,418.11L270.54,417.43L267.74,418.67L265.61,418.38L257.11,414.11L256.97,412.95L254.92,410.68L251.61,408.67L248.36,407.21L244.72,404.58L242.2,403.49L239.42,403.06L232.28,403.29L227.91,405.81L224.6,407.46L223.81,409.73L226.64,416.88L227.24,420.79L226.59,423.98L225.83,425.45L222.69,428.1L218.85,433.46L216.34,435.56L213.2,437.18L211.46,437.04L209.56,436.09L205.83,435.45L203.01,436.2L199.85,439.02L197.39,438.96L194.93,436.56L193.76,434.06L193.81,430.05L193.11,428.37L187.46,425.16L184.47,423.98L176.76,422.89L170.54,419.64L168.29,418.16L167.43,416.74L167.71,413.66L168.97,410.43L169,403.59Z" stroke-miterlimit="10" stroke="#FFFFFF"/>
<path title="五莲县" fill="#D3D3D3" id="path3" d="M272.19,49.31L274.26,48.96L277.28,46.89L278.73,46.82L282.42,47.51L285.49,47.23L293.87,47.17L295.59,46.54L300.22,43.51L303.46,43.1L309.72,41.87L310.65,45.26L315.81,42.95L318.38,42.3L322.5,41.97L324.16,43.87L324.51,47.45L324.4,52.45L323.97,58.87L324.24,60.01L323.28,64.7L323.36,67.56L322.89,69.89L323.64,71.03L324.95,74.54L324.14,75.42L319.98,75.04L317.99,75.52L308.98,82.81L305.4,83.46L301,88.15L300.27,89.3L300.82,90.6L302.91,91.44L307.46,93.79L311.23,96.85L312.24,97.13L313.1,96.22L313.38,94.75L313.33,90.56L314.07,89.67L317.73,89.44L318.9,89.93L321.18,92.58L324.04,94.85L328.55,99.01L331.3,100.02L341.91,98.97L345.51,97.91L351.59,96.72L353.68,96.01L355.7,93.6L359,91.96L363.77,88.5L367.98,84.45L369.71,83.49L371.78,81.68L374.62,79.89L378.06,78.53L380.89,79.16L382.14,80.61L382.79,83.34L382.25,88.33L382.76,90.56L384.62,92.31L387.25,93.31L391.78,93.97L395.4,93.48L398.46,92.02L399.65,92.14L401.35,90.17L404.78,89.68L406.66,90.1L412.44,94.58L414.65,96.85L416.11,101.02L417.07,102.76L419.22,107.94L419.72,110.81L418.43,114.1L417.03,116.74L413.7,118.81L413.1,120.37L415.12,122.17L416.09,124.8L418.69,127.41L420.19,129.76L420.05,133.78L420.87,134.52L421.06,138.37L420.12,142.35L420.26,148.2L419.76,151.61L419.87,152.89L419.2,156.59L417.64,162.69L417.73,164.97L418.4,166.56L421.95,166.63L424.83,164.98L429.31,161.66L430.36,159.69L432.38,157.72L432.98,156.61L435.29,154.96L436.75,153.42L439.77,151.78L442.22,149.85L444.95,148.35L448.11,147.14L452.51,146.4L453.78,146.71L456.49,145.93L460.08,143.74L462.22,142.8L465.19,142.74L466.75,143.07L469.4,144.42L474.26,147.98L475.67,148.59L478.98,151.68L481.17,154.74L482.51,157.48L483.16,159.79L482.84,161.34L479.82,163.68L477.78,166.05L477.12,170.02L478.54,176.64L480.55,178.26L482.58,178.6L486.6,178.05L487.7,178.43L489.59,180.52L490.27,183L491.57,184.82L496.83,189.57L500.06,191.2L498.29,192.27L496.49,190.77L494.88,192.61L494.9,194.17L493.54,195.52L493.82,196.87L495.18,200.08L495.23,201.55L494.32,203.35L495.07,204.34L494.6,205.8L494.36,208.95L493.87,210.15L492.03,211.79L492.59,212.86L492.34,214.38L493.34,214.84L494.19,219.53L496.62,222.03L498.36,224.69L498.8,226.5L498.05,233.35L498.38,239.2L496.9,242.5L497.85,244.72L496.49,246.15L496.22,249.77L494.73,249.31L494.58,250.8L496.76,251.82L496.89,252.57L493.92,255.33L493.51,256.6L493.7,263.03L495.93,265.86L499.94,268.03L503.14,268.86L503.47,269.42L504.09,273.73L503.92,275.42L502.83,277.43L500.17,276.97L499,276.19L497.69,273.55L495.35,271.76L486.69,270.99L483.04,269.26L481.77,270.06L480.19,273.16L478.48,274.19L474.31,273.49L471.85,273.78L469.55,274.8L467.36,276.34L466.13,278.13L466.09,281.22L464.31,284.31L463.85,285.72L458.16,293.4L456.28,295.34L454.73,295.3L451.53,293.37L449.2,290.18L446.86,287.56L440.53,286.12L439.14,285.38L435.32,285.29L432.89,286.08L425.54,291.46L423.82,292.43L421.51,294.36L419.93,294.9L417.49,296.7L413.92,297.76L411.38,297.42L408.29,295.93L406.51,293.33L406.32,289.35L406.95,286.37L406.74,283.23L405.07,281.93L403.08,282.31L401.64,283.27L399.6,285.51L396.78,290.86L395.73,293.4L393.95,296.78L393.5,298.19L391.3,301.28L389.84,302.52L389.11,303.93L386.23,305.72L385.1,305.41L382.81,306.5L379.21,309.67L377.61,309.54L375.76,313.14L373.41,314.98L369.9,314.19L367.83,311.59L365.94,307.42L363.62,303.81L362.81,301.95L360.18,299.32L356.69,297.12L355.47,294.81L353.91,288.66L353.24,287.08L350.86,285.75L347.35,284.67L344.53,284.46L338.8,281.62L332.16,279.53L330.58,280.46L331.13,282L331.1,283.66L329.82,289.89L328.86,290.43L326.04,286.69L326.54,285.39L328.65,284.46L329.16,282.03L329.05,280.17L327.59,277.98L326.15,278.22L325.54,280.47L322.59,281.74L320.69,283.98L319.27,283.95L318.73,282.94L317.18,283.44L315.99,285.59L316.16,287.58L318.33,289.15L318.53,290.36L317.39,292.67L312.35,294.52L311.2,297.75L307.48,299.94L303.09,300.69L301.54,300.38L300.43,299.49L296.38,297.41L289.79,294.42L288.01,291.69L285.78,290.35L285.13,291.06L283.54,290.79L281.53,292.85L280.14,294.81L276.25,296.7L273.31,299.69L271.89,300.11L269.26,301.89L266.3,302.41L259.95,284.97L258.08,279.54L257.5,273.12L257.69,271.13L258.46,268.02L260.52,264.35L263.39,260.3L266.38,258.37L268.54,257.99L271.84,258.87L274.25,258.91L277.85,258.49L277.96,257.4L277.06,255.99L276.22,252.97L276.5,252.13L279.92,247.32L280.64,245.32L281.37,241.68L282.45,240L287.32,237.11L288.74,234.09L285.34,232.16L283.19,229.51L283.49,228.72L287.98,224.87L288.52,223.63L288.72,219.64L288.35,218.2L287.12,217.09L282.07,215.68L281.07,214.55L281.62,213.04L280.47,211.56L277.74,211.46L276.79,210.7L276.37,209.33L274.22,206.82L271.26,204.76L270.14,203.38L269.07,200.84L268.91,197.61L263.31,189.15L261.18,186.44L256.93,182.25L255.44,180.5L256.09,176.78L254.97,174.72L254.13,174.38L249.28,173.64L244.4,173.24L240.18,172.63L237.07,171.69L234.23,170.08L231.99,166.57L229.66,163.76L225.38,160.4L223.7,159.75L219.84,159.4L214.68,161.46L210.91,164.82L209.48,165.51L208.06,165.34L203.69,163.7L201.44,161.95L199.04,161.05L197.04,158.58L195.81,156.39L195.1,151.85L195.16,149.01L194.66,145.43L195.02,141.58L196.38,137.05L199.03,132.52L199.51,129.97L201.16,125.29L205.84,118.95L210.76,114.89L212.48,114.06L214.33,114.38L215.73,115.54L218.08,119.15L220.9,120.19L224.32,118.83L227.85,118.78L233.17,121.32L236.65,120.72L238.11,119.71L240.46,117.05L241.61,116.39L246.74,116.1L248.09,115.75L250.77,112.91L251.93,109.36L250.54,103.47L248.99,101.11L247.59,97.01L247.56,92.1L247.03,87.72L247.23,85.79L250.02,85.8L252.13,88.06L253.38,88.77L254.98,90.9L256.1,89.59L258.36,89.89L259.69,88.92L259.88,86.66L261.1,86.46L261.98,87.91L262.94,87.53L264.65,83.71L264.26,81.96L259.28,77.7L255.72,73.06L255.91,72.2L259.64,68.98L260.81,64.83L260.85,58.3L259.43,53.94L259.44,52.58L260.55,50.65L261.68,50.57L263.11,52.29L264.64,51.39L269.62,51.11Z" stroke-miterlimit="10" stroke="#FFFFFF"/>
</svg>