<svg xmlns="http://www.w3.org/2000/svg" xmlns:xlink="http://www.w3.org/1999/xlink" width="600" height="600">
<path title="山亭区" fill="#D3D3D3" id="path5" d="M527.85,246.64L526.12,248.18L523.26,249.15L519.2,251.7L512.02,256.84L504.62,261.26L494.35,260.79L491.83,261.32L489.9,264.5L489.21,269.25L487.09,272.45L485.74,277.49L485.17,281.52L484.03,282.24L481.16,282.94L477.08,282.51L464.33,279.11L461.32,274.96L458.25,267.11L455.4,262.7L452.65,260.7L445.59,263.07L438.22,264.51L433.74,265.87L430.58,265.23L426.9,262.56L424.87,260.19L423.08,259.03L418.86,259.12L412.17,261.47L406.76,262.24L401.38,265.11L398.05,266.56L396.64,267.79L391.79,270.22L391.12,273.32L387.5,274.97L384.15,269L382.28,267.95L380.99,268.04L378.82,269.34L377.78,271.93L376.68,276.85L374.24,281.66L369.86,281.63L365.5,281.95L364.6,282.46L364.16,285.3L362.17,287.62L359.8,287.93L356.55,287.42L354.2,288.97L349.48,293.66L347.92,294.84L346.4,295.12L343.13,294.87L339.47,295.67L335.92,294.88L335.18,291.64L332.71,292.36L330.38,292.13L329.84,288.74L327.02,284.96L325.5,281.44L325.01,278.62L325.16,273.53L326.52,270.09L326.63,266.41L327.24,264.98L329.56,264.06L338.95,263.46L341.53,248.76L341.79,245.44L343.29,239.92L344.53,236.84L346.17,234.55L351.03,231.6L352.06,229.99L352.13,226.44L348.86,224.1L349.55,221.31L348.14,214.16L348.39,212.56L347.59,210.6L345.24,209.31L344.34,207.26L340.07,201.45L336.86,195.3L336.12,191.86L334.22,190.97L333.54,189.73L332.84,186.51L332.15,185.52L330.75,185.52L327.42,187.14L317.82,188.96L313.49,189.27L308.94,190.04L303.78,190.06L301.13,187.28L298.74,184.1L295.13,183.3L293.44,183.29L289.68,185.38L287.08,186.05L282.83,184.15L278.49,180.64L277.42,178.78L277.17,173.86L277.55,169L277.29,164.66L275.83,160.91L275.74,158.59L274.68,157.74L274.74,155.65L273.15,153.76L269.49,152.56L267.12,150.15L266.02,147.88L265.73,144.83L266.53,143.08L268.08,141.54L267.76,139.86L262.82,140.59L262.98,137.26L259.24,136.77L258.47,135.75L258.25,133.06L258.58,130.79L259.73,127.67L263.03,126.59L267.04,128.29L270.45,128.6L274.01,128.44L276.1,127.22L279.6,126.03L281.89,124.23L284.26,123.16L288.41,119.44L293.64,115.83L300.71,113.01L302.73,107.57L297.3,107.48L296.07,100.26L293.23,97.58L289.25,96.31L286.7,97.01L278.75,96.7L278.63,92.49L281.54,89.17L283.21,86.66L284.87,80.71L286.26,79.55L290.68,77.51L295.49,74.4L300.13,67.6L300.47,66.28L299.25,59.84L300.32,55.03L300.54,52.59L299.54,48.45L297.95,44.9L295.61,35.75L294.4,29.86L293.86,24.13L295.67,21.95L296.26,17.61L296.24,14.16L295.57,12.73L293.03,10.89L292.01,6.42L292.38,5.37L294.93,4.01L296.52,2.53L297.83,0L302.46,0.11L307.05,1.73L310.17,2.2L311.99,3.04L314.74,3.6L316.34,2.29L321.61,1.33L325.54,3.99L327.1,4.57L329.44,4.43L332.62,4.79L335,6.01L336.97,8.23L340.04,9.14L342.31,9.05L344.53,9.73L345.83,11.09L346.87,13.23L347.31,17.23L346.83,21.27L348.23,25.9L350.94,28.71L352.79,31.57L355.79,32.46L355.47,34.3L355.97,36.87L359.58,39.96L359.95,41.05L362.8,42.1L365.76,42.14L367.39,43.06L368.83,46.87L369.61,47.96L373.3,51.55L373.86,52.6L373.67,55.37L371.6,59.49L371.6,60.95L372.49,62.04L379.03,64.64L382.65,64.47L384.79,64.89L387.34,66.62L390.96,68.4L394.98,73.27L396.38,77L399.1,80.23L406.16,85.09L411.09,85.9L412.65,85.68L416.49,83.96L417.43,83.95L417.73,91.66L418.12,95.34L418.69,96.5L421.14,98.48L422.16,101.45L423.95,104.52L428.68,110.23L429.82,111.18L434.18,111.49L436.13,109.69L439.48,107.41L442.39,106.54L445.42,107.59L448.62,107.68L450.06,109.39L450.91,113.38L450.83,115.51L451.47,117.32L454.24,117.64L455.94,119.69L456.49,123.04L457.72,125.03L457.94,126.89L459.57,129.57L461.86,130.61L465.01,134.74L465.94,136.92L472.53,145.31L473.77,146.11L479.82,152.25L482.37,154.51L485.56,156.46L488.41,159.53L491.98,170.21L494.42,171.94L498.07,175.17L503.18,178.56L509.09,180.52L512.75,182.31L517.38,185.55L519.36,186.26L520.89,187.82L520.87,189.58L519.06,196.16L518.56,198.73L519.17,202.59L520.28,203.4L523.81,203.42L529.26,201.84L534.53,202.03L537.41,202.38L540.29,204.15L542.22,208.5L541.61,211.69L538.44,215.18L532.71,218.81L531.95,223.63L532.36,231.41L531.64,234.88L531.88,238.72L528.83,243.46Z" stroke-miterlimit="10" stroke="#FFFFFF"/>
<path title="市中区" fill="#D3D3D3" id="path1" d="M557.87,332.83L554.81,336.79L552.6,338.3L546.83,344.15L545.41,344.87L543.99,344.68L542.51,343.08L538.61,342.49L524.33,342.89L523.86,345.2L521.35,343.61L518.67,343.63L514.92,342.46L512.51,342.14L509.06,343.75L507.88,347.43L507.55,351.88L508.6,355.51L507.98,358.65L504.7,362.95L502.71,362.23L501.26,360.44L498.62,358.48L495.63,358.42L493.8,360.48L493.19,362.71L493.24,365.46L491.57,367.46L486.94,370.45L479.31,380.58L475.62,384.08L466.49,384.06L461.57,381.08L459.07,378.3L458.78,375.45L459.03,372.03L459.86,370.06L459.24,367.49L459.71,366.47L458.43,366.06L452.03,366.5L449.58,365.94L448.42,365.14L447.75,363.32L446.43,361.68L445.06,361.53L441.85,362.36L440.65,361.68L436.72,361.38L433.86,360.83L433.92,367.12L433.5,368.91L428.24,373.77L426.72,377.66L424.88,379.61L419.38,379.5L417.43,380.08L414.32,378.5L411.88,381.66L409.99,381.31L408.46,382.96L406.64,383.34L402.85,383.15L401.19,382.63L396.62,380.12L394.44,378L392.51,378.09L389.75,380.33L387.48,376.79L384.77,376.09L385.94,345.19L387.01,343.82L396.19,338.57L396.49,337.82L396.62,331.37L398.14,327.28L398.36,325.51L396.49,323.21L394.61,321.73L389.48,315.23L388.65,310.28L391.27,304.55L394.88,300.24L395.52,298.77L393.41,292.96L391.81,290.3L390.95,286.72L390.97,281.51L390.07,279.31L387.5,274.97L391.12,273.32L391.79,270.22L396.64,267.79L398.05,266.56L401.38,265.11L406.76,262.24L412.17,261.47L418.86,259.12L423.08,259.03L424.87,260.19L426.9,262.56L430.58,265.23L433.74,265.87L438.22,264.51L445.59,263.07L452.65,260.7L455.4,262.7L458.25,267.11L461.32,274.96L464.33,279.11L477.08,282.51L481.16,282.94L484.03,282.24L485.17,281.52L485.74,277.49L487.09,272.45L489.21,269.25L489.9,264.5L491.83,261.32L494.35,260.79L504.62,261.26L512.02,256.84L519.2,251.7L523.26,249.15L526.12,248.18L527.85,246.64L528.7,249.57L530.61,252.57L530.58,253.57L528.59,256.65L525.09,260.9L524.94,262.44L525.83,265.79L524.98,268.53L523.53,269.86L520.27,270.26L519.1,270.84L517.33,272.92L515.67,275.58L515.35,277.65L515.78,280.34L517.53,282.83L518.77,283.06L519.51,284.71L519.21,289.27L520.35,290.65L524.7,294.05L525.35,296.94L533.08,309.81L534.35,310.76L538.21,311.34L540.96,312.38L543.61,315.77L544.95,320.47L546.98,323.93L549.8,326.3L553.63,330.7Z" stroke-miterlimit="10" stroke="#FFFFFF"/>
<path title="台儿庄区" fill="#D3D3D3" id="path4" d="M570.3,467.46L570.01,469.55L571.25,472.04L571.69,477.25L570.67,482.18L570.3,485.69L573.1,488.31L570.3,504.17L570.17,510.08L569.05,513.89L569.04,515.24L570.1,519.03L570.27,525.31L570.97,528.42L570.85,531.51L572.14,533.07L572.22,535.03L570.35,537.84L570.23,539.36L571.66,542.11L570.98,545.11L573.5,548.61L572.85,550.97L573.39,552.65L573.09,555.76L574.4,557.62L574.91,560.03L570.48,559.14L568.52,559.92L563.98,555.74L559.03,552.86L544.52,549.85L534.91,547.23L527.75,544.51L516.27,541.36L511.03,540.76L507.77,540.15L507,548.3L506.35,552.51L503.06,558.14L501.41,562.07L498.99,564.63L496.1,566.83L494.11,569.39L493.21,572.34L486.31,577.99L484.4,577.18L483.43,575.29L481.26,574.96L480.56,577.14L476.11,581.05L472.89,581.9L471.21,579.55L464.88,579.68L464.12,580.79L461.9,587.68L461.19,589.18L455.92,596.76L454.94,599.12L451.4,600L445.3,599.81L442.06,598.75L439.1,594.57L437.21,592.57L434.58,591.06L429.48,590.33L428.16,591.17L426.56,594L424.01,595.86L418.36,594.87L417.45,593.97L413.92,593.96L411.4,593.42L409.51,592.13L398.22,592.09L399.02,593.38L397.09,596.25L394.83,596.46L394.29,590.57L394.43,585.55L391.81,582.83L389.18,582.78L382.88,583.74L382,582.67L379.13,576.32L374.24,568.72L370.27,564.09L366.69,561.64L367.38,559.16L365.96,559.33L363.44,558.4L360.11,555.53L359.2,551.38L358.82,547.33L357.56,546.28L355,545.31L353.27,544.11L349.85,543.05L346.96,540.47L346.45,537.8L346.24,524.79L340.38,520.98L341.07,520.1L341.42,517.57L344.66,519.45L346.71,519.87L352.83,519.2L359.32,519.16L364.83,520.29L372.74,519.46L375.34,519.95L381.15,521.98L385,522.99L386.86,523.06L397.04,521.47L406.93,519.62L413.12,518.83L416.5,518.75L424.87,519.09L429.59,516.3L431.78,515.67L443.67,513.69L447.14,514.33L454.23,517.12L456.63,517.57L462.36,517.18L460.75,516.03L459.9,513.08L460.96,506.54L460.59,504.54L458.8,499.48L458.18,496.45L457.74,491.25L457.82,484.54L456.36,477.63L455.25,476.11L458.92,474.37L463.79,473.83L464.03,468.53L464.9,465.29L464.4,461.32L466.45,460.03L470.4,459.76L470.36,454.25L470.95,446.33L457.68,445.35L457.1,444.56L456.58,439.66L457.53,437.7L459.18,437.04L466.52,437.39L479.66,438.4L482.14,437.41L487.2,431.8L492.44,426.76L494.74,425.78L499.36,425.1L507.67,425.52L509.32,425.16L512.54,421.64L515.87,423.81L519.42,423.94L523.75,423.13L525.06,423.44L528.62,425.35L536.81,428.14L539.62,428.9L549.93,428.09L551.07,429.02L551.32,430.85L553.81,433.17L557.57,435.84L558.17,440.14L559.44,443.34L561.67,453.11L560.54,464.7L564.94,465.65Z" stroke-miterlimit="10" stroke="#FFFFFF"/>
<path title="滕州市" fill="#D3D3D3" id="path6" d="M224.23,348.28L219.53,346.74L217.35,344.11L211.96,343.1L206.89,340.67L205.34,340.2L196.16,331.69L195.32,330.13L195.26,326.43L188.64,322.84L187.69,319.84L187.43,315.59L186.86,311.11L186.27,301.76L185.68,299.77L185.27,293.26L184.9,291.81L182.85,289.91L178.7,290.73L178.62,287.85L177.64,287.01L177.61,283.72L178.86,283.62L179.25,281.9L178.84,279.74L177.9,278.09L177.83,274.77L176.89,274.53L177.04,271.61L175.66,271.78L174.84,268.16L173,268.21L172.88,269.03L167.94,269.99L167.79,268.46L164.91,268.68L165.08,269.6L162.89,269.94L163.04,271.12L161.15,272.03L158.91,275.18L158,274.84L157.83,276.52L156.57,275.78L154.39,275.8L154.41,274.9L152.2,274.25L152.15,272.97L150.67,273.08L150.25,274.56L148.96,274.47L148.93,275.5L146.77,275.41L140.4,276.76L139.17,276.76L139.15,275.01L140.18,274.37L140.49,271.4L138.77,271.35L137.79,269.8L137.66,267.87L134.07,266.05L131.19,265.09L125.74,264.63L122.86,264.96L114.68,266.91L109.55,267.25L106.69,266.66L104.39,265.67L101.41,263.1L96.74,258.62L94.82,255.42L93.06,251.09L90.02,247.41L85.37,245.49L83.77,243.89L82.97,241.48L84.41,236.83L85.86,235.7L87.94,232.32L89.54,229.1L90.83,221.87L90.99,217.05L90.35,215.12L87.94,209.99L84.09,207.11L79.61,205.19L71.13,197.17L66.66,194.44L62.82,191.56L61.22,186.66L60.42,187.81L58.74,185.1L58.77,182.62L53.71,183.49L53.34,182.27L47.55,183.75L47.11,180.63L58.53,176.33L56.16,171.61L55.35,172L54.51,169.72L53.74,169.95L51.56,164.82L53.62,164.28L51.97,158.77L51.24,158.1L48.81,159.17L42.71,160.74L37.21,160.4L28.9,151.79L24.22,146.09L22.85,143.97L23.14,142.7L22.07,139.28L19.38,137.8L18.55,136.69L18.38,134.94L16.46,126.73L15.79,121.07L11.31,118.93L10.39,117.48L8.58,112.71L9.98,104.87L9.39,102.92L7.43,100.23L9.35,100.15L11.94,99.38L15.53,96.9L19.82,95.32L21.78,96.51L24.26,99.14L28.57,102.6L31.95,106.37L34.71,106.59L37.38,105.11L38.95,103.58L39.45,100.22L40.87,99.72L42.47,95.05L44.89,92.77L57.4,87.36L58.68,89.61L59.32,93.15L61.03,96.66L63.28,98.43L66.16,99.24L73.04,96.81L74.48,97.94L77.05,100.83L78.33,102.92L80.27,103.88L84.11,103.23L88.07,100.59L90.08,100.02L93.89,100.27L95.3,99.39L97.64,96.47L97.29,95.06L98.26,93.22L104.46,90.62L108.21,88.51L110.34,86.9L113.12,85.91L117.07,82.67L120.25,77.9L124.98,73.36L128.12,71.88L132.09,69.51L136.31,68.26L142.24,68.13L146.18,67.4L153.03,64.79L155.8,64.8L159.18,65.63L162.81,67.12L166.35,69.12L168.84,70.09L172.88,70.26L175.71,69.31L177.97,66.23L179.47,65.83L181.46,64.31L188.1,62.5L193.26,62.33L196.8,62.69L203.1,61.91L205.04,61.22L209.01,58.47L213.65,55.71L216.83,54.09L223.3,53.81L227.11,52.55L229.67,51.07L230.38,49.92L231.18,46.78L233,43.34L235.57,41.09L238.13,39.66L242.13,38.87L247.89,39.21L255.09,39.88L258.3,39.73L265.67,40.88L267.28,41.53L269.84,41.38L269.85,38.15L268.1,34.44L265.87,27.99L265.43,24.14L265.85,23.01L269.86,21.73L273.24,19.74L276.49,19.31L278.58,18.19L281.81,14.65L285.66,15.3L288.87,16.43L290.79,17.56L293.86,24.13L294.4,29.86L295.61,35.75L297.95,44.9L299.54,48.45L300.54,52.59L300.32,55.03L299.25,59.84L300.47,66.28L300.13,67.6L295.49,74.4L290.68,77.51L286.26,79.55L284.87,80.71L283.21,86.66L281.54,89.17L278.63,92.49L278.75,96.7L286.7,97.01L289.25,96.31L293.23,97.58L296.07,100.26L297.3,107.48L302.73,107.57L300.71,113.01L293.64,115.83L288.41,119.44L284.26,123.16L281.89,124.23L279.6,126.03L276.1,127.22L274.01,128.44L270.45,128.6L267.04,128.29L263.03,126.59L259.73,127.67L258.58,130.79L258.25,133.06L258.47,135.75L259.24,136.77L262.98,137.26L262.82,140.59L267.76,139.86L268.08,141.54L266.53,143.08L265.73,144.83L266.02,147.88L267.12,150.15L269.49,152.56L273.15,153.76L274.74,155.65L274.68,157.74L275.74,158.59L275.83,160.91L277.29,164.66L277.55,169L277.17,173.86L277.42,178.78L278.49,180.64L282.83,184.15L287.08,186.05L289.68,185.38L293.44,183.29L295.13,183.3L298.74,184.1L301.13,187.28L303.78,190.06L308.94,190.04L313.49,189.27L317.82,188.96L327.42,187.14L330.75,185.52L332.15,185.52L332.84,186.51L333.54,189.73L334.22,190.97L336.12,191.86L336.86,195.3L340.07,201.45L344.34,207.26L345.24,209.31L347.59,210.6L348.39,212.56L348.14,214.16L349.55,221.31L348.86,224.1L352.13,226.44L352.06,229.99L351.03,231.6L346.17,234.55L344.53,236.84L343.29,239.92L341.79,245.44L341.53,248.76L338.95,263.46L329.56,264.06L327.24,264.98L326.63,266.41L326.52,270.09L325.16,273.53L325.01,278.62L325.5,281.44L327.02,284.96L329.84,288.74L330.38,292.13L328.97,295.37L326.93,298.25L323.4,299.57L318.83,300.58L316.49,300.58L311.89,302.61L309.51,301.04L305.81,300.44L301.37,301.69L298.03,304.5L295.24,308.05L291.92,308.57L288.89,312.66L287.93,313.23L284.26,313.16L281.54,311.6L279.96,314.18L278.52,315.31L273.55,316.01L271.31,315.94L269.22,314.65L264.94,314.36L264.17,315.08L263.29,319.58L258.61,320.17L258.34,321.19L258.57,325.69L252.51,327.08L249.53,328.5L246.32,329.22L246.98,331.95L246.81,334L241.5,333.09L241.31,336.06L239.56,338.09L237.7,342.32L230.99,342.83L225.3,348.73Z" stroke-miterlimit="10" stroke="#FFFFFF"/>
<path title="薛城区" fill="#D3D3D3" id="path2" d="M351.01,487.19L346.79,487.14L346.3,483.72L337.63,483.68L335.63,483.86L335.19,487L331.42,487.99L330.47,480.76L329.88,478.33L327.73,475.45L326.89,470.52L325.84,468.54L323.57,467.55L320.01,467.11L318.54,466.23L318.67,464.36L320.32,462.62L319.91,460.59L315.91,456.06L313.86,454.07L307.52,452.51L304.25,449.63L305.54,448.24L307.73,442.1L307.81,439.12L302.16,436.74L301.38,435.75L302.48,431.47L299.68,427.55L298.72,425.43L295.33,422.42L293.55,421.79L291.52,423.5L290.12,423.5L287.94,421.04L286.85,421.04L285.44,423.13L278.43,423.14L275.32,422.96L275.78,421.06L277.43,420.39L276.84,418.06L275.34,419.01L272.76,419.45L273.76,418.03L273.76,416.52L271.11,415.38L266.91,416.33L260.96,418.92L259.59,416.2L254.32,412.96L254.16,408.94L253.69,407.62L252.45,407.81L251.52,406.67L251.67,403.83L251.21,401.55L250.12,400.42L248.25,399.85L246.23,400.41L244.06,402.12L243.28,401.55L242.66,398.13L240.79,395.67L238.62,394.15L237.62,391.32L236.05,390.19L235.42,388.48L233.72,386.67L231.63,386.17L231.64,384.67L225.27,377.45L221.54,375.36L219.06,375.16L217.82,376.29L216.76,378.75L213.58,377.18L208.67,376.62L214.59,364.72L217.2,364.73L218.91,363.98L222.79,360.2L225.89,355.84L227.14,352.81L225.43,350.91L223.79,350.44L224.23,348.28L225.3,348.73L230.99,342.83L237.7,342.32L239.56,338.09L241.31,336.06L241.5,333.09L246.81,334L246.98,331.95L246.32,329.22L249.53,328.5L252.51,327.08L258.57,325.69L258.34,321.19L258.61,320.17L263.29,319.58L264.17,315.08L264.94,314.36L269.22,314.65L271.31,315.94L273.55,316.01L278.52,315.31L279.96,314.18L281.54,311.6L284.26,313.16L287.93,313.23L288.89,312.66L291.92,308.57L295.24,308.05L298.03,304.5L301.37,301.69L305.81,300.44L309.51,301.04L311.89,302.61L316.49,300.58L318.83,300.58L323.4,299.57L326.93,298.25L328.97,295.37L330.38,292.13L332.71,292.36L335.18,291.64L335.92,294.88L339.47,295.67L343.13,294.87L346.4,295.12L347.92,294.84L349.48,293.66L354.2,288.97L356.55,287.42L359.8,287.93L362.17,287.62L364.16,285.3L364.6,282.46L365.5,281.95L369.86,281.63L374.24,281.66L376.68,276.85L377.78,271.93L378.82,269.34L380.99,268.04L382.28,267.95L384.15,269L387.5,274.97L390.07,279.31L390.97,281.51L390.95,286.72L391.81,290.3L393.41,292.96L395.52,298.77L394.88,300.24L391.27,304.55L388.65,310.28L389.48,315.23L394.61,321.73L396.49,323.21L398.36,325.51L398.14,327.28L396.62,331.37L396.49,337.82L396.19,338.57L387.01,343.82L385.94,345.19L384.77,376.09L380.86,376.63L377.28,378.23L376.05,379.91L373.43,381.31L371.55,377.84L369.33,376.65L367.2,377.37L365.57,378.56L363.67,375.71L360.45,375.27L358.45,376.35L353.39,380.48L349.24,382.01L347.37,383.98L344.92,388.9L344.74,392.69L345.7,401.15L350.14,402.89L353.67,403.11L356.37,404.11L356.42,405.95L355.16,413.24L355.9,417.14L356.97,418L362.75,417.58L364.67,418.35L366.28,422.18L367.35,423.45L369.3,424.38L368.41,426.31L366.84,428.16L365.19,429.1L362.45,431.92L361.25,434.17L362.34,435.51L362.97,438.78L361.57,440.44L361.73,443.26L363.67,445.11L366.01,445.61L368.21,447.91L368.79,451.07L368.96,461.46L368.76,463.22L369.16,467.2L367.52,471.68L364.45,473.8L364.41,475.71L366.55,481.89L366.63,484.12L363.12,486.5L359.15,488.41L356.71,488.93L355.19,488.43L353.68,486.83L351.86,486.27Z" stroke-miterlimit="10" stroke="#FFFFFF"/>
<path title="峄城区" fill="#D3D3D3" id="path3" d="M384.77,376.09L387.48,376.79L389.75,380.33L392.51,378.09L394.44,378L396.62,380.12L401.19,382.63L402.85,383.15L406.64,383.34L408.46,382.96L409.99,381.31L411.88,381.66L414.32,378.5L417.43,380.08L419.38,379.5L424.88,379.61L426.72,377.66L428.24,373.77L433.5,368.91L433.92,367.12L433.86,360.83L436.72,361.38L440.65,361.68L441.85,362.36L445.06,361.53L446.43,361.68L447.75,363.32L448.42,365.14L449.58,365.94L452.03,366.5L458.43,366.06L459.71,366.47L459.24,367.49L459.86,370.06L459.03,372.03L458.78,375.45L459.07,378.3L461.57,381.08L466.49,384.06L475.62,384.08L479.31,380.58L486.94,370.45L491.57,367.46L493.24,365.46L493.19,362.71L493.8,360.48L495.63,358.42L498.62,358.48L501.26,360.44L502.71,362.23L504.7,362.95L507.98,358.65L508.6,355.51L507.55,351.88L507.88,347.43L509.06,343.75L512.51,342.14L514.92,342.46L518.67,343.63L521.35,343.61L523.86,345.2L524.33,342.89L538.61,342.49L542.51,343.08L543.99,344.68L545.41,344.87L546.83,344.15L552.6,338.3L554.81,336.79L557.87,332.83L561.69,334.32L571.25,339.08L575.14,339.72L576.05,342.7L574.91,347.89L574.25,354.62L573.17,356.7L564.3,361.11L561.01,363.28L560.49,366.39L561.45,367.34L564.81,367.75L565.63,368.47L565.78,370.78L564.6,372.76L564.37,375.2L565.11,377.64L569.85,381.63L572.82,385.23L573.69,385.84L582.58,389.38L591.48,391.88L592.57,393.75L591.44,398.94L592.18,401.52L591.42,402.8L591.16,405.37L588.39,410.37L587.51,413.89L588.39,417.5L589.24,418.76L588.58,420.79L588.42,424.71L590.79,426.16L592.12,428.42L589.83,440.14L588.65,444.74L587.91,445.46L584.95,446.53L581.77,456.1L577.27,471.31L573.73,470.58L573.99,468.31L570.3,467.46L564.94,465.65L560.54,464.7L561.67,453.11L559.44,443.34L558.17,440.14L557.57,435.84L553.81,433.17L551.32,430.85L551.07,429.02L549.93,428.09L539.62,428.9L536.81,428.14L528.62,425.35L525.06,423.44L523.75,423.13L519.42,423.94L515.87,423.81L512.54,421.64L509.32,425.16L507.67,425.52L499.36,425.1L494.74,425.78L492.44,426.76L487.2,431.8L482.14,437.41L479.66,438.4L466.52,437.39L459.18,437.04L457.53,437.7L456.58,439.66L457.1,444.56L457.68,445.35L470.95,446.33L470.36,454.25L470.4,459.76L466.45,460.03L464.4,461.32L464.9,465.29L464.03,468.53L463.79,473.83L458.92,474.37L455.25,476.11L456.36,477.63L457.82,484.54L457.74,491.25L458.18,496.45L458.8,499.48L460.59,504.54L460.96,506.54L459.9,513.08L460.75,516.03L462.36,517.18L456.63,517.57L454.23,517.12L447.14,514.33L443.67,513.69L431.78,515.67L429.59,516.3L424.87,519.09L416.5,518.75L413.12,518.83L406.93,519.62L397.04,521.47L386.86,523.06L385,522.99L381.15,521.98L375.34,519.95L372.74,519.46L364.83,520.29L359.32,519.16L352.83,519.2L346.71,519.87L344.66,519.45L341.42,517.57L341.29,512.1L344.19,511.64L343.34,504.23L343.61,500.44L346.02,498.39L346.48,496.95L349.33,496.1L349.11,493.03L350.05,491.63L351.02,488.66L351.01,487.19L351.86,486.27L353.68,486.83L355.19,488.43L356.71,488.93L359.15,488.41L363.12,486.5L366.63,484.12L366.55,481.89L364.41,475.71L364.45,473.8L367.52,471.68L369.16,467.2L368.76,463.22L368.96,461.46L368.79,451.07L368.21,447.91L366.01,445.61L363.67,445.11L361.73,443.26L361.57,440.44L362.97,438.78L362.34,435.51L361.25,434.17L362.45,431.92L365.19,429.1L366.84,428.16L368.41,426.31L369.3,424.38L367.35,423.45L366.28,422.18L364.67,418.35L362.75,417.58L356.97,418L355.9,417.14L355.16,413.24L356.42,405.95L356.37,404.11L353.67,403.11L350.14,402.89L345.7,401.15L344.74,392.69L344.92,388.9L347.37,383.98L349.24,382.01L353.39,380.48L358.45,376.35L360.45,375.27L363.67,375.71L365.57,378.56L367.2,377.37L369.33,376.65L371.55,377.84L373.43,381.31L376.05,379.91L377.28,378.23L380.86,376.63Z" stroke-miterlimit="10" stroke="#FFFFFF"/>
</svg>