<svg xmlns="http://www.w3.org/2000/svg" xmlns:xlink="http://www.w3.org/1999/xlink" width="600" height="600">
<path title="岱岳区" fill="#D3D3D3" id="path2" d="M432.44,287.4L432.26,288.82L434.05,292.39L435.28,293.4L436.38,295.93L435.63,296.91L436.48,297.68L435.99,298.43L434.27,299.43L432.67,301.51L431,302.95L427.48,305.41L424.82,308.4L422.92,310.01L420.11,311.95L418.17,311.58L416.83,310.72L415.88,308.93L413.57,306.89L409.83,307.18L407.13,307.48L400.75,309.21L398.73,310.05L396.78,311.93L395.6,315.06L393.55,317.72L391.45,320.65L389.6,321.48L388.7,322.44L388.52,323.48L389.39,325.23L390.78,326.88L392.51,327.76L393.29,329.15L393.11,330.72L392.4,332.03L391.18,334.81L391.35,336.3L392.38,338.65L393.73,340.53L393.75,343.13L392.81,345.6L390.28,347.73L388.67,351.64L388.41,352.88L386.84,354.77L384.5,356.71L383.48,357.1L383.19,357.64L382.97,360.18L382,362.56L381.98,364.83L381.5,366.24L379.87,366.7L378.59,366.51L376.88,366.6L375.59,365.65L373.47,364.46L371.99,364.57L371.32,365.84L369.82,367.38L368.71,367.98L366.14,367.69L364.13,367.17L362.75,365.96L360.97,365.22L359.84,364.27L359.28,363.22L358.68,362.88L357.02,362.7L355.8,362.12L355.13,362.45L353.1,364.83L351.06,364.1L349.66,363.09L349.44,361.1L347.81,360.31L344.6,356.28L343.43,354.45L342.8,352.54L343.28,350.61L343.35,348.29L343.98,347.01L344.13,345.7L343.95,344.58L343.09,343.69L341.27,342.31L338.61,341.05L337.07,340.95L335.28,339.64L333.18,339.8L332.19,339.67L329.66,338.31L327.98,338.22L326.79,338.67L326.06,340.13L324.69,341.23L323.27,342.01L321.41,342.64L319.17,343.11L315.87,342.95L313.88,342.31L311.89,342.04L310.5,342.19L308.3,341.04L305.61,339.88L298.35,339.29L295.66,338.6L294.61,338.18L291.93,338.46L289.83,338.96L286.86,339.16L285.92,339.36L282.45,339.56L281.35,338.06L280.88,336.86L280.93,335.19L281.29,333.92L281.14,329.64L282.22,327.46L281.96,326.61L281.27,326.22L279.88,326.26L279.31,325.82L279.45,324.53L280.02,323.96L279.49,321.65L280.45,320.73L281.99,318.47L283.77,316.23L285.63,314.24L289.95,310.11L290.67,308.37L288.62,305.74L283.86,302.9L284.64,300.9L281.17,300.07L275.96,300.5L275.78,302.01L273.42,302.27L271.84,301.36L271.81,300.79L270.06,299.46L269.71,297.76L268.12,297.55L267.34,297.06L266.74,296.22L263.86,296.1L263.55,296.24L263.71,297.51L262.89,298.68L260.72,298.15L260.16,297.28L259.56,297.15L257.58,297.61L256.83,297.26L255.86,297.42L254.54,298.08L252.48,298.77L252.49,297.95L253.87,295.87L253.96,294.08L257.34,293.86L257.31,293.31L258.01,292.43L259.86,292.22L260.43,291.61L261.37,291.37L260.55,289.38L260.74,288.2L261.66,286.98L261.67,286L261.18,286.09L261.21,285.15L260.56,284.42L259.32,283.99L259.16,280.48L257.98,279.66L257.28,278.59L257.83,276.31L257.14,274.5L257.37,273.4L257.05,271.99L256.68,271.48L255.93,271.61L253.55,272.93L253.49,273.56L252.27,272.95L251.09,272.88L252.05,271.41L253.17,271.35L253.72,269.93L254.14,270.94L255.09,270.69L255.7,270.1L257.17,270.37L257.15,268.71L257.74,267.35L257.44,266.96L253.34,268.41L252.58,268.15L251.73,267.29L251.23,267.28L250.47,268.46L250.07,268.58L249.75,267.17L250.86,264.69L250.47,263.52L248.95,260.71L247.71,255.98L246.01,252.12L246.58,248.98L249.22,245.53L251.25,243.81L253.23,241.48L253.7,241.12L253.39,239.93L253.48,238.91L255.06,237.82L255.46,236.58L257.13,236.58L257.82,236.04L257.82,233.84L257.4,232.67L258.27,231.98L258.4,231.41L259.48,229.62L260.81,228.01L260.55,226.71L259.15,223.39L259.56,222.99L260.94,222.86L263.71,221.76L265.63,219.94L268.62,218.37L269.51,217.05L270.93,217.45L270.71,217.89L272.04,220.04L271.98,220.93L272.59,221.3L273.6,220.94L275.14,221.81L277.32,222.68L279.36,221.75L280.21,222.64L281.82,225.25L282.48,225.85L284.13,226.61L285.1,228.08L286.45,227.7L287.52,226.11L288.84,225.21L290.15,225.16L290.26,225.43L292.31,224.56L292.98,223.74L293.51,223.77L293.81,224.66L294.58,224.26L293.85,223.25L293.91,222.07L294.33,221.85L294.32,220.82L293.65,219.62L296.98,219.41L297.49,218.95L298.81,218.57L301.05,218.25L301.95,214.97L302.65,214.18L305.12,212.95L305.89,213.23L307.46,212.62L308.4,210.71L309.99,209.65L310.91,209.4L313.19,210.91L314.87,211.13L314.66,210.19L315.58,209.77L317.02,211.21L317.4,211.93L316.36,213.6L317.32,214.59L319.1,215.55L319.97,216.65L320.94,216.71L321.57,218.8L321.56,219.81L322.41,221.49L323.29,222.3L324.03,223.74L324.2,225.29L323.31,225.16L321.99,226.06L320.76,226.62L318.92,227.92L318.05,230.01L318.72,230.86L318.68,232.12L318.35,232.89L319.37,233.54L319.95,234.94L319.58,235.9L318.42,236.42L318.3,237.42L317.33,238.44L315.43,239.55L315.43,240.21L313.96,243.23L313.98,244.02L315.2,246.07L315.56,247.23L315.86,251.25L317.67,251.48L317.72,253.31L320.34,253.13L320.37,252.03L322.33,252.63L322.36,253.38L323.36,252.78L323.39,253.45L323.98,253.39L324.17,254.12L323.54,255.33L324.36,255.29L324.35,257.16L324.84,257.35L325.76,256.65L326.07,257.43L325.31,259.1L322.8,258.92L322.66,259.59L321.55,259.64L321.22,260.09L320.04,259.35L320.16,261.3L318.8,261.6L318.44,263.09L317.17,263.59L316.16,263.28L312.4,263.31L312.36,265.22L312.93,265.62L312.35,266.73L313.43,267.15L314.59,268.6L315.41,268.5L316.86,269.16L321.12,269.07L324.14,268.46L327.69,266.94L327.51,267.65L329.34,267.85L329.52,266.67L330,268.49L331.72,268.78L331.91,269.36L334.19,268.99L335.09,267.55L336.16,267.18L337.63,267.77L338.5,267.21L338.98,266.17L341.78,266.8L342.81,266.66L343.6,265.79L343.9,265.01L345.7,264.85L347.35,264.45L348.05,265.1L348.07,266.31L347.5,275.09L347.7,275.96L350.21,276.15L350.46,275.32L351.21,276.14L349.62,281.62L352.37,282.63L352.13,284.1L353.45,285.75L353.99,285.82L354.89,285.11L355.69,283.46L356.27,283.32L359.4,281.74L362.44,281.08L363.55,281.02L366.26,279.15L368.73,277.08L370.55,276.4L372.94,274.07L374.64,270.35L374.81,269.04L374.4,267.77L374.82,266.72L376.69,264.75L377.56,264.82L378.38,265.5L378.91,265.47L382.06,267.7L384.74,268.45L386.47,267.39L386.57,266.85L388.56,262.65L390.06,260.71L390.92,260.12L393.77,257.44L393.69,256.81L394.83,255.84L395.22,254.6L394.88,251.39L394.79,248.73L394.47,247.04L392.88,244.86L391.55,245.19L384.24,246.02L384.09,245.01L382.03,245.13L381.41,244.05L381.44,242.34L380.86,241.39L380.16,241.41L378.3,240.42L375.21,240.51L374.94,240.07L374.34,240.68L374.27,241.81L372.71,242.12L371.58,242.95L370.41,241.34L370.04,241.25L369.64,240.16L367.81,238.94L367.34,237.74L366.35,237.7L365.44,238.28L364.97,237.28L365.27,236.49L364.57,235.08L363.95,232.48L362.84,231.16L362.29,228.43L361.77,227.3L362.52,225.76L362.66,224.36L363.8,223.52L360.77,221L359.6,220.82L359.72,220.05L358.47,218.89L356.93,218.1L355.53,216.78L354.14,214.81L353.41,214.24L346.15,211.25L344.67,210.14L344.96,208.89L344.64,206.8L344.07,205.4L344.28,203.99L343.89,201.91L341.91,201.33L340.44,199.25L340.74,198.4L339.65,196.61L338.76,195.63L336.85,193.93L335.5,193.5L334.79,192.99L334.31,191.29L336.48,188.95L337.77,188.99L338.6,188.73L342.28,186.6L344.75,186.66L347.89,186.12L348.92,183.18L348.47,182.19L347.64,181.45L347.61,180.45L348.3,178.7L349.13,178.26L351.59,176.33L354.45,172.12L354.76,171.32L355.15,168.84L355.79,168.6L356.64,167.5L356.85,166.19L359.79,165.86L360.76,165.42L361.92,164.27L363.81,163.33L364.66,163.41L365.75,163.97L367.11,162.36L367,161.42L368.12,159.37L368.86,156.92L368.96,155.23L369.44,154.17L371.13,152.35L372.33,151.98L372.85,150.65L373.79,149.4L377.47,148.63L378.04,146.95L378.85,145.26L379.65,144.78L380.81,143.24L381.53,141.94L381.75,140.33L381.29,139.14L382.55,139.19L383.81,140.04L385.1,140.3L385.59,140.1L387.02,140.65L387.01,142.59L387.5,142.86L388.99,142.43L389.84,142.94L391.85,143.23L395.79,142.84L397.53,143.13L399.18,143.85L399.35,146.91L397.91,149.43L396.96,153.62L397.05,158.35L397.77,162.21L398.73,166.69L400.41,170.75L401.05,174.17L400.83,176.62L404.21,183.41L406.77,186.07L408.57,188.29L410.2,189.89L411.9,191.93L412.73,194.48L412.61,196.49L412.19,196.43L410.3,198.53L409.43,200.62L409.87,203.63L411.36,205.5L411.95,207.8L411.34,208.53L411.04,210.18L412.44,210.01L411.86,211.91L413.19,212L415,212.6L414.97,214.99L413.54,216.68L414.02,217.87L414,219.18L415.37,219.28L419.94,218.65L419.94,220.57L420.13,224.69L420.47,226.62L420.97,227.9L419.74,228.4L418.41,228.29L416.11,229.77L413.5,230.27L413.93,231.84L413.94,233.73L413.56,234.34L411.13,234.25L412.11,235.34L413.6,235.78L413.67,236.71L414.87,237.13L415.53,238.82L416.84,239.63L419.6,240.38L421.29,239.33L422.12,238.08L423.7,237.13L424.26,236.3L425.85,236.21L427.01,237.39L427.71,237.74L430.25,237.57L430.56,240.32L430.38,241.24L429.65,241.41L430.38,243.19L431.07,242.98L431.81,243.35L431.23,244.35L429.01,246.54L428.11,247.91L430.17,248.19L430.13,249.54L430.83,251.21L431.51,251.93L432.36,251.83L432.29,253.43L434.2,254.98L434.51,255.91L436.57,254.97L437.28,255.82L437.41,254.92L438.94,254.8L439.65,255.91L440.43,256.38L441.83,255.71L442.68,256.16L442.35,256.75L441.36,256.76L441.84,258.47L442.73,260.09L442.54,261.31L441.99,261.87L439.23,263.56L437.09,263.39L437.47,262.55L436.95,261.81L436.04,262.02L435.19,263.14L434.03,263.67L433.19,265.31L432.69,265.75L432.51,267.54L432.14,268.84L431.45,269.62L431.5,270.75L430.07,274.71L430.13,275.15L431.39,276.18L433.81,276.07L435.24,276.22L435.71,276.81L435.41,277.46L433.66,278.26L432.56,278.38L432.5,280.13L432.93,281.01L432.95,282.47L431.36,283.79L430.49,283.89L431.19,284.84L430.14,285.67L430.35,286.29L431.66,287.43Z" stroke-miterlimit="10" stroke="#FFFFFF"/>
<path title="东平县" fill="#D3D3D3" id="path4" d="M148.77,292.43L152.82,295L160.06,299.77L162.37,301.2L161.91,305.04L160.66,309.29L161.76,311.48L164.53,311.08L167.33,309.02L169.51,307.9L173.34,306.98L176.98,307.28L179.85,308L182.37,308.1L184.72,307.6L187.32,307.97L189.22,309.12L189.56,310.86L188.22,313.46L186.81,315.8L183.25,320.88L182.47,321.72L181.28,324.86L181.47,327.56L180.42,329.69L179.96,331.13L179.62,333.71L179.42,337.11L180.79,338.5L182.5,339.57L183.17,340.86L183.23,341.58L181.79,343.75L181.56,344.42L179.32,344.01L178.26,344.04L176.22,344.72L175.3,345.32L173.93,347.07L172.02,348.61L170.92,350.5L169.79,351.85L169.5,352.55L169.42,354.81L168.29,356.76L167.48,357.29L166.26,357.62L164.1,357.74L160.59,358.47L159.15,358.97L157.86,359.99L156.95,361.03L156.38,362.2L156.16,365.18L155.25,366.54L155.2,371.99L154.17,374.81L150.03,378.74L146.62,378.62L145.48,377.29L145.18,376.51L143.56,380.75L141.15,380.09L137.76,381.25L134.83,380.94L131.41,384.01L129,382.92L126.45,385.93L126.47,390.63L125.44,391.45L124.75,391.33L123.05,391.93L121.71,392.95L121.15,393.01L119.44,393.88L119.23,396.42L118.19,397.59L116.89,398L115.64,397.19L114.61,396.9L112.95,397.51L111.39,398.51L109.92,398.88L108.32,398.68L106.72,397.46L105.83,396.4L104.47,395.86L103.65,395.97L101.29,397.9L100.32,398.14L98.15,398.26L96.66,398.17L95.2,396.78L93.56,396.39L91.24,396.61L89.7,397.16L88.57,397.88L87.54,399.27L86.5,401.34L85.44,402.36L83.68,403.15L82.4,404.13L81.8,405.04L80.2,406.48L77.88,405.33L77.21,403.97L76.49,400.36L76.58,397.86L78.55,396.86L78.18,396.05L76.9,395.75L76.67,394.78L75.97,394.18L75.65,395.74L72.8,395.39L73.13,394.24L72.34,394.71L71.71,394.26L70.37,394.14L70.37,395.18L69.58,395.36L68.55,394.47L68.48,393.73L65.59,391.4L64.52,390.23L64.3,389.37L61.95,387.7L62.58,386.45L61.66,386.24L60.64,383.68L59.26,381.6L58.82,379.95L58.12,378.65L56.99,377.18L57.07,376.66L56.03,373.5L56.52,371.09L56.66,367.36L57.01,363.1L56.48,361.94L55.75,361.62L54.46,361.86L53.05,361.42L52.3,362.29L52.24,366.36L51.85,366.74L50.62,365.62L50.42,364.36L51.11,362.62L50.72,361.84L50.14,362.05L49.06,363.68L47.68,363.27L47.02,361.98L46.55,361.72L43.51,361.52L42.94,361.2L42.05,358.5L39.1,358.02L38.06,357.17L36.4,356.95L35.36,357.52L34.61,358.54L32.91,363.21L32.48,363.99L31.49,364.28L30.28,362.76L29.67,360.69L28.97,360.34L27.27,360.75L26.43,361.23L24.49,361.67L23.83,362.1L20.3,360.02L13.51,356.81L11.6,354.97L10.14,353.3L11.74,349.86L8.7,348.41L7.99,348.25L7.8,347.35L8.25,346.43L7.43,343.47L6.64,343.73L6.43,343.34L4.82,343.47L3.5,343.9L3.17,344.94L0,341.25L0.01,340.41L2.53,338.37L3.61,337.28L4.51,335.79L5.15,334.1L5.04,332.97L4.07,330.73L2.22,328.66L0.59,327.57L1.21,321.02L2.08,317.05L4.37,309.7L7.69,310.75L8.51,308.78L8.92,305.62L9.5,304.48L9.41,302.06L8.74,301.12L8.44,299.04L9.2,299.63L11.32,300.13L13.12,298.73L9.71,298.46L10.18,298.08L10.37,297.17L11,297.14L11.22,295.64L12.7,295.56L12.34,293.53L11.84,293.52L11.77,291.7L12.15,291.42L12.04,289.89L13.32,289.79L13.26,286.66L14.09,286.22L14.2,285.5L14.84,285.62L15.21,282.43L14.76,280.98L15.87,280.86L15.17,278.77L15.6,278.05L17.59,276.36L19.09,275.38L20.11,274.25L21.01,270.85L21.52,270.06L23.14,268.78L26.03,267.55L29.36,266.62L32.4,266.29L35.57,265.09L36.19,262.79L35.79,259.59L35.6,256.42L37.17,255.48L40.43,255.44L42.86,255.81L50.57,256.04L52.15,255.8L54.57,254.55L56.87,258.51L59.47,261.47L60.9,263.82L62.33,267.56L64.06,271.35L65.45,274.01L66.64,274.56L68.6,278.89L69.15,282.22L69.13,285.02L67.26,292.45L67.22,297.41L67.48,300.55L68.57,304.02L69.64,304.28L73.96,307.35L75.69,308.75L77.69,308.85L79.01,306.24L78.77,303.1L80.53,300.84L84.97,300.08L87.32,299.04L89.25,297.83L91.52,295.92L93.54,293.75L94.78,291.06L95.84,288.45L98.37,287.06L100.9,286.38L104.03,286.14L105.85,286.59L107.49,288.52L108.41,292.53L111,294.81L113.17,294.74L116.64,295.03L117.59,295.46L118.35,297.93L117.49,298.29L117.16,300.74L118.49,301.61L118.43,302.88L119.19,303L119.29,304.35L118.78,304.82L118.7,306.01L119.86,306.01L119.62,305.01L120.96,304.15L121.3,303.47L122.31,303.43L122.49,302.58L123.27,302.69L123.55,300.71L124.09,298.62L125.82,298.62L125.98,297.51L127.45,296.79L129.97,296.12L134.55,296.26L140.09,296.07L143.56,294.54L145.3,294.13Z" stroke-miterlimit="10" stroke="#FFFFFF"/>
<path title="肥城市" fill="#D3D3D3" id="path6" d="M181.56,344.42L181.79,343.75L183.23,341.58L183.17,340.86L182.5,339.57L180.79,338.5L179.42,337.11L179.62,333.71L179.96,331.13L180.42,329.69L181.47,327.56L181.28,324.86L182.47,321.72L183.25,320.88L186.81,315.8L188.22,313.46L189.56,310.86L189.22,309.12L187.32,307.97L184.72,307.6L182.37,308.1L179.85,308L176.98,307.28L173.34,306.98L169.51,307.9L167.33,309.02L164.53,311.08L161.76,311.48L160.66,309.29L161.91,305.04L162.37,301.2L160.06,299.77L152.82,295L148.77,292.43L149.92,290.52L152.19,287.74L152.12,286.19L153.16,282.19L154.2,280.39L155.66,279.52L157.69,279.6L158.44,279.99L158.45,279.15L159.41,279.32L159.68,276.6L160.06,275.5L159.18,275.36L157.95,274.4L157.71,271.96L156.87,269.77L153.93,268.25L152.1,267.57L151.24,268.28L150.52,268.3L150.15,269.19L148.15,269.46L146.61,269.21L146.61,268.16L147.31,268.2L147.25,267.25L147.7,267.11L147.61,265.41L146.88,265.36L145.1,265.97L144.91,266.96L143.71,266.91L143.19,267.28L141.05,266.93L141.46,265.64L141.85,265.74L141.97,264.24L142.86,264.3L142.76,263.81L143.7,263.66L144.58,261.66L144.7,260.81L145.57,260.87L146.83,256.95L146.82,256.63L143.56,255.3L142.02,253.37L141.1,250.04L139.48,247.31L135.76,246.74L134.29,245.85L134.01,245.38L133.28,245.69L131.92,243.5L131.57,242.6L132.13,241.84L131.38,241.58L130.38,239.62L130.41,238.97L131.57,238.07L131.44,237.2L133.81,236.14L135,233.7L134.46,233.52L134.15,232.22L134.29,230.8L135.86,230.79L138.84,229.85L139.46,229.2L141.08,229.9L140.82,229.17L142.42,227.56L142.17,226.83L142.63,224.17L143.37,223.34L143.86,223.76L145.74,223.79L146.71,223.49L146.86,224.61L145.95,225.37L146.34,225.91L148.1,225.01L148.64,225.07L149.71,225.91L150.04,227.17L151.15,227.17L151.84,226.75L154.95,226.34L155.24,225.73L154.98,224.34L155.53,222.67L155.94,223.45L156.8,222.64L156.94,221.27L158.1,220.87L161.73,220.35L162.16,220.93L161.73,221.89L161.77,223.01L162.09,222.62L163.26,222.83L163.83,223.39L164.37,223.08L164.69,222.24L164.28,221.2L164.8,219.9L165.75,218.29L169.78,216.34L170.56,214.98L170.27,213.95L171.19,211.76L172.11,211.33L172.56,209.71L175.21,209.38L175.73,208.46L179.52,207.81L182.4,207.74L184.66,208.02L187.44,209.96L189.51,212.42L192.89,215.32L196.2,215.78L198.39,215.19L200.67,213.98L203.55,214.35L206.35,212.53L208.91,209.76L210.49,208.63L217.24,205.54L219.6,204.34L222.74,201.83L224.68,201.69L227.02,202.06L231.25,204.9L233.76,206.78L236.03,207.95L236.46,207.23L238.37,207.97L240.54,208.48L241.98,207.86L244.6,207.35L245.54,206.23L245.81,205.46L248.28,205.77L247.9,206.9L247.86,208.17L248.31,209.11L248.19,210.33L249.51,211.76L251.02,212.48L251.96,213.63L250.83,214.2L252.17,214.87L252.1,217.3L253.15,218.24L252.89,219.35L253.6,220.11L255.43,220.42L257.08,221.67L257.19,222.82L259.15,223.39L260.55,226.71L260.81,228.01L259.48,229.62L258.4,231.41L258.27,231.98L257.4,232.67L257.82,233.84L257.82,236.04L257.13,236.58L255.46,236.58L255.06,237.82L253.48,238.91L253.39,239.93L253.7,241.12L253.23,241.48L251.25,243.81L249.22,245.53L246.58,248.98L246.01,252.12L247.71,255.98L248.95,260.71L250.47,263.52L250.86,264.69L249.75,267.17L250.07,268.58L250.47,268.46L251.23,267.28L251.73,267.29L252.58,268.15L253.34,268.41L257.44,266.96L257.74,267.35L257.15,268.71L257.17,270.37L255.7,270.1L255.09,270.69L254.14,270.94L253.72,269.93L253.17,271.35L252.05,271.41L251.09,272.88L252.27,272.95L253.49,273.56L253.55,272.93L255.93,271.61L256.68,271.48L257.05,271.99L257.37,273.4L257.14,274.5L257.83,276.31L257.28,278.59L257.98,279.66L259.16,280.48L259.32,283.99L260.56,284.42L261.21,285.15L261.18,286.09L261.67,286L261.66,286.98L260.74,288.2L260.55,289.38L261.37,291.37L260.43,291.61L259.86,292.22L258.01,292.43L257.31,293.31L257.34,293.86L253.96,294.08L253.87,295.87L252.49,297.95L252.48,298.77L254.54,298.08L255.86,297.42L256.83,297.26L257.58,297.61L259.56,297.15L260.16,297.28L260.72,298.15L262.89,298.68L263.71,297.51L263.55,296.24L263.86,296.1L266.74,296.22L267.34,297.06L268.12,297.55L269.71,297.76L270.06,299.46L271.81,300.79L271.84,301.36L273.42,302.27L275.78,302.01L275.96,300.5L281.17,300.07L284.64,300.9L283.86,302.9L288.62,305.74L290.67,308.37L289.95,310.11L285.63,314.24L283.77,316.23L281.99,318.47L280.45,320.73L279.49,321.65L280.02,323.96L279.45,324.53L279.31,325.82L279.88,326.26L281.27,326.22L281.96,326.61L282.22,327.46L281.14,329.64L281.29,333.92L280.93,335.19L280.88,336.86L281.35,338.06L282.45,339.56L275.95,339.58L274.35,340.17L272.01,340.26L270.71,340.5L267.65,342.14L263.87,342.5L262.72,343.35L261.97,345.87L260.63,347.9L257.55,349.27L253.59,351.82L252.46,352.06L249.27,352.31L248.29,353.59L247.78,355.12L247.15,358.17L246.86,358.98L245.62,359.84L244.42,361.27L241.88,361.99L239.87,362.11L237.82,361.93L237.21,361.64L235.78,360.02L235.1,359.72L232.47,359.46L230.8,358.76L229.6,358.64L228.56,358.11L227.81,358.23L226.53,359.75L224.64,361.71L222.93,362.72L219.35,364.13L216.93,364.38L215.09,363.83L212.6,362.07L211.32,361.82L210.06,361.09L209.26,358.71L210.7,357.15L211.44,355.9L211.97,353.63L211.57,352.59L210.61,351.54L209.17,350.47L207.8,349.91L205.89,349.79L204.84,349.96L201.9,351.39L199.32,350.4L197.62,350.54L196.58,350.38L194.98,349.38L193.29,348.97L192.56,346.96L191.41,346.03L190.66,343.95L189.89,343.43L186.36,343.11L184.71,343.24L183.21,344.1Z" stroke-miterlimit="10" stroke="#FFFFFF"/>
<path title="宁阳县" fill="#D3D3D3" id="path3" d="M193.29,348.97L194.98,349.38L196.58,350.38L197.62,350.54L199.32,350.4L201.9,351.39L204.84,349.96L205.89,349.79L207.8,349.91L209.17,350.47L210.61,351.54L211.57,352.59L211.97,353.63L211.44,355.9L210.7,357.15L209.26,358.71L210.06,361.09L211.32,361.82L212.6,362.07L215.09,363.83L216.93,364.38L219.35,364.13L222.93,362.72L224.64,361.71L226.53,359.75L227.81,358.23L228.56,358.11L229.6,358.64L230.8,358.76L232.47,359.46L235.1,359.72L235.78,360.02L237.21,361.64L237.82,361.93L239.87,362.11L241.88,361.99L244.42,361.27L245.62,359.84L246.86,358.98L247.15,358.17L247.78,355.12L248.29,353.59L249.27,352.31L252.46,352.06L253.59,351.82L257.55,349.27L260.63,347.9L261.97,345.87L262.72,343.35L263.87,342.5L267.65,342.14L270.71,340.5L272.01,340.26L274.35,340.17L275.95,339.58L282.45,339.56L285.92,339.36L286.86,339.16L289.83,338.96L291.93,338.46L294.61,338.18L295.66,338.6L298.35,339.29L305.61,339.88L308.3,341.04L310.5,342.19L311.89,342.04L313.88,342.31L315.87,342.95L319.17,343.11L321.41,342.64L323.27,342.01L324.69,341.23L326.06,340.13L326.79,338.67L327.98,338.22L329.66,338.31L332.19,339.67L333.18,339.8L335.28,339.64L337.07,340.95L338.61,341.05L341.27,342.31L343.09,343.69L343.95,344.58L344.13,345.7L343.98,347.01L343.35,348.29L343.28,350.61L342.8,352.54L343.43,354.45L344.6,356.28L347.81,360.31L349.44,361.1L349.66,363.09L351.06,364.1L353.1,364.83L355.13,362.45L355.8,362.12L357.02,362.7L358.68,362.88L359.28,363.22L359.84,364.27L360.97,365.22L362.75,365.96L364.13,367.17L366.14,367.69L368.71,367.98L369.82,367.38L369.68,369.52L369.94,370.49L371.01,371.83L372.26,372.88L374.73,375.86L375.51,377.75L375.89,381.07L376.59,382.55L376.78,386.45L378.27,389.2L380.57,392.76L381.98,395.26L382.52,396.5L383.48,396.75L385.8,396.82L386.91,397.08L385.78,397.93L384.17,401.01L381.76,401.86L380,403.45L376.94,405.24L375.11,405.85L374.73,406.55L373.58,407.49L372.71,407.61L369.56,407.28L368.84,407.02L362.46,406.5L359.7,404.79L357.98,404.67L356.27,404.97L354.22,406.07L352.26,405.89L349.7,405.21L348.12,404.5L346.47,404.13L345.24,404.37L343.55,405.2L342.98,406.11L338.42,407.29L336.76,407.36L335.64,407.97L334.28,409.03L332.75,408.91L332.11,408.04L332.52,407.56L334.74,406.25L335.56,405.19L335.44,403.45L334.64,402.51L333.02,401.75L328.76,401.1L327.11,401.31L325.93,401.05L324.39,400.32L323.61,399.01L323.31,396.95L322.57,395.61L321.01,394.57L318.41,395L318.27,395.63L316,397.88L315.53,397.53L314.63,398.22L314.73,399.25L315.13,399.3L314.43,400.27L312.29,399.77L312.13,398.95L311.31,398.58L310.16,396.92L307.91,396.14L305.91,396.15L302.87,396.68L300.87,396.86L297.31,394.61L295.56,393.74L292.35,393.67L290,394.37L290,396.81L290.61,398.89L290,399.76L288.69,402.38L287.47,405.51L287.3,407.42L286.95,408.64L286,410.21L284.76,411.63L282,412.05L281.47,412.4L279.22,412.58L278.01,413.28L276.36,416.33L276.1,417.72L276.62,418.68L278.01,420.32L278.53,421.71L278.09,423.63L278.76,423.35L278.79,424.88L279.63,425.35L279.71,425.94L279.05,425.75L278.77,427.31L277.62,427.68L277.15,428.58L275.04,428.66L274.66,429.21L271.42,429.37L271.26,430.98L270.18,431.03L269.47,431.48L269.36,432.17L267.46,432.16L267.19,433.02L265.71,433.09L265.63,433.96L264.9,434.55L260.98,433.83L260.11,434.2L259.38,433.89L258.3,434.33L258.19,434.84L257.29,434.65L257.02,433.96L255.94,435.78L255.94,437.48L255.47,438.87L255.52,440.04L254.49,439.85L254.66,441.13L253.83,441.63L253.78,440.74L252.57,440.89L252.3,441.95L250.19,442.46L250.14,441.16L248.34,441.42L247.71,440.79L247.71,440.1L246.6,439.95L246.65,438.78L245.33,439.05L245.28,438.36L244.12,437.89L243.59,436.51L242.48,436.3L242.45,435.52L239.49,435.36L238.29,435.7L237.83,432.56L236.28,432.27L234.61,432.25L234.18,433.29L234.01,436.25L233.67,437.81L232.63,439.72L231.78,440.52L232.69,442.3L228.05,442.6L224.59,442.41L224.16,437.97L222.6,435.47L222,434.08L221.91,433.19L221,432.69L219.66,431.39L216.98,432.44L214.63,433L214.56,434.21L212.56,434.14L212.57,433.23L210.75,433.23L206.26,432.34L205.73,434L203.13,433.49L203.67,431.8L202,431.36L201.04,430.76L200.43,429.63L199.99,426.59L199.64,425.81L198.86,425.2L196.87,425.13L192.71,426.63L189.59,428.21L184.65,429.45L181.11,431.2L178.08,432.35L176.21,432.67L174.4,432.55L173.76,431.63L173.3,429.86L173.31,424.93L174.09,422.49L173.71,420.06L174.03,417.62L174.09,415.88L174.51,414.57L175.62,413.08L176.91,412.19L180.87,410.23L183.65,410.54L187.23,412.23L188.88,412.47L190.53,411.78L191.29,411.23L191.32,409.99L191.7,408.69L192.51,407.69L192.63,406.59L193.39,404.75L194.85,402.73L195.87,398.94L196.45,397.37L196.83,395.22L196.83,393.27L196.23,391.32L194.57,389.38L193.2,388.21L192.13,387.73L190.23,387.26L186.96,385.81L184.14,384.26L182.21,382.64L181.5,381.6L179.83,379.71L176.77,377.4L175.81,376.89L174.84,375.69L174.3,373.87L174.19,371.69L175.03,369.16L177.11,367.02L179.07,366.12L183.61,364.81L186.04,363.13L190.17,359.48L190.25,356.73L191.06,354.53L191.85,350.64Z" stroke-miterlimit="10" stroke="#FFFFFF"/>
<path title="泰山区" fill="#D3D3D3" id="path1" d="M334.79,192.99L335.5,193.5L336.85,193.93L338.76,195.63L339.65,196.61L340.74,198.4L340.44,199.25L341.91,201.33L343.89,201.91L344.28,203.99L344.07,205.4L344.64,206.8L344.96,208.89L344.67,210.14L346.15,211.25L353.41,214.24L354.14,214.81L355.53,216.78L356.93,218.1L358.47,218.89L359.72,220.05L359.6,220.82L360.77,221L363.8,223.52L362.66,224.36L362.52,225.76L361.77,227.3L362.29,228.43L362.84,231.16L363.95,232.48L364.57,235.08L365.27,236.49L364.97,237.28L365.44,238.28L366.35,237.7L367.34,237.74L367.81,238.94L369.64,240.16L370.04,241.25L370.41,241.34L371.58,242.95L372.71,242.12L374.27,241.81L374.34,240.68L374.94,240.07L375.21,240.51L378.3,240.42L380.16,241.41L380.86,241.39L381.44,242.34L381.41,244.05L382.03,245.13L384.09,245.01L384.24,246.02L391.55,245.19L392.88,244.86L394.47,247.04L394.79,248.73L394.88,251.39L395.22,254.6L394.83,255.84L393.69,256.81L393.77,257.44L390.92,260.12L390.06,260.71L388.56,262.65L386.57,266.85L386.47,267.39L384.74,268.45L382.06,267.7L378.91,265.47L378.38,265.5L377.56,264.82L376.69,264.75L374.82,266.72L374.4,267.77L374.81,269.04L374.64,270.35L372.94,274.07L370.55,276.4L368.73,277.08L366.26,279.15L363.55,281.02L362.44,281.08L359.4,281.74L356.27,283.32L355.69,283.46L354.89,285.11L353.99,285.82L353.45,285.75L352.13,284.1L352.37,282.63L349.62,281.62L351.21,276.14L350.46,275.32L350.21,276.15L347.7,275.96L347.5,275.09L348.07,266.31L348.05,265.1L347.35,264.45L345.7,264.85L343.9,265.01L343.6,265.79L342.81,266.66L341.78,266.8L338.98,266.17L338.5,267.21L337.63,267.77L336.16,267.18L335.09,267.55L334.19,268.99L331.91,269.36L331.72,268.78L330,268.49L329.52,266.67L329.34,267.85L327.51,267.65L327.69,266.94L324.14,268.46L321.12,269.07L316.86,269.16L315.41,268.5L314.59,268.6L313.43,267.15L312.35,266.73L312.93,265.62L312.36,265.22L312.4,263.31L316.16,263.28L317.17,263.59L318.44,263.09L318.8,261.6L320.16,261.3L320.04,259.35L321.22,260.09L321.55,259.64L322.66,259.59L322.8,258.92L325.31,259.1L326.07,257.43L325.76,256.65L324.84,257.35L324.35,257.16L324.36,255.29L323.54,255.33L324.17,254.12L323.98,253.39L323.39,253.45L323.36,252.78L322.36,253.38L322.33,252.63L320.37,252.03L320.34,253.13L317.72,253.31L317.67,251.48L315.86,251.25L315.56,247.23L315.2,246.07L313.98,244.02L313.96,243.23L315.43,240.21L315.43,239.55L317.33,238.44L318.3,237.42L318.42,236.42L319.58,235.9L319.95,234.94L319.37,233.54L318.35,232.89L318.68,232.12L318.72,230.86L318.05,230.01L318.92,227.92L320.76,226.62L321.99,226.06L323.31,225.16L324.2,225.29L324.03,223.74L323.29,222.3L322.41,221.49L321.56,219.81L321.57,218.8L320.94,216.71L319.97,216.65L319.1,215.55L317.32,214.59L316.36,213.6L317.4,211.93L317.02,211.21L315.58,209.77L314.66,210.19L314.87,211.13L313.19,210.91L310.91,209.4L311.71,208.32L312.71,208.23L313.24,207.59L314.48,207.42L315.43,207.65L316.36,206.09L316.1,205.28L316.53,203.65L315.93,202.18L315.89,200.97L316.43,198.03L316.92,197.43L317.52,194.83L318.42,193.65L318.62,192.83L319.61,192.32L320.06,190.52L319.93,188.84L321.32,188.71L323.6,190.44L325.11,190.85L325.65,191.56L327,190.97L331.21,191.89L332.58,192.99L333.24,193.19Z" stroke-miterlimit="10" stroke="#FFFFFF"/>
<path title="新泰市" fill="#D3D3D3" id="path5" d="M386.91,397.08L385.8,396.82L383.48,396.75L382.52,396.5L381.98,395.26L380.57,392.76L378.27,389.2L376.78,386.45L376.59,382.55L375.89,381.07L375.51,377.75L374.73,375.86L372.26,372.88L371.01,371.83L369.94,370.49L369.68,369.52L369.82,367.38L371.32,365.84L371.99,364.57L373.47,364.46L375.59,365.65L376.88,366.6L378.59,366.51L379.87,366.7L381.5,366.24L381.98,364.83L382,362.56L382.97,360.18L383.19,357.64L383.48,357.1L384.5,356.71L386.84,354.77L388.41,352.88L388.67,351.64L390.28,347.73L392.81,345.6L393.75,343.13L393.73,340.53L392.38,338.65L391.35,336.3L391.18,334.81L392.4,332.03L393.11,330.72L393.29,329.15L392.51,327.76L390.78,326.88L389.39,325.23L388.52,323.48L388.7,322.44L389.6,321.48L391.45,320.65L393.55,317.72L395.6,315.06L396.78,311.93L398.73,310.05L400.75,309.21L407.13,307.48L409.83,307.18L413.57,306.89L415.88,308.93L416.83,310.72L418.17,311.58L420.11,311.95L422.92,310.01L424.82,308.4L427.48,305.41L431,302.95L432.67,301.51L434.27,299.43L435.99,298.43L436.48,297.68L435.63,296.91L436.38,295.93L435.28,293.4L434.05,292.39L432.26,288.82L432.44,287.4L433.7,286.56L436.06,286.94L437.39,286.02L438.36,286.52L439.56,286.15L440.53,285.13L440.33,284.03L441.78,282.35L443.26,282.33L443.76,283L443.69,283.94L444.58,283.61L445.38,282.82L446.99,282.55L448.26,283.31L452.96,280.2L455.24,278.95L457.16,278.29L459.41,278.26L461.1,280.3L462.69,287.23L463.87,289.08L465.4,290.51L469.79,292.35L473.96,291.83L477.77,291.9L481.64,293.99L483.69,295.68L486.6,297.92L490.12,299.99L494.59,301.77L499.93,301.75L504.02,301.32L504.88,300.78L506.21,302.05L507.31,302.54L508.33,303.47L509.27,303.75L511.1,304.78L512.21,304.84L512.76,305.64L514.02,306.38L514.25,306.14L515.4,307.35L514.88,308.07L515.9,309.4L518.47,309.07L519.31,308.36L520.17,307.06L520.78,306.98L522.13,309.07L524.41,311.3L525.5,313.31L524.84,314.67L523.43,316.14L523.81,317.23L524.55,317.56L525.35,319.84L525.38,323.76L527.29,324.2L529.14,323.04L530.81,322.37L532.88,322.42L533.21,321.35L534.3,320.09L534.02,318.47L533.26,317.91L534.11,316.71L535.1,316.41L537.1,314.93L538.47,315.22L539.08,315.76L542.32,315.53L542.02,316.58L542.63,316.64L543.07,315.89L544.4,315.17L544.85,316.17L546.49,315.61L546.87,315.93L547.56,317.64L548.12,317.58L549.44,316.52L550.46,316.93L551.14,317.7L552.11,317.95L552.22,317.54L551.59,316.14L552.1,315.98L553.7,316.71L554.08,317.55L555.46,318.07L556.01,317.3L557.8,317.2L559.13,317.87L560.13,317.24L560.27,316.63L561.32,316.32L562.4,314.47L564.93,313.36L566.63,313.93L567.95,312.95L569.94,312.81L570.08,313.05L571.81,313.34L573.28,312.9L573.95,313.06L575.59,314.59L576.52,314.81L577.75,317.51L577.51,318.76L580.26,319.01L580.84,320.66L581.11,322.74L581.86,325.1L581.17,326.58L580.92,327.83L582.36,331.26L583.94,331.67L583.63,333.12L583.95,335.75L586.09,336.69L586.99,336.22L590.6,332.6L591.44,332.11L592.73,332.28L595.48,332.35L596.46,331.41L597.2,331.12L597.95,331.42L596.52,334.49L595.86,335.57L595.44,337.3L595.99,339.67L596.69,340.57L597.59,342.41L599.44,345.56L599.93,347.15L600,349.04L599.19,351.74L596.63,355.38L595.24,355.82L594.51,356.33L594.07,357.21L593.83,359.1L593.98,360.72L593.88,362.6L593.06,363.27L591.2,363.96L590.43,364.73L587.95,370.05L587.07,370.21L584.42,369.02L582.89,368.5L581.05,368.24L578.54,367.05L577.05,365.92L576.11,365.56L571.41,364.51L570.37,364.47L569.28,364.77L566.83,364.3L564.36,365.28L562.52,367.03L561.55,368.24L559.29,370.13L558.24,371.6L557,374.11L555.77,377.58L553.34,378.6L551.69,379.54L550.99,380.4L547.14,386.1L547.04,387.5L547.46,388.37L551.32,392.06L551.83,392.86L552.76,395.39L552.91,398L552.11,399.47L550.81,400.58L548.3,401.69L547.78,402.21L547.51,403.16L547.32,405.33L547.48,406.55L549.08,411.61L549.49,413.18L550.24,416.93L550.22,418.84L549.52,419.79L548.74,420.04L547.28,419.94L545.81,419.58L544.86,420L543.38,421.55L542.25,422.06L539.66,422.03L536.3,421.39L533.11,421.62L530.85,422.73L529.19,424.46L528.29,425.8L526.52,428.96L525.74,430.03L524.61,430.89L523.42,430.82L521.8,430.22L518,429.85L515.15,428.09L513.52,426.61L510.25,424.68L508.69,424.75L507.38,425.53L507.12,426.33L505.64,426.82L504.41,428.03L501.55,429.5L499.46,430.19L496.85,430.87L495.99,430.87L494.17,430.42L492.88,430.33L490.1,430.58L487.84,431L485.15,433.07L484.45,433.94L483.05,436.62L480.16,441.3L478.84,444.07L477.77,449.63L476.88,453.79L476.25,460.86L469.82,453.39L468.27,452.24L466.04,449.88L460.04,445.23L457.12,442.43L455.49,441.02L453.1,437.79L452.76,436.31L453.12,434.49L453.9,433.45L455.71,432.51L455.95,431.84L454.77,430.53L453.86,430.19L451.44,429.81L449.84,429.83L447.44,431.03L445.53,430.91L444.68,431.61L443.74,431.55L443.96,430.46L442.83,428.77L443.13,427.66L442.97,426.54L442.09,425.23L441.72,424.17L439.9,422.16L434.87,419.65L431.93,418.51L428.04,417.64L427.47,415.52L426.19,413.33L425.27,411.43L424.2,409.82L422.79,408.1L421.15,406.43L420.45,406.05L416.42,408.03L414.87,408.37L412.9,409.1L412.17,409.01L411.35,408.31L410.47,406.19L409.28,405.82L407.77,406.62L404.76,407.92L403.64,407.21L402.63,406.05L401.7,404.28L400.4,403.19L398.27,402.6L398.03,402.02L397.53,399.07L396.67,398.37L395.01,398.18L393.79,398.29L390.57,398.99L389.58,398.96L388.22,398.32L387.77,397.61Z" stroke-miterlimit="10" stroke="#FFFFFF"/>
</svg>