<svg xmlns="http://www.w3.org/2000/svg" xmlns:xlink="http://www.w3.org/1999/xlink" width="600" height="600">
<path title="钢城区" fill="#D3D3D3" id="path10" d="M486.11,578L486.13,577.7L487.63,577.47L488.5,576.85L490.41,574.36L491.01,573.1L490.57,570.37L489.56,569.47L487.92,566.02L487.81,564.68L488.78,563.53L488.88,558.72L488.62,557.74L487.23,556.85L485.54,555.39L483.51,551.54L483.44,549.93L484.11,548.07L484.57,548.43L486.67,547.81L487.46,546.82L487.15,544.33L486.47,541.91L485.45,541.54L485.32,540.61L483.49,541.06L483.84,540.62L485.29,539.96L485.94,540.01L488.28,539.5L489.33,539.8L490.65,539.56L490.94,538.7L490.9,536.45L492.21,535.9L493.53,536.7L494.4,535.16L496.26,535.76L499.15,535.21L501.16,532.84L500.86,531.01L499.95,528.56L500.17,526.61L499.99,525.35L500.79,525.01L502.72,523.41L502.91,520.38L503.81,519.29L505.98,518.57L507.13,518.94L508.31,517.26L510.63,517.1L509.92,514.3L511.27,513.47L512.7,512.03L515.34,510.07L515.17,508.84L517.04,509.09L519.13,506.94L520.55,506.54L521.78,506.75L522.34,507.31L522.45,506.51L521.56,505.6L521.51,504.96L522.13,504.74L522.13,503.94L520.93,503L521.46,502.28L521.01,501.44L520.48,499.19L520.64,498.76L520.32,497.3L520.38,495.8L520.03,494.97L522.81,495.09L523.51,494.34L525.34,493.37L525.27,492.23L525.72,490.67L526.07,490.37L527.66,490.12L530.05,488.84L530.68,487.98L531.45,487.6L531.81,486.84L531.86,485.29L532.55,484.89L532.86,486.2L534.11,487.75L534.76,487.89L535.41,488.87L535.35,490.82L537.37,494.87L537.82,497.21L538.46,497.6L539.62,497.58L539.76,496.55L540.21,495.97L542.42,495.81L543.4,494.53L545.34,493.49L546.3,494.23L547.97,492.68L549.19,492.23L552.33,491.82L553.4,492.88L554.04,492.77L555.05,492.04L557.8,491.12L558.24,490.53L559.31,491.49L561.48,491.73L562.72,490.63L565.19,491.22L566.14,491.9L568.31,491.7L571.84,492.83L571.94,493.69L572.58,495.16L571.89,496.15L571.16,498.97L570.02,500.61L569,505.39L569.61,508.31L568.84,509.59L569.55,512.62L570.23,513.59L568.82,514.99L568.23,516.96L567.59,517.58L566.35,516.46L564.07,515.92L562.79,516.16L560.65,517.46L559.71,518.24L559.29,520.56L558,520.57L557.46,519.49L555.85,517.83L554.7,517.77L553.66,518.93L553.68,521.68L554.06,522.12L552.59,524.79L551.55,526.31L551.02,528.41L549.91,529.4L550.04,530.03L551.57,529.75L552.88,530.2L554.68,533.39L554.51,534.23L553.7,533.88L553.4,534.5L554.01,534.64L553.55,536.08L552.37,535.97L551.18,537.5L551.86,539.42L552.4,539.38L552.81,541.08L553.51,542.16L552.93,542.51L552.86,545.21L553.69,546.91L554.49,547.01L554.68,549.14L555.85,549.99L556.54,551.12L555.96,553.69L555.69,553.98L556.81,555.18L556.71,556.96L557.14,558.09L558.21,558.89L558.92,560.08L561.57,560.03L563.03,558.61L563.63,557.69L564.42,558.43L563.78,559.55L563.87,560.21L565.93,561.62L565.66,564.84L563.5,564.97L563.18,567L562.17,568.72L563.62,570.52L564.32,572.27L562.65,572.6L560.25,572.8L559.28,574.9L559.32,576.27L560.63,578.5L561.76,579.62L563.02,580.08L563.71,580L563.74,582.55L562.68,582.81L561.7,584.07L562.18,584.94L563.67,584.71L564.22,587.23L565.02,588.39L564.64,589.35L562.61,589.72L562.78,590.75L563.5,592.04L564.78,595.76L565.14,596.35L564.94,597.74L563,598.04L562.14,597.74L560.8,597.73L560.62,596.36L560.03,594.68L557.24,594.43L557.49,593.17L556.24,590.43L555.29,590.21L553.63,588.67L552.95,588.5L551.47,588.94L549.71,588.65L549.57,588.4L547.56,588.55L546.22,589.54L544.5,588.97L541.94,590.08L540.84,591.97L539.78,592.28L539.63,592.9L538.62,593.54L537.27,592.86L535.47,592.95L534.9,593.74L533.5,593.2L533.12,592.36L531.5,591.62L530.97,591.78L531.62,593.2L531.51,593.62L530.52,593.36L529.83,592.58L528.81,592.16L527.47,593.24L526.9,593.3L526.2,591.57L525.81,591.24L524.15,591.82L523.7,590.8L522.35,591.53L521.9,592.29L521.29,592.22L521.59,591.16L518.3,591.4L517.69,590.84L516.29,590.56L514.27,592.06L513.27,592.36L512.41,593.57L513.18,594.14L513.46,595.78L512.36,597.05L512.03,598.14L509.92,598.09L508.23,598.77L507,599.64L506.05,600L504.43,599.51L504.4,595.52L503.58,593.21L502.83,592.88L502.44,591.78L503.87,590.29L504.54,588.91L503.45,586.87L502.78,586.07L501.13,584.62L499.76,582.5L499.15,582.58L498.27,583.9L497.42,584.62L494.82,584.95L493.79,583.61L494.31,582.88L493.16,581.65L492.92,581.89L491.64,581.14L491.09,580.33L489.96,580.27L488.1,579.23L487.15,578.94Z" stroke-miterlimit="10" stroke="#FFFFFF"/>
<path title="槐荫区" fill="#D3D3D3" id="path3" d="M264.78,338.42L265.2,339.57L264.49,340.77L264.87,343.67L263.91,344.72L263.98,347.24L262.82,347.5L263.32,350.66L262.37,352.43L262.04,353.89L261.52,353.97L260.66,351.82L259.68,350.49L259.18,349.06L258.16,348.17L257.64,348.84L257.14,350.53L256.16,350.08L255.7,350.58L254.41,350.55L253.84,350.19L253.38,348.98L253.26,347.12L251.77,345.77L251.73,344.75L251.34,344.88L250.9,346.07L250,346.25L249.67,347.24L247.96,347.19L247.81,346.26L246.08,346.22L245.43,346.59L243.67,345.18L243.66,346.35L243.23,347.3L241.02,347.13L241.54,348.39L241.49,350.72L242.49,351.36L242.64,354.57L242.4,355.27L241.59,355.78L240.75,355.58L239.87,355.9L238.91,356.99L237.42,357.93L236.86,357.95L236.04,357.2L234.69,356.83L233.44,356.04L233.48,356.94L232.4,356.92L232.42,356.53L230.32,356.4L230.37,355.07L229.08,355.04L229.29,354.67L228.78,353.49L228.1,352.98L220.72,354.43L220.6,351.32L219.43,351.17L218.02,351.38L218.26,352.13L217.76,353.52L217.08,354.1L215.78,354.05L214.89,355.11L214.08,355.11L214.2,355.78L213.25,355.71L209.05,353.85L208.7,353.12L208.8,351.27L210.03,350.05L210.28,348.51L209.05,345.24L208.97,344.46L209.4,342.52L211.76,335.64L213.35,334.43L212.92,333.46L210.76,331.99L206.53,325.19L206.64,323.8L207.15,322.9L209.51,320.55L212.57,318.57L215.91,316.25L217.98,315.19L219.54,314.7L221.78,314.27L223.92,314.07L225.53,313.72L227.05,312.56L229.35,310.04L231.79,308.4L233.33,307.82L235.44,307.6L240.98,308.11L242.78,308.37L243.97,308.77L245.95,310L245.89,313.28L245.62,316.8L245.62,319.13L247.35,319.28L247.07,321.12L250.97,321.36L250.95,323.48L250.05,324.18L250.95,324.57L251.2,326.06L252.91,326.16L252.84,329.09L253.62,330.3L253.67,331.55L254.07,331.68L253.86,332.68L255.26,334.8L255.28,336.56L257.07,336.74L258.51,339L260.97,338.87L261.9,339.38Z" stroke-miterlimit="10" stroke="#FFFFFF"/>
<path title="济阳区" fill="#D3D3D3" id="path8" d="M256.81,261.21L256.72,260.33L257.14,255.22L257.13,250.06L256.28,244.79L255.35,241.25L253.24,239.66L250.91,238.59L248.18,237.55L248.11,236.79L246.21,235.58L246.28,234.82L244.49,234.21L248.5,234.2L248.66,231.86L245.91,231.7L246.49,229.78L247.38,229.67L247.85,224.45L247.31,224.07L245.71,224.12L244.61,223.75L243.22,223.69L242.53,224L240.48,224.03L239.9,223.79L239.87,223L236.76,223.23L236.7,219.69L237.19,217.45L235.07,216.33L234.98,217.49L234.24,216.85L233.14,215.09L233.4,214.12L232.68,213.57L233.01,212.02L231.6,211.3L231.67,210.55L231.09,210.22L229.69,210.29L229.67,208.96L232.41,209.09L234.84,207.62L236.56,205.12L238.74,202.21L239.89,201.25L242.06,200.1L245.37,198.67L250.91,196.62L252.64,194.41L251.25,192.15L248.68,191.04L246.39,188.76L245.46,184.37L245.32,181.41L244.28,179.25L243.59,176.92L243.35,174.68L243.39,172.35L247.27,169.44L250.68,168.4L254,167.1L257.23,166.42L259.91,164.8L263.2,164.32L265.33,163.45L267.77,162.13L270.02,161.35L272.08,161.28L276.19,161.95L280.49,161.32L281.17,161.93L281.24,163.12L281.77,162.97L282.56,162.54L282.94,163.98L284.45,163.74L284.75,164.31L285.9,164.22L286.16,163.66L286.01,161.79L287.91,161.15L288.06,160.25L296.09,159.5L299.59,158.56L304.08,156.84L307.51,154.3L310.11,153.35L312.34,153.3L319.42,157.26L319.5,157.95L320.98,157.47L324.9,157.9L326.41,157.74L331.31,155.96L333.59,155.25L334.88,153.99L336.57,149.26L337.84,147.07L339.57,145.75L342.79,144.16L346.02,143.05L348.8,140.7L357.62,138.69L364.36,135.42L367.22,133.6L368.62,132.48L368.62,132.16L371.72,129.27L372.2,128.34L373.35,127.64L376.4,129.54L377.69,132.51L379.55,133.44L381.54,132.31L382.03,129.98L380.48,126.64L379.2,122.85L379.71,119.37L384.17,115.93L386.34,114.71L388.96,112.96L391.03,112.28L392.29,112.92L392.34,116.18L392.77,118.51L393.55,121.1L394.82,123.81L396.08,125.78L397.79,128.09L398.86,130.53L402.34,134.5L404.53,136.69L405.83,138.87L406.58,141.93L406.78,145.79L407,147.41L408.29,147.34L408.29,148.46L409.08,148.54L409.07,152.55L410.3,152.4L410.55,153.2L410.81,155.92L409.56,155.91L409.16,158.26L409.77,158.11L410.61,162.73L410.94,163.99L411.38,164.11L411.9,165.75L408.18,170.23L406.39,172.14L405.22,172.72L401.96,173.17L396.16,173.77L394.7,174.04L393.05,174.68L390.53,176.1L387.46,178.62L384.82,180.52L382.45,181.65L380.34,181.78L378.55,181.46L373.47,179.81L367.1,178.91L365.23,179.43L364.38,180.06L361.86,183.25L360.99,184.65L358.86,186.69L356.69,188.19L350.45,190.12L346.19,191.95L344.6,193.01L344.07,194.26L344.08,196.99L343.67,198.08L343.63,201.88L343.76,204.27L344.29,209.27L345.14,214.85L345.15,218.16L344.74,220.83L343.7,222.85L342.3,224.89L340.46,227.02L336.89,231.58L332.18,237.22L327.62,242.37L326.2,244.55L325.56,246.83L325.79,250.69L323.52,256.15L322.24,260.47L321.41,261.89L320.13,262.72L317.99,262.97L315.86,262.95L314.89,264.01L314.44,264.96L314.16,267.07L314.36,269.58L314.9,272.32L314.59,273.3L311.77,275.85L309.86,278.4L307,283.92L305.83,287.42L304.75,289.34L303.22,290.14L301.53,290.17L298.53,290.81L297.23,291.43L294.93,293.33L292.38,293.26L289.86,292.95L289.29,291L287.55,290.72L287.51,289.51L286.2,288.99L286.2,287.89L284.95,287.53L284.61,286.72L285.78,284.15L286.74,283.52L286.48,282.58L287.06,281.59L287.81,281.31L288.24,280.45L288.26,278.08L289.11,277.57L289.12,273.6L288.42,273.61L287.78,271.65L287.99,269.74L288.49,269.74L288.49,267.75L289.21,267.51L289.38,265.3L289.01,264.51L288.98,262.67L288.05,262.51L287.44,261.26L285.89,261.22L285.79,261.82L284.55,261.19L282.94,261.07L281.61,261.4L279.73,262.76L279.75,263.16L277.77,263.88L277.67,264.19L275.54,264.46L274.36,264.97L274.39,265.57L273.09,265.72L273.07,266.24L270.34,265.93L268.18,265.39L266.44,265.2L265.15,265.44L265,266.04L263.49,265.24L263.43,264.46L262.76,263.08L262,263.25L261.7,261.93L259.89,261.91L259.9,262.26L258.03,262.09Z" stroke-miterlimit="10" stroke="#FFFFFF"/>
<path title="莱芜区" fill="#D3D3D3" id="path9" d="M558.24,490.53L557.8,491.12L555.05,492.04L554.04,492.77L553.4,492.88L552.33,491.82L549.19,492.23L547.97,492.68L546.3,494.23L545.34,493.49L543.4,494.53L542.42,495.81L540.21,495.97L539.76,496.55L539.62,497.58L538.46,497.6L537.82,497.21L537.37,494.87L535.35,490.82L535.41,488.87L534.76,487.89L534.11,487.75L532.86,486.2L532.55,484.89L531.86,485.29L531.81,486.84L531.45,487.6L530.68,487.98L530.05,488.84L527.66,490.12L526.07,490.37L525.72,490.67L525.27,492.23L525.34,493.37L523.51,494.34L522.81,495.09L520.03,494.97L520.38,495.8L520.32,497.3L520.64,498.76L520.48,499.19L521.01,501.44L521.46,502.28L520.93,503L522.13,503.94L522.13,504.74L521.51,504.96L521.56,505.6L522.45,506.51L522.34,507.31L521.78,506.75L520.55,506.54L519.13,506.94L517.04,509.09L515.17,508.84L515.34,510.07L512.7,512.03L511.27,513.47L509.92,514.3L510.63,517.1L508.31,517.26L507.13,518.94L505.98,518.57L503.81,519.29L502.91,520.38L502.72,523.41L500.79,525.01L499.99,525.35L500.17,526.61L499.95,528.56L500.86,531.01L501.16,532.84L499.15,535.21L496.26,535.76L494.4,535.16L493.53,536.7L492.21,535.9L490.9,536.45L490.94,538.7L490.65,539.56L489.33,539.8L488.28,539.5L485.94,540.01L485.29,539.96L483.84,540.62L483.49,541.06L485.32,540.61L485.45,541.54L486.47,541.91L487.15,544.33L487.46,546.82L486.67,547.81L484.57,548.43L484.11,548.07L483.44,549.93L483.51,551.54L485.54,555.39L487.23,556.85L488.62,557.74L488.88,558.72L488.78,563.53L487.81,564.68L487.92,566.02L489.56,569.47L490.57,570.37L491.01,573.1L490.41,574.36L488.5,576.85L487.63,577.47L486.13,577.7L486.11,578L485,577.51L483.66,576.22L482.78,576.77L478.64,577.19L473.23,577.22L468.7,575.42L465.13,573.32L462.19,571.06L460.11,569.33L456.19,567.23L452.33,567.14L448.1,567.67L443.66,565.81L442.11,564.37L440.92,562.48L439.94,558.49L439.3,555.47L437.59,553.4L435.3,553.43L433.36,554.1L431.06,555.37L426.29,558.52L425.01,557.75L423.37,558.02L422.56,558.82L421.66,559.16L421.73,558.2L421.23,557.53L419.73,557.55L418.26,559.24L418.46,560.36L417.48,561.4L416.26,561.77L415.28,561.26L413.93,562.19L411.54,561.81L410.26,562.66L409.48,562.7L408.15,561.53L407.94,560.91L408.99,560.08L408.28,559.11L409.16,559.01L410.78,557.66L410.76,556.19L410.33,555.29L410.38,553.52L411.49,553.4L413.28,552.59L413.58,551.93L413.1,551.34L411.65,551.18L409.2,551.3L408.33,550.7L407.86,549.8L409.31,545.79L409.25,544.65L409.95,543.86L410.33,542.54L410.51,540.73L411.03,540.28L411.87,538.62L413.05,538.08L413.9,536.95L414.83,536.74L415.36,537.48L414.97,538.33L417.14,538.51L419.93,536.8L420.5,536.23L420.69,534.99L419.78,533.35L419.3,531.62L420.31,531.61L420.64,531.01L419.78,530.56L418.36,531.23L417.57,530.75L416.85,529.63L415.3,529.75L415.17,530.66L414.45,529.8L412.36,530.75L412.05,529.82L410.11,528.25L410.18,526.63L409.31,526.73L408.64,526L407.93,524.3L407.97,522.94L405.88,522.65L406.79,521.26L409.04,519.05L409.62,518.03L408.88,517.66L408.17,517.87L407.43,516.07L408.18,515.9L408.36,514.97L408.04,512.18L405.47,512.35L404.76,511.99L403.58,510.8L401.98,510.88L401.4,511.72L399.8,512.69L398.97,513.96L397.24,515.02L394.46,514.26L393.13,513.45L392.47,511.73L391.24,511.31L391.17,510.37L389.66,509.92L388.67,508.82L391.13,508.91L391.52,508.28L391.51,506.37L391.07,504.78L393.72,504.27L396.05,502.77L397.4,502.88L398.65,502.37L398.13,501.08L397.79,499.13L397.6,493L392.96,493.64L391.57,493.54L391.6,492.22L391.12,491.01L392.56,489.3L392.59,486.87L390.76,486.27L389.41,486.18L390,484.25L388.58,484.42L388.88,482.75L389.5,482.02L388.9,479.69L387.39,477.78L386.94,474.74L387.83,472.63L389.75,470.49L390.17,470.55L390.3,468.52L389.46,465.93L387.73,463.86L386.08,462.24L384.26,460L381.65,457.3L378.24,450.42L378.46,447.94L377.81,444.47L376.11,440.36L375.13,435.83L374.4,431.91L374.31,427.12L375.27,422.87L376.73,420.32L376.57,417.22L379.09,420.36L381.25,423.41L383.77,426.56L385.26,427.82L389.22,428.76L390.7,428.62L392.25,427.93L393.89,424.76L396.25,421.43L398.61,417.83L400.49,416.26L402.97,415.68L405.89,415.38L408.95,415.49L411.09,416.02L413.39,415.89L415.34,415.31L417.75,413.13L419.43,412.04L418.4,410.96L419.24,409.38L419.31,408.08L421.04,407.91L423.91,404.87L424.27,404.26L423.69,403.14L423.64,401.37L424.63,399.39L425.15,399.06L426.83,400.2L429.46,401.46L430.26,402.28L431.21,402.39L431.68,401.19L435.62,401.17L437.05,399.45L439.53,398.54L439.57,397.9L440.41,397.67L442.94,397.62L444.04,398.22L444.49,397.61L445.01,395.61L447.03,395.35L447.75,394.86L448.79,392.79L449.37,392.34L450.41,392.24L451.04,391.25L451.94,390.48L452.61,389.46L452.55,388.73L453.54,387.25L454.98,387.17L455.59,386.25L456.81,386.52L457.43,386.09L459.88,386.15L461.21,384.85L461.11,384.46L462.61,384L464.13,382.4L464.82,382.28L465.49,382.91L465.08,383.53L465.24,384.25L467.15,385.67L470.25,389.08L471.54,389.79L472.46,389.75L475.52,390.54L475.8,391.24L478.74,393.36L479.68,393.74L480.63,393.11L482.32,393.24L483.43,393.83L483.61,395.09L484.65,395.44L487.41,395.67L489.93,396.14L492.63,395.49L496.54,392.92L498.02,392.68L498.5,392.99L500.01,393.17L502.6,393.6L504.48,395.74L505.74,396.36L507.3,398.12L507.21,399.48L504.96,400.41L503.75,400.02L504.81,399.83L505.51,399.29L504.66,399.07L502.87,399.29L500.61,400.22L499.81,400.14L497.94,401.22L498.45,401.49L500.2,403.77L502.65,403.67L502.58,404.61L503.18,404.95L504.12,404.63L505.17,407.31L504.65,409.17L501.92,411.43L503.04,411.62L503.18,412.17L504.64,412.92L505.02,412.69L505.52,414.96L505.96,415.25L507.2,414.85L507.38,416.13L506.76,417.44L505.81,417.77L504.72,417.38L503.44,418.37L504.53,419L505.66,421.4L506.57,421.42L504.61,423.59L504.15,424.37L505.34,426.09L506.86,425.64L507.81,424.91L509.15,425.04L510.04,425.87L511.64,425.94L512.81,428.18L513.35,428.85L513.38,429.76L514.39,430.43L515.16,428.79L513.71,428.63L513.75,428.07L514.62,426.17L515.29,426.03L516.84,426.55L517.7,427.71L517.72,429.41L518.91,429.08L521.43,427.65L522.7,428.37L523.32,427.92L523.95,425.45L523.29,425.1L523.18,424.35L524.31,423.93L525.03,425.24L526.78,424.88L528.25,425.25L528.65,426L528.31,427.26L527.21,427.99L527.05,429.29L526.29,431.41L526.75,432.61L527.14,435.03L527.6,435.12L528.19,434.45L529.45,435.54L535.11,436.89L535.92,438.11L536.07,439.45L535.81,440.49L536.11,441.74L535.88,442.85L535.12,443.69L535.28,444.5L536.42,445.99L537.72,446.41L538.98,447.17L540.53,449.33L541.32,449.91L541.36,450.65L542.79,453.28L543.66,453.16L543.68,455.53L543.18,456.84L543.74,457.28L543.53,458.66L543.88,458.99L544.73,458.52L545.35,456.36L545.89,455.2L546.93,455.16L547.62,457.68L547.09,460.13L546.68,460.69L547.33,462.12L546.64,462.78L545.97,464.4L545.89,465.67L546.34,466.24L547.28,466.47L547.06,465.33L548.62,462.75L550.26,462.44L549.92,460.47L550.83,459.52L551.59,460.61L552.53,461.01L553.49,460.91L553.88,460.13L555.49,460.88L557.03,460.77L556.53,459.44L556.71,459.12L558.02,459.39L558.67,460.28L558.7,462.25L559.85,462.3L559.87,463.23L559.11,463.28L558.45,462.83L557.92,461.91L558.14,461.13L556.35,461.33L557.68,462.09L558.78,463.45L558.11,463.89L559.08,463.89L559.66,464.66L558.56,465.12L559.03,465.94L559.86,466.16L559.53,467.3L558.5,467.49L558.65,466.62L557.89,467.17L557.82,469.05L557.47,469.57L556.07,470.04L555.22,471.03L554.81,472.68L554.81,473.74L555.84,474.03L556.85,475.5L556.75,477.35L556.2,477.54L556.13,480.39L557.16,483.51L558.38,484.07L558.81,486.89L557.95,488.06L557.46,489.29Z" stroke-miterlimit="10" stroke="#FFFFFF"/>
<path title="历城区" fill="#D3D3D3" id="path5" d="M285.11,329.51L285.49,328.29L284.68,328.46L283.85,327.82L283.34,326.49L284,326.11L285.14,324.89L285.37,325.4L285.8,324.33L287.07,323.04L288.62,321.84L288.65,321.45L287.68,320.61L287.22,321.15L287.51,322.1L286.67,322.64L285.69,321.14L284.27,320.91L283.09,319.89L282.26,319.77L281.37,320.35L279.64,320.13L279.52,321.37L278.65,321.31L278.45,318.97L277.09,316.91L277.54,314.51L276.77,313.29L275.47,310.63L275.01,309.35L275.12,307.63L275.84,306.22L277.77,304.24L279.67,303.72L284.36,303.5L285.53,302.97L286.67,301.94L289.66,299.67L294.05,296.85L294.38,296.01L294.93,293.33L297.23,291.43L298.53,290.81L301.53,290.17L303.22,290.14L304.75,289.34L305.83,287.42L307,283.92L309.86,278.4L311.77,275.85L314.59,273.3L314.9,272.32L314.36,269.58L314.16,267.07L314.44,264.96L314.89,264.01L315.86,262.95L317.99,262.97L320.13,262.72L321.41,261.89L322.24,260.47L323.52,256.15L325.79,250.69L326.53,252.19L333.18,252.24L334.39,254.22L334.26,256.99L333.77,259.57L333.91,261.45L337,262.75L340.73,262.82L343.49,262.42L348.05,261.07L350.52,262.36L351.73,264.97L352.6,264.22L353.76,263.7L356.36,261.92L362.2,257.49L364.59,255.91L368.43,254.43L368.58,254.79L368.68,258.49L370.9,258.21L370.97,256.47L371.99,256.72L372.11,258.27L371.89,260.84L371.09,261.75L370.84,264.79L371.98,265.05L372.69,267.16L374.46,266.58L374.19,268.27L373.27,268.4L373.41,269.6L374.94,269.88L376.34,271.26L376.89,274.27L377.21,276.91L377.12,280.24L376.69,283.56L375.15,284.36L374.06,283.59L373.32,283.58L373.46,284.31L371.94,286.05L371.74,287.6L370.95,287.86L370.97,289.3L366.55,290.88L366.53,291.79L368.48,292.76L371.1,293.05L371.1,294.1L372.34,294.21L372.24,298.56L372.34,299.35L373.41,300.06L373.52,301.48L374.78,301.96L374.67,304.5L375.01,304.81L375.28,307.02L376.77,307.28L376.74,308.07L375.1,308.32L375.1,309.05L375.82,310.07L375.19,309.83L375.99,312.6L377.63,315.48L379.71,318.45L380.99,321.5L381.58,328.37L381.9,330.69L382.98,334.54L384.68,338.66L385.67,342.77L385.71,345.71L385.22,347.93L381.96,351.96L381.03,354L381.06,357.38L381.65,359.35L381.59,364.87L380,365.57L378.02,365.46L378.2,366.81L378.96,368.19L379.59,368.8L380.13,372.24L377.53,374.06L375.57,374.87L375.86,377.13L373.44,378.76L372.49,379.16L370.82,378.26L370.08,378.66L369.59,379.5L371.35,379.89L371.27,380.46L372.56,382.58L370.03,384.77L368.24,386.94L366.7,388.35L366.18,390.18L366.47,390.98L367.51,390.74L366.77,391.94L367.33,392.16L368.14,391.7L368.18,393.22L367.93,394.79L368.18,395.52L370.93,395.67L372.29,396.76L372.34,398.61L371.9,399.53L370.25,400.25L370,401.7L369.59,402.08L367.19,401.15L366.99,401.85L367.66,402.83L365.51,405.79L363.83,405.74L365.12,406.28L365.04,408.21L366.25,408.87L365.64,411.17L364.52,412.53L364.05,413.86L362.8,413.43L362.3,413.63L360.99,413.36L359.71,412.5L358.44,412.44L358.9,413.65L358.68,415.29L357.95,416.61L356.78,418.16L355.96,418.64L355.15,420.36L354.57,422.06L350.85,422.84L349.89,424.11L349.36,425.46L348.15,425.84L346.43,427.67L345.94,428.75L345.85,430.47L345.1,432.94L343.97,435.02L344.07,435.98L342.69,437.61L341.59,437.04L340.73,436.96L338.81,437.91L337.64,439.07L336.65,439.52L333.67,439.85L333.47,441.18L332.6,442.29L331.95,442.54L331.56,445.05L331.24,445.86L328.35,450.13L325.86,452.09L325.02,452.54L324.31,454.3L324.35,455.31L325.18,456.06L325.64,457.07L324.6,460.05L321.42,460.59L318.91,460.53L315.19,462.69L314.35,462.96L313.04,462.91L310.84,465.29L311.32,467.01L309.76,467.21L309.09,467.01L307.7,465.89L303.44,464.96L302.07,465.56L301.52,464.84L299.99,464.42L297.67,462.68L296.27,462.8L296.4,464.51L295.95,466.34L294.94,466.85L294.74,467.67L293.83,468.87L292.99,468.46L290.38,464.46L288.88,464.79L288.78,463.71L287.95,462.51L287.12,462.09L286.4,462.6L285.8,461.76L286.57,460.55L287.5,460.21L288.08,459.31L287,458.29L284.61,456.89L282.14,455.83L278.51,455.09L275.99,455.36L273.27,455.18L274.37,453.15L273.79,451.29L274.33,450.2L274.09,449.3L273.16,448.49L274,447.4L274.66,444.95L273.99,444.45L272.83,442.18L272.16,441.3L272.06,437.65L272.2,435.77L271.7,434.27L272.08,433.34L271.11,432.2L270.53,431.99L269.63,431.03L267.15,429.56L267.1,429.04L265.44,426.73L263.65,425.99L260.64,426.18L258.07,425.5L257.5,425.01L256.63,423.35L256.56,422.75L257.91,421.83L257.52,416.29L256.12,414.64L253.48,412.03L252.69,411.61L250.63,411.64L249.77,411.12L249.82,410.13L249.38,409.21L247.95,408.8L247.86,407.14L248.08,403.93L249.43,403.17L250.85,403.34L251.37,402.35L251.12,401.16L251.55,399.99L252.91,398.69L253.27,399.23L253.6,398.09L253.31,397.34L255,396.54L255.92,395.58L257.52,394.97L261.53,395.92L262.35,395.9L262.39,394.87L263.49,394.69L264.06,395.54L263.91,394.23L262.9,392.76L263.11,392L264.32,390.48L266.98,389.37L267.49,388.38L269.49,387.86L270.93,386.95L272.18,386.64L273.63,385.47L275.79,385.15L276.23,385.55L277.56,382.13L277.13,381.87L275.88,379.69L276.71,379.6L276.98,378.39L277.69,377.3L279.35,378.38L280,378.45L281.05,376.1L281.4,374.91L282.84,374L282.84,375.46L284.28,375.47L285.63,376.8L288.97,375.99L290.46,374.6L293.09,374.94L293.9,376.09L293.27,377.88L293.22,380.12L294.34,379.52L295.25,380.52L295.73,382.88L297.02,383.76L297.13,384.65L299.51,387.5L299.95,387.78L303.91,389.13L305.06,388.19L306.6,387.31L306.96,386.67L308.77,386.55L309.4,387.3L309.03,388.23L310.8,388.76L312.63,387.69L314.4,387.57L315.16,387.27L316.44,387.4L318.46,385.48L319.03,383.57L318.62,381.99L317.76,381.53L318.3,379.65L317.94,377.2L317.09,376.61L314.5,377.61L312.95,377.02L311.84,373.83L312.09,373.16L311.33,372.25L310.63,372.74L310.73,371.49L309.76,370.47L307.91,369.77L308.39,367.78L309.35,367.32L310.34,367.02L311.86,364.91L311.94,362.72L311.75,360.9L312,359.72L311.87,358.29L312.25,356.83L313.13,356.11L314.25,355.83L314.5,355.23L311.26,353.6L310.39,351.45L310.84,349.91L310.64,349.29L310.67,345.7L311.76,345.2L311.72,344.37L310.54,344.28L310.08,343.74L310.15,342.86L311.36,342.89L311.49,341.23L312.88,340.58L311.15,337.84L311.93,336.62L312.57,336.3L312.87,336.96L315.55,336.69L315.81,338.35L316.66,338.22L316.76,338.81L318.24,339.23L319.07,339.06L320.73,341.36L322.37,341.84L324.52,341.42L324.92,340.61L324.67,339.65L323.95,339.43L323.29,337L322.56,336.74L322.11,335.45L321.11,335.06L322.5,334.92L322.53,333.28L321.75,332.4L321.12,332.5L320.94,331.88L321.61,330.33L321.17,329.93L321.52,329.03L321.59,327.33L320.3,326.2L320.73,322.38L319.83,322.35L319.49,322.99L319.61,325.08L318.43,325.04L318.09,323.14L317.26,323.15L317.14,325.94L315.76,326.54L314.95,324.97L314.79,323.96L313.94,324.06L313.33,322.53L312.54,322.31L308.01,322.97L303.25,322.56L299.88,322.97L300.1,324.45L299.9,327.68L299.58,328.01L298.72,327.63L297.85,328.34L296.72,328.04L296.42,329.08L296.87,329.03L296.94,330.62L296.62,330.98L296.55,332.21L297.6,332.27L297.61,333.63L296.76,333.53L296.53,333.03L295.34,333.09L295.1,333.68L295.07,335.55L293.72,336.31L293.13,335.97L293.13,337.56L292.33,337.79L292,338.6L291.48,337.98L290.06,337.72L290.03,337.33L288.56,337.44L286.83,337.29L286.08,336.75L286.07,333.63L284.95,330.13Z" stroke-miterlimit="10" stroke="#FFFFFF"/>
<path title="历下区" fill="#D3D3D3" id="path1" d="M309.35,367.32L308.58,366.42L307.41,366.09L306.01,366.4L299.99,362.09L298.51,361.73L297.23,362.09L295.35,361.85L290.63,355.97L290.16,354.1L287.64,353.38L286.66,353.54L285.69,354.46L284.87,354.47L283.88,353.85L281.83,353.76L280.42,353.31L278.59,351.45L277.43,350.73L275.68,350.09L275.28,350.54L273.08,350.58L272.69,350.12L272.87,346.95L272.85,343.05L273.35,342.56L273.35,341.28L272.73,340.98L273.59,339.48L273.55,336.02L273.78,334.76L274.36,334.27L276.77,333.92L278.66,333.93L278.51,332.49L280.44,331.96L281.06,332.83L281.19,333.7L282.34,333.67L282.08,332.87L283.91,330.75L283.39,330.53L284.54,330.11L284.41,329.69L283.51,329.67L285.09,328.91L285.11,329.51L284.95,330.13L286.07,333.63L286.08,336.75L286.83,337.29L288.56,337.44L290.03,337.33L290.06,337.72L291.48,337.98L292,338.6L292.33,337.79L293.13,337.56L293.13,335.97L293.72,336.31L295.07,335.55L295.1,333.68L295.34,333.09L296.53,333.03L296.76,333.53L297.61,333.63L297.6,332.27L296.55,332.21L296.62,330.98L296.94,330.62L296.87,329.03L296.42,329.08L296.72,328.04L297.85,328.34L298.72,327.63L299.58,328.01L299.9,327.68L300.1,324.45L299.88,322.97L303.25,322.56L308.01,322.97L312.54,322.31L313.33,322.53L313.94,324.06L314.79,323.96L314.95,324.97L315.76,326.54L317.14,325.94L317.26,323.15L318.09,323.14L318.43,325.04L319.61,325.08L319.49,322.99L319.83,322.35L320.73,322.38L320.3,326.2L321.59,327.33L321.52,329.03L321.17,329.93L321.61,330.33L320.94,331.88L321.12,332.5L321.75,332.4L322.53,333.28L322.5,334.92L321.11,335.06L322.11,335.45L322.56,336.74L323.29,337L323.95,339.43L324.67,339.65L324.92,340.61L324.52,341.42L322.37,341.84L320.73,341.36L319.07,339.06L318.24,339.23L316.76,338.81L316.66,338.22L315.81,338.35L315.55,336.69L312.87,336.96L312.57,336.3L311.93,336.62L311.15,337.84L312.88,340.58L311.49,341.23L311.36,342.89L310.15,342.86L310.08,343.74L310.54,344.28L311.72,344.37L311.76,345.2L310.67,345.7L310.64,349.29L310.84,349.91L310.39,351.45L311.26,353.6L314.5,355.23L314.25,355.83L313.13,356.11L312.25,356.83L311.87,358.29L312,359.72L311.75,360.9L311.94,362.72L311.86,364.91L310.34,367.02Z" stroke-miterlimit="10" stroke="#FFFFFF"/>
<path title="平阴县" fill="#D3D3D3" id="path11" d="M150.17,482.68L149.65,483.61L146.96,483.95L146.5,485.59L145.57,486.02L144.64,488.24L144.93,489.29L144.15,490.67L140.06,492.64L139.1,494.27L138.57,495.59L138.98,496.64L138.67,497.49L138.12,497.81L137.54,497.24L136.35,497.03L136.03,497.43L135.98,496.3L136.43,495.32L135.98,494.72L132.3,495.26L131.14,495.66L131,497.05L130.12,497.87L129.71,497.08L129.15,498.77L129.41,500.18L129.12,500.8L125.97,501.21L125.27,501.64L124.14,501.64L123.81,500.36L122.72,499.51L122.18,499.45L120.39,500.36L120,499.81L120.92,499.04L120.77,497.91L119.79,498.21L117.88,498.18L117.38,497.76L116.63,498.61L116.16,501.29L116.43,502.03L114.8,503.66L115.06,504.41L113.43,503.7L112.79,504.35L109.77,505.31L108.19,505.32L108.04,506.75L108.36,508.07L108.91,508.25L107.7,510.73L105.3,511.8L105.43,512.69L104.26,513.59L104.22,514.25L105.24,516.23L105.99,516.5L105.43,517.27L105.79,518.18L107.16,520.4L107.91,520.09L108.19,520.57L109.67,521.47L113.44,522.05L115.09,524.81L116.02,528.18L117.58,530.14L120.88,531.49L120.89,531.81L119.61,535.78L118.74,535.72L118.62,536.59L117.72,538.61L116.77,538.76L116.87,539.26L115.97,539.2L115.84,540.72L115.45,540.62L115.03,541.93L117.2,542.28L117.73,541.9L118.95,541.95L119.14,540.95L120.94,540.33L121.68,540.38L121.77,542.11L121.32,542.25L121.37,543.21L120.67,543.17L120.67,544.23L122.24,544.48L124.26,544.21L124.63,543.32L125.36,543.29L126.24,542.57L128.08,543.26L131.06,544.8L131.92,547.02L132.16,549.5L133.4,550.46L134.3,550.61L133.67,552.85L133.64,554.47L132.66,554.3L132.65,555.16L131.9,554.75L129.83,554.68L128.36,555.56L127.3,557.38L126.25,561.44L126.32,563.01L124.02,565.83L122.86,567.76L119.33,569.48L117.58,569.9L114.06,571.45L108.45,571.64L103.81,571.5L101.26,572.18L99.77,572.91L99.6,574.03L97.86,574.03L97.31,576.15L97.02,578.16L96.23,578.04L96.05,578.9L95.03,578.94L94.68,579.63L93.32,580.51L93.56,581.51L92.39,581.51L92.48,580.31L92.99,579.83L92.88,578.46L92.12,578.34L92.17,577.06L90.83,576.18L91.17,573.7L92.03,573.33L91.26,570.82L90.3,570.4L86.79,570.1L84.59,570.17L81.97,567.86L81.03,563.79L79.37,561.83L77.53,561.38L74.35,561.63L71.79,562.33L69.23,563.72L68.15,566.37L66.9,569.1L64.85,571.3L62.55,573.23L60.6,574.46L58.22,575.51L53.71,576.28L51.94,578.57L52.18,581.75L50.85,584.39L48.82,584.29L47.07,582.87L42.68,579.76L41.61,579.5L40.49,575.98L40.24,572.8L40.27,567.77L42.17,560.25L42.19,557.41L41.64,554.04L39.65,549.65L38.44,549.09L37.03,546.4L35.28,542.57L33.83,538.77L32.38,536.39L29.75,533.39L27.42,529.38L27.87,529.15L30.17,526.6L32.12,523.78L33.01,522.11L34.13,520.94L36.46,517.81L38.62,515.65L41.39,513.7L44.28,510.77L45.38,508.63L45.38,506.15L46.18,504.11L48.11,501.56L50.59,499.15L52.69,496.27L53.83,492L55.15,489.81L57.52,486.53L60.2,484.21L66.47,481.45L70.24,480.11L73.69,479.09L78.46,475.89L81.49,474.18L83.72,473.24L86.91,473.19L91.17,473.63L93.25,473.39L94.52,472.19L94.92,469.97L95.82,467.79L96.92,466.22L98.11,465.73L100.02,465.68L102.96,465.9L106.44,466.89L107.99,466.31L108.36,465.63L109.39,462.21L110.01,461.15L111.54,459.56L111.95,457.91L112.78,455.66L113.95,453.53L115.62,451.95L119.14,448L120.2,449.3L121.64,449.7L121.54,450.42L122.74,451.23L123.05,451.78L129.27,452.79L129.79,453.69L129.06,454.66L128.98,455.87L128.42,455.84L128.18,457.3L127.71,457.32L127.15,458.85L126.35,460.05L126.55,461.32L125.54,462.81L125.48,464.96L127.66,466.8L133.02,467.58L135.59,468.38L136.41,470.9L137.23,471.44L137.43,472.77L137.29,473.96L138.06,474.18L138.96,473.91L140.69,474.19L141.35,474.62L141.8,474.26L143.03,475.47L144.34,477.26L145.64,479.39L147.12,481.35Z" stroke-miterlimit="10" stroke="#FFFFFF"/>
<path title="商河县" fill="#D3D3D3" id="path12" d="M393.55,121.1L392.77,118.51L392.34,116.18L392.29,112.92L391.03,112.28L388.96,112.96L386.34,114.71L384.17,115.93L379.71,119.37L379.2,122.85L380.48,126.64L382.03,129.98L381.54,132.31L379.55,133.44L377.69,132.51L376.4,129.54L373.35,127.64L372.2,128.34L371.72,129.27L368.62,132.16L368.62,132.48L367.22,133.6L364.36,135.42L357.62,138.69L348.8,140.7L346.02,143.05L342.79,144.16L339.57,145.75L337.84,147.07L336.57,149.26L334.88,153.99L333.59,155.25L331.31,155.96L326.41,157.74L324.9,157.9L320.98,157.47L319.5,157.95L319.42,157.26L312.34,153.3L310.11,153.35L307.51,154.3L304.08,156.84L299.59,158.56L296.09,159.5L288.06,160.25L287.91,161.15L286.01,161.79L286.16,163.66L285.9,164.22L284.75,164.31L284.45,163.74L282.94,163.98L282.56,162.54L281.77,162.97L281.81,161.76L282.6,160.8L282.39,157.35L283.49,156.85L283.38,156.06L284.57,155.44L285.69,155.23L285.96,155.67L287.26,155.07L287.32,154.09L286.83,153.37L285.66,153.33L285.31,150.87L285.53,150.58L285.43,149.02L284.9,146.8L284.39,145.83L284.93,144.79L287.5,144.63L287.94,143.44L287.98,139.28L288.42,137.32L287.11,136.6L286.51,133.62L284.53,132.75L282.75,131.64L281.98,131.61L281.54,132.33L280.27,132.42L280.39,127.66L278.81,127.81L278.74,126.43L277.28,126.33L276.38,125.68L276.7,125.02L275.56,124.63L275.89,123.37L276.75,123.55L278.41,121.56L279.82,121.11L280.24,118.53L279.54,118.32L280.03,115.9L280.49,115.42L281.92,115.33L281.82,113.67L282.46,113.57L282.24,112.91L281.49,112.93L281.48,111.88L280.53,111.91L280.54,110.41L280.13,109.67L278.7,109.69L278.81,106.92L278.25,106.72L278.05,105.4L278.62,105.16L280.38,105.32L280.77,104.5L277.97,101.09L276.19,99.64L274.14,98.72L271.37,97.88L269.32,96.88L269,93.91L268.33,90.41L267.24,85.37L266.56,82.76L265.33,80.41L264.47,77.53L264.61,74.66L266.15,72.79L268.69,71.46L270.69,69.77L271.62,67.99L270.77,64.84L269.53,62.75L268.39,61.22L271.17,55.13L273.63,52.64L274.76,50.07L274.39,49.73L274.19,48.51L273.36,48.13L272.93,47.2L272.9,45.59L272.01,45.64L272.4,44.47L273.48,44.66L273.51,42.89L272.91,42.65L274.37,38.11L275.73,36.77L276.16,37.24L277.19,36.06L278.18,35.33L278.34,37.6L280.57,38.26L295.25,38.57L296.44,38.42L298.8,36.44L300.51,34.21L301.33,30.47L299.41,24.81L300.02,23.92L302.85,21.17L305.19,19.95L307.53,19.27L309.58,20.02L310.88,22.65L316.27,22.21L319.68,21.19L323.48,18.37L330.74,17.96L332.22,15.29L333.78,12.8L337.53,7.73L338.64,5.78L340.32,1.58L342.86,0L345.09,0.58L349.93,1.11L353.82,0.1L354.5,2.63L357.25,4.18L357.73,6.66L357.9,8.98L362.12,9.67L364.37,9.88L365.97,10.62L367.64,13.16L367.77,15.95L366.03,18L361.88,18.85L359.53,19.71L357.71,21.04L357.13,24.08L361.33,25.22L363.56,26.24L364.52,27.88L361.99,29.1L360.7,31.06L361.93,32.61L364.97,33.55L370.45,33.26L372.71,32.66L375.14,32.34L378.74,32.21L381.22,34.14L381.74,35.12L383.85,38.03L383.99,40.1L383.77,42.53L383.38,44.5L380.87,49.95L383.5,53.58L390.16,57.73L393.6,60.39L398.07,66.21L397.21,67.25L396.38,67.76L395.69,70.34L396.06,71.39L397.61,72.04L397.39,74.83L396.99,77.15L396.14,79.83L396.08,82.88L396.89,88.02L398.78,92.72L401.76,96L402.68,97.19L403.23,100.14L403.37,102.34L404.78,102.2L404.76,103.17L405.73,103.23L405.17,103.79L404.77,105.63L404.87,107.35L405.21,107.89L406.82,108.59L406.67,109.47L407.38,109.81L406.96,110.95L405.3,110.81L405.39,110.41L403.85,109.96L403.36,111.21L402.74,111.42L403.38,110.35L402.95,109.24L402.09,109.2L402.38,110.8L401.21,111.19L400.64,112.54L400.89,113.56L401.44,113.97L402.48,114.07L402.36,114.97L400.19,114.94L399.43,114.68L398.15,115.74L396,115L394.69,116.29L394.72,117.42L394.01,120.84Z" stroke-miterlimit="10" stroke="#FFFFFF"/>
<path title="市中区" fill="#D3D3D3" id="path2" d="M213.25,355.71L214.2,355.78L214.08,355.11L214.89,355.11L215.78,354.05L217.08,354.1L217.76,353.52L218.26,352.13L218.02,351.38L219.43,351.17L220.6,351.32L220.72,354.43L228.1,352.98L228.78,353.49L229.29,354.67L229.08,355.04L230.37,355.07L230.32,356.4L232.42,356.53L232.4,356.92L233.48,356.94L233.44,356.04L234.69,356.83L236.04,357.2L236.86,357.95L237.42,357.93L238.91,356.99L239.87,355.9L240.75,355.58L241.59,355.78L242.4,355.27L242.64,354.57L242.49,351.36L241.49,350.72L241.54,348.39L241.02,347.13L243.23,347.3L243.66,346.35L243.67,345.18L245.43,346.59L246.08,346.22L247.81,346.26L247.96,347.19L249.67,347.24L250,346.25L250.9,346.07L251.34,344.88L251.73,344.75L251.77,345.77L253.26,347.12L253.38,348.98L253.84,350.19L254.41,350.55L255.7,350.58L256.16,350.08L257.14,350.53L257.64,348.84L258.16,348.17L259.18,349.06L259.68,350.49L260.66,351.82L261.52,353.97L262.04,353.89L262.37,352.43L263.32,350.66L262.82,347.5L263.98,347.24L263.91,344.72L264.87,343.67L264.49,340.77L265.2,339.57L264.78,338.42L267.78,337.62L271.14,338.22L271.08,338.67L272.34,339.08L272.43,339.52L273.59,339.48L272.73,340.98L273.35,341.28L273.35,342.56L272.85,343.05L272.87,346.95L272.69,350.12L273.08,350.58L275.28,350.54L275.68,350.09L277.43,350.73L278.59,351.45L280.42,353.31L281.83,353.76L283.88,353.85L284.87,354.47L285.69,354.46L286.66,353.54L287.64,353.38L290.16,354.1L290.63,355.97L295.35,361.85L297.23,362.09L298.51,361.73L299.99,362.09L306.01,366.4L307.41,366.09L308.58,366.42L309.35,367.32L308.39,367.78L307.91,369.77L309.76,370.47L310.73,371.49L310.63,372.74L311.33,372.25L312.09,373.16L311.84,373.83L312.95,377.02L314.5,377.61L317.09,376.61L317.94,377.2L318.3,379.65L317.76,381.53L318.62,381.99L319.03,383.57L318.46,385.48L316.44,387.4L315.16,387.27L314.4,387.57L312.63,387.69L310.8,388.76L309.03,388.23L309.4,387.3L308.77,386.55L306.96,386.67L306.6,387.31L305.06,388.19L303.91,389.13L299.95,387.78L299.51,387.5L297.13,384.65L297.02,383.76L295.73,382.88L295.25,380.52L294.34,379.52L293.22,380.12L293.27,377.88L293.9,376.09L293.09,374.94L290.46,374.6L288.97,375.99L285.63,376.8L284.28,375.47L282.84,375.46L282.84,374L281.4,374.91L281.05,376.1L280,378.45L279.35,378.38L277.69,377.3L276.98,378.39L276.71,379.6L275.88,379.69L277.13,381.87L277.56,382.13L276.23,385.55L275.79,385.15L273.63,385.47L272.18,386.64L270.93,386.95L269.49,387.86L267.49,388.38L266.98,389.37L264.32,390.48L263.11,392L262.9,392.76L263.91,394.23L264.06,395.54L263.49,394.69L262.39,394.87L262.35,395.9L261.53,395.92L257.52,394.97L255.92,395.58L255,396.54L253.31,397.34L253.6,398.09L253.27,399.23L252.91,398.69L251.55,399.99L251.12,401.16L251.37,402.35L250.85,403.34L249.43,403.17L248.08,403.93L247.86,407.14L247.95,408.8L244.45,409.44L244.45,408.3L242.53,406.52L241.23,406.65L239.56,407.3L238.31,407.39L235.99,406.77L235,406.04L232.53,403.28L231.65,402.78L230.47,402.66L228.84,402.04L227.9,400.68L227.81,399.31L227.41,398.2L226.08,397.59L226.08,395.81L225,395.62L224.41,394.67L225.39,389.23L225.59,386.07L226.33,382.76L227.02,381.12L227.76,380.21L228.99,379.47L232.44,379.05L232.69,378.24L232.05,377.63L229.33,377.01L228.25,376.52L226.87,375.29L225.79,375.17L225.15,374.67L224.41,372.39L223.76,371.66L219.48,371.01L219.34,369.13L216.43,364.26L215.07,361.69L212.61,360.12L211.88,360.06L211.65,359.21L212.92,357.58L212.08,357.29L213.21,356.3Z" stroke-miterlimit="10" stroke="#FFFFFF"/>
<path title="天桥区" fill="#D3D3D3" id="path4" d="M285.11,329.51L285.09,328.91L283.51,329.67L284.41,329.69L284.54,330.11L283.39,330.53L283.91,330.75L282.08,332.87L282.34,333.67L281.19,333.7L281.06,332.83L280.44,331.96L278.51,332.49L278.66,333.93L276.77,333.92L274.36,334.27L273.78,334.76L273.55,336.02L273.59,339.48L272.43,339.52L272.34,339.08L271.08,338.67L271.14,338.22L267.78,337.62L264.78,338.42L261.9,339.38L260.97,338.87L258.51,339L257.07,336.74L255.28,336.56L255.26,334.8L253.86,332.68L254.07,331.68L253.67,331.55L253.62,330.3L252.84,329.09L252.91,326.16L251.2,326.06L250.95,324.57L250.05,324.18L250.95,323.48L250.97,321.36L247.07,321.12L247.35,319.28L245.62,319.13L245.62,316.8L245.89,313.28L245.95,310L243.97,308.77L242.78,308.37L240.98,308.11L235.44,307.6L233.33,307.82L233.05,306.76L233.5,306.47L233.27,303.91L232.45,304.19L232.42,302.88L228.34,302.52L227.75,301.01L226.72,295.24L227.27,288.63L227.87,286.63L227.55,285.89L228.54,282.6L228.99,281.95L231.49,282.71L232.62,282.31L232.98,281.83L233.7,282.18L234.04,280.31L233.83,279.46L232.31,279.01L231.99,277.26L233.44,273.61L235.12,274.93L240.42,276.66L240.28,277.26L241.04,277.13L243.5,277.75L243.41,278.51L247.8,277.39L247.99,275.06L248.65,275.05L248.66,273.33L248.42,272.93L248.44,270.96L247.91,270.54L248.27,269.05L248.98,268.92L251.22,269.14L251.36,269.9L252.44,271.36L254.73,270.53L257.04,270.01L257.33,265.78L256.81,261.21L258.03,262.09L259.9,262.26L259.89,261.91L261.7,261.93L262,263.25L262.76,263.08L263.43,264.46L263.49,265.24L265,266.04L265.15,265.44L266.44,265.2L268.18,265.39L270.34,265.93L273.07,266.24L273.09,265.72L274.39,265.57L274.36,264.97L275.54,264.46L277.67,264.19L277.77,263.88L279.75,263.16L279.73,262.76L281.61,261.4L282.94,261.07L284.55,261.19L285.79,261.82L285.89,261.22L287.44,261.26L288.05,262.51L288.98,262.67L289.01,264.51L289.38,265.3L289.21,267.51L288.49,267.75L288.49,269.74L287.99,269.74L287.78,271.65L288.42,273.61L289.12,273.6L289.11,277.57L288.26,278.08L288.24,280.45L287.81,281.31L287.06,281.59L286.48,282.58L286.74,283.52L285.78,284.15L284.61,286.72L284.95,287.53L286.2,287.89L286.2,288.99L287.51,289.51L287.55,290.72L289.29,291L289.86,292.95L292.38,293.26L294.93,293.33L294.38,296.01L294.05,296.85L289.66,299.67L286.67,301.94L285.53,302.97L284.36,303.5L279.67,303.72L277.77,304.24L275.84,306.22L275.12,307.63L275.01,309.35L275.47,310.63L276.77,313.29L277.54,314.51L277.09,316.91L278.45,318.97L278.65,321.31L279.52,321.37L279.64,320.13L281.37,320.35L282.26,319.77L283.09,319.89L284.27,320.91L285.69,321.14L286.67,322.64L287.51,322.1L287.22,321.15L287.68,320.61L288.65,321.45L288.62,321.84L287.07,323.04L285.8,324.33L285.37,325.4L285.14,324.89L284,326.11L283.34,326.49L283.85,327.82L284.68,328.46L285.49,328.29Z" stroke-miterlimit="10" stroke="#FFFFFF"/>
<path title="章丘区" fill="#D3D3D3" id="path7" d="M373.47,179.81L372.5,180.83L372.31,181.56L372.92,182.29L374.17,182.51L374.68,183.33L374.31,183.81L374.4,186.66L373.53,190.4L372.16,192.62L370.25,194.56L368.44,195.52L366.91,196.75L366.89,197.97L367.51,200.52L368.87,202.42L370.99,204.31L372.4,204.79L376.75,206.73L378.79,207.39L381.18,208.75L382.49,210.66L383.76,214.87L386.52,225.46L387.74,227.1L390.67,227.41L394.53,226.21L395.2,228.18L397.94,225.36L398.54,227.16L404.54,225.68L405.05,225.75L407.12,225.03L408.77,224.86L411.59,225.19L412.18,224.44L412.86,224.22L413.41,224.76L417.46,223.84L417.57,222.49L417.12,221.02L416.71,221.95L416.18,220.13L417.37,219.89L417.62,220.87L419.04,220.27L419.24,221.47L420.94,220.65L422.83,220.33L422.73,219.47L424.54,219.52L424.68,220.06L426.62,220.51L427.86,219.09L429.35,218.29L429.8,219.23L427.51,220.67L427.97,222.36L428.59,222.71L428.84,223.97L429.97,224.38L430,225.4L430.79,225.01L430.77,223.31L432.63,222.6L433.21,220.93L433.79,221.17L434.45,220.38L434.22,219.23L434.71,218.38L435.84,217.9L435.92,217.08L437.05,217.39L438.69,217.18L438.89,216.63L439.75,216.56L441.5,218.52L441.83,219.24L441.65,220.09L440.81,219.96L439.73,220.42L439.83,222.31L443.26,223.6L444.23,224.35L444.85,224.31L445.61,225.4L445.52,227.23L444.94,229.43L444.58,230.11L443.41,230.49L441.17,231.81L440.43,234.49L439.87,234.31L439.23,233.23L437.77,232.71L437.46,231.76L436.76,231.51L435.89,232.35L435.11,235.36L437.75,236.11L437.66,237.27L442.31,239.69L444.25,240.36L446.01,241.56L448.33,245.44L449.44,248.05L450.56,249.96L450.95,252.82L450,255.84L449.35,256.22L448.97,258.49L448.54,262.15L449.53,266.63L452.04,269.8L455.59,274.78L458.28,278.13L460.65,279.61L467.26,282.76L470.61,284.51L477.52,290.61L479.87,293.14L482.37,297.47L482.92,300.69L483.95,302.58L485.51,304.48L491.36,304.38L491.73,303.75L494.31,303.75L498.48,304.75L501.52,306.63L501.31,307.51L500.46,308.12L498.18,314.08L499.22,316.67L499.23,317.36L497.41,318.75L494.9,321.93L492.54,323.68L492.39,326.36L491.66,328.95L490.56,329.7L488.96,329.31L488.8,330.14L487.91,330.23L487.73,330.77L486.58,330.62L487.17,331.27L486.52,334.1L485.91,334.05L485.88,334.97L486.27,336.21L486.06,337.42L485.28,338.35L485.33,341.92L486.17,343.79L487.71,343.69L489.57,344.33L489.54,347.03L490.58,347.96L489.43,350.72L490.68,351.24L489.82,352.25L490.71,352.37L491.55,353.69L491.14,356.17L490.83,357.04L491.08,358.92L492.12,359.35L491.42,360.28L490.48,359.7L488.83,359.88L488.49,360.84L487.92,360.9L488.35,362.12L485.78,362.15L483.82,362.47L485.45,364.36L486.1,364.59L489.5,363.85L491.5,364.15L491.57,365.75L490.11,366.62L488.89,366.86L489.62,368.82L490.76,370.84L491.56,372.69L490.51,373.1L490.19,372.21L488.9,371.55L487.34,373.31L485.56,374.04L484.78,375.42L485,376.44L486.1,376.7L487.96,377.83L488.67,377.64L490.17,378.86L492.61,379.89L493.27,379.86L493.49,381.05L494.28,382.2L493.99,383.69L494.17,384.81L496.41,385.49L497.86,387.18L499.05,387.68L499.17,389.1L500.12,392.48L500.01,393.17L498.5,392.99L498.02,392.68L496.54,392.92L492.63,395.49L489.93,396.14L487.41,395.67L484.65,395.44L483.61,395.09L483.43,393.83L482.32,393.24L480.63,393.11L479.68,393.74L478.74,393.36L475.8,391.24L475.52,390.54L472.46,389.75L471.54,389.79L470.25,389.08L467.15,385.67L465.24,384.25L465.08,383.53L465.49,382.91L464.82,382.28L464.13,382.4L462.61,384L461.11,384.46L461.21,384.85L459.88,386.15L457.43,386.09L456.81,386.52L455.59,386.25L454.98,387.17L453.54,387.25L452.55,388.73L452.61,389.46L451.94,390.48L451.04,391.25L450.41,392.24L449.37,392.34L448.79,392.79L447.75,394.86L447.03,395.35L445.01,395.61L444.49,397.61L444.04,398.22L442.94,397.62L440.41,397.67L439.57,397.9L439.53,398.54L437.05,399.45L435.62,401.17L431.68,401.19L431.21,402.39L430.26,402.28L429.46,401.46L426.83,400.2L425.15,399.06L424.63,399.39L423.64,401.37L423.69,403.14L424.27,404.26L423.91,404.87L421.04,407.91L419.31,408.08L419.24,409.38L418.4,410.96L419.43,412.04L417.75,413.13L415.34,415.31L413.39,415.89L411.09,416.02L408.95,415.49L405.89,415.38L402.97,415.68L400.49,416.26L398.61,417.83L396.25,421.43L393.89,424.76L392.25,427.93L390.7,428.62L389.22,428.76L385.26,427.82L383.77,426.56L381.25,423.41L379.09,420.36L376.57,417.22L374.9,416.49L373.13,416.2L369.13,416.59L367.1,416.3L366.24,415.78L364.74,416.21L364.23,415.94L364.05,413.86L364.52,412.53L365.64,411.17L366.25,408.87L365.04,408.21L365.12,406.28L363.83,405.74L365.51,405.79L367.66,402.83L366.99,401.85L367.19,401.15L369.59,402.08L370,401.7L370.25,400.25L371.9,399.53L372.34,398.61L372.29,396.76L370.93,395.67L368.18,395.52L367.93,394.79L368.18,393.22L368.14,391.7L367.33,392.16L366.77,391.94L367.51,390.74L366.47,390.98L366.18,390.18L366.7,388.35L368.24,386.94L370.03,384.77L372.56,382.58L371.27,380.46L371.35,379.89L369.59,379.5L370.08,378.66L370.82,378.26L372.49,379.16L373.44,378.76L375.86,377.13L375.57,374.87L377.53,374.06L380.13,372.24L379.59,368.8L378.96,368.19L378.2,366.81L378.02,365.46L380,365.57L381.59,364.87L381.65,359.35L381.06,357.38L381.03,354L381.96,351.96L385.22,347.93L385.71,345.71L385.67,342.77L384.68,338.66L382.98,334.54L381.9,330.69L381.58,328.37L380.99,321.5L379.71,318.45L377.63,315.48L375.99,312.6L375.19,309.83L375.82,310.07L375.1,309.05L375.1,308.32L376.74,308.07L376.77,307.28L375.28,307.02L375.01,304.81L374.67,304.5L374.78,301.96L373.52,301.48L373.41,300.06L372.34,299.35L372.24,298.56L372.34,294.21L371.1,294.1L371.1,293.05L368.48,292.76L366.53,291.79L366.55,290.88L370.97,289.3L370.95,287.86L371.74,287.6L371.94,286.05L373.46,284.31L373.32,283.58L374.06,283.59L375.15,284.36L376.69,283.56L377.12,280.24L377.21,276.91L376.89,274.27L376.34,271.26L374.94,269.88L373.41,269.6L373.27,268.4L374.19,268.27L374.46,266.58L372.69,267.16L371.98,265.05L370.84,264.79L371.09,261.75L371.89,260.84L372.11,258.27L371.99,256.72L370.97,256.47L370.9,258.21L368.68,258.49L368.58,254.79L368.43,254.43L364.59,255.91L362.2,257.49L356.36,261.92L353.76,263.7L352.6,264.22L351.73,264.97L350.52,262.36L348.05,261.07L343.49,262.42L340.73,262.82L337,262.75L333.91,261.45L333.77,259.57L334.26,256.99L334.39,254.22L333.18,252.24L326.53,252.19L325.79,250.69L325.56,246.83L326.2,244.55L327.62,242.37L332.18,237.22L336.89,231.58L340.46,227.02L342.3,224.89L343.7,222.85L344.74,220.83L345.15,218.16L345.14,214.85L344.29,209.27L343.76,204.27L343.63,201.88L343.67,198.08L344.08,196.99L344.07,194.26L344.6,193.01L346.19,191.95L350.45,190.12L356.69,188.19L358.86,186.69L360.99,184.65L361.86,183.25L364.38,180.06L365.23,179.43L367.1,178.91Z" stroke-miterlimit="10" stroke="#FFFFFF"/>
<path title="长清区" fill="#D3D3D3" id="path6" d="M213.25,355.71L213.21,356.3L212.08,357.29L212.92,357.58L211.65,359.21L211.88,360.06L212.61,360.12L215.07,361.69L216.43,364.26L219.34,369.13L219.48,371.01L223.76,371.66L224.41,372.39L225.15,374.67L225.79,375.17L226.87,375.29L228.25,376.52L229.33,377.01L232.05,377.63L232.69,378.24L232.44,379.05L228.99,379.47L227.76,380.21L227.02,381.12L226.33,382.76L225.59,386.07L225.39,389.23L224.41,394.67L225,395.62L226.08,395.81L226.08,397.59L227.41,398.2L227.81,399.31L227.9,400.68L228.84,402.04L230.47,402.66L231.65,402.78L232.53,403.28L235,406.04L235.99,406.77L238.31,407.39L239.56,407.3L241.23,406.65L242.53,406.52L244.45,408.3L244.45,409.44L247.95,408.8L249.38,409.21L249.82,410.13L249.77,411.12L250.63,411.64L252.69,411.61L253.48,412.03L256.12,414.64L257.52,416.29L257.91,421.83L256.56,422.75L256.63,423.35L257.5,425.01L258.07,425.5L260.64,426.18L263.65,425.99L265.44,426.73L267.1,429.04L267.15,429.56L269.63,431.03L270.53,431.99L271.11,432.2L272.08,433.34L271.7,434.27L272.2,435.77L272.06,437.65L272.16,441.3L272.83,442.18L273.99,444.45L274.66,444.95L274,447.4L273.16,448.49L274.09,449.3L274.33,450.2L273.79,451.29L274.37,453.15L273.27,455.18L275.99,455.36L278.51,455.09L282.14,455.83L284.61,456.89L287,458.29L288.08,459.31L287.5,460.21L286.57,460.55L285.8,461.76L286.4,462.6L287.12,462.09L287.95,462.51L288.78,463.71L288.88,464.79L290.38,464.46L292.99,468.46L293.83,468.87L293.22,471.51L292.72,472.11L292.17,475.1L292.22,476.31L292.83,477.81L292.38,479.46L292.65,480.28L291.71,481.87L290.75,481.62L289.49,481.81L288.96,482.45L287.94,482.54L287.13,483.63L286.19,483.89L284.59,484.95L283.64,486.9L282.05,487.52L281.26,487.23L278.76,488.47L278.05,489.28L277.14,492.6L274.87,492.92L273.54,493.31L273.02,493.78L269.65,493.99L270.32,495.2L270.34,496.25L269.91,496.47L269.85,497.66L270.59,498.69L269.81,499.1L269.5,498.19L268.97,498.17L268.29,498.99L266.21,499.88L266.1,499.6L264.77,499.65L263.43,500.57L262.35,502.17L260.99,502.56L260,501.07L258.33,500.3L257.65,499.7L256.03,497.05L255.16,496.15L253.1,497.09L250.89,496.21L249.32,495.32L248.32,495.69L247.69,495.32L247.74,494.41L246.4,492.24L246.63,491.79L245.19,491.39L244.28,492.73L241.25,494.32L239.31,496.16L236.5,497.27L235.11,497.41L234.69,497.81L232.7,497.23L232.59,496.07L230.92,494.8L229.07,494.49L228.35,493.71L228.61,492.59L227.56,491.64L227.62,489.17L226.26,488.5L227.41,487.92L226.45,486.76L224.92,486.03L223.59,484.57L223.7,483.34L223.25,482.39L223.29,481.1L223.67,479.96L221.18,479.65L220.9,480.43L219.96,481.55L217.3,482.08L215.83,482.7L213.64,482.19L211.7,481.44L211.26,482.17L208.97,480.98L206.43,479.08L205.64,478.64L202.14,476.2L199.76,475.82L197.8,475.96L194.62,478.51L192.22,479.73L185.39,482.85L183.79,483.99L181.2,486.81L178.35,488.65L175.44,488.27L173.13,489.5L170.91,490.1L167.55,489.64L164.13,486.7L162.03,484.2L159.22,482.23L156.92,481.95L154.01,482.02L150.17,482.68L147.12,481.35L145.64,479.39L144.34,477.26L143.03,475.47L141.8,474.26L141.35,474.62L140.69,474.19L138.96,473.91L138.06,474.18L137.29,473.96L137.43,472.77L137.23,471.44L136.41,470.9L135.59,468.38L133.02,467.58L127.66,466.8L125.48,464.96L125.54,462.81L126.55,461.32L126.35,460.05L127.15,458.85L127.71,457.32L128.18,457.3L128.42,455.84L128.98,455.87L129.06,454.66L129.79,453.69L129.27,452.79L123.05,451.78L122.74,451.23L121.54,450.42L121.64,449.7L120.2,449.3L119.14,448L120.26,447.67L121.71,446.83L122.46,446.07L122.94,444.57L126.11,439.36L127.19,438.45L130.37,437.75L134.52,437.23L136.05,436.93L141.22,435.6L145.66,434.01L147.8,432.87L150.13,430.86L150.83,428.92L150.91,427.7L150.47,425.85L149.44,423.32L147.51,419.01L147.41,417.18L147.75,415.71L148.02,413.46L146.97,412.15L142.6,410.76L142.01,410.13L141.86,408.6L142.66,406.88L144.6,405.02L146.79,404.31L148.58,404.3L150.41,404.56L151.54,404.24L152.42,403.29L152.84,402.16L152.84,400.79L152.43,399.74L151.38,399.07L147.11,396.93L146.48,396.03L146.56,395.36L148.6,393.54L150.68,391.15L151.07,390.5L152.63,386.65L153.18,385.87L154.93,386.09L158.51,386.06L159.33,385.58L162.33,382.6L163.01,381.56L163.56,378.69L162.32,374.37L162.44,373.27L163.06,372.76L165.01,372.31L169.64,371.9L171.07,371.28L172.6,369.75L173.37,367.8L173.03,362.51L173.03,361.31L173.49,360.65L174.69,360.51L178.19,361.01L179.23,360.93L182.19,359.36L183.46,358.46L188.23,356.46L192.58,353.56L193.66,351.65L193.98,349.86L194.03,345.94L194.79,344.18L196.62,342.87L198.11,342.06L199.2,340.79L199.8,338.86L200.28,336.58L200.28,334.73L200.04,332.36L200.25,329L200.75,328.14L202.12,327.78L204.08,328.46L204.99,328.42L206.2,327.69L206.64,326.87L206.53,325.19L210.76,331.99L212.92,333.46L213.35,334.43L211.76,335.64L209.4,342.52L208.97,344.46L209.05,345.24L210.28,348.51L210.03,350.05L208.8,351.27L208.7,353.12L209.05,353.85Z" stroke-miterlimit="10" stroke="#FFFFFF"/>
</svg>