<svg xmlns="http://www.w3.org/2000/svg" xmlns:xlink="http://www.w3.org/1999/xlink" width="600" height="600">
<path title="嘉祥县" fill="#D3D3D3" id="path6" d="M197.68,182.08L196.5,182.82L195.44,184.73L195.45,186.6L195.1,187.58L195.13,193.47L195.49,195.87L196.48,196.94L196.86,198.04L197.61,198.58L198.23,199.94L200.25,200.26L201.31,201.46L201.57,202.81L202.32,203.83L203.77,204.22L210.67,204.28L211.95,203.58L214.49,203.75L217.12,202.09L218.36,204.14L218.01,205.5L218.66,207.45L217.35,207.93L216.51,207.16L216.87,205.54L216.64,204.84L215.06,204.67L214.32,205.16L214.01,206.19L213.88,208.41L214.1,208.95L216.42,209.28L216.73,209.92L216.21,212.25L216.64,212.52L219.01,212.48L219.19,213.32L217.7,214.63L215.81,214.36L214.49,213.6L213.97,214.14L213.09,216.13L213.31,217.49L215.02,220.14L215.27,220.75L212.54,224.66L211.84,227.07L211.6,231.25L211.52,234.19L211.64,240.42L211.03,243.09L210.25,245.67L210.17,246.58L211.15,247.32L211.16,247.82L209.26,248.16L208.33,249.18L208.06,250.69L208.38,252.63L203.67,253.83L202.42,253.8L201.99,254.88L201.83,257.99L203.13,261.16L204.28,261.76L205.77,264.19L207.55,266.39L208.65,268.06L210.77,269.96L212.21,271.44L217.74,272.81L221.27,273.96L222.18,271.93L221.42,271.49L222.2,270.14L223.24,270.67L222.76,271.86L225.79,272.27L224.84,274.86L229.99,276.31L229.17,278.75L230.87,279.68L230.41,280.39L229.11,281.61L228.5,281.78L225.93,279.48L224.96,278.98L223.24,282.1L222.07,283.69L222.58,284.83L221.56,285.8L221.48,286.29L219.87,286.15L219.21,285.28L217.32,285.45L215.03,285.99L214.7,286.7L212.17,287.38L211.22,287.98L209.59,289.7L208.09,290.19L206.75,291.78L205.6,292.64L205.26,294.94L203.59,295.88L202.21,297.3L201.41,295.8L200.57,293.7L198.77,292.8L197.49,292.42L195.1,291.2L194.04,290.85L192.18,290.86L190.41,290.6L187.84,289.83L185.18,289.75L182.71,292.17L179.27,294.16L177.5,294.79L175.83,295.17L172.73,295.37L171.31,295.65L170.34,296.19L169.64,297L169.04,299.85L168.87,301.45L168.43,302.52L166.67,303.87L166.05,304.76L165.81,307.78L164.75,308.86L163.96,309.22L161.47,309.24L158.82,308.38L154.3,307.44L153.1,307.48L153.73,306.27L154.83,303.31L157.89,294.36L158.52,291.42L158.32,287.55L157.01,284.29L153.29,277.02L152.08,276.36L150.39,276.83L147.86,278.21L143.03,280.17L138.69,280.67L138.74,279.1L137.55,273.78L137.46,272.62L136.2,268.72L135.57,267.65L134.69,266.86L132.56,266.07L131.13,263.41L130.75,261.01L130.56,257.62L129.65,254.7L129.29,253.09L129.19,250.78L130.67,248.73L131.81,247.83L135.25,246.3L136.04,245.67L137.96,242.64L138.73,239.25L138.81,237.55L137.89,232.39L136.28,229.11L135.91,228.04L135.64,226L135.28,224.85L135.26,223.06L136.29,218.87L136.53,214.68L136.16,212.62L135.09,213.04L132.65,212.58L133.22,209.8L131.78,208.69L132.14,207.61L131.51,206.52L132,206.28L131,205.71L131.81,205.63L131.92,203.97L133.2,202.32L133.41,201.07L132.14,201.18L131.49,201.66L131.02,205.27L129.15,205.41L130.1,204.9L130.21,201.99L129.56,200.99L128.5,200.38L127.57,200.27L128.01,198.87L127.56,196.56L126.63,196.56L126.6,198.76L124.83,200.58L124.24,200.91L124.02,202.15L124.07,204.43L124.65,204.73L124.26,205.44L124.51,207.04L123.83,207.72L121.12,206.31L120,208.37L119.16,208.1L118.86,208.86L117.61,208.39L118.48,206.41L119.19,205.79L118.13,205.25L118.75,202.48L118.37,201.88L118.89,198.79L119.62,198.82L119.57,198.27L117.37,197.92L116.07,197.97L115.44,199.57L113.98,199.44L112.24,198.84L110.59,198.73L110.37,197.49L108.99,197.38L108.79,194.11L109.23,193.93L108.74,191.79L107.36,191.95L106.91,190.98L106.35,188.58L106.69,186.07L107.39,184.11L107.72,181.52L107.34,178.49L107.33,176.17L107.03,171.99L106.38,168.15L104.46,161.92L104.09,159.61L104.16,157.65L104.78,156.57L106.45,154.95L107.59,153.61L107.57,151.29L106.76,150.13L104.76,146.31L104.66,141.73L104.97,140.82L106.87,138.01L109.21,135.69L110.5,133.89L111.58,134.28L114.72,134.8L117.71,135.46L120.2,136.18L122.73,136.69L127.82,138.33L130.26,138.98L133.43,139.24L138.78,140.26L143.78,140.69L155.27,140.7L156.73,140.87L163.27,141.22L162.19,139.68L163.88,139.83L164.83,140.34L165.3,141.65L165.77,141.67L166.59,140L167.21,139.53L169.03,139.57L170.04,140.17L172.26,142.9L171.7,144.96L171.79,146.83L171.31,147.85L171.73,148.43L173.42,148.32L174.1,149.76L174.55,151.57L172.91,152.26L173.26,152.93L176.24,156.28L178.63,159.15L179.61,160.11L181.28,162.6L180.9,164.89L181.26,165.78L182.04,166.07L184.92,164.86L186.98,163.81L188.23,164.53L188.58,165.73L188.53,167.09L188.8,168.09L190.55,170.45L189.95,172.57L191.86,174.66L192.21,175.41L193.76,177.04L196.64,180.36Z" stroke-miterlimit="10" stroke="#FFFFFF"/>
<path title="金乡县" fill="#D3D3D3" id="path5" d="M153.1,307.48L154.3,307.44L158.82,308.38L161.47,309.24L163.96,309.22L164.75,308.86L165.81,307.78L166.05,304.76L166.67,303.87L168.43,302.52L168.87,301.45L169.04,299.85L169.64,297L170.34,296.19L171.31,295.65L172.73,295.37L175.83,295.17L177.5,294.79L179.27,294.16L182.71,292.17L185.18,289.75L187.84,289.83L190.41,290.6L192.18,290.86L194.04,290.85L195.1,291.2L197.49,292.42L198.77,292.8L200.57,293.7L201.41,295.8L202.21,297.3L203.84,298.86L204.6,300.04L205.73,304.55L207.25,305.19L208.75,305.23L210.81,308.72L213.99,309.51L214.86,310.13L217.02,310.21L220.42,312.87L221.45,312.99L221.42,314.4L222.1,316.45L221.68,318.31L222.18,318.87L223.96,319.56L224.4,320.63L223.94,324.05L224.3,325.77L224.57,328.26L225,329.06L226.06,329.69L228.98,329.5L228.89,330.81L229.49,332L228.65,333.03L226.54,334.06L225.57,334.13L222.46,333.57L219.5,332.85L217.95,332.68L214.24,333.5L211.88,333.77L210.65,334.08L207.94,335.46L206.01,335.91L203.89,335.92L201.51,336.38L200.63,336.83L201.11,338.74L201.09,340.4L201.33,341.49L202.36,341.04L202.6,342.32L204.46,342.02L206.55,342.44L208.29,342.55L209.03,342.99L204.86,346.14L202.15,347.02L199.7,348.24L198.55,348.3L198.02,348.8L197.76,350.22L197.42,350.51L195.47,350.68L194.14,352.68L193.64,353.84L193.12,354.27L192.98,355.31L193.31,356.11L192.75,359.8L193.43,360.83L194.76,362.24L195.48,364.89L196.19,366.84L197.35,368.25L199.74,370.54L199.75,371.61L199.14,372.68L199.67,373.65L201.88,376.3L202.33,377.36L202.17,379.31L201.82,380.37L201.48,383.21L201.05,385.61L199.24,393.51L199.69,395.19L200.15,398.28L200.59,399.88L200.96,403.16L201.94,405.28L203.8,407.31L206.28,409.13L206.2,410.17L206.84,411.63L206.48,413.76L205.73,414.78L208.29,415.32L209.08,416.35L208.39,417.67L208.49,421.48L208.4,422.72L208.86,423.54L208.82,424.33L207.98,424.43L207.16,425.43L205.9,426.5L203.93,429.48L202.86,430.62L203.23,431.03L202.86,431.78L202.3,431.3L201.45,432.5L200.31,432.93L199.51,432.89L198.77,434.97L199.66,435.21L198.33,437.67L197.59,438.09L196.46,437.74L193.11,435.9L190.37,434.85L188.26,433.89L186.22,433.29L183.13,433.52L183.06,434.95L174,434.48L173.96,432.27L173.16,431.01L171.03,429.61L168.92,429.81L166.09,428.77L162.56,428.54L161.06,428.19L158.68,427.06L156.55,425.48L154.77,423.2L152.21,420.91L149.2,419.25L147.7,418.73L143.21,417.52L141.35,416.56L139.76,415.41L137.21,415.34L135.63,414.91L134.04,413.85L133.42,413.15L131.76,412.36L131.03,411.04L130.67,409.8L130.3,407.15L129.67,405.55L128.88,404.85L126.85,404.15L124.48,403.9L122.98,403.55L119.29,403.13L117.79,402.52L117.08,401.73L117.95,399.59L119.25,397.73L121.34,395.67L122.23,395L123,393.01L122.01,391.15L120.58,390.67L120.51,389.83L119.45,388.77L116.35,386.31L115.65,386.05L114.14,384.9L112.19,383.15L110.42,380.67L107.65,375.99L105.34,372.99L104.62,371.49L104.25,368.66L104.22,366L104.73,362.63L105.77,360.75L108.35,359.73L109.21,360.48L110.59,360.27L111.33,359.84L112.74,360.11L112.65,358.68L112.35,358.13L112.97,357.51L114.53,354.75L113.86,353.25L115.42,350.18L116.76,347.93L117.24,347.46L116.67,347.2L113.59,346.8L112.6,346.31L113.48,343.94L115.48,340.02L115.84,338.57L116.79,337.52L118.06,337.17L121,337.13L122.32,337.93L125.5,338.09L126.28,337.37L128.19,333.1L129.49,330.96L130.97,328.91L131.32,327.76L132.8,325.08L134.64,323.57L135.85,321.25L135.93,319.65L136.28,318.23L137.06,316.71L138.73,314.43L138.82,313.52L138.37,312.75L138.17,311.11L136.83,308.8L135.66,306.33L135.39,305.35L140.23,306.24L141.22,305.85L142,304.86L142.18,304.06L142.16,300.87L144.2,302L144.73,303.06L146.52,305.75L149,307.12L151.91,307.27Z" stroke-miterlimit="10" stroke="#FFFFFF"/>
<path title="梁山县" fill="#D3D3D3" id="path9" d="M165.84,81.12L167.18,82.72L168.87,84.17L169.78,85.37L170.36,87.62L172.32,89.99L172.57,91.48L173.23,92.35L174.22,94.59L175.71,94.78L176.78,94.35L178.82,92.56L180.07,92.05L180.96,92.18L182.16,93.61L182.85,95.64L183.67,96.77L183.23,98.58L181.27,100.46L179.49,101.84L178.18,102.65L176.98,103.68L176.31,105.71L176.42,109.57L176.98,110.97L176.78,111.93L175.8,112.93L174.67,117.06L174.5,120.23L173.65,122.89L173.21,123.71L172.25,124.27L171.43,125.41L171.6,126.55L172.67,126.94L174.94,127.41L175.63,128.41L175.87,129.77L175.78,132L176.01,133.38L179.32,136.9L180.61,138.83L180.66,139.68L179.95,140.68L179.01,141.37L177.32,142.14L174.41,142.99L173.1,143.17L172.26,142.9L170.04,140.17L169.03,139.57L167.21,139.53L166.59,140L165.77,141.67L165.3,141.65L164.83,140.34L163.88,139.83L162.19,139.68L163.27,141.22L156.73,140.87L155.27,140.7L143.78,140.69L138.78,140.26L133.43,139.24L130.26,138.98L127.82,138.33L122.73,136.69L120.2,136.18L117.71,135.46L114.72,134.8L111.58,134.28L110.5,133.89L109.68,132.09L108.33,129.64L107.66,127.86L106.89,124.3L106.49,121.18L106.52,119.86L103.43,117.4L100.6,114.9L99.31,113.19L97.84,111.53L96.42,110.21L93.72,106.41L93.27,105.12L90.48,102.54L87.05,100.62L84.26,98.69L81.14,96.77L78.17,92.56L76.52,90.62L73.57,88.05L69.3,85.16L61.91,80.03L58.62,77.96L54.2,76.22L50.76,74.14L47.98,73.03L43.39,71.33L44.24,70.58L43.99,69.39L44.62,69.14L42.61,68.49L42.31,67.01L41.25,67.3L40.17,66.43L37.95,67.37L35.8,67.64L35.81,68.97L33.79,68.44L32.33,68.46L31.18,67.82L30.52,66.52L30.05,64.72L29.15,62.95L29.23,62.23L28.74,58.03L28.56,57.31L28.84,55.24L28.71,52.57L28.95,50.96L29.08,48.46L28.81,41.72L29.63,42.25L29.58,40.54L30.1,40.61L30.24,39.84L30.97,39.84L31.09,33.79L32.93,32.95L31.74,30.23L31.57,28.43L27.66,28.33L27.72,26.16L27,26.17L27.92,24.53L28.51,24.11L32.75,23.04L35.62,22.78L37.81,22.2L38.86,21.5L39.63,19.75L39.54,18.03L38.39,14.26L39.21,14.32L39.12,10.93L39.8,10.96L39.83,9.63L40.32,9.09L40.12,8.45L41.89,7.94L54.61,5.43L62.04,3.49L63.31,3.04L65.51,2.87L68.03,2.96L70.69,3.43L77.27,6.37L80.21,7.22L81.37,5.67L82.63,5.3L83.4,4.54L84,0L85.68,1.12L87.58,3.25L88.57,5.56L88.68,6.71L88.03,8.45L87.1,9.98L85.99,11.11L83.4,13.2L83.39,14.06L86.65,17.86L86.99,16.78L88.35,16.35L90,16.21L90.22,16.62L91.03,16.35L91.87,19.39L91.41,20.34L91.6,21.26L92.33,21.43L95.46,22.92L93.82,26.45L95.32,28.17L97.28,30.06L104.27,33.36L107.89,35.5L108.56,35.06L110.56,34.61L111.43,34.12L113.18,33.69L113.89,34.05L114.52,36.17L115.77,37.74L116.78,37.45L117.23,36.64L118.97,31.84L119.75,30.79L120.81,30.2L122.52,30.43L123.59,31.3L126.63,31.8L127.54,34.57L128.12,34.91L131.25,35.11L131.74,35.38L132.4,36.7L133.82,37.12L134.93,35.45L135.53,35.23L135.93,36.03L135.23,37.82L135.43,39.11L136.7,40.28L137.09,39.88L137.15,35.69L137.93,34.8L139.38,35.25L140.71,35L141.46,35.34L142,36.52L141.65,40.9L141.5,44.75L140.99,47.23L142.06,50.47L141.98,51.01L143.14,52.51L143.86,53.85L144.31,55.55L145.73,57.68L146.77,60.31L147.72,60.53L147.08,61.82L149.5,63.54L149.73,64.42L150.83,65.62L153.8,68.02L153.87,68.78L154.93,69.69L155.74,69.51L155.74,68.44L157.11,68.56L157.76,69.02L158.57,68.54L158.24,69.73L161.17,70.08L161.5,68.48L162.21,69.1L162.45,70.09L163.76,70.41L164.14,71.23L162.12,72.26L162.03,74.83L162.77,78.54L163.46,79.94Z" stroke-miterlimit="10" stroke="#FFFFFF"/>
<path title="曲阜市" fill="#D3D3D3" id="path10" d="M351.82,196.08L350.84,194.16L347.76,190.33L346.49,187.97L344.79,184.33L342.46,180.12L341.15,177.38L339.68,174.88L339.32,173.19L337.73,170.07L338.27,167.6L338.63,163.41L337.46,159.65L337.43,156.63L337.7,155.77L338.97,154.33L339.3,153.18L339.04,151.9L337.9,150.34L337.3,148.9L337.16,147.7L337.53,146.55L338.47,145.03L338.8,143.71L338.8,142.44L337.36,136.97L339.58,136.84L340.35,136.54L341.3,133.09L340.95,130.86L340.59,129.87L339.8,129.25L337.31,129.07L335.62,128.62L335.27,126.84L335.62,125.94L337.22,124.78L340.94,123.81L343.16,123L345.73,121.21L346.17,119.79L346.17,118.72L345.2,116.75L345.03,115.44L346.09,115.63L346.03,114.43L346.52,112.99L346.51,111.24L347.63,109.38L347.9,110.09L348.83,110.28L348.94,109.76L350.05,109.3L350.81,109.63L351.7,109.24L355.72,109.98L356.48,109.38L356.56,108.49L358.08,108.4L358.36,107.52L360.31,107.53L360.42,106.83L361.15,106.37L362.26,106.31L362.43,104.66L365.76,104.49L366.15,103.92L368.32,103.84L368.81,102.92L369.99,102.54L370.27,100.94L370.95,101.13L370.87,100.53L370,100.04L369.97,98.47L369.29,98.76L369.73,96.78L369.2,95.36L367.77,93.66L367.24,92.68L367.51,91.25L369.2,88.12L370.45,87.4L372.76,87.22L373.31,86.85L376.14,86.42L377.42,84.97L378.4,83.35L378.75,82.1L378.93,80.13L380.18,76.91L381.53,74.22L382.16,73.32L381.53,71.18L381.53,68.68L383.95,67.95L387.25,68.03L389.04,68.92L392.71,71.23L394.76,71.05L397.89,70.5L399.94,70.5L402.26,71.3L403.44,73.01L404.28,73.39L404.44,74.23L406.64,74.74L407.37,73.75L406.96,73.69L406.85,72.64L407.77,71.93L408.26,72.28L410.6,69.97L410.74,69.32L413.41,68.88L415.01,69.95L415.8,71.47L416.09,73.45L416.89,74.79L418.47,75.54L419.68,75.8L421.38,75.59L425.76,76.26L427.42,77.04L428.24,78.01L428.37,79.8L427.52,80.89L425.24,82.23L424.82,82.73L422.38,84.29L420.96,86.59L420.52,89.17L419.89,90.73L418.82,91.96L419.25,94.47L419.15,95.46L419.42,98.31L419.23,101.89L418.96,104.92L418.95,107.87L418.24,110.55L417.43,112.34L417.52,117.43L416.98,120.46L416.27,122.52L416.09,124.3L416.52,126.81L416.61,130.47L417.13,132.52L418.37,134.66L417.75,137.7L418.19,138.42L420.32,138.24L421.75,137.53L423.61,136.19L424.68,136.02L427.6,139.06L428.57,140.67L428.66,143.7L430.24,147.64L432.98,151.75L433.87,152.47L435.29,153.1L437.14,153.1L438.48,152.85L439.37,152.04L440.78,151.96L442.29,152.86L445.03,155.46L446.89,156.99L447.95,157.26L451.75,159.6L452.72,161.83L452.89,163.7L452.18,166.11L451.37,168.16L450.04,170.11L447.2,173.04L446.57,174.38L446.39,177.58L447.18,179.2L449.3,180.63L450.98,181.26L453.12,181.51L455.01,181.29L456.45,180.76L457.63,181.25L458.16,182.62L457.89,184.29L457.21,185.67L457.1,187.62L457.38,188.32L459.53,190.24L460.55,190.54L461.16,192.79L461,194.62L461.61,196.15L463.66,196.88L464.02,197.25L464.28,199.11L463.65,199.78L462.51,200.08L461.33,202.74L460.42,204.02L458.93,204.87L457.17,205.17L454.01,205.26L450.77,204.78L450.22,205.17L449.24,207.46L448.14,207.45L445.94,206.01L444.89,206.14L443.57,207.29L442.52,207.61L440.51,206.94L439.83,205.46L440.82,203.7L441.25,201.42L442.28,198.94L442.08,197.85L441.45,196.84L439.41,195.25L438.08,193.71L436.35,193.38L433.84,191.93L431.74,190.99L429.89,190.87L429.44,191.1L429.31,192.32L428.75,194.4L427.68,196.16L426.31,197.25L425.49,197.44L422.87,197.04L419.51,196.14L418.01,195.27L413.7,195.01L410.54,194.35L406.68,193.2L403.68,192.68L402.09,191.68L399.34,190.77L397.24,187.71L396.89,186.37L396.22,185.84L394.25,185.47L392.5,185.4L390.17,184.99L389.07,185.14L388.19,185.7L388.13,187.14L388.55,189.76L388.35,191.58L388.04,191.89L385.37,192.14L383.29,191.74L381.24,191.64L380.39,192.06L379.48,193.44L378.15,194.7L376.64,195.65L376.37,196.52L376.28,199.09L375.99,199.52L373.86,200.13L367.99,200.76L367.44,199.75L367.5,197.02L367.09,196.37L366.22,196.1L364.38,196.11L363.17,195.64L360.33,195.87L359.35,195.2L358.1,193.49L356.97,193.89L353.56,194.29L352.35,195.22Z" stroke-miterlimit="10" stroke="#FFFFFF"/>
<path title="任城区" fill="#D3D3D3" id="path1" d="M303.28,253.53L302.27,255.02L302.47,255.94L303.6,257.93L303.52,258.43L301,261.42L300.71,262.25L300.65,264.77L299.74,265.59L298.22,265.56L297.08,265.87L296.61,267L296.6,268.68L296.95,270.83L296.68,271.62L296.01,271.96L295.84,273.24L295.32,273.48L294.62,271.78L294.11,273.01L293.15,274.22L292.38,274.49L290.55,275.76L288.09,278.41L286.46,278.5L286.08,278.98L286.25,281.02L284.06,284.13L282.51,282.67L281.04,281.74L279.84,280.65L278.66,277.71L277.82,276.34L276.87,275.71L271.58,273.28L269.81,272.21L267.74,270.57L267.61,269.19L268.92,269.04L268.84,268.18L267.48,268L266.85,260.46L266.23,260.11L265.53,260.62L264.77,259.41L265.42,258.09L265.38,257.4L264.12,256.8L264.19,255.67L263.78,254.31L264.1,253.13L259.57,252.41L257.83,252.59L251.04,254.6L249.2,255.22L249.89,257.05L250.06,259.04L250.05,261.84L251.08,273.32L251.07,274.39L249.59,280.42L249.56,283.15L250.03,284.48L251.08,286.2L255.13,290.75L255.61,292.04L255.58,292.99L254.37,302.49L254.36,303.6L254.73,305.77L255.46,308.52L256.09,311.44L257.46,316.9L254.08,316.66L248.89,316.06L247.2,316.33L241.39,318.66L239.05,319.76L237.77,320.87L231.83,329.34L230.69,330.85L229.49,332L228.89,330.81L228.98,329.5L226.06,329.69L225,329.06L224.57,328.26L224.3,325.77L223.94,324.05L224.4,320.63L223.96,319.56L222.18,318.87L221.68,318.31L222.1,316.45L221.42,314.4L221.45,312.99L220.42,312.87L217.02,310.21L214.86,310.13L213.99,309.51L210.81,308.72L208.75,305.23L207.25,305.19L205.73,304.55L204.6,300.04L203.84,298.86L202.21,297.3L203.59,295.88L205.26,294.94L205.6,292.64L206.75,291.78L208.09,290.19L209.59,289.7L211.22,287.98L212.17,287.38L214.7,286.7L215.03,285.99L217.32,285.45L219.21,285.28L219.87,286.15L221.48,286.29L221.56,285.8L222.58,284.83L222.07,283.69L223.24,282.1L224.96,278.98L225.93,279.48L228.5,281.78L229.11,281.61L230.41,280.39L230.87,279.68L229.17,278.75L229.99,276.31L224.84,274.86L225.79,272.27L222.76,271.86L223.24,270.67L222.2,270.14L221.42,271.49L222.18,271.93L221.27,273.96L217.74,272.81L212.21,271.44L210.77,269.96L208.65,268.06L207.55,266.39L205.77,264.19L204.28,261.76L203.13,261.16L201.83,257.99L201.99,254.88L202.42,253.8L203.67,253.83L208.38,252.63L208.06,250.69L208.33,249.18L209.26,248.16L211.16,247.82L211.15,247.32L210.17,246.58L210.25,245.67L211.03,243.09L211.64,240.42L211.52,234.19L211.6,231.25L211.84,227.07L212.54,224.66L215.27,220.75L215.02,220.14L213.31,217.49L213.09,216.13L213.97,214.14L214.49,213.6L215.81,214.36L217.7,214.63L219.19,213.32L219.01,212.48L216.64,212.52L216.21,212.25L216.73,209.92L216.42,209.28L214.1,208.95L213.88,208.41L214.01,206.19L214.32,205.16L215.06,204.67L216.64,204.84L216.87,205.54L216.51,207.16L217.35,207.93L218.66,207.45L218.01,205.5L218.36,204.14L217.12,202.09L214.49,203.75L211.95,203.58L210.67,204.28L203.77,204.22L202.32,203.83L201.57,202.81L201.31,201.46L200.25,200.26L198.23,199.94L197.61,198.58L196.86,198.04L196.48,196.94L195.49,195.87L195.13,193.47L195.1,187.58L195.45,186.6L195.44,184.73L196.5,182.82L197.68,182.08L199.07,181.97L202.5,180.73L204.62,179.35L204.91,178.38L204.55,177.33L202.24,172.96L202.02,171.07L202.7,166.51L203.14,165.88L205,164.18L206.68,164L207.84,164.71L208.81,166.31L209.45,168.18L210.34,169.42L212.02,171.3L215.12,172.27L219.82,172.08L223,172.53L227.07,172.52L229.28,173.14L231.4,173.41L232.29,173.76L235.29,173.85L237.32,173.23L238.82,171.79L241.28,169.12L242.26,167.33L243.49,165.81L246.05,163.94L249.15,162.5L249.85,161.88L251.63,161.7L253.22,160.89L254.55,160.53L256.59,160.7L257.51,161.56L258.32,162.8L260.48,165.1L262.28,167.31L262.74,168.1L264.26,169.06L266.32,171L268.28,171.95L271.5,173.25L273.2,173.49L276.59,174.96L277.4,175.75L277.86,177.17L277.79,178.15L277.19,180.75L278.45,182.24L279.46,184.9L279.65,186.06L281.66,190.93L282.03,192.35L283.47,194.29L284.56,196.06L285.49,199.7L286.48,203.06L286.41,207.72L286.56,208.33L287.49,209.49L288.57,209.89L290.26,209.5L290.72,209.9L289.95,210.43L291.32,213.26L291.24,213.77L292.85,215.84L292.47,216.66L291.52,217.07L289.01,218.7L288.42,219.75L288.21,222.17L288.97,222.37L289.62,221.55L290.59,221.32L291.41,222.62L292.36,223.41L293.96,224.16L296.79,224.37L297.81,225.39L300.49,225.03L301.29,225.22L304.05,226.73L304.8,226.74L307.64,228.11L309.45,229.81L309.6,230.59L309.18,232.45L308.61,233.14L307.04,233.59L306.9,234.15L307.79,236.65L308.36,238.83L309.41,241.62L309.22,243.42L308.84,243.8L307.12,243.83L306.59,244.17L306.27,245.64L306.73,247.28L306.65,248.14L305.17,249.67L304.64,250.74L304.25,252.53Z" stroke-miterlimit="10" stroke="#FFFFFF"/>
<path title="泗水县" fill="#D3D3D3" id="path8" d="M519.76,203.82L517.94,202.13L515.86,201.3L514.46,201L511.87,201.08L507.75,200.34L506.25,200.17L504.09,199.66L502.61,198.84L502.17,198.24L501.81,196.6L500.62,196.18L498.73,196.43L497.16,196.31L495.03,195.1L494.21,194.85L493.38,195.07L492.04,197.89L490.73,198.65L489.58,198.28L487.83,195.82L486.22,194.94L484.41,194.54L481.89,194.9L476.56,195.1L474.56,194.89L472.6,194.14L471.47,193.96L470.02,194.27L468.59,193.96L464.94,191.34L463.33,190.5L460.55,190.54L459.53,190.24L457.38,188.32L457.1,187.62L457.21,185.67L457.89,184.29L458.16,182.62L457.63,181.25L456.45,180.76L455.01,181.29L453.12,181.51L450.98,181.26L449.3,180.63L447.18,179.2L446.39,177.58L446.57,174.38L447.2,173.04L450.04,170.11L451.37,168.16L452.18,166.11L452.89,163.7L452.72,161.83L451.75,159.6L447.95,157.26L446.89,156.99L445.03,155.46L442.29,152.86L440.78,151.96L439.37,152.04L438.48,152.85L437.14,153.1L435.29,153.1L433.87,152.47L432.98,151.75L430.24,147.64L428.66,143.7L428.57,140.67L427.6,139.06L424.68,136.02L423.61,136.19L421.75,137.53L420.32,138.24L418.19,138.42L417.75,137.7L418.37,134.66L417.13,132.52L416.61,130.47L416.52,126.81L416.09,124.3L416.27,122.52L416.98,120.46L417.52,117.43L417.43,112.34L418.24,110.55L418.95,107.87L418.96,104.92L419.23,101.89L419.42,98.31L419.15,95.46L419.25,94.47L418.82,91.96L419.89,90.73L420.52,89.17L420.96,86.59L422.38,84.29L424.82,82.73L425.48,83.63L427.05,83.75L429.6,82.03L431.31,81.96L435.99,80.75L436.58,79.81L438.31,78.95L439.59,78.71L441.28,79.09L442.9,79.82L445.54,80.52L447.55,80.71L449.65,79.57L451.42,79.26L453.19,79.39L456.02,81.15L462.58,81.68L463.32,81.95L466.55,82.28L468.2,81.67L469.02,80.47L470.91,79.85L474.05,78.01L475.87,76.37L478.35,75.5L480,72.34L481.16,71.47L482.04,72.01L482.5,72.74L483.91,73.39L484.93,73.42L488.23,72.71L489.49,72.59L491.19,72.79L492.08,73.51L492.59,76.54L492.84,77.13L495.03,77.74L496.37,78.86L497.33,80.68L498.35,81.88L499.51,82.61L502.61,81.26L504.15,80.45L505.38,80.83L506.28,83L507.12,83.72L507.88,83.82L509.91,83.07L511.5,82.72L515.64,80.69L516.36,81.07L518.05,82.79L519.5,84.56L520.59,86.21L521.54,88.17L522.86,90.41L523.44,92.6L527.44,93.5L530.46,94.66L535.64,97.24L537.51,99.31L537.89,100.4L538.79,101.75L538.96,102.9L538.65,104.03L539.81,105.78L539.59,106.9L540.55,106.96L541.42,106.24L543.39,106.37L545.85,105.13L547.5,105.1L549.98,105.5L550.93,105.85L552.14,107.2L551.89,107.89L550.03,108.85L549.23,109.92L548.86,110.9L549.2,113.31L551.67,116.64L553.34,118.08L556.34,120.97L559.77,123.67L561.81,125.11L564.8,128.17L566.39,129.35L573,137.04L572.47,138.8L570.8,140.35L570.47,141.16L570.1,143.53L569.41,146.8L569.25,150.52L569.41,151.23L571.7,152.89L571.6,154.09L570.9,156.73L570.94,159.17L571.92,160.6L571.92,161.53L571.21,163.75L570.59,165.08L568.43,166.71L562.16,168.13L560.1,168.39L558.07,167.78L557.28,167.86L557.14,168.78L551.42,169.41L549.5,169.08L547.12,167.94L543.23,167.6L542.19,168L541.74,168.88L541.17,171.04L541.54,172.65L543.25,173.16L543.7,175.44L545.04,176.05L546.06,176.18L547.55,177.14L548.36,178.55L548.68,180.01L548.34,180.84L546.71,182.09L542.88,182.73L542.31,183.58L541.84,186.55L540.56,186.61L538.95,185.65L536.59,184.69L533.63,182.17L532.06,183L531.53,183.67L530.9,185.55L530.98,187.04L530.56,188.57L530.04,189.17L528.64,190.05L527.27,191.53L526.46,192.78L526.07,193.89L525.82,196.45L524.94,197.68L524.43,199.26L522.7,200.46L521.15,201.1L519.83,202.48Z" stroke-miterlimit="10" stroke="#FFFFFF"/>
<path title="微山县" fill="#D3D3D3" id="path3" d="M325.61,394.47L325.25,393.39L320.11,390.27L311.34,387.44L308.12,385.43L306.48,382.92L303.37,379.76L297.91,373.99L292.76,370.1L287.96,366.83L284.39,363.76L281.06,361.76L274.73,358.92L273,358.4L270.14,357.08L268.86,355.64L268.54,354L268.07,350.17L267.64,345.2L267.05,340.6L264.44,335.61L261.88,332.42L260.68,330.07L259.97,327.99L259.3,323.78L258.33,318.73L257.46,316.9L256.09,311.44L255.46,308.52L254.73,305.77L254.36,303.6L254.37,302.49L255.58,292.99L255.61,292.04L255.13,290.75L251.08,286.2L250.03,284.48L249.56,283.15L249.59,280.42L251.07,274.39L251.08,273.32L250.05,261.84L250.06,259.04L249.89,257.05L249.2,255.22L251.04,254.6L257.83,252.59L259.57,252.41L264.1,253.13L263.78,254.31L264.19,255.67L264.12,256.8L265.38,257.4L265.42,258.09L264.77,259.41L265.53,260.62L266.23,260.11L266.85,260.46L267.48,268L268.84,268.18L268.92,269.04L267.61,269.19L267.74,270.57L269.81,272.21L271.58,273.28L276.87,275.71L277.82,276.34L278.66,277.71L279.84,280.65L281.04,281.74L282.51,282.67L284.06,284.13L286.25,281.02L286.08,278.98L286.46,278.5L288.09,278.41L290.55,275.76L292.38,274.49L293.15,274.22L294.11,273.01L294.62,271.78L295.32,273.48L295.84,273.24L296.01,271.96L296.68,271.62L296.95,270.83L296.6,268.68L296.61,267L297.08,265.87L298.22,265.56L299.74,265.59L300.65,264.77L300.71,262.25L301,261.42L303.52,258.43L303.6,257.93L302.47,255.94L302.27,255.02L303.28,253.53L304.67,253.84L307,253.74L308.88,254.17L310.62,254.82L312.16,255.07L313.24,255.63L312.7,258.58L312.05,260.95L311.93,262.33L312.3,263.35L314.26,263.74L315.77,264.78L316.6,266.31L318.56,266.08L321.7,266.14L320.92,271.17L319.96,273.51L317.52,277.21L316.37,279.15L317.49,279.66L320.22,281.78L315.43,284.76L310.13,289.21L309,292.48L309.02,293.58L311.83,294.27L312.89,294.88L314.22,296.84L317.14,302.17L317.14,303.76L315.03,306.52L313.53,307.95L312.29,309.9L311.86,311.15L311.68,312.75L311.95,316.16L312.34,318.09L313.24,319.42L314.3,320.09L316.43,322.4L317.75,322.55L320.36,321.9L321.41,321.83L324.08,320.51L325.16,319.71L326.16,322.34L326.68,323.15L329.14,324.32L329.51,327.45L330.57,331.98L330.67,332.95L331.13,333.56L332.61,334.38L333.2,336.26L333.04,336.96L333.8,338.13L336.38,341.28L340.96,346.04L344,346.22L347.37,345.35L348.71,344.76L349.11,345.14L350.03,348.17L348.89,348.47L350.09,351.3L350.51,351.17L350.98,352.44L351.42,352.22L352.74,354.83L346.43,357.2L346.68,358.92L349.87,358.11L350.07,358.77L352.87,358.29L352.85,359.66L353.78,361.16L354.22,360.53L355.1,363.23L357.22,364.82L359.69,366.33L361.19,367.92L364.37,370.76L366.85,371.81L368.96,373.4L370.3,376.24L370.65,377.3L370.56,379.96L369.85,383.96L368.96,385.73L367.82,387.59L367.02,388.22L366.22,390.79L366.67,392.12L367.55,393L370.12,394.05L371.79,396.09L372.76,398.48L373.82,400.25L376.4,402.72L378.04,404.14L379.32,404.69L380.89,405.01L383.73,404.82L388.24,403.74L389.83,403.56L392.84,403.82L394.43,404.35L396.41,405.35L396.48,406.42L397.03,407.27L397.98,407.3L397.8,408.94L397.23,409.29L397.25,410.25L397.92,410.25L401.44,409.51L402.63,409.56L402.65,408.99L403.36,409.05L403.59,408.23L404.41,408.17L404.43,408.87L405.66,409.23L405.65,409.73L406.85,409.71L407.55,410.12L407.64,409.2L408.14,409.38L409.37,407.64L410.42,407.15L410.34,406.49L411.55,406.31L411.45,405.8L413.04,405.68L413.12,406.52L415.85,405.99L415.92,405.54L416.93,405.51L417.38,407.51L418.14,407.42L418.07,409.02L418.58,409.16L418.62,410.99L419.14,411.9L419.37,413.09L419.15,414.05L418.46,414.1L418.48,415.92L419.02,416.38L419.07,417.96L421.35,417.52L422.48,418.56L422.69,419.37L422.92,422.96L423.24,424.05L424.03,434.04L424.55,435.69L428.21,437.67L428.23,439.71L428.7,440.58L433.76,445.27L434.62,445.53L437.42,446.88L440.4,447.43L441.61,448.88L444.19,449.73L443.95,450.93L444.85,451.19L445.8,452.24L445.11,453.91L443.4,456.31L441.26,458.4L440.31,458.81L438.88,458.81L435.61,465.38L438.32,465.68L440.07,466.55L440.66,465.2L441.34,464.57L442.71,464.68L444.77,465.83L448.28,469.82L448.28,470.65L449.44,470.93L450.37,471.92L450.72,472.86L451.58,473.49L452.14,475.05L453.34,475.89L454.37,477.25L454.71,479.13L455.14,479.45L456.34,478.51L457.45,478.2L458.48,478.51L459.08,479.14L459.34,480.39L459.25,481.96L459.77,482.59L460.45,482.49L460.71,483.22L460.8,485.43L463.71,487.23L464.47,488.72L467.75,487.29L470.08,486.77L471.53,487.4L471.53,488.24L470.98,489.02L472.41,488.78L473.24,488.25L473.56,489.54L472.65,489.9L472.4,490.95L474.11,491.06L477.98,491.05L478.76,489.9L479.36,489.9L480.56,491.25L481.34,491.25L482.45,490.31L483.44,490.65L485.31,492.32L485.84,493.49L487.39,495.65L486.78,498.02L487.21,498.56L490.33,499.88L490.28,501.52L489.08,504.91L488.36,505.68L490.16,507.26L493.67,508.13L494.79,509.22L497.01,511.73L497.23,512.85L496.32,513.81L496.25,514.84L497.06,515.32L499.02,515.57L500.28,516.11L500.86,517.21L501.32,519.93L502.51,521.52L502.84,522.86L503.36,526.85L505.44,526.3L505.68,524.57L506.78,524.47L511.58,524.5L511.84,526.39L514.17,526.41L514.18,527.22L513.64,528.86L513.12,529.63L513.24,531.33L511.67,531.8L511.42,532.59L510.09,533.72L509.94,535.82L510.41,539.9L508.81,540.16L508.88,543.17L508.69,544.57L508.3,545.06L502.75,541.52L501.51,541.3L499.65,543.98L497.03,542.09L495.85,541.55L493.03,542.31L492.77,543.17L491.91,544.48L489.78,545.92L489.18,546.09L488.56,545.27L487.07,545.89L486.96,545.2L486.45,545.55L485.13,545.55L484.51,546.1L484.13,547.25L484.83,548.39L487.12,547.71L487.12,546.61L488.89,547.72L489.56,550.1L488.67,550.66L488.52,550.21L487.2,549.76L485.85,548.69L485.61,549.12L484.38,549.62L483.87,549.23L482.19,550.17L482.16,551.09L482.94,551.67L482.93,552.19L482.11,552.63L482.13,551.81L481.5,551.74L480.89,551.06L480.06,551.18L480.35,549.82L481.76,546.22L478.51,547.24L477.66,549.34L477.11,549.31L477.08,548.45L474.93,548.55L473.29,549.31L472.68,550.73L470.52,552.05L470.58,553.07L471.66,553.55L472.7,553.57L475.12,552.74L475.5,552.4L477.23,553.24L477.71,554.37L480.18,555.26L479.65,556.03L480.25,557.07L479.95,557.94L478.23,558.53L478.11,559.43L477.09,559.81L474.81,561.06L473.39,560.87L472.29,561.19L471.45,561.82L470.68,560.96L469.83,560.83L469.02,561.22L468.75,562.46L469.05,563.05L470.03,563.25L470.06,564.6L471.26,565.91L469.82,567.76L470.22,569.23L468.4,568.91L468.22,569.32L469.53,569.33L470.72,570.63L471,572.46L470.53,573.88L469.73,574.13L468.34,573.41L467.6,573.4L466.31,574.58L466.64,576.49L467.66,579.52L468.48,580.4L468.82,581.48L468.79,583.04L467.6,584.31L465.2,582.9L465.4,581.25L464.51,580.22L464.05,578.99L462.46,578.77L461.93,580.39L460.97,581.05L460.99,582.05L462.16,583.59L464.28,583.76L464.92,584.34L465.24,586.21L465.15,588.38L464.48,589.33L464.11,588.97L463.8,587.54L463.15,587.41L461.59,588.16L461.2,588.91L461.69,590.02L464.16,589.66L464,590.44L462.58,591.22L462.64,592.59L460.08,593.11L459.29,591.83L458.44,591.28L456.28,591.42L455.47,591.89L455.26,592.69L454.55,592.76L454.8,594.34L454.47,594.64L448.47,596.29L447.55,596.21L447.34,598.94L443.1,598.56L438.55,598.97L437.72,600L436.76,598.87L434.79,591.79L434.23,585.53L433.76,581.14L431.73,575.18L430.87,573.02L430.4,572.29L428.6,565.57L428.31,563.59L428.42,560.99L428.7,558.96L430.09,557.02L431.34,554.27L432.08,551.06L431.76,548.47L430.92,546.85L427.9,542.88L426.45,540.76L424.65,537.08L423.36,533.62L420.8,525.15L420.69,524.6L418.85,520.61L417.11,516.61L415.33,516.83L414.56,517.15L410.02,520.74L408.12,520.99L407.33,520.4L405.06,516.87L403.95,513.23L404.31,508.64L403.75,506.32L404.58,504.79L405.21,502.47L405.87,500.98L407.03,499.21L408.7,498.32L406.08,493.79L406.54,491.7L404.67,489.05L403.58,487.75L397.9,482.92L394.11,478.46L391.18,474.19L388.02,474.38L382.87,474.56L380.98,471.92L379.32,472.09L379.32,472.35L377.43,472.5L376.9,469.56L374.47,469.38L374.1,468.89L373.43,464.24L372.56,462.95L371.09,461.83L369.56,461.63L368.95,460.59L368.95,456.28L368.78,454.41L375.28,453.92L377.65,452.72L375.8,447.11L375.3,445.92L374.53,445.2L373.58,443.37L373.52,441.35L368.94,441.64L361.75,441.96L362.14,435.5L363.3,435.48L363.29,434.63L367.25,434.44L368.89,433.71L371.22,433.35L374.47,432.47L376.93,432.09L376.67,431.25L374.18,431.42L373.8,429.35L372.74,429.08L366.92,428.9L366.95,430.05L363.97,430.17L363.74,430.82L361.55,430.53L361.55,430.91L359.62,430.97L359.67,422.07L352.32,418.14L345.07,415.12L341.83,412.4L340.33,409.7L339.36,409.02L337.54,408.83L336.74,409.14L331.83,408.74L328,408.65L326.01,394.77Z" stroke-miterlimit="10" stroke="#FFFFFF"/>
<path title="汶上县" fill="#D3D3D3" id="path7" d="M262.28,107.38L260.15,110.16L258.2,111.6L257.68,112.4L256.97,114.46L257.24,117.22L258.23,118.74L260.01,119.72L260.81,119.26L261.96,119.08L262.68,119.35L263.66,121.22L263.93,123.63L265.29,129.87L265.29,131.66L265.57,134.25L265.58,137.02L265.13,138.18L263.81,140.68L259.91,146.05L257.98,150.52L257.35,151.6L256.83,154.09L256.75,155.88L256.93,158.82L256.59,160.7L254.55,160.53L253.22,160.89L251.63,161.7L249.85,161.88L249.15,162.5L246.05,163.94L243.49,165.81L242.26,167.33L241.28,169.12L238.82,171.79L237.32,173.23L235.29,173.85L232.29,173.76L231.4,173.41L229.28,173.14L227.07,172.52L223,172.53L219.82,172.08L215.12,172.27L212.02,171.3L210.34,169.42L209.45,168.18L208.81,166.31L207.84,164.71L206.68,164L205,164.18L203.14,165.88L202.7,166.51L202.02,171.07L202.24,172.96L204.55,177.33L204.91,178.38L204.62,179.35L202.5,180.73L199.07,181.97L197.68,182.08L196.64,180.36L193.76,177.04L192.21,175.41L191.86,174.66L189.95,172.57L190.55,170.45L188.8,168.09L188.53,167.09L188.58,165.73L188.23,164.53L186.98,163.81L184.92,164.86L182.04,166.07L181.26,165.78L180.9,164.89L181.28,162.6L179.61,160.11L178.63,159.15L176.24,156.28L173.26,152.93L172.91,152.26L174.55,151.57L174.1,149.76L173.42,148.32L171.73,148.43L171.31,147.85L171.79,146.83L171.7,144.96L172.26,142.9L173.1,143.17L174.41,142.99L177.32,142.14L179.01,141.37L179.95,140.68L180.66,139.68L180.61,138.83L179.32,136.9L176.01,133.38L175.78,132L175.87,129.77L175.63,128.41L174.94,127.41L172.67,126.94L171.6,126.55L171.43,125.41L172.25,124.27L173.21,123.71L173.65,122.89L174.5,120.23L174.67,117.06L175.8,112.93L176.78,111.93L176.98,110.97L176.42,109.57L176.31,105.71L176.98,103.68L178.18,102.65L179.49,101.84L181.27,100.46L183.23,98.58L183.67,96.77L182.85,95.64L182.16,93.61L180.96,92.18L180.07,92.05L178.82,92.56L176.78,94.35L175.71,94.78L174.22,94.59L173.23,92.35L172.57,91.48L172.32,89.99L170.36,87.62L169.78,85.37L168.87,84.17L167.18,82.72L165.84,81.12L167.49,79.64L168.11,78.7L169.42,77.7L171.23,76.89L172.32,75.84L173.39,73.72L174.45,72.28L175.61,71.54L177.19,70.99L179.57,70.75L181.27,71.15L182.76,72.58L184.29,72.67L185.41,72.44L186.52,72.55L187.52,72.31L189.95,70.31L190.79,70.21L192.19,70.76L193.1,71.86L194.75,73.1L196.39,73.31L197.9,72.93L199.5,71.9L201.21,71.28L202.28,71.57L203.57,72.4L204.9,71.98L205.97,70.78L206.19,68.17L207.94,67.28L208.52,67.22L209.89,66.17L211.64,65.55L212.35,65.68L213.41,64.83L213.39,59.99L216.01,56.91L218.49,58.03L222,54.86L225.02,55.19L228.5,54L230.98,54.67L232.65,50.32L232.96,51.11L234.13,52.49L237.63,52.6L241.89,48.57L242.95,45.66L242.99,40.06L243.93,38.66L244.16,35.6L244.75,34.4L245.68,33.33L247,32.29L248.49,31.76L252.1,31.01L254.32,30.9L255.57,30.55L256.4,30.01L257.57,28.01L257.65,25.69L257.94,24.97L259.11,23.57L260.24,21.62L262.2,20.05L263.62,18.25L264.56,17.63L266.65,16.93L267.75,16.9L269.17,17.26L270.84,17.27L271.75,17L273.28,16.12L276.15,16.05L278.61,16.31L279.41,16.84L280.18,18.98L281.36,19.94L282.1,22L280.63,23.72L279.81,27.71L278.98,29.98L278.9,32.81L274.66,36.56L272.78,37.97L270.34,38.86L267.49,39.64L265.47,40.55L263.33,42.76L262.47,45.36L262.58,47.6L263.14,49.47L264.13,50.71L265.12,51.23L268.27,53.6L269.99,55.55L270.71,56.62L272.7,58.28L275.6,59.87L278.96,61.37L280.92,61.85L282.02,62.35L283.43,63.55L285.13,65.54L285.74,67.55L285.75,69.55L285.35,71.76L284.76,73.37L283.7,77.27L282.21,79.35L281.43,81.23L281.3,82.37L280.47,83.39L280.09,84.73L280.05,86.01L279.26,86.57L277.57,87.28L275.87,87.03L272.19,85.3L269.34,84.98L265.27,87L263.94,87.91L262.8,89.44L262.37,90.79L262.31,92.58L261.98,95.08L262.36,97.58L261.56,100.09L261.55,105.16Z" stroke-miterlimit="10" stroke="#FFFFFF"/>
<path title="兖州区" fill="#D3D3D3" id="path2" d="M345.2,116.75L346.17,118.72L346.17,119.79L345.73,121.21L343.16,123L340.94,123.81L337.22,124.78L335.62,125.94L335.27,126.84L335.62,128.62L337.31,129.07L339.8,129.25L340.59,129.87L340.95,130.86L341.3,133.09L340.35,136.54L339.58,136.84L337.36,136.97L338.8,142.44L338.8,143.71L338.47,145.03L337.53,146.55L337.16,147.7L337.3,148.9L337.9,150.34L339.04,151.9L339.3,153.18L338.97,154.33L337.7,155.77L337.43,156.63L337.46,159.65L338.63,163.41L338.27,167.6L337.73,170.07L339.32,173.19L339.68,174.88L341.15,177.38L342.46,180.12L344.79,184.33L346.49,187.97L347.76,190.33L350.84,194.16L351.82,196.08L350.61,197.7L351.43,199.93L349.03,201.81L346.58,204.57L344.43,206.69L342.77,211.11L340.63,212.05L338.82,212.22L337.92,212.07L335.84,211.26L335.1,211.27L332.75,212.35L330.1,212.32L328.95,212.07L327.25,212.27L326.98,214.18L326.45,215.56L324.27,218.57L322.5,220.15L320.95,222.08L319.13,226.08L318.32,227.37L317.19,228.41L316.07,228.89L313.98,229.29L310.25,229.14L309.45,229.81L307.64,228.11L304.8,226.74L304.05,226.73L301.29,225.22L300.49,225.03L297.81,225.39L296.79,224.37L293.96,224.16L292.36,223.41L291.41,222.62L290.59,221.32L289.62,221.55L288.97,222.37L288.21,222.17L288.42,219.75L289.01,218.7L291.52,217.07L292.47,216.66L292.85,215.84L291.24,213.77L291.32,213.26L289.95,210.43L290.72,209.9L290.26,209.5L288.57,209.89L287.49,209.49L286.56,208.33L286.41,207.72L286.48,203.06L285.49,199.7L284.56,196.06L283.47,194.29L282.03,192.35L281.66,190.93L279.65,186.06L279.46,184.9L278.45,182.24L277.19,180.75L277.79,178.15L277.86,177.17L277.4,175.75L276.59,174.96L273.2,173.49L271.5,173.25L268.28,171.95L266.32,171L264.26,169.06L262.74,168.1L262.28,167.31L260.48,165.1L258.32,162.8L257.51,161.56L256.59,160.7L256.93,158.82L256.75,155.88L256.83,154.09L257.35,151.6L257.98,150.52L259.91,146.05L263.81,140.68L265.13,138.18L265.58,137.02L265.57,134.25L265.29,131.66L265.29,129.87L263.93,123.63L263.66,121.22L262.68,119.35L261.96,119.08L260.81,119.26L260.01,119.72L258.23,118.74L257.24,117.22L256.97,114.46L257.68,112.4L258.2,111.6L260.15,110.16L262.28,107.38L262.69,107.93L264.54,108.05L266.47,107.72L269.58,106.54L273.23,104.74L278.3,103.47L280.44,102.29L285.78,100.3L287.83,100.38L288.63,100.99L288.99,101.8L289.45,104.92L290.08,106.08L291.06,106.71L292.77,107.15L292.22,108.9L294.9,109.42L295.44,107.71L300.06,108.63L301.92,108.63L301.92,109.57L303.97,109.63L304.05,108.39L306.46,107.81L309.21,106.74L310.6,108.07L311.53,108.59L311.62,109.5L312.24,110.93L313.83,113.5L314.28,118.07L317.84,118.26L322.62,117.94L321.68,116.12L322.55,115.3L323.61,113.34L323.97,111.73L324.14,108.69L324.58,107.62L326.29,107.64L327.9,107.94L328.37,111.16L329.61,110.82L332.65,110.98L332.68,111.78L333.82,112L334.36,113.41L335.55,113.9L335.61,114.61L336.97,114.34L336.91,115.53L338.05,115.69L338.05,116.4L338.7,117.05L340.55,116.78L340.6,118.12L342.77,117.59L343.05,116.5L344.3,116.34L344.35,117.27Z" stroke-miterlimit="10" stroke="#FFFFFF"/>
<path title="鱼台县" fill="#D3D3D3" id="path4" d="M325.61,394.47L323.76,393.41L323.8,393.92L322.82,393.57L323.14,405.71L323.91,406.04L323.9,408.21L324.79,408.42L324.85,409.17L320.65,408.95L320.56,407.1L320.83,407.13L321.28,405.69L322.01,405.54L321.63,392.76L317.55,390.99L317.34,394.08L317.55,396.89L315.19,396.08L316.39,401.72L320.02,402.93L320.24,405.01L316.87,404.34L316.1,408.96L315.05,413.56L309.79,413.6L307.27,413.21L305.44,412.65L300.48,410.46L298.03,409.93L296.13,409.96L294.12,408.93L292.89,407.66L291.33,406.85L291.11,405.86L288.4,407.33L286.56,407.21L285.87,405.99L284.08,405.77L283.71,404.75L282.4,404.84L281.88,405.69L281.7,407.18L276.23,407.06L275.87,407.48L276.04,408.77L273.88,408.6L271.58,407.86L271.52,407.39L270.4,407.39L270.39,406.66L269.8,406.62L269.85,405.9L267.79,404.25L267.18,405.27L264.87,404.51L264.53,405.38L263.9,405.34L263.37,406.65L264.18,406.99L263.96,407.9L262.6,408.56L262.13,411.16L260.8,410.79L260.23,411.89L259.02,411.76L258.44,412.45L253.7,413.58L252.61,413.42L251.72,414.11L251.59,413.28L250.79,413.33L250.86,414.56L245.12,416.37L243.84,416.51L241.92,416.36L241.45,415.43L240.69,415.63L240.71,416.33L239.15,416.96L239.24,417.29L237.92,417.66L233.42,418.43L233.43,417.45L232.4,417.51L230.72,416.89L230.51,417.24L231.73,417.56L231.62,418.01L228.49,417.46L227.99,417.79L227.01,417.6L226.63,419.21L226.3,419.52L220.49,419.9L220.02,420.97L218.54,421.28L218.6,420.74L217.41,420.67L217.44,420.18L216.52,420.15L216.55,420.57L214.49,420.53L214.12,419.97L212.14,419.71L211.99,421.52L210.65,421.5L210.56,421.91L208.74,421.72L208.49,421.48L208.39,417.67L209.08,416.35L208.29,415.32L205.73,414.78L206.48,413.76L206.84,411.63L206.2,410.17L206.28,409.13L203.8,407.31L201.94,405.28L200.96,403.16L200.59,399.88L200.15,398.28L199.69,395.19L199.24,393.51L201.05,385.61L201.48,383.21L201.82,380.37L202.17,379.31L202.33,377.36L201.88,376.3L199.67,373.65L199.14,372.68L199.75,371.61L199.74,370.54L197.35,368.25L196.19,366.84L195.48,364.89L194.76,362.24L193.43,360.83L192.75,359.8L193.31,356.11L192.98,355.31L193.12,354.27L193.64,353.84L194.14,352.68L195.47,350.68L197.42,350.51L197.76,350.22L198.02,348.8L198.55,348.3L199.7,348.24L202.15,347.02L204.86,346.14L209.03,342.99L208.29,342.55L206.55,342.44L204.46,342.02L202.6,342.32L202.36,341.04L201.33,341.49L201.09,340.4L201.11,338.74L200.63,336.83L201.51,336.38L203.89,335.92L206.01,335.91L207.94,335.46L210.65,334.08L211.88,333.77L214.24,333.5L217.95,332.68L219.5,332.85L222.46,333.57L225.57,334.13L226.54,334.06L228.65,333.03L229.49,332L230.69,330.85L231.83,329.34L237.77,320.87L239.05,319.76L241.39,318.66L247.2,316.33L248.89,316.06L254.08,316.66L257.46,316.9L258.33,318.73L259.3,323.78L259.97,327.99L260.68,330.07L261.88,332.42L264.44,335.61L267.05,340.6L267.64,345.2L268.07,350.17L268.54,354L268.86,355.64L270.14,357.08L273,358.4L274.73,358.92L281.06,361.76L284.39,363.76L287.96,366.83L292.76,370.1L297.91,373.99L303.37,379.76L306.48,382.92L308.12,385.43L311.34,387.44L320.11,390.27L325.25,393.39Z" stroke-miterlimit="10" stroke="#FFFFFF"/>
<path title="邹城市" fill="#D3D3D3" id="path11" d="M325.16,319.71L324.08,320.51L321.41,321.83L320.36,321.9L317.75,322.55L316.43,322.4L314.3,320.09L313.24,319.42L312.34,318.09L311.95,316.16L311.68,312.75L311.86,311.15L312.29,309.9L313.53,307.95L315.03,306.52L317.14,303.76L317.14,302.17L314.22,296.84L312.89,294.88L311.83,294.27L309.02,293.58L309,292.48L310.13,289.21L315.43,284.76L320.22,281.78L317.49,279.66L316.37,279.15L317.52,277.21L319.96,273.51L320.92,271.17L321.7,266.14L318.56,266.08L316.6,266.31L315.77,264.78L314.26,263.74L312.3,263.35L311.93,262.33L312.05,260.95L312.7,258.58L313.24,255.63L312.16,255.07L310.62,254.82L308.88,254.17L307,253.74L304.67,253.84L303.28,253.53L304.25,252.53L304.64,250.74L305.17,249.67L306.65,248.14L306.73,247.28L306.27,245.64L306.59,244.17L307.12,243.83L308.84,243.8L309.22,243.42L309.41,241.62L308.36,238.83L307.79,236.65L306.9,234.15L307.04,233.59L308.61,233.14L309.18,232.45L309.6,230.59L309.45,229.81L310.25,229.14L313.98,229.29L316.07,228.89L317.19,228.41L318.32,227.37L319.13,226.08L320.95,222.08L322.5,220.15L324.27,218.57L326.45,215.56L326.98,214.18L327.25,212.27L328.95,212.07L330.1,212.32L332.75,212.35L335.1,211.27L335.84,211.26L337.92,212.07L338.82,212.22L340.63,212.05L342.77,211.11L344.43,206.69L346.58,204.57L349.03,201.81L351.43,199.93L350.61,197.7L351.82,196.08L352.35,195.22L353.56,194.29L356.97,193.89L358.1,193.49L359.35,195.2L360.33,195.87L363.17,195.64L364.38,196.11L366.22,196.1L367.09,196.37L367.5,197.02L367.44,199.75L367.99,200.76L373.86,200.13L375.99,199.52L376.28,199.09L376.37,196.52L376.64,195.65L378.15,194.7L379.48,193.44L380.39,192.06L381.24,191.64L383.29,191.74L385.37,192.14L388.04,191.89L388.35,191.58L388.55,189.76L388.13,187.14L388.19,185.7L389.07,185.14L390.17,184.99L392.5,185.4L394.25,185.47L396.22,185.84L396.89,186.37L397.24,187.71L399.34,190.77L402.09,191.68L403.68,192.68L406.68,193.2L410.54,194.35L413.7,195.01L418.01,195.27L419.51,196.14L422.87,197.04L425.49,197.44L426.31,197.25L427.68,196.16L428.75,194.4L429.31,192.32L429.44,191.1L429.89,190.87L431.74,190.99L433.84,191.93L436.35,193.38L438.08,193.71L439.41,195.25L441.45,196.84L442.08,197.85L442.28,198.94L441.25,201.42L440.82,203.7L439.83,205.46L440.51,206.94L442.52,207.61L443.57,207.29L444.89,206.14L445.94,206.01L448.14,207.45L449.24,207.46L450.22,205.17L450.77,204.78L454.01,205.26L457.17,205.17L458.93,204.87L460.42,204.02L461.33,202.74L462.51,200.08L463.65,199.78L464.28,199.11L464.02,197.25L463.66,196.88L461.61,196.15L461,194.62L461.16,192.79L460.55,190.54L463.33,190.5L464.94,191.34L468.59,193.96L470.02,194.27L471.47,193.96L472.6,194.14L474.56,194.89L476.56,195.1L481.89,194.9L484.41,194.54L486.22,194.94L487.83,195.82L489.58,198.28L490.73,198.65L492.04,197.89L493.38,195.07L494.21,194.85L495.03,195.1L497.16,196.31L498.73,196.43L500.62,196.18L501.81,196.6L502.17,198.24L502.61,198.84L504.09,199.66L506.25,200.17L507.75,200.34L511.87,201.08L514.46,201L515.86,201.3L517.94,202.13L519.76,203.82L522.62,206.04L524.26,207.62L526.51,208.73L527.75,210.12L527.91,211.75L527.16,213.22L528.09,216.42L528.38,216.9L530.42,217.98L532.05,219.52L532.82,220.92L533.82,223.71L534.37,226.2L534.01,226.78L531.48,228.4L530.76,230.31L531.38,232.39L531.85,233.25L530.93,236.03L527.52,239.28L524.85,239.73L523.28,242.21L523.07,246.37L523.29,247.25L524.4,248.56L525.58,253.6L526.07,254.4L527.78,255.64L532.84,257.98L534.2,258.49L535.68,259.77L535.55,261.13L534.35,262.53L532.17,266.31L531.16,268.45L530.7,270.2L528.89,269.74L528.74,270.04L525.99,271.29L523.87,271.89L522.77,272.47L519.75,274.77L517.87,275.52L515.95,275.32L515.15,274.93L514.13,273.34L512.64,271.79L511.86,269.23L512.13,267L511.88,264.8L511.31,263.62L510.59,262.87L509.37,262.49L508.12,262.54L506.42,262.04L505.34,260.82L504.03,260.14L502.26,259.94L500.97,260.02L500.12,259.69L497.94,258.23L495.03,258.76L494.15,259.48L492.64,259.17L491.63,258.71L489.91,258.45L487.38,257.56L484.82,257.5L484.1,258.89L483.22,259.71L481.81,260.46L481.61,261.04L482.17,263.51L483.57,264.52L483.94,265.31L483.95,267.22L483.63,269.61L482.63,270.82L480.94,267.19L479.87,266.57L478.1,265.94L475.97,265.58L474.19,267.54L473.04,268.16L471.25,268.39L469.38,269.49L467.16,270.19L466.94,270.82L467.18,272.95L468.4,276.51L469.38,278.56L469.37,280.33L467.95,280.42L467.07,280.06L463,279.43L461.23,279.51L457.25,279.14L454.08,278.95L451.87,279.39L450.45,280.18L449.03,281.42L448.03,283.32L447.59,285.06L447.2,285.69L445.78,286.5L443.68,287.2L440.1,287.35L438.36,288.24L435.79,289.77L433.6,291.29L432.53,291.67L429.06,292.1L427.1,291.9L424.25,292L420.59,292.99L419.49,293.83L418.66,294.06L417.41,295.75L415.85,296.28L413.62,296.18L412.25,295.65L410.29,294.54L408.29,293.72L406.42,293.27L404.89,293.26L401.11,294.7L398.94,295.1L395.66,295.18L393.34,295.86L391.14,297.18L388.87,298.33L386.25,301.15L385.04,303.13L382.87,304.92L381.33,305.46L380.15,306.35L378.08,307.52L374.66,308.95L374.12,309.97L374.32,310.74L373.03,312.36L372.25,312.84L370.15,312.7L369.04,313.02L366.85,314.47L364.73,314.84L363.67,314.31L362.96,313.15L360.75,310.93L356.95,312.27L355.35,311.83L354.11,310.85L353.17,308.91L352.82,306.96L352.11,305.72L345.21,308.7L343.87,309.96L342.99,312.54L342.2,312.81L341.93,314.67L341.06,315.51L339.59,316.33L338.06,316.21L336.2,314.13L333.82,312.22L332.45,310.77L331.37,310.11L329,310.98L327.02,312.35L325.59,312.78L324.53,312.82L325.61,314.3L325.94,315.38Z" stroke-miterlimit="10" stroke="#FFFFFF"/>
</svg>