<svg xmlns="http://www.w3.org/2000/svg" xmlns:xlink="http://www.w3.org/1999/xlink" width="600" height="600">
<path title="博山区" fill="#D3D3D3" id="path3" d="M188.58,322.16L189.5,321.9L190.35,321.1L190.84,318.63L193.17,316.92L194.7,317.48L195.5,318.43L196.52,318.6L196.73,317.6L199.32,317.87L198.99,316.46L199.47,313.35L202.3,311.95L203.69,312.67L204.52,314.33L204.42,315.09L206.63,315.39L207.39,315.01L207.71,315.81L208.6,315.57L210.85,318.39L214.99,317.8L217.87,316.61L219.25,317.42L221.22,317.68L221.29,316.84L222.09,315.31L223.72,315.07L224.79,313.21L225.55,307.86L226.43,306.02L227.92,304.86L229.15,305.46L230.56,305.56L230.64,304.92L231.52,304.6L233.01,304.77L233.54,304.44L234.98,304.84L234.96,306.81L235.74,307.06L235.97,308.19L237.91,308.46L238.21,307.47L239.43,307.15L239.31,307.87L242.58,309.76L243.1,311.05L244.52,312.06L246.67,311.53L247.78,310.92L249.01,310.75L251.25,312.92L250.53,314.49L252.58,315.62L252.04,316.65L253.59,317.15L253.36,318.55L255.72,319.72L257.46,321.09L256.97,322.17L256.07,322.22L255.67,323.63L256.12,324.15L258.6,325.71L260.15,326.21L261.25,325.86L262.61,325.98L264.76,327.78L264.24,328.97L265.9,330.53L266.24,331.14L265.85,331.88L266.74,333.02L268.08,333.35L268.01,336.49L266.64,338.09L264.15,338.55L262.01,340.7L259.24,341.6L258.51,341.55L255.53,343.21L253.45,344.81L253.47,345.08L255.61,346.94L257.77,347.01L259.25,348.7L260.62,348.7L260.66,349.52L259.95,350.13L260.34,350.51L260.35,352.88L263.86,356.61L265.51,357.4L266.82,357.68L267.5,356.81L268.94,356.7L270.45,357.71L271.48,357.64L271.47,356.98L272.59,357.08L272.59,358.66L271.79,359.44L271.92,360.01L273.28,359.92L274.96,359.35L276.74,359.5L277.25,360.52L278.46,360.68L281.55,364.77L281.84,366.45L281.79,367.93L285.64,368.74L286.19,369.63L287.55,370.33L290.74,371.1L292.04,372.24L294.68,371.88L295.36,372.29L296.4,372.06L296.94,371.11L298.32,371.08L299.06,369.97L299.81,369.62L300.87,368.16L302.59,367.32L305.12,369L307.15,368.83L309.17,369.24L309.79,369.76L311.91,369.32L312.04,368.31L314.96,369.16L315.57,369.98L317.67,369.7L318.8,370.25L320.39,371.64L322.24,372.31L322.57,372.94L322.52,375.09L323.1,376.56L321.43,378.38L321.34,379.11L320.15,379.56L320.33,380.76L321.59,383.89L323.36,385.4L323,386.34L323.75,387.38L323.88,388.52L323.37,389.59L324.08,392.8L326.05,395.59L327.97,395.19L328.87,394.51L328.57,393.65L329.61,392.63L331.43,392.23L333.66,390.74L334.89,390.49L335.57,389.3L336.58,388.34L336.34,385.89L336.75,384.62L339.28,384.38L340.74,382.92L342.03,382.77L342.59,383.3L342.94,385.07L342.46,386.02L344.03,387.87L343.84,391.57L344.06,393.92L345.06,395.7L346.49,395.49L348.61,394.2L351,393.17L353,393.44L354.2,392.65L356.2,392.87L357.73,393.84L357.99,394.63L357.22,395.53L355.81,398.83L356.04,400.58L356.86,401.66L357.98,402.01L358.56,401.49L359.97,402.1L361.19,401.98L360.81,403.88L361.84,403.56L362.09,403.98L361.61,405.26L361.74,406.47L363.29,407.36L363.92,408.24L364.34,410.18L366.38,410.54L366.79,412.21L366.07,412.57L365.42,412.11L363.66,411.75L361.91,411.71L359.26,412.5L358.63,414.02L358.85,414.88L357.9,415.04L356.02,417.36L357.55,418.09L357.93,419.3L355.92,418.75L354.85,419.17L353.77,420.58L352.9,420.02L351.43,420.35L350.54,423.27L351.11,424.36L350.88,425.38L351.8,427.11L351.71,431.09L352.59,432.03L353.07,433.12L352.77,435.2L351.63,435.78L350.89,435.57L349.69,436.4L348.38,436.24L346.95,434.88L345.22,435.9L344.27,436.17L341.07,435.25L340.22,435.5L339.72,436.41L339.63,437.77L338.62,439.22L336.84,438.96L332.54,440.13L332.02,440.92L330.1,441.14L329.06,441.93L328.94,442.52L327.46,441.66L327.45,440.52L326.2,440.49L324.89,439.43L323.55,439.52L322.77,438.09L321.83,438.86L319.38,438.73L317.54,437.96L316.21,436.75L313.68,436.77L311.69,436.56L309.18,436.97L305.12,437.01L300.31,434.36L298.96,434.78L298.58,436.09L297.37,436.51L296.11,436.19L294.18,436.17L293.32,436.64L292.59,436.4L290.99,437.22L290.55,438.74L288.64,439.34L288.82,440.52L288.22,441.21L286.42,442.44L285.36,445.21L284.44,445.79L283.88,445.01L284.86,443.93L283.87,443.32L282.47,444.02L280.8,443.01L279.47,443.57L279.44,445.57L278.4,447.28L277.88,447.52L277.5,449.11L273.47,447.83L271,448.05L269.93,447.28L267.12,446.6L265.7,447.85L263.23,447.59L261.56,446.12L261.13,445.08L261.69,443.68L262.67,442.35L262.17,439.14L260.78,438.51L259.61,434.96L259.7,431.71L260.33,431.49L260.43,429.39L259.29,427.72L258.12,427.38L258.11,426.18L258.58,424.3L259.54,423.18L261.14,422.64L261.54,422.06L261.62,419.91L262.48,419.28L262.31,420.27L263.49,420.05L263.86,418.75L262.91,418.51L262.38,417.58L263.63,417.05L262.97,416.18L261.86,416.18L262.63,415.68L261.37,414.12L259.87,413.26L261.9,413.04L261.64,413.93L263.01,415.48L263.87,415.43L263.84,414.37L262.54,414.31L262.51,412.07L261.77,411.05L260.27,410.75L260.07,411.11L260.64,412.63L258.89,412.75L257.06,411.9L256.61,412.78L255.52,412.89L254.45,412.44L253.59,411.2L252.55,412.28L252.93,414.53L251.07,414.88L249.3,417.82L249.54,419.11L248.48,418.85L247.96,418.2L248.06,416.75L248.82,414.91L249.61,414.17L248.86,412.53L249.33,411.9L249.93,409.11L249.15,406.25L247.96,406.29L247.34,407.61L246.64,410.07L245.67,410.6L245.27,410.22L245.52,408.65L244.88,408.16L245.45,406.67L245.43,403.96L244.44,404.1L242.81,401.11L242.76,400.27L241.86,399.6L240.1,397.15L238.67,396.28L237.19,395.81L235.89,394.11L235.7,393.19L236.57,392.23L236.83,390.97L236.49,389.56L236.78,388.36L236.61,386.83L235.69,385.46L229.26,383.91L227.82,382.67L227.15,383.44L226.62,383.33L226.18,380.58L225.66,379.22L226.52,376.8L226.7,375.32L227.95,374.5L228.34,373.05L227.89,372.2L226.22,371.78L224.23,372.19L223.41,370.7L222.11,371.19L222.25,372.03L222.99,372.43L222.28,375.24L221.57,375.75L220.13,374.94L217.26,376.56L215.91,376.94L215.89,375.01L214.9,373.68L213.15,373.09L212.37,373.25L211.39,375.41L211.35,376.05L212.99,376.23L212.12,378.09L210.96,377.34L210.93,376.31L210.33,375.54L208.99,372.99L207.17,372.91L206.15,371.97L204.63,371.81L203.54,372.65L201.82,373.17L200.47,371.2L200.99,370.32L203.22,367.85L202.18,367.83L200.9,365.09L199.66,364.37L201.12,363.25L202.36,363.69L203.44,363.31L204.13,361.82L203.93,360.37L202.52,360.82L202.02,360.49L201.45,357.91L201.01,358.18L199.36,357.32L199.2,356.69L197.92,356.47L201.03,353.91L201.62,351.78L200.43,348.74L199.35,349.1L198.67,348.72L198.76,347.65L195.97,347.76L193.98,345.17L193.4,344.87L195.52,343.62L196.43,343.73L199.01,342.66L201.04,342.42L202.01,342.66L201.22,343.28L200.01,343.49L201.38,343.94L203.94,342.87L204.05,341.32L202.27,339.33L200.83,338.62L198.7,336.19L195.75,335.7L195.88,334.92L194.79,331.07L194.66,329.45L193.3,328.88L191.66,326.95L189.11,326.18L188.9,324.91L189.23,323.21Z" stroke-miterlimit="10" stroke="#FFFFFF"/>
<path title="高青县" fill="#D3D3D3" id="path7" d="M303.24,80.36L302.39,80.31L302.21,79L300.65,79.94L300.41,81.15L297.14,81.7L296.65,82.14L294.97,82.67L293.92,83.32L293.92,83.86L292.26,84.83L290.99,85.22L287.48,85.39L286.84,84.34L285.48,84.64L285.59,85.09L284.14,86.71L283.1,87.51L280.89,88.21L279.25,87.76L279.24,88.87L278.18,88.92L274.01,89.73L265.91,91.84L259.15,94.06L250.12,96.86L242.74,97.57L237.35,98.02L232.96,96.45L230.44,95.71L228.71,95.55L224.05,95.58L218.5,94.57L216.28,94.3L213.28,94.41L206.15,95.08L202.67,96.51L194.8,96.91L192.41,96.45L190.15,95.21L186.84,94.83L184.99,95.1L181.74,95.24L179.93,95.04L171.75,93.34L169.67,92.5L165.35,90.43L161.04,88.49L156.2,87.35L152.09,85.71L148.22,85.48L145.55,86.86L142.02,88L141.92,87.34L141.04,87.4L140.87,86.57L139.42,86.8L139.49,87.63L137.82,86.98L137.44,86.11L136.39,86.12L135.87,84.17L135.97,81.87L135.68,80.8L134.91,80.82L135,79.57L133.98,79.32L133.84,76.74L135.9,76.5L137.04,74.75L136.61,73.29L135.87,73.24L136.16,71.95L132.81,70.11L132.01,70.54L130.14,70.55L129.7,69.59L129.79,68.01L128.77,67.51L128.39,65.37L128.61,63.74L127.73,64.16L127.56,62.95L128.27,62.77L127.97,60.51L136.1,58.46L137.35,57.77L140.4,54.53L141.52,52.73L142.39,50.34L142.6,48.1L144.41,36.06L144.6,35.46L146.02,34.05L148.94,32.44L150.66,31.16L153.77,27L154.88,24.32L155.23,22.32L155.67,17.11L156.01,15.76L158.07,11.66L160.95,7.48L162.15,6.36L166.32,3.81L168.29,3.72L170.57,4.53L172.19,5.58L178.35,11.14L179.71,11.8L182.4,12.58L191.27,14.95L198.5,15.98L202.09,16.79L204.62,16.95L206.83,16.8L208.29,16.2L209.81,15.13L222.83,2.96L226,1.16L228.04,0.4L229.84,0L234.22,0.08L237.15,1.15L241.5,2.96L243.66,4.29L245.23,6.05L246.4,8.1L247.54,9.06L249.72,8.98L252.39,8.57L254.9,7.84L256.23,7.2L258.67,5.64L261.94,3.88L266.27,0.93L267.04,1.34L267.81,4.26L268.72,5.06L268.34,5.77L268.94,6.4L268.29,9.13L268.66,9.38L269.81,8.64L271.15,7.09L273.37,6.4L274.27,4.86L276.27,5.31L278,6.66L278.04,8.2L278.96,7.14L280.82,7.86L281.8,7.12L282.76,9.03L283.75,9.04L284.21,12.64L283.52,12.95L283.79,15.01L284.52,14.43L285.15,14.68L285.82,16.21L284.66,18.06L283.96,18.62L282.88,18.42L280.38,19.71L281.27,20.15L280.86,21.99L279.73,21.74L279.23,22.71L279.43,25.18L278.95,25.25L278.62,27.07L277.6,27.2L277.82,29.48L279.25,29.86L279.33,28.85L280.3,28.51L280.93,30.67L280.49,31.73L281.55,32.21L282.74,31.11L285.1,31.17L285.16,32.62L288.41,32.16L289.12,32.61L290.51,32.81L290.94,33.46L294.04,32.23L294.31,30.25L294.92,30.22L294.7,27.38L295.01,26.98L298.57,27.2L300.14,27.5L301.52,29.3L302.6,28.86L303.5,29.56L303.66,31.12L303.41,31.8L304.1,34.33L305.32,34.02L308.02,33.81L308.49,32.66L309.84,32.35L309.9,33.44L311.61,33.58L311.54,34.74L313.36,34.99L313.59,36.32L312.86,36.68L313.8,38.46L314.74,41.74L315.46,41.17L316.51,43.23L315.06,44.2L312.46,46.76L312.68,48.06L313.49,50.03L313.16,50.48L310.14,52.95L309.21,53.5L309.23,54.74L308.18,55.48L308.24,57.22L309.56,57.49L309.11,58.57L308.33,58.59L308.45,59.94L310.15,59.12L310.27,59.98L309.53,60.23L309.88,63.04L310.17,63.71L311.42,64.66L312.11,67.11L313.05,68.17L315.33,72.07L313.69,72.52L313.91,73.08L311.41,74.25L311.3,75.94L309.24,76.96L307.38,78.59L306.88,77L303.22,78.66Z" stroke-miterlimit="10" stroke="#FFFFFF"/>
<path title="桓台县" fill="#D3D3D3" id="path6" d="M266.02,173.85L266.16,170.49L265.91,169.61L267.98,169.82L269.59,169.19L269.56,167.83L272.16,166.88L272.18,165.57L273.13,165.53L273.54,160.15L271.7,160.06L270.74,160.31L269.56,161.14L269.04,161.98L268.8,160.29L268.37,159.85L268.08,161.59L267.28,161.94L267.3,160.51L268.26,159.75L268.31,158.8L267.65,158.76L267.45,157.23L267.01,156.82L266.18,157.42L265.58,158.8L265.5,160.57L264.66,162.12L264.57,163.45L264.16,163.15L264.4,160.06L264.89,158.7L264.4,157.88L264.43,154.66L263.95,152.72L262.89,151.55L261.19,151.1L261.05,150.41L259.84,150.01L260.07,148.76L259.08,148.64L259.14,147.8L258.12,147.47L256.37,146.32L256.46,142.52L255.27,142.37L255.86,136.79L254.64,136.71L254.86,134.99L253.95,133.88L250.41,133.31L247.42,133.15L246.74,132.64L241.14,132.22L241.2,131.12L240.29,130.99L240.6,129.1L239.79,128.74L239.99,126.94L239.66,125.77L239.71,122.64L241.33,122.09L241,121.41L240,121.68L240.16,120.42L241.17,119.81L241.25,118.77L240.5,117.31L239.55,117.02L239.55,115.22L237.06,115L236.89,115.91L235.85,115.98L236.07,114.91L234.6,114.77L234.5,115.3L233.04,114.93L232.61,114.38L231,114.04L230.68,113.06L230.76,111.8L229.45,111.49L230.46,109.96L231.39,107.37L231.76,105.2L231.65,102.6L231.98,99.47L232.37,99.19L232.96,96.45L237.35,98.02L242.74,97.57L250.12,96.86L259.15,94.06L265.91,91.84L274.01,89.73L278.18,88.92L279.24,88.87L279.25,87.76L280.89,88.21L283.1,87.51L284.14,86.71L285.59,85.09L285.48,84.64L286.84,84.34L287.48,85.39L290.99,85.22L292.26,84.83L293.92,83.86L293.92,83.32L294.97,82.67L296.65,82.14L297.14,81.7L300.41,81.15L300.65,79.94L302.21,79L302.39,80.31L303.24,80.36L303.39,82.11L303.97,81.58L305.05,82.26L306.15,84.15L307.24,84.14L307.88,85.37L307.33,85.84L308.21,88.3L309.31,87.95L309.42,88.95L312.45,87.79L312.59,86.02L313.51,86.14L313.47,87.36L315.68,86.33L317.6,84.91L319.43,85.23L326.52,83.7L326.68,81.55L327.1,81.05L328.2,81.03L327.87,82.79L329.03,82.58L330.35,83.47L330.86,84.45L331.6,84.89L333.35,85.27L333.27,87.32L333.54,88.32L335.35,91.2L334.41,92.9L334.51,93.88L335.48,95.74L335.38,96.71L337.68,97.53L337.79,96.84L339.44,97.14L340.85,97.04L341.45,96.28L342.73,96.74L343.24,97.31L343.34,98.36L342.98,100.09L342.12,100.21L342.05,99.51L340.58,101.43L340.47,102.82L340.84,102.94L340.81,104.87L340.08,105.43L336.59,106.05L336.5,111.05L335.59,111.35L334.61,114.22L334.69,114.92L335.45,115.34L335.62,118.67L336.48,119.23L336.24,120.74L336.37,123.09L338.38,123.48L337.97,124.59L338.78,124.78L338.86,125.69L341.41,125.52L341.35,128.02L340.73,128.49L340.81,130.85L342.25,131.01L344.31,130.83L344.16,133.77L347.2,133.83L348.49,134.12L349.46,133.94L351.2,134.28L351.17,135.21L352.07,135.43L351.8,139.13L352.96,139.24L353.77,140.27L353.44,141.51L352.76,141.5L352.01,144.28L351.02,144.73L350.14,149.58L350.82,149.75L350.6,150.57L349.41,151.29L349.12,152.99L350.26,154.47L350.61,156.9L349.17,157.74L347.22,157.62L347.29,158.74L346.73,161.15L346.03,161.16L345.9,162.7L345.4,162.7L345.42,164.34L345,165.12L341.77,164.97L341.2,165.35L341.19,166.33L341.82,170.34L341.81,171.52L343.16,171.8L343.35,170.53L344.05,169.72L344.84,170.06L346.62,170.09L346.71,169.14L347.71,169.1L348.93,170.53L348.51,172.46L347.52,172.44L347.47,174.43L346.71,175.45L343.88,174.95L343.22,175.36L341.72,175.24L341.58,173.69L340.75,173.52L340.58,174.31L336.05,173.34L335.54,172.6L333.77,173.19L333.6,174.35L330.76,176.3L327.84,176.25L327.72,177.16L325.52,176.99L326.15,174.99L324.83,174.91L324.69,176.45L322.89,176.68L322.32,177.37L322.16,178.78L321.18,178.63L320.86,179.35L319.65,180.01L318.31,179.9L316.33,179.38L316.58,178.28L315.3,178.1L315.05,178.83L314.6,178.04L315.15,177.41L313.73,176.63L313.8,175.83L309.61,174.99L310,172.15L309.16,171.96L309.49,167.34L306.46,166.79L306.6,165.71L305.05,165.99L304.74,164.49L303.06,164.35L302.82,165.5L299.19,165.14L299.34,163.58L297.65,163.19L297.55,162.57L296.12,162.57L295.36,163.61L295.11,167.12L293.11,167.15L293.12,166.7L290.29,166.41L289.3,165.79L289.06,169.08L287.58,168.93L287.38,170.3L286.6,170.01L285.67,170.47L285.78,169.32L284.95,168.63L284.9,170.33L283.95,170.28L283.77,173.62L284.87,173.71L284.91,177.24L284.18,178.27L282.14,178.25L282.15,179.81L280.4,179.78L281.31,180.35L281.23,183.47L280.34,184.66L279.57,184.99L279.12,187.3L277.46,187.24L277.4,185.7L276.07,185.31L276.14,184.41L275.27,184.35L275.3,182.86L273.65,182.41L271.67,182.41L271.8,179.23L271.55,178.51L270.18,178.46L270.14,179.05L268.06,178.44L265.98,174.11Z" stroke-miterlimit="10" stroke="#FFFFFF"/>
<path title="临淄区" fill="#D3D3D3" id="path4" d="M352.07,135.43L355.49,135.63L355.72,137.49L355.3,138.57L356.51,138.78L356.32,140.24L357.16,140.12L359.21,140.99L359.36,141.95L359.97,142.5L361.47,142.11L362.6,140.02L363.91,139.31L364.67,139.36L364.67,140.25L366.01,140.35L366.61,138.2L367.86,137.16L369.16,136.93L369.14,133.67L370.32,133.37L370.46,132.16L373.34,132.29L374.79,131.91L375.01,129.88L374.48,129.15L374.72,126.49L376.02,126.6L376.02,124.44L380.22,124.54L380.8,123.52L382.17,123.42L382.18,122.86L383.33,122.77L384.58,123.89L386.85,124.46L387.44,123.43L388.69,124.15L389.84,126.82L390.52,127.58L390.97,133.9L391.56,139.23L395.41,139.08L397.91,138.67L397.91,138.06L399.88,137.81L399.87,137.06L401.41,137.07L401.39,140.36L402.25,140.27L402.22,141.39L405.63,142.61L409.19,143.19L409.4,141.9L411.52,140.05L411.63,138.15L412.03,137.04L415.21,136.95L418.6,137.07L419.03,136.9L422.44,136.92L423.51,137.13L423.46,138.38L424.55,138.5L424.33,140.27L424.48,141.99L424.97,142.13L424.25,145.28L425.08,146.29L424.11,147.4L425.52,148.81L426.39,149.05L428.37,148.15L429.58,148.03L429.63,149.86L430.09,150.99L431.43,151.57L436.45,151.64L437.1,150.69L439.42,150.61L441.07,150.3L442.81,151.4L451.27,149.44L451.1,151.76L452.41,151.84L452.84,149.95L455.87,150.46L458.44,150.62L459.34,151.04L460.76,151.11L461.07,150.58L461.91,150.79L462.4,151.57L461.96,153.95L463.5,153.93L463.47,154.67L462.33,154.84L461.69,156.11L462.69,156.08L462.88,157.23L463.35,157.23L463.26,159.16L460.75,163.88L459.12,163.62L457.97,163.86L457.52,165.61L456.5,165.59L455.66,166.58L455.53,167.78L457.02,168.36L457.41,169.76L458.4,169.79L458.24,176.84L458.3,179.35L456.25,180.38L454.93,183.58L453.94,183.35L453.17,185.56L452.12,186.27L452.02,187.27L457.32,187.78L457.28,190.27L457.67,191.13L456.44,191.55L455.06,191.58L455.03,192.85L453.49,192.97L451.13,193.79L450.39,193.81L450.76,190.38L449.45,190.33L449.49,188.62L448.36,188.5L448.03,188.94L448.16,190.5L447.35,190.51L447.2,192.63L446.78,192.54L446.59,195.89L446.7,197.85L444.85,198.04L442.98,197.88L441.54,197.45L441.47,198.52L442.69,199.38L442.77,201.84L443.4,201.99L442.96,204.31L442.29,205.83L442.32,207.32L443.14,207.56L442.67,210.16L440.06,212.13L438.87,212.22L437.64,213.26L437.73,214.23L436,216.09L434.38,216.46L431.62,216.54L430.88,217.35L429.56,217.99L428.77,217.92L428.6,217.3L427.59,217.38L427.5,218.45L424.88,218.35L423,220.83L421.14,221.13L420.39,221.83L418.16,223.14L417.55,223.84L416.43,224.31L415.4,226.21L413.08,227.31L412.82,226.49L411.75,227.02L411.81,227.93L411.29,228.5L410.03,228.52L407.81,227.86L404.86,228.31L401.15,227.34L400.07,225.59L399.92,223.43L398.93,223.48L396.15,224.97L392.69,224.33L391.78,227.54L392.38,228.54L394.6,228.79L393.33,229.49L393.12,233.01L392.83,234.86L392.02,235.99L390.52,235.48L390.47,234.79L388.74,234.8L386.35,235.18L384.47,237.52L384.36,238.31L383.4,239.23L383.85,241.13L384.86,243.64L385.02,244.68L387.3,245.08L387.23,247.13L387.94,248.37L387.16,249.88L385.32,249.94L383.77,249.03L380.75,248.21L379.89,246.83L378.89,246.45L378.81,245.43L377.27,244.65L376.09,244.93L375.71,245.46L373.13,246.49L372.14,247.56L370.16,247.02L369.19,248.88L367.85,250.77L369.32,251.21L368.95,252.47L371.35,253.09L371.26,254.71L368.75,258.18L367.8,259.76L371.57,259.91L373.24,261.06L374,262.86L373.14,262.97L371.46,262.16L367.97,261.36L366.26,264.42L365.23,265.52L365.02,266.32L363.87,267.08L363.44,268.6L363.74,269.02L363.63,272.75L365.32,272.98L365.97,271.61L366.14,272.59L366.99,272.26L367.51,272.71L367.48,273.7L369.13,274.13L369.4,274.68L368.74,276.25L367.49,276.34L366.43,275.85L366.18,274.31L365.52,274.56L365.26,277.7L364.16,277.96L364.26,279.28L363.73,279.57L363.67,281.29L363.19,282.09L361.54,282.79L360.08,282.46L360.01,283.91L358.65,284.38L357.02,284.5L354.13,287.35L353.65,288.83L352.57,288.7L351.69,287.37L351.98,286.62L353,286.84L354.37,286.08L354.76,285.09L354.85,283.35L355.29,282.35L353.51,278.49L352.47,278.16L351.62,276.72L350.99,276.27L350.72,275.2L348.21,275.37L345.94,276.5L343.42,276.37L342.91,277.69L341.71,276.84L341.19,274.79L340.6,273.5L339.17,272.15L337.48,271.72L337.47,270.88L336.46,269.62L336.01,268.1L334.42,266.63L333.2,265.81L329.85,261.6L329.27,259.91L329.16,258.64L328.6,256.6L328.68,254.26L329.16,253.73L329.78,253.27L329.68,252.39L330.74,252.02L331.31,249.97L332.62,249.09L331.78,248.71L334.26,249.01L334.32,249.9L335.92,249.93L335.88,248.46L337.07,248.82L337.85,248.05L338.08,247.04L339.77,248.05L341.67,246.75L344.15,244.78L343.16,244.16L342.27,241.75L342.96,241.07L342.28,239.69L341.7,239.84L341.23,238.7L341.35,236.06L340.36,234.28L339.52,233.61L340.77,230.4L342.81,230.87L342.79,230.57L344.56,230.75L346.74,229.88L346.64,228.98L348.02,227.72L348.04,226.12L346.93,226.13L346.29,225.45L345.92,222.14L348.83,221.78L349.47,221.33L350.07,219.16L350.8,218.91L350.77,217.71L349.49,217.65L349.42,216.91L347.16,217.48L346.72,215.29L347.4,214.69L347.39,212.86L346.46,210.8L343.34,208.87L343.42,206.99L342.9,206.56L341.19,206.47L340.7,204.98L342.04,204.02L344.25,204.53L347.97,205.87L349.15,207.03L350.39,207.09L351.61,206.7L351.61,207.31L354.24,207.01L354.31,206.26L355.75,205.82L357.79,204.1L357.91,200.42L358.09,199.53L359.48,197.07L359.46,195.68L360.52,195.66L360.19,188.44L360.26,186.09L355.78,186.01L354.36,185.26L353.64,183.55L351.25,183.84L350.39,183.32L349.39,181.74L349.21,179.3L348.83,178.8L347.79,176.11L346.71,175.45L347.47,174.43L347.52,172.44L348.51,172.46L348.93,170.53L347.71,169.1L346.71,169.14L346.62,170.09L344.84,170.06L344.05,169.72L343.35,170.53L343.16,171.8L341.81,171.52L341.82,170.34L341.19,166.33L341.2,165.35L341.77,164.97L345,165.12L345.42,164.34L345.4,162.7L345.9,162.7L346.03,161.16L346.73,161.15L347.29,158.74L347.22,157.62L349.17,157.74L350.61,156.9L350.26,154.47L349.12,152.99L349.41,151.29L350.6,150.57L350.82,149.75L350.14,149.58L351.02,144.73L352.01,144.28L352.76,141.5L353.44,141.51L353.77,140.27L352.96,139.24L351.8,139.13Z" stroke-miterlimit="10" stroke="#FFFFFF"/>
<path title="沂源县" fill="#D3D3D3" id="path8" d="M277.5,449.11L277.88,447.52L278.4,447.28L279.44,445.57L279.47,443.57L280.8,443.01L282.47,444.02L283.87,443.32L284.86,443.93L283.88,445.01L284.44,445.79L285.36,445.21L286.42,442.44L288.22,441.21L288.82,440.52L288.64,439.34L290.55,438.74L290.99,437.22L292.59,436.4L293.32,436.64L294.18,436.17L296.11,436.19L297.37,436.51L298.58,436.09L298.96,434.78L300.31,434.36L305.12,437.01L309.18,436.97L311.69,436.56L313.68,436.77L316.21,436.75L317.54,437.96L319.38,438.73L321.83,438.86L322.77,438.09L323.55,439.52L324.89,439.43L326.2,440.49L327.45,440.52L327.46,441.66L328.94,442.52L329.06,441.93L330.1,441.14L332.02,440.92L332.54,440.13L336.84,438.96L338.62,439.22L339.63,437.77L339.72,436.41L340.22,435.5L341.07,435.25L344.27,436.17L345.22,435.9L346.95,434.88L348.38,436.24L349.69,436.4L350.89,435.57L351.63,435.78L352.77,435.2L353.07,433.12L352.59,432.03L351.71,431.09L351.8,427.11L350.88,425.38L351.11,424.36L350.54,423.27L351.43,420.35L352.9,420.02L353.77,420.58L354.85,419.17L355.92,418.75L357.93,419.3L357.55,418.09L356.02,417.36L357.9,415.04L358.85,414.88L358.63,414.02L359.26,412.5L361.91,411.71L363.66,411.75L365.42,412.11L366.07,412.57L366.79,412.21L366.38,410.54L364.34,410.18L363.92,408.24L363.29,407.36L361.74,406.47L361.61,405.26L362.09,403.98L361.84,403.56L360.81,403.88L361.19,401.98L361.02,401.22L360.07,400.24L361.56,398.56L362.87,398.44L363.12,399.34L364.54,399.07L364.84,398.13L364.34,397.82L364.88,396.76L365.47,397.27L366.67,397.31L367.06,395.87L369.26,394.95L370.57,395.73L370.9,398.25L372.62,399.13L372.79,400.15L372.13,401.4L373.43,401.96L374.99,403.36L375.27,405.14L376.46,406.65L377.14,406.65L377.91,407.39L377.62,408.61L378.07,410.36L380.27,412.2L379.97,415L380.91,416.39L382.02,417.11L381.91,417.92L382.8,417.65L383.23,416.26L383.97,415.78L384.47,417.19L384.92,416.89L386.86,417.25L386.37,418.12L390.52,418.33L392.15,417.94L393.53,418.42L394.11,419.76L392.38,421.19L390.33,423.67L390.56,424.27L392.4,424.39L394.93,425.77L395.23,427.85L396.26,429.6L396.28,430.76L396.71,432.06L398.97,433.22L398.12,435.73L397.07,437.07L397.77,438.2L399.73,440.07L400.18,442.98L399.85,443.63L398.32,445.16L399,445.66L398.64,447.19L399.02,449.05L398.8,449.99L396.36,453.19L395.94,456.25L396.91,456.87L398.89,457.46L401.37,456.57L403.28,454.88L406.38,454.04L408.96,451.98L411.49,451.23L415.51,454.33L415.7,455.77L416.49,456.84L417.72,457.89L419.76,458.36L421.77,459.27L422.31,460.12L423.45,460.82L424.17,462L422.71,464.79L423.53,466.01L423.42,467.85L423,469.02L423.28,471.35L422.41,473.06L422.57,475.94L419.87,477.82L419.35,479.16L420.75,479.82L421.2,480.83L421.03,482.05L422.37,484.51L423.64,488.83L424.56,490.36L426.56,490.26L427.13,491.21L426.92,493.49L428.62,494.94L429.76,495.45L430.39,499.08L430.22,501.72L430.87,502.61L430.82,504.8L429.47,505.27L428.96,506.33L429.48,507.61L429.73,509.2L431.38,508.89L431.91,510.04L433.49,511.13L434.52,511.22L435.42,510.77L436.9,510.96L436.63,512.09L437.05,512.33L438.73,510.38L439.23,508.75L439.72,509.15L440.85,508.75L442.45,509.09L443.48,508.82L443.27,506.87L445.66,505.13L446.99,505.2L448.38,506.51L448.33,507.95L449.27,508.83L449.8,508.6L449.84,507.57L451.15,505.27L453.2,506.14L453.03,506.77L454.72,507.5L456.09,507.76L456.02,509.19L456.53,509.48L457.15,508.9L458.77,509.05L459.23,508.72L460.1,509.13L459.62,510.19L460.78,509.59L461.49,510.19L461.79,511.21L460.21,512.8L459,513.24L457.15,514.83L457.6,516.51L457.42,518.16L458.66,519.74L458.91,521.3L458.53,522L457.05,522.78L456.8,523.87L457.79,525.36L458.06,526.36L458.14,530.88L457.65,531.75L457.47,534.47L458.76,535.34L460.64,537.18L462.01,536.74L463.3,537.27L464.6,536.44L466,537.3L465.59,536.01L466.67,535.24L467.2,534.08L468.69,534.37L469.07,535.49L468.73,536.17L470.29,536.89L470.19,537.9L469.18,538.85L469.68,539.81L471.03,540.43L471.64,541.39L472.28,543.49L471.34,544.73L470.91,546.33L472.44,547.83L471.55,549.33L471.64,550.8L470.83,554.66L470.38,555.51L468.42,554.26L467.06,553.89L465.6,556.32L464.22,555.7L460.58,555.65L459.04,554.73L458.27,553.64L455.92,553.18L455.03,554.79L455.2,555.42L454.54,556.41L453.73,556.88L454.35,557.9L456.06,559.32L456.55,560.61L456.11,561.34L456.85,562.31L457.64,562.42L459.82,564.41L459.56,567.43L461.57,568.22L461.81,568.96L459.91,570.79L459.67,572.03L460.9,574.5L464.01,577.15L464.89,579.36L465.94,580.48L466.25,581.95L465.18,583.39L463.25,583.35L460.26,583.53L457.72,583.42L454.13,584.11L452.49,586.64L451.47,587.19L449.74,587.64L446.06,584.07L445.15,583.59L443.69,583.47L442.46,582.89L439.82,580.23L438.89,578.39L438.68,577.41L437.1,575.71L435.92,573.91L434.5,571.13L433.79,570.97L430.71,571.6L427.63,571.93L425.84,571.78L424.18,572.65L422.93,576.33L423.55,577.16L422.49,577.98L420.68,577.83L418.36,579.02L416.56,578.85L415.21,579.58L414.42,580.81L413.67,584.16L413.11,585.37L412.21,585.93L409.36,586.28L403.04,588.79L401.29,589.63L400.21,590.43L398.77,589.47L398.49,588.51L397.07,588.48L394.75,589.34L393.37,591.08L390.85,594.67L389.8,595.13L386.87,595.02L385.54,595.54L384.01,596.63L382.59,598.28L379.66,599.24L379.29,600L378.5,599.69L378.21,597.29L374.3,596.69L372.43,595.63L371.09,593.58L371.4,591.71L371.29,590.3L370.91,589.86L369.12,589.74L368.08,589.97L367.12,589.64L364.41,587.38L363.61,587.28L361.52,586.35L360.73,584.53L360.84,583.03L360.51,582.56L357.47,581.31L356.15,579.72L355.82,578.35L356.36,577.27L357.22,576.58L358.98,576.74L360.19,576.32L360.35,574.95L358.96,572.62L358.51,571.04L358.88,569.42L357.72,566.83L357.17,564.79L356.05,565.37L355.59,564.83L355.36,563.36L354.77,562.58L353.64,562.38L352.49,560.93L350.35,559.5L348.34,559.61L347.06,559.14L347.74,557.27L346.36,556.66L345.85,556.92L347.02,557.69L346.31,558.29L344.66,557.7L343.83,558.2L340.36,557.54L339.14,557.91L337.04,557.46L335.16,556.58L334.23,554.36L334.15,553.62L332.7,553.38L332.15,553.89L330.81,553.77L329.28,552.7L328.94,553.35L325.87,553.79L325.16,554.66L323.19,556.17L321.79,555.85L321.18,556.33L321.54,557.85L320.93,557.99L320.74,559.43L320.16,560.54L319.14,559.51L319.21,560.5L318.72,561.28L317,561.63L314.89,559.22L314.42,559.28L313.68,560.45L313.46,561.48L314.82,561.35L313.99,562.99L311.54,563.4L310.77,562.94L309.64,564.64L308.52,566.78L308.39,569.5L307.99,570.04L303.9,571.4L302.07,572.93L301.86,573.41L299.49,576.48L298.69,578.24L298.76,582.29L298.44,582.94L296.41,583.98L295.24,584.94L294.85,586.01L294.55,589.3L293.85,589.78L290.09,589.35L288.78,589.63L287.12,589.59L283,589.88L282.19,588.84L281.56,586.11L282.04,584.12L282.8,582.87L284.46,579.33L283.59,578.99L282.73,579.31L281.43,580.51L276.95,580.12L275.98,580.69L271.81,584.87L270.77,585.41L268.31,584.32L267.93,581.29L268.3,579.62L266.47,579.15L264.81,575.19L265.1,573.75L265.9,572.04L264.93,568.48L267.13,568.78L269.64,568.5L269.87,566.91L269.47,566.25L268.01,562.01L267.18,560.54L267,559.37L269.3,558.95L269.73,557.85L268.82,556.54L268.2,553.66L266.5,553.93L265.95,552.94L267.07,551.51L268.28,551.22L268.24,548.31L267.45,548.4L266.02,547.87L264.74,546.6L263.25,544.06L263.2,542.5L264.31,540.11L267.03,539.89L268.93,539.51L268.14,537.52L266.49,535.46L267.64,533.51L268,531.2L270.46,531.06L270.77,527.39L268.43,525.79L268.33,525.03L269.06,523.76L268.16,522.92L267.47,523.96L265.81,525.59L262.79,525.63L261.98,524.28L260.76,523.38L260.28,522.08L260.39,520.06L259.11,518.7L259.42,518.36L260.08,515.45L259.29,514.16L257.96,513.19L257.75,510.76L256.84,510.65L255.89,508.72L255.98,505.65L256.64,505.24L255.84,504.02L255.37,502.08L254.76,502.13L253.98,499.94L255.34,498.21L256.68,498.33L257.2,496.7L256.5,496.53L256.85,495.83L257.78,496.23L257.96,495.26L255.92,491.63L254.42,491.12L252.69,491.44L252.54,490.73L253.8,489.6L254.4,487.21L255.58,485.48L257.25,482.44L256.83,481.94L256.8,478.81L257.99,477.49L259.29,477.56L261.13,479.44L261.74,480.68L263.21,480.67L263.7,478.02L264.76,477.14L267.2,475.66L268.66,475.38L271.24,476L272.65,477.28L273.39,476.57L274.06,474.33L275.66,472.74L274.88,471.62L274.69,470.2L274.07,468.18L274.95,466.73L274.26,463.39L275.42,457.96L276.72,456.09L277.55,452.89L278.34,451.76L277.6,450.08Z" stroke-miterlimit="10" stroke="#FFFFFF"/>
<path title="张店区" fill="#D3D3D3" id="path2" d="M276.16,231.89L276.86,231.03L276.67,229.67L277.71,228.67L277.59,227.99L276.58,226.97L277.31,225.95L277.15,225.1L277.92,223.09L278.27,220.64L279.84,219.55L280.32,216.82L279.29,215.99L278.62,214.15L278.25,214.17L276.34,215.85L276.35,217.05L274.75,218.43L272.23,218.36L271.96,216.18L270.91,216.05L270.75,217.83L269.7,217.72L269.63,213.35L267.29,212.39L265.97,211.59L265.92,209.36L268.82,207.22L269.09,206.65L269.14,204.29L267.7,204.25L266.49,203.4L264.01,201.01L263.93,198.56L264.63,196.48L265.99,196.35L266.85,195.71L266.9,194.6L267.61,193.86L268.89,193.96L269.26,192.01L268.73,190.59L269.11,188.2L268,187.5L268.32,184.54L267.97,183.94L266.7,183.88L267.17,180.94L268.01,179.86L268.06,178.44L270.14,179.05L270.18,178.46L271.55,178.51L271.8,179.23L271.67,182.41L273.65,182.41L275.3,182.86L275.27,184.35L276.14,184.41L276.07,185.31L277.4,185.7L277.46,187.24L279.12,187.3L279.57,184.99L280.34,184.66L281.23,183.47L281.31,180.35L280.4,179.78L282.15,179.81L282.14,178.25L284.18,178.27L284.91,177.24L284.87,173.71L283.77,173.62L283.95,170.28L284.9,170.33L284.95,168.63L285.78,169.32L285.67,170.47L286.6,170.01L287.38,170.3L287.58,168.93L289.06,169.08L289.3,165.79L290.29,166.41L293.12,166.7L293.11,167.15L295.11,167.12L295.36,163.61L296.12,162.57L297.55,162.57L297.65,163.19L299.34,163.58L299.19,165.14L302.82,165.5L303.06,164.35L304.74,164.49L305.05,165.99L306.6,165.71L306.46,166.79L309.49,167.34L309.16,171.96L310,172.15L309.61,174.99L313.8,175.83L313.73,176.63L315.15,177.41L314.6,178.04L315.05,178.83L315.3,178.1L316.58,178.28L316.33,179.38L318.31,179.9L319.65,180.01L320.86,179.35L321.18,178.63L322.16,178.78L322.32,177.37L322.89,176.68L324.69,176.45L324.83,174.91L326.15,174.99L325.52,176.99L327.72,177.16L327.84,176.25L330.76,176.3L333.6,174.35L333.77,173.19L335.54,172.6L336.05,173.34L340.58,174.31L340.75,173.52L341.58,173.69L341.72,175.24L343.22,175.36L343.88,174.95L346.71,175.45L347.79,176.11L348.83,178.8L349.21,179.3L349.39,181.74L350.39,183.32L351.25,183.84L353.64,183.55L354.36,185.26L355.78,186.01L360.26,186.09L360.19,188.44L360.52,195.66L359.46,195.68L359.48,197.07L358.09,199.53L357.91,200.42L357.79,204.1L355.75,205.82L354.31,206.26L354.24,207.01L351.61,207.31L351.61,206.7L350.39,207.09L349.15,207.03L347.97,205.87L344.25,204.53L342.04,204.02L340.7,204.98L341.19,206.47L342.9,206.56L343.42,206.99L343.34,208.87L346.46,210.8L347.39,212.86L347.4,214.69L346.72,215.29L347.16,217.48L349.42,216.91L349.49,217.65L350.77,217.71L350.8,218.91L350.07,219.16L349.47,221.33L348.83,221.78L345.92,222.14L346.29,225.45L346.93,226.13L348.04,226.12L348.02,227.72L346.64,228.98L346.74,229.88L344.56,230.75L342.79,230.57L342.81,230.87L340.77,230.4L339.52,233.61L340.36,234.28L341.35,236.06L341.23,238.7L341.7,239.84L342.28,239.69L342.96,241.07L342.27,241.75L343.16,244.16L344.15,244.78L341.67,246.75L339.77,248.05L338.08,247.04L337.85,248.05L337.07,248.82L335.88,248.46L335.92,249.93L334.32,249.9L334.26,249.01L331.78,248.71L332.62,249.09L331.31,249.97L330.74,252.02L329.68,252.39L329.78,253.27L329.16,253.73L326.33,252.49L326.02,251.16L325.25,250.51L322.63,249.03L321.93,249.77L321.01,249.85L318.64,248.38L318.27,250.06L316.6,250.28L314.43,251.75L312.95,253.32L310.81,253.99L309.47,252L308.35,251.09L307.43,250.99L306.22,251.84L304.78,251.68L305.27,249.51L304.69,249.4L304.89,247.75L302.87,247.95L301.05,246.99L300.48,247.85L299.21,246.78L297.96,246.43L297.16,245.5L296.87,246.58L296.2,246.52L295.17,249.54L294.21,250.39L293.39,250.5L290.27,250.13L289.82,248.89L290.47,248.5L290.28,245.77L289.26,244.52L288.72,244.61L287.44,243.67L286.13,243.91L286.31,243.04L285.67,242.4L285.61,240.79L286.85,240.14L287.43,238.45L286.95,237.94L287.6,237.02L287.14,235.48L286.73,236.22L284.92,236.4L283.61,237.36L280.32,236.91L278.41,234.77L278.35,233.51L276.86,232.02Z" stroke-miterlimit="10" stroke="#FFFFFF"/>
<path title="周村区" fill="#D3D3D3" id="path5" d="M268.06,178.44L268.01,179.86L267.17,180.94L266.7,183.88L267.97,183.94L268.32,184.54L268,187.5L269.11,188.2L268.73,190.59L269.26,192.01L268.89,193.96L267.61,193.86L266.9,194.6L266.85,195.71L265.99,196.35L264.63,196.48L263.93,198.56L264.01,201.01L266.49,203.4L267.7,204.25L269.14,204.29L269.09,206.65L268.82,207.22L265.92,209.36L265.97,211.59L267.29,212.39L269.63,213.35L269.7,217.72L270.75,217.83L270.91,216.05L271.96,216.18L272.23,218.36L274.75,218.43L276.35,217.05L276.34,215.85L278.25,214.17L278.62,214.15L279.29,215.99L280.32,216.82L279.84,219.55L278.27,220.64L277.92,223.09L277.15,225.1L277.31,225.95L276.58,226.97L277.59,227.99L277.71,228.67L276.67,229.67L276.86,231.03L276.16,231.89L275.98,232.78L277.05,234.06L276.67,235.14L275.2,234.43L273.5,234.29L272.44,235.07L272.2,236.13L269.98,236.57L268.94,235.63L267.96,237.36L266.56,238.57L265.28,240.23L267.49,246.03L266.29,247.08L265.72,248.56L265.91,249.58L267.35,250.67L268.47,249.9L269.22,251.3L269.17,252.3L270.34,252.99L270.77,253.83L270.86,255.98L269.52,255.95L270.3,258.51L268.55,259.62L265.97,259.82L265.64,259.11L264.83,258.99L264.86,260.8L261.88,261.36L260.3,260.31L259.32,261.78L256.09,262.14L255.82,262.91L254.24,263.43L252.43,263.31L251.35,264.15L249.87,264.52L249.24,263.88L247.15,263.45L246.54,264L245.02,263.64L245.75,264.62L244.77,265.34L245.58,266.84L244.75,267.42L246.83,269.11L244.99,271.3L242.34,271.39L243.86,273.23L243.88,275.05L244.77,275.34L243.73,279.56L242.94,280.16L243.46,280.83L244.87,281.29L245.62,282.18L245.69,283.51L244.35,283.64L243.68,284.81L242.41,284.79L235.94,280.66L235.35,280.43L234.15,281.15L232.89,280.99L229.17,281.38L227.31,279.81L225.6,280.15L223.14,281.52L219.79,279.57L214.59,278.76L212.5,278.88L211.15,280.2L209.66,280.32L205.66,277.51L204.9,278.02L203.03,276.21L201.29,275.31L200.31,276.21L199.55,276.01L199.14,277.33L199.69,278.59L198.88,278.23L198.72,277.32L197.26,277.07L197.87,277.74L197.53,279.1L197.02,279.61L193.32,279.16L190.2,279.38L189.64,278.7L188.57,278.61L186.48,279.45L184.35,279.7L183.87,280.12L181.75,279.39L180,279.51L179.04,277.38L178.98,273.31L179.88,272.26L180.11,270.88L179.67,269.46L179.7,268.43L180.4,268.48L181.14,265.25L180.47,264.52L181.77,264.68L181.99,264.07L183,263.97L183.18,263.02L185,263.46L186.24,262.61L187.08,259.67L187.57,260.56L189,260.41L189.79,260.82L189.52,262.58L190.06,263.29L191.5,262.77L192.35,261.85L192.1,260.28L192.69,259.8L194.51,259.58L195.81,260.79L197.98,260.42L198.56,257.92L199.46,257.97L199.42,258.91L199.9,260.06L203.49,260.57L204.42,260.24L204.48,260.98L205.52,261.16L206.81,260.36L208.34,260.82L209.37,259.8L209.39,258.05L209.77,257.38L208.67,257L210.63,256.09L212.01,256.17L212.26,255.45L213.69,255.42L214.68,254.33L215.02,253.15L214.92,250.96L214.44,249.98L215.05,248.47L216.31,248.18L217.3,246.85L217.45,245.31L218.11,243.47L219.76,243.5L219.7,242.83L220.49,242L220.09,240.95L220.76,241.45L221.38,240.14L222.04,239.98L222.86,240.73L222.88,238.81L222.08,237.62L222.56,235.24L223.35,234.64L223.51,233.78L222.83,233.06L221.76,233.16L221.98,232.69L223.46,231.87L224.28,230.78L225.52,230.83L225.94,231.74L225.79,232.91L226.81,233.05L226.92,234.1L228.34,235.75L226.68,238.16L227.86,238.89L229.17,238.67L230.25,238.01L232.31,238.04L232.37,237.41L233.91,237.41L233.97,236.31L234.76,236.27L234.84,234.48L234.05,234.39L233.3,233.46L233.25,231.93L233.63,231.76L234.12,230.07L232.62,228.18L232.6,227L231.82,225.84L230.44,224.41L227.93,223.56L228.14,224.73L227.16,224.62L227.42,226.29L226.23,224.42L225.26,225.15L225.1,222.38L224.77,219.79L221.66,219.51L222.14,218.94L222.15,217.81L221.33,217.8L221.36,215.64L222.5,215.44L222.61,213.87L223.56,213.78L223.65,212.18L222.71,212.12L222.8,210.76L222.05,210.46L222.04,209.52L223.17,209.15L223.63,204.66L223.99,203.31L224.52,203.69L225.23,203.29L225.97,201.11L227.45,198.22L227.67,195.17L226.07,193.17L226.09,189.69L226.93,188.48L227.81,187.89L236.22,187.91L236.61,187.28L237.35,187.41L238.21,186.76L239.41,186.9L239.42,184.98L240.59,184.81L240.8,185.34L242.8,185.85L242.8,187.31L245.61,187.43L245.59,186.3L248.45,185.91L247.32,185.34L247.26,184.85L248.75,183.94L248.7,182.63L250.98,182.81L252.57,183.52L255.42,183.91L256.4,183.46L257.66,183.55L258.33,178.95L259.9,176.42L262.52,176.48L262.17,174.47L263.7,173.73L265.18,173.59L266.02,173.85L265.98,174.11Z" stroke-miterlimit="10" stroke="#FFFFFF"/>
<path title="淄川区" fill="#D3D3D3" id="path1" d="M370.57,395.73L369.26,394.95L367.06,395.87L366.67,397.31L365.47,397.27L364.88,396.76L364.34,397.82L364.84,398.13L364.54,399.07L363.12,399.34L362.87,398.44L361.56,398.56L360.07,400.24L361.02,401.22L361.19,401.98L359.97,402.1L358.56,401.49L357.98,402.01L356.86,401.66L356.04,400.58L355.81,398.83L357.22,395.53L357.99,394.63L357.73,393.84L356.2,392.87L354.2,392.65L353,393.44L351,393.17L348.61,394.2L346.49,395.49L345.06,395.7L344.06,393.92L343.84,391.57L344.03,387.87L342.46,386.02L342.94,385.07L342.59,383.3L342.03,382.77L340.74,382.92L339.28,384.38L336.75,384.62L336.34,385.89L336.58,388.34L335.57,389.3L334.89,390.49L333.66,390.74L331.43,392.23L329.61,392.63L328.57,393.65L328.87,394.51L327.97,395.19L326.05,395.59L324.08,392.8L323.37,389.59L323.88,388.52L323.75,387.38L323,386.34L323.36,385.4L321.59,383.89L320.33,380.76L320.15,379.56L321.34,379.11L321.43,378.38L323.1,376.56L322.52,375.09L322.57,372.94L322.24,372.31L320.39,371.64L318.8,370.25L317.67,369.7L315.57,369.98L314.96,369.16L312.04,368.31L311.91,369.32L309.79,369.76L309.17,369.24L307.15,368.83L305.12,369L302.59,367.32L300.87,368.16L299.81,369.62L299.06,369.97L298.32,371.08L296.94,371.11L296.4,372.06L295.36,372.29L294.68,371.88L292.04,372.24L290.74,371.1L287.55,370.33L286.19,369.63L285.64,368.74L281.79,367.93L281.84,366.45L281.55,364.77L278.46,360.68L277.25,360.52L276.74,359.5L274.96,359.35L273.28,359.92L271.92,360.01L271.79,359.44L272.59,358.66L272.59,357.08L271.47,356.98L271.48,357.64L270.45,357.71L268.94,356.7L267.5,356.81L266.82,357.68L265.51,357.4L263.86,356.61L260.35,352.88L260.34,350.51L259.95,350.13L260.66,349.52L260.62,348.7L259.25,348.7L257.77,347.01L255.61,346.94L253.47,345.08L253.45,344.81L255.53,343.21L258.51,341.55L259.24,341.6L262.01,340.7L264.15,338.55L266.64,338.09L268.01,336.49L268.08,333.35L266.74,333.02L265.85,331.88L266.24,331.14L265.9,330.53L264.24,328.97L264.76,327.78L262.61,325.98L261.25,325.86L260.15,326.21L258.6,325.71L256.12,324.15L255.67,323.63L256.07,322.22L256.97,322.17L257.46,321.09L255.72,319.72L253.36,318.55L253.59,317.15L252.04,316.65L252.58,315.62L250.53,314.49L251.25,312.92L249.01,310.75L247.78,310.92L246.67,311.53L244.52,312.06L243.1,311.05L242.58,309.76L239.31,307.87L239.43,307.15L238.21,307.47L237.91,308.46L235.97,308.19L235.74,307.06L234.96,306.81L234.98,304.84L233.54,304.44L233.01,304.77L231.52,304.6L230.64,304.92L230.56,305.56L229.15,305.46L227.92,304.86L226.43,306.02L225.55,307.86L224.79,313.21L223.72,315.07L222.09,315.31L221.29,316.84L221.22,317.68L219.25,317.42L217.87,316.61L214.99,317.8L210.85,318.39L208.6,315.57L207.71,315.81L207.39,315.01L206.63,315.39L204.42,315.09L204.52,314.33L203.69,312.67L202.3,311.95L199.47,313.35L198.99,316.46L199.32,317.87L196.73,317.6L196.52,318.6L195.5,318.43L194.7,317.48L193.17,316.92L190.84,318.63L190.35,321.1L189.5,321.9L188.58,322.16L188.08,320.55L187.33,320.58L184.56,319.41L182.84,318.02L182.04,318.24L179.92,316.95L178.67,316.67L178.42,315.5L179.31,313.93L181.33,313.09L183.11,311.1L184.58,311.84L184.94,312.86L186.13,312.4L185.22,310.28L183.92,307.98L183.1,305.76L184.48,305.49L186.14,304.5L186.07,302.67L184.08,302.31L179.93,303.17L179.18,302.91L177.33,300.76L179.55,300.4L182.48,300.36L181.99,298.97L182.64,298.91L183.02,297.82L184.91,297.62L185.98,298.27L186.77,297.21L185.59,296.72L185.31,294.58L185.66,293.59L186.13,290.76L185.17,289.27L184.16,289.13L185.14,287.99L183.71,287.39L185.02,284.25L183.84,283.18L184,282.16L183.87,280.12L184.35,279.7L186.48,279.45L188.57,278.61L189.64,278.7L190.2,279.38L193.32,279.16L197.02,279.61L197.53,279.1L197.87,277.74L197.26,277.07L198.72,277.32L198.88,278.23L199.69,278.59L199.14,277.33L199.55,276.01L200.31,276.21L201.29,275.31L203.03,276.21L204.9,278.02L205.66,277.51L209.66,280.32L211.15,280.2L212.5,278.88L214.59,278.76L219.79,279.57L223.14,281.52L225.6,280.15L227.31,279.81L229.17,281.38L232.89,280.99L234.15,281.15L235.35,280.43L235.94,280.66L242.41,284.79L243.68,284.81L244.35,283.64L245.69,283.51L245.62,282.18L244.87,281.29L243.46,280.83L242.94,280.16L243.73,279.56L244.77,275.34L243.88,275.05L243.86,273.23L242.34,271.39L244.99,271.3L246.83,269.11L244.75,267.42L245.58,266.84L244.77,265.34L245.75,264.62L245.02,263.64L246.54,264L247.15,263.45L249.24,263.88L249.87,264.52L251.35,264.15L252.43,263.31L254.24,263.43L255.82,262.91L256.09,262.14L259.32,261.78L260.3,260.31L261.88,261.36L264.86,260.8L264.83,258.99L265.64,259.11L265.97,259.82L268.55,259.62L270.3,258.51L269.52,255.95L270.86,255.98L270.77,253.83L270.34,252.99L269.17,252.3L269.22,251.3L268.47,249.9L267.35,250.67L265.91,249.58L265.72,248.56L266.29,247.08L267.49,246.03L265.28,240.23L266.56,238.57L267.96,237.36L268.94,235.63L269.98,236.57L272.2,236.13L272.44,235.07L273.5,234.29L275.2,234.43L276.67,235.14L277.05,234.06L275.98,232.78L276.16,231.89L276.86,232.02L278.35,233.51L278.41,234.77L280.32,236.91L283.61,237.36L284.92,236.4L286.73,236.22L287.14,235.48L287.6,237.02L286.95,237.94L287.43,238.45L286.85,240.14L285.61,240.79L285.67,242.4L286.31,243.04L286.13,243.91L287.44,243.67L288.72,244.61L289.26,244.52L290.28,245.77L290.47,248.5L289.82,248.89L290.27,250.13L293.39,250.5L294.21,250.39L295.17,249.54L296.2,246.52L296.87,246.58L297.16,245.5L297.96,246.43L299.21,246.78L300.48,247.85L301.05,246.99L302.87,247.95L304.89,247.75L304.69,249.4L305.27,249.51L304.78,251.68L306.22,251.84L307.43,250.99L308.35,251.09L309.47,252L310.81,253.99L312.95,253.32L314.43,251.75L316.6,250.28L318.27,250.06L318.64,248.38L321.01,249.85L321.93,249.77L322.63,249.03L325.25,250.51L326.02,251.16L326.33,252.49L329.16,253.73L328.68,254.26L328.6,256.6L329.16,258.64L329.27,259.91L329.85,261.6L333.2,265.81L334.42,266.63L336.01,268.1L336.46,269.62L337.47,270.88L337.48,271.72L339.17,272.15L340.6,273.5L341.19,274.79L341.71,276.84L342.91,277.69L343.42,276.37L345.94,276.5L348.21,275.37L350.72,275.2L350.99,276.27L351.62,276.72L352.47,278.16L353.51,278.49L355.29,282.35L354.85,283.35L354.76,285.09L354.37,286.08L353,286.84L351.98,286.62L351.69,287.37L352.57,288.7L353.65,288.83L354.13,287.35L357.02,284.5L358.65,284.38L357.87,285.66L358.81,287.03L360.34,286.37L361.1,287.96L361.62,288.25L361.11,290.03L363.27,293.57L362.74,294.73L361.38,296.01L359.23,296.91L358.25,297.59L357.02,299.9L354.29,303.31L351.06,305.75L349.62,309.09L349.86,310.42L350.56,310.8L351.58,310.36L352.94,311.58L351.17,312.88L350.8,316.1L351.24,320.28L352.31,320.09L353.98,322.67L354.74,324.42L355.15,326.72L358.91,327.61L363.17,329.71L365.26,329.47L365.52,330.16L365.7,332.99L364.9,334.14L361.88,335.55L361.41,336.34L361.22,338.22L362.03,340.31L362.89,341.3L361.49,342.54L361.75,345.54L362.56,346.18L362.58,346.95L364.14,347.66L364.53,348.23L363.03,349.41L362.56,351.44L363.28,353.87L363.75,356.53L365.7,359.75L367.06,361.01L368.54,361.28L369.59,362.89L368.62,363.79L369.41,364.66L369.89,366.2L369.4,367.32L368.42,367.72L367.67,368.52L368.41,370.2L369.5,374.37L369.66,376.67L368.12,377.61L367.87,380.73L367.11,382.23L366.69,384.88L366.84,385.81L367.75,387.62L368.58,387.65L369.22,386.98L370.66,386.68L371.86,387.07L372.88,386.26L372.71,384.77L374.45,384.96L375.88,386.21L375.1,387.27L375.9,388.4L376.3,390.28L374.5,390.77L373.15,392.6L372.54,394.58L372.12,395.12Z" stroke-miterlimit="10" stroke="#FFFFFF"/>
</svg>