<svg xmlns="http://www.w3.org/2000/svg" xmlns:xlink="http://www.w3.org/1999/xlink" width="600" height="600">
<path title="滨城区" fill="#D3D3D3" id="path1" d="M367.15,409.91L365.64,409.7L365.69,408.74L364.22,407.71L362.7,408.93L359.44,409.37L358.94,405.39L357.29,405.17L356.14,403.68L351.87,403.24L351.79,405.93L351.07,407.61L348.49,408.64L346.38,407.55L343.67,407.94L343.62,406.73L341.66,406.68L340.66,407.6L339.62,404.51L338.75,405.65L337.57,405.33L337.37,403.43L338.9,401.74L338.73,399.69L340.09,399.09L339.69,397.19L342.67,396.28L344.23,394.28L343.66,393L342.54,393.27L342.88,391.3L342.5,388.31L340.87,386.71L340.06,387.32L336.27,385.19L334.61,384.83L333.86,386.1L332.01,386.68L329.62,388.38L330.17,386.1L328.59,381.9L327.94,381.56L324.34,384.01L318.48,387.31L316.39,387.92L312.35,388.32L309.12,384.35L307.32,383.25L301.26,380.85L297.61,380.78L294.42,381.74L293.43,377.78L296.68,376.07L297.9,374.06L297.35,372.26L295.59,371.7L289.42,371.55L288.09,367.1L288.09,355.78L287.48,349.13L286.86,346.73L284.73,344.4L284.38,341.78L283.08,343.05L283.22,339.54L283.69,339.42L284.58,335.21L285.57,335.84L286.93,334.13L287.35,329.73L285.68,328.74L285.59,327.39L287.13,327.67L288.74,325.36L288.05,323.84L287.85,321.45L288.75,319.34L291.34,317.02L292.23,315.08L292.45,312.87L291.64,311.31L286.61,305.81L286.04,302.93L284.86,300.43L284.34,296.39L284.08,294.69L287.04,294.09L288.29,292.76L290.31,293.99L290.6,290.78L290.1,289.58L288.99,289.87L288.06,288.67L286.8,288.81L285.3,287.1L284.34,284.78L285.72,282.66L288.22,282.34L289.08,279.13L287.71,277.22L289,276.37L290.24,277.43L293.62,278.89L296.29,279.09L299.41,277.9L301,279.42L304.01,278.84L304.77,277.15L304.19,274.44L304.26,270.56L305.37,270.7L305.65,268.92L303.33,266.01L303.84,263.35L304.56,263.13L304.78,259.6L306.12,259.17L307.31,260.09L305.94,262.48L306.86,263.69L308.46,263.1L308.43,264.01L311.95,264.78L312.53,266.42L314.04,267.73L315.64,267.4L316.77,265.83L318.13,266.64L318.58,268.41L320.66,269.49L322.06,268.88L323.19,271.94L325.18,270.63L325.39,272.1L326.87,273.58L328.21,273.4L329.47,275.29L331.79,274.89L333.21,272.78L335.66,272.61L335.86,270.3L334.65,267.87L335.19,266.23L333.86,265.33L336.72,264.48L339.66,264.73L340.01,265.52L343.37,265.86L350.73,265.33L352.47,267.24L352.42,269.55L354.11,273.25L358.23,275.65L365.75,276.41L366.62,275.4L368.29,275.73L369.36,273.95L373.5,272.1L373.25,270.64L374.73,268.65L379.44,270.31L379.44,268.67L383.58,268.44L382.96,270.91L384.05,273.45L386.38,273.43L384.68,275.62L384.89,278.22L386.44,277.93L387.03,279.04L388.57,278.16L390.51,278.25L391.36,276.38L392.69,276.33L392.85,277.71L396.42,276.33L397.27,278.71L397.08,280.08L395.95,280.02L395.58,281.8L396.44,282.55L395.33,283.75L393.92,283.67L393.89,284.73L392.47,285.42L392.4,287.4L391.64,288.7L389.86,288.63L387.37,292.95L385.67,293.74L386.44,297.23L384.93,297.25L385.42,299.34L385.15,301.2L383.04,303.04L383.22,306.06L382.18,307.19L380.83,307.16L380.39,310.25L378.67,311.13L378.56,313.56L382.25,315.26L381.58,316.98L380.28,316.3L379.03,319.89L380,320.61L379.2,322.41L382.89,322.71L385.48,321.69L387.04,321.8L389.55,322.93L391.38,325.8L393.19,325.97L392.01,327.66L392.85,329.95L395.06,329.58L395.24,330.5L393.69,330.96L394.17,334.15L392.57,337.34L392.94,340.93L391.07,340.01L387.81,339.86L386.79,340.51L385.28,342.83L385.34,343.85L387.1,345.93L389.22,345.34L391.02,345.59L391.64,348.89L391.4,350.45L392.81,351.1L389.86,351.73L388.67,351.02L384.91,351.14L383.14,351.67L381.24,349.41L379.88,349.85L380.09,351.69L378.14,351.97L377.93,350.46L375.17,351.26L376.73,355L378.16,354.94L378.39,357.38L380.18,358.14L379.16,361.02L376.52,360.84L376.11,362.93L374.27,363.2L374.19,365.87L375.27,368.63L378.32,368.7L378.27,371.39L380.71,373.44L380.61,375.14L381.24,378.87L382.05,380.73L383.23,380.99L383.29,382.41L379.38,384.76L379.38,385.65L375.65,386.79L373.89,386.6L374.95,389.66L371.8,390.45L371.2,389.15L371.42,392.31L369.33,394.19L370.4,395.84L371.28,395.67L371.91,398.09L368.97,400.26L368.97,402.59L366.73,402.8L366.82,404.93L367.58,404.9L367.99,409.47Z" stroke-miterlimit="10" stroke="#FFFFFF"/>
<path title="博兴县" fill="#D3D3D3" id="path6" d="M367.15,409.91L367.99,409.47L367.58,404.9L366.82,404.93L366.73,402.8L368.97,402.59L368.97,400.26L371.91,398.09L371.28,395.67L370.4,395.84L369.33,394.19L371.42,392.31L371.2,389.15L371.8,390.45L374.95,389.66L373.89,386.6L375.65,386.79L379.38,385.65L379.38,384.76L383.29,382.41L383.23,380.99L382.05,380.73L381.24,378.87L380.61,375.14L380.71,373.44L378.27,371.39L378.32,368.7L375.27,368.63L374.19,365.87L374.27,363.2L376.11,362.93L376.52,360.84L379.16,361.02L380.18,358.14L378.39,357.38L378.16,354.94L376.73,355L375.17,351.26L377.93,350.46L378.14,351.97L380.09,351.69L379.88,349.85L381.24,349.41L383.14,351.67L384.91,351.14L388.67,351.02L389.86,351.73L392.81,351.1L404.92,343.73L407.12,342.8L409.32,342.7L409.77,344.9L409.63,347.79L411.21,348.17L411.05,349.14L414.32,348.47L414.49,349.19L417.74,349.16L418.41,348.19L417.88,345.87L419.48,345.78L419.54,344.76L421.63,344.96L422.65,350.47L424.09,350.68L426.06,352.05L426.51,351.44L429.86,351.03L431.45,352.6L430.11,354.87L438.4,354.83L438.19,361.1L438.36,368.86L439.06,369.15L438.89,371.24L439.7,372.12L441.55,371.91L441.43,375.51L442.72,376.43L446.31,376.17L446.32,379.13L450.17,379.16L451.21,379.76L451.08,381.51L451.83,382.08L453.96,381.92L453.98,383.1L452.39,383.21L452.35,384.06L455.14,384.09L455.22,386.5L456.27,386.5L456.23,389.74L454.05,389.71L452.85,391.23L451.68,394.91L448.76,395.2L447.64,399.11L447.97,399.81L450.1,399.66L448.61,400.74L450.26,403.92L451.64,404.87L452.82,407.66L456.29,409.17L456.48,412.56L458.49,414.92L458.7,417.96L459.57,417.98L459.72,419.66L458.64,419.46L457.62,420.63L457.71,422.37L456.79,424.2L456.77,428.42L455.09,428.45L455.03,430.08L453.94,429.9L453.53,431.15L452.04,430.53L450.63,432.53L450.46,433.92L447.93,433.74L447.46,435.78L445.98,436.33L446.34,438.82L447.59,438.5L447.47,439.63L445.16,439.92L445.71,442.38L446.46,441.5L447.59,442.88L447.12,444.75L448.5,445.88L448.44,447.83L446.44,446.93L446.13,448.11L445.16,447.34L444.75,449.03L445.33,450.75L446.41,450.76L446.37,452.45L444.78,452.6L443.59,455.17L445.25,458.75L444.39,463.23L444.95,465.54L441.11,468.36L441.76,470.84L441.5,472.37L439.5,474.65L436.86,475.04L436.29,478.12L434.21,478.59L433.32,479.46L432.21,482.15L430.91,481.98L430.62,485.19L428.83,483.55L428.34,484.4L425.41,483L423.31,483.63L422.82,484.48L419.33,484.39L419.33,486.19L418.24,486.09L418.3,490.61L414.7,490.82L413.6,492.07L413.61,494.79L411.49,495.85L410.99,497.64L409.87,496.81L408.15,497.36L407.21,499.1L405.96,499.43L405.33,498.17L402.92,497.55L402.07,496.16L402.23,493.71L398.63,493.36L398.66,492.58L392.8,492.15L392.92,489.71L390,489.73L390.51,485.29L388.39,485.43L387.99,483.59L386.31,483.27L386.4,480.05L385.69,479.58L385.54,476.81L384.84,475.88L385.66,473.49L386.42,473.24L386.49,469.07L390.01,468.09L389.82,465.23L391.04,463.63L391.82,464.12L391.61,461.33L385.49,461.3L384.67,458.13L385.46,456.71L383.95,454.31L383.79,451.77L382.34,451.46L380.2,449.54L379.23,449.71L379.51,448.25L378.24,448.68L378.11,450.47L372.21,451.74L370.68,451.48L367.25,453.51L363.87,454.84L362.87,454.29L362.06,450.83L361.15,450.84L360.23,449.28L358.85,449.15L358.71,446.27L361.75,444.89L362.18,446.21L365.43,444.01L365.53,442.6L368.8,440.79L366.11,436.65L365.54,434.62L364.5,433.83L363.96,430.93L362.96,429.56L362.84,426.97L363.7,425.32L367.26,422.43L366.41,419.71L369.77,416.77L368.9,415.06L368.3,415.53L366.74,411.32Z" stroke-miterlimit="10" stroke="#FFFFFF"/>
<path title="惠民县" fill="#D3D3D3" id="path3" d="M143.8,300.23L146.61,298.57L149.89,295.89L152.51,292.26L154.25,290.84L156.44,291.9L160.22,294.77L164.62,296.29L169.66,299.45L171.95,299.92L174.17,299.36L176.41,297.44L177.74,294.4L177.71,291.5L176.8,288.75L175.02,287.8L174.9,286.61L176.04,285.95L175.1,284.69L172.7,284.32L171.66,283.3L174.36,281.46L175.83,282.05L178.41,281.52L179.62,278.98L180.96,278.44L181.96,279.93L184.22,280.09L185.81,276.88L186.41,276.95L186.34,273.87L190.95,273.88L191.5,275.15L192.94,274.86L194,276.24L195.42,273.84L198.36,275.94L198.92,279.04L199.98,279.15L200.35,281.63L202.75,283.66L202.73,285.52L204.52,285.48L206.72,286.24L207.28,282.41L210.07,279.48L209.32,277.17L211.12,276.19L211.46,277.78L212.54,278.71L213.68,278.31L213.74,276.26L215.01,275.17L218.37,274.23L220.28,272.09L222.26,271.18L222.54,272.05L226.2,274.44L231.53,276.12L235.24,278.07L236.96,280.92L238.09,283.93L238.44,287.69L238.19,291.36L237.62,294.24L235.92,310.66L236.27,314.25L238.93,313.88L240.36,315.27L244.76,314.64L244.82,313.61L246.32,313.42L245.48,308.52L248.39,308.12L249.59,307.29L254.55,302.49L256.2,302.72L258.54,299.33L261.16,296.22L262.96,294.96L265.25,295.5L264.92,293.91L263.45,293.48L263.42,291.4L265.3,292.17L266.54,294.13L267.94,293.88L269.02,294.88L271.64,294.86L271.68,296.02L275.66,295.77L275.45,294.12L276.71,293.82L278.22,292.02L278.04,290.73L280.04,290.5L282.2,292.35L282.69,294.58L283.55,294.58L284.34,296.39L284.86,300.43L286.04,302.93L286.61,305.81L291.64,311.31L292.45,312.87L292.23,315.08L291.34,317.02L288.75,319.34L287.85,321.45L288.05,323.84L288.74,325.36L287.13,327.67L285.59,327.39L285.68,328.74L287.35,329.73L286.93,334.13L285.57,335.84L284.58,335.21L283.69,339.42L283.22,339.54L283.08,343.05L284.38,341.78L284.73,344.4L286.86,346.73L287.48,349.13L288.09,355.78L288.09,367.1L289.42,371.55L295.59,371.7L297.35,372.26L297.9,374.06L296.68,376.07L293.43,377.78L294.42,381.74L291.78,383.25L280.93,393.38L278.45,394.77L274.51,394.76L271.51,394.08L265.5,393.23L255.87,390.6L254.74,390.06L249.61,385.43L246.36,383.88L244.73,383.95L240.25,387.01L237.85,390.49L236.14,393.9L235.2,401.03L234.27,403.26L231.69,406.73L227.82,409.13L226.48,410.8L224.81,422.69L223.14,426.18L220.6,428.88L219.56,429.45L212.79,431.16L208.21,432.9L203.04,436.74L199.82,437.49L188.57,441.19L185.74,444.8L184.84,443.14L183.53,435.48L184.71,435.49L184.22,432.15L183.06,432.29L183.07,428.49L182.32,427.36L181.1,427.43L180.71,422.24L180,419.33L178.77,417.27L173.39,411.43L172.37,409.12L169.57,405.07L168.36,402.5L168.8,402.24L169.44,397.94L170.68,396.72L172.72,397.41L173.93,396.41L176.71,396.69L176.82,395.84L175.31,395.35L175.61,393.1L176.72,392.74L176.45,391.22L179.49,392.75L181.06,392.88L180.93,390.65L179.41,389.99L178.99,387.83L179,384.6L177.66,384.72L177.01,379.84L173.31,375.6L171.52,371.15L170.76,366.29L170.81,363.4L171.62,360.86L172.2,356.02L170.38,354.41L171.03,351.96L172.64,350.49L168.41,344.97L165.14,342.45L158.83,338.52L156.34,335.08L158.72,329.92L159.3,325.76L159.17,323.79L156.67,320.1L154.32,318.27L150.92,318.39L146.47,319.27L141.28,319.54L138.4,318.65L137.23,317.19L138.45,315.33L140.85,314.17L139.94,312.62L137.83,311.66L133.84,310.58L134.4,307.69L136.12,306.43L138.35,305.61L142.28,304.81L143.93,302.87Z" stroke-miterlimit="10" stroke="#FFFFFF"/>
<path title="无棣县" fill="#D3D3D3" id="path5" d="M214.35,220.33L214.21,219.23L212.34,218.55L212.38,217.07L210.22,215.65L210.16,213.85L211.56,211.46L211.48,209.45L210.35,208.96L210.65,207.64L206.95,207.46L206.84,205.57L204.19,204.78L204.04,203.25L205.45,201.94L208.1,201.55L209.21,200.17L211.61,200.25L211.38,196.94L212.78,195.39L212.65,193.81L213.59,191.14L215.32,188.1L216.5,187.47L216.94,188.67L217.88,186.25L217.19,183.35L219.14,181.63L220.8,181.7L224.23,178.85L224.73,176.29L225.78,175.12L228.64,173.54L229.09,171.21L227.84,170.67L227.44,169.25L225.89,168.12L223.48,167.66L221.57,166.05L221.17,164.57L221.84,162.35L221.43,159.96L219.65,158.11L217.96,157.3L211.57,157L210.26,154.39L209.79,152.33L209.84,149.59L209.23,145.63L206.85,140.78L206.21,138.63L209.05,136.8L211.02,136.24L217.64,133.21L218.48,129.28L217.35,121.8L217.3,119.56L216.39,113.8L213.97,110.74L212.2,109.42L209.76,109.05L210.6,107.41L210.64,105.02L211.54,102.71L214.04,100.21L215.45,97.91L214.57,96.94L214.74,93.84L214.31,91.82L215.94,92.01L216.78,89.39L220.13,88.84L222.37,86.77L228.66,85.88L232.1,87.38L240.43,86.12L246.07,86.24L247.98,84.53L250.63,83.44L255.72,84.84L258.02,84.75L261.72,81.08L265.32,78.1L265.74,72.65L269.45,66.99L274.69,64.18L277,63.79L277.66,62.82L277.93,59.11L277.46,56.35L276.46,53.73L276.65,52.19L277.86,50.96L279.67,51.12L280.23,49.96L282.81,49.81L284.52,50.29L286.6,47.53L284.9,46.96L283.03,45.44L284.16,43.77L285.07,40.62L284.82,37.01L287.32,32.21L287.97,31.55L287.91,28.97L288.74,27.55L293.17,24.82L300.25,17.95L302.44,14.45L304.2,10.18L314.47,0L313.8,5.14L314.77,8.29L317.58,10.83L326.2,17.51L336.59,26.51L344.56,33.73L350.83,37.22L355.02,35.99L358.6,32.95L378.38,34.37L365.49,55.75L359.65,63.68L358.78,64.52L360.42,66.95L361.18,70.96L360.27,72.19L360.01,75.66L360.43,79.92L360.38,84.7L358.83,97.38L357.98,100.85L354.55,107.64L354,109.74L354.57,111.04L363.17,117.71L363.85,118.8L362.94,124.18L361.11,131.64L361.21,138.27L360.42,140.83L358.92,143.01L354.11,143.2L352.26,144L351.63,145.15L350.51,152.61L349.35,157.08L349.5,159.45L350.22,161.81L352.62,166.41L350.48,166.19L351.04,168.21L349.88,167.69L349.61,164.83L347.57,165.93L349.46,171.49L348.68,171.9L348.37,170.01L346.69,170.31L346.63,171.52L348.02,172.27L346.81,173.4L346.01,172.23L342.59,174.09L342.57,177.59L340.72,178.03L338.41,177.49L337.01,177.86L334.24,180.12L332.34,180.22L330.95,178.72L332.46,177.93L331.28,175.34L332.85,175.13L332.69,173.74L331.35,173.92L330.57,172.99L328.98,174.71L327.02,175.8L323.95,176.73L324.19,177.89L322.27,178.29L322.91,179.98L324.41,179.46L323.03,181.3L321.25,181.48L321.3,183.54L320.39,185.63L319.37,186.37L318.38,189.04L317.55,187.71L317.25,189.59L319.47,190.82L318.73,193.61L319.44,195.02L318.51,197.94L317.43,197.29L315.12,199.16L314.69,201.04L310.84,199.87L309.35,203.45L308.66,203.17L307.88,205.2L308.12,207.76L307.64,209.72L306.79,209.92L305.89,212.86L303.79,212.7L300.16,215.17L299.29,213.55L294.05,212.33L290.7,209.64L288.04,209.98L285.33,211.8L281.32,210.57L281.59,208.83L280.06,208.66L279.28,207.7L280.32,207L277.32,206.36L275.04,202.48L273.34,207.08L273.53,211.39L272.28,211.4L272.44,214.98L273.74,214.84L273.51,216.5L270.39,217.92L266.22,219.7L266.98,226.53L265.27,226.98L263.45,226.09L262.59,226.55L261.49,228.76L259.37,227.9L258.57,225.61L259.47,225L258.8,223.29L259.02,220.84L258.04,220.09L257.06,227.86L257.64,229.13L253.08,230.14L253.68,228.58L252.66,226.63L250.36,225.3L249.2,226.36L247.27,229.54L245.76,229.41L244.62,227.82L242.08,226.57L240.4,226.35L240.16,225.25L235.51,224.03L235.06,225.28L233.27,225.19L232.26,225.91L230.08,225.58L230.31,223.66L229.05,223.32L229.45,221.66L228.65,220.75L225.9,220.78L225.68,222.15L222.76,223.03L221.79,224.57L218.57,221.91L218.72,219.67Z" stroke-miterlimit="10" stroke="#FFFFFF"/>
<path title="阳信县" fill="#D3D3D3" id="path4" d="M143.8,300.23L142.22,297.82L140.7,297.12L134.59,296.26L133.96,291.71L131.36,290.25L130.72,287.85L131.98,283.09L132.84,277.13L132.87,275.34L135.32,271.27L141.02,266.49L142.96,262.59L143.78,259.53L143.82,257.13L142.29,250.2L140.42,249.15L140.03,247.65L142.27,247.12L144.02,239.62L145.51,237.17L147.25,235.4L151.47,232.72L152.59,231.69L152.7,229.68L151.73,228.01L153.01,225.39L152.39,225.03L152.94,222.67L154.09,222.71L156.12,225.09L157.97,226.06L158,229.91L157.36,233.08L155.74,235.55L155.36,238.15L156.17,238.48L155.57,240.94L156.91,242.28L157.43,244.25L160.15,244.63L161.96,243.55L166.02,240.37L167.33,238.68L168.32,235.36L170.23,233.34L172.64,236.8L176.62,238.24L181.16,235.93L183.45,236.66L187.49,242.03L190.86,242.46L192.73,237.3L194.26,234.02L196.66,232.84L198.64,232.71L199.53,230.38L201.84,229.62L206.85,229.6L207.12,227.73L208.77,227.45L210.34,224.1L208.79,222.63L209.93,221.76L209.37,220.24L211.81,219.03L213.27,221.02L214.35,220.33L218.72,219.67L218.57,221.91L221.79,224.57L222.76,223.03L225.68,222.15L225.9,220.78L228.65,220.75L229.45,221.66L229.05,223.32L230.31,223.66L230.08,225.58L232.26,225.91L233.27,225.19L235.06,225.28L235.51,224.03L240.16,225.25L240.4,226.35L242.08,226.57L244.62,227.82L245.76,229.41L247.27,229.54L249.2,226.36L250.36,225.3L252.66,226.63L253.68,228.58L253.08,230.14L257.64,229.13L257.06,227.86L258.04,220.09L259.02,220.84L258.8,223.29L259.47,225L258.57,225.61L259.37,227.9L261.49,228.76L262.59,226.55L263.45,226.09L265.27,226.98L266.98,226.53L266.22,219.7L270.39,217.92L270.72,222.19L271.42,222.45L271.58,226.73L270.67,228.37L271.58,229.23L269.32,233.88L270.56,234.87L270.39,236.31L267.01,237.74L268.34,240.19L269.3,239.79L273.12,244.15L279.07,247.87L280.06,246.92L281.79,246.93L282.87,248.65L283.01,250.53L284.92,252.45L288.2,257.48L289.77,259.23L292.38,260.49L295.85,260.92L301.38,260.2L302.52,258.43L305.04,257.12L304.78,259.6L304.56,263.13L303.84,263.35L303.33,266.01L305.65,268.92L305.37,270.7L304.26,270.56L304.19,274.44L304.77,277.15L304.01,278.84L301,279.42L299.41,277.9L296.29,279.09L293.62,278.89L290.24,277.43L289,276.37L287.71,277.22L289.08,279.13L288.22,282.34L285.72,282.66L284.34,284.78L285.3,287.1L286.8,288.81L288.06,288.67L288.99,289.87L290.1,289.58L290.6,290.78L290.31,293.99L288.29,292.76L287.04,294.09L284.08,294.69L284.34,296.39L283.55,294.58L282.69,294.58L282.2,292.35L280.04,290.5L278.04,290.73L278.22,292.02L276.71,293.82L275.45,294.12L275.66,295.77L271.68,296.02L271.64,294.86L269.02,294.88L267.94,293.88L266.54,294.13L265.3,292.17L263.42,291.4L263.45,293.48L264.92,293.91L265.25,295.5L262.96,294.96L261.16,296.22L258.54,299.33L256.2,302.72L254.55,302.49L249.59,307.29L248.39,308.12L245.48,308.52L246.32,313.42L244.82,313.61L244.76,314.64L240.36,315.27L238.93,313.88L236.27,314.25L235.92,310.66L237.62,294.24L238.19,291.36L238.44,287.69L238.09,283.93L236.96,280.92L235.24,278.07L231.53,276.12L226.2,274.44L222.54,272.05L222.26,271.18L220.28,272.09L218.37,274.23L215.01,275.17L213.74,276.26L213.68,278.31L212.54,278.71L211.46,277.78L211.12,276.19L209.32,277.17L210.07,279.48L207.28,282.41L206.72,286.24L204.52,285.48L202.73,285.52L202.75,283.66L200.35,281.63L199.98,279.15L198.92,279.04L198.36,275.94L195.42,273.84L194,276.24L192.94,274.86L191.5,275.15L190.95,273.88L186.34,273.87L186.41,276.95L185.81,276.88L184.22,280.09L181.96,279.93L180.96,278.44L179.62,278.98L178.41,281.52L175.83,282.05L174.36,281.46L171.66,283.3L172.7,284.32L175.1,284.69L176.04,285.95L174.9,286.61L175.02,287.8L176.8,288.75L177.71,291.5L177.74,294.4L176.41,297.44L174.17,299.36L171.95,299.92L169.66,299.45L164.62,296.29L160.22,294.77L156.44,291.9L154.25,290.84L152.51,292.26L149.89,295.89L146.61,298.57Z" stroke-miterlimit="10" stroke="#FFFFFF"/>
<path title="沾化区" fill="#D3D3D3" id="path2" d="M304.78,259.6L305.04,257.12L302.52,258.43L301.38,260.2L295.85,260.92L292.38,260.49L289.77,259.23L288.2,257.48L284.92,252.45L283.01,250.53L282.87,248.65L281.79,246.93L280.06,246.92L279.07,247.87L273.12,244.15L269.3,239.79L268.34,240.19L267.01,237.74L270.39,236.31L270.56,234.87L269.32,233.88L271.58,229.23L270.67,228.37L271.58,226.73L271.42,222.45L270.72,222.19L270.39,217.92L273.51,216.5L273.74,214.84L272.44,214.98L272.28,211.4L273.53,211.39L273.34,207.08L275.04,202.48L277.32,206.36L280.32,207L279.28,207.7L280.06,208.66L281.59,208.83L281.32,210.57L285.33,211.8L288.04,209.98L290.7,209.64L294.05,212.33L299.29,213.55L300.16,215.17L303.79,212.7L305.89,212.86L306.79,209.92L307.64,209.72L308.12,207.76L307.88,205.2L308.66,203.17L309.35,203.45L310.84,199.87L314.69,201.04L315.12,199.16L317.43,197.29L318.51,197.94L319.44,195.02L318.73,193.61L319.47,190.82L317.25,189.59L317.55,187.71L318.38,189.04L319.37,186.37L320.39,185.63L321.3,183.54L321.25,181.48L323.03,181.3L324.41,179.46L322.91,179.98L322.27,178.29L324.19,177.89L323.95,176.73L327.02,175.8L328.98,174.71L330.57,172.99L331.35,173.92L332.69,173.74L332.85,175.13L331.28,175.34L332.46,177.93L330.95,178.72L332.34,180.22L334.24,180.12L337.01,177.86L338.41,177.49L340.72,178.03L342.57,177.59L342.59,174.09L346.01,172.23L346.81,173.4L348.02,172.27L346.63,171.52L346.69,170.31L348.37,170.01L348.68,171.9L349.46,171.49L347.57,165.93L349.61,164.83L349.88,167.69L351.04,168.21L350.48,166.19L352.62,166.41L350.22,161.81L349.5,159.45L349.35,157.08L350.51,152.61L351.63,145.15L352.26,144L354.11,143.2L358.92,143.01L360.42,140.83L361.21,138.27L361.11,131.64L362.94,124.18L363.85,118.8L363.17,117.71L354.57,111.04L354,109.74L354.55,107.64L357.98,100.85L358.83,97.38L360.38,84.7L360.43,79.92L360.01,75.66L360.27,72.19L361.18,70.96L360.42,66.95L358.78,64.52L359.65,63.68L365.49,55.75L378.38,34.37L397.8,43.33L409.31,58.15L417.74,59.14L415.04,66.1L412.51,68.54L413.17,70.28L416.51,71.21L417.82,75.12L416.33,76.5L414.78,82.16L412.03,83.83L413.11,86.98L413.39,91.99L412.12,101.64L411.79,107.26L411.14,113.85L412.17,114.48L411.85,116.83L413.06,118.34L410.49,119.8L411.26,128.33L410.52,129.66L408.32,129.97L408.9,132.23L411.64,131.78L412.29,135.86L411.9,141.95L413.99,142.29L414.48,144.31L413.51,144.65L414.38,145.78L414.79,148.71L415.68,147.83L417.06,152.34L416.06,154.32L416.48,156.26L415.14,156.51L415.88,162.42L417.35,163.56L417.96,167L418.72,166.36L418.4,161.28L420.61,162.02L420.45,163.21L419.17,162.68L419.35,164.79L420.39,164.74L421.51,167.59L421.55,171.59L425.04,168.84L424.94,168.26L429.82,166.84L429.47,165.79L431.53,165.3L432.52,164.34L432.63,162.61L434.36,161.86L435.73,163.76L437.79,165.1L438.92,163.78L442.17,163.71L443.73,167.68L443.33,167.89L445.74,173.89L444.1,174.28L443.88,175.94L446.43,175.35L447.48,176.01L447.14,178.91L448.79,179.11L450.51,180.32L449.32,182.77L450.3,184.59L449.08,184.71L449.06,186.13L450.58,186.15L451.85,188.41L452.15,191.08L449.38,190.8L448.32,191.24L445.84,197.67L447.57,197.95L445.95,198.99L445.88,201.58L447.37,203.26L449.53,203.75L449.72,206.74L447.52,208.32L446.24,208.03L445.93,210.3L445,210.24L444.94,214.44L441.57,214.45L439.03,214.86L439.6,220.63L438.63,220.17L437.63,223.96L436.79,223.8L436.39,225.52L436.72,227.77L435.92,229.26L435.19,228.92L435.39,231.76L433.67,232.16L432.98,233.58L432.11,233.46L431.83,236.62L430.29,236.82L429.31,239.62L426.6,240.78L425.26,240.69L422.33,242.39L419.49,242.29L418.05,240.99L415.97,241.89L414.47,240.22L413.13,240.87L411.93,239.01L410.81,239.89L409.08,239.98L408.48,237.9L407.32,238.14L406.53,239.79L404.53,237.62L402.98,239.73L400.63,240.28L399.69,239.77L398.37,241.48L397.59,241.27L396.95,244.99L396.22,246.33L394.18,246.11L394.67,248.72L393.56,251.31L392.52,252.28L391.04,252.31L391.77,255.16L391.75,258.21L391.02,260.71L388.6,262.77L389.18,264.96L387.37,266.23L385.1,266.47L383.58,268.44L379.44,268.67L379.44,270.31L374.73,268.65L373.25,270.64L373.5,272.1L369.36,273.95L368.29,275.73L366.62,275.4L365.75,276.41L358.23,275.65L354.11,273.25L352.42,269.55L352.47,267.24L350.73,265.33L343.37,265.86L340.01,265.52L339.66,264.73L336.72,264.48L333.86,265.33L335.19,266.23L334.65,267.87L335.86,270.3L335.66,272.61L333.21,272.78L331.79,274.89L329.47,275.29L328.21,273.4L326.87,273.58L325.39,272.1L325.18,270.63L323.19,271.94L322.06,268.88L320.66,269.49L318.58,268.41L318.13,266.64L316.77,265.83L315.64,267.4L314.04,267.73L312.53,266.42L311.95,264.78L308.43,264.01L308.46,263.1L306.86,263.69L305.94,262.48L307.31,260.09L306.12,259.17ZM465.68,103.44L466.34,93.3L469.09,93.35L469.28,103.71Z" stroke-miterlimit="10" stroke="#FFFFFF"/>
<path title="邹平市" fill="#D3D3D3" id="path7" d="M185.74,444.8L188.57,441.19L199.82,437.49L203.04,436.74L208.21,432.9L212.79,431.16L213.46,437L214.31,437.4L214.6,439.52L216.82,439.15L219.62,440.69L220.35,443.01L219.4,444.48L217.69,444.68L217.8,446.82L219.21,448.05L219.8,452.49L222.38,453.74L223.53,452.85L224.49,454.04L229.66,451.95L232.88,452.15L236.3,453.51L240.33,454.46L248.99,458.43L257.56,460.08L261.81,459.74L264.56,460.05L266.45,461.08L268.44,461.46L274.99,461.13L277.89,459.95L286.32,459.3L292.79,460.36L298.11,460.47L300.21,461.09L299.4,463.6L299.21,468.36L298.13,472.34L297.29,473.61L298.38,473.87L298.58,475.73L301.49,476.78L305.69,476.72L307.04,480.54L305.83,482.89L305.89,487.97L307.02,490.86L311.69,491.21L312.25,491.64L317.69,492.25L318.26,494.6L319.28,494.67L318.79,499.31L319.78,499.45L319.71,502.61L322.79,504.64L322.59,505.67L325.13,506.97L326.41,509.55L326.19,516.62L327.3,514.48L327.36,513L328.56,511.35L330.25,515.65L332.47,514.05L334,514.13L333.65,518.6L332.84,519.73L330.68,520.52L330.71,521.65L327.65,521.99L327.74,525.53L325.8,525.43L324.53,526.05L324.83,527.72L322.64,527.67L321.33,529.78L320.77,533.61L318.91,533.9L313.32,532.84L313.36,533.93L312.12,534.69L313.11,535.57L310.72,535.9L310.74,536.84L308.4,536.74L308.4,535.52L305.59,534.8L305.58,536.4L302.92,537.23L295.92,537.22L294.49,538.72L294.47,541.62L295.81,543.28L295.62,545.82L293.77,550.04L292.75,550.06L292.06,554.92L291.11,555.23L292.38,558.78L290.55,560.32L290.8,563.54L293.39,563.78L293.8,568.24L296.03,566.92L298.11,567.62L299.91,569.78L301.17,572.35L300.49,575.17L301.78,576.01L301.71,577.51L299.67,578.98L297.95,578.95L295.97,579.68L294.98,579.07L296.37,577.07L294.24,574.71L294.02,572.98L292.98,572.93L291.07,574.52L292.34,575.43L291.15,578.63L291.8,581.21L290.57,580.73L289.22,583.52L287.85,583.49L287.17,586.31L285.29,587.66L284.79,588.92L285.27,591.56L284.17,593.44L282.98,593.47L279.99,594.76L280.9,595.07L280.57,597.1L279.71,597.95L277.36,598.23L272.68,597.31L272.32,595.57L271.37,596.03L271.08,597.61L269.28,597.92L268.2,596.92L266.19,597.5L266.4,598.8L264.49,600L264.27,597.95L262.42,597.73L262.15,594.44L264.39,592.79L266.76,589.78L268.49,588.46L267.5,585.35L269.66,579.7L270.66,578.29L267.78,576.51L263.83,575.56L261.38,575.56L261.03,576.16L255.5,576.25L253.04,572.66L252.51,569.61L250.15,565.51L247.92,563.11L241.37,557.33L231.94,552.68L229.69,551.29L227.14,548.11L221.4,540.39L220.47,536.14L221.23,530.53L221.84,530.17L222.74,527.3L222.37,524.59L220.26,520.31L218.06,516.63L210.15,512.57L210.24,511.47L207.74,510.76L208.48,507.91L209.3,507.11L212.77,509.93L213.48,507.4L216.71,505.79L217.6,503.05L217.68,501.32L216.96,500.29L212.21,498.4L212.12,496.61L213.93,496.29L213.78,494.81L212.13,492.95L211.13,493.54L208.51,493.43L206.89,495.47L207.11,496.57L205.94,497.09L205.38,498.67L203.63,499.34L203.65,500.96L201.8,499.97L200.54,496.84L202.7,495.47L202.27,494.59L199.7,496.69L196.01,495.7L196.11,496.52L192.7,497.6L192.51,496.46L190.69,497.18L191.02,499.85L185.45,501.13L181.22,500.97L173.09,502.99L172.52,501.28L169.92,503.96L169.28,502.1L165.64,503.23L162.85,502.93L161.7,501.38L159.08,491.35L157.87,487.35L156.63,485.56L154.37,484.25L146.98,481.34L143.68,477.75L143.11,474.18L146.28,472.1L148.09,470.26L149.39,468.16L150.21,464.61L149.99,460.68L148.23,459.78L149.33,458.13L154.14,459.69L157.84,459.86L160.08,458.8L165.5,454.61L167.88,453.26L170.83,452.4L179.42,451.41L180.53,450.86Z" stroke-miterlimit="10" stroke="#FFFFFF"/>
</svg>