<svg xmlns="http://www.w3.org/2000/svg" xmlns:xlink="http://www.w3.org/1999/xlink" width="600" height="600">
<path title="安丘市" fill="#D3D3D3" id="path10" d="M317.94,299.62L317.46,297.76L318.59,294.2L320.53,294.08L321.95,292.46L324.81,291.44L327.96,293.38L331.02,289.03L334.78,285.63L337.66,284.87L340.65,283.3L343.79,283.21L346.55,283.94L349.52,283.03L349.59,286.02L348.83,286.62L349.12,289.04L351.65,287.43L355.37,288.23L356.02,290.47L356.87,290.51L356.75,293.86L357.96,294.32L360.1,292.6L360.45,296.53L364.98,298.22L365.82,299.78L365.87,301.88L367.01,304.46L368.19,304.34L371.04,301.34L373.18,302.13L372.66,306L374.51,306.28L377.15,307.69L380.68,306.7L381.91,308.01L381.98,312.98L383.1,315L383.07,317.57L382.19,317.78L382.37,320.03L380.37,321.07L378.66,319.57L378.5,321.77L376.3,320.81L375.05,321.56L374.09,324.37L373.16,324.45L373.63,328.97L376.1,330.04L379.59,328.13L382.66,328.46L383.23,333.84L386.16,338.52L383.5,343.03L383.5,346.5L384.9,350.49L383.64,351.87L380.15,352.05L378.47,349.46L373.88,347.35L373.16,347.88L372.53,350.79L367.71,353.47L367.15,355.38L369.38,360.57L371.48,360.91L372.74,362.64L375.81,362.46L377.07,363.84L379.31,364.36L381.41,363.31L383.36,361.06L384.76,360.54L385.59,357.42L390.34,358.11L390.97,361.31L391.81,370.49L393.06,373.09L397.67,373.44L406.16,373.27L408.31,374.23L408.12,376.78L407.13,379.77L407.79,383.03L407.23,385.24L405.27,388.37L403.97,392.38L402.61,393.24L397.15,394.8L394.16,395.93L388.96,400.33L381.89,408L378.9,409.91L374.02,409.61L369.99,410.15L367.6,411.54L362.99,415.77L359.16,417.68L356.08,418.39L348.97,416.12L344.43,414.95L337.27,417.81L333.44,418.35L331.9,418.1L327.42,419.99L325.15,421.56L325.15,426.21L323.14,427.66L320.5,428.44L315.08,435.06L313.85,438.05L312.14,439.66L308.63,439.2L306.59,440.94L307.23,443.6L303.97,448.88L304.09,453.74L301.02,455.86L298.54,455.44L296.73,452.48L294.2,450.76L292.98,450.72L292.02,452.33L291.93,454.22L292.61,455.66L292.24,457.14L290.06,459.02L288.54,459.18L285.87,456.95L282.76,457.79L281.87,455.98L279.55,455.27L278.68,452.98L277.25,452.61L275.3,454.66L272.28,455.17L271.27,454.4L268.11,455.68L268.2,456.99L265.63,456.19L264.52,454.96L262.13,454.7L262.04,452.48L258.57,452.67L257.38,449.91L253.95,446.9L251.86,449.2L249.59,449.82L247.84,448.74L245.77,449.85L247.16,452.08L244.08,451.76L244.01,453.29L245.76,453.08L243.37,457.48L239.82,457.66L238.86,458.74L236.78,458.5L235.09,460.06L233.58,457.39L231.96,455.86L230.56,455.69L228.93,453.73L229.82,452.85L229.39,451.53L230.58,449.11L228.84,448.7L228.27,443.01L229.47,442.75L229.37,440.52L229.97,439.51L228.25,438.04L228.09,434.66L228.74,434.09L228.73,430.89L227.14,427.95L224.74,427.23L224.1,422.5L225.38,421.04L224.85,417.06L224.03,416.05L221.47,415.6L219.52,416.35L217.15,416.36L213.38,417.25L211.28,415.71L206.33,417.72L204.31,416.86L202.71,415.2L200.47,414.29L198.43,415.68L197.1,417.76L194.92,419.06L194.49,416.8L192.41,413.28L193.82,412.13L193.73,410.69L194.71,410.59L196.5,405.47L198.54,403.22L198.17,402.53L198.62,397.22L200.31,395.44L201.28,395.4L202.1,392.97L204.43,391.41L204.94,389.16L204.83,385.81L205.5,385.68L207.82,381.72L207.43,379.97L208.7,376.72L208.49,376.05L207.99,374.1L209.22,370.56L208.5,367.86L210.35,365.2L211.79,361.09L210.84,358.81L212.89,358.87L213.98,357.49L216.86,356.77L218.67,356.87L220.47,357.84L221.36,359.78L225.28,362.83L228.22,363.75L232.86,366.79L233.44,367.51L237.52,367.72L245.69,366.72L249.68,365.65L253.53,363.37L256.64,362.86L262.54,363.66L269.1,362.83L271.37,362.22L273.94,360.15L275.74,357.7L276.4,356.01L275.58,350.85L275.68,347.89L272.6,344.35L274.26,344.38L276.28,343.42L276.33,342.06L275.32,340.67L273.72,340.52L274.7,338.46L270.39,334.49L275.61,331.44L276.1,332.23L277.68,330.71L279.21,330.29L280.22,328.39L282.52,326.54L285.33,326.85L287.13,324.79L288.99,325.23L290.8,327.67L290.96,329.2L294.93,329.37L294.93,327.79L295.88,327.48L297.24,330.19L298.52,330.82L299.74,329.08L298.72,326.05L299.34,323.81L301.01,323.75L301.83,318.89L300.82,318.26L303.21,317.75L303.67,318.5L304.52,316.79L306.4,316.52L307.23,318.31L307.53,317.11L309.01,316.33L311.14,316.61L312.68,317.59L313.04,319.28L314.27,318.22L313.07,314.29L313.97,312.77L315.27,312.62L315.25,314.69L319.75,312.28L321.42,313.46L320.36,314.47L322.28,314.2L322.9,313.22L325.47,312.59L324.52,310.81L324.55,308.26L322.97,305.35L324.01,304.64L323.85,302.97L322.04,301.26L321.57,299.07L319.98,300.04Z" stroke-miterlimit="10" stroke="#FFFFFF"/>
<path title="昌乐县" fill="#D3D3D3" id="path6" d="M208.49,376.05L206.2,375.19L202.5,378.88L201.07,379.59L202.87,380.01L202.77,381.99L201.17,382.02L200.35,383.67L197.11,385.83L195.06,384.08L195.94,379.92L193.31,379.64L189.59,378.03L191.29,377.74L192.09,375.64L193.48,375.36L194.31,373.84L193.2,370.8L193.27,367.95L191.81,368.04L191.95,365.38L191.44,362.8L189.31,360.65L189.52,359.25L187.46,358.9L188.16,356.8L195.2,355.54L194.34,352.89L193.27,351.84L193.02,349.53L190.55,344.24L190.78,343.36L193.61,343.22L195.9,344.49L196.14,343.66L199.04,344.26L199.13,342.55L200.27,342.87L205.34,346.89L206.96,349.69L211.09,352.53L212.26,351.07L211.93,348.23L210.26,345.64L210.67,343.63L212.16,342.51L213.79,342.55L212.33,337.73L213.33,336.91L212.45,335.68L214.16,332.74L218.66,332.95L219.03,330.06L218.23,325.9L209.78,324.91L207.74,324.32L206.1,324.93L203.18,323.32L204.18,320.72L202.86,315.79L201.95,314.05L201.82,311.48L199.49,309.96L198.73,308.72L200.77,307.67L201.91,303.87L205.85,296.07L206.13,292.89L205.68,285.8L205.16,283.28L202.15,278.26L196.87,275.04L197.74,271.21L200.47,264.17L198.01,263.88L197.62,262.82L198.66,261.83L196.4,261.13L196.17,259.83L196.9,257.84L202.31,257.64L201.61,255.45L201.86,250.57L201.02,249.27L201.1,246.96L202.62,245.99L200.09,243.25L201.93,239.93L203.42,239.97L201.57,235.76L200.78,235.09L199.68,232.4L199.45,229.64L197.9,228.29L196.81,228.27L196.39,230.26L193.27,230.12L192.28,229.51L189.78,229.41L189.77,228.31L187.88,227.52L188.26,221.31L188.32,220.89L194.98,215.32L196.37,215.47L197.51,213.13L198.62,213.21L199.15,211.74L200.63,211.89L202,212.98L205.66,211.82L206.98,214.62L212.44,215.36L212.88,214.06L213.57,215.3L217.55,215.6L217.84,213.21L219.3,213.15L219.84,206.32L221.65,205.55L221.6,204.32L225.29,204.31L228.74,202.68L228.92,204.23L230.19,205.02L230.7,206.52L231.83,204.49L232.47,201.12L234.64,201.4L236.3,203.05L236.38,204.93L234.72,207.21L236.68,208.89L242.88,209.77L242.68,208.92L246.1,208.74L246.06,209.83L249.81,210.17L250.31,213.15L251.37,213.97L251.54,212.2L252.72,212.19L253.17,210.83L252.11,209.86L251.34,207.62L251.73,205.77L253.24,204.32L255.3,204.92L255.36,205.78L259.23,205.82L259.23,208.39L260.58,209.05L260.44,210.3L262.38,210.28L260.97,211.97L259.84,214.82L258.24,214.32L255.63,214.78L255.02,216.8L254.97,220.59L256.98,221.52L256.35,225.22L258.4,226.49L258.56,229.22L258.16,232.82L259.58,235.82L258.05,239.05L254.73,243.41L256.01,245.15L255.41,248.67L254.32,249.53L253.7,252L255.93,253.42L255.44,256.46L253.89,256.91L253.46,258.11L255.2,260.28L259.59,260.64L260.42,261.7L259.33,263.32L260.27,265.01L261.76,264.07L265.18,266.04L267.92,264.93L269.25,261.93L271.69,261.9L275.44,262.47L275.35,265.34L274.76,265.35L274.86,268.32L276.38,268.36L277.05,270.67L279.39,270.48L279.1,268.81L280.03,268.23L282.55,268.47L282.64,267.81L288.97,267.83L289.25,271.59L290.99,270.78L292.48,273.37L293.1,273.14L294.1,276.41L293.28,278.56L296.26,278.65L298.82,279.28L301.78,278.21L302.76,281.39L305.3,281.45L306.33,282.95L306.21,287.92L305.52,291.94L306.4,293.26L306.64,295.58L307.71,296.11L312.17,300.44L313.22,302.5L317.62,300.46L317.94,299.62L319.98,300.04L321.57,299.07L322.04,301.26L323.85,302.97L324.01,304.64L322.97,305.35L324.55,308.26L324.52,310.81L325.47,312.59L322.9,313.22L322.28,314.2L320.36,314.47L321.42,313.46L319.75,312.28L315.25,314.69L315.27,312.62L313.97,312.77L313.07,314.29L314.27,318.22L313.04,319.28L312.68,317.59L311.14,316.61L309.01,316.33L307.53,317.11L307.23,318.31L306.4,316.52L304.52,316.79L303.67,318.5L303.21,317.75L300.82,318.26L301.83,318.89L301.01,323.75L299.34,323.81L298.72,326.05L299.74,329.08L298.52,330.82L297.24,330.19L295.88,327.48L294.93,327.79L294.93,329.37L290.96,329.2L290.8,327.67L288.99,325.23L287.13,324.79L285.33,326.85L282.52,326.54L280.22,328.39L279.21,330.29L277.68,330.71L276.1,332.23L275.61,331.44L270.39,334.49L274.7,338.46L273.72,340.52L275.32,340.67L276.33,342.06L276.28,343.42L274.26,344.38L272.6,344.35L275.68,347.89L275.58,350.85L276.4,356.01L275.74,357.7L273.94,360.15L271.37,362.22L269.1,362.83L262.54,363.66L256.64,362.86L253.53,363.37L249.68,365.65L245.69,366.72L237.52,367.72L233.44,367.51L232.86,366.79L228.22,363.75L225.28,362.83L221.36,359.78L220.47,357.84L218.67,356.87L216.86,356.77L213.98,357.49L212.89,358.87L210.84,358.81L211.79,361.09L210.35,365.2L208.5,367.86L209.22,370.56L207.99,374.1Z" stroke-miterlimit="10" stroke="#FFFFFF"/>
<path title="昌邑市" fill="#D3D3D3" id="path12" d="M441.62,322.51L441.87,321.32L440.53,321.06L440.47,318.62L439.64,317.17L436.68,317.43L434.87,317.06L436.06,313.07L437.62,312.97L438.09,307.88L439.28,306.79L441.04,306.79L441.15,304.76L436.86,304.31L436.4,302.13L435.46,301.56L435.93,299.48L437.38,299.38L437.48,298.39L439.15,298.29L439.12,297.2L436.27,295.96L436.19,292.96L432.43,292L431.11,289.84L429.8,289.37L428.89,287.64L427.5,287.22L424.76,287.98L421.44,285.58L415.7,285.27L415.56,284.23L417.92,279.71L417.09,277.28L417.64,273.28L414.17,271.36L411.11,270.65L410.55,265.95L411.11,263.7L415,261.8L416.39,256.93L414.72,253.62L414.44,251.19L411.66,251.35L411.25,254.48L407.77,252.73L400.39,252.54L392.03,252.02L390,250.76L389.29,248.06L387.68,247.11L386.73,244.66L383.45,242.6L382.55,241.3L383.03,239.94L385.28,237.98L387.43,234.48L388.5,231.17L391.04,229.32L392.36,227.58L393.74,224.64L396.02,223.68L395.54,223.19L398.22,222.29L401.52,222.24L402.54,219.47L402.99,215.16L402.23,212.86L402.36,210.57L403.48,206.09L403.14,201.67L400.88,196.99L398.3,195.37L395.98,192.85L393.13,191.75L389.95,193.81L389.36,197.41L387.3,197.19L385.36,200.46L383.49,200.56L382.8,203.35L382.94,204.91L380.72,205.99L378.02,206.23L375.51,204.21L375.33,202.94L372.85,201.92L371.33,199.05L369.96,199.78L368.44,199.29L367.66,197.61L368.3,196.42L370.6,195.49L371.56,194.21L370.63,192.68L370.29,189.72L367.65,189.47L368.39,186.81L367.76,181.67L362.12,181.53L360.38,183.15L360.01,187.29L357.39,186.71L356.12,188.13L353.25,189.03L349.15,188.92L348.7,187L347.39,185.99L342.24,185.85L342.2,182.74L340.46,182.7L338.98,180.27L338.9,177.48L337.85,176L339.24,173.18L340.2,173.32L341.97,171.17L341.73,168.32L340.24,166.16L337.76,165.6L336.77,164.48L337.2,162.8L338.19,164.03L338.84,161.69L339.61,161.68L339.65,158.46L338.07,157.69L338.45,153.44L338.26,151.78L340.78,151.55L341.44,149.73L341.92,143.96L342.91,139.69L343.47,134.84L345.75,130.05L346.11,118.56L346.62,115.2L346.41,113.61L347.7,105.97L348.57,93.15L348.36,92L346.2,88.44L345.52,86.46L345.89,82.73L349.09,80.01L350.72,77.48L350.88,74.88L353.11,73.18L353.84,70.14L355.54,68.68L355.83,66.63L357.17,66.42L362.22,62.68L364.31,63.68L367.98,69.85L370.24,71.62L374.59,71.04L377.32,68.93L381.67,67.73L389.46,67.91L399.77,67.96L405.83,65.91L412.09,64.96L419.18,64.54L419.23,61.54L415.95,57.37L416.79,56.46L420.24,61.08L420.24,64.96L423.24,66.89L426.13,65.32L428.14,66.12L434.68,66.4L436.6,66.73L445.41,67.17L443.05,77.56L445.3,82.35L443.9,84.71L440.3,88.31L439.88,90.3L441.44,93.33L444.76,94.95L449.13,97.83L454.34,100.21L456.5,102.58L455.47,110.23L453.89,116.99L451.92,119.5L448.74,130.37L447.6,133.52L448.3,136.06L451.01,141.04L452.49,145.53L452.31,153.52L452.4,161.55L451.84,169.48L444.56,185.31L442.73,188.95L441.54,190.08L439.38,189.42L437.57,187.84L434.19,188.67L434.95,189.74L436.43,189.02L437.1,190.14L436,191.15L434.1,191.13L433.72,192.92L434.13,195.74L432.19,198.63L431.51,204.22L432.85,212.5L436.51,219.24L437.85,220.29L440.73,220.97L442.67,223.91L444.21,223.47L446.41,224.48L447.49,228.01L448.77,229.06L448.7,230.31L451.41,232.51L449.58,233.93L447.97,234.02L445.48,236.01L440.42,236.69L439.42,237.14L439.95,238.73L439.85,242.36L437.85,245.28L436.45,246.45L436.38,249.75L437.31,254.22L438.85,255.06L440.68,257.75L442.68,258.57L444.38,261.62L446.08,263.46L444.89,263.91L444.67,266.03L447.09,266.06L449.17,272.43L450.98,272.58L451.43,273.81L452.96,274.02L454.21,277.17L454.5,280.73L453.55,281.5L455.16,285.67L459.09,298.93L459.23,300.71L457.87,301.59L457.65,303.59L458.08,307.73L459.61,309.65L459.6,312.2L457.32,313.52L458.3,314.84L458.45,317.6L456.79,318.05L456.55,325.09L453.65,325.37L450.34,324.08L449.15,325.63L447.7,324.24L443.78,321.88Z" stroke-miterlimit="10" stroke="#FFFFFF"/>
<path title="坊子区" fill="#D3D3D3" id="path3" d="M407.23,385.24L407.79,383.03L407.13,379.77L408.12,376.78L408.31,374.23L406.16,373.27L397.67,373.44L393.06,373.09L391.81,370.49L390.97,361.31L390.34,358.11L385.59,357.42L384.76,360.54L383.36,361.06L381.41,363.31L379.31,364.36L377.07,363.84L375.81,362.46L372.74,362.64L371.48,360.91L369.38,360.57L367.15,355.38L367.71,353.47L372.53,350.79L373.16,347.88L373.88,347.35L378.47,349.46L380.15,352.05L383.64,351.87L384.9,350.49L383.5,346.5L383.5,343.03L386.16,338.52L383.23,333.84L382.66,328.46L379.59,328.13L376.1,330.04L373.63,328.97L373.16,324.45L374.09,324.37L375.05,321.56L376.3,320.81L378.5,321.77L378.66,319.57L380.37,321.07L382.37,320.03L382.19,317.78L383.07,317.57L383.1,315L381.98,312.98L381.91,308.01L380.68,306.7L377.15,307.69L374.51,306.28L372.66,306L373.18,302.13L371.04,301.34L368.19,304.34L367.01,304.46L365.87,301.88L365.82,299.78L364.98,298.22L360.45,296.53L360.1,292.6L357.96,294.32L356.75,293.86L356.87,290.51L356.02,290.47L355.37,288.23L351.65,287.43L349.12,289.04L348.83,286.62L349.59,286.02L349.52,283.03L346.55,283.94L343.79,283.21L340.65,283.3L337.66,284.87L334.78,285.63L331.02,289.03L327.96,293.38L324.81,291.44L321.95,292.46L320.53,294.08L318.59,294.2L317.46,297.76L317.94,299.62L317.62,300.46L313.22,302.5L312.17,300.44L307.71,296.11L306.64,295.58L306.4,293.26L305.52,291.94L306.21,287.92L306.33,282.95L305.3,281.45L302.76,281.39L301.78,278.21L298.82,279.28L296.26,278.65L293.28,278.56L294.1,276.41L293.1,273.14L292.48,273.37L290.99,270.78L292.97,269.62L294.08,267.87L297.21,266.15L298.3,264.74L300.15,260.25L303.43,261.36L304.96,263.43L308.63,263.31L308.53,259.3L307.44,259.01L307.19,256.76L309.29,256.11L311.41,257.33L314.31,257.3L314.07,254.78L316.91,253.07L318.64,253.8L317.96,250.98L316.56,250.91L316.69,249.86L313.68,250.1L314.47,247.73L315.98,245.77L314.76,245.18L315.13,241.22L315.91,240.49L315.68,238.89L317.51,238.21L319.38,239.97L326.11,241.9L326.49,244.07L327.84,243.9L327.99,242.44L334.48,244.31L337.2,244.79L337.21,249.08L337.96,250.22L338.42,253.43L337.32,257.02L339.06,257.1L339.06,260.3L347.96,260.35L352.74,260.15L353.7,259.27L351.33,256.77L351.9,254.69L353.58,253.66L354.86,254.45L355.42,253.22L354.06,252.38L354.04,247L356.93,246.77L357.06,244.77L359.37,245.25L362.81,245.2L363.59,243.77L362.78,243.1L362.96,238.57L359.93,238.58L360.01,235.95L361.41,234.27L361.35,232.72L360.08,231.8L352.82,231.74L352.25,228.95L351.01,226.96L349.62,226.88L349.38,223L350.45,221.54L352.19,221.31L351.15,219.39L353.38,218.97L356.09,219.86L356.52,220.8L357.72,219.59L357.58,218.35L360.06,217.8L361.6,220.57L366.68,218.77L371.41,217.87L372.69,216.61L373.21,217.68L375.19,217.56L377.61,214.76L379.38,213.99L382.7,215.25L382.04,216.56L383.98,216.53L385,217.56L390.35,217.84L390.94,216.04L395.54,217.08L397.08,217.02L397.15,218.29L398.4,219.17L402.54,219.47L401.52,222.24L398.22,222.29L395.54,223.19L396.02,223.68L393.74,224.64L392.36,227.58L391.04,229.32L388.5,231.17L387.43,234.48L385.28,237.98L383.03,239.94L382.55,241.3L383.45,242.6L386.73,244.66L387.68,247.11L389.29,248.06L390,250.76L392.03,252.02L400.39,252.54L407.77,252.73L411.25,254.48L411.66,251.35L414.44,251.19L414.72,253.62L416.39,256.93L415,261.8L411.11,263.7L410.55,265.95L411.11,270.65L414.17,271.36L417.64,273.28L417.09,277.28L417.92,279.71L415.56,284.23L415.7,285.27L421.44,285.58L424.76,287.98L427.5,287.22L428.89,287.64L429.8,289.37L431.11,289.84L432.43,292L436.19,292.96L436.27,295.96L439.12,297.2L439.15,298.29L437.48,298.39L437.38,299.38L435.93,299.48L435.46,301.56L436.4,302.13L436.86,304.31L441.15,304.76L441.04,306.79L439.28,306.79L438.09,307.88L437.62,312.97L436.06,313.07L434.87,317.06L436.68,317.43L439.64,317.17L440.47,318.62L440.53,321.06L441.87,321.32L441.62,322.51L440.92,324.33L437.1,327.61L435.28,327.31L433.8,325.25L432.71,325.23L431.41,327.22L431.6,328.91L429.94,332.83L432.3,334.8L433.85,334.85L432.12,335.73L431.89,336.93L430.46,337.03L429.71,338.95L428.79,339.15L428.66,343.01L426.43,342.74L426.35,343.78L424.46,343.72L423.76,346.92L422.3,346.82L421.53,348.01L421.36,351.19L419.69,353.98L420.23,355.85L425.96,354.21L425.81,355.41L423.66,356.64L421.24,361.04L422.33,362.7L427.03,363.35L426.85,367.21L425.44,367.09L423.81,370.07L422.85,374.46L424.59,375.78L424.33,379.05L423.45,380.06L425.08,380.24L425.11,382.86L426.01,383.85L428.79,383.9L428.92,385.92L426.51,385.85L426.54,385.22L423.32,385.04L423.27,385.74L416.38,385.56L416.47,389.19L414.18,389.01L412.32,388.62L412.16,386.74L407.82,386.1Z" stroke-miterlimit="10" stroke="#FFFFFF"/>
<path title="高密市" fill="#D3D3D3" id="path11" d="M414.18,389.01L416.47,389.19L416.38,385.56L423.27,385.74L423.32,385.04L426.54,385.22L426.51,385.85L428.92,385.92L428.79,383.9L426.01,383.85L425.11,382.86L425.08,380.24L423.45,380.06L424.33,379.05L424.59,375.78L422.85,374.46L423.81,370.07L425.44,367.09L426.85,367.21L427.03,363.35L422.33,362.7L421.24,361.04L423.66,356.64L425.81,355.41L425.96,354.21L420.23,355.85L419.69,353.98L421.36,351.19L421.53,348.01L422.3,346.82L423.76,346.92L424.46,343.72L426.35,343.78L426.43,342.74L428.66,343.01L428.79,339.15L429.71,338.95L430.46,337.03L431.89,336.93L432.12,335.73L433.85,334.85L432.3,334.8L429.94,332.83L431.6,328.91L431.41,327.22L432.71,325.23L433.8,325.25L435.28,327.31L437.1,327.61L440.92,324.33L441.62,322.51L443.78,321.88L447.7,324.24L449.15,325.63L450.34,324.08L453.65,325.37L456.55,325.09L456.79,318.05L458.45,317.6L458.3,314.84L457.32,313.52L459.6,312.2L459.61,309.65L458.08,307.73L457.65,303.59L457.87,301.59L459.23,300.71L459.09,298.93L455.16,285.67L453.55,281.5L454.5,280.73L454.21,277.17L452.96,274.02L451.43,273.81L450.98,272.58L449.17,272.43L447.09,266.06L444.67,266.03L444.89,263.91L446.08,263.46L444.38,261.62L442.68,258.57L440.68,257.75L438.85,255.06L437.31,254.22L436.38,249.75L436.45,246.45L437.85,245.28L439.85,242.36L439.95,238.73L439.42,237.14L440.42,236.69L445.48,236.01L447.97,234.02L449.58,233.93L451.41,232.51L452.57,236.56L453.63,237.14L453.84,239.19L454.92,241.38L456,241.3L456.98,244.82L459.05,249.44L458.73,250.53L460.1,251.91L463.2,253.51L463.6,254.69L464.95,254.85L468.01,257.63L468.56,258.68L469.84,257.75L473.39,261.05L473.82,260.39L477.25,263.93L480.26,264.16L483.02,265.49L485.23,267.89L487.38,268.88L487.71,270.11L491.85,273.68L491.64,276.02L490.81,277.73L491.08,280.56L492.87,280.13L494.75,278.9L494.69,277.76L497.11,277.16L499.66,279.5L504.55,281.56L508.29,283.6L512.38,284.75L520.87,288.67L524.41,289.55L538.87,292.25L541.15,293.06L548.52,294.43L549.33,295.85L550.17,305.87L554.31,305.53L553.94,301.1L554.2,299.83L557.04,297.56L559.51,296.78L559.32,295.42L561.15,296.08L564.97,295.72L565.81,298.26L573.16,302.72L573.47,300.87L576.57,300.68L576.74,302.02L575.56,304.55L574.71,308.11L574.94,309.56L576.69,310.02L574.68,312.64L575.29,315.52L577.31,316.26L577.93,317.91L576.8,318.39L577.03,321.37L575.04,321.76L575.23,323.5L573.94,324.45L572.43,324.35L571.68,322.84L563.89,322.94L561.01,323.69L559.52,325.13L558.1,324.27L556.82,327.03L555.62,328.32L555.35,330.91L554.08,331.45L553.47,334.22L550.85,334.49L550.6,337.06L551.21,340.5L552.39,340.67L553.85,342.41L555.74,343.62L556.96,347.51L554.2,349.01L552.38,347.32L549.69,347.65L549.37,347.16L546.19,347.62L544.51,348.69L545.2,350.76L544.23,351.13L544.66,353.05L542.71,354.28L543.28,356.61L541.99,360.96L542.7,362.45L542.3,366.51L540.6,370.01L540.79,372.24L534.25,374.94L532.75,375.95L532.15,378.27L529.42,378.42L528.91,380.19L523.21,387.24L523.11,390.75L522.18,392.18L522.17,394.08L520.99,395.21L518.81,395.58L519.29,400.1L518.19,401.63L517.12,401.68L515.42,404.48L516.43,405.59L517.42,409.65L518.88,412.34L521.68,412.77L519.98,417.17L521.26,420.03L520.89,421.41L522.46,422.43L522.57,424.04L519.75,425.02L519.42,427.54L516.98,426.05L516.91,428.88L513.62,428.33L512.49,428.96L512.32,427.8L510.65,427.4L510.25,428.69L507.78,429.77L505.38,429.58L504.62,428.88L501.66,429.98L501.1,431.23L497.29,432.26L495.81,431.08L494.57,431.58L492.98,430.43L492.66,427.06L489.84,425.94L486.82,426.04L484.01,425.64L482.33,424.57L480.23,425.66L478.29,424.69L477.28,422.89L477.08,424.11L474,425.07L473.25,426.15L473.42,428.54L472.26,430.74L470.54,431.2L470.91,433.96L469.89,433.84L469.89,436.41L469.06,437.3L467.69,436.21L465.75,436.67L463.18,435.03L460.88,430.97L460.22,426.55L459.14,424.75L456.25,424.08L455.11,420.77L454.36,420.13L452.06,420.25L449.01,419.67L446.43,419.96L445.74,418.83L444.89,419.43L445.42,420.78L444.65,422.16L445.87,427.02L444.53,428.41L444.77,430.09L442.71,431.38L441.86,430.57L438.57,433.36L438.6,435.2L436.38,434.85L434.71,430.97L432.28,426.97L429.97,421.86L428.64,420.36L426.5,419.96L420.04,419.67L417.07,417.41L406.09,416.47L404.95,414.14L405.16,412.37L406.83,406.26L409.3,401.53L410.5,400.04Z" stroke-miterlimit="10" stroke="#FFFFFF"/>
<path title="寒亭区" fill="#D3D3D3" id="path2" d="M402.54,219.47L398.4,219.17L397.15,218.29L397.08,217.02L395.54,217.08L390.94,216.04L390.35,217.84L385,217.56L383.98,216.53L382.04,216.56L382.7,215.25L379.38,213.99L377.61,214.76L375.19,217.56L373.21,217.68L372.69,216.61L371.41,217.87L366.68,218.77L361.6,220.57L360.06,217.8L357.58,218.35L357.72,219.59L356.52,220.8L356.09,219.86L353.38,218.97L351.15,219.39L349.95,219.31L349.44,217.65L348.16,216.52L345.48,217.6L343.13,216.95L342.63,215.71L340.69,215.89L339.96,216.68L336.37,217.39L333.89,216.83L332.83,213.9L330.33,213.33L330.22,214.43L326.4,213.42L326.15,212.38L324.56,212.42L324.61,213.52L321.52,213.66L320.34,211.12L321.53,210.04L320.4,208.78L320.29,210.01L318.4,210.01L317.93,202.64L315.98,202.78L316.21,209.7L314.21,210.61L314.51,207.32L311.58,207.4L309.96,206.74L309.77,204.69L307.21,206.55L306.4,209.16L304.6,209.11L306.6,201.34L303.65,200.86L303.96,198.34L302.09,198.09L301.37,199.24L298.88,199.56L297.11,198.3L295.65,199.34L292.96,197.61L292.14,197.63L290.35,200.11L289.46,199.65L286.77,200.01L281.96,199.42L280.67,200.22L277.09,200.69L274.2,199.36L273.78,196.81L270.54,193.77L270.27,189.4L268.52,189.94L267.3,188.56L264.93,188.34L262.53,187.13L262.98,183.63L261.98,182.56L263.68,181.75L264.84,183.18L266.6,182.16L266.25,184.43L267.35,184.46L268.24,186.85L270.98,186.51L271.01,189.49L271.59,189.73L271.84,187.34L272.77,185.64L274.95,170.37L274.79,168.92L273.54,168.19L272.7,165.85L272.6,162.21L273.97,161.36L276,161.26L276.36,158.65L275.27,158.62L275.18,156.31L273.9,154.15L272.71,154.21L272.94,152.63L271.64,151.79L272.87,147.39L274.16,146.63L273.83,143.23L274.95,141.62L277.64,140.33L277.99,138.56L276.81,137.44L280.13,134.77L281.84,131.57L282.94,131.12L283.4,127.69L285.82,125.35L289.09,125.17L289.04,123.53L290.16,123.32L290.71,124.86L291.7,124.42L291.31,122.04L292.81,121.18L295.16,121.7L293.93,120.24L295.1,118.95L294.26,115.49L295.01,113.3L293.68,114.36L291.26,114.41L291.24,113.47L294.71,113.09L295.42,112.08L292.21,111.71L290.81,112.71L290.52,114.39L288.47,113.91L289.09,109.85L290.76,109.2L292.21,110.27L293.98,110.06L295,106.34L296.05,106.31L297.28,102.53L296.94,100.95L297.93,99.43L298.24,100.83L301.14,102.3L302.8,101.16L303.66,99.26L301.94,98.84L301.33,100.26L299.47,98.93L299.46,94.2L301.09,94.46L301.61,92.47L300.96,92.28L304.85,88.61L307.04,87.18L307.93,85.23L307.65,84.18L303.75,85.4L301.79,84.53L297.19,85.4L292.37,85.14L288.31,84.45L285.51,82.19L279.63,85.35L271.51,86.26L269.97,88.02L268.99,91.17L267.31,91.35L266.47,89.61L262.97,91.19L259.61,90.5L257.93,84.56L255.69,83.51L251.78,82.65L248.43,81.08L247.59,77.75L248.15,67.07L239.64,67.6L239.15,57.36L239.15,44.56L244.73,38.96L259.55,38.23L261.93,41.2L271.87,40.99L277.33,40.1L280.55,35.88L283.77,32.89L284.82,31.05L291.35,23.81L294.86,24.79L296.65,24.71L297.6,23.04L298.72,17.82L301.03,16.54L303.88,16.77L309.86,18.84L311.71,15.64L312.06,8.5L313.13,6.19L318.79,6.19L320.12,6.89L322.46,9.83L321.46,11.42L318.76,8.83L316.46,8.3L314.21,9.49L313.89,15.92L312.23,19.32L309.94,26.13L310.26,27.24L312.52,27.84L313.89,25.8L314.92,25.68L332.85,9.26L335.43,11.83L328.85,17.11L329.14,19.13L330.81,18.42L332.28,19.27L332.9,22.1L330.52,28.12L329.82,31.43L329.13,40.58L330.48,41.97L333.19,41.85L333.52,40.22L332.82,35.85L332.89,32.7L333.67,30.88L335.41,30.04L338.26,30.18L341.48,31.39L345.03,35.34L347.29,36.55L350.14,36.64L353.84,35.34L356.43,34.97L358.88,35.99L360.69,37.76L361.32,40.69L360.84,43.29L359.25,48.16L358.91,50.62L359.32,53.04L360.93,55.32L361.61,61.46L362.22,62.68L357.17,66.42L355.83,66.63L355.54,68.68L353.84,70.14L353.11,73.18L350.88,74.88L350.72,77.48L349.09,80.01L345.89,82.73L345.52,86.46L346.2,88.44L348.36,92L348.57,93.15L347.7,105.97L346.41,113.61L346.62,115.2L346.11,118.56L345.75,130.05L343.47,134.84L342.91,139.69L341.92,143.96L341.44,149.73L340.78,151.55L338.26,151.78L338.45,153.44L338.07,157.69L339.65,158.46L339.61,161.68L338.84,161.69L338.19,164.03L337.2,162.8L336.77,164.48L337.76,165.6L340.24,166.16L341.73,168.32L341.97,171.17L340.2,173.32L339.24,173.18L337.85,176L338.9,177.48L338.98,180.27L340.46,182.7L342.2,182.74L342.24,185.85L347.39,185.99L348.7,187L349.15,188.92L353.25,189.03L356.12,188.13L357.39,186.71L360.01,187.29L360.38,183.15L362.12,181.53L367.76,181.67L368.39,186.81L367.65,189.47L370.29,189.72L370.63,192.68L371.56,194.21L370.6,195.49L368.3,196.42L367.66,197.61L368.44,199.29L369.96,199.78L371.33,199.05L372.85,201.92L375.33,202.94L375.51,204.21L378.02,206.23L380.72,205.99L382.94,204.91L382.8,203.35L383.49,200.56L385.36,200.46L387.3,197.19L389.36,197.41L389.95,193.81L393.13,191.75L395.98,192.85L398.3,195.37L400.88,196.99L403.14,201.67L403.48,206.09L402.36,210.57L402.23,212.86L402.99,215.16Z" stroke-miterlimit="10" stroke="#FFFFFF"/>
<path title="奎文区" fill="#D3D3D3" id="path4" d="M351.15,219.39L352.19,221.31L350.45,221.54L349.38,223L349.62,226.88L351.01,226.96L352.25,228.95L352.82,231.74L360.08,231.8L361.35,232.72L361.41,234.27L360.01,235.95L359.93,238.58L362.96,238.57L362.78,243.1L363.59,243.77L362.81,245.2L359.37,245.25L357.06,244.77L356.93,246.77L354.04,247L354.06,252.38L355.42,253.22L354.86,254.45L353.58,253.66L351.9,254.69L351.33,256.77L353.7,259.27L352.74,260.15L347.96,260.35L339.06,260.3L339.06,257.1L337.32,257.02L338.42,253.43L337.96,250.22L337.21,249.08L337.2,244.79L334.48,244.31L327.99,242.44L327.84,243.9L326.49,244.07L326.11,241.9L319.38,239.97L317.51,238.21L315.68,238.89L315.91,240.49L315.13,241.22L314.76,245.18L315.98,245.77L314.47,247.73L313.68,250.1L316.69,249.86L316.56,250.91L317.96,250.98L318.64,253.8L316.91,253.07L314.07,254.78L314.31,257.3L311.41,257.33L309.29,256.11L307.19,256.76L307.44,259.01L308.53,259.3L308.63,263.31L304.96,263.43L303.43,261.36L300.15,260.25L301.7,259.34L302.35,256.85L301.13,251.52L303.05,248.77L302.68,247.07L300.95,243.47L301.91,241.79L304.58,241.26L305.29,239.13L301.99,234.95L301.93,232L305.37,227.93L304.33,224.63L305.3,221.8L305.48,219.73L304.69,218.19L304.66,214.01L304.12,210.71L304.6,209.11L306.4,209.16L307.21,206.55L309.77,204.69L309.96,206.74L311.58,207.4L314.51,207.32L314.21,210.61L316.21,209.7L315.98,202.78L317.93,202.64L318.4,210.01L320.29,210.01L320.4,208.78L321.53,210.04L320.34,211.12L321.52,213.66L324.61,213.52L324.56,212.42L326.15,212.38L326.4,213.42L330.22,214.43L330.33,213.33L332.83,213.9L333.89,216.83L336.37,217.39L339.96,216.68L340.69,215.89L342.63,215.71L343.13,216.95L345.48,217.6L348.16,216.52L349.44,217.65L349.95,219.31Z" stroke-miterlimit="10" stroke="#FFFFFF"/>
<path title="临朐县" fill="#D3D3D3" id="path5" d="M41.76,336.31L47.46,334.27L49.98,333.83L50.83,329.37L50.52,328.09L52.01,327.16L53.96,325L55.3,325.36L59.37,327.9L60.81,324.22L61.58,323.49L65.24,322.49L69.56,320.39L70.94,318.14L75.02,316.6L78.78,313.4L79.06,312.53L82.72,310.93L83.7,308.75L86.09,307.37L84.91,304.85L85.56,301.93L86.43,300.23L88.6,298.38L89.07,297.26L94.46,300.98L97.25,300.21L101.02,297.31L105.18,295.97L112.81,292.77L114.95,292.67L117.54,291.34L123.58,291.34L124.42,290.7L126.29,286.18L128.58,284.23L132.24,283.79L136.79,281.61L138.6,282.29L141.18,282.17L142.76,278.89L144.6,278.53L144.32,275.56L142.85,275.45L139.98,277.29L139.26,276.08L138.44,271.96L139.43,269.4L140.76,268.08L142.52,265.31L141.98,259.74L144,259.11L149.87,259.77L152.75,259.65L157.17,262.1L160.7,262.48L161.75,262.06L164.22,258.54L165.23,258.3L167.88,261.18L172.27,263.78L174.45,267.47L175.4,270L178.27,274.67L182.32,276.86L186,277.17L187.68,274.43L188.92,273.75L190.56,274.31L192.89,274.11L192.93,275.3L196.87,275.04L202.15,278.26L205.16,283.28L205.68,285.8L206.13,292.89L205.85,296.07L201.91,303.87L200.77,307.67L198.73,308.72L199.49,309.96L201.82,311.48L201.95,314.05L202.86,315.79L204.18,320.72L203.18,323.32L206.1,324.93L207.74,324.32L209.78,324.91L218.23,325.9L219.03,330.06L218.66,332.95L214.16,332.74L212.45,335.68L213.33,336.91L212.33,337.73L213.79,342.55L212.16,342.51L210.67,343.63L210.26,345.64L211.93,348.23L212.26,351.07L211.09,352.53L206.96,349.69L205.34,346.89L200.27,342.87L199.13,342.55L199.04,344.26L196.14,343.66L195.9,344.49L193.61,343.22L190.78,343.36L190.55,344.24L193.02,349.53L193.27,351.84L194.34,352.89L195.2,355.54L188.16,356.8L187.46,358.9L189.52,359.25L189.31,360.65L191.44,362.8L191.95,365.38L191.81,368.04L193.27,367.95L193.2,370.8L194.31,373.84L193.48,375.36L192.09,375.64L191.29,377.74L189.59,378.03L193.31,379.64L195.94,379.92L195.06,384.08L197.11,385.83L200.35,383.67L201.17,382.02L202.77,381.99L202.87,380.01L201.07,379.59L202.5,378.88L206.2,375.19L208.49,376.05L208.7,376.72L207.43,379.97L207.82,381.72L205.5,385.68L204.83,385.81L204.94,389.16L204.43,391.41L202.1,392.97L201.28,395.4L200.31,395.44L198.62,397.22L198.17,402.53L198.54,403.22L196.5,405.47L194.71,410.59L193.73,410.69L193.82,412.13L192.41,413.28L194.49,416.8L194.92,419.06L193.92,421.22L195,421.45L195.86,423.11L195.26,425.64L194,427.49L194.05,428.99L193.04,429.69L191.85,428.68L190.54,429.22L190.97,432.8L190.37,434.79L191.43,436.81L188.96,437.82L188.29,438.87L186.56,438.31L186.84,435.59L184.84,433.82L183.04,434.21L181.54,435.34L180.77,437.57L178.46,437.78L178.36,435.95L174.32,434.74L175.38,432.3L174.6,431.75L174.09,429.55L172.99,427.94L170.13,428.39L166.23,425.51L163.57,425.38L162.5,427.63L161.19,427.94L158.37,426.8L156.85,425.33L154.84,427.8L153.79,427.54L152.06,430.19L149.07,431.69L147.16,433.67L144.7,434.96L141.75,433.1L139.29,436.59L139.08,438.19L140.09,440.83L139.59,442.97L137.13,442.64L134.54,444.4L133.95,446.59L132.55,444.86L131.1,445.43L130.77,447.29L129.53,447.47L127.75,449.35L124.62,450.53L122.95,448.76L122.29,450.66L120.5,449.72L119.56,450.07L121.38,452.05L124.89,451.54L128.01,452.47L127.31,453.52L128.83,456.52L128.38,457.78L126.97,458.2L126.87,459.91L122.29,463.31L120.94,465.23L118.98,466.31L116.71,466.24L114.02,463.93L114.59,460.86L114.52,457.01L113.44,454.88L115.24,452.69L113.98,450.01L113.74,447.17L117.7,444.09L116.26,442.32L112.78,442.37L112.84,441.16L110.22,440.3L108.63,439.03L107.03,442.07L106.26,440.09L103.95,438.92L101.91,440.39L102.08,442.06L98.46,442L96.61,445.04L96.48,443.89L93.57,444.03L91.77,442.12L90.37,442.39L89.71,439.94L91.3,438.64L90.79,436L90.93,433.75L90.39,430.66L87.97,428.99L87.67,426.23L85.96,426.32L85.18,425.01L84.09,421.34L82.95,419.23L82.71,417.33L81.52,416.77L81.96,415.62L84.27,414.03L84.13,411.57L84.87,410.12L84.63,408.13L85.08,405.56L84.38,404.52L85.63,402.15L83.58,399.82L80.13,398.64L78.4,396.84L78.25,395.6L74.81,392.96L72.66,393.6L70.46,395.36L67.82,396.07L66.19,397.52L64.08,398.27L61.56,397.25L61.91,394.63L64,391.91L63.59,387.78L65.17,385.93L64.79,383.45L62.53,380.89L64.15,377.61L62.22,376.62L60.7,371.26L56.78,369.47L60,366.13L59.51,364.99L53.41,364.74L53.82,364L51.78,363.94L51.35,362.74L50.36,364.33L47.94,362.08L48.2,359.69L46.32,358.12L46.19,355.58L43.94,353.67L43.7,352.15L41.26,350.48L41.68,348.55L40.22,347.79L39.94,345.64L41.25,345.13L43.28,341.42L44.82,341.01L43.79,338.44L44.46,337.53L43.24,336.47Z" stroke-miterlimit="10" stroke="#FFFFFF"/>
<path title="青州市" fill="#D3D3D3" id="path7" d="M188.26,221.31L187.88,227.52L189.77,228.31L189.78,229.41L192.28,229.51L193.27,230.12L196.39,230.26L196.81,228.27L197.9,228.29L199.45,229.64L199.68,232.4L200.78,235.09L201.57,235.76L203.42,239.97L201.93,239.93L200.09,243.25L202.62,245.99L201.1,246.96L201.02,249.27L201.86,250.57L201.61,255.45L202.31,257.64L196.9,257.84L196.17,259.83L196.4,261.13L198.66,261.83L197.62,262.82L198.01,263.88L200.47,264.17L197.74,271.21L196.87,275.04L192.93,275.3L192.89,274.11L190.56,274.31L188.92,273.75L187.68,274.43L186,277.17L182.32,276.86L178.27,274.67L175.4,270L174.45,267.47L172.27,263.78L167.88,261.18L165.23,258.3L164.22,258.54L161.75,262.06L160.7,262.48L157.17,262.1L152.75,259.65L149.87,259.77L144,259.11L141.98,259.74L142.52,265.31L140.76,268.08L139.43,269.4L138.44,271.96L139.26,276.08L139.98,277.29L142.85,275.45L144.32,275.56L144.6,278.53L142.76,278.89L141.18,282.17L138.6,282.29L136.79,281.61L132.24,283.79L128.58,284.23L126.29,286.18L124.42,290.7L123.58,291.34L117.54,291.34L114.95,292.67L112.81,292.77L105.18,295.97L101.02,297.31L97.25,300.21L94.46,300.98L89.07,297.26L88.6,298.38L86.43,300.23L85.56,301.93L84.91,304.85L86.09,307.37L83.7,308.75L82.72,310.93L79.06,312.53L78.78,313.4L75.02,316.6L70.94,318.14L69.56,320.39L65.24,322.49L61.58,323.49L60.81,324.22L59.37,327.9L55.3,325.36L53.96,325L52.01,327.16L50.52,328.09L50.83,329.37L49.98,333.83L47.46,334.27L41.76,336.31L41.9,337.57L37.53,338.74L36.63,336.4L37.63,332.86L37.85,330.21L39.16,329.4L39.02,327.44L37.46,322.45L39.35,320.47L38.27,318.41L39.1,317.65L38.2,316.28L35.78,314.98L34.12,312.23L33.11,307.9L33.51,306.16L34.79,305.16L32.42,302.87L32.19,300.31L33.39,299.25L31.96,296.62L32.52,294.34L35.1,293.14L35.78,292.17L35.4,289.16L33.63,289.36L30,287.58L26.78,286.82L26.44,284.86L24.37,281.17L23.46,281.33L23.08,277.76L23.4,275.03L24.9,273.9L23.75,272.87L22.27,272.92L22.07,271.79L23.3,268.94L26.05,266.85L28.38,263.95L29.43,261.98L32.1,260.64L33.71,258.56L31.87,255.54L32.3,254.03L31.21,252.41L29.91,252.98L29.11,251.81L30.93,250.32L31,249.09L32.24,249.37L34.05,248.09L34.47,245.25L35.41,245.03L35.63,242.35L36.41,243.45L38.37,243.79L38.71,241.98L37.3,241.62L36.88,240.39L34.02,240.81L34.22,235.98L35.2,235.32L37.72,231.11L42.85,232.38L42.21,230.85L40.79,229.87L37.57,229.74L40.52,225.43L40.6,224.04L38.55,223.52L38.87,222.45L37.61,222.07L39.59,218.87L41.27,219.34L42.11,218.42L45.65,216.85L46.96,217.51L48.62,219.88L52.51,221.37L54.07,221.31L54.74,220.03L54.2,217.21L52.25,216.87L50.87,212.23L53.39,208.77L56.9,208.45L58.22,209.47L58.91,208.51L59.33,203.92L58.02,202.26L58.79,199.53L61.74,200.08L64.96,198.76L65.08,200.6L66.01,202.09L69.16,202.92L71.68,202.54L74.64,203.08L75.04,201.82L76.18,202.08L78.15,201.13L79.03,199.51L83.05,196.8L84.63,196.54L86.24,194.43L88.46,194.52L88.54,193.6L90.22,194.13L91.98,192.88L95.71,192.51L97.11,190.1L101.4,187.45L101.8,185.24L101.08,183.76L102.02,180.49L100.43,176.62L104.83,176.95L104.9,172.43L105.97,169.36L107.21,169.09L107.18,170.55L108.3,170.59L107.98,173.51L111.93,172.7L111.96,171.61L114.18,171.23L113.89,168.38L109.37,167.93L111.01,164.6L111.85,164.79L112.98,162.07L114.73,161.18L114.81,153.03L112.36,151.33L114.44,147.98L116.81,148L118.95,143.98L119.03,142.33L117.61,141.37L119.16,139.52L117.84,139.54L118.21,137.5L114.84,136.7L110.23,136.23L112.88,131.74L115.9,131.9L121.07,133.84L120.9,136.58L122.3,137.06L126.39,136.74L127.36,136.21L128.12,138.32L131.35,139.42L133.41,139.58L134.82,138.66L136.46,138.82L136.23,136.75L137.2,135.59L138.3,135.72L138.74,133.91L142.2,134.26L142.96,135.89L144.06,136.08L143.53,139.59L145.01,145.71L147.59,145.58L147.52,151.51L148.62,151.6L150.13,149.76L152.79,149.6L156,150.22L156.7,153.01L158.79,153.57L159.27,156.93L160.89,157.59L160.5,159.21L161.51,161.52L160.37,166L161.79,168.97L161.3,171.31L160.82,176.68L159.95,180.44L158.35,181.03L159.31,182.47L159.36,185.95L160.35,188.18L163.22,188.31L164.26,189.28L163.15,190.02L163.82,190.94L163.84,194.17L168.62,194.19L169.21,194.68L168.41,199.71L167.62,201.49L171.8,201.78L172.56,200.69L173.35,202.78L175.98,204.3L178.2,203.83L178.69,205.23L177.07,206.95L178.99,207.58L179.53,209.66L182.25,209.49L185.33,210.02L183.75,214.02L183.93,215.47L185.33,215.55L185.96,217.02L186.18,220.66Z" stroke-miterlimit="10" stroke="#FFFFFF"/>
<path title="寿光市" fill="#D3D3D3" id="path9" d="M138.74,133.91L137.58,132.04L137.31,128.6L138.02,124.18L137.6,123.24L135.74,123.19L135.57,120.08L136.26,115.4L137.34,115.26L138.1,116.96L139.32,117.69L142.62,117.78L144.26,117.38L143.93,116.11L142.44,115.88L142.17,116.81L139.95,115.86L140.36,113.07L141.45,113.93L147.21,114.98L145.19,112.31L146.02,111.02L145.82,109.37L146.66,108.9L143.14,108.59L141.54,107.13L136.95,106.5L133.79,106.59L133.41,105.99L134.15,102.6L133.67,100.91L135.74,100.87L135.84,99.82L138.1,99.81L138.52,98.28L137.34,96.01L137.4,93.93L138.07,93.96L138.47,91.52L140.42,91.04L144.25,91.52L144.35,90.23L147.58,89.57L149.42,89.88L149.81,90.85L153.47,91.62L159.81,90.22L159.89,88.82L162.85,88.96L162.51,88.03L164.89,87.46L164.77,86.31L166.53,86.35L166.94,84.18L169.87,84.53L170.84,80.82L169.51,80.52L169.48,76.83L170.88,77.04L170.45,72.34L171.52,71.86L172.51,69.41L171.06,68.89L171.93,62.42L172.46,60.81L170.63,60.1L170.27,60.98L166.38,58.77L165.46,59.75L166.17,55.64L165.04,53.25L163.98,55.02L161.12,54.29L160.5,53.58L160.34,50.62L161.87,50.64L162.15,49.2L163.92,47.97L165.07,43.81L166.67,44.43L166.69,43.42L168.43,44.28L168.56,42.34L170.97,40.27L170.39,39.48L171.84,37.81L172.04,33.93L173.65,32.01L173.77,30.46L172.77,28.74L174.55,28.56L178.14,26.4L183.34,24.01L184.73,22.34L189,19.64L201.94,10.53L203.98,9.26L206.7,8.83L217.26,5.96L227.85,4.03L283.16,0L284.83,2.1L285.58,4.3L286.84,10.49L287.54,16.07L287.48,18.82L289.2,21.76L291.35,23.81L284.82,31.05L283.77,32.89L280.55,35.88L277.33,40.1L271.87,40.99L261.93,41.2L259.55,38.23L244.73,38.96L239.15,44.56L239.15,57.36L239.64,67.6L248.15,67.07L247.59,77.75L248.43,81.08L251.78,82.65L255.69,83.51L257.93,84.56L259.61,90.5L262.97,91.19L266.47,89.61L267.31,91.35L268.99,91.17L269.97,88.02L271.51,86.26L279.63,85.35L285.51,82.19L288.31,84.45L292.37,85.14L297.19,85.4L301.79,84.53L303.75,85.4L307.65,84.18L307.93,85.23L307.04,87.18L304.85,88.61L300.96,92.28L301.61,92.47L301.09,94.46L299.46,94.2L299.47,98.93L301.33,100.26L301.94,98.84L303.66,99.26L302.8,101.16L301.14,102.3L298.24,100.83L297.93,99.43L296.94,100.95L297.28,102.53L296.05,106.31L295,106.34L293.98,110.06L292.21,110.27L290.76,109.2L289.09,109.85L288.47,113.91L290.52,114.39L290.81,112.71L292.21,111.71L295.42,112.08L294.71,113.09L291.24,113.47L291.26,114.41L293.68,114.36L295.01,113.3L294.26,115.49L295.1,118.95L293.93,120.24L295.16,121.7L292.81,121.18L291.31,122.04L291.7,124.42L290.71,124.86L290.16,123.32L289.04,123.53L289.09,125.17L285.82,125.35L283.4,127.69L282.94,131.12L281.84,131.57L280.13,134.77L276.81,137.44L277.99,138.56L277.64,140.33L274.95,141.62L273.83,143.23L274.16,146.63L272.87,147.39L271.64,151.79L272.94,152.63L272.71,154.21L273.9,154.15L275.18,156.31L275.27,158.62L276.36,158.65L276,161.26L273.97,161.36L272.6,162.21L272.7,165.85L273.54,168.19L274.79,168.92L274.95,170.37L272.77,185.64L271.84,187.34L271.59,189.73L271.01,189.49L270.98,186.51L268.24,186.85L267.35,184.46L266.25,184.43L266.6,182.16L264.84,183.18L263.68,181.75L261.51,181.69L257.53,182.69L257.61,183.84L256.35,184.7L256.67,187.49L256.17,192.92L254.93,193.89L255.2,195.63L256.33,195.61L258.17,196.95L257.98,201.36L257.27,202.38L253.53,202.06L253.24,204.32L251.73,205.77L251.34,207.62L252.11,209.86L253.17,210.83L252.72,212.19L251.54,212.2L251.37,213.97L250.31,213.15L249.81,210.17L246.06,209.83L246.1,208.74L242.68,208.92L242.88,209.77L236.68,208.89L234.72,207.21L236.38,204.93L236.3,203.05L234.64,201.4L232.47,201.12L231.83,204.49L230.7,206.52L230.19,205.02L228.92,204.23L228.74,202.68L225.29,204.31L221.6,204.32L221.65,205.55L219.84,206.32L219.3,213.15L217.84,213.21L217.55,215.6L213.57,215.3L212.88,214.06L212.44,215.36L206.98,214.62L205.66,211.82L202,212.98L200.63,211.89L199.15,211.74L198.62,213.21L197.51,213.13L196.37,215.47L194.98,215.32L188.32,220.89L188.26,221.31L186.18,220.66L185.96,217.02L185.33,215.55L183.93,215.47L183.75,214.02L185.33,210.02L182.25,209.49L179.53,209.66L178.99,207.58L177.07,206.95L178.69,205.23L178.2,203.83L175.98,204.3L173.35,202.78L172.56,200.69L171.8,201.78L167.62,201.49L168.41,199.71L169.21,194.68L168.62,194.19L163.84,194.17L163.82,190.94L163.15,190.02L164.26,189.28L163.22,188.31L160.35,188.18L159.36,185.95L159.31,182.47L158.35,181.03L159.95,180.44L160.82,176.68L161.3,171.31L161.79,168.97L160.37,166L161.51,161.52L160.5,159.21L160.89,157.59L159.27,156.93L158.79,153.57L156.7,153.01L156,150.22L152.79,149.6L150.13,149.76L148.62,151.6L147.52,151.51L147.59,145.58L145.01,145.71L143.53,139.59L144.06,136.08L142.96,135.89L142.2,134.26Z" stroke-miterlimit="10" stroke="#FFFFFF"/>
<path title="潍城区" fill="#D3D3D3" id="path1" d="M290.99,270.78L289.25,271.59L288.97,267.83L282.64,267.81L282.55,268.47L280.03,268.23L279.1,268.81L279.39,270.48L277.05,270.67L276.38,268.36L274.86,268.32L274.76,265.35L275.35,265.34L275.44,262.47L271.69,261.9L269.25,261.93L267.92,264.93L265.18,266.04L261.76,264.07L260.27,265.01L259.33,263.32L260.42,261.7L259.59,260.64L255.2,260.28L253.46,258.11L253.89,256.91L255.44,256.46L255.93,253.42L253.7,252L254.32,249.53L255.41,248.67L256.01,245.15L254.73,243.41L258.05,239.05L259.58,235.82L258.16,232.82L258.56,229.22L258.4,226.49L256.35,225.22L256.98,221.52L254.97,220.59L255.02,216.8L255.63,214.78L258.24,214.32L259.84,214.82L260.97,211.97L262.38,210.28L260.44,210.3L260.58,209.05L259.23,208.39L259.23,205.82L255.36,205.78L255.3,204.92L253.24,204.32L253.53,202.06L257.27,202.38L257.98,201.36L258.17,196.95L256.33,195.61L255.2,195.63L254.93,193.89L256.17,192.92L256.67,187.49L256.35,184.7L257.61,183.84L257.53,182.69L261.51,181.69L263.68,181.75L261.98,182.56L262.98,183.63L262.53,187.13L264.93,188.34L267.3,188.56L268.52,189.94L270.27,189.4L270.54,193.77L273.78,196.81L274.2,199.36L277.09,200.69L280.67,200.22L281.96,199.42L286.77,200.01L289.46,199.65L290.35,200.11L292.14,197.63L292.96,197.61L295.65,199.34L297.11,198.3L298.88,199.56L301.37,199.24L302.09,198.09L303.96,198.34L303.65,200.86L306.6,201.34L304.6,209.11L304.12,210.71L304.66,214.01L304.69,218.19L305.48,219.73L305.3,221.8L304.33,224.63L305.37,227.93L301.93,232L301.99,234.95L305.29,239.13L304.58,241.26L301.91,241.79L300.95,243.47L302.68,247.07L303.05,248.77L301.13,251.52L302.35,256.85L301.7,259.34L300.15,260.25L298.3,264.74L297.21,266.15L294.08,267.87L292.97,269.62Z" stroke-miterlimit="10" stroke="#FFFFFF"/>
<path title="诸城市" fill="#D3D3D3" id="path8" d="M407.23,385.24L407.82,386.1L412.16,386.74L412.32,388.62L414.18,389.01L410.5,400.04L409.3,401.53L406.83,406.26L405.16,412.37L404.95,414.14L406.09,416.47L417.07,417.41L420.04,419.67L426.5,419.96L428.64,420.36L429.97,421.86L432.28,426.97L434.71,430.97L436.38,434.85L438.6,435.2L438.57,433.36L441.86,430.57L442.71,431.38L444.77,430.09L444.53,428.41L445.87,427.02L444.65,422.16L445.42,420.78L444.89,419.43L445.74,418.83L446.43,419.96L449.01,419.67L452.06,420.25L454.36,420.13L455.11,420.77L456.25,424.08L459.14,424.75L460.22,426.55L460.88,430.97L463.18,435.03L465.75,436.67L467.69,436.21L469.06,437.3L467.61,440.32L467.99,442.8L466.42,442.6L465.72,444.05L468.51,448.12L468.84,450.35L469.94,450.99L469.75,453.9L465.55,456.14L463.26,456.55L462.23,457.39L462.89,460.94L462.09,461.42L462.67,466.3L466.55,466.07L467.03,466.95L470.48,467.14L470.51,467.93L472.68,468.07L472.38,469.99L474.49,469.73L474.29,468.53L475.39,467.66L477.9,470.21L481.44,471.79L483.99,470.96L486.16,471.69L485.68,473.12L487.97,475.09L485.33,478.61L484.7,481.05L481.7,481.96L481.57,483.72L478.71,484.95L477.02,487.11L477.56,489.7L478.32,489.37L479.46,491.53L478.54,492.42L478.93,495.12L478.16,498.1L479.77,505.18L481.98,509.28L483.28,512.36L482.19,513.63L483.73,515.59L483.15,520.11L485.38,520.36L485.96,518.66L487.62,520.17L488.71,522.42L488.38,524.33L490.14,527.74L491.13,528.01L493.12,531.71L492.57,532.46L493.3,534.38L493.3,536.36L494.25,539L493.28,543.24L492.23,542.15L491.59,543.16L489.46,541.97L488.97,543.05L490.45,544.11L490.37,545.11L488.29,546.45L487.09,546.25L486.38,544.66L483.95,542.41L480.9,542.31L478.81,543.22L478.7,544.65L477.12,546.99L475.38,548.31L475.49,550.42L471.95,550.98L469.37,549.51L467.57,549.41L463.15,553.02L461.39,553.63L462.45,555.78L461.3,556.21L459.34,560.25L457.51,561.85L456.22,561.65L455.23,566.54L457.96,570.14L456.02,574.98L452.52,575.12L451.37,576.04L450.08,583.69L452.75,584.55L454.18,585.86L457.21,590.9L460.37,593.77L460.92,595.3L459.98,598.75L459.08,599.14L456.8,597.32L452.88,600L452.12,598.56L449.12,597.67L448.59,598.62L445.55,598.91L444.15,597.83L442.38,598.1L442.26,597.01L440.58,595.42L436.46,594.49L435.9,593.56L433.23,595.15L430.54,594.88L429.97,592.13L431.57,591.92L429.64,590.94L426.48,588.09L425.3,585.52L423.51,584.03L419.88,584.15L418.68,583.19L417.81,579.21L418.21,576.83L421.25,574.01L421.44,573.08L420.24,570.05L416.95,566.37L411.6,563.05L408.89,562.89L405.44,564.77L400.42,565.49L396.89,567.12L393.61,569.26L391.35,571.17L389.15,574.2L384.74,577.18L382.61,577.14L382.15,574.82L383.09,571.16L383.72,566.13L383.64,562.62L384.2,560.24L383.59,557.48L383.68,555.08L379.43,549.44L379.79,548.51L381.79,547.27L383.4,543.71L383.1,541.99L380.36,535.34L375.57,531.29L372.38,531.34L371.37,532.52L366.65,533.61L363.93,533.22L361.24,531.57L361.26,527.24L360.12,524.73L358.42,524.35L356.35,525.16L352.37,527.91L348.03,531.75L345.01,533.39L343.8,534.84L336.74,536.61L330.38,537.24L328.73,536.64L322.24,530.9L319.6,531.57L319.63,534.08L318.95,535.51L316.08,533.51L312.1,531.59L312.21,530.12L314.85,527.31L317,526.92L322.4,522.54L326.08,522.48L326.57,521.96L325.34,519.17L325.99,512.56L326.31,505.72L326.1,503.57L325.1,502.43L321.09,503.02L318,504.4L317.44,502.38L311.74,503.36L307.93,505.54L301.07,505.75L297.98,505.38L294.93,506.83L291.24,505.08L289.4,499.77L286.83,498.99L279.53,500.37L277.48,500.05L275.83,493.14L278.65,490.28L278.28,487.42L275.36,486.6L275.19,485.44L276.43,482.64L278.14,481.69L281.87,483.11L282.17,482.34L285.6,482.34L286.06,479.04L286.85,477.47L284.85,477.17L282.97,474.85L283.87,473.37L283.98,470.86L284.97,470.42L286.12,466.7L290.31,463.56L291.35,463.67L291.34,461.09L290.48,460.89L290.06,459.02L292.24,457.14L292.61,455.66L291.93,454.22L292.02,452.33L292.98,450.72L294.2,450.76L296.73,452.48L298.54,455.44L301.02,455.86L304.09,453.74L303.97,448.88L307.23,443.6L306.59,440.94L308.63,439.2L312.14,439.66L313.85,438.05L315.08,435.06L320.5,428.44L323.14,427.66L325.15,426.21L325.15,421.56L327.42,419.99L331.9,418.1L333.44,418.35L337.27,417.81L344.43,414.95L348.97,416.12L356.08,418.39L359.16,417.68L362.99,415.77L367.6,411.54L369.99,410.15L374.02,409.61L378.9,409.91L381.89,408L388.96,400.33L394.16,395.93L397.15,394.8L402.61,393.24L403.97,392.38L405.27,388.37Z" stroke-miterlimit="10" stroke="#FFFFFF"/>
</svg>