<svg xmlns="http://www.w3.org/2000/svg" xmlns:xlink="http://www.w3.org/1999/xlink" width="600" height="600">
<path title="福山区" fill="#D3D3D3" id="path2" d="M424.57,231.68L424.37,233.91L423.03,234.82L422.3,236.3L422.04,241.9L421.72,242.66L419.37,244.58L419.14,245.55L419.76,246.31L421.31,246.73L422.16,248.5L420.71,250.63L420.91,252.65L420.22,253.94L420.42,257.27L422.58,257.45L422.71,259.06L423.96,260.28L422.08,260.83L423.32,263.38L424.78,263.44L425.81,265.56L425.63,269.89L429.21,271.11L430.15,272.5L430.01,275.45L431.26,277.28L431.96,277.58L436.31,277.4L438.2,278.75L438.5,279.84L437.94,280.82L434.76,283.81L433.95,286.3L433.85,289.13L432.28,292.13L430.39,296.23L430.39,297.66L432.08,300.12L431.92,302.34L430.95,303.51L428.02,304.49L431.41,307.97L432.81,310.14L432.98,312.31L432.48,314.58L431.12,317.71L429.52,320.19L428.24,321.27L426.8,321.85L426.14,323.91L423.8,326.06L422.31,326.27L421.16,326.99L419.95,328.68L416.91,328.5L416.36,329.57L415.57,329.3L414.96,327.21L414.31,327.09L413.36,325.64L413.07,323.79L411.78,323.38L412.24,321.9L414.98,319.79L416.33,319.37L415.87,317.4L414.79,315.92L415.98,314.56L416.28,312.75L415.11,311.89L412.66,307.1L411.7,306.57L407.7,306.08L407.1,303.65L406.19,302.44L406.4,301.01L403.5,296.9L401.21,295.37L399.22,292.78L396.31,291.77L390.29,294.06L388.65,295.48L386.76,298.9L384.91,300.81L382.84,304.54L381.34,304.87L378.52,302.77L378.7,300.29L380.95,298.75L382.44,294L383.05,293.46L384.4,286.59L387.23,285.38L386.77,283.16L386.81,281.72L384.81,280.25L384.13,277.63L381.23,275.79L381.34,273.27L377.78,273.55L372.57,279.29L371.85,280.76L370.24,281.16L369.32,278.73L367.86,276.92L368.36,274.79L367.52,274.18L366.7,272.21L364.62,271.73L363.64,271.14L361.85,270.87L360.75,272.19L358.37,272.88L356.04,273.14L352.56,274.77L351.62,276.2L351.06,277.87L350.54,281.33L348.13,283.8L345.38,285.01L344.59,284.74L345.69,282.59L345.84,280.8L345.51,278.08L344.88,275.5L343.67,274.2L342.28,274.33L340.84,275.52L339.64,278.69L337.8,278.06L337.36,275.76L335.28,274.88L332.85,273.12L327.43,271.69L324.52,271.77L324.46,268.14L323.82,266.98L322.1,267.23L321.9,266.23L322.64,265.22L321.64,264.67L321.72,262.63L323.02,261.47L323.17,259.69L324.08,259.75L325.83,256.85L326.03,257.8L328.34,256.89L327.87,255.69L325.95,254.47L325.84,253.2L324.9,252.38L323.79,252.2L323.96,251.55L322.62,250.32L323.78,248.93L324.37,249.03L324.35,246.86L325.61,246.63L326.13,244.42L325.47,242.6L327.14,241.49L329.22,242.65L330.03,242.26L330.15,243.3L331.62,247.85L332.21,246.18L334.1,245.98L336.13,247.9L339.75,248.18L342.82,247.91L346.6,244.45L349.22,244.06L354.28,244.17L355.78,247.73L355.95,249.04L359.2,249.36L360.25,253.51L361.98,254.33L365.23,254.34L366.39,253.69L367.27,251.36L366.83,251.06L365.1,247.78L364.98,245.22L365.91,244.2L367.75,243.54L369.24,242.18L370.36,239.94L370.98,237.91L371.73,232.98L372.9,230.28L375.3,227.66L376.88,225.45L375.67,225.4L375.29,224.45L377.41,222.4L377.02,221.53L377.37,219.99L375.67,219.74L374.08,218.73L373.21,218.83L371.15,217.69L369.86,218.67L369.37,217.77L369.93,217.02L367.06,214.45L367.01,213.73L365.9,213.32L366.02,212.02L363.82,211.28L363.6,209.72L361,209.15L360.62,207.45L359.95,206.94L360.34,205.61L359.87,203.78L359.73,201.09L360.76,201.06L362.73,199.96L360.78,197.93L362.84,195.56L364.43,193.09L366.77,194.11L368.88,194.29L370.98,193.9L371.83,191.64L372.46,191.67L373.42,193.72L375.91,192.76L378.07,192.34L384.24,192.07L387.77,192.24L389.69,193.2L391.31,195.06L392.16,196.8L392.27,199L391.29,201.31L389.16,204.69L388.56,206.83L388.41,209.64L390.37,210.04L391.5,210.74L392.3,212.17L392.64,213.85L392.13,215.65L390.06,218.74L389.93,221.3L390.85,222.96L394.44,226.72L397.28,228.5L405.07,231.73L412.6,232.21L419.44,231.78L423.04,231.9Z" stroke-miterlimit="10" stroke="#FFFFFF"/>
<path title="海阳市" fill="#D3D3D3" id="path11" d="M391.3,350.13L392.12,352.01L392.88,351.96L393.59,355.21L394.17,355.36L395.62,358.42L394.51,359.79L394.5,361.52L393.92,365.07L393.99,366.07L395.44,369.49L396.71,370.54L396.85,372.72L399.26,374.94L399.5,380.51L398.5,383.55L398.62,386.7L400.06,387.44L399.97,389.61L397.63,390.07L397,390.55L396.18,394.01L396.33,395.53L397.25,396.57L399.04,396.01L400.54,396.9L403.2,399.13L404.54,399.22L406.28,398.78L406.79,399.49L407.06,403.13L408.42,405.67L408.71,407.07L412,407.97L412.41,408.89L412.42,411.02L412.9,412.33L415.27,415.67L417.27,415.27L418.73,417.43L419.6,417.78L424.4,417.85L424.7,419.91L425.34,421.51L426.36,421.81L434.08,417.21L435.65,416.67L437.06,416.96L438.32,421.95L437.93,423.67L439.68,424.89L439.98,426.25L441.08,427.18L442.51,429.27L442.13,429.95L440.61,429.63L437.71,430.85L436.27,432.98L436.99,434.25L436.24,436.22L436.76,438.8L437.24,439.32L439.85,439.51L440.29,439.93L440.56,442.35L442.12,444.32L443.49,447.71L445.05,449.74L444.84,452.39L445.4,452.91L447.79,453.55L449.63,452.83L451.55,453.22L453.32,453.16L456.95,453.58L459.68,455.02L461.91,458.04L463.2,458.94L459.3,461.27L458.96,462.99L457.88,464.07L448.58,465.26L446.75,465.98L444.44,468.07L443.73,469.23L443.62,470.65L444.29,471.28L446.73,471.28L447.9,472.52L448.07,474.55L446.99,477.4L444.51,478.91L441.77,479.31L440.12,478.7L438.08,475.45L436.36,475L432.88,475.96L427.56,478.05L424.14,478.31L423.18,477.99L420.24,478.68L417.88,480.68L415.47,483.63L412.74,486.6L411.49,487.4L409.93,487.44L405.85,486.62L404.67,487.01L403.42,488.26L402.33,490.14L401.2,491.26L400.04,491.62L396.01,491.2L394.39,491.36L392.57,492.17L389.15,495.22L382,500.35L373.96,504.31L370.64,506.93L368.99,508.46L366.67,512.1L364.7,513.5L363.04,513.87L360.16,513.45L348.75,513.29L346.69,513.07L340.7,509.26L339.76,507.28L340.08,502.59L339.04,501.56L335.58,499.9L333.99,499.81L333.18,500.26L331.96,499.94L330.29,498.91L325.15,489.71L320.98,482.96L321,481.21L321.74,480.45L325.12,480.1L325.95,477.91L325.53,476L328.1,470.59L328.24,465.18L327.43,463.83L327.43,462.65L331.98,451.38L332.63,448.86L333.66,447.04L336.86,446.73L338,445.94L338.2,444.77L337.13,442.72L336.33,440.35L336.26,438.8L335.62,438.11L333.58,437.71L333.52,436.04L335.08,433.92L335.9,432.29L337.87,430.54L340.27,429.63L342.04,431.03L343.48,427.92L345.15,425.97L344.72,424.33L343.29,422.02L343.04,421.03L344.67,418.97L346.29,418.49L348.13,418.61L348.82,417.6L347.33,415.47L347.71,412.77L348.77,411.37L347.72,409.81L347.17,408.15L345.69,406.15L346.22,404.44L348.15,403.33L348.27,402.3L347.25,398.38L347.27,397.3L348.79,395.77L350.6,392.84L352.52,390.7L354.67,389.35L352.93,387.02L354.81,383.94L353.53,384.02L352.89,382.48L350.56,383.42L350.03,382.57L347.3,382.88L346.17,381.75L345.47,382.35L344.27,382.08L343.11,380.54L342.67,377.87L339.37,372.33L337.15,372.33L335.94,371.21L338.46,368.33L340.62,366.63L344.48,365.62L346.28,364.25L347.72,362.26L347.28,356.57L347.74,354.12L351.28,353.49L353.74,353.96L357.32,356.27L358.32,357.83L360.37,357.51L361.37,358.44L362.77,357.71L363.71,355.49L364.24,353.28L365.78,352.86L366.04,354.7L365.35,356.06L365.95,357.59L368.04,359.09L369.91,358.48L371.04,357.27L370.71,356.25L373.95,353.96L373.29,353.16L373.02,349.87L377.07,347.49L377.1,346.75L378.16,346.06L379.13,346.2L380.87,347.88L382.48,347.94L384.89,349.69L386.38,350.33L389.35,350.01ZM443.25,598.87L443.23,597.4L443.86,597.34L445.02,599.48L444.1,600Z" stroke-miterlimit="10" stroke="#FFFFFF"/>
<path title="莱山区" fill="#D3D3D3" id="path4" d="M438.2,278.75L439.28,276.98L441.96,276.53L442.64,276.05L442.77,273.57L443.25,271.36L445.14,270.04L445.19,268.94L444.01,267.71L442.81,267.21L442.53,265.88L442.99,262.54L444.19,260.42L445.27,256.64L444.33,254.79L444.94,253.91L447.22,254.5L449.52,257.81L449.66,259.34L450.85,259.55L451.36,258.81L453.13,259.64L454,258.97L455.32,259.56L454.81,258.02L454.93,255.33L452.98,254.46L452.7,253.61L451.68,253.85L448.78,252.77L448.39,251.99L448.68,249.3L449.61,247.18L452.35,247.8L453.03,248.81L453.37,247.87L457.64,247.22L458.62,247.7L459.14,249.42L458.64,251.37L458.4,254.27L459.25,256.75L463.02,261.77L464.92,262.39L468.26,264.44L471.39,265.73L474.31,265.38L475.21,265.56L476.36,268.72L477.91,269.11L478.78,270.21L482.63,271.75L481.81,276.33L481.79,278.02L478.93,280.39L477.26,283.48L469.53,290.62L466.85,295.99L465.22,298.24L462.21,301.35L461.65,303.23L461.71,305.58L460.17,307.89L459.38,307.96L460.27,309.39L459.07,310.64L457.4,310.79L455.52,311.6L453.94,310.97L452.37,310.94L451.19,312.23L451.08,313.41L451.66,314.6L451.5,316.05L452.02,317.53L450.81,318.97L449.93,321.23L448.84,322.1L447.28,324.19L445.59,324.46L443.27,325.93L440.59,326.21L441.03,323.68L438.74,322.59L435.83,322.6L433.04,321.96L431.75,321.06L431.23,320.1L431.12,317.71L432.48,314.58L432.98,312.31L432.81,310.14L431.41,307.97L428.02,304.49L430.95,303.51L431.92,302.34L432.08,300.12L430.39,297.66L430.39,296.23L432.28,292.13L433.85,289.13L433.95,286.3L434.76,283.81L437.94,280.82L438.5,279.84Z" stroke-miterlimit="10" stroke="#FFFFFF"/>
<path title="莱阳市" fill="#D3D3D3" id="path7" d="M250.71,354.93L250.86,354.03L253.46,352.28L254.96,351.69L259.36,351.22L260.55,350.72L261.46,350L264.87,349.87L267.1,350.91L268.59,352.08L270.41,356.02L272.45,356.46L273.62,356L275.02,353.63L277.7,353.8L279.48,352.47L280.39,352.81L280.78,354.12L282.66,354.69L285.35,353.61L286.45,352.06L289.29,350.24L291.59,350.43L294.56,351.54L295.71,352.34L297.84,352.84L300.13,355.94L301.42,356.12L303.99,355.49L306.13,355.71L308.06,354.41L309.1,354.31L311.73,356.07L313.92,356.82L315.7,356.07L317.63,356.26L318.26,357.25L317.81,359.03L316.42,360.09L316.55,361.16L317.77,362.2L317.44,365.53L319.05,366.49L321.27,366.53L323.54,367.4L325.39,367.36L326.32,367.78L327.58,367.52L328.56,365.47L329.48,364.88L332.84,364.96L332.94,366.24L334.26,366.8L335.35,370.32L335.94,371.21L337.15,372.33L339.37,372.33L342.67,377.87L343.11,380.54L344.27,382.08L345.47,382.35L346.17,381.75L347.3,382.88L350.03,382.57L350.56,383.42L352.89,382.48L353.53,384.02L354.81,383.94L352.93,387.02L354.67,389.35L352.52,390.7L350.6,392.84L348.79,395.77L347.27,397.3L347.25,398.38L348.27,402.3L348.15,403.33L346.22,404.44L345.69,406.15L347.17,408.15L347.72,409.81L348.77,411.37L347.71,412.77L347.33,415.47L348.82,417.6L348.13,418.61L346.29,418.49L344.67,418.97L343.04,421.03L343.29,422.02L344.72,424.33L345.15,425.97L343.48,427.92L342.04,431.03L340.27,429.63L337.87,430.54L335.9,432.29L335.08,433.92L333.52,436.04L333.58,437.71L335.62,438.11L336.26,438.8L336.33,440.35L337.13,442.72L338.2,444.77L338,445.94L336.86,446.73L333.66,447.04L332.63,448.86L331.98,451.38L327.43,462.65L327.43,463.83L328.24,465.18L328.1,470.59L325.53,476L325.95,477.91L325.12,480.1L321.74,480.45L321,481.21L320.98,482.96L325.15,489.71L330.29,498.91L322.5,501.26L323.17,503.02L308.93,509.3L307.48,508.77L307.61,507.9L306.88,506.28L304.31,504.48L302.53,504.73L301.19,502.25L299.02,501.87L298.26,501.31L297.17,502.07L296.83,500.22L295.44,499.64L293.56,500.25L291.55,500.49L291.57,502.84L289.5,504.58L290.37,506.88L288,506.91L287.98,507.6L286.71,508.12L285.36,509.45L283.37,509.4L282.97,510.21L281.98,509.91L281.78,510.87L279.41,512.29L278.29,512.25L275.83,513.59L275.07,509.82L275.35,507.31L276.09,506.61L276.41,503.62L277.09,502.7L277.38,499.06L278.27,498.57L280.22,499.03L280.66,498.12L280.42,495.24L280.92,493.1L279.54,491.74L279.16,492.33L278.33,490.91L279.04,488.84L277.78,488.86L276.79,488.07L275.75,488.92L274.5,489L273.51,489.8L273.01,486.63L274.27,486.32L273.34,484.63L271.69,483.78L271.09,481.49L269.63,480.93L267.23,480.93L265.13,480.16L264.32,478.96L266.01,477.72L266.64,476.4L266.21,473.86L265.53,473.92L265.06,471.87L264.13,470.71L263.86,468.84L262.9,468.16L261.64,468.88L259.07,468.49L258.58,466.82L257.58,467.06L256.4,465.83L255.47,466.24L254.97,464.9L255.05,461.36L254.22,459.75L255.58,459.15L255.92,457.55L257.47,456.74L258.31,455.25L258.29,454.17L259.55,451.17L259.27,449.99L263.57,449.83L265.34,450.42L267.76,449.42L268.63,447.99L268.53,446.04L269.02,445.71L269.41,443.85L270.14,442.81L269.6,441.65L268.05,441.27L266.51,440.21L265.12,440.01L264.63,438.66L266.51,436.14L264.97,434.36L262.92,434.4L262.32,433.35L262.74,431.96L262.18,429.99L262.2,428.56L264.32,427.81L265.83,427.93L267.56,427.06L269.45,427.49L269.34,426.77L271.57,426.15L272.5,425.5L272.29,422.73L272.49,420.9L271.83,419.28L271.29,419.85L267.5,420.02L267.37,419.45L265.83,419.54L265.03,417.63L264.31,417.88L262.59,415.56L261.84,415.41L261.12,412.28L261.69,410.82L260.97,409.38L259.89,409.38L259.2,408.53L258.56,406.04L259.96,404.66L260.4,399.72L261.62,398.52L262.04,395.32L263.48,394.55L264.24,395.56L265.09,395.53L265.27,396.7L266.04,397.5L267.56,397.24L268.06,395.05L268.85,394.72L268.69,391.98L267.8,391.51L268.77,389.89L269.97,389.57L270.51,388.39L269.45,384.98L268.29,384.85L268.53,383.88L269.54,383.95L268.79,381.89L267.57,382.13L264.4,381.5L263.94,378.81L263.08,378.62L262.48,380.88L260.91,382.1L258.27,381.81L256.21,383.53L254.42,382.73L254.54,381.93L253.44,381.67L252.53,379.99L252.67,378.95L254,378.2L254.22,376.9L253.75,374.73L254.45,374.51L254.37,373.23L253.23,372.16L253.5,369.84L254.22,367.79L253.78,365.96L255.3,365.89L255.74,363.48L254.61,359.1L254.73,358.05L253.66,358.28L251.36,356.85L251.17,355Z" stroke-miterlimit="10" stroke="#FFFFFF"/>
<path title="莱州市" fill="#D3D3D3" id="path8" d="M167.26,259.16L167.44,266.01L167.79,267.57L169.07,267.51L169.75,268.65L168.99,270.91L170.79,270.9L172.3,271.68L173.34,274.26L170.1,272.98L168.32,273.14L166.7,276.95L167.89,279.05L166.7,285.28L167.03,289.73L169.33,294.77L170.84,296.74L173.64,297.63L175.97,295.77L178.8,294.99L180.33,296L181.84,298.04L182.51,302.12L183.28,304.65L185.78,308.25L186.79,310.38L187.71,313.22L189.56,315.63L191.23,315.67L192.77,314.43L194.18,316.8L195.18,321.36L196.1,323.05L200.74,323.37L201.65,326.09L201.31,330.47L199.28,335.97L197.27,340.31L196.08,341.98L195.21,343.89L193.82,345.44L192.07,346.11L189.83,346.04L188.71,346.8L188.8,348.53L190.37,352.81L190.99,356.55L191.93,357.73L191.59,361.06L192.2,361.73L190.88,362.38L189.23,361.44L188.42,361.84L187.22,360.23L186.4,359.86L185.45,362.12L185.79,363.34L185.2,365.36L185.56,367.64L184.5,368.64L184.89,370.05L182.8,370.73L182.07,372.49L182.25,373.63L181.37,375.61L182.12,377.49L181.96,379.14L180.82,379.57L180.77,381.68L179.42,384.33L176.76,385.49L175.92,384.42L174.53,385.79L172.21,385.45L171.89,387.45L170.74,387.86L171.04,389.93L169.31,391.33L168.57,390.97L165.37,390.79L165.23,389.02L164.43,388.86L161.08,390.46L159.82,390.15L158.65,390.77L155.76,391.03L153.05,389.81L150.72,389.76L150.23,390.34L148.72,389.78L144.64,389.46L143.48,392.24L143.7,393.12L142.66,393.45L141.78,395.21L140.77,395.69L140.61,394.73L139.02,395.08L137.97,393.47L136.23,393.25L134.74,392.28L134.15,391.29L132.19,391.65L130.26,390.05L129.23,390L128.2,391.95L126.33,391.07L124.52,391.4L123.17,392.43L122.39,392.02L122.43,393.33L120.17,393.91L119.52,394.88L116.56,396.75L111.86,396.51L111.36,395.73L108.57,395.35L108.15,394.88L106.48,395.19L100.53,394.48L99.02,394.9L95.65,394.48L93.56,395.16L93.56,394.37L91.62,393.14L91.59,392L90.16,391.2L88.35,391.17L88.34,391.84L86.44,392.54L82.79,393.1L82.35,396L80.78,396.99L78.04,397.62L77.91,397.13L75.6,397.3L73.7,398.27L71.73,396.89L71.48,395.08L70.55,393.06L68.14,394.07L65.15,394.81L64.27,395.65L62.68,395.48L62.79,394.37L61.43,394.32L58.41,392.75L57.52,393.01L56.92,392.17L55.58,391.66L53.58,391.97L53.36,391.06L51.01,390.53L50.25,391.38L48.86,391.46L48.73,390.07L47.22,390.48L46.64,391.18L47.41,385.53L45.81,383.78L41.97,382.04L38.75,379.91L36.3,378.71L35.15,376.48L35.46,375L38.11,372.35L39.15,370.62L37.49,367.08L39.23,359.42L51.03,355.34L61.97,350.91L63.7,351.43L63.88,354.84L72.31,354.94L75.74,357.68L76.75,357.26L78.8,353.85L82.61,350.21L84.7,346.08L86.94,343.34L89.88,341.18L90.81,340.15L93.1,335.12L93.99,333.53L95.77,331.95L97.98,331.19L103.57,329.64L106.24,327.83L108.22,324.51L102.21,324.11L102.03,323.17L102.65,321.63L108.67,321.55L109.6,321.26L110.41,318L109.38,317.16L107.39,316.48L108.8,312.91L108.84,310.49L107.65,308.09L105.7,307.46L104.52,305.25L100.89,303.78L99.78,300.68L97.58,299.06L97.3,298.11L98.24,295.92L98.58,293.94L97.92,291.21L98.86,289.62L110.98,287.93L113.66,287.14L117.4,286.82L118.71,286.3L119.68,284.96L120.6,281.34L121.12,280.14L120.4,279.38L122.47,277.47L124.99,277.26L130.59,275.88L131.94,275.07L133.98,272.89L136.47,271.05L145.77,269.79L148.13,269.31L150.11,268.02L151.6,265.83L152.88,264.77L157.9,263.29L165.83,260.09ZM93.83,308.59L92.99,308.24L93.26,306.5L94.44,306.31L94.83,306.89Z" stroke-miterlimit="10" stroke="#FFFFFF"/>
<path title="龙口市" fill="#D3D3D3" id="path6" d="M263.76,181.31L265.22,185.44L266.86,188.65L268.2,192.27L269.35,194.59L269.45,198.08L268.62,203.41L267.93,204.68L273.94,205.47L277.96,205.84L280.92,205.69L283.14,206.03L284.28,208.3L284.39,210.61L285.8,214.18L284.37,215.14L283.21,217.78L284.4,218.48L286.55,218.87L286.65,219.95L290.26,220.84L293.35,222.54L298.64,225.12L300.18,226.53L301.12,228.61L299.87,232.02L300.19,236.13L299.26,238.24L297.17,240.46L295.75,242.98L294.62,250.25L294.58,253.47L295.07,255.63L297.48,259L297.48,259.76L296.32,259.69L295.08,260.59L294.4,263.78L292.75,265.6L290.91,266.2L289.38,265.25L287.75,263.47L285.82,260.86L281.62,256.57L279.13,255.79L277.3,256.46L275.61,257.65L274.4,259.12L272.66,260.3L271.11,262.76L270.08,264.17L268.36,264.44L265.13,264.08L263.02,262.9L261.43,260.66L256.97,258.43L255.42,259.47L252.78,261.91L248.32,264.69L244.56,265L242.53,262.84L242.01,260.1L243.3,255.27L243.24,252.77L242.22,251.59L239.64,249.97L237.55,249.17L235.11,249.03L233.3,248.6L230.22,247.4L228.03,247.32L227.43,248.06L223.58,249.41L221.87,248.86L220.24,247.01L218.56,245.75L215.98,244.34L212.26,244.54L207.48,244.35L204.88,245.07L201.8,246.66L199.3,247.27L198.41,246.18L197.67,246.67L198.09,248.02L196.93,248.46L194.67,247.56L191.6,243.99L189.76,241.11L189.58,240.2L190.4,238.86L188.95,237.9L180.37,228.38L182.15,225.82L181.04,224.04L180.49,222.18L181.59,220.93L189.07,220.17L192.88,218.77L194.35,216.52L194.63,212.57L193.68,210.43L191.76,210.1L188.19,210.65L185.56,209.41L182.77,206.61L181.84,204.65L181.84,202.51L182.98,200.94L184.3,200.54L188.98,200.34L194.15,200.61L203.63,200.58L209.79,200.64L214.42,199.74L215.74,199.3L219.79,196.56L227.36,190.48L231.26,187.06L232.81,185.05L233.5,183.33L234.99,182.56L238.87,182.5L241.18,183.23L249.23,184.47L249.98,183.23L251.41,182.63L262.94,181.58ZM234.55,179.32L233.73,178.36L232.63,178.72L230.81,175.57L230.75,174.32L232.78,173.87L233.22,174.3L235.06,173.79L236.93,174.48L235.92,177.05L235.12,177.26Z" stroke-miterlimit="10" stroke="#FFFFFF"/>
<path title="牟平区" fill="#D3D3D3" id="path3" d="M399.26,374.94L396.85,372.72L396.71,370.54L395.44,369.49L393.99,366.07L393.92,365.07L394.5,361.52L394.51,359.79L395.62,358.42L394.17,355.36L393.59,355.21L392.88,351.96L392.12,352.01L391.3,350.13L392.61,349.1L395.82,347.62L397.32,347.5L399.85,345.7L399.18,341.16L400.09,340.13L402.28,340.41L404.13,339.53L404.11,337.7L403.01,334.19L404.1,329L408.62,323.46L409.72,324.62L410.16,323.84L411.78,323.38L413.07,323.79L413.36,325.64L414.31,327.09L414.96,327.21L415.57,329.3L416.36,329.57L416.91,328.5L419.95,328.68L421.16,326.99L422.31,326.27L423.8,326.06L426.14,323.91L426.8,321.85L428.24,321.27L429.52,320.19L431.12,317.71L431.23,320.1L431.75,321.06L433.04,321.96L435.83,322.6L438.74,322.59L441.03,323.68L440.59,326.21L443.27,325.93L445.59,324.46L447.28,324.19L448.84,322.1L449.93,321.23L450.81,318.97L452.02,317.53L451.5,316.05L451.66,314.6L451.08,313.41L451.19,312.23L452.37,310.94L453.94,310.97L455.52,311.6L457.4,310.79L459.07,310.64L460.27,309.39L459.38,307.96L460.17,307.89L461.71,305.58L461.65,303.23L462.21,301.35L465.22,298.24L466.85,295.99L469.53,290.62L477.26,283.48L478.93,280.39L481.79,278.02L481.81,276.33L482.63,271.75L484.02,271.46L484.69,267.02L485.02,266.14L487.36,264.2L490.17,263.46L492.78,261.12L494.58,260.08L497.83,256.93L498.95,256.5L502.37,256.96L503.78,258.61L504.17,261.28L505.01,262.47L508.7,262.91L519.09,263.74L523.33,264.16L528.95,264.43L543.62,263.03L550.02,263.48L554.48,263.44L562.58,262.58L563.8,266.01L563.82,267.74L564.81,268.35L564.85,269.66L564.02,269.82L563.02,271.37L561.79,274.7L561.42,277.27L560.49,279.91L559.12,282.83L557.33,285.56L553.33,288.23L551.77,289.85L550.62,291.82L550.19,297.28L549.5,300.84L548.19,302.94L544.48,304.79L542.54,306L541,307.67L539.91,310.03L538.35,311.02L535.04,310.6L533.8,310.09L532.86,311.27L533.27,314.36L532.17,317.79L532.38,318.54L531.54,319.99L531.45,321.34L530.12,322.21L529.35,325.64L525.41,325.8L523.38,327.51L523.03,328.77L523.47,332.64L524.55,332.68L525.05,333.41L524.81,335.78L526.39,334.11L526.95,334.26L527.08,335.73L526.15,337.1L526.17,338.03L527.16,337.24L527.84,338L528.04,340.16L526.65,340.71L527.53,341.42L525.97,341.33L525.75,342.37L526.19,345.07L525.1,344.83L524.44,345.4L524.06,343.92L523.56,343.98L523.65,345.74L524.67,346.84L526.26,345.31L527.25,345.39L526.97,346.41L527.78,347.27L526.77,347.79L527.3,348.69L526.38,350.43L525.64,349.61L525.4,350.84L524.46,351.65L525.26,352.15L523.7,355.13L524.34,356.21L523.27,357.12L521.05,357L521.38,358.58L520.23,359.96L516.9,360.29L512.5,359.87L512.38,358.26L511.48,356.76L511.32,355.59L510.28,354.46L509.55,354.41L508.96,355.4L510.19,357.75L508.7,358.37L509.02,360.69L507.75,361.07L506.46,363.57L505.78,364.15L505.23,361.3L503.98,361.53L502.47,361L501.75,359.99L500.36,359.49L500.77,358.44L499.24,358.2L499.01,356.07L496.79,356.51L497.08,356.91L496.03,358.19L495.09,358.27L493.07,359.9L491.76,358.31L490.48,355.64L491.06,354.94L489.17,355.09L488.29,354.75L488.03,356.78L487.09,358.09L488.2,359.15L487.94,362.45L486.65,363.37L485.97,365.24L484.77,364.3L482.9,364.57L480.64,365.42L478.73,365.73L472.89,366.08L467.94,365.88L462.77,362.92L460.35,361.28L456.37,360.6L455.06,361.23L452.91,364.49L451.88,366.9L449.79,366.67L448.9,367.33L447.96,365.8L447.14,367.01L444.8,368L443.85,367.6L441.92,363.73L440.6,362.67L439.03,364.07L437.94,363.37L435.54,360.94L434.95,359.58L435.41,359.03L436.48,359.88L437.67,358.94L437.46,357.57L436.44,355.86L434.24,357.06L433.72,358.43L432.64,359.57L430.44,358.6L429.48,359.37L428.42,357.84L427.49,357.95L426.6,355.63L424.93,355.38L421.95,356.28L420.77,357.03L414.9,362.09L411.51,366.38L410.8,369.32L409.34,370.26L407.2,370.62L402.14,373Z" stroke-miterlimit="10" stroke="#FFFFFF"/>
<path title="蓬莱区" fill="#D3D3D3" id="path5" d="M297.48,259.76L297.48,259L295.07,255.63L294.58,253.47L294.62,250.25L295.75,242.98L297.17,240.46L299.26,238.24L300.19,236.13L299.87,232.02L301.12,228.61L300.18,226.53L298.64,225.12L293.35,222.54L290.26,220.84L286.65,219.95L286.55,218.87L284.4,218.48L283.21,217.78L284.37,215.14L285.8,214.18L284.39,210.61L284.28,208.3L283.14,206.03L280.92,205.69L277.96,205.84L273.94,205.47L267.93,204.68L268.62,203.41L269.45,198.08L269.35,194.59L268.2,192.27L266.86,188.65L265.22,185.44L263.76,181.31L266.38,179.69L272.24,173.12L275.04,171.56L276.55,171.75L278.25,172.71L280.13,172.49L296.86,161.19L299.33,161.2L300.41,159.94L301.79,159.95L303.66,162.09L307.22,161.75L308.96,161.93L311.39,162.72L314.65,164.3L316.92,164.67L319.36,164.43L321.52,163.06L324.46,161.8L326.51,161.23L332.15,161.23L333.28,161.64L334.4,163.85L337.64,163.75L339.12,164.92L342.27,164.22L343.34,165.05L344.63,166.75L345.27,168.53L344.93,170.92L343.56,172.12L343.72,173.97L344.48,175.33L346.1,177.06L351.16,181.15L353.06,181.93L355.64,182.09L358.09,184.15L360.18,186.97L360.55,189L361.65,190.76L364.43,193.09L362.84,195.56L360.78,197.93L362.73,199.96L360.76,201.06L359.73,201.09L359.87,203.78L360.34,205.61L359.95,206.94L360.62,207.45L361,209.15L363.6,209.72L363.82,211.28L366.02,212.02L365.9,213.32L367.01,213.73L367.06,214.45L369.93,217.02L369.37,217.77L369.86,218.67L371.15,217.69L373.21,218.83L374.08,218.73L375.67,219.74L377.37,219.99L377.02,221.53L377.41,222.4L375.29,224.45L375.67,225.4L376.88,225.45L375.3,227.66L372.9,230.28L371.73,232.98L370.98,237.91L370.36,239.94L369.24,242.18L367.75,243.54L365.91,244.2L364.98,245.22L365.1,247.78L366.83,251.06L367.27,251.36L366.39,253.69L365.23,254.34L361.98,254.33L360.25,253.51L359.2,249.36L355.95,249.04L355.78,247.73L354.28,244.17L349.22,244.06L346.6,244.45L342.82,247.91L339.75,248.18L336.13,247.9L334.1,245.98L332.21,246.18L331.62,247.85L330.15,243.3L330.03,242.26L329.22,242.65L327.14,241.49L325.47,242.6L326.13,244.42L325.61,246.63L324.35,246.86L324.37,249.03L323.78,248.93L322.62,250.32L323.96,251.55L323.79,252.2L324.9,252.38L325.84,253.2L325.95,254.47L327.87,255.69L328.34,256.89L326.03,257.8L325.83,256.85L324.08,259.75L323.17,259.69L323.02,261.47L321.72,262.63L321.64,264.67L322.64,265.22L321.9,266.23L322.1,267.23L323.82,266.98L324.46,268.14L324.52,271.77L324.75,272.55L323.39,272.61L322.88,271.05L321.62,271.21L321.24,270.52L319.45,270.42L318.06,271.77L316.72,271.81L315.59,270.9L314.89,271.75L313.27,271.4L313.65,272.7L312.15,272.25L310.9,274.54L309.64,274.64L308.37,275.86L301.74,278.04L298.61,278.57L296.5,275.91L296.74,274.29L299.05,266.07L299.66,262.82ZM302.97,138.53L304.18,143.38L303.2,144.97L302.83,144.03L301.53,143.75L298.84,139.82L295.88,139.63L294.51,138.64L294.53,137.44L296.79,136.38L296.69,135.45L295.28,135.55L295.44,134.22L296.56,134.5L296.23,133.47L294.51,133.45L294.64,129.44L296.94,128.69L297.16,127.4L298.11,126.71L300.05,127.76L300.39,129.59L301.94,131.57L302.65,133.97L304.28,135.82ZM288.02,118.6L287.43,118.4L286.48,116.48L288.51,116.37L289.07,115.41L291.64,116.66L291.75,117.3L293.29,117.62L293.99,116.94L295.22,117.59L296.28,119.5L296.58,121.34L297.87,122.19L296.96,124.92L296.1,125.3L294.13,124.02L291.15,123.42L288.88,121.37L289.1,119.73ZM279.22,119.68L279.83,120.98L280.48,120.97L279.44,124.22L278.51,124.55L277.26,124L278.02,122.7L278.44,120.21ZM285.87,134.3L285.17,133.66L283.8,134.06L283.96,132.61L285.11,131.8L284.92,129.68L286.83,128.61L287.4,127.13L288.11,129.04L287.81,131.32L287,133.45ZM301,71.46L298.65,69.14L298.22,68.23L298.2,64.55L299.19,57.66L300.32,56.58L301.67,58.7L303.17,64L303.66,64.44L305.84,64.66L307.03,65.15L308.68,67.19L309.17,69.09L308.66,69.41L305.64,69.68L303.19,68.88L301.65,69.21L301.5,71.13ZM338.49,16.16L336.66,15.66L335.75,14.83L333.24,11.01L333.32,9.6L334.31,8.54L336.97,7.89L337.62,8.1L337.42,10.63L338.6,10.72L338.92,11.97L337.84,12.25L337.45,13.44L338.73,14.87ZM321.22,18.84L320.92,18.03L321.67,16.38L321.07,15.74L321.67,14.45L321.55,13.09L322.41,13.18L323.48,15.29L324.68,16.7L323,18.3ZM335.04,5.74L334.08,5.23L334.12,3.52L334.89,2.68L336.33,2.35L337.8,0L338.93,0.14L341.44,3.04L341.81,4.86L341.41,5.59L339.24,4.74L337.93,5.58L336.62,5.14ZM273.33,129.37L270.89,128.33L268.51,126.27L267.52,124.46L267.03,122.33L267.87,120.12L270.57,118.41L274.23,119.13L274.65,119.99L274.3,123.33L274.67,125.04L274.32,127.6ZM312.5,33.51L311.34,32.31L311.57,31.02L312.7,29.5L313.9,25.59L315.69,23.84L319.86,23.27L322.5,24.64L323.11,26.03L322.73,27.35L321.6,28.81L319.82,29.56L317.33,29.56L316.25,30.34L315.47,32.18L314.44,33.02ZM344.06,108.4L341.92,106.94L341.45,105.88L341.42,103.48L342.72,104.51L344.96,104.86L345.69,107.13L345.4,107.92ZM284.85,118.71L285.53,119.06L284.98,120.72ZM274.39,131.79L273,131.45L272.99,130.14L274.63,130.49ZM277.62,76.65L276.41,76.27L275.84,74.62L276.54,72.07L277.96,71.67L279.38,73.95L278.97,75.63ZM329.42,106.39L329.77,107.72L329.11,108.88L328.24,107.9L328.2,106.23ZM283.8,130.34L283.3,129.74L284.07,128.62L284.39,129.79ZM277.53,98.46L276.62,96.7L277.4,94.31L278.5,93.83L279.02,94.47L279.17,97.33L278.72,98.42Z" stroke-miterlimit="10" stroke="#FFFFFF"/>
<path title="栖霞市" fill="#D3D3D3" id="path10" d="M324.52,271.77L327.43,271.69L332.85,273.12L335.28,274.88L337.36,275.76L337.8,278.06L339.64,278.69L340.84,275.52L342.28,274.33L343.67,274.2L344.88,275.5L345.51,278.08L345.84,280.8L345.69,282.59L344.59,284.74L345.38,285.01L348.13,283.8L350.54,281.33L351.06,277.87L351.62,276.2L352.56,274.77L356.04,273.14L358.37,272.88L360.75,272.19L361.85,270.87L363.64,271.14L364.62,271.73L366.7,272.21L367.52,274.18L368.36,274.79L367.86,276.92L369.32,278.73L370.24,281.16L371.85,280.76L372.57,279.29L377.78,273.55L381.34,273.27L381.23,275.79L384.13,277.63L384.81,280.25L386.81,281.72L386.77,283.16L387.23,285.38L384.4,286.59L383.05,293.46L382.44,294L380.95,298.75L378.7,300.29L378.52,302.77L381.34,304.87L382.84,304.54L384.91,300.81L386.76,298.9L388.65,295.48L390.29,294.06L396.31,291.77L399.22,292.78L401.21,295.37L403.5,296.9L406.4,301.01L406.19,302.44L407.1,303.65L407.7,306.08L411.7,306.57L412.66,307.1L415.11,311.89L416.28,312.75L415.98,314.56L414.79,315.92L415.87,317.4L416.33,319.37L414.98,319.79L412.24,321.9L411.78,323.38L410.16,323.84L409.72,324.62L408.62,323.46L404.1,329L403.01,334.19L404.11,337.7L404.13,339.53L402.28,340.41L400.09,340.13L399.18,341.16L399.85,345.7L397.32,347.5L395.82,347.62L392.61,349.1L391.3,350.13L389.35,350.01L386.38,350.33L384.89,349.69L382.48,347.94L380.87,347.88L379.13,346.2L378.16,346.06L377.1,346.75L377.07,347.49L373.02,349.87L373.29,353.16L373.95,353.96L370.71,356.25L371.04,357.27L369.91,358.48L368.04,359.09L365.95,357.59L365.35,356.06L366.04,354.7L365.78,352.86L364.24,353.28L363.71,355.49L362.77,357.71L361.37,358.44L360.37,357.51L358.32,357.83L357.32,356.27L353.74,353.96L351.28,353.49L347.74,354.12L347.28,356.57L347.72,362.26L346.28,364.25L344.48,365.62L340.62,366.63L338.46,368.33L335.94,371.21L335.35,370.32L334.26,366.8L332.94,366.24L332.84,364.96L329.48,364.88L328.56,365.47L327.58,367.52L326.32,367.78L325.39,367.36L323.54,367.4L321.27,366.53L319.05,366.49L317.44,365.53L317.77,362.2L316.55,361.16L316.42,360.09L317.81,359.03L318.26,357.25L317.63,356.26L315.7,356.07L313.92,356.82L311.73,356.07L309.1,354.31L308.06,354.41L306.13,355.71L303.99,355.49L301.42,356.12L300.13,355.94L297.84,352.84L295.71,352.34L294.56,351.54L291.59,350.43L289.29,350.24L286.45,352.06L285.35,353.61L282.66,354.69L280.78,354.12L280.39,352.81L279.48,352.47L277.7,353.8L275.02,353.63L273.62,356L272.45,356.46L270.41,356.02L268.59,352.08L267.1,350.91L264.87,349.87L261.46,350L260.55,350.72L259.95,347.15L259.81,343.23L259.43,342.04L258.66,341.84L258.51,340.75L256.69,340.04L257.08,338.51L258.09,338.59L258.57,335.95L259.48,336.1L259.71,334.59L260.99,334.75L264.08,328.22L264.23,325.37L263.26,321L263.67,316.43L264.77,314L266.44,311.47L267.47,308.92L267.7,305.88L265.23,301.19L264.09,297.58L263.68,294.45L264.29,292.62L265.87,289.59L267.54,287L268.44,284.38L269.97,280.94L272.27,281.28L272.8,279.98L272.26,276.23L271.36,276.21L270.7,275.07L268.75,273.33L271.81,272.72L273.18,272.79L275.05,271.77L274.86,269.49L274.09,268.26L275.48,267.85L275.61,265.26L274.13,265.06L271.11,262.76L272.66,260.3L274.4,259.12L275.61,257.65L277.3,256.46L279.13,255.79L281.62,256.57L285.82,260.86L287.75,263.47L289.38,265.25L290.91,266.2L292.75,265.6L294.4,263.78L295.08,260.59L296.32,259.69L297.48,259.76L299.66,262.82L299.05,266.07L296.74,274.29L296.5,275.91L298.61,278.57L301.74,278.04L308.37,275.86L309.64,274.64L310.9,274.54L312.15,272.25L313.65,272.7L313.27,271.4L314.89,271.75L315.59,270.9L316.72,271.81L318.06,271.77L319.45,270.42L321.24,270.52L321.62,271.21L322.88,271.05L323.39,272.61L324.75,272.55Z" stroke-miterlimit="10" stroke="#FFFFFF"/>
<path title="招远市" fill="#D3D3D3" id="path9" d="M180.37,228.38L188.95,237.9L190.4,238.86L189.58,240.2L189.76,241.11L191.6,243.99L194.67,247.56L196.93,248.46L198.09,248.02L197.67,246.67L198.41,246.18L199.3,247.27L201.8,246.66L204.88,245.07L207.48,244.35L212.26,244.54L215.98,244.34L218.56,245.75L220.24,247.01L221.87,248.86L223.58,249.41L227.43,248.06L228.03,247.32L230.22,247.4L233.3,248.6L235.11,249.03L237.55,249.17L239.64,249.97L242.22,251.59L243.24,252.77L243.3,255.27L242.01,260.1L242.53,262.84L244.56,265L248.32,264.69L252.78,261.91L255.42,259.47L256.97,258.43L261.43,260.66L263.02,262.9L265.13,264.08L268.36,264.44L270.08,264.17L271.11,262.76L274.13,265.06L275.61,265.26L275.48,267.85L274.09,268.26L274.86,269.49L275.05,271.77L273.18,272.79L271.81,272.72L268.75,273.33L270.7,275.07L271.36,276.21L272.26,276.23L272.8,279.98L272.27,281.28L269.97,280.94L268.44,284.38L267.54,287L265.87,289.59L264.29,292.62L263.68,294.45L264.09,297.58L265.23,301.19L267.7,305.88L267.47,308.92L266.44,311.47L264.77,314L263.67,316.43L263.26,321L264.23,325.37L264.08,328.22L260.99,334.75L259.71,334.59L259.48,336.1L258.57,335.95L258.09,338.59L257.08,338.51L256.69,340.04L258.51,340.75L258.66,341.84L259.43,342.04L259.81,343.23L259.95,347.15L260.55,350.72L259.36,351.22L254.96,351.69L253.46,352.28L250.86,354.03L250.71,354.93L249.58,354.8L249.52,353.63L246.64,353.46L246.39,354.95L243.74,357.47L243.57,359.64L241.88,360.51L240.36,360.35L238.58,361.29L236.86,362.89L234.89,361.79L233.35,361.81L232.6,360.53L231.8,360.79L231.63,362.39L229.94,362.47L228.26,363.61L226.87,363.08L226.2,364.16L224.34,363.7L225.7,366.24L224.81,368.47L222.4,368.12L220.19,365.94L219.4,366.29L217.9,365.64L216.06,365.82L214.41,366.99L213.39,370.39L213.43,371.49L212.12,371.76L212.26,372.87L211.37,373.52L210.51,371.13L210.72,370.53L208.48,369.11L208.76,365.93L207.71,366.34L208.38,365.26L207.59,363.77L205.13,365.29L203.95,363.48L203.21,363.67L201.59,363.04L201.53,364.83L200.97,364.25L200.92,362.04L200.57,361.24L201.15,359.99L200.94,358.01L200.19,358.79L198.07,358.44L197.03,359.88L196.44,358.41L195.14,359.35L194.18,360.64L194.17,361.45L192.52,363.01L190.88,362.38L192.2,361.73L191.59,361.06L191.93,357.73L190.99,356.55L190.37,352.81L188.8,348.53L188.71,346.8L189.83,346.04L192.07,346.11L193.82,345.44L195.21,343.89L196.08,341.98L197.27,340.31L199.28,335.97L201.31,330.47L201.65,326.09L200.74,323.37L196.1,323.05L195.18,321.36L194.18,316.8L192.77,314.43L191.23,315.67L189.56,315.63L187.71,313.22L186.79,310.38L185.78,308.25L183.28,304.65L182.51,302.12L181.84,298.04L180.33,296L178.8,294.99L175.97,295.77L173.64,297.63L170.84,296.74L169.33,294.77L167.03,289.73L166.7,285.28L167.89,279.05L166.7,276.95L168.32,273.14L170.1,272.98L173.34,274.26L172.3,271.68L170.79,270.9L168.99,270.91L169.75,268.65L169.07,267.51L167.79,267.57L167.44,266.01L167.26,259.16L168.74,257.68L177.01,251.36L178.12,248.09L183.21,245.77L186.26,241.48L188.66,239.1L180.06,230.08Z" stroke-miterlimit="10" stroke="#FFFFFF"/>
<path title="芝罘区" fill="#D3D3D3" id="path1" d="M457.64,247.22L453.37,247.87L453.03,248.81L452.35,247.8L449.61,247.18L448.68,249.3L448.39,251.99L448.78,252.77L451.68,253.85L452.7,253.61L452.98,254.46L454.93,255.33L454.81,258.02L455.32,259.56L454,258.97L453.13,259.64L451.36,258.81L450.85,259.55L449.66,259.34L449.52,257.81L447.22,254.5L444.94,253.91L444.33,254.79L445.27,256.64L444.19,260.42L442.99,262.54L442.53,265.88L442.81,267.21L444.01,267.71L445.19,268.94L445.14,270.04L443.25,271.36L442.77,273.57L442.64,276.05L441.96,276.53L439.28,276.98L438.2,278.75L436.31,277.4L431.96,277.58L431.26,277.28L430.01,275.45L430.15,272.5L429.21,271.11L425.63,269.89L425.81,265.56L424.78,263.44L423.32,263.38L422.08,260.83L423.96,260.28L422.71,259.06L422.58,257.45L420.42,257.27L420.22,253.94L420.91,252.65L420.71,250.63L422.16,248.5L421.31,246.73L419.76,246.31L419.14,245.55L419.37,244.58L421.72,242.66L422.04,241.9L422.3,236.3L423.03,234.82L424.37,233.91L424.57,231.68L433.07,228.75L435.69,227.97L437.21,226.65L437.36,224.49L436.47,222.26L435.19,220.66L433.34,219.08L433.13,217.88L434.46,216.98L437.27,217.26L440.16,218.8L442.67,219.07L445.75,221.43L448.25,224.22L450.92,224.92L453.95,226.67L454.6,227.95L453.64,228.96L451.8,229.49L448.22,229.35L443.49,227.72L442.62,229.34L444.86,229.74L445.09,232.02L445.6,233.36L445.99,236.35L446.01,238.76L446.94,239.46L448.54,241.61L451.07,243.01L453.9,243.42ZM469.99,240.25L469.65,239.02L470.64,238.83L471.35,237.62L470.52,237.25L472.59,236.7L473.99,237.35L473.72,238.41L472.55,238.15L471.02,239.06ZM471.55,234.65L473,234.94L473.89,234.41L474.22,235.33L472.71,235.68L472.48,234.67ZM468.16,236.81L469.17,236.69L469.11,237.86L467.71,237.82L467.2,237ZM462.32,232.35L463.41,232.2L464.33,233.12ZM463.8,234.94L462.95,233.8L464.68,235.18Z" stroke-miterlimit="10" stroke="#FFFFFF"/>
</svg>