<svg xmlns="http://www.w3.org/2000/svg" xmlns:xlink="http://www.w3.org/1999/xlink" width="600" height="600">
<path title="茌平区" fill="#D3D3D3" id="path2" d="M493.62,180.67L494.3,184.69L493.85,187.44L491.86,190.62L491.08,192.82L491.15,197.31L491.55,198.97L493.11,200.86L493.45,203.08L493.19,204.17L492.71,211.42L491.91,217.14L489.54,221.58L488.91,224.34L488.76,227.42L488.49,236.92L488.47,240L489.1,244.28L488.04,245.85L485.9,247.87L484.55,251.1L478.41,260.27L473.01,263.49L470.01,266.76L470,271.05L470.63,274.11L470.93,277.51L468.15,280.33L464.18,283.95L460.83,285.91L458,286.75L455.82,287.14L452.44,288L449.86,290.05L445.73,295.55L441.88,299.27L438.21,301.46L436.63,303.8L435.95,307.11L432.85,309.94L429.91,308.55L428.93,305.22L426.96,304.71L426.96,302.56L427.37,301.67L427.21,300.3L427.82,298.84L425.37,297.96L425.9,295.94L424.42,295.29L424.74,294.05L424.33,292.92L425.35,293.36L423.43,291.63L422.53,291.43L421.64,292.89L422.57,293.14L422.32,294.2L421.26,293.85L420.67,295.97L419.07,295.29L418.65,296.62L417.34,296.32L417.39,295.51L416.66,294.95L417.25,293.07L417.28,290.68L417.91,288.55L417.59,286.41L416.54,285.79L414.75,285.43L413.65,284.25L412.61,281.87L410.66,281.74L411.56,280.32L414.21,277.03L415.07,276.94L415.75,275.38L417.02,274.79L417.5,273.73L420.36,270.18L420.42,269.51L418.12,268.5L418.2,265.03L418.75,264.53L422.24,263.62L422.7,261.57L423.46,260.14L425.22,258.99L425.11,256.66L425.58,255.1L424.91,253.91L423.93,254.84L422,254.88L420.97,253.48L419.99,253.99L418.41,253.95L414.89,252.67L412.46,252.5L410.23,251.76L409.7,250.68L406.63,246.17L403.94,247.14L403.32,248.34L401.88,252.95L398.08,251.25L397.66,252.19L396.96,251.86L396.5,252.73L395.22,252.57L394.27,253.77L391.22,251.32L389.82,252.22L388.86,253.28L386.19,253.21L385.89,254.01L384.37,254.67L384.11,256.21L382.55,255.92L381.88,256.44L380.11,255.99L379.89,257.19L379.29,257.73L374.82,256.93L374.29,256.48L374.99,254.19L375.93,254.32L376.13,252.85L375.32,252.84L375.53,251.64L372.5,250.68L371.54,251.25L371.78,250.08L370.11,249.95L370.02,250.74L368.04,251.57L368.21,249.58L370.02,245L372.52,245.18L372.77,242.67L374.41,240.41L373.77,239.7L374.24,238.93L373.66,238.68L373.72,237.52L374.53,237.56L375.28,233.49L374.84,232.72L371.22,232.36L370.95,235.06L367.94,237.36L365.51,237.16L364.52,236.85L363.47,234.99L363.66,234.25L362.5,234.27L362.24,235.02L361.18,234.96L361.17,234.04L359.28,233.67L359.43,232.36L358.62,232.39L358.42,233.77L357.34,233.73L356.8,235.84L355.02,235.64L354.47,236.59L354.51,235L352.85,235.13L352.92,233.42L350.16,232.48L350.26,231.09L348.89,231.15L346.19,231.84L344.28,232.11L340.66,235.11L338.59,238.03L337.01,238.29L335.46,238.17L335.35,238.88L333.65,237.72L331.67,237.79L331.67,239.22L329.83,240.29L323.03,240.19L322.85,240.88L321.97,240.76L320.97,239.64L320.54,237.75L318.56,237.55L318.55,236.46L316.69,236.64L316.72,234.79L317.7,232.62L317.23,230.02L317.5,228.45L317.11,227.88L316,227.85L315.55,227.25L316.24,225.88L315.77,224.42L314.86,223.91L313.05,223.93L311.47,222.96L310.39,223.6L309.47,223.48L309.39,221.26L308.09,219.75L305.87,220.12L304.51,219.13L301.03,218.47L297.71,217.36L297.14,216.6L297.14,214.87L296.21,213.78L296.69,212.59L297.9,212.27L298.73,211.36L298.11,209.82L299.31,208.6L300.34,208.85L301.89,206.61L302.96,206.52L303.78,205.74L303.56,204.55L302.48,203.99L300.51,202.31L299.38,200.94L297.9,201.06L297.42,200.25L297.67,199.33L298.7,198.62L298.35,196.33L299.65,194.29L299.05,192.63L300.51,191.01L301.13,188.5L301.13,182.79L300.24,178.21L299.06,178.04L298.56,176.97L299.84,174.4L302.91,172.11L303.53,172.6L305.51,171.22L307.11,169.79L309.4,169.53L309.66,171.13L312.79,172.21L312.71,174.32L313.67,174.48L314.32,170L316.53,169.99L319.95,169.35L322.75,168.14L324.58,167.92L326.57,163.95L327.13,160.42L327.03,156.79L327.6,152.71L328.37,149.84L330.61,146.25L330.21,143.66L331,141.5L332.18,141.3L332.61,140.19L332.31,139.53L332.57,137.33L333.53,136.09L333.76,134.23L334.57,133.94L334.58,131.01L336.56,131.18L336.76,129.75L337.99,129.24L338.83,127.75L341.32,128.05L342.28,128.45L346.05,128.1L349.18,128.32L348.76,130.58L349.53,130.82L349.17,132.27L350.64,132.38L350.42,134.65L349.59,134.62L351.44,137.37L353.3,139.03L356.49,139.36L359.9,140.36L362.08,143.56L363.4,146.43L364.37,149.52L365.56,152.71L368.74,155.92L373.22,158.03L376.3,157.82L380.03,156.52L386.18,153.46L391.79,149.97L394.65,147.57L397.28,146.15L403.38,151.48L406.55,153.27L409.39,153.73L414.77,152.12L417.73,150.93L419.93,150.39L426.37,153.63L429.11,154.86L432.82,156.87L434.01,159.96L434.33,162.16L435.74,163.93L438.27,164.39L438.99,161.79L441.67,159.04L448.89,156.1L449.28,159.37L451.79,162.47L453.74,166.44L459.31,171.2L462.47,175.18L465.1,177.51L468.82,180.39L471.55,182.27L474.62,183.6L480.87,184.18L484.5,183.77L488.35,182.8Z" stroke-miterlimit="10" stroke="#FFFFFF"/>
<path title="东阿县" fill="#D3D3D3" id="path5" d="M489.1,244.28L493.78,247.19L493.36,248.54L494.85,248.44L497.82,251.91L499.61,253.29L499.36,253.97L500.42,254.4L499.98,255.22L500.9,255.36L500.64,256.26L505.38,257.02L505.19,257.77L506.19,257.78L506.01,258.73L506.75,258.94L506.51,261.51L507.79,261.99L507.5,263.09L509.89,264.48L509.42,266.53L510.81,265.54L511.59,265.75L511.67,270.06L510.22,274.44L510.64,277.52L512.47,280.17L517.27,280.44L520.24,280.94L523.21,278.02L524.91,279.86L527.14,280.09L530.1,281.1L529.56,282.85L530.32,282.85L530.31,283.95L532.26,284.36L531.33,287.97L531.89,289.74L534,291.02L534.38,290.61L536.35,292.35L536.49,292.85L537.77,292.45L541.29,290.08L542.59,290.43L542.61,290.9L541.14,295.29L542.13,295.42L542.42,296.7L543.5,296.2L545.15,294.71L545.86,294.88L546.41,295.81L545.18,298.34L545.12,299.85L543.78,300.96L539.87,307.42L539.28,309.27L538.35,310.21L536.55,311.25L535.03,311.7L530.8,316.55L528.74,318.5L527.29,321.14L526.26,323.91L525.76,325.96L523.87,327.93L523.11,329.24L521.82,333.48L521.37,334.31L519.45,335.03L515.15,333.8L511.51,333.53L509.14,333.59L507.67,334.2L506.31,336.15L505.2,338.84L504.7,341.58L503.13,343.07L500.56,343.37L495.29,342.83L491.34,342.89L488.58,344.06L484.83,346.16L478.93,350.13L474.67,351.39L470,353.05L462.24,356.46L458.92,359.33L455.99,363.39L454.36,366.09L452.95,371.38L450.35,374.94L447.28,377.93L444.9,381.08L443.91,383.6L443.9,386.67L442.54,389.33L438.97,392.95L435.54,395.36L432.87,398.03L429.98,401.9L428.6,403.35L427.5,405.42L425.08,408.91L422.23,412.06L418.65,413.91L416.67,414.21L407,413.92L403.96,413.46L399.86,413.51L397.9,414.68L398.14,418.66L398.64,422.67L397.87,425.56L393.89,427.06L390.09,427.47L385.91,428.64L382.27,430.18L380.24,431.79L379.6,432.78L379.09,434.75L375.78,433.44L369.62,431.81L366.24,430.58L363.85,428.73L362.82,424.37L360.62,417.62L359.77,412.04L358.7,408.1L356.63,403.73L355.78,400.88L356,398.36L357.55,395.73L360.29,392.57L362.7,389.18L364.68,386.01L365.79,383.49L367.11,379.67L367.42,377.41L366.59,375.68L366.64,372.88L365.45,371.91L365.46,368.09L365.25,367.22L364.43,367.1L364.32,365.31L364.69,364.97L362.84,357.53L363.53,357.2L363.7,355.02L364.24,354.29L371.09,354.69L372.85,354.44L373.48,351.16L374.47,349.28L376.01,349.5L377.57,349.13L377.53,350.52L379.41,351.91L380.86,352.65L383.41,355.64L384.87,357.09L385.61,358.46L388.84,359.42L391.76,358.87L400.49,356.19L404.09,354.3L405.72,352.99L405.53,351.32L405.84,348.92L404.29,346.13L403.2,345.24L403.18,344.25L405.55,341.33L406.98,340.58L408.85,338.31L409.6,336.75L409.79,335.55L407.58,327.91L408.06,327.06L410.26,326.53L410.96,325.67L411.98,323.12L413.83,319.14L413.31,317.95L412.29,316.77L411.43,316.43L410.29,313.83L412.08,312.67L414.05,312.24L417.43,309.92L420.26,310.67L421.6,310L425.24,311.44L427.31,311.39L429.91,308.55L432.85,309.94L435.95,307.11L436.63,303.8L438.21,301.46L441.88,299.27L445.73,295.55L449.86,290.05L452.44,288L455.82,287.14L458,286.75L460.83,285.91L464.18,283.95L468.15,280.33L470.93,277.51L470.63,274.11L470,271.05L470.01,266.76L473.01,263.49L478.41,260.27L484.55,251.1L485.9,247.87L488.04,245.85Z" stroke-miterlimit="10" stroke="#FFFFFF"/>
<path title="东昌府区" fill="#D3D3D3" id="path1" d="M233.85,158.84L236.04,158.93L237.11,157.32L237.44,153.93L242.26,153.95L246.61,153.76L247.87,154.72L247.73,158.11L248.9,159.8L251.02,161.53L254.28,163.38L257.6,163.81L265.48,163.28L268.98,163.18L272.48,163.97L273.52,165.3L275.11,166.66L274.71,169.23L275.53,169.26L275.52,170.2L277.18,170.25L277.27,170.77L278.4,170.8L278.65,168.78L282,166.2L284.04,165.57L283.99,164.09L286.43,164.21L288.39,166.95L288.03,168.45L289.38,168.35L290.21,171.19L292.06,174.16L297.57,174.98L299.84,174.4L298.56,176.97L299.06,178.04L300.24,178.21L301.13,182.79L301.13,188.5L300.51,191.01L299.05,192.63L299.65,194.29L298.35,196.33L298.7,198.62L297.67,199.33L297.42,200.25L297.9,201.06L299.38,200.94L300.51,202.31L302.48,203.99L303.56,204.55L303.78,205.74L302.96,206.52L301.89,206.61L300.34,208.85L299.31,208.6L298.11,209.82L298.73,211.36L297.9,212.27L296.69,212.59L296.21,213.78L297.14,214.87L297.14,216.6L297.71,217.36L301.03,218.47L304.51,219.13L305.87,220.12L308.09,219.75L309.39,221.26L309.47,223.48L310.39,223.6L311.47,222.96L313.05,223.93L314.86,223.91L315.77,224.42L316.24,225.88L315.55,227.25L316,227.85L317.11,227.88L317.5,228.45L317.23,230.02L317.7,232.62L316.72,234.79L316.69,236.64L318.55,236.46L318.56,237.55L320.54,237.75L320.97,239.64L321.97,240.76L322.85,240.88L323.03,240.19L329.83,240.29L331.67,239.22L331.67,237.79L333.65,237.72L335.35,238.88L335.46,238.17L337.01,238.29L338.59,238.03L340.66,235.11L344.28,232.11L346.19,231.84L348.89,231.15L350.26,231.09L350.16,232.48L352.92,233.42L352.85,235.13L354.51,235L354.47,236.59L355.02,235.64L356.8,235.84L357.34,233.73L358.42,233.77L358.62,232.39L359.43,232.36L359.28,233.67L361.17,234.04L361.18,234.96L362.24,235.02L362.5,234.27L363.66,234.25L363.47,234.99L364.52,236.85L365.51,237.16L367.94,237.36L370.95,235.06L371.22,232.36L374.84,232.72L375.28,233.49L374.53,237.56L373.72,237.52L373.66,238.68L374.24,238.93L373.77,239.7L374.41,240.41L372.77,242.67L372.52,245.18L370.02,245L368.21,249.58L368.04,251.57L370.02,250.74L370.11,249.95L371.78,250.08L371.54,251.25L372.5,250.68L375.53,251.64L375.32,252.84L376.13,252.85L375.93,254.32L374.99,254.19L374.29,256.48L374.82,256.93L379.29,257.73L379.89,257.19L380.11,255.99L381.88,256.44L382.55,255.92L384.11,256.21L384.37,254.67L385.89,254.01L386.19,253.21L388.86,253.28L389.82,252.22L391.22,251.32L394.27,253.77L395.22,252.57L396.5,252.73L396.96,251.86L397.66,252.19L398.08,251.25L401.88,252.95L403.32,248.34L403.94,247.14L406.63,246.17L409.7,250.68L410.23,251.76L412.46,252.5L414.89,252.67L418.41,253.95L419.99,253.99L420.97,253.48L422,254.88L423.93,254.84L424.91,253.91L425.58,255.1L425.11,256.66L425.22,258.99L423.46,260.14L422.7,261.57L422.24,263.62L418.75,264.53L418.2,265.03L418.12,268.5L420.42,269.51L420.36,270.18L417.5,273.73L417.02,274.79L415.75,275.38L415.07,276.94L414.21,277.03L411.56,280.32L410.66,281.74L412.61,281.87L413.65,284.25L414.75,285.43L416.54,285.79L417.59,286.41L417.91,288.55L417.28,290.68L417.25,293.07L416.66,294.95L417.39,295.51L417.34,296.32L418.65,296.62L419.07,295.29L420.67,295.97L421.26,293.85L422.32,294.2L422.57,293.14L421.64,292.89L422.53,291.43L423.43,291.63L425.35,293.36L424.33,292.92L424.74,294.05L424.42,295.29L425.9,295.94L425.37,297.96L427.82,298.84L427.21,300.3L427.37,301.67L426.96,302.56L426.96,304.71L428.93,305.22L429.91,308.55L427.31,311.39L425.24,311.44L421.6,310L420.26,310.67L417.43,309.92L414.05,312.24L412.08,312.67L410.29,313.83L411.43,316.43L412.29,316.77L413.31,317.95L413.83,319.14L411.98,323.12L410.96,325.67L410.26,326.53L408.06,327.06L407.58,327.91L409.79,335.55L409.6,336.75L408.85,338.31L406.98,340.58L405.55,341.33L403.18,344.25L403.2,345.24L404.29,346.13L405.84,348.92L405.53,351.32L405.72,352.99L404.09,354.3L400.49,356.19L391.76,358.87L388.84,359.42L385.61,358.46L384.87,357.09L383.41,355.64L380.86,352.65L379.41,351.91L377.53,350.52L377.57,349.13L376.01,349.5L374.47,349.28L373.48,351.16L372.85,354.44L371.09,354.69L364.24,354.29L363.7,355.02L363.53,357.2L362.84,357.53L364.69,364.97L362.82,364.91L362.59,363.49L361.37,363.35L360.99,361.78L357.96,361.86L356.43,360.89L355.06,361.47L354.99,362.94L354.36,364.91L354.94,364.25L356.38,364.37L355.99,365.6L353.4,365.41L353.3,366.51L350.32,366.81L349.37,365.77L347.54,365.67L347.38,367.11L345.24,368.33L343.04,368.5L341.87,368.88L341.56,367.67L342.09,365.96L340.31,363.67L339.94,362.36L341.45,360.75L341.52,359.22L340.52,358.18L338.99,358.61L338.74,359.08L334.77,355.07L334.49,353.43L333.99,352.92L331.05,352.63L330.77,353.92L328.12,354.09L325.31,353.71L325.4,352.07L323.73,352.1L323.08,353.16L320.51,354.39L319.86,353.42L318.94,353.14L316.67,353.19L315.89,353.66L314.99,352.05L311.08,351.89L311.23,352.67L310.25,353.15L306.5,353.27L305.41,353.11L305.43,352.47L304.49,351.62L302.34,351.57L301.87,350.73L296.59,349.95L293.68,354.68L293.59,353.51L292.19,352.83L292.25,351.75L290.24,350.93L289.19,351.06L288.93,351.98L287.89,352.24L286.27,351.66L285.09,354.36L285.59,354.51L284.89,355.78L282.95,354.01L281.24,354.02L281.37,353.12L277.39,354.97L277.65,356.03L274.98,356.6L273.5,358.61L272.75,359.21L270.03,360.46L269.86,359.87L266.27,359.09L265.61,359.84L262.07,359.01L260.26,356.28L259.19,355.73L257.18,358.93L256.53,359.55L256.07,361.9L256.75,363.68L255.31,366.49L252.46,366L251.09,367.19L249.03,366.81L248.97,366.36L247.21,366.95L246.32,364.95L244.88,363.96L243.33,363.5L242,361.96L240.41,361.62L239.53,362.87L238.25,362.52L233.88,362.62L230.53,362.52L229.11,354.52L228.13,350.47L225.29,346.31L221.47,342.81L219.72,340.95L221.25,338.32L223.11,336.01L224.42,333.38L225.08,330.42L223.99,327.24L221.47,324.72L218.51,323.63L216.11,321.89L214.58,318.05L214.14,313.67L214.14,309.93L212.82,306.54L210.63,305.77L210.73,303.15L211.51,300.62L212.52,293.38L212.37,290.29L213.38,288.58L215.3,287.01L215.94,287.45L216.93,286.5L217.82,287.07L218.6,286.63L221.5,283.42L220.33,282.68L221.73,280.92L222.76,280.82L223.39,279.81L224.09,277.15L223.66,276.27L223.95,275.25L225.17,275.61L225.59,273.96L226.83,273.4L227.53,271.37L226.19,270.83L226.52,269.32L226.77,262.02L226.56,259.39L230.08,259.53L230.43,257.52L231.67,257.75L231.86,256.95L232.63,257.02L232.79,256.19L234.35,256.39L234.53,255.24L236.32,255.32L236.89,253.17L239.79,254.19L240.26,252.16L240.25,250.93L241.32,250.18L240.63,249.18L242.91,247.39L242.71,247.17L243.88,245.55L245.09,243.32L246.06,243.82L248.74,240.12L251.46,237.61L250.66,236.5L250.28,234.39L249.09,230.67L245.98,230.26L246.56,228.35L246,228.06L246.41,226.47L245.61,225.09L243.88,224.98L243.85,224.17L244.73,223.55L245.48,221.39L245.55,219.54L246.43,219.31L246.96,216.16L245.44,215.67L246.33,213.14L246.91,208.92L246.27,206.9L244.79,205.01L245.27,203.32L243.18,202.3L242,201.03L239.55,200.6L239.21,195.31L238.74,194.27L242.28,194.37L242.5,192.55L244.63,192.67L244.85,188.73L245.4,188.24L245.88,185.69L246.36,186.44L247.81,186.54L248.4,185.51L247.63,182.43L246.22,181.81L239.1,179.11L237.51,178.71L236.1,167.93L235.95,163.99L236.22,162.46L235.27,160.69L233.71,160.53Z" stroke-miterlimit="10" stroke="#FFFFFF"/>
<path title="高唐县" fill="#D3D3D3" id="path7" d="M493.62,180.67L488.35,182.8L484.5,183.77L480.87,184.18L474.62,183.6L471.55,182.27L468.82,180.39L465.1,177.51L462.47,175.18L459.31,171.2L453.74,166.44L451.79,162.47L449.28,159.37L448.89,156.1L441.67,159.04L438.99,161.79L438.27,164.39L435.74,163.93L434.33,162.16L434.01,159.96L432.82,156.87L429.11,154.86L426.37,153.63L419.93,150.39L417.73,150.93L414.77,152.12L409.39,153.73L406.55,153.27L403.38,151.48L397.28,146.15L394.65,147.57L391.79,149.97L386.18,153.46L380.03,156.52L376.3,157.82L373.22,158.03L368.74,155.92L365.56,152.71L364.37,149.52L363.4,146.43L362.08,143.56L359.9,140.36L356.49,139.36L353.3,139.03L351.44,137.37L349.59,134.62L350.42,134.65L350.64,132.38L349.17,132.27L349.53,130.82L348.76,130.58L349.18,128.32L346.05,128.1L342.28,128.45L341.32,128.05L338.83,127.75L338.88,125.94L339.44,123.19L339.71,123.01L340.27,118.41L341.16,115.09L341.5,112L341.41,109.25L343.11,106.23L343.74,102.34L345.63,98.97L348.68,96.31L348.06,95.86L351.22,93.45L350.14,92.56L350.6,89.17L349.48,89.03L349.65,87.66L350.52,87.23L350.99,86.29L351.28,84.5L350.68,84.47L351.01,82.6L349.89,82.59L349.42,80.93L350.06,79.63L351.29,79.73L351.83,77.36L354.22,77.51L354.33,74.45L354.55,73.63L356.22,73.36L357.5,73.96L359.36,73.1L360.17,70.53L360.09,69.14L361.75,69.35L361.97,68.38L363.81,68.87L364.29,69.65L366.26,70.75L366.31,71.59L372.38,71.57L372.41,69.88L371.67,70.16L372.04,67.99L372.94,67.49L375.95,66.7L377.22,65.76L377.31,65.03L378.45,64.81L380.12,65.89L380.74,65.36L381.6,66.38L381.02,67.27L382.23,68.32L383.23,67.18L385.97,64.9L388.36,62.47L390.96,58.61L392.53,57.56L396.77,56.2L397.89,55.63L400.08,53.56L401.31,49.48L401.44,48.1L401.03,43.28L401.17,40.79L405.34,35.06L406.56,34.76L407.39,35.11L408.36,33.26L409.7,34L411.39,32.02L411.71,33.11L412.52,32.92L414.26,33.35L416.09,33.36L416.92,30.68L416.31,30.37L415.62,31.16L415.72,29.97L417.5,27.55L418.07,27.68L419.03,25.4L416.29,24.03L415.33,21.82L416.15,20.35L420.44,18.27L421.32,18.52L422.91,17.27L423.71,15.35L424.84,14.93L424.89,11.84L425.44,10.67L422.86,10.67L422.7,9.64L421.65,9.64L421.69,10.54L420.22,10.57L420.27,9.5L421.43,7.48L421.04,6.14L421.5,3.3L422.53,1.15L424.31,0L426.11,1.19L425.97,2.01L427.92,2.54L429.81,2.55L431.06,3.25L430.22,4.61L430,6.06L430.48,6.98L431.28,7.29L430.73,8.45L432.13,9.63L432.75,11.56L433.54,10.18L435.28,10.07L437.78,10.49L438.68,12.05L440.65,12.52L443.66,15.39L446.61,17.6L447.84,17.6L447.92,16.34L449.54,16.48L450.21,15.74L449.94,16.97L450.65,17.63L452.26,17.98L452.09,20.27L453.23,20.95L456.76,24.32L459.48,29.05L461.49,30.03L463.03,30.39L463.09,29.77L464.86,29.9L465.67,29.1L465.93,27.92L465.37,27.82L466.14,25.09L467.54,25.42L467.82,24.65L468.69,25.15L468.28,26.6L469.33,26.66L468.98,28.51L469.65,28.61L470.04,26.62L471.52,26.68L472.07,27.38L473.67,27.67L473.64,28.97L475.81,29.14L475.29,31.58L477.36,31.88L477.27,33.28L478.91,33.65L478.69,32.62L480.6,32.87L480.78,31.81L491.01,30.47L492.46,29.38L493.63,27.86L494.52,27.23L496.89,27.3L498.44,28.49L500.06,30.44L502.01,30.91L501.86,32.74L502.77,33.76L503.41,35.38L504.23,35.9L505.61,35.95L505.21,37.6L508.18,38.3L509.81,37.42L511.14,37.1L511.84,37.82L511.99,38.83L512.94,39.53L514.1,39.46L514.52,40.34L515.67,41.27L516.18,41.12L515.94,44.52L512.5,44.18L511.26,46.01L509.45,46.39L508.95,47.6L507.9,46.99L507.71,45.35L506.31,45.73L505.86,47.69L505.39,48.26L506.16,48.62L506,52.38L505.08,54.16L503.93,54.75L504.13,55.85L506.31,55.81L507.69,56.21L508.65,59.15L508.26,59.28L508.99,60.72L510.07,60.28L510.11,61.73L509.31,62.33L507.52,62.39L507.24,63.83L506.09,63.23L505.14,63.8L503.94,62.97L504.71,60.71L501.86,59.74L500.79,60.17L500.33,59.78L498.58,60.26L498.39,60.98L497.07,61.27L496.68,63.61L495.67,66.56L496.24,66.71L497.3,68.38L497.26,69.62L496.09,69.19L496.66,70.15L496.46,71.11L495.2,70.91L494.89,72.79L496.28,74.8L497.57,75.1L500.59,75.08L500.92,74.22L501.91,75.15L501.36,77.07L500.9,77.06L500.19,80.58L499.58,80.9L496.82,80.85L493.66,82.58L493.41,83.81L494.66,85.05L493.99,87.22L492.84,87.36L492.57,89.45L491.52,89.5L491.27,92.14L492.44,93.88L490.91,98.81L489.59,99.83L489.26,99.37L488.69,100.5L489.6,101.67L488.45,102.47L489.81,103.55L489.63,104.43L491.85,104.42L491.83,106.93L492.63,107.01L492.29,108.61L490.36,108.58L490.66,106.92L488.55,107.55L487.85,107.46L485.75,109.52L485.65,110.59L483.16,111.16L481.46,110.24L480.77,111.07L481.41,111.74L479.51,113.43L481.01,113.24L480.51,114.38L481,114.63L481.5,113.69L483.06,113.71L482.91,114.95L484.62,115.63L487.29,115.62L487.76,117.15L487.36,118.33L488.76,119.19L488.36,121.48L489.64,124.81L490.92,130.66L490.35,134.96L489.45,137.82L488.11,140.15L486.62,140.05L485.52,143.1L484.69,143.63L485.41,144.48L484.24,145.06L483.38,147.95L483.77,147.91L483.68,149.71L484.31,149.71L483.96,150.66L487.36,151.32L487.82,152.7L490.44,155.14L491.5,157.81L491.71,161.54L491.47,165.39L492,168.48L493.08,171.35L492.84,174.05L493.24,174.71Z" stroke-miterlimit="10" stroke="#FFFFFF"/>
<path title="冠县" fill="#D3D3D3" id="path6" d="M119.57,164.91L120.24,166.24L119.6,167.14L121,166.66L120.93,169.45L122.64,172.27L123.73,172.33L123.7,173.61L124.92,173.54L125.07,175.9L126.31,175.87L126.71,178.07L127.3,179.77L126.47,180.07L126.42,182.67L127.29,182.93L129.26,184.25L131.88,185.24L135.71,186.34L140.09,187.89L144.35,188.67L148.28,188.45L152.75,185.7L155.48,183.29L158.1,180.31L159.73,177.79L164.11,173.49L170.23,169.97L172.64,169.2L175.27,168.76L178.34,169.53L180.86,172.17L187.67,178.54L190.08,180.41L192.94,180.4L195.9,178.41L198.59,176.05L200.3,174.84L200.96,173.91L202.4,173.69L204.02,174.52L207.33,175.11L208,174.3L210.34,174.19L210.91,173.79L212.06,170.56L214.51,166.96L214.91,167.04L214.81,168.98L218.59,170.19L218.76,171.56L219.64,171.16L219.69,169.54L219.33,167.95L217.52,167.05L218.61,162.28L219.16,161.8L219.7,164L220.69,163.97L220.79,164.91L221.57,165.03L222.29,163.66L223.49,158.44L224.91,158.56L225.21,160.05L226.34,160.01L226.74,161.36L228.78,161.52L228.9,160.41L232.11,160.77L232.47,159.13L233.85,158.84L233.71,160.53L235.27,160.69L236.22,162.46L235.95,163.99L236.1,167.93L237.51,178.71L239.1,179.11L246.22,181.81L247.63,182.43L248.4,185.51L247.81,186.54L246.36,186.44L245.88,185.69L245.4,188.24L244.85,188.73L244.63,192.67L242.5,192.55L242.28,194.37L238.74,194.27L239.21,195.31L239.55,200.6L242,201.03L243.18,202.3L245.27,203.32L244.79,205.01L246.27,206.9L246.91,208.92L246.33,213.14L245.44,215.67L246.96,216.16L246.43,219.31L245.55,219.54L245.48,221.39L244.73,223.55L243.85,224.17L243.88,224.98L245.61,225.09L246.41,226.47L246,228.06L246.56,228.35L245.98,230.26L249.09,230.67L250.28,234.39L250.66,236.5L251.46,237.61L248.74,240.12L246.06,243.82L245.09,243.32L243.88,245.55L242.71,247.17L242.91,247.39L240.63,249.18L241.32,250.18L240.25,250.93L240.26,252.16L239.79,254.19L236.89,253.17L236.32,255.32L234.53,255.24L234.35,256.39L232.79,256.19L232.63,257.02L231.86,256.95L231.67,257.75L230.43,257.52L230.08,259.53L226.56,259.39L226.77,262.02L226.52,269.32L226.19,270.83L227.53,271.37L226.83,273.4L225.59,273.96L225.17,275.61L223.95,275.25L223.66,276.27L224.09,277.15L223.39,279.81L222.76,280.82L221.73,280.92L220.33,282.68L221.5,283.42L218.6,286.63L217.82,287.07L216.93,286.5L215.94,287.45L215.3,287.01L213.38,288.58L212.37,290.29L212.52,293.38L211.51,300.62L210.73,303.15L210.63,305.77L207.56,305.24L205.37,305.46L198.81,304.71L195.19,304.83L191.48,305.28L185.89,305.09L183.68,303.85L184.17,302.31L182.75,302.19L182.81,301.42L180.97,301.4L180.53,300.57L180.44,301.68L179.02,301.71L176.88,301.2L175,302.5L174.65,305.27L175.77,305.76L175.14,308.97L176.83,309.28L176.96,311.65L173.97,311.58L172.09,310.65L170.53,310.59L170.34,311.22L168.5,310.76L167.79,309.71L165.81,309.14L165.43,307.71L163.36,307.3L163.43,306.49L162.14,306.77L161.66,306.09L161.3,304.09L161.47,302.89L160.51,302.33L159.86,303.79L159.32,307.11L158.26,306.94L157.43,307.87L156.75,310.59L154.54,310.8L152.47,309.76L152.02,308.29L149.79,308.03L145.23,308.68L144.03,310.98L143.28,315.26L142.19,317.67L140.02,319.53L135.99,320.74L129.57,320.96L124.66,318.21L122.37,315.47L119.64,314.26L115.16,314.06L107.4,310.79L104.44,309.81L100.07,308.95L93.95,309.63L90.99,310.75L88.04,312.63L83.34,311.48L82.34,308.85L80.02,305.03L77.16,303.07L74.19,301.68L69.81,300.94L66.95,299.76L63.61,297.66L63.75,295.6L64.54,294.63L66.29,293.71L67.34,292.09L67.51,290.35L69.25,288.03L71.12,288.51L71.22,287.04L70.21,286.92L70.2,286.2L71.17,286.29L71.42,282.35L71.09,282.21L71.46,280.14L70.43,279.84L71.18,278.22L70.28,277.74L70.49,277.21L69.12,276.63L69.41,275.85L67.99,276.05L67.45,275.4L67.59,273.93L65.7,272.62L64.32,272.76L63.38,273.99L62.82,275.4L61.98,275.8L61.28,275.08L61.4,273.52L60.35,271.05L60.87,269.6L62.19,268.98L62.41,267.88L61.61,267.57L58.69,267.49L57.98,266.53L58.35,264.42L58.24,262.7L55.37,262.44L55.27,261.63L54.34,261.48L53.59,260.3L54.13,257.43L57.54,258.21L58.55,256.13L59.24,257.06L60.65,257.23L62.2,255.26L63.25,251.94L61.75,249.28L61.58,247.08L62.74,245.04L60.29,244.51L60.54,243.59L60.1,242.5L61.52,240.95L62.7,240.22L64.43,240.46L64.75,240.95L64.53,242.85L64.78,243.73L67.48,243.02L69.29,240.04L73.39,236.62L76.26,232.98L76.66,232.08L76.6,228.91L76.91,225.37L78.07,220.75L78.09,218.58L77.82,216.59L79.19,213.47L81.22,214.28L82.11,212.43L84.08,212.95L84.48,210.59L81.93,210.28L80.17,210.47L80.13,208.47L80.6,206.51L81.81,205.68L84.16,204.98L82.09,203.13L81.97,202.23L83.63,200.72L84.8,199.21L85.43,197.91L85.86,195.02L87.43,196.2L90.06,197.63L93.28,193.87L94.86,192.39L96.87,188.06L98.51,185.87L98.62,183.55L97.88,181.13L100.1,179.39L105.64,177.8L106.42,177.2L106.9,175.53L106.73,173.76L107.83,171.42L109.17,170.38L110.65,169.68L110.95,169.09L111.09,166.48L114.56,165.96L115.56,165.45L117.03,163.93L118.78,163.75Z" stroke-miterlimit="10" stroke="#FFFFFF"/>
<path title="临清市" fill="#D3D3D3" id="path8" d="M360.09,69.14L360.17,70.53L359.36,73.1L357.5,73.96L356.22,73.36L354.55,73.63L354.33,74.45L354.22,77.51L351.83,77.36L351.29,79.73L350.06,79.63L349.42,80.93L349.89,82.59L351.01,82.6L350.68,84.47L351.28,84.5L350.99,86.29L350.52,87.23L349.65,87.66L349.48,89.03L350.6,89.17L350.14,92.56L351.22,93.45L348.06,95.86L348.68,96.31L345.63,98.97L343.74,102.34L343.11,106.23L341.41,109.25L341.5,112L341.16,115.09L340.27,118.41L339.71,123.01L339.44,123.19L338.88,125.94L338.83,127.75L337.99,129.24L336.76,129.75L336.56,131.18L334.58,131.01L334.57,133.94L333.76,134.23L333.53,136.09L332.57,137.33L332.31,139.53L332.61,140.19L332.18,141.3L331,141.5L330.21,143.66L330.61,146.25L328.37,149.84L327.6,152.71L327.03,156.79L327.13,160.42L326.57,163.95L324.58,167.92L322.75,168.14L319.95,169.35L316.53,169.99L314.32,170L313.67,174.48L312.71,174.32L312.79,172.21L309.66,171.13L309.4,169.53L307.11,169.79L305.51,171.22L303.53,172.6L302.91,172.11L299.84,174.4L297.57,174.98L292.06,174.16L290.21,171.19L289.38,168.35L288.03,168.45L288.39,166.95L286.43,164.21L283.99,164.09L284.04,165.57L282,166.2L278.65,168.78L278.4,170.8L277.27,170.77L277.18,170.25L275.52,170.2L275.53,169.26L274.71,169.23L275.11,166.66L273.52,165.3L272.48,163.97L268.98,163.18L265.48,163.28L257.6,163.81L254.28,163.38L251.02,161.53L248.9,159.8L247.73,158.11L247.87,154.72L246.61,153.76L242.26,153.95L237.44,153.93L237.11,157.32L236.04,158.93L233.85,158.84L232.47,159.13L232.11,160.77L228.9,160.41L228.78,161.52L226.74,161.36L226.34,160.01L225.21,160.05L224.91,158.56L223.49,158.44L222.29,163.66L221.57,165.03L220.79,164.91L220.69,163.97L219.7,164L219.16,161.8L218.61,162.28L217.52,167.05L219.33,167.95L219.69,169.54L219.64,171.16L218.76,171.56L218.59,170.19L214.81,168.98L214.91,167.04L214.51,166.96L212.06,170.56L210.91,173.79L210.34,174.19L208,174.3L207.33,175.11L204.02,174.52L202.4,173.69L200.96,173.91L200.3,174.84L198.59,176.05L195.9,178.41L192.94,180.4L190.08,180.41L187.67,178.54L180.86,172.17L178.34,169.53L175.27,168.76L172.64,169.2L170.23,169.97L164.11,173.49L159.73,177.79L158.1,180.31L155.48,183.29L152.75,185.7L148.28,188.45L144.35,188.67L140.09,187.89L135.71,186.34L131.88,185.24L129.26,184.25L127.29,182.93L126.42,182.67L126.47,180.07L127.3,179.77L126.71,178.07L126.31,175.87L125.07,175.9L124.92,173.54L123.7,173.61L123.73,172.33L122.64,172.27L120.93,169.45L121,166.66L119.6,167.14L120.24,166.24L119.57,164.91L120.49,164.73L120.12,163.75L121.16,162.7L120.18,160.83L120.56,159.46L122.98,159.06L123.11,157.77L122.41,157.33L122.41,154.36L122.63,153.57L124.89,153.3L126.21,151.75L126.03,150.75L124.68,150.51L126.04,147.58L126.89,147.76L128.37,147.23L128.32,146.36L127,145.46L126.65,144.79L127.29,143.19L128.97,143.55L130.64,141.4L132.26,138.84L133.39,135.51L133.29,132.76L133.52,131.57L135.71,130.71L138.41,130.48L139.08,128.97L140.03,127.97L142.83,126.34L144.23,126.22L146.58,128.04L148.37,128.15L150.82,129.41L151.87,129.25L152.12,128.12L151.43,125.8L151.95,124.7L152.6,124.48L154.78,125.92L155.92,125.17L156.12,123.01L156.03,120.65L156.64,119.63L157.65,119.35L159.67,119.53L160.8,120.24L161.07,122.47L162.02,123.61L165.36,123.67L165.06,119.79L165.38,119.57L168.07,121.58L169.52,123.87L172,124.1L172.78,123.6L174.09,121.36L176.29,120.19L178.49,119.75L180.51,119.04L189.85,114.72L192.6,112.5L194.82,113.2L195.74,112.85L196.36,110.75L197.79,110L199.73,108.37L202.24,107.77L205.34,106L205.79,105.99L207.87,107.53L211.31,106.37L211.33,107.46L213.18,108.18L213.68,107.24L213.39,106.14L212.73,105.76L213.4,105.21L214.32,103.05L214.37,100.57L215.83,97.87L215.54,95.87L214.44,92.93L214.61,91.46L215.31,90.08L216.67,88.68L217.32,87.55L217.78,85.41L218.93,83.27L219.29,81.89L218.82,79.75L220.11,77.6L221.73,75.44L222.99,72.61L224.97,70.3L228.92,66.89L232.41,65.24L232.75,64.84L234.63,60.54L235.69,60.07L235.12,61.61L237.02,62.65L238.88,60.85L239.84,61.4L239.58,62.08L240.24,62.63L241.13,62.35L241.89,59.42L243.96,59.42L244.05,56.75L245.32,56.19L245.33,53.68L246.93,54.14L247.14,57.25L249.49,57.43L249.79,57.92L249.61,61.4L251.86,61.52L252.04,59.86L251.7,58.3L252.42,57.56L253.99,57.69L254.07,56.89L256.97,56.92L257.83,57.37L262.42,57.34L262.6,59.39L264.63,59.67L265.97,58.18L266.37,57.3L269.66,58.57L269.87,55.43L270.11,54.86L272.31,54.83L272.82,56.99L275.54,57.88L276.29,57.71L276.01,56.69L276.59,55.93L278.21,55.99L279.75,57.92L279.96,59.79L278.75,59.15L277.14,59.39L277.35,60.85L278.1,61.5L279.78,61.92L281.76,62L281.96,62.62L283.04,62.6L283.77,63.1L285.45,61.52L286.65,55.96L287.88,54.88L288.89,55.34L288.9,58.02L289.51,59.02L290.24,59L290.26,60.42L293.95,61.09L300.55,65.65L303.85,67.2L308.36,68.19L311.22,68.49L311.22,68.08L309.42,67.72L309.51,66.83L313.31,67.16L313.38,67.91L314.22,67.97L314.35,69.32L318.05,69.83L324.51,69.94L326.17,69.54L328.46,70.22L336.69,71.35L339.9,70.67L343.7,69.51L343.95,67.26L343.6,65.92L345.27,66.68L345.09,67.94L345.75,67.9L345.95,70.03L347.64,69.64L348.28,67.94L350.81,67.08L353.83,66.46L354.58,68.15L357.31,68.69L358.39,69.31Z" stroke-miterlimit="10" stroke="#FFFFFF"/>
<path title="莘县" fill="#D3D3D3" id="path4" d="M83.34,311.48L88.04,312.63L90.99,310.75L93.95,309.63L100.07,308.95L104.44,309.81L107.4,310.79L115.16,314.06L119.64,314.26L122.37,315.47L124.66,318.21L129.57,320.96L135.99,320.74L140.02,319.53L142.19,317.67L143.28,315.26L144.03,310.98L145.23,308.68L149.79,308.03L152.02,308.29L152.47,309.76L154.54,310.8L156.75,310.59L157.43,307.87L158.26,306.94L159.32,307.11L159.86,303.79L160.51,302.33L161.47,302.89L161.3,304.09L161.66,306.09L162.14,306.77L163.43,306.49L163.36,307.3L165.43,307.71L165.81,309.14L167.79,309.71L168.5,310.76L170.34,311.22L170.53,310.59L172.09,310.65L173.97,311.58L176.96,311.65L176.83,309.28L175.14,308.97L175.77,305.76L174.65,305.27L175,302.5L176.88,301.2L179.02,301.71L180.44,301.68L180.53,300.57L180.97,301.4L182.81,301.42L182.75,302.19L184.17,302.31L183.68,303.85L185.89,305.09L191.48,305.28L195.19,304.83L198.81,304.71L205.37,305.46L207.56,305.24L210.63,305.77L212.82,306.54L214.14,309.93L214.14,313.67L214.58,318.05L216.11,321.89L218.51,323.63L221.47,324.72L223.99,327.24L225.08,330.42L224.42,333.38L223.11,336.01L221.25,338.32L219.72,340.95L221.47,342.81L225.29,346.31L228.13,350.47L229.11,354.52L230.53,362.52L232.17,366.68L233.69,370.95L234.99,379.71L234.77,383.43L234,386.82L232.81,390.77L230.07,396.57L228.98,399.96L228.1,403.68L226.17,404.97L224.25,406.57L223.13,409.13L220.96,413.14L217.21,418.96L213.09,423.58L209.94,427.31L208.98,431.71L208.48,440.04L207.1,448.19L206.75,454.76L205.37,455.12L204.97,456.97L205.58,458.11L207.04,459.87L206.83,460.7L209.04,461.01L209.37,462.53L209.35,466.15L210.29,467.81L211.49,470.54L213.16,472.34L212.89,474.14L212.11,474.44L211.55,476.97L213.2,477.83L212.91,479.63L211.96,479.43L211.31,482.24L211.42,486.17L210.69,489.34L211.8,489.73L211.42,491.34L211.9,492.75L212.93,492.74L213.01,496.41L215.39,496.4L214.64,499.37L213.34,499.26L213.09,500.4L212.5,500.35L211.26,502.69L209.9,502.51L209.37,509.24L209.26,512.23L208.94,513.51L206.95,516.44L206.55,517.72L206.41,519.7L205.3,521.54L203.2,521.77L201.98,522.5L200.95,523.78L200.02,525.71L199.95,527.25L200.25,529.13L200.13,529.79L198.78,532.3L198.04,532.97L196.63,533.35L194.11,533.08L193.3,532.12L187.52,531.42L183.1,530.59L181.91,530.65L179.58,531.45L176.04,531.62L174.01,532.54L162.78,541.87L160.3,543.83L154.2,545.8L146.86,547.48L143.63,543.32L144.79,541L145.74,540.22L145.87,539.07L144.82,537.57L144.39,536.27L143.81,536.02L141.51,536.84L139.71,538.29L138.14,538.89L137.56,539.87L137.47,541.26L138,542.96L139.93,544.78L137.1,552.03L135.79,553.1L132.56,554.39L126.33,558.23L123.25,561.84L116.21,571.88L115.82,574.36L113.53,574.37L113.63,576.1L110.07,578.57L106.08,586.34L101.73,589.49L95.97,592.59L91.94,595.76L89.09,600L88.41,599.81L78.1,592.01L77.76,591.02L78.12,589.17L78.37,583.65L79.97,576.22L81.32,573.29L81.6,572.03L80.53,569.66L81.79,569.93L82.1,567.74L82.62,567.59L83.72,561.46L81.08,561.01L80.73,559.99L79.32,559.68L79.75,556.85L81.12,557.09L81.42,556.15L85.77,557.51L86.53,557.05L86.76,553.03L87.78,552.79L88.55,547.74L89.38,545.72L90.6,533.2L90.24,531.05L89.33,528.84L86.3,526.01L85.47,525.02L85.17,523.7L86.39,516.88L88.94,508.59L90.47,507.55L92,507.22L97.87,507.42L98.56,507.11L99.33,505.88L99.9,501.39L100.4,500.41L101.61,499.22L105.44,496.86L110.74,493L113.87,492.07L116.82,491.76L119.77,491.02L120.87,490.28L121.57,489.22L121.4,485.19L121.82,481.89L122.2,480.51L121.93,477.03L122,472.65L120.08,472.77L119.83,470.28L118.95,470.16L119.19,468.67L120.81,468.92L120.95,467.43L122.25,466.96L122.89,465.6L124.58,466.07L124.54,464.88L126.13,465.04L126.01,462.58L124.94,462.42L125.07,461.48L124.4,461.27L126.22,456.92L128.75,457.25L128.89,456.2L128.48,455.24L129.33,455.37L129.93,451.76L129.7,451.27L131.39,449.09L131.95,446.72L132.77,444.75L133.07,442.29L134.01,440.84L134.48,439.09L134.29,438.22L134.95,436.2L135.64,435.23L136,428.61L135.37,424.18L134.26,413.31L132.7,406.02L132.45,403.13L132.95,401.81L133.66,398.33L133.66,395.24L132.45,390.78L132.42,384.49L132.95,380.09L132.49,378.33L132.66,377.58L131.77,376.8L128.37,375.72L128.07,374.27L128.67,371.53L129.43,371.37L129.74,368.56L129.31,367.35L128.29,367.02L128.14,365.79L127.31,365.13L127.34,363.42L126.35,363.03L124.43,362.87L122.37,364.31L121.16,363.74L120.94,364.54L117.17,363.3L117.3,362.61L115.73,362.25L115,361.11L115.09,359.44L114.02,359.19L114.14,358.58L113.02,358.08L111.11,357.81L110.93,356.84L109.74,355.44L110.18,354L110.59,354.13L111.47,352.75L112.01,350.75L111.33,350.54L111.69,348.7L111.03,348.29L111.7,346.47L110.63,346.78L111.39,344.06L111.18,343.96L112,341.38L111.68,340.58L108.94,339.28L101.09,341.18L95.21,345.39L92.92,346.28L90.3,347.72L88.21,346.86L87.65,343.03L88.84,340.83L90.48,339.17L91.77,336.31L91.09,331.6L88.13,328.55L85.48,324.95L83.72,321.78L83.69,317.84ZM139.93,544.78L140.67,545.23L142.38,544.7L143.63,543.32L146.86,547.48L143.03,548.26L137.1,552.03Z" stroke-miterlimit="10" stroke="#FFFFFF"/>
<path title="阳谷县" fill="#D3D3D3" id="path3" d="M200.25,529.13L199.95,527.25L200.02,525.71L200.95,523.78L201.98,522.5L203.2,521.77L205.3,521.54L206.41,519.7L206.55,517.72L206.95,516.44L208.94,513.51L209.26,512.23L209.37,509.24L209.9,502.51L211.26,502.69L212.5,500.35L213.09,500.4L213.34,499.26L214.64,499.37L215.39,496.4L213.01,496.41L212.93,492.74L211.9,492.75L211.42,491.34L211.8,489.73L210.69,489.34L211.42,486.17L211.31,482.24L211.96,479.43L212.91,479.63L213.2,477.83L211.55,476.97L212.11,474.44L212.89,474.14L213.16,472.34L211.49,470.54L210.29,467.81L209.35,466.15L209.37,462.53L209.04,461.01L206.83,460.7L207.04,459.87L205.58,458.11L204.97,456.97L205.37,455.12L206.75,454.76L207.1,448.19L208.48,440.04L208.98,431.71L209.94,427.31L213.09,423.58L217.21,418.96L220.96,413.14L223.13,409.13L224.25,406.57L226.17,404.97L228.1,403.68L228.98,399.96L230.07,396.57L232.81,390.77L234,386.82L234.77,383.43L234.99,379.71L233.69,370.95L232.17,366.68L230.53,362.52L233.88,362.62L238.25,362.52L239.53,362.87L240.41,361.62L242,361.96L243.33,363.5L244.88,363.96L246.32,364.95L247.21,366.95L248.97,366.36L249.03,366.81L251.09,367.19L252.46,366L255.31,366.49L256.75,363.68L256.07,361.9L256.53,359.55L257.18,358.93L259.19,355.73L260.26,356.28L262.07,359.01L265.61,359.84L266.27,359.09L269.86,359.87L270.03,360.46L272.75,359.21L273.5,358.61L274.98,356.6L277.65,356.03L277.39,354.97L281.37,353.12L281.24,354.02L282.95,354.01L284.89,355.78L285.59,354.51L285.09,354.36L286.27,351.66L287.89,352.24L288.93,351.98L289.19,351.06L290.24,350.93L292.25,351.75L292.19,352.83L293.59,353.51L293.68,354.68L296.59,349.95L301.87,350.73L302.34,351.57L304.49,351.62L305.43,352.47L305.41,353.11L306.5,353.27L310.25,353.15L311.23,352.67L311.08,351.89L314.99,352.05L315.89,353.66L316.67,353.19L318.94,353.14L319.86,353.42L320.51,354.39L323.08,353.16L323.73,352.1L325.4,352.07L325.31,353.71L328.12,354.09L330.77,353.92L331.05,352.63L333.99,352.92L334.49,353.43L334.77,355.07L338.74,359.08L338.99,358.61L340.52,358.18L341.52,359.22L341.45,360.75L339.94,362.36L340.31,363.67L342.09,365.96L341.56,367.67L341.87,368.88L343.04,368.5L345.24,368.33L347.38,367.11L347.54,365.67L349.37,365.77L350.32,366.81L353.3,366.51L353.4,365.41L355.99,365.6L356.38,364.37L354.94,364.25L354.36,364.91L354.99,362.94L355.06,361.47L356.43,360.89L357.96,361.86L360.99,361.78L361.37,363.35L362.59,363.49L362.82,364.91L364.69,364.97L364.32,365.31L364.43,367.1L365.25,367.22L365.46,368.09L365.45,371.91L366.64,372.88L366.59,375.68L367.42,377.41L367.11,379.67L365.79,383.49L364.68,386.01L362.7,389.18L360.29,392.57L357.55,395.73L356,398.36L355.78,400.88L356.63,403.73L358.7,408.1L359.77,412.04L360.62,417.62L362.82,424.37L363.85,428.73L366.24,430.58L369.62,431.81L375.78,433.44L379.09,434.75L378.49,437.04L377.2,438.45L375.32,439.68L372.83,441.8L364.21,443.3L358.79,444.41L356.65,445.21L355.44,447.05L345.62,460.77L340.84,465.99L334.34,470.7L332.02,472.74L330.59,473.58L327.91,473.9L320.66,475.42L314.74,477.62L309.79,480.27L304.8,484.98L303.37,485.87L301.27,485.6L295.48,482.7L294.41,482.76L285.24,487.29L284.17,487.94L282.86,491.42L280.41,493.48L278.17,493.79L275.23,492.88L273.8,491.91L271.85,490.01L271.04,489.74L266.34,489.64L266.32,489.33L264.06,489.17L257.63,491.22L256.43,491.93L252.46,495.58L250.99,496.47L249.63,498.22L250.34,499.04L252.27,499.44L247.57,503.89L247.63,507.39L246.23,508.23L243.64,509.08L239.75,509.42L232.71,511.02L231.58,511.06L229.76,510.11L225.74,508.89L222.39,509.93L221.48,510.53L218.34,511.43L215.54,513.55L213.82,516.59L213.27,518.75L213.07,520.78L212.69,521.75L210.99,523.62L209.35,524.58L205.19,525.82L201.8,527.64Z" stroke-miterlimit="10" stroke="#FFFFFF"/>
</svg>