<svg xmlns="http://www.w3.org/2000/svg" xmlns:xlink="http://www.w3.org/1999/xlink" width="600" height="600">
<path title="曹县" fill="#D3D3D3" id="path3" d="M355.86,414.86L354.71,416.67L353.89,417.09L351.75,420.34L350.23,423.06L348.82,426.51L348.64,427.86L347.22,430.69L345.81,433.92L345.83,435.59L346.4,439.84L346.2,440.99L346.76,443.99L348.35,447.3L349.52,450.92L349.54,452.89L350.29,455.38L350.1,456.52L350.24,459.11L350.87,460.05L352.52,460.44L355,460.41L356.66,460.71L358.53,462.34L360.62,464.81L363.53,466.96L365.19,468.4L367.06,469.62L368.51,470.23L369.34,470.22L372.51,468.33L374.75,466.68L375.62,467.6L378.31,467.66L379.18,466.29L380.73,466.9L383.96,470.61L385.32,472.67L386.99,474.11L389.56,475.02L390.46,476.73L392.06,477.18L391.77,479.05L391.79,481.23L392.54,483.92L394.31,486.18L394.86,486.36L396.56,488.13L397.49,491.22L397.44,495.47L391.47,495.19L390.13,499.49L388.06,502.65L387.09,506.65L381.63,505.88L378.58,505.23L377.66,510.94L379.25,511.43L379.07,514.23L379.32,518.07L378.74,521.8L378.57,525.12L379.21,527.09L380.05,528.12L381.42,531.63L383.47,540.53L382.67,543.12L381.36,545.51L380.35,546.66L380.51,547.43L378.34,549.07L377.44,550.51L377.93,553.51L377.21,554.87L375.51,554.89L374.86,556.34L373.51,556.35L369.14,555.72L368.92,562.12L369.56,566.78L367.79,570.4L368.7,575.91L369.62,579.09L369.1,588.69L368.18,588.53L367.33,587.96L363.5,586.67L363.02,586.77L360.2,586.06L357.2,584.64L354.76,583.79L352.54,583.82L346.75,582.88L344.68,583.17L340.81,583.13L338.5,582.26L337.18,580.82L335.98,578.85L333.12,578.39L331.38,578.77L330.75,580.83L330.93,589.58L330.73,592.22L328.86,594.5L328.2,595.69L326.86,596.63L325.94,598.27L324.25,597.68L320.38,597.66L316.56,595.93L315.14,594.58L313.28,594.11L310.79,592.81L309.28,591.08L308.79,591.78L307.99,591.21L305.51,590.67L302.75,589.64L301.11,589.76L298.46,590.84L296.43,591.02L294.31,590.95L292.29,590.35L289.13,591.32L286,591.47L282.78,590.64L280.21,590.76L277.83,592.21L275.32,592.2L274.98,591.11L270.55,590.28L269.28,589.8L265.33,587.83L263.3,586.1L254.39,575.09L249.71,566.59L243.99,561.94L243.18,561.45L243.04,557.84L242.51,554.5L241.98,552.92L238.91,548.99L237,544.67L236.55,542.08L236.8,538.46L237.49,536.06L237.87,533.78L237.73,530.88L237.07,528.5L235.91,526.34L234.13,524.19L232.96,521.82L234.24,517.65L237.14,515.73L238.41,514.47L238.69,513.16L238.39,511.9L237.31,509.42L236.66,506.94L236.01,505.4L235.89,504.05L233.96,498.47L233.72,496.3L233.8,494.74L233.25,492.36L232.06,490.26L231.17,486.77L230.34,485.54L226.69,485.31L225.54,484.45L225.53,483.15L226.39,481.97L225.89,480.65L224.61,480.09L224.08,478.92L224.17,477.43L223.57,476.27L220.8,475.09L218.18,473.62L215.42,473.9L212.7,474.99L211.31,474.53L209.88,472.76L205.74,471.81L204.43,471.13L202.77,468.83L200.36,467.1L194.29,464.72L193.05,464.01L189.65,461.23L186.89,460.56L185.46,460.74L184.17,461.4L181.98,463.22L179.43,464.67L177.99,464.58L173.9,463.24L171.21,463.79L169.94,464.58L168.19,466.77L167,467.5L164.63,466.86L162.33,465.31L161.42,462.61L161.02,458.45L160.78,454.23L160.81,451.36L161.31,450.09L163.82,446.54L164.85,443.88L165.53,439.79L164.77,438.82L160.79,437.41L159.45,437.19L156.56,437.1L148.03,436.33L147.51,435.19L147.2,431.19L150.55,423.16L152.04,424.07L152.69,423.04L153.43,423.52L154.41,422.14L154.56,419.32L153.89,416.54L153.28,415.34L151.97,415.27L149.26,416.38L148.26,417.33L146.8,419.7L144.21,418.74L140.56,417.09L139.51,416.14L136.91,414.49L134.54,415.6L132.56,416.77L130.21,416.52L130.32,412.45L129.43,411.41L128.21,408.74L126.36,406.49L121.9,405.57L120.64,404.93L121.62,400.53L125.37,400.42L126.05,397.66L126.8,391.76L127.29,391.35L130.54,391.29L132.39,390.9L134.28,390.1L135.06,389.48L136.19,387.27L136.3,385.09L137.26,383.28L137.3,381.48L136.26,378.1L136.5,376.79L138.18,374.26L138.95,373.64L143.19,373.72L145.53,373.56L145.73,374.4L147.92,374.54L150.79,377.36L154.35,379.06L156.53,379.2L157.22,377.23L157.22,375.68L159.18,374.7L164.01,375.4L164.08,376.14L164.24,377.94L167.46,378.5L167.81,376.4L169.19,375.27L169.42,373.17L174.44,376.9L174.37,379.06L177.94,380.33L178.98,379.9L182.32,374.97L185.78,374.68L189.24,375.1L191.77,374.81L194.67,380.58L195.28,381.45L196.23,381.79L197.18,381.44L198.51,379.76L198.81,378.62L202.57,378.5L206.27,379.21L208.52,380.04L209.92,381.05L213.6,382.85L220.09,383.95L222.07,384.56L222.78,386.38L226.91,387.83L228.75,388.62L232.57,389.79L233.25,388.85L237.18,387.62L240.02,387.66L243.71,386.98L244.44,386.36L247.5,386.36L248.04,386.72L249.08,389.91L249.06,392.09L249.5,392.59L251.21,392.75L252.82,393.27L253.93,394.56L254.79,396.86L255.43,397.44L256.84,396.91L257.1,395.96L258.2,394.49L259.87,395.28L264.21,395.74L265.49,396.07L266.03,396.68L265.8,397.76L266.83,399.1L270.96,401.24L272.49,401.25L272.72,399.34L273.96,396.38L276.08,396.23L280.28,397.04L282.69,397.81L284.18,401.62L284.29,403.4L285.37,405.33L286.65,405.68L288.39,404.7L289.76,405.17L291.07,406.49L291.49,409.16L294.3,410.79L295.12,410.59L296.14,411.36L297.41,411.4L299.57,408.15L299.1,407.73L301.03,405.49L303.11,404.92L304.83,405.53L305.28,404.98L306.71,404.6L306.2,405.47L307.38,405.24L309.19,405.56L310.18,407.03L311.09,407.53L311.71,408.69L313.21,408.66L313.23,407.8L313.87,408.5L315.47,408.5L315.56,407.68L316.42,407.68L316.71,408.97L318.97,409.49L319.26,411.21L320.69,410.83L324.38,413.31L326.36,413.02L329.93,413.44L331.39,413.18L331.32,414.53L333.91,414.56L334.62,412.54L335.98,412.61L336.29,412.2L337.5,413.76L338.62,413.76L338.62,414.24L340.15,414.75L341.96,414.94L343.78,414.58L345.19,415.74L346.43,415.9L347.08,414.87L351.41,415.26L353.68,414L354.33,414.64L355.53,414.46Z" stroke-miterlimit="10" stroke="#FFFFFF"/>
<path title="成武县" fill="#D3D3D3" id="path5" d="M391.77,479.05L392.06,477.18L390.46,476.73L389.56,475.02L386.99,474.11L385.32,472.67L383.96,470.61L380.73,466.9L379.18,466.29L378.31,467.66L375.62,467.6L374.75,466.68L372.51,468.33L369.34,470.22L368.51,470.23L367.06,469.62L365.19,468.4L363.53,466.96L360.62,464.81L358.53,462.34L356.66,460.71L355,460.41L352.52,460.44L350.87,460.05L350.24,459.11L350.1,456.52L350.29,455.38L349.54,452.89L349.52,450.92L348.35,447.3L346.76,443.99L346.2,440.99L346.4,439.84L345.83,435.59L345.81,433.92L347.22,430.69L348.64,427.86L348.82,426.51L350.23,423.06L351.75,420.34L353.89,417.09L354.71,416.67L355.86,414.86L355.82,414.03L358.55,413.65L358.84,411.74L359.9,411.11L358.88,410.87L358.67,409.64L360.1,408.49L360.6,407.54L363.11,403.96L363.88,400.93L363.72,398.44L362.66,397L357.92,392.41L357.39,391.58L356.93,389.3L357.17,385.87L358.14,382.31L359.12,380L361.52,375.79L362.22,374.32L363.59,370.54L364.94,365.52L365.63,356.99L366.23,355.78L365.85,353.9L366.08,352.15L366.91,350.16L366.85,348.36L367.26,347.21L367.11,345.43L367.33,342.75L366.64,341.31L366.68,337.24L366.47,336.46L365.41,335.11L365.07,334.02L365.05,331.06L364.63,329.52L364.57,327.83L365.99,325.12L366.69,324.5L369.14,324.61L373.52,326.45L373.94,328.4L375.47,330.24L377.28,330.62L378.13,330.42L380.98,328.41L382.89,327.65L384.37,328.08L385.72,329.82L385.74,335.68L390.73,335.72L393.2,336.18L394.79,336.71L398.96,337.64L401.81,338.15L401.3,340.44L400.57,342.29L400.73,343.97L403.65,343.99L408.73,344.33L412.07,344.73L415.1,344.36L417.48,342.47L418.51,342.5L419.67,341.73L419.76,340.99L422.71,340.98L426.16,341.21L429.48,342.46L429.95,342.47L437.84,344.74L438.37,344.6L438.41,347.59L441.34,347.93L442.97,348.45L443.1,349.97L444.72,349.97L444.75,350.74L446.73,350.55L446.66,349.6L452.65,348.41L454.62,348.83L455.29,348.45L457.27,348.48L457.78,348.99L457.87,347.87L458.64,347.87L458.9,349.85L460.26,349.88L460.45,350.52L463.48,350.65L463.86,349.09L462.3,349.18L462.08,347.46L462.37,347.21L461.57,345.61L460.8,345.42L460.48,343.76L461.63,343.19L461.57,342.05L464.23,341.19L470.92,340.2L471.6,341.12L470.7,341.12L471.12,341.82L470.81,344.59L471.15,344.95L471.02,346.44L470.36,346.48L470.39,347.62L473,347.65L474.31,347.27L474.39,344.41L474.82,343.07L476.76,343.86L475.99,347.88L479.14,348.09L485.03,348.13L490.19,347.45L493.68,347.78L499.16,347.27L498.75,348.98L496.4,353.57L495.36,356.36L496.53,356.93L500.14,357.4L500.8,357.71L500.24,358.25L498.68,360.9L496.84,364.5L497.63,366.26L495.79,369.5L495.07,370.23L495.43,370.88L495.53,372.54L493.88,372.23L493.01,372.74L491.39,372.99L490.38,372.1L487.35,373.3L486.13,375.5L485.63,378.32L485.56,382.58L486,385.91L486.85,387.67L489.56,391.19L492.8,396.68L494.89,399.58L497.18,401.65L498.94,402.98L499.77,403.3L503.4,406.18L504.65,407.42L504.72,408.41L506.41,408.97L507.56,411.15L506.67,413.49L505.63,414.28L503.17,416.69L501.64,418.88L500.63,421.38L501.46,422.31L503.21,423.03L507.55,423.52L509.3,423.93L512.09,424.23L511.06,426.49L508.71,429.84L507.49,431.09L504.83,434.33L501.04,437.57L499.41,439.35L496.43,440.53L494.34,438.76L490.36,437.72L487.43,436.43L484.16,433.56L479.36,430.2L477.23,429.16L474.76,428.84L469.02,427.62L465.7,425.38L464.11,424.69L463.08,423.15L461.65,421.81L460.3,421.2L459.17,421.21L454.64,425.64L452.68,426.39L450.93,427.77L450.63,429.12L450.75,430.79L451.29,433.58L450.48,435.98L449.56,437.34L449.06,439.43L449.39,440.88L452.01,445L452.04,447.81L451.12,449.06L448.76,450.97L447.1,451.82L442.45,452.92L441.21,453.77L441.33,455.12L442.07,456.56L443.95,458.41L444.7,460.47L445.75,462.22L445.87,464.71L445.16,465.45L441.96,466.84L441.45,467.99L441.77,469.13L443.14,471.81L443.26,474.3L442.56,476.6L440.51,478.49L436.7,480.83L435.46,481.16L433.5,482.12L430.66,482.52L430.68,483.28L429.57,483.83L425.96,483.64L425.31,482.97L425.32,480.86L422.4,480.83L418.69,482.22L417.85,481.97L417.07,482.71L413.05,482.44L410.2,482.04L409.89,480.95L408.49,480.72L407.78,479.84L405.61,478.02L403.42,477.54L400.91,479.26L399.89,478.5L396.91,478.46L396.53,479.58L392.68,479.66Z" stroke-miterlimit="10" stroke="#FFFFFF"/>
<path title="单县" fill="#D3D3D3" id="path4" d="M368.18,588.53L369.1,588.69L369.62,579.09L368.7,575.91L367.79,570.4L369.56,566.78L368.92,562.12L369.14,555.72L373.51,556.35L374.86,556.34L375.51,554.89L377.21,554.87L377.93,553.51L377.44,550.51L378.34,549.07L380.51,547.43L380.35,546.66L381.36,545.51L382.67,543.12L383.47,540.53L381.42,531.63L380.05,528.12L379.21,527.09L378.57,525.12L378.74,521.8L379.32,518.07L379.07,514.23L379.25,511.43L377.66,510.94L378.58,505.23L381.63,505.88L387.09,506.65L388.06,502.65L390.13,499.49L391.47,495.19L397.44,495.47L397.49,491.22L396.56,488.13L394.86,486.36L394.31,486.18L392.54,483.92L391.79,481.23L391.77,479.05L392.68,479.66L396.53,479.58L396.91,478.46L399.89,478.5L400.91,479.26L403.42,477.54L405.61,478.02L407.78,479.84L408.49,480.72L409.89,480.95L410.2,482.04L413.05,482.44L417.07,482.71L417.85,481.97L418.69,482.22L422.4,480.83L425.32,480.86L425.31,482.97L425.96,483.64L429.57,483.83L430.68,483.28L430.66,482.52L433.5,482.12L435.46,481.16L436.7,480.83L440.51,478.49L442.56,476.6L443.26,474.3L443.14,471.81L441.77,469.13L441.45,467.99L441.96,466.84L445.16,465.45L445.87,464.71L445.75,462.22L444.7,460.47L443.95,458.41L442.07,456.56L441.33,455.12L441.21,453.77L442.45,452.92L447.1,451.82L448.76,450.97L451.12,449.06L452.04,447.81L452.01,445L449.39,440.88L449.06,439.43L449.56,437.34L450.48,435.98L451.29,433.58L450.75,430.79L450.63,429.12L450.93,427.77L452.68,426.39L454.64,425.64L459.17,421.21L460.3,421.2L461.65,421.81L463.08,423.15L464.11,424.69L465.7,425.38L469.02,427.62L474.76,428.84L477.23,429.16L479.36,430.2L484.16,433.56L487.43,436.43L490.36,437.72L494.34,438.76L496.43,440.53L499.41,439.35L501.04,437.57L504.83,434.33L507.49,431.09L508.71,429.84L511.06,426.49L512.09,424.23L514.47,425.05L515.4,425.87L516.14,427.74L516.57,430.86L516.99,432.31L517.85,433.86L519.8,434.79L520.52,435.62L522.39,436.85L524.25,437.36L527.24,437.45L529.1,438.78L531.28,439.92L536.55,441.33L538.31,441.95L541.84,443.9L544.86,446.57L546.94,449.26L549.43,451.11L552.23,452.44L553.99,452.84L558.14,453.11L561.45,454.33L563.93,454.1L566.43,455.74L567.36,457.23L567.41,459.81L578.05,460.37L578.13,458.69L581.76,458.42L584.14,459.13L586.62,460.26L589.84,461.49L593.77,463.64L595.09,464.05L594.41,465.06L594.4,468.85L594.72,470.82L594.73,473.58L594.54,476.18L593.83,478.88L593.44,483.35L593.55,484.38L593.17,490.19L593.09,494.03L592.89,496.42L592.83,503.27L593.05,505.44L592.65,507.73L590.69,508.88L588.32,509.21L585.74,509.02L584.61,509.23L580.9,510.51L579.57,511.55L578.75,513.84L578.88,517.47L579.72,518.88L579.21,520.51L579.76,521.71L577.85,522.29L577.64,523.66L578.04,526.28L580.64,526.78L582.97,524.95L585.11,525.82L587.91,527.77L588.43,528.49L588.85,530.35L588.55,532.22L587.63,534.2L586.1,535.53L586.32,537.9L585.98,539.15L583.34,540.29L583.66,543.44L583.68,545.72L583.38,547.59L581.13,551.33L579.29,553.42L578.26,554.88L578.37,556.33L579.52,558.08L581.9,560.23L581.13,563.18L578.61,565.3L575.28,567.54L573.26,568.72L566.98,568.83L566.05,570.18L563.63,577.75L559.73,577.92L558.39,577.62L557.35,576.49L554.76,574.75L549.19,574.28L547.35,574.92L546.43,577.31L546.66,579.48L546.45,582.38L545.87,584.55L545.05,585.18L542.68,585.3L541.76,585.57L539.98,587.85L539.55,589.7L537.69,590.48L537.86,591.78L539.24,592.13L539.21,592.85L537.93,592.97L537.63,593.7L536.9,593.7L536.76,595.89L535.24,595.82L536.59,597.71L534.96,600L532.38,599.71L529.66,598.48L528.27,597.18L527.27,595.66L526.22,592.93L524.49,590.37L523.53,589.47L521.5,588.61L519.58,588.14L517.84,588.07L516.9,588.42L513.59,591.55L511.59,592.83L507.83,594.58L506.64,595.33L503.57,597.72L501.16,599.11L499.08,599.44L497.54,599.35L496.08,598.37L495.04,596.98L492.97,596.41L489.37,590.73L488.04,587.51L488,586.53L486.79,582.87L480.62,575.64L473.71,574.51L463.49,580.33L456.98,581.39L451.92,577.38L446.83,571.12L443.63,569.68L439.84,571.34L437.38,574.99L437.52,579.27L437.11,583.09L436.33,584.53L431.91,586.1L423.08,586.55L417.06,587.29L413.57,588.1L390.47,591.79L387.27,593.75L386.32,593.75L385.13,593.1L382.97,592.77L382.42,593.4L383.05,594.74L383.23,596.03L381.58,596.88L379.01,597.05L377.58,596.52L376.26,594.92L370.78,591.11L369.72,590.65Z" stroke-miterlimit="10" stroke="#FFFFFF"/>
<path title="定陶区" fill="#D3D3D3" id="path2" d="M366.69,324.5L365.99,325.12L364.57,327.83L364.63,329.52L365.05,331.06L365.07,334.02L365.41,335.11L366.47,336.46L366.68,337.24L366.64,341.31L367.33,342.75L367.11,345.43L367.26,347.21L366.85,348.36L366.91,350.16L366.08,352.15L365.85,353.9L366.23,355.78L365.63,356.99L364.94,365.52L363.59,370.54L362.22,374.32L361.52,375.79L359.12,380L358.14,382.31L357.17,385.87L356.93,389.3L357.39,391.58L357.92,392.41L362.66,397L363.72,398.44L363.88,400.93L363.11,403.96L360.6,407.54L360.1,408.49L358.67,409.64L358.88,410.87L359.9,411.11L358.84,411.74L358.55,413.65L355.82,414.03L355.86,414.86L355.53,414.46L354.33,414.64L353.68,414L351.41,415.26L347.08,414.87L346.43,415.9L345.19,415.74L343.78,414.58L341.96,414.94L340.15,414.75L338.62,414.24L338.62,413.76L337.5,413.76L336.29,412.2L335.98,412.61L334.62,412.54L333.91,414.56L331.32,414.53L331.39,413.18L329.93,413.44L326.36,413.02L324.38,413.31L320.69,410.83L319.26,411.21L318.97,409.49L316.71,408.97L316.42,407.68L315.56,407.68L315.47,408.5L313.87,408.5L313.23,407.8L313.21,408.66L311.71,408.69L311.09,407.53L310.18,407.03L309.19,405.56L307.38,405.24L306.2,405.47L306.71,404.6L305.28,404.98L304.83,405.53L303.11,404.92L301.03,405.49L299.1,407.73L299.57,408.15L297.41,411.4L296.14,411.36L295.12,410.59L294.3,410.79L291.49,409.16L291.07,406.49L289.76,405.17L288.39,404.7L286.65,405.68L285.37,405.33L284.29,403.4L284.18,401.62L282.69,397.81L280.28,397.04L276.08,396.23L273.96,396.38L272.72,399.34L272.49,401.25L270.96,401.24L266.83,399.1L265.8,397.76L266.03,396.68L265.49,396.07L264.21,395.74L259.87,395.28L258.2,394.49L257.1,395.96L256.84,396.91L255.43,397.44L254.79,396.86L253.93,394.56L252.82,393.27L251.21,392.75L249.5,392.59L249.06,392.09L249.08,389.91L248.04,386.72L247.5,386.36L244.44,386.36L243.71,386.98L240.02,387.66L237.18,387.62L233.25,388.85L232.57,389.79L228.75,388.62L226.91,387.83L222.78,386.38L222.07,384.56L220.09,383.95L213.6,382.85L209.92,381.05L208.52,380.04L206.27,379.21L202.57,378.5L198.81,378.62L200.89,374.53L201.35,373.1L203.55,370.07L204.24,368.22L203.48,367.62L202.19,365.67L202.07,363.53L203.74,359.91L204.96,358.69L207.74,356.62L208.7,355.68L210.22,353.42L210.82,352.16L211.39,349.89L212.71,347.95L214.4,346.74L216.44,346.07L217.56,346.09L220.86,346.61L222.19,347.27L223.24,347.03L224.35,346.27L225.31,343.79L226.18,343.44L227.57,344.8L227.28,347.33L227.48,348.4L229.35,350.17L231.55,356.26L232.27,356.97L233.35,356.79L233.53,356.09L231.98,351.49L231.98,350.53L232.53,350.04L237.44,348.7L242.73,346.68L244.65,345.83L246.84,345.28L248.56,344.48L250.61,342.29L253.38,340.28L256.39,339.96L259.88,339.23L261.55,338.67L263.2,334.31L263.48,330.51L263.84,328.57L265.33,326.7L267.76,324.81L270.01,323.33L270.35,320.94L271.84,317.82L273.59,316.04L276.95,313.81L281.25,312.91L281.24,311.76L281.77,309.11L282.25,307.94L282.27,306.62L281.74,305.23L283.44,301.85L283.48,298.99L284.68,296.4L286.1,296.23L286.93,295.43L287.43,293.66L287.66,291.33L288.38,290.15L292.06,290.19L295.64,290.49L296.7,290.41L298.55,289.69L300.79,290.08L301.18,288.31L301.79,287.87L305.92,288.71L309.38,286.86L311.23,286.72L311.23,287.99L312.84,289.26L316.07,288.12L316.99,287.27L319.53,288.26L320.33,289.73L323.55,289.22L327.73,289.05L328.63,286.54L329.55,285.27L331.4,285.27L333.15,286.62L334.55,286.9L336.93,286.1L338.78,284.12L340.27,282.85L341.25,282.87L345.53,283.74L346.24,284.3L346.43,285.74L347.93,287.99L353.7,288.84L355.14,289.83L356.9,289.67L360.06,288.7L360.4,289.95L361.98,294.03L362.35,294.49L365.74,302.31L366.25,304.49L366.58,312.61L366.48,313.29L365.53,314.46L364.97,316L365.14,317.85L365.82,320.44L367.05,322.86Z" stroke-miterlimit="10" stroke="#FFFFFF"/>
<path title="东明县" fill="#D3D3D3" id="path9" d="M144.51,206.03L142.71,209.86L142.05,212.88L141.61,216.05L142.51,218.67L142.47,223.15L141.65,226.85L141.75,228.41L142.27,229.59L143.91,230.73L146.61,231.28L150.68,231.58L155.74,232.32L158.86,234.22L161.08,235.94L164.47,240.02L164.68,240.87L164.62,243.48L164.19,245.52L164.69,250.94L165.47,254.06L166.34,256.45L168.37,259.65L169.76,262.55L170.33,265.05L169.33,267.99L169.14,269.14L168.25,271.76L168.1,275.31L168.64,276.35L169.86,281.23L169.9,283.73L170.12,284.67L169.86,288.22L170.03,291.87L170.25,293.01L169.88,295.52L170.35,298.85L169.89,302.51L169.29,303.77L169.03,307.01L169.78,307.84L169.63,309.8L168.04,309.83L167.75,310.23L166.38,309.93L165.62,309.29L165.17,310.16L164.15,309.94L163.26,311.76L165.57,312.75L166.74,312.78L165.85,315.51L162.93,320.67L161.72,322.45L160.41,324.87L159.93,326.87L159.29,332.19L159.34,335.1L159.77,336.35L159.76,342.29L160.35,345.92L160.31,350.41L160.88,353.11L161.4,353.82L162.06,356L162.47,360.73L163.89,363.45L164.12,364.85L166.88,364.99L167.69,366.26L168.15,371.32L165.73,372.31L165.39,374.98L164.08,376.14L164.01,375.4L159.18,374.7L157.22,375.68L157.22,377.23L156.53,379.2L154.35,379.06L150.79,377.36L147.92,374.54L145.73,374.4L145.53,373.56L143.19,373.72L138.95,373.64L138.18,374.26L136.5,376.79L136.26,378.1L137.3,381.48L137.26,383.28L136.3,385.09L136.19,387.27L135.06,389.48L134.28,390.1L132.39,390.9L130.54,391.29L127.29,391.35L126.8,391.76L126.05,397.66L125.37,400.42L121.62,400.53L121.33,397.65L119.5,395.53L115.19,395.56L113.93,395.96L113,396.67L111.35,397.15L107.53,397.34L105.3,397.14L101.63,397.09L99.79,397.33L95.31,399.83L94.22,400.68L91.14,403.85L85.92,405.82L83.71,409.39L82.68,410.27L81.22,410.24L80.01,409.62L77.92,407.76L76.25,405.37L75.75,403.91L74.98,402.72L73.61,402.5L70.7,402.73L65.16,402.45L60.97,401.81L53.74,402.11L52.23,402.63L49.9,404.25L47.76,406.24L44.84,411.07L43.7,411.67L42.51,410.91L41.56,409.84L40.05,407.52L38.69,403.39L37.81,402.31L36.42,401.81L33.58,401.4L31.04,400.22L30.09,399.17L28.31,397.81L28.44,396.64L27.57,395.92L28.32,392.52L28.94,392.77L29.36,389.54L28.94,389.48L29.09,387.57L26.37,387.16L26.38,386.09L23.72,386.42L24.16,387.81L23.7,388.13L23.74,390.29L22.34,389.55L22.18,390.53L20.89,393.71L19.34,393.29L18.89,394.4L20.36,394.94L19.78,396.29L22.26,396.58L22.91,397.66L20.83,397.74L18.88,396.85L19.38,396.25L17.98,395.62L16.67,395.91L7.82,392.92L6.84,391.96L9.27,390.99L12.09,389.28L15.19,386.88L17.31,384.3L18.01,382.64L18.19,380.62L16.96,378.58L12.82,378.66L10.38,378.39L6.49,376.36L4.91,374.04L6.59,370.23L7.31,368.2L9.57,363.88L11.02,362.81L14.29,361.96L20.46,359.89L26.06,356.2L28.52,352.73L28.84,350.65L28.77,347.8L27.45,344.71L24.68,340.38L20.27,335.2L13.23,328.96L12.79,326.88L12.99,325.3L14.53,322.29L16.42,319.23L18.59,316.61L20.65,314.79L23.51,313.01L26.17,311.78L29.07,310.8L31.51,310.26L38.33,309.28L42.47,309.28L45.36,309.16L46.21,308.79L46.93,307.41L46.08,294.8L45.75,286.35L45.89,284.89L47.22,283.89L49.6,282.87L55.14,281.6L56.28,279.01L59.19,279.93L62.01,279.57L62.91,278.83L63.15,275.24L62.99,274.86L58.47,273.28L60.75,269.76L61.48,269.04L64.32,264.76L64.64,263.76L66.93,261.27L67.21,260.63L72.88,254.13L74.47,253.18L77.37,253.12L78.54,242.9L81.38,240.28L85.01,230.28L88.02,226.33L93.41,225.66L98.02,227.66L99.38,227.66L99.96,227.17L101.95,223.35L104.86,219.05L104.93,216.71L104.49,214.52L103.57,212.64L103.44,211.27L104.68,210.67L105.97,208.55L106.83,208.63L107.58,209.53L107.69,210.74L108.5,212.1L109.79,213.24L111.26,214.06L112.6,214.27L114.59,213.99L114.65,207.95L115.76,207.49L115.88,208.4L115.7,215.8L117.36,215.73L117.66,212.56L118.95,211.88L118.89,207.65L120.25,206.89L122.77,206.06L128.91,204.64L134.19,203.97L135.97,203.9L139.68,204.05L142.3,204.42Z" stroke-miterlimit="10" stroke="#FFFFFF"/>
<path title="巨野县" fill="#D3D3D3" id="path6" d="M499.16,347.27L493.68,347.78L490.19,347.45L485.03,348.13L479.14,348.09L475.99,347.88L476.76,343.86L474.82,343.07L474.39,344.41L474.31,347.27L473,347.65L470.39,347.62L470.36,346.48L471.02,346.44L471.15,344.95L470.81,344.59L471.12,341.82L470.7,341.12L471.6,341.12L470.92,340.2L464.23,341.19L461.57,342.05L461.63,343.19L460.48,343.76L460.8,345.42L461.57,345.61L462.37,347.21L462.08,347.46L462.3,349.18L463.86,349.09L463.48,350.65L460.45,350.52L460.26,349.88L458.9,349.85L458.64,347.87L457.87,347.87L457.78,348.99L457.27,348.48L455.29,348.45L454.62,348.83L452.65,348.41L446.66,349.6L446.73,350.55L444.75,350.74L444.72,349.97L443.1,349.97L442.97,348.45L441.34,347.93L438.41,347.59L438.37,344.6L437.84,344.74L429.95,342.47L429.48,342.46L426.16,341.21L422.71,340.98L419.76,340.99L419.67,341.73L418.51,342.5L417.48,342.47L415.1,344.36L412.07,344.73L408.73,344.33L403.65,343.99L400.73,343.97L400.57,342.29L401.3,340.44L401.81,338.15L398.96,337.64L394.79,336.71L393.2,336.18L390.73,335.72L385.74,335.68L385.72,329.82L384.37,328.08L382.89,327.65L380.98,328.41L378.13,330.42L377.28,330.62L375.47,330.24L373.94,328.4L373.52,326.45L369.14,324.61L366.69,324.5L367.05,322.86L365.82,320.44L365.14,317.85L364.97,316L365.53,314.46L366.48,313.29L366.58,312.61L366.25,304.49L365.74,302.31L362.35,294.49L361.98,294.03L360.4,289.95L360.06,288.7L363.87,288.72L366.95,288.38L369.32,288.45L371,287.48L371.06,285.42L370.38,284.38L368.01,284.16L367.25,282.49L368.03,278.54L368.05,277.21L368.79,270.85L369.03,266.63L368.7,263.82L368.02,261.57L367.73,258.79L368.09,253.67L367.97,252.41L368.37,250.84L368.45,248.75L369.15,246.76L371.6,243.29L372.31,242.03L372.1,240.89L370.05,234.43L369.72,232.45L370.21,229.73L373.09,228.14L374.22,227.08L377.5,225.69L379.63,225.52L379.92,225.05L381.43,225L381.85,224.06L383.17,224.08L383.18,223.08L384.52,223.01L384.57,222.36L387.07,222.44L387.09,223.04L388.46,222.17L389.41,222.55L390.37,223.5L390.59,224.4L391.92,226.63L395.08,227.98L396.79,229.02L397.32,230.22L399.43,233.05L401.48,234.06L402.96,234.16L403.07,231.39L403.56,230.75L407.52,230.7L411.15,230.97L412.97,230.88L418.28,229.29L422.85,227.42L426.48,226.41L429.07,224.67L430.61,224.47L432.95,224.56L434.27,224.29L435.88,223.48L437.47,222.13L438.34,220.61L439.01,216.54L440.33,215.41L442.33,214.72L442.56,213.73L442.58,211.01L443.34,208.77L445.1,207.08L447.44,205.34L447.37,206.14L455.35,206.23L454.9,197.48L456.16,196.27L457.6,194.06L458.42,192.17L458.41,190.38L458.07,187.67L458.36,185.79L459.61,184.62L460.44,184.3L461.47,183.24L466.76,179.94L467.9,179.4L469.05,179.49L471.24,180.51L472.6,180.81L474.47,180.59L476.84,178.26L479.32,175.21L481.7,173.83L484.91,172.75L486.37,172.43L488.36,172.73L489.21,175.24L490.84,175.03L491.41,177.55L490.9,177.77L491.12,181.6L492.75,181.73L493,183.19L494.94,183.32L496.98,184.02L498.7,184.18L499.44,182.3L500.96,182.24L503.54,182.65L503.61,183.29L502.75,183.26L502.14,186.89L502.59,187.59L501.86,190.83L503.09,191.47L502.27,192.2L501.25,194.53L502.72,195.07L503.07,194.18L504.05,194.5L505.36,192.08L508.54,193.73L509.34,192.93L509.06,191.06L509.5,190.23L508.83,189.88L508.77,187.2L509.02,185.74L509.71,185.36L511.79,183.23L511.82,180.65L512.92,180.65L513.45,183.35L512.93,185L514.03,185.13L515.26,185.84L516.03,187.01L515.9,190.42L514.79,191.03L516.98,190.86L517.53,186.63L518.29,186.06L519.79,185.93L519.53,187.4L518.03,189.34L517.91,191.28L516.95,191.37L518.13,192.05L517.55,192.33L518.29,193.61L517.87,194.88L519.56,196.19L518.89,199.43L521.76,199.97L523.01,199.48L523.44,201.91L523.17,206.82L521.96,211.74L521.97,213.83L522.39,215.19L522.72,217.59L523.15,218.84L525.04,222.69L526.12,228.75L526.03,230.73L525.12,234.71L522.87,238.27L521.94,239L517.91,240.8L516.57,241.85L514.83,244.26L514.95,246.98L515.38,248.86L516.44,252.3L516.67,256.27L517.11,259.08L518.79,262.2L521.28,263.13L522.32,264.06L523.06,265.31L524.54,269.89L524.65,271.25L526.04,277.5L525.98,279.34L531.08,278.75L536.74,276.45L539.71,274.83L541.69,274.29L543.11,275.05L547.47,283.58L549.02,287.42L549.25,291.95L548.52,295.4L544.92,305.91L543.63,309.37L542.89,310.8L539.32,310.36L538.08,310.38L535.17,308.77L533.07,305.61L532.44,304.36L530.04,303.03L530.07,306.79L529.87,307.73L528.95,308.88L527.78,309.35L522.11,308.29L522.43,309.44L523.79,312.35L525.37,315.05L525.61,316.99L526.14,317.88L526.02,318.95L524.06,321.63L523.15,323.4L522.75,325.08L522.65,326.95L521.23,329.67L519.07,331.45L517.33,334.59L516.93,335.94L515.19,338.35L513.66,340.86L511.42,345.87L510.5,346.71L506.78,346.52L505.22,345.59L501.77,345.63L500.28,346.04Z" stroke-miterlimit="10" stroke="#FFFFFF"/>
<path title="鄄城县" fill="#D3D3D3" id="path8" d="M193.82,176.32L197.8,174.55L200.6,174.85L203.99,174.8L205.25,173.32L204.8,171L204.97,168.88L204.8,167.32L203.62,164.3L201.95,156.88L203.15,151.81L205.08,152.63L205.75,150.58L200.36,148.88L200.02,145.86L202.62,146.67L203.82,145.04L204.82,145.36L205.28,140.46L207.88,141.68L207.88,142.9L209.08,143.06L209.54,137.92L214.19,138.89L214.37,134.89L216.59,135.05L217.12,134.21L218.36,130.68L221.52,126.58L224.05,124.2L224.81,123.06L225.9,117.92L226.42,113.74L227.31,112.4L229.16,110.59L232.88,106.47L235,104.86L236.17,102.67L239.86,96.98L243.21,87.79L247.99,80.38L252.29,74.4L256.73,70.07L261.78,66.63L266.46,67L266.97,66.75L267.58,64.3L268.2,63.67L269.84,63.43L273.9,64.2L277.1,65.17L278.56,64.29L279.71,61.84L280.7,61.38L284.21,62.79L288.33,65.06L289.4,65.07L289.93,64.5L290.49,61.43L298.56,60.77L301.84,61.11L303.87,60.57L304.15,59.79L307.57,59.68L310.6,58.99L312.34,58.31L315.74,56.5L318.77,55.7L320.61,55.48L319.1,58.9L318.28,59.83L314.39,61.58L316.2,64.87L317.23,66.3L319.2,67.54L319.84,67.57L323.1,69.48L324.06,69.84L326.7,69.55L327.8,69.66L328.87,70.35L329.38,71.85L329.02,73.05L327.32,74.77L325.38,76.38L324.9,77.21L324.2,80.84L324.73,81.92L326.34,84.01L326.96,85.8L326.8,89.39L325.65,92.09L325.23,93.87L325.57,95.75L326.43,98.05L327.18,99.08L329.07,100.21L331.27,100.91L332.53,100.99L334.51,100.45L336.9,100.3L340.25,101.3L340.89,101.86L342.68,101.96L343.05,102.93L343.12,108.97L343.27,112.13L342.41,112.51L337.83,112.83L337.11,114.32L337.12,115.89L336.64,121.88L333.18,124.69L334.35,125.4L332.89,126.43L328.66,130.55L328.54,131.15L329.52,131.94L332.78,132.15L333.3,132.59L333.21,135.23L332.29,137.8L331.94,139.97L332.79,143.21L331.79,148.38L335.2,148.85L335.47,149.47L335.28,153.58L335.72,155.74L336.58,156.98L337.62,160.48L337.53,163.25L337.13,164.45L335.79,166.81L335.46,168.72L335.45,170.47L333.96,173.58L334.13,174.94L334.62,175.77L337.24,178.65L337.55,180.39L337.04,182.93L336.06,184.64L335.32,186.73L335.56,187.82L336.51,188.75L337.37,190.39L338.26,193.75L335.12,198.02L333.53,199.84L332.88,199.21L331.22,198.86L329.26,198.93L327.53,199.6L326.31,200.57L325.03,202.59L322.98,207.38L322.43,210.34L318.71,210.94L316.42,212.86L315.75,214.46L315.17,217.21L313.88,218.59L313.58,219.63L312.7,219.9L310.8,219.72L310.07,220.71L309.12,221.16L307.22,221.25L307,222.6L307.29,224.38L305.75,225.26L304.06,224.74L300.04,224.94L294.88,225.01L291.86,222.73L291.95,221.76L289.42,221.73L289.07,222.16L288.73,224.13L287.24,224.84L285.05,223.56L281.72,222.29L280,222.42L279.43,221.29L277.71,220.72L275.3,221.14L274.95,225.09L272.77,226.36L269.33,226.21L265.78,223.51L263.6,221.1L261.42,221.1L258.33,221.65L255.12,221.64L251.79,219.79L250.07,219.5L248.47,220.06L246.4,219.34L245.14,217.36L246.02,216.22L245.69,215L244.63,212.84L242.72,211.27L240.69,210.47L238.43,209.11L238.11,208.59L233.97,207.73L230.72,207.24L225.96,208.62L221.54,209.03L221.14,210.54L220.13,210.98L219.22,210.66L217.45,211.03L215.4,210.76L214.67,209.77L214.12,207.22L213.06,206.27L210.46,205.31L208.07,204.68L206.83,203.78L205.57,201.81L203.7,200.9L201.66,200.88L195.02,201.17L192.23,201L190.99,199.86L190.85,198.23L191.08,193.72L190.39,190.14L191.59,189.34L192.79,187.95L193.2,186.18L193.24,182.37L193.93,180.21L194.03,178.49Z" stroke-miterlimit="10" stroke="#FFFFFF"/>
<path title="牡丹区" fill="#D3D3D3" id="path1" d="M164.08,376.14L165.39,374.98L165.73,372.31L168.15,371.32L167.69,366.26L166.88,364.99L164.12,364.85L163.89,363.45L162.47,360.73L162.06,356L161.4,353.82L160.88,353.11L160.31,350.41L160.35,345.92L159.76,342.29L159.77,336.35L159.34,335.1L159.29,332.19L159.93,326.87L160.41,324.87L161.72,322.45L162.93,320.67L165.85,315.51L166.74,312.78L165.57,312.75L163.26,311.76L164.15,309.94L165.17,310.16L165.62,309.29L166.38,309.93L167.75,310.23L168.04,309.83L169.63,309.8L169.78,307.84L169.03,307.01L169.29,303.77L169.89,302.51L170.35,298.85L169.88,295.52L170.25,293.01L170.03,291.87L169.86,288.22L170.12,284.67L169.9,283.73L169.86,281.23L168.64,276.35L168.1,275.31L168.25,271.76L169.14,269.14L169.33,267.99L170.33,265.05L169.76,262.55L168.37,259.65L166.34,256.45L165.47,254.06L164.69,250.94L164.19,245.52L164.62,243.48L164.68,240.87L164.47,240.02L161.08,235.94L158.86,234.22L155.74,232.32L150.68,231.58L146.61,231.28L143.91,230.73L142.27,229.59L141.75,228.41L141.65,226.85L142.47,223.15L142.51,218.67L141.61,216.05L142.05,212.88L142.71,209.86L144.51,206.03L145.41,206.44L147.21,205.84L149.83,205.34L151.88,205.34L155.41,206.05L158.03,205.96L160.04,205.34L164.29,202.25L167.52,199.66L173.13,193.87L173.3,192.81L172.42,190.71L172.47,189.98L174.13,189.29L176.44,186.69L178.35,186.49L181.99,182.61L185.94,179.43L193.82,176.32L194.03,178.49L193.93,180.21L193.24,182.37L193.2,186.18L192.79,187.95L191.59,189.34L190.39,190.14L191.08,193.72L190.85,198.23L190.99,199.86L192.23,201L195.02,201.17L201.66,200.88L203.7,200.9L205.57,201.81L206.83,203.78L208.07,204.68L210.46,205.31L213.06,206.27L214.12,207.22L214.67,209.77L215.4,210.76L217.45,211.03L219.22,210.66L220.13,210.98L221.14,210.54L221.54,209.03L225.96,208.62L230.72,207.24L233.97,207.73L238.11,208.59L238.43,209.11L240.69,210.47L242.72,211.27L244.63,212.84L245.69,215L246.02,216.22L245.14,217.36L246.4,219.34L248.47,220.06L250.07,219.5L251.79,219.79L255.12,221.64L258.33,221.65L261.42,221.1L263.6,221.1L265.78,223.51L269.33,226.21L272.77,226.36L274.95,225.09L275.3,221.14L277.71,220.72L279.43,221.29L280,222.42L281.72,222.29L285.05,223.56L287.24,224.84L288.73,224.13L289.07,222.16L289.42,221.73L291.95,221.76L291.86,222.73L294.88,225.01L300.04,224.94L304.06,224.74L305.75,225.26L307.29,224.38L307,222.6L307.22,221.25L309.12,221.16L310.07,220.71L310.8,219.72L312.7,219.9L313.58,219.63L313.88,218.59L315.17,217.21L315.75,214.46L316.42,212.86L318.71,210.94L322.43,210.34L322.98,207.38L325.03,202.59L326.31,200.57L327.53,199.6L329.26,198.93L331.22,198.86L332.88,199.21L333.53,199.84L333.93,200.32L336.12,201.32L338.25,201.98L339.48,202.81L338.78,206.93L338.97,209.31L341.2,211.69L341.44,212.86L345.33,214.35L347.93,214.31L351.15,214.48L355.84,215.26L359.05,215.22L361.03,216.03L363.43,216.74L365.51,216.93L366.45,217.44L368.34,219.41L369.08,220.86L369.2,222.22L370.6,227.01L370.21,229.73L369.72,232.45L370.05,234.43L372.1,240.89L372.31,242.03L371.6,243.29L369.15,246.76L368.45,248.75L368.37,250.84L367.97,252.41L368.09,253.67L367.73,258.79L368.02,261.57L368.7,263.82L369.03,266.63L368.79,270.85L368.05,277.21L368.03,278.54L367.25,282.49L368.01,284.16L370.38,284.38L371.06,285.42L371,287.48L369.32,288.45L366.95,288.38L363.87,288.72L360.06,288.7L356.9,289.67L355.14,289.83L353.7,288.84L347.93,287.99L346.43,285.74L346.24,284.3L345.53,283.74L341.25,282.87L340.27,282.85L338.78,284.12L336.93,286.1L334.55,286.9L333.15,286.62L331.4,285.27L329.55,285.27L328.63,286.54L327.73,289.05L323.55,289.22L320.33,289.73L319.53,288.26L316.99,287.27L316.07,288.12L312.84,289.26L311.23,287.99L311.23,286.72L309.38,286.86L305.92,288.71L301.79,287.87L301.18,288.31L300.79,290.08L298.55,289.69L296.7,290.41L295.64,290.49L292.06,290.19L288.38,290.15L287.66,291.33L287.43,293.66L286.93,295.43L286.1,296.23L284.68,296.4L283.48,298.99L283.44,301.85L281.74,305.23L282.27,306.62L282.25,307.94L281.77,309.11L281.24,311.76L281.25,312.91L276.95,313.81L273.59,316.04L271.84,317.82L270.35,320.94L270.01,323.33L267.76,324.81L265.33,326.7L263.84,328.57L263.48,330.51L263.2,334.31L261.55,338.67L259.88,339.23L256.39,339.96L253.38,340.28L250.61,342.29L248.56,344.48L246.84,345.28L244.65,345.83L242.73,346.68L237.44,348.7L232.53,350.04L231.98,350.53L231.98,351.49L233.53,356.09L233.35,356.79L232.27,356.97L231.55,356.26L229.35,350.17L227.48,348.4L227.28,347.33L227.57,344.8L226.18,343.44L225.31,343.79L224.35,346.27L223.24,347.03L222.19,347.27L220.86,346.61L217.56,346.09L216.44,346.07L214.4,346.74L212.71,347.95L211.39,349.89L210.82,352.16L210.22,353.42L208.7,355.68L207.74,356.62L204.96,358.69L203.74,359.91L202.07,363.53L202.19,365.67L203.48,367.62L204.24,368.22L203.55,370.07L201.35,373.1L200.89,374.53L198.81,378.62L198.51,379.76L197.18,381.44L196.23,381.79L195.28,381.45L194.67,380.58L191.77,374.81L189.24,375.1L185.78,374.68L182.32,374.97L178.98,379.9L177.94,380.33L174.37,379.06L174.44,376.9L169.42,373.17L169.19,375.27L167.81,376.4L167.46,378.5L164.24,377.94Z" stroke-miterlimit="10" stroke="#FFFFFF"/>
<path title="郓城县" fill="#D3D3D3" id="path7" d="M488.36,172.73L486.37,172.43L484.91,172.75L481.7,173.83L479.32,175.21L476.84,178.26L474.47,180.59L472.6,180.81L471.24,180.51L469.05,179.49L467.9,179.4L466.76,179.94L461.47,183.24L460.44,184.3L459.61,184.62L458.36,185.79L458.07,187.67L458.41,190.38L458.42,192.17L457.6,194.06L456.16,196.27L454.9,197.48L455.35,206.23L447.37,206.14L447.44,205.34L445.1,207.08L443.34,208.77L442.58,211.01L442.56,213.73L442.33,214.72L440.33,215.41L439.01,216.54L438.34,220.61L437.47,222.13L435.88,223.48L434.27,224.29L432.95,224.56L430.61,224.47L429.07,224.67L426.48,226.41L422.85,227.42L418.28,229.29L412.97,230.88L411.15,230.97L407.52,230.7L403.56,230.75L403.07,231.39L402.96,234.16L401.48,234.06L399.43,233.05L397.32,230.22L396.79,229.02L395.08,227.98L391.92,226.63L390.59,224.4L390.37,223.5L389.41,222.55L388.46,222.17L387.09,223.04L387.07,222.44L384.57,222.36L384.52,223.01L383.18,223.08L383.17,224.08L381.85,224.06L381.43,225L379.92,225.05L379.63,225.52L377.5,225.69L374.22,227.08L373.09,228.14L370.21,229.73L370.6,227.01L369.2,222.22L369.08,220.86L368.34,219.41L366.45,217.44L365.51,216.93L363.43,216.74L361.03,216.03L359.05,215.22L355.84,215.26L351.15,214.48L347.93,214.31L345.33,214.35L341.44,212.86L341.2,211.69L338.97,209.31L338.78,206.93L339.48,202.81L338.25,201.98L336.12,201.32L333.93,200.32L333.53,199.84L335.12,198.02L338.26,193.75L337.37,190.39L336.51,188.75L335.56,187.82L335.32,186.73L336.06,184.64L337.04,182.93L337.55,180.39L337.24,178.65L334.62,175.77L334.13,174.94L333.96,173.58L335.45,170.47L335.46,168.72L335.79,166.81L337.13,164.45L337.53,163.25L337.62,160.48L336.58,156.98L335.72,155.74L335.28,153.58L335.47,149.47L335.2,148.85L331.79,148.38L332.79,143.21L331.94,139.97L332.29,137.8L333.21,135.23L333.3,132.59L332.78,132.15L329.52,131.94L328.54,131.15L328.66,130.55L332.89,126.43L334.35,125.4L333.18,124.69L336.64,121.88L337.12,115.89L337.11,114.32L337.83,112.83L342.41,112.51L343.27,112.13L343.12,108.97L343.05,102.93L342.68,101.96L340.89,101.86L340.25,101.3L336.9,100.3L334.51,100.45L332.53,100.99L331.27,100.91L329.07,100.21L327.18,99.08L326.43,98.05L325.57,95.75L325.23,93.87L325.65,92.09L326.8,89.39L326.96,85.8L326.34,84.01L324.73,81.92L324.2,80.84L324.9,77.21L325.38,76.38L327.32,74.77L329.02,73.05L329.38,71.85L328.87,70.35L327.8,69.66L326.7,69.55L324.06,69.84L323.1,69.48L319.84,67.57L319.2,67.54L317.23,66.3L316.2,64.87L314.39,61.58L318.28,59.83L319.1,58.9L320.61,55.48L329.33,54.32L329.33,49.91L330.06,49.8L330.06,47.77L331.07,47.77L330.99,41.74L330.34,41.33L330.34,38.39L333.37,38.39L333.46,35.1L334.1,30.74L338.19,32.06L339.33,28.43L338.51,28.09L339.24,25.49L342.08,26.16L343.64,20.85L344.2,21.07L344.65,18.25L351.44,18.24L351.34,15.76L355.38,15.76L356.01,13.5L358.95,8.52L365.15,10.29L369.37,11.26L371.99,11.32L371.9,12.68L372.83,12.98L375.06,13.06L375.06,12.31L376.19,12.02L376.75,9.21L381.04,10.32L384.15,10.43L384.01,7.13L391.07,6.82L390.99,8.38L392.24,7.9L392.52,4.12L393.12,3.29L393.12,1.9L394.69,1.83L394.79,0.04L395.76,0L395.32,6.61L396.71,6.22L397.03,2.59L397.23,3.29L397.36,6.85L397.21,9.79L396.92,11.68L397.08,14.82L396.75,17.25L396.97,18.09L397.54,23.02L397.44,23.86L398.51,25.95L399.05,28.05L399.83,29.58L401.17,30.33L402.89,30.31L405.26,30.93L405.25,29.37L407.78,29.05L410.38,27.95L411.64,28.97L412.88,28.62L413.24,30.36L415.59,31.14L414.85,31.42L415.15,32.81L414.15,33.7L419.55,35.69L422.81,36.99L426.85,39.43L432.03,41.47L435.88,43.91L444.55,49.93L449.56,53.32L453.03,56.33L454.97,58.61L458.46,63.55L462.11,65.8L465.38,68.06L469.41,70.32L472.68,73.35L473.21,74.86L476.39,79.32L478.05,80.87L481.29,84.83L484.61,87.76L488.24,90.64L488.29,93.29L488.66,95.86L489.57,100.03L490.36,102.13L491.95,104.99L492.9,107.11L491.39,109.21L488.64,111.93L486.42,115.23L486.06,116.31L486.17,121.68L488.52,126.16L489.47,127.52L489.48,130.24L488.76,131.19L486.19,133.71L485.47,134.98L485.38,137.28L485.82,140L488.06,147.31L488.82,151.81L489.18,156.72L489.2,159.44L489.64,162.99L489.25,166.03L488.43,168.34L488.04,171.27Z" stroke-miterlimit="10" stroke="#FFFFFF"/>
</svg>