<svg xmlns="http://www.w3.org/2000/svg" xmlns:xlink="http://www.w3.org/1999/xlink" width="600" height="600">
<path Title="城阳区" fill="#D3D3D3" id="path6" d="M386,314.89L385.9,317.68L384.93,317.62L385.04,319.35L386.28,320.87L386.67,322.92L388.37,324.79L387.88,325.96L388.96,329.62L387.95,332.31L386.06,335.92L386.63,337.43L383.58,341.65L380.96,341.96L375.67,341.65L373.12,341.17L367.05,343.2L366.37,346.52L362.89,350.75L362.07,353.56L360.09,355.5L359.53,357.42L355.78,361.63L353.56,363.04L352.42,362.63L350.16,363.51L349.61,362.33L346.88,360.36L345.1,361.39L341.49,361.91L340.84,359.97L342.19,357.72L341.55,356.3L340.18,356.29L339.46,354.78L336.84,352.47L336.64,351.35L333.61,351.88L330.9,351.56L330.7,350.41L329.07,348.79L325.65,349.12L323.99,350.5L324.61,352.12L322.78,353.28L322.96,354.34L319.55,354.6L317.97,354.19L316.2,360.25L309,351.14L304.44,352.35L302.05,353.72L300.8,356.1L301.11,358.89L302.34,361.97L303.78,362.1L306.14,363.62L306.92,364.81L307.02,367.74L306.01,369.02L300.25,368.76L298.19,371.15L296.94,371.3L296.01,368.93L294.22,370.42L291.49,370.17L290.34,367.53L291.66,365.81L290.86,364.02L285.9,363.66L284.51,364.81L282.9,367.52L280.94,368.02L279.65,366.73L278.78,361.22L277.46,359.07L274.35,359L266.47,361.91L264.28,363.77L261.18,367.69L255.22,371.69L253.82,373.58L251.08,369.79L248.23,368.48L247.05,367.06L248.92,364.92L251.64,365.3L252.09,363.38L251.36,361.95L249.94,361.46L246.66,361.92L245.88,359.93L248.69,358.31L249.04,356.34L247.84,355.83L245.23,356.36L243.63,354.29L243.98,353.05L245.95,354.01L245.64,348.46L245.06,348.49L243.78,343.03L245.84,341.28L247.8,342.91L248.44,340.23L249.36,338.66L247.5,337.88L246.36,336.47L247.66,335.03L254.54,332.69L255.75,329.95L257.16,330.18L257.04,328.35L261.24,328.24L260.97,326.42L264.17,325.12L265.7,323.11L265.23,320.75L267.3,319.98L267.18,319.25L269.44,318.54L269.14,316.87L270.38,314.95L271.97,314.71L271.86,313.33L273.43,312.72L273.52,310.04L275.76,310.23L275.78,306.2L277.06,303L278.58,300.3L277.7,297.91L277.67,291.12L276.69,289.16L279.63,287.41L279.66,290.12L285.65,291.96L288.15,291.09L289.3,299.47L287.35,299.42L290,300.41L290.56,302.99L293.21,303.04L293.26,303.7L296.21,303.74L297.04,305.36L297.19,307.5L299.4,308.37L300.2,310.82L301.7,311.94L304.02,312.42L303.66,308.84L306.46,309.06L306.6,308.33L310.08,308.3L311.93,309.32L315.5,309.35L315.52,314.19L318.3,317.05L320.95,317.28L320.45,319.51L321.21,321.35L323.57,321.24L323.26,317.89L324.54,319L325.9,318.65L327.49,315.48L329.19,314.8L331.39,314.91L333.4,312.58L334.99,309.52L335.57,307L332,305.44L331.48,303.21L332.3,300.64L333.87,300.77L335.66,302.03L335.53,303.48L336.68,305.32L338.65,305.13L338.59,307.89L339.51,308.96L341.03,308.01L344.77,310.48L348.02,311.49L350.37,309.88L352.63,309.08L353.02,307.81L353.77,309.77L355.1,309.14L355.8,311.41L354.84,314.1L355.45,315L357.08,314.97L357.58,315.91L360.12,315.96L361.19,314.49L367.05,314.43L367.75,313.13L366.49,312.85L366.7,311.71L368.32,312.37L370.29,311.98L370,310.53L372.08,311.03L374.02,313.15L374.06,315.02L376,316.12L377.97,316.2L379.65,314.2L378.68,314.35L378.87,312.38L378.12,311.75L378.71,309.98L382.62,312.17L382.64,313.27L384.63,314.71Z" stroke-miterlimit="10" stroke="#FFFFFF"/>
<path Title="黄岛区" fill="#D3D3D3" id="path3" d="M123.78,423.56L124.8,424.02L125.09,425.61L127.56,425.3L129,427.15L129.9,430L131.82,430.17L131.86,432.09L135.75,431.32L137.69,433.04L137.99,435.29L139.95,434.59L140.93,435.54L143.44,435.2L144.02,433.08L143.93,430.51L145.67,427.51L147.34,427.4L148.55,428.98L153.53,429.26L153.33,428.53L155.41,427.24L155.64,425.41L156.6,424.18L154.9,422.7L155.82,420.48L157.47,420.47L160.45,418.77L161.63,419.79L165.09,417.03L167.09,416.53L169.34,417.34L169.6,418.62L172.12,420.36L172.37,422.54L173.4,422.29L175.52,419.86L177.92,420.56L177.95,419.56L181.68,417.81L183.41,418.92L184.19,417.01L187.04,415.9L189.72,416.39L192.84,415.39L195.16,413.41L199.32,412.51L201.46,411.62L203.11,415.05L205.86,412.71L205.58,410.65L206.38,408.88L204.25,405.37L205.98,405.08L207.09,407.38L210.8,407.57L211.01,406.37L212.89,406.13L214.39,404.29L212.92,397.94L210.65,397.46L213.84,396.08L213.87,392.34L215.09,392.35L215.14,390.17L213.42,389.81L213.28,388.7L214.46,384.57L216.65,384.17L219.46,386.74L221.99,386.66L223.73,385.66L226.6,386L228.54,387.48L232.62,386.22L234.83,387.15L236.54,388.84L238.8,389.93L244.07,391.03L246.34,396.12L246.6,400.37L247.78,401.15L254.3,402.07L257.43,403.27L260.43,408.04L262.33,408.62L264.13,410.12L264.21,412.25L266.49,414.19L270.6,415.07L281.93,415.21L284.85,416.5L285.31,418.52L284.73,421.29L283.63,422.24L281.53,422.39L281.29,424.26L282.97,425.6L282.19,427.16L282.83,427.83L279.4,430.95L279.39,433.23L272.92,439.8L271.04,439.65L271.79,441.08L274.05,441.04L276.21,440.08L280.5,436.86L282.71,434.45L285.95,431.7L289.65,430.03L292.27,433.46L292.27,434.13L289.47,437.39L287.13,442.47L286.79,446.08L287.48,447.13L289,446.73L289.46,443.5L290.84,442.44L290.38,439.89L292.29,439.06L293.27,441.42L294.04,441.75L296.34,440.84L295.06,437.68L296.02,436.13L298.45,434.64L298.34,433.26L300.14,432.77L305.78,434.09L306.12,436.07L307.93,438.64L304.42,450.15L302.77,451.58L298.15,452.53L293.36,452.17L291.1,452.56L287.96,454.88L287.12,456.37L286.42,459.4L283.91,459.66L282.33,461.63L278.91,467.94L274.99,470.72L273.48,473.45L273.09,475.41L273.73,477.82L272.78,480.42L267.6,482.16L262.73,481.74L262.28,480.28L263.37,478.64L263.58,475.73L267.29,471.46L267.88,468.8L268.67,467.79L270.6,467.21L270.44,464.5L273.14,464.06L275.46,462.83L275.97,460.13L274.55,459.44L272.82,460.48L269.79,461.24L265.78,463.5L262.88,468.97L261.13,469.38L262.31,470.41L260.56,471.15L258.87,473.94L256.08,474.43L254.84,473.06L254.29,470.04L253,470.63L254.54,473.84L252.42,475.36L250.02,474.46L249.24,474.86L248.79,479.19L247.07,481.76L245.26,483.05L242.1,484.26L238.59,484.27L236.51,484.85L234.88,482.81L232.58,484.4L230,488.27L228.1,492.73L226.54,495.53L221.9,505.93L220.9,509.01L220.93,513.03L223.64,515.92L225.83,520.43L225.89,522.01L223.94,524.1L223.87,526.92L222.2,529.29L222.24,532.76L220.33,533.38L218.28,539.93L217.25,542.02L217.03,544.34L214.1,548.15L212.73,546.11L211.16,545.51L207.64,547.34L204.93,547.35L205.07,545.73L206.42,541.92L204.08,538.21L202.13,538.91L200.81,537.89L201.47,534.59L198.4,530.78L196.91,530.02L191.38,529.15L189.99,529.33L187.61,531.12L186.51,533.66L186.36,538.95L187.49,539.44L188.11,541.26L189.32,542.22L191.92,542.42L195.13,541.86L196.38,543.47L196.24,548.19L193.76,551.07L187.32,554.47L185.92,556.43L185.31,559.76L183.33,562.87L183.05,566.6L183.74,568.04L187.25,570.05L188.55,571.89L188.55,573.67L187.13,577.65L184.65,578.21L180.74,578.5L178.31,580.1L173.1,586.82L170.26,587.62L169.31,587.04L165.16,582.61L163.02,582.03L160.19,584.21L158.93,584.03L158.51,582.08L159.02,578.98L158.37,574.44L156.74,573.46L154.93,576.38L152.16,577.99L149.45,580.95L149.94,583.3L148.63,583.32L147.01,585.11L147.49,586.13L150.2,587.49L149.41,591.45L147,593.28L149.52,597.8L147.86,599.54L145.03,600L143.16,596.68L139.94,599.56L137.74,599.14L134.79,595.23L134.32,584.21L127.74,583.8L124.06,585.04L113.06,594.73L111.66,595.26L106.92,595.01L103.63,595.2L100.02,593.07L97.75,590.17L95.04,590.21L93.66,588.38L92.44,588.56L92.17,590.89L90.68,593.97L88.01,594.64L87.13,591.28L85.48,590.7L82.53,593.61L80.25,593.93L80.94,596.15L78.84,595.94L77.88,594.6L76.5,594.87L74.47,593.78L68.84,595.01L68.3,593.44L69.01,591.64L68.44,588.68L64.04,586.85L62.68,585.13L62.57,581.21L64.62,578.76L63.22,577.68L64.22,577.05L64.38,574.84L65.21,573.97L64.63,572.61L65.53,570.61L65.33,567.05L65.79,562.87L64.46,560.15L62.98,558.62L61.67,553.91L63.09,552.18L63.58,546.78L62.59,543.99L64.01,541.19L64.93,541.58L65.5,544.37L68.24,544.65L70.95,543.04L71.52,543.98L75.71,544.92L77.41,546.54L77.54,547.65L79.33,547.37L80.75,548.47L83.84,548.18L84.39,547.21L87.44,548.12L88.2,549.58L92.18,546.85L94.51,548.71L95.42,548.3L96.37,544.8L95.82,543.25L92.6,540.34L89.52,535.2L88.07,533.88L85.35,533.01L86.67,525.23L87.84,524.29L91.39,524.16L93.36,519.24L90.59,515.58L91.6,510.61L92.9,510.82L94.77,509.19L96.76,505.09L97.93,504.65L96.85,502.47L98.64,501.85L103.13,498.17L104.96,498.28L107.58,499.77L111.17,499.2L111.06,497.06L112.83,495.72L114.44,493.34L114.55,491.89L116.67,490.96L119.78,491.07L122.24,493.35L122.96,494.97L124.18,495.17L126.29,493.81L126.38,492.79L124.87,491.71L125.37,490.62L127.53,491.82L128.18,490.8L129.88,491.41L129.4,489.92L130.23,487.6L129.27,484.92L129.26,482.91L128.53,480.95L129.08,480.19L127.07,476.44L125.09,474.86L124.27,472.69L124.62,471.01L123.5,468.47L121.81,466.94L121.23,468.66L118.96,468.4L119.55,463.82L117.98,461.83L119.09,460.53L117.77,457.4L115.52,453.24L113.88,446.05L114.67,443.02L114.28,440.27L115.21,439.38L114.05,437.17L113.28,437.51L112.73,434.88L114.45,432.68L117.36,431.43L117.49,429.65L120.53,428.72L121.18,426.24L122.58,424.07ZM188.17,579.95L188.34,578.82L190.64,576.79L191.03,577.77L190.12,579.74L189.07,580.05L189.21,582.06L187.42,581.38ZM129.37,592.56L130.48,591.08L131.95,594.23L131.4,597.04L130.45,595.68ZM259.5,528.57L262.91,523.11L263.57,520.7L266.16,519.6L266.84,520.98L266.66,524.06L267.44,527.82L269.95,531.53L269.68,533.21L268.43,534.72L263.86,537.48L261.86,537.69L259.44,536.17L258.45,533.55L258.74,529.98ZM162.15,585.23L161.96,587.11L161.23,585.82ZM259.7,473.61L260.78,473.41L260.41,474.8ZM266.34,464.17L267.17,464.68L266.29,466.27ZM306.45,460.54L307.4,459.36L309.01,461.16L307.42,462.73Z" stroke-miterlimit="10" stroke="#FFFFFF"/>
<path Title="即墨区" fill="#D3D3D3" id="path7" d="M412.23,316.88L411.54,317.53L406.28,317.29L405.24,315.72L404.98,312.97L405.55,310.06L404.06,310.65L402.81,309.51L401.03,312.43L400.86,317.05L397.83,315.33L393.48,315.4L390.37,314.56L389.26,315.42L386,314.89L384.63,314.71L382.64,313.27L382.62,312.17L378.71,309.98L378.12,311.75L378.87,312.38L378.68,314.35L379.65,314.2L377.97,316.2L376,316.12L374.06,315.02L374.02,313.15L372.08,311.03L370,310.53L370.29,311.98L368.32,312.37L366.7,311.71L366.49,312.85L367.75,313.13L367.05,314.43L361.19,314.49L360.12,315.96L357.58,315.91L357.08,314.97L355.45,315L354.84,314.1L355.8,311.41L355.1,309.14L353.77,309.77L353.02,307.81L352.63,309.08L350.37,309.88L348.02,311.49L344.77,310.48L341.03,308.01L339.51,308.96L338.59,307.89L338.65,305.13L336.68,305.32L335.53,303.48L335.66,302.03L333.87,300.77L332.3,300.64L331.48,303.21L332,305.44L335.57,307L334.99,309.52L333.4,312.58L331.39,314.91L329.19,314.8L327.49,315.48L325.9,318.65L324.54,319L323.26,317.89L323.57,321.24L321.21,321.35L320.45,319.51L320.95,317.28L318.3,317.05L315.52,314.19L315.5,309.35L311.93,309.32L310.08,308.3L306.6,308.33L306.46,309.06L303.66,308.84L304.02,312.42L301.7,311.94L300.2,310.82L299.4,308.37L297.19,307.5L297.04,305.36L296.21,303.74L293.26,303.7L293.21,303.04L290.56,302.99L290,300.41L287.35,299.42L289.3,299.47L288.15,291.09L285.65,291.96L279.66,290.12L279.63,287.41L276.69,289.16L277.67,291.12L277.7,297.91L278.58,300.3L277.06,303L274.76,301.4L272.64,301.43L271.17,299.48L267.51,298.63L266.65,297.61L267.72,297.2L267.19,296.07L264.54,295.48L264.44,294.39L262.4,294.09L262.41,293.38L259.65,293.35L257.9,291.81L256.27,285.61L257.91,283.17L257.13,279.6L258.89,278.76L259.54,277.13L261.48,276.81L261.47,274.33L260.51,274.07L259.85,271.75L254.56,271.44L252.41,270.71L252.8,266.65L253.8,265.6L257.9,264.25L258.69,262.85L258.56,260.07L259.2,258.68L260.39,258.56L263.1,259.76L264.45,259.42L265.37,256.47L264.66,254.94L262.06,253.47L261.97,249.64L259.02,245.97L259.17,243.4L260.22,241.44L259.62,239.23L255.78,236.06L254.7,232.78L257.63,228.06L258.46,224.27L258.52,221.08L260.55,218.08L262.09,218.78L265.3,216.85L268.52,216.37L270.15,214.48L273.16,213L274.15,211.72L273.36,206.73L273.57,205.19L274.96,204.21L276.22,202.23L277.76,201.32L280.28,201.14L283.01,198.62L285.59,198.64L288.57,199.94L290.4,202.69L292.32,204.08L293.73,204.16L294.48,202.41L296.86,203.7L302.89,204.21L304.6,203.72L304.65,202.33L307.2,202.29L307.45,200.76L309.3,201.55L310.84,201.29L310.56,202.41L313.82,201.41L314.51,200.01L315.8,200.26L316.08,202.32L322.61,202.9L323.42,198.75L325.24,199.15L325.26,201.17L324.02,203.72L327.41,204.7L329.1,201.58L333.98,200.3L334.07,201.65L335.78,202.28L335.49,203.06L339.84,204.64L340.01,205.47L342.54,204.63L351.82,204.3L351.62,206.51L352.64,208.05L353.7,207.18L357.2,207.68L357.27,206.69L359.54,206.57L360.06,204.08L361.94,203.86L362.76,202.14L365.52,199.39L367.67,199.69L370.72,201.35L371.6,202.37L371.36,203.79L373.02,202.81L375.31,202.8L375.3,204.68L373.84,205.49L375.28,205.92L376.93,208.23L377.89,210.5L377.08,212.3L376.04,212.66L375.84,215.16L377.32,216.75L377.17,220.09L377.66,221.28L382.09,221.43L383.72,218.93L387.9,218.25L387.56,214.45L389.98,213.78L390.26,212.42L388.96,210.46L390,210.12L391.56,211.24L392.31,209.59L392.36,211.94L393.71,214.15L393.77,215.32L397.22,214.56L399.04,216.64L400.24,216.87L401.53,214.36L403.42,214.09L403.37,214.99L405.6,214.97L405.97,215.45L406,219.54L406.61,220.62L410.01,218.79L411.55,218.84L414.81,216.88L415.09,215.55L416.45,215.97L417.01,214.86L419.75,214.92L421.6,213.1L423.36,212.38L423.39,211.42L426.65,211.39L425.46,208.22L428.31,205.81L428.28,202.57L434.06,201.46L436.42,203.25L435.39,203.08L436.02,204.75L437.52,203.71L438.56,204.48L441.56,205L443.41,208.43L445.86,208.08L449.4,210.55L450.4,212.8L450.22,213.99L452.22,214.72L471.84,206.07L474.43,206.85L476.71,208.61L481.34,209.36L482.51,210.22L484.71,214.98L484.51,217.43L485.15,218.72L491.06,222.84L493.3,221.46L494.47,221.46L496.5,223.36L498.34,224.02L503.32,224.81L504.88,224.6L508.47,226.25L512.76,231.45L512.95,233.4L509.8,237.1L506.44,241.66L503.86,246.1L505.18,249.49L504,251.62L504.06,253.08L507.96,257.42L508.28,258.79L506.71,262.63L503.27,264.6L501.68,268.38L498.94,268.82L497.78,266.31L496.9,265.92L493.35,266.11L491.88,267.48L489.91,268.01L489.58,269.64L492.51,273.69L492.94,277.5L495.02,279.6L497.95,279.15L498.29,280.18L497.5,282.02L495.7,283.35L494.12,282.77L494.58,281.15L492.83,280.03L492.04,281.54L488.2,284.84L484.61,291.13L486.38,294.03L485.91,296.31L484.44,297.35L482.3,297.68L478.58,299.78L479.72,298.35L479.31,297.39L475.53,295.96L473.33,294.1L472.69,292.37L472.57,288.86L471.57,285.99L474.74,282.45L475.49,279.84L474.55,277.8L470.57,274.61L468.69,274.15L468.23,273.07L469.47,271.31L469.65,265.15L469.13,263.32L467.82,264.29L465.72,263.36L465.2,261.74L444,263.29L443.17,265L443.6,268.17L444.67,270.7L444.2,274L441.41,275.24L437.06,274.66L435.58,275.56L434.04,278.43L433.72,281.88L430.94,282.6L428.78,284.47L427.28,287.6L424.82,289.48L424.01,290.95L424.62,296.28L425.86,298.17L428.72,299.36L430.8,302.26L432.71,301.61L433.94,302.52L434.82,306.34L437.91,310.61L438.25,312.34L439.53,313.6L439.38,314.6L437.59,314.79L437.47,316.29L430.6,314.53L428.18,314.3L423.31,315.6L420.95,314.55L416.55,314.38L415.57,312.85L414.37,313.21ZM514.83,282.09L512.19,280.51L508.28,281.17L506.72,281.98L502.63,281.55L501.79,280.44L502.08,279.13L504.31,277.37L506.8,277.78L507.81,277.09L507.57,275.78L508.61,275.14L511.17,276.26L513.82,279.54L515.86,279.71L515.72,281.63ZM519.2,253.47L514.65,254.63L514.07,252.41L514.78,251.91L518.86,252.68ZM522.2,271.84L522.87,272.22L523.39,274.64L521.62,274.99ZM497.17,284.76L498.19,285.47L497.32,286.79L496.43,286.29ZM474.37,296.72L476.12,297.92L475.83,299.57L473.93,299.11L473.24,297.52ZM499.26,282.75L500.35,283.66L499.14,284.53L497.67,282.97ZM537.14,231.45L538.33,233.04L537.87,234.31L536.17,233.86Z" stroke-miterlimit="10" stroke="#FFFFFF"/>
<path Title="胶州市" fill="#D3D3D3" id="path8" d="M123.78,423.56L123.85,422.66L121.52,420.66L122.01,419.21L119.82,418.47L117.22,419.31L113.62,417.71L111.07,415.12L109.96,416L110.15,417.22L108.02,417.48L108.32,415.53L106.12,415.39L106.09,414.58L102.58,414.4L102.09,413.5L98.15,413.74L97.56,408.78L98.38,408.29L97.7,404.68L98.75,403.82L101.07,403.41L105.35,401.13L105.53,398.18L104.42,397.52L104.09,395.26L101.25,391.13L101.96,389.65L103.55,389.86L103.17,387.34L103.94,384.93L105.49,383.36L105.49,380.76L106.52,380.88L106.15,378.07L107.89,377.61L109.07,375.37L108.9,372.94L109.65,371.84L112.8,370.87L112.99,369.63L114.02,371.46L115.99,372.44L118.12,371.34L119.83,372.43L122.69,372.82L123.41,372.2L127.46,373.03L128.62,373.87L128.94,377.29L130.56,378.45L131.82,377.94L133.32,379.15L135.2,379.01L137.2,378.1L137.76,376.83L140.77,375.71L141.54,376.43L143.98,376.62L146.5,375.52L146.9,374.21L148.59,374.62L148.77,375.79L149.91,375.15L153.26,375.71L153.33,372.84L155.81,374.35L156.14,371.79L159.01,370.79L158.89,369.16L157.3,368.13L157.67,366.73L156.38,363.82L158.11,359.34L155.26,358.91L153.78,356.18L152.77,352.04L151.74,350.92L153.48,348.08L154.56,348.04L155.68,346.47L155.19,341.88L157.41,341.5L158.61,340.36L158.62,338.42L159.56,336.97L159.67,333.41L165.45,326.24L165.98,324.44L169,323.87L169.36,321.93L170.88,320.91L177.52,318.17L177.33,315.9L179.05,312.34L179.46,308.22L178.83,306.28L180.05,302.29L179.47,299.92L181.46,298.67L181.02,296.72L182,296.34L181.3,294.24L183,293.15L186.23,292.68L186.56,293.19L189.3,292.84L191.15,294.57L193.95,293.04L192.71,289.08L190.79,287.86L189.3,286.09L188.11,285.91L187.49,282.42L187.74,279.81L190.41,279.54L191.03,276.72L192.32,276.17L192.59,273.55L193.81,272.22L195.1,269.43L196.56,270.3L198.07,268.85L200.99,268.08L208.9,267.97L209.67,269.51L211.2,269.6L212.52,268.65L212.32,266.88L214.34,266.48L214.11,263.45L215.26,262.96L214.63,261.29L212.82,260.91L211.96,257.61L213.99,254.95L212.22,254.49L211.99,253L212.85,249.39L213.18,249.68L220.52,255.99L222.38,254.64L221.76,253.62L223,252.66L223.5,253.76L227.22,256.49L227.3,257.79L229.72,258.07L230.55,255.43L234.65,254.25L234.66,253.46L246.35,255.23L246.68,253.62L249.34,251.91L250.71,251.88L250.41,253.63L253.43,253.73L253.29,254.89L260.12,255.55L260.71,256.59L262.55,257.27L263.1,259.76L260.39,258.56L259.2,258.68L258.56,260.07L258.69,262.85L257.9,264.25L253.8,265.6L252.8,266.65L252.41,270.71L254.56,271.44L259.85,271.75L260.51,274.07L261.47,274.33L261.48,276.81L259.54,277.13L258.89,278.76L257.13,279.6L257.91,283.17L256.27,285.61L257.9,291.81L259.65,293.35L262.41,293.38L262.4,294.09L264.44,294.39L264.54,295.48L267.19,296.07L267.72,297.2L266.65,297.61L267.51,298.63L271.17,299.48L272.64,301.43L274.76,301.4L277.06,303L275.78,306.2L275.76,310.23L273.52,310.04L273.43,312.72L271.86,313.33L271.97,314.71L270.38,314.95L269.14,316.87L269.44,318.54L267.18,319.25L267.3,319.98L265.23,320.75L265.7,323.11L264.17,325.12L260.97,326.42L261.24,328.24L257.04,328.35L257.16,330.18L255.75,329.95L254.54,332.69L247.66,335.03L246.36,336.47L247.5,337.88L249.36,338.66L248.44,340.23L247.8,342.91L245.84,341.28L243.78,343.03L245.06,348.49L245.64,348.46L245.95,354.01L243.98,353.05L243.63,354.29L245.23,356.36L247.84,355.83L249.04,356.34L248.69,358.31L245.88,359.93L246.66,361.92L249.94,361.46L251.36,361.95L252.09,363.38L251.64,365.3L248.92,364.92L247.05,367.06L248.23,368.48L251.08,369.79L253.82,373.58L254.49,384.91L252.46,388.29L250.05,390.16L244.07,391.03L238.8,389.93L236.54,388.84L234.83,387.15L232.62,386.22L228.54,387.48L226.6,386L223.73,385.66L221.99,386.66L219.46,386.74L216.65,384.17L214.46,384.57L213.28,388.7L213.42,389.81L215.14,390.17L215.09,392.35L213.87,392.34L213.84,396.08L210.65,397.46L212.92,397.94L214.39,404.29L212.89,406.13L211.01,406.37L210.8,407.57L207.09,407.38L205.98,405.08L204.25,405.37L206.38,408.88L205.58,410.65L205.86,412.71L203.11,415.05L201.46,411.62L199.32,412.51L195.16,413.41L192.84,415.39L189.72,416.39L187.04,415.9L184.19,417.01L183.41,418.92L181.68,417.81L177.95,419.56L177.92,420.56L175.52,419.86L173.4,422.29L172.37,422.54L172.12,420.36L169.6,418.62L169.34,417.34L167.09,416.53L165.09,417.03L161.63,419.79L160.45,418.77L157.47,420.47L155.82,420.48L154.9,422.7L156.6,424.18L155.64,425.41L155.41,427.24L153.33,428.53L153.53,429.26L148.55,428.98L147.34,427.4L145.67,427.51L143.93,430.51L144.02,433.08L143.44,435.2L140.93,435.54L139.95,434.59L137.99,435.29L137.69,433.04L135.75,431.32L131.86,432.09L131.82,430.17L129.9,430L129,427.15L127.56,425.3L125.09,425.61L124.8,424.02Z" stroke-miterlimit="10" stroke="#FFFFFF"/>
<path Title="莱西市" fill="#D3D3D3" id="path10" d="M405.6,214.97L403.37,214.99L403.42,214.09L401.53,214.36L400.24,216.87L399.04,216.64L397.22,214.56L393.77,215.32L393.71,214.15L392.36,211.94L392.31,209.59L391.56,211.24L390,210.12L388.96,210.46L390.26,212.42L389.98,213.78L387.56,214.45L387.9,218.25L383.72,218.93L382.09,221.43L377.66,221.28L377.17,220.09L377.32,216.75L375.84,215.16L376.04,212.66L377.08,212.3L377.89,210.5L376.93,208.23L375.28,205.92L373.84,205.49L375.3,204.68L375.31,202.8L373.02,202.81L371.36,203.79L371.6,202.37L370.72,201.35L367.67,199.69L365.52,199.39L362.76,202.14L361.94,203.86L360.06,204.08L359.54,206.57L357.27,206.69L357.2,207.68L353.7,207.18L352.64,208.05L351.62,206.51L351.82,204.3L342.54,204.63L340.01,205.47L339.84,204.64L335.49,203.06L335.78,202.28L334.07,201.65L333.98,200.3L329.1,201.58L327.41,204.7L324.02,203.72L325.26,201.17L325.24,199.15L323.42,198.75L322.61,202.9L316.08,202.32L315.8,200.26L314.51,200.01L313.82,201.41L310.56,202.41L310.84,201.29L309.3,201.55L307.45,200.76L307.2,202.29L304.65,202.33L304.6,203.72L302.89,204.21L296.86,203.7L294.48,202.41L293.73,204.16L292.32,204.08L290.4,202.69L288.57,199.94L290.84,200.6L291.96,199.79L292.74,196.99L293.79,195.87L296.56,196.31L298.26,195.84L300.59,193.8L300.94,189.14L302.36,186.64L302.24,185.04L300.72,182.62L297.23,180.66L295.85,176.21L294.93,175.26L295.17,172.54L294.21,171.09L294.54,165.71L294.53,159.87L295.47,158.82L294.76,156.56L295.03,153.69L294.31,150.65L293.58,150.13L292.59,146.79L293.14,145.94L291.78,142.98L291.17,135.28L291.38,133.71L294.38,127.64L295.29,121.17L297.38,115.33L297.34,114.11L298.59,107.76L299.03,103.06L300.24,99.9L301.38,98.32L301.26,96.16L298.9,92.94L297.08,91.75L296.71,90L297.27,87.88L298.45,87.03L302.32,85.7L303.71,84.32L305.76,78.17L309.08,73.47L309.28,69.94L307.41,66.67L304.35,63.31L304.47,61.88L305.95,59.81L310.3,57.77L310.36,55.63L307.81,54.93L305.27,55.45L304.33,53.79L302.39,54.16L302.8,55.17L300.91,56.28L297.59,55.98L294.52,53.06L295.73,49.31L297.51,49.36L300.92,48.31L302.3,45.7L301.01,45.42L300.08,43.62L296.02,41.97L293.44,42.33L291.9,43.35L288.58,43.82L288.13,45.53L285.05,45.38L283.86,44.67L284.45,42.96L282.96,40.13L281.5,39.27L279.14,41.08L276.42,41L274.94,40.26L275.71,35.97L277.2,35.49L277.5,33.1L276.46,30.3L277.67,27.79L277.42,26.21L278.44,23.78L281.31,22.85L280.78,20.91L282.23,19.54L281.73,16.39L282.55,12.51L282.09,11.93L283.4,8.81L285.34,10.16L286.17,11.53L287.87,11.07L290.64,12.99L291.83,13.15L294.1,11L294.12,9.88L297.23,6.81L298.05,8.85L299.48,6.85L302.39,7.34L303.42,6.27L303.71,8.99L302.91,10.72L303.41,11.81L303.47,14.86L304.25,15.66L304.33,13.19L306.55,14.06L307.58,13.8L309.2,16.29L312.59,14.2L313.68,16.26L312.76,17.74L314.2,17.18L313.82,21.56L317.04,23.85L316.67,25.39L317.79,27.64L319.02,26.73L318.83,25.21L320.63,24.83L320.81,22.3L322.09,18.47L324.26,17.02L326.79,16.78L328.86,17.68L329.95,17.19L333,20.19L336.31,20.68L337.55,17.6L335.76,13.88L338.23,14.74L339.15,13.25L341.07,13.98L343.58,13.08L343.39,12.41L345.71,12.29L345.95,10.09L347.05,9.74L348.08,11.49L350.2,11.48L352.92,12.98L355.28,10.78L357.74,9.49L359.84,9.71L362.16,8.52L362.4,5.52L366.05,2.04L366.39,0L370.36,0.22L370.44,1.84L372.63,2.12L372.9,4.66L376.07,6.63L377.54,6.33L377.37,7.77L378.93,13.8L378.32,17.13L376.24,17.22L376.85,19.75L375.84,22.56L375.47,25.76L376.85,26.91L377.16,28.72L376.19,29.71L376.84,32.29L376.54,34.08L374.7,35.11L374.52,36.55L375.75,38.86L377.28,39.22L377.11,40.32L379.59,41.43L382.41,39.06L386.06,39.46L388.22,37.77L389.05,34.66L390.23,34.93L390.87,38.63L395.67,39.73L396.92,39.16L397.95,42L396.56,41.92L396.23,43.24L397.82,43.42L399.28,48.13L398.54,49.75L396.89,50.19L395.55,52.42L396.77,53.07L396.99,56.85L395.91,57.3L395.22,60.32L393.12,60.67L392.07,59.58L391.81,57.95L390.65,57.99L389.6,56.62L387.62,57.67L387.04,62.09L385.35,63.73L384.74,70.54L382.82,72.43L383.71,75.87L384.65,77.04L386.14,77.04L387.14,79.02L386.35,81.04L387.34,85.35L388.5,85.7L390.73,88.75L391.73,88.41L392.83,91.05L394.95,90.93L395.13,91.71L400.36,91.47L401.11,90.69L402.02,92.91L401.74,95.44L402.02,99.26L400.74,100.15L397.67,101L397.83,102L395.22,101.41L392.84,102.6L390.75,102.43L387.84,103.47L387.8,105.45L388.58,108.15L388,110.07L388.82,111.53L391.45,111.47L393.77,113.92L391.18,117.39L391.86,119.25L393.77,119.53L395.9,120.98L398.03,121.51L398.8,122.92L397.77,124.54L397.23,127.11L396.55,127.56L396.7,130.23L395.49,132.21L392.17,133.58L389.73,132.77L383.79,132.99L383.88,135.92L382.44,138.76L382.47,140.25L381.31,142.3L379.18,143.42L378.71,145.63L376.84,146.45L377.98,148.66L377.87,153.54L378.56,155.38L379.85,154.82L380.9,156.32L382.84,156.19L383.51,158.49L387.06,159.02L388.8,158.04L390.12,158.97L390.49,161.55L391.78,163.15L392.42,165.97L393.35,165.9L393.94,169.39L393.08,171.21L390.76,172.92L391.86,174.58L394.76,175.63L398.07,175.63L400.09,176.4L400.92,179.55L403.18,180.72L404.47,183.05L402.73,183.49L403.42,187.85L404.77,186.74L406.5,186.64L407.93,185.46L409.3,186.55L411.04,186.52L410.06,189.38L411.2,191.33L411.74,190.51L413.62,192.39L412.95,195.35L413.27,199.31L412.66,200.56L409.98,199.94L408.76,200.6L408.36,205.62L407.41,206.9L406.97,211.01L405.96,211.99Z" stroke-miterlimit="10" stroke="#FFFFFF"/>
<path Title="崂山区" fill="#D3D3D3" id="path4" d="M359.53,357.42L360.09,355.5L362.07,353.56L362.89,350.75L366.37,346.52L367.05,343.2L373.12,341.17L375.67,341.65L380.96,341.96L383.58,341.65L386.63,337.43L386.06,335.92L387.95,332.31L388.96,329.62L387.88,325.96L388.37,324.79L386.67,322.92L386.28,320.87L385.04,319.35L384.93,317.62L385.9,317.68L386,314.89L389.26,315.42L390.37,314.56L393.48,315.4L397.83,315.33L400.86,317.05L401.03,312.43L402.81,309.51L404.06,310.65L405.55,310.06L404.98,312.97L405.24,315.72L406.28,317.29L411.54,317.53L412.23,316.88L413.54,317.4L413.67,319.76L415.4,321.77L415.85,323.8L415.21,326.29L412.22,329.67L411.5,331.36L411.86,333.02L413.36,334.92L416.24,334.28L418.32,332.46L421.52,333.29L421.39,340.49L422.73,343.17L420,347.07L420.2,349.09L422.42,351.93L424.73,361.89L423.58,366.99L424.14,369.09L424.1,372.12L424.86,375.38L428.45,377.22L427.89,378.89L425.22,379.08L425.07,380.79L427.06,381.56L426.84,385.32L427.4,386.36L429.52,385.52L431.31,385.88L431.81,388.38L429.48,391.36L424.41,392.43L421.48,391.68L418.31,390.04L417.34,390.12L410.67,394.67L408.28,395.86L404.92,396.4L401.56,394.14L399.8,393.82L398.74,394.8L397.43,398.72L394.96,400.78L390.64,401.07L388.64,399.97L389.12,397.12L388.04,395.7L386.81,396.05L386.52,398.19L384.9,399.19L381.3,398.36L380.21,397.07L378.8,397.84L378.85,398.9L380.32,401.28L379.06,404.35L376.94,404.01L376.24,404.94L372.37,403.95L369.72,405.13L367.55,405.13L363.63,406.7L360.4,405.03L358.1,404.64L354.34,406.35L353.02,408.43L352.12,408.39L348.84,411.73L346.15,415.31L345,414.58L343.68,415.59L343.04,417.36L343.91,418.62L343.34,419.75L341.77,418.03L341.74,416.7L340.07,414.75L340.72,414.47L337.74,411.09L340.42,409.91L339.62,404.89L339.79,403.44L344.12,402.38L338.6,392.08L336.96,390.79L339.72,388.4L341.42,386.97L342.81,384.69L343.86,385.1L349.94,384.85L352.91,381.73L357.21,379.54L359.19,379.3L361.55,376.49L362.39,372.93L365.33,371.3L364.83,369.08L366.82,366.8L366.5,364.43L367.33,362.82L367.76,360.11L363.61,359.05ZM390.23,402.92L391.95,401.9L391.68,403.35L393.31,404.06L393.48,405.16L391.76,405.81L388.72,404.68ZM480.21,479.84L482.43,478.18L483.73,478.44L481.78,480.39L479.61,481.79ZM436.2,352.25L437.9,351.84L437.44,352.92ZM462.18,350.44L463.17,349.08L463.8,349.87L463.26,352.54L462.27,353.11ZM502.4,370.53L503.92,370.37L504.09,372.13ZM362.66,453.65L364.55,454.12L364.34,455.07L362.56,454.84ZM448.79,348.97L449.88,352.99L449.52,354.93L447.7,354.05L446.63,351.73L447.92,348.42ZM432.37,330.31L433.55,329.77L433.98,332.75L432.14,333.21Z" stroke-miterlimit="10" stroke="#FFFFFF"/>
<path Title="李沧区" fill="#D3D3D3" id="path5" d="M316.2,360.25L317.97,354.19L319.55,354.6L322.96,354.34L322.78,353.28L324.61,352.12L323.99,350.5L325.65,349.12L329.07,348.79L330.7,350.41L330.9,351.56L333.61,351.88L336.64,351.35L336.84,352.47L339.46,354.78L340.18,356.29L341.55,356.3L342.19,357.72L340.84,359.97L341.49,361.91L345.1,361.39L346.88,360.36L349.61,362.33L350.16,363.51L352.42,362.63L353.56,363.04L355.78,361.63L359.53,357.42L363.61,359.05L367.76,360.11L367.33,362.82L366.5,364.43L366.82,366.8L364.83,369.08L365.33,371.3L362.39,372.93L361.55,376.49L359.19,379.3L357.21,379.54L352.91,381.73L349.94,384.85L343.86,385.1L342.81,384.69L341.42,386.97L339.72,388.4L336.64,388.01L334.93,386.35L333.77,381.67L331.78,380.55L328.41,380.71L327.19,381.92L324.68,381.52L318.75,378.3L320.35,376.34L320.08,374.39L320.75,373.02L324.21,371.88L323.98,369.87L322.01,364.89L320.9,363.29L318.69,362.33Z" stroke-miterlimit="10" stroke="#FFFFFF"/>
<path Title="平度市" fill="#D3D3D3" id="path9" d="M213.18,249.68L213.88,245.46L210.73,245.66L210.41,247.54L202.94,243L202.1,240.42L198.22,240.79L196.36,240.12L196.54,241.5L193.82,242.41L191.14,244.59L190.88,245.88L191.26,250.39L187.05,250.73L186.2,240.56L185.38,239.11L177.89,237.72L175.57,236.9L160.88,234.15L157.48,233.31L153.43,231.66L148.66,229.27L144.5,228.1L140.7,226.03L138.86,225.41L139.02,224.44L135.73,223.94L133.14,221.55L130.68,222.17L130.75,223.34L128.84,224.58L127.01,225.01L126.74,222.14L127.58,220.4L127.8,218.02L123.58,214.37L123.28,213.17L120.92,212.05L118.83,209.7L116.02,208.35L112.97,208.13L109.48,204.52L109.04,205.2L105.43,201.85L104.13,202.79L103.57,201.72L100.47,198.89L99.1,198.73L98.7,197.54L95.54,195.91L94.15,194.51L94.49,193.61L93.06,190.65L91.38,185.13L90.27,185.21L89.18,182.99L88.96,180.9L87.89,180.31L86.85,176.53L83.96,173.97L84.03,172.69L82.73,171.62L81.63,168.03L79.39,167.01L77.83,167.46L75.85,164.47L72.93,163.79L71.57,162.71L67.85,155.86L66.5,147.45L67.19,141.77L69.15,138.83L68.74,135.97L69.13,134.16L71.05,134.17L72.17,133.14L71.49,132.01L69.99,132.74L69.39,131.43L72.65,130.81L74.49,132.42L76.68,133.08L77.9,131.94L79.75,128.24L87.15,112.16L87.54,108.55L87.81,87.83L86.3,83.26L83.56,78.21L82.84,75.62L84,72.42L87.23,61.37L89.23,58.83L90.83,51.96L92.2,50.55L93.69,50.43L93.89,52.35L95.8,52.24L96.85,51.07L100.08,51.8L100.39,53.05L103.13,52.63L104.98,53.33L105.83,54.49L107.04,54.13L111.21,56.29L113.08,56.37L112.93,57.89L115.11,58.12L116.33,56.96L120.44,55.94L123.76,54.55L125.06,57.33L125.4,59.84L128.11,61.73L130.73,60.41L133.91,60.16L134.08,60.83L137.86,59.96L140.03,58.61L140.63,54.61L144.16,54.24L148.29,51.95L150.79,52L152.75,53.1L152.8,54.67L155.47,56.36L155.47,57.45L158.36,56.52L163,57.09L165.08,56.52L173.28,57.5L175.58,57.07L176.16,57.71L180,58.24L180.68,59.3L187.16,59.63L191.24,57.06L192.14,55.73L195.25,54.93L195.2,53.13L196.27,53.69L198.13,52.28L200.62,51.82L203.2,53.03L204.62,50.34L206.04,50.42L208.71,52.62L211.41,52.12L212.22,53.48L214.27,54.82L216.67,55.12L218.61,57.55L220.53,56.62L220.52,58.19L221.91,57.53L223.13,55.09L224.56,54.64L224.25,53.44L225.86,49.6L231.48,50.04L233.56,50.81L234.24,50.01L237.44,50.08L241.89,51.81L245.15,51.4L246.77,50.54L248.5,50.97L253.12,48.77L254.23,48.98L254.42,51.43L255.05,51.91L258.43,51.44L258.9,52.47L262.23,50.24L261.81,47.39L263.4,46.83L263.85,44.07L266.2,44.79L267.09,43.59L269.19,42.62L270.11,44.13L273.78,42.54L274.94,40.26L276.42,41L279.14,41.08L281.5,39.27L282.96,40.13L284.45,42.96L283.86,44.67L285.05,45.38L288.13,45.53L288.58,43.82L291.9,43.35L293.44,42.33L296.02,41.97L300.08,43.62L301.01,45.42L302.3,45.7L300.92,48.31L297.51,49.36L295.73,49.31L294.52,53.06L297.59,55.98L300.91,56.28L302.8,55.17L302.39,54.16L304.33,53.79L305.27,55.45L307.81,54.93L310.36,55.63L310.3,57.77L305.95,59.81L304.47,61.88L304.35,63.31L307.41,66.67L309.28,69.94L309.08,73.47L305.76,78.17L303.71,84.32L302.32,85.7L298.45,87.03L297.27,87.88L296.71,90L297.08,91.75L298.9,92.94L301.26,96.16L301.38,98.32L300.24,99.9L299.03,103.06L298.59,107.76L297.34,114.11L297.38,115.33L295.29,121.17L294.38,127.64L291.38,133.71L291.17,135.28L291.78,142.98L293.14,145.94L292.59,146.79L293.58,150.13L294.31,150.65L295.03,153.69L294.76,156.56L295.47,158.82L294.53,159.87L294.54,165.71L294.21,171.09L295.17,172.54L294.93,175.26L295.85,176.21L297.23,180.66L300.72,182.62L302.24,185.04L302.36,186.64L300.94,189.14L300.59,193.8L298.26,195.84L296.56,196.31L293.79,195.87L292.74,196.99L291.96,199.79L290.84,200.6L288.57,199.94L285.59,198.64L283.01,198.62L280.28,201.14L277.76,201.32L276.22,202.23L274.96,204.21L273.57,205.19L273.36,206.73L274.15,211.72L273.16,213L270.15,214.48L268.52,216.37L265.3,216.85L262.09,218.78L260.55,218.08L258.52,221.08L258.46,224.27L257.63,228.06L254.7,232.78L255.78,236.06L259.62,239.23L260.22,241.44L259.17,243.4L259.02,245.97L261.97,249.64L262.06,253.47L264.66,254.94L265.37,256.47L264.45,259.42L263.1,259.76L262.55,257.27L260.71,256.59L260.12,255.55L253.29,254.89L253.43,253.73L250.41,253.63L250.71,251.88L249.34,251.91L246.68,253.62L246.35,255.23L234.66,253.46L234.65,254.25L230.55,255.43L229.72,258.07L227.3,257.79L227.22,256.49L223.5,253.76L223,252.66L221.76,253.62L222.38,254.64L220.52,255.99Z" stroke-miterlimit="10" stroke="#FFFFFF"/>
<path Title="市北区" fill="#D3D3D3" id="path2" d="M339.62,404.89L336.94,404.42L335.28,405.75L332.5,404.88L330.51,404.86L329.73,406.39L325.59,406.38L324.84,406.83L325.39,408.78L324.4,409.33L324.47,411.25L322.58,413.48L321.19,413.55L320.72,412.53L318.13,412.28L316.14,413.02L313.99,412.52L313,411.39L310.41,412.62L308.58,412.8L308.63,411.32L307.16,411.8L304.4,409.71L306.24,409.07L304.9,408.27L306.21,405.98L304.94,405.3L306.62,404.01L306.52,401.68L308.95,400.13L308.25,398.39L309.33,396.9L310.91,397.02L311.85,394.83L312.34,390.87L313.21,388.28L317.29,380.23L318.75,378.3L324.68,381.52L327.19,381.92L328.41,380.71L331.78,380.55L333.77,381.67L334.93,386.35L336.64,388.01L339.72,388.4L336.96,390.79L338.6,392.08L344.12,402.38L339.79,403.44Z" stroke-miterlimit="10" stroke="#FFFFFF"/>
<path Title="市南区" fill="#D3D3D3" id="path1" d="M339.62,404.89L340.42,409.91L337.74,411.09L340.72,414.47L340.07,414.75L341.74,416.7L341.77,418.03L340.42,418.57L338.27,417.65L334.93,419.85L332.75,420.15L329.84,419.82L330.25,416.9L329.05,416.84L324.43,419.17L323.86,420.48L324.97,421.85L323.73,423.43L321.97,423.25L321.99,421.98L320.66,420.88L318.32,421.19L316.87,422.92L315.16,423.44L314.51,422.51L316.04,419.82L314.4,418.58L312.12,419.98L310.41,420.05L310.35,416.72L307.5,416.93L306.43,418.47L306.73,419.84L305.31,420.39L302.64,419.63L301.32,420.2L301.87,423.11L300.2,422.03L299.36,423.16L298.59,421.53L299.61,419.72L299.98,416.14L303.27,412.39L303.13,410.74L304.4,409.71L307.16,411.8L308.63,411.32L308.58,412.8L310.41,412.62L313,411.39L313.99,412.52L316.14,413.02L318.13,412.28L320.72,412.53L321.19,413.55L322.58,413.48L324.47,411.25L324.4,409.33L325.39,408.78L324.84,406.83L325.59,406.38L329.73,406.39L330.51,404.86L332.5,404.88L335.28,405.75L336.94,404.42Z" stroke-miterlimit="10" stroke="#FFFFFF"/>
</svg>